<?xml version="1.0" encoding="utf-8" standalone="no"?>
<!DOCTYPE svg PUBLIC "-//W3C//DTD SVG 1.1//EN"
  "http://www.w3.org/Graphics/SVG/1.1/DTD/svg11.dtd">
<svg xmlns:xlink="http://www.w3.org/1999/xlink" width="429.42pt" height="396.37375pt" viewBox="0 0 429.42 396.37375" xmlns="http://www.w3.org/2000/svg" version="1.1">
 <metadata>
  <rdf:RDF xmlns:dc="http://purl.org/dc/elements/1.1/" xmlns:cc="http://creativecommons.org/ns#" xmlns:rdf="http://www.w3.org/1999/02/22-rdf-syntax-ns#">
   <cc:Work>
    <dc:type rdf:resource="http://purl.org/dc/dcmitype/StillImage"/>
    <dc:date>2024-04-07T20:11:53.103013</dc:date>
    <dc:format>image/svg+xml</dc:format>
    <dc:creator>
     <cc:Agent>
      <dc:title>Matplotlib v3.7.2, https://matplotlib.org/</dc:title>
     </cc:Agent>
    </dc:creator>
   </cc:Work>
  </rdf:RDF>
 </metadata>
 <defs>
  <style type="text/css">*{stroke-linejoin: round; stroke-linecap: butt}</style>
 </defs>
 <g id="figure_1">
  <g id="patch_1">
   <path d="M 0 396.37375 
L 429.42 396.37375 
L 429.42 0 
L 0 0 
z
" style="fill: #ffffff"/>
  </g>
  <g id="axes_1">
   <g id="patch_2">
    <path d="M 74.3375 345.91875 
L 409.1375 345.91875 
L 409.1375 13.27875 
L 74.3375 13.27875 
z
" style="fill: #ffffff"/>
   </g>
   <g id="matplotlib.axis_1">
    <g id="xtick_1">
     <g id="line2d_1">
      <path d="M 74.3375 345.91875 
L 74.3375 13.27875 
" clip-path="url(#p245115a7fe)" style="fill: none; stroke: #ffffff; stroke-width: 0.8; stroke-linecap: round"/>
     </g>
     <g id="line2d_2">
      <defs>
       <path id="m559e643bb7" d="M 0 0 
L 0 5 
" style="stroke: #262626; stroke-width: 0.8"/>
      </defs>
      <g>
       <use xlink:href="#m559e643bb7" x="74.3375" y="345.91875" style="fill: #262626; stroke: #262626; stroke-width: 0.8"/>
      </g>
     </g>
     <g id="text_1">
      <!-- −1.0 -->
      <g style="fill: #262626" transform="translate(54.7075 366.57625) scale(0.16 -0.16)">
       <defs>
        <path id="Verdana-2212" d="M 4550 1788 
L 688 1788 
L 688 2288 
L 4550 2288 
L 4550 1788 
z
" transform="scale(0.015625)"/>
        <path id="Verdana-31" d="M 3388 0 
L 869 0 
L 869 475 
L 1838 475 
L 1838 3594 
L 869 3594 
L 869 4019 
Q 1066 4019 1291 4051 
Q 1516 4084 1631 4147 
Q 1775 4225 1858 4345 
Q 1941 4466 1953 4669 
L 2438 4669 
L 2438 475 
L 3388 475 
L 3388 0 
z
" transform="scale(0.015625)"/>
        <path id="Verdana-2e" d="M 1538 0 
L 791 0 
L 791 891 
L 1538 891 
L 1538 0 
z
" transform="scale(0.015625)"/>
        <path id="Verdana-30" d="M 3647 2328 
Q 3647 1075 3255 489 
Q 2863 -97 2038 -97 
Q 1200 -97 814 497 
Q 428 1091 428 2322 
Q 428 3563 818 4155 
Q 1209 4747 2038 4747 
Q 2875 4747 3261 4145 
Q 3647 3544 3647 2328 
z
M 2825 909 
Q 2934 1163 2973 1505 
Q 3013 1847 3013 2328 
Q 3013 2803 2973 3153 
Q 2934 3503 2822 3747 
Q 2713 3988 2523 4109 
Q 2334 4231 2038 4231 
Q 1744 4231 1551 4109 
Q 1359 3988 1247 3741 
Q 1141 3509 1102 3137 
Q 1063 2766 1063 2322 
Q 1063 1834 1097 1506 
Q 1131 1178 1244 919 
Q 1347 675 1536 547 
Q 1725 419 2038 419 
Q 2331 419 2525 541 
Q 2719 663 2825 909 
z
" transform="scale(0.015625)"/>
       </defs>
       <use xlink:href="#Verdana-2212"/>
       <use xlink:href="#Verdana-31" x="81.835938"/>
       <use xlink:href="#Verdana-2e" x="145.410156"/>
       <use xlink:href="#Verdana-30" x="181.787109"/>
      </g>
     </g>
    </g>
    <g id="xtick_2">
     <g id="line2d_3">
      <path d="M 158.0375 345.91875 
L 158.0375 13.27875 
" clip-path="url(#p245115a7fe)" style="fill: none; stroke: #ffffff; stroke-width: 0.8; stroke-linecap: round"/>
     </g>
     <g id="line2d_4">
      <g>
       <use xlink:href="#m559e643bb7" x="158.0375" y="345.91875" style="fill: #262626; stroke: #262626; stroke-width: 0.8"/>
      </g>
     </g>
     <g id="text_2">
      <!-- −0.5 -->
      <g style="fill: #262626" transform="translate(138.4075 366.57625) scale(0.16 -0.16)">
       <defs>
        <path id="Verdana-35" d="M 3616 1478 
Q 3616 1153 3497 856 
Q 3378 559 3172 356 
Q 2947 138 2636 20 
Q 2325 -97 1916 -97 
Q 1534 -97 1181 -17 
Q 828 63 584 175 
L 584 834 
L 628 834 
Q 884 672 1228 558 
Q 1572 444 1903 444 
Q 2125 444 2333 506 
Q 2541 569 2703 725 
Q 2841 859 2911 1046 
Q 2981 1234 2981 1481 
Q 2981 1722 2898 1887 
Q 2816 2053 2669 2153 
Q 2506 2272 2273 2320 
Q 2041 2369 1753 2369 
Q 1478 2369 1223 2331 
Q 969 2294 784 2256 
L 784 4653 
L 3584 4653 
L 3584 4106 
L 1388 4106 
L 1388 2869 
Q 1522 2881 1662 2887 
Q 1803 2894 1906 2894 
Q 2284 2894 2568 2830 
Q 2853 2766 3091 2603 
Q 3341 2431 3478 2159 
Q 3616 1888 3616 1478 
z
" transform="scale(0.015625)"/>
       </defs>
       <use xlink:href="#Verdana-2212"/>
       <use xlink:href="#Verdana-30" x="81.835938"/>
       <use xlink:href="#Verdana-2e" x="145.410156"/>
       <use xlink:href="#Verdana-35" x="181.787109"/>
      </g>
     </g>
    </g>
    <g id="xtick_3">
     <g id="line2d_5">
      <path d="M 241.7375 345.91875 
L 241.7375 13.27875 
" clip-path="url(#p245115a7fe)" style="fill: none; stroke: #ffffff; stroke-width: 0.8; stroke-linecap: round"/>
     </g>
     <g id="line2d_6">
      <g>
       <use xlink:href="#m559e643bb7" x="241.7375" y="345.91875" style="fill: #262626; stroke: #262626; stroke-width: 0.8"/>
      </g>
     </g>
     <g id="text_3">
      <!-- 0.0 -->
      <g style="fill: #262626" transform="translate(228.655 366.57625) scale(0.16 -0.16)">
       <use xlink:href="#Verdana-30"/>
       <use xlink:href="#Verdana-2e" x="63.574219"/>
       <use xlink:href="#Verdana-30" x="99.951172"/>
      </g>
     </g>
    </g>
    <g id="xtick_4">
     <g id="line2d_7">
      <path d="M 325.4375 345.91875 
L 325.4375 13.27875 
" clip-path="url(#p245115a7fe)" style="fill: none; stroke: #ffffff; stroke-width: 0.8; stroke-linecap: round"/>
     </g>
     <g id="line2d_8">
      <g>
       <use xlink:href="#m559e643bb7" x="325.4375" y="345.91875" style="fill: #262626; stroke: #262626; stroke-width: 0.8"/>
      </g>
     </g>
     <g id="text_4">
      <!-- 0.5 -->
      <g style="fill: #262626" transform="translate(312.355 366.57625) scale(0.16 -0.16)">
       <use xlink:href="#Verdana-30"/>
       <use xlink:href="#Verdana-2e" x="63.574219"/>
       <use xlink:href="#Verdana-35" x="99.951172"/>
      </g>
     </g>
    </g>
    <g id="xtick_5">
     <g id="line2d_9">
      <path d="M 409.1375 345.91875 
L 409.1375 13.27875 
" clip-path="url(#p245115a7fe)" style="fill: none; stroke: #ffffff; stroke-width: 0.8; stroke-linecap: round"/>
     </g>
     <g id="line2d_10">
      <g>
       <use xlink:href="#m559e643bb7" x="409.1375" y="345.91875" style="fill: #262626; stroke: #262626; stroke-width: 0.8"/>
      </g>
     </g>
     <g id="text_5">
      <!-- 1.0 -->
      <g style="fill: #262626" transform="translate(396.055 366.57625) scale(0.16 -0.16)">
       <use xlink:href="#Verdana-31"/>
       <use xlink:href="#Verdana-2e" x="63.574219"/>
       <use xlink:href="#Verdana-30" x="99.951172"/>
      </g>
     </g>
    </g>
    <g id="text_6">
     <!-- Dimension 1 -->
     <g style="fill: #262626" transform="translate(191.59 385.95375) scale(0.16 -0.16)">
      <defs>
       <path id="Verdana-44" d="M 4556 2322 
Q 4556 1688 4279 1172 
Q 4003 656 3544 372 
Q 3225 175 2833 87 
Q 2441 0 1800 0 
L 625 0 
L 625 4653 
L 1788 4653 
Q 2469 4653 2870 4554 
Q 3272 4456 3550 4284 
Q 4025 3988 4290 3494 
Q 4556 3000 4556 2322 
z
M 3909 2331 
Q 3909 2878 3718 3253 
Q 3528 3628 3150 3844 
Q 2875 4000 2565 4061 
Q 2256 4122 1825 4122 
L 1244 4122 
L 1244 531 
L 1825 531 
Q 2272 531 2605 597 
Q 2938 663 3216 841 
Q 3563 1063 3736 1425 
Q 3909 1788 3909 2331 
z
" transform="scale(0.015625)"/>
       <path id="Verdana-69" d="M 1209 4075 
L 547 4075 
L 547 4684 
L 1209 4684 
L 1209 4075 
z
M 1172 0 
L 584 0 
L 584 3491 
L 1172 3491 
L 1172 0 
z
" transform="scale(0.015625)"/>
       <path id="Verdana-6d" d="M 5672 0 
L 5084 0 
L 5084 1988 
Q 5084 2213 5064 2422 
Q 5044 2631 4978 2756 
Q 4906 2891 4772 2959 
Q 4638 3028 4384 3028 
Q 4138 3028 3891 2904 
Q 3644 2781 3397 2591 
Q 3406 2519 3412 2423 
Q 3419 2328 3419 2234 
L 3419 0 
L 2831 0 
L 2831 1988 
Q 2831 2219 2811 2426 
Q 2791 2634 2725 2759 
Q 2653 2894 2518 2961 
Q 2384 3028 2131 3028 
Q 1891 3028 1648 2909 
Q 1406 2791 1166 2606 
L 1166 0 
L 578 0 
L 578 3491 
L 1166 3491 
L 1166 3103 
Q 1441 3331 1714 3459 
Q 1988 3588 2297 3588 
Q 2653 3588 2901 3438 
Q 3150 3288 3272 3022 
Q 3628 3322 3922 3455 
Q 4216 3588 4550 3588 
Q 5125 3588 5398 3239 
Q 5672 2891 5672 2266 
L 5672 0 
z
" transform="scale(0.015625)"/>
       <path id="Verdana-65" d="M 3500 1684 
L 928 1684 
Q 928 1363 1025 1123 
Q 1122 884 1291 731 
Q 1453 581 1676 506 
Q 1900 431 2169 431 
Q 2525 431 2886 573 
Q 3247 716 3400 853 
L 3431 853 
L 3431 213 
Q 3134 88 2825 3 
Q 2516 -81 2175 -81 
Q 1306 -81 818 389 
Q 331 859 331 1725 
Q 331 2581 798 3084 
Q 1266 3588 2028 3588 
Q 2734 3588 3117 3175 
Q 3500 2763 3500 2003 
L 3500 1684 
z
M 2928 2134 
Q 2925 2597 2695 2850 
Q 2466 3103 1997 3103 
Q 1525 3103 1245 2825 
Q 966 2547 928 2134 
L 2928 2134 
z
" transform="scale(0.015625)"/>
       <path id="Verdana-6e" d="M 3497 0 
L 2909 0 
L 2909 1988 
Q 2909 2228 2881 2439 
Q 2853 2650 2778 2769 
Q 2700 2900 2553 2964 
Q 2406 3028 2172 3028 
Q 1931 3028 1668 2909 
Q 1406 2791 1166 2606 
L 1166 0 
L 578 0 
L 578 3491 
L 1166 3491 
L 1166 3103 
Q 1441 3331 1734 3459 
Q 2028 3588 2338 3588 
Q 2903 3588 3200 3247 
Q 3497 2906 3497 2266 
L 3497 0 
z
" transform="scale(0.015625)"/>
       <path id="Verdana-73" d="M 3072 1006 
Q 3072 528 2676 222 
Q 2281 -84 1597 -84 
Q 1209 -84 886 8 
Q 563 100 344 209 
L 344 869 
L 375 869 
Q 653 659 993 536 
Q 1334 413 1647 413 
Q 2034 413 2253 538 
Q 2472 663 2472 931 
Q 2472 1138 2353 1244 
Q 2234 1350 1897 1425 
Q 1772 1453 1570 1490 
Q 1369 1528 1203 1572 
Q 744 1694 551 1930 
Q 359 2166 359 2509 
Q 359 2725 448 2915 
Q 538 3106 719 3256 
Q 894 3403 1164 3489 
Q 1434 3575 1769 3575 
Q 2081 3575 2401 3498 
Q 2722 3422 2934 3313 
L 2934 2684 
L 2903 2684 
Q 2678 2850 2356 2964 
Q 2034 3078 1725 3078 
Q 1403 3078 1181 2954 
Q 959 2831 959 2588 
Q 959 2372 1094 2263 
Q 1225 2153 1519 2084 
Q 1681 2047 1882 2009 
Q 2084 1972 2219 1941 
Q 2628 1847 2850 1619 
Q 3072 1388 3072 1006 
z
" transform="scale(0.015625)"/>
       <path id="Verdana-6f" d="M 3553 1744 
Q 3553 891 3115 397 
Q 2678 -97 1944 -97 
Q 1203 -97 767 397 
Q 331 891 331 1744 
Q 331 2597 767 3092 
Q 1203 3588 1944 3588 
Q 2678 3588 3115 3092 
Q 3553 2597 3553 1744 
z
M 2947 1744 
Q 2947 2422 2681 2751 
Q 2416 3081 1944 3081 
Q 1466 3081 1202 2751 
Q 938 2422 938 1744 
Q 938 1088 1203 748 
Q 1469 409 1944 409 
Q 2413 409 2680 745 
Q 2947 1081 2947 1744 
z
" transform="scale(0.015625)"/>
       <path id="Verdana-20" transform="scale(0.015625)"/>
      </defs>
      <use xlink:href="#Verdana-44"/>
      <use xlink:href="#Verdana-69" x="77.050781"/>
      <use xlink:href="#Verdana-6d" x="104.492188"/>
      <use xlink:href="#Verdana-65" x="201.757812"/>
      <use xlink:href="#Verdana-6e" x="261.328125"/>
      <use xlink:href="#Verdana-73" x="324.609375"/>
      <use xlink:href="#Verdana-69" x="376.708984"/>
      <use xlink:href="#Verdana-6f" x="404.150391"/>
      <use xlink:href="#Verdana-6e" x="464.84375"/>
      <use xlink:href="#Verdana-20" x="528.125"/>
      <use xlink:href="#Verdana-31" x="563.28125"/>
     </g>
    </g>
   </g>
   <g id="matplotlib.axis_2">
    <g id="ytick_1">
     <g id="line2d_11">
      <path d="M 74.3375 345.91875 
L 409.1375 345.91875 
" clip-path="url(#p245115a7fe)" style="fill: none; stroke: #ffffff; stroke-width: 0.8; stroke-linecap: round"/>
     </g>
     <g id="line2d_12">
      <defs>
       <path id="m69c54811d1" d="M 0 0 
L -5 0 
" style="stroke: #262626; stroke-width: 0.8"/>
      </defs>
      <g>
       <use xlink:href="#m69c54811d1" x="74.3375" y="345.91875" style="fill: #262626; stroke: #262626; stroke-width: 0.8"/>
      </g>
     </g>
     <g id="text_7">
      <!-- −1.0 -->
      <g style="fill: #262626" transform="translate(26.5775 351.9975) scale(0.16 -0.16)">
       <use xlink:href="#Verdana-2212"/>
       <use xlink:href="#Verdana-31" x="81.835938"/>
       <use xlink:href="#Verdana-2e" x="145.410156"/>
       <use xlink:href="#Verdana-30" x="181.787109"/>
      </g>
     </g>
    </g>
    <g id="ytick_2">
     <g id="line2d_13">
      <path d="M 74.3375 262.75875 
L 409.1375 262.75875 
" clip-path="url(#p245115a7fe)" style="fill: none; stroke: #ffffff; stroke-width: 0.8; stroke-linecap: round"/>
     </g>
     <g id="line2d_14">
      <g>
       <use xlink:href="#m69c54811d1" x="74.3375" y="262.75875" style="fill: #262626; stroke: #262626; stroke-width: 0.8"/>
      </g>
     </g>
     <g id="text_8">
      <!-- −0.5 -->
      <g style="fill: #262626" transform="translate(26.5775 268.8375) scale(0.16 -0.16)">
       <use xlink:href="#Verdana-2212"/>
       <use xlink:href="#Verdana-30" x="81.835938"/>
       <use xlink:href="#Verdana-2e" x="145.410156"/>
       <use xlink:href="#Verdana-35" x="181.787109"/>
      </g>
     </g>
    </g>
    <g id="ytick_3">
     <g id="line2d_15">
      <path d="M 74.3375 179.59875 
L 409.1375 179.59875 
" clip-path="url(#p245115a7fe)" style="fill: none; stroke: #ffffff; stroke-width: 0.8; stroke-linecap: round"/>
     </g>
     <g id="line2d_16">
      <g>
       <use xlink:href="#m69c54811d1" x="74.3375" y="179.59875" style="fill: #262626; stroke: #262626; stroke-width: 0.8"/>
      </g>
     </g>
     <g id="text_9">
      <!-- 0.0 -->
      <g style="fill: #262626" transform="translate(39.6725 185.6775) scale(0.16 -0.16)">
       <use xlink:href="#Verdana-30"/>
       <use xlink:href="#Verdana-2e" x="63.574219"/>
       <use xlink:href="#Verdana-30" x="99.951172"/>
      </g>
     </g>
    </g>
    <g id="ytick_4">
     <g id="line2d_17">
      <path d="M 74.3375 96.43875 
L 409.1375 96.43875 
" clip-path="url(#p245115a7fe)" style="fill: none; stroke: #ffffff; stroke-width: 0.8; stroke-linecap: round"/>
     </g>
     <g id="line2d_18">
      <g>
       <use xlink:href="#m69c54811d1" x="74.3375" y="96.43875" style="fill: #262626; stroke: #262626; stroke-width: 0.8"/>
      </g>
     </g>
     <g id="text_10">
      <!-- 0.5 -->
      <g style="fill: #262626" transform="translate(39.6725 102.5175) scale(0.16 -0.16)">
       <use xlink:href="#Verdana-30"/>
       <use xlink:href="#Verdana-2e" x="63.574219"/>
       <use xlink:href="#Verdana-35" x="99.951172"/>
      </g>
     </g>
    </g>
    <g id="ytick_5">
     <g id="line2d_19">
      <path d="M 74.3375 13.27875 
L 409.1375 13.27875 
" clip-path="url(#p245115a7fe)" style="fill: none; stroke: #ffffff; stroke-width: 0.8; stroke-linecap: round"/>
     </g>
     <g id="line2d_20">
      <g>
       <use xlink:href="#m69c54811d1" x="74.3375" y="13.27875" style="fill: #262626; stroke: #262626; stroke-width: 0.8"/>
      </g>
     </g>
     <g id="text_11">
      <!-- 1.0 -->
      <g style="fill: #262626" transform="translate(39.6725 19.3575) scale(0.16 -0.16)">
       <use xlink:href="#Verdana-31"/>
       <use xlink:href="#Verdana-2e" x="63.574219"/>
       <use xlink:href="#Verdana-30" x="99.951172"/>
      </g>
     </g>
    </g>
    <g id="text_12">
     <!-- Dimension 2 -->
     <g style="fill: #262626" transform="translate(19.3575 229.74625) rotate(-90) scale(0.16 -0.16)">
      <defs>
       <path id="Verdana-32" d="M 3653 0 
L 503 0 
L 503 653 
Q 831 934 1161 1215 
Q 1491 1497 1775 1775 
Q 2375 2356 2597 2698 
Q 2819 3041 2819 3438 
Q 2819 3800 2580 4004 
Q 2341 4209 1913 4209 
Q 1628 4209 1297 4109 
Q 966 4009 650 3803 
L 619 3803 
L 619 4459 
Q 841 4569 1211 4659 
Q 1581 4750 1928 4750 
Q 2644 4750 3050 4404 
Q 3456 4059 3456 3469 
Q 3456 3203 3389 2973 
Q 3322 2744 3191 2538 
Q 3069 2344 2905 2156 
Q 2741 1969 2506 1741 
Q 2172 1413 1815 1105 
Q 1459 797 1150 534 
L 3653 534 
L 3653 0 
z
" transform="scale(0.015625)"/>
      </defs>
      <use xlink:href="#Verdana-44"/>
      <use xlink:href="#Verdana-69" x="77.050781"/>
      <use xlink:href="#Verdana-6d" x="104.492188"/>
      <use xlink:href="#Verdana-65" x="201.757812"/>
      <use xlink:href="#Verdana-6e" x="261.328125"/>
      <use xlink:href="#Verdana-73" x="324.609375"/>
      <use xlink:href="#Verdana-69" x="376.708984"/>
      <use xlink:href="#Verdana-6f" x="404.150391"/>
      <use xlink:href="#Verdana-6e" x="464.84375"/>
      <use xlink:href="#Verdana-20" x="528.125"/>
      <use xlink:href="#Verdana-32" x="563.28125"/>
     </g>
    </g>
   </g>
   <g id="PathCollection_1">
    <defs>
     <path id="C0_0_f9313613c9" d="M 0 6 
C 1.591219 6 3.117479 5.367802 4.242641 4.242641 
C 5.367802 3.117479 6 1.591219 6 -0 
C 6 -1.591219 5.367802 -3.117479 4.242641 -4.242641 
C 3.117479 -5.367802 1.591219 -6 0 -6 
C -1.591219 -6 -3.117479 -5.367802 -4.242641 -4.242641 
C -5.367802 -3.117479 -6 -1.591219 -6 0 
C -6 1.591219 -5.367802 3.117479 -4.242641 4.242641 
C -3.117479 5.367802 -1.591219 6 0 6 
z
"/>
    </defs>
    <g clip-path="url(#p245115a7fe)">
     <use xlink:href="#C0_0_f9313613c9" x="294.319627" y="76.981162" style="fill: #00ff00; stroke: #00ff00"/>
    </g>
    <g clip-path="url(#p245115a7fe)">
     <use xlink:href="#C0_0_f9313613c9" x="118.502902" y="194.022967" style="fill: #ff8000; stroke: #ff8000"/>
    </g>
    <g clip-path="url(#p245115a7fe)">
     <use xlink:href="#C0_0_f9313613c9" x="154.654161" y="114.746132" style="fill: #ffff00; stroke: #ffff00"/>
    </g>
    <g clip-path="url(#p245115a7fe)">
     <use xlink:href="#C0_0_f9313613c9" x="368.994759" y="172.29005" style="fill: #0000ff; stroke: #0000ff"/>
    </g>
    <g clip-path="url(#p245115a7fe)">
     <use xlink:href="#C0_0_f9313613c9" x="338.854746" y="259.850761" style="fill: #8000ff; stroke: #8000ff"/>
    </g>
    <g clip-path="url(#p245115a7fe)">
     <use xlink:href="#C0_0_f9313613c9" x="175.098804" y="259.701428" style="fill: #ff0000; stroke: #ff0000"/>
    </g>
   </g>
   <g id="patch_3">
    <path d="M 74.3375 345.91875 
L 74.3375 13.27875 
" style="fill: none; stroke: #000000; stroke-width: 2; stroke-linejoin: miter; stroke-linecap: square"/>
   </g>
   <g id="patch_4">
    <path d="M 74.3375 345.91875 
L 409.1375 345.91875 
" style="fill: none; stroke: #000000; stroke-width: 2; stroke-linejoin: miter; stroke-linecap: square"/>
   </g>
  </g>
 </g>
 <defs>
  <clipPath id="p245115a7fe">
   <rect x="74.3375" y="13.27875" width="334.8" height="332.64"/>
  </clipPath>
 </defs>
</svg>
