<?xml version="1.0" encoding="utf-8" standalone="no"?>
<!DOCTYPE svg PUBLIC "-//W3C//DTD SVG 1.1//EN"
  "http://www.w3.org/Graphics/SVG/1.1/DTD/svg11.dtd">
<svg xmlns:xlink="http://www.w3.org/1999/xlink" width="453.995159pt" height="399.413125pt" viewBox="0 0 453.995159 399.413125" xmlns="http://www.w3.org/2000/svg" version="1.1">
 <metadata>
  <rdf:RDF xmlns:dc="http://purl.org/dc/elements/1.1/" xmlns:cc="http://creativecommons.org/ns#" xmlns:rdf="http://www.w3.org/1999/02/22-rdf-syntax-ns#">
   <cc:Work>
    <dc:type rdf:resource="http://purl.org/dc/dcmitype/StillImage"/>
    <dc:date>2024-01-08T14:04:07.237375</dc:date>
    <dc:format>image/svg+xml</dc:format>
    <dc:creator>
     <cc:Agent>
      <dc:title>Matplotlib v3.7.2, https://matplotlib.org/</dc:title>
     </cc:Agent>
    </dc:creator>
   </cc:Work>
  </rdf:RDF>
 </metadata>
 <defs>
  <style type="text/css">*{stroke-linejoin: round; stroke-linecap: butt}</style>
 </defs>
 <g id="figure_1">
  <g id="patch_1">
   <path d="M 0 399.413125 
L 453.995159 399.413125 
L 453.995159 0 
L 0 0 
z
" style="fill: #ffffff"/>
  </g>
  <g id="axes_1">
   <g id="patch_2">
    <path d="M 61.2425 348.958125 
L 396.0425 348.958125 
L 396.0425 16.318125 
L 61.2425 16.318125 
z
" style="fill: #ffffff"/>
   </g>
   <g id="matplotlib.axis_1">
    <g id="xtick_1">
     <g id="line2d_1">
      <path d="M 124.0175 348.958125 
L 124.0175 16.318125 
" clip-path="url(#p9efcd19e0f)" style="fill: none; stroke: #ffffff; stroke-width: 0.8; stroke-linecap: round"/>
     </g>
     <g id="line2d_2">
      <defs>
       <path id="m2cfc1e993d" d="M 0 0 
L 0 5 
" style="stroke: #262626; stroke-width: 0.8"/>
      </defs>
      <g>
       <use xlink:href="#m2cfc1e993d" x="124.0175" y="348.958125" style="fill: #262626; stroke: #262626; stroke-width: 0.8"/>
      </g>
     </g>
     <g id="text_1">
      <!-- −0.5 -->
      <g style="fill: #262626" transform="translate(104.3875 369.615625) scale(0.16 -0.16)">
       <defs>
        <path id="Verdana-2212" d="M 4550 1788 
L 688 1788 
L 688 2288 
L 4550 2288 
L 4550 1788 
z
" transform="scale(0.015625)"/>
        <path id="Verdana-30" d="M 3647 2328 
Q 3647 1075 3255 489 
Q 2863 -97 2038 -97 
Q 1200 -97 814 497 
Q 428 1091 428 2322 
Q 428 3563 818 4155 
Q 1209 4747 2038 4747 
Q 2875 4747 3261 4145 
Q 3647 3544 3647 2328 
z
M 2825 909 
Q 2934 1163 2973 1505 
Q 3013 1847 3013 2328 
Q 3013 2803 2973 3153 
Q 2934 3503 2822 3747 
Q 2713 3988 2523 4109 
Q 2334 4231 2038 4231 
Q 1744 4231 1551 4109 
Q 1359 3988 1247 3741 
Q 1141 3509 1102 3137 
Q 1063 2766 1063 2322 
Q 1063 1834 1097 1506 
Q 1131 1178 1244 919 
Q 1347 675 1536 547 
Q 1725 419 2038 419 
Q 2331 419 2525 541 
Q 2719 663 2825 909 
z
" transform="scale(0.015625)"/>
        <path id="Verdana-2e" d="M 1538 0 
L 791 0 
L 791 891 
L 1538 891 
L 1538 0 
z
" transform="scale(0.015625)"/>
        <path id="Verdana-35" d="M 3616 1478 
Q 3616 1153 3497 856 
Q 3378 559 3172 356 
Q 2947 138 2636 20 
Q 2325 -97 1916 -97 
Q 1534 -97 1181 -17 
Q 828 63 584 175 
L 584 834 
L 628 834 
Q 884 672 1228 558 
Q 1572 444 1903 444 
Q 2125 444 2333 506 
Q 2541 569 2703 725 
Q 2841 859 2911 1046 
Q 2981 1234 2981 1481 
Q 2981 1722 2898 1887 
Q 2816 2053 2669 2153 
Q 2506 2272 2273 2320 
Q 2041 2369 1753 2369 
Q 1478 2369 1223 2331 
Q 969 2294 784 2256 
L 784 4653 
L 3584 4653 
L 3584 4106 
L 1388 4106 
L 1388 2869 
Q 1522 2881 1662 2887 
Q 1803 2894 1906 2894 
Q 2284 2894 2568 2830 
Q 2853 2766 3091 2603 
Q 3341 2431 3478 2159 
Q 3616 1888 3616 1478 
z
" transform="scale(0.015625)"/>
       </defs>
       <use xlink:href="#Verdana-2212"/>
       <use xlink:href="#Verdana-30" x="81.835938"/>
       <use xlink:href="#Verdana-2e" x="145.410156"/>
       <use xlink:href="#Verdana-35" x="181.787109"/>
      </g>
     </g>
    </g>
    <g id="xtick_2">
     <g id="line2d_3">
      <path d="M 228.6425 348.958125 
L 228.6425 16.318125 
" clip-path="url(#p9efcd19e0f)" style="fill: none; stroke: #ffffff; stroke-width: 0.8; stroke-linecap: round"/>
     </g>
     <g id="line2d_4">
      <g>
       <use xlink:href="#m2cfc1e993d" x="228.6425" y="348.958125" style="fill: #262626; stroke: #262626; stroke-width: 0.8"/>
      </g>
     </g>
     <g id="text_2">
      <!-- 0.0 -->
      <g style="fill: #262626" transform="translate(215.56 369.615625) scale(0.16 -0.16)">
       <use xlink:href="#Verdana-30"/>
       <use xlink:href="#Verdana-2e" x="63.574219"/>
       <use xlink:href="#Verdana-30" x="99.951172"/>
      </g>
     </g>
    </g>
    <g id="xtick_3">
     <g id="line2d_5">
      <path d="M 333.2675 348.958125 
L 333.2675 16.318125 
" clip-path="url(#p9efcd19e0f)" style="fill: none; stroke: #ffffff; stroke-width: 0.8; stroke-linecap: round"/>
     </g>
     <g id="line2d_6">
      <g>
       <use xlink:href="#m2cfc1e993d" x="333.2675" y="348.958125" style="fill: #262626; stroke: #262626; stroke-width: 0.8"/>
      </g>
     </g>
     <g id="text_3">
      <!-- 0.5 -->
      <g style="fill: #262626" transform="translate(320.185 369.615625) scale(0.16 -0.16)">
       <use xlink:href="#Verdana-30"/>
       <use xlink:href="#Verdana-2e" x="63.574219"/>
       <use xlink:href="#Verdana-35" x="99.951172"/>
      </g>
     </g>
    </g>
    <g id="text_4">
     <!-- PC2 -->
     <g style="fill: #262626" transform="translate(213.14625 388.993125) scale(0.16 -0.16)">
      <defs>
       <path id="Verdana-50" d="M 3669 3247 
Q 3669 2938 3561 2673 
Q 3453 2409 3259 2216 
Q 3019 1975 2691 1854 
Q 2363 1734 1863 1734 
L 1244 1734 
L 1244 0 
L 625 0 
L 625 4653 
L 1888 4653 
Q 2306 4653 2597 4583 
Q 2888 4513 3113 4363 
Q 3378 4184 3523 3918 
Q 3669 3653 3669 3247 
z
M 3025 3231 
Q 3025 3472 2940 3650 
Q 2856 3828 2684 3941 
Q 2534 4038 2342 4080 
Q 2150 4122 1856 4122 
L 1244 4122 
L 1244 2263 
L 1766 2263 
Q 2141 2263 2375 2330 
Q 2609 2397 2756 2544 
Q 2903 2694 2964 2859 
Q 3025 3025 3025 3231 
z
" transform="scale(0.015625)"/>
       <path id="Verdana-43" d="M 4219 338 
Q 4047 263 3908 197 
Q 3769 131 3544 59 
Q 3353 0 3129 -42 
Q 2906 -84 2638 -84 
Q 2131 -84 1717 58 
Q 1303 200 997 503 
Q 697 800 528 1258 
Q 359 1716 359 2322 
Q 359 2897 521 3350 
Q 684 3803 991 4116 
Q 1288 4419 1708 4578 
Q 2128 4738 2641 4738 
Q 3016 4738 3389 4647 
Q 3763 4556 4219 4328 
L 4219 3594 
L 4172 3594 
Q 3788 3916 3409 4062 
Q 3031 4209 2600 4209 
Q 2247 4209 1964 4095 
Q 1681 3981 1459 3741 
Q 1244 3506 1123 3148 
Q 1003 2791 1003 2322 
Q 1003 1831 1136 1478 
Q 1269 1125 1478 903 
Q 1697 672 1989 561 
Q 2281 450 2606 450 
Q 3053 450 3443 603 
Q 3834 756 4175 1063 
L 4219 1063 
L 4219 338 
z
" transform="scale(0.015625)"/>
       <path id="Verdana-32" d="M 3653 0 
L 503 0 
L 503 653 
Q 831 934 1161 1215 
Q 1491 1497 1775 1775 
Q 2375 2356 2597 2698 
Q 2819 3041 2819 3438 
Q 2819 3800 2580 4004 
Q 2341 4209 1913 4209 
Q 1628 4209 1297 4109 
Q 966 4009 650 3803 
L 619 3803 
L 619 4459 
Q 841 4569 1211 4659 
Q 1581 4750 1928 4750 
Q 2644 4750 3050 4404 
Q 3456 4059 3456 3469 
Q 3456 3203 3389 2973 
Q 3322 2744 3191 2538 
Q 3069 2344 2905 2156 
Q 2741 1969 2506 1741 
Q 2172 1413 1815 1105 
Q 1459 797 1150 534 
L 3653 534 
L 3653 0 
z
" transform="scale(0.015625)"/>
      </defs>
      <use xlink:href="#Verdana-50"/>
      <use xlink:href="#Verdana-43" x="60.302734"/>
      <use xlink:href="#Verdana-32" x="130.126953"/>
     </g>
    </g>
   </g>
   <g id="matplotlib.axis_2">
    <g id="ytick_1">
     <g id="line2d_7">
      <path d="M 61.2425 297.78274 
L 396.0425 297.78274 
" clip-path="url(#p9efcd19e0f)" style="fill: none; stroke: #ffffff; stroke-width: 0.8; stroke-linecap: round"/>
     </g>
     <g id="line2d_8">
      <defs>
       <path id="m9421a5151c" d="M 0 0 
L -5 0 
" style="stroke: #262626; stroke-width: 0.8"/>
      </defs>
      <g>
       <use xlink:href="#m9421a5151c" x="61.2425" y="297.78274" style="fill: #262626; stroke: #262626; stroke-width: 0.8"/>
      </g>
     </g>
     <g id="text_5">
      <!-- 0.4 -->
      <g style="fill: #262626" transform="translate(26.5775 303.86149) scale(0.16 -0.16)">
       <defs>
        <path id="Verdana-34" d="M 3759 1309 
L 3069 1309 
L 3069 0 
L 2469 0 
L 2469 1309 
L 241 1309 
L 241 2028 
L 2494 4653 
L 3069 4653 
L 3069 1809 
L 3759 1809 
L 3759 1309 
z
M 2469 1809 
L 2469 3909 
L 666 1809 
L 2469 1809 
z
" transform="scale(0.015625)"/>
       </defs>
       <use xlink:href="#Verdana-30"/>
       <use xlink:href="#Verdana-2e" x="63.574219"/>
       <use xlink:href="#Verdana-34" x="99.951172"/>
      </g>
     </g>
    </g>
    <g id="ytick_2">
     <g id="line2d_9">
      <path d="M 61.2425 195.431971 
L 396.0425 195.431971 
" clip-path="url(#p9efcd19e0f)" style="fill: none; stroke: #ffffff; stroke-width: 0.8; stroke-linecap: round"/>
     </g>
     <g id="line2d_10">
      <g>
       <use xlink:href="#m9421a5151c" x="61.2425" y="195.431971" style="fill: #262626; stroke: #262626; stroke-width: 0.8"/>
      </g>
     </g>
     <g id="text_6">
      <!-- 0.6 -->
      <g style="fill: #262626" transform="translate(26.5775 201.510721) scale(0.16 -0.16)">
       <defs>
        <path id="Verdana-36" d="M 3722 1509 
Q 3722 800 3255 351 
Q 2788 -97 2109 -97 
Q 1766 -97 1484 9 
Q 1203 116 988 325 
Q 719 584 573 1012 
Q 428 1441 428 2044 
Q 428 2663 561 3141 
Q 694 3619 984 3991 
Q 1259 4344 1693 4542 
Q 2128 4741 2706 4741 
Q 2891 4741 3016 4725 
Q 3141 4709 3269 4669 
L 3269 4072 
L 3238 4072 
Q 3150 4119 2973 4161 
Q 2797 4203 2613 4203 
Q 1941 4203 1541 3783 
Q 1141 3363 1075 2647 
Q 1338 2806 1592 2889 
Q 1847 2972 2181 2972 
Q 2478 2972 2704 2917 
Q 2931 2863 3169 2697 
Q 3444 2506 3583 2215 
Q 3722 1925 3722 1509 
z
M 3088 1484 
Q 3088 1775 3002 1965 
Q 2916 2156 2719 2297 
Q 2575 2397 2400 2428 
Q 2225 2459 2034 2459 
Q 1769 2459 1541 2396 
Q 1313 2334 1072 2203 
Q 1066 2134 1062 2070 
Q 1059 2006 1059 1909 
Q 1059 1416 1161 1130 
Q 1263 844 1441 678 
Q 1584 541 1751 477 
Q 1919 413 2116 413 
Q 2569 413 2828 689 
Q 3088 966 3088 1484 
z
" transform="scale(0.015625)"/>
       </defs>
       <use xlink:href="#Verdana-30"/>
       <use xlink:href="#Verdana-2e" x="63.574219"/>
       <use xlink:href="#Verdana-36" x="99.951172"/>
      </g>
     </g>
    </g>
    <g id="ytick_3">
     <g id="line2d_11">
      <path d="M 61.2425 93.081202 
L 396.0425 93.081202 
" clip-path="url(#p9efcd19e0f)" style="fill: none; stroke: #ffffff; stroke-width: 0.8; stroke-linecap: round"/>
     </g>
     <g id="line2d_12">
      <g>
       <use xlink:href="#m9421a5151c" x="61.2425" y="93.081202" style="fill: #262626; stroke: #262626; stroke-width: 0.8"/>
      </g>
     </g>
     <g id="text_7">
      <!-- 0.8 -->
      <g style="fill: #262626" transform="translate(26.5775 99.159952) scale(0.16 -0.16)">
       <defs>
        <path id="Verdana-38" d="M 3688 1297 
Q 3688 694 3217 294 
Q 2747 -106 2034 -106 
Q 1278 -106 829 284 
Q 381 675 381 1284 
Q 381 1672 606 1986 
Q 831 2300 1241 2484 
L 1241 2503 
Q 866 2703 686 2940 
Q 506 3178 506 3534 
Q 506 4059 937 4409 
Q 1369 4759 2034 4759 
Q 2731 4759 3147 4425 
Q 3563 4091 3563 3575 
Q 3563 3259 3366 2954 
Q 3169 2650 2788 2478 
L 2788 2459 
Q 3225 2272 3456 1997 
Q 3688 1722 3688 1297 
z
M 2947 3569 
Q 2947 3903 2689 4101 
Q 2431 4300 2031 4300 
Q 1638 4300 1386 4112 
Q 1134 3925 1134 3606 
Q 1134 3381 1261 3217 
Q 1388 3053 1644 2925 
Q 1759 2869 1976 2778 
Q 2194 2688 2400 2628 
Q 2709 2834 2828 3056 
Q 2947 3278 2947 3569 
z
M 3044 1238 
Q 3044 1525 2917 1698 
Q 2791 1872 2422 2047 
Q 2275 2116 2100 2175 
Q 1925 2234 1634 2341 
Q 1353 2188 1183 1925 
Q 1013 1663 1013 1331 
Q 1013 909 1303 634 
Q 1594 359 2041 359 
Q 2497 359 2770 593 
Q 3044 828 3044 1238 
z
" transform="scale(0.015625)"/>
       </defs>
       <use xlink:href="#Verdana-30"/>
       <use xlink:href="#Verdana-2e" x="63.574219"/>
       <use xlink:href="#Verdana-38" x="99.951172"/>
      </g>
     </g>
    </g>
    <g id="text_8">
     <!-- Saturation -->
     <g style="fill: #262626" transform="translate(19.3575 224.470625) rotate(-90) scale(0.16 -0.16)">
      <defs>
       <path id="Verdana-53" d="M 4006 1328 
Q 4006 1056 3879 790 
Q 3753 525 3525 341 
Q 3275 141 2942 28 
Q 2609 -84 2141 -84 
Q 1638 -84 1236 9 
Q 834 103 419 288 
L 419 1063 
L 463 1063 
Q 816 769 1278 609 
Q 1741 450 2147 450 
Q 2722 450 3042 665 
Q 3363 881 3363 1241 
Q 3363 1550 3211 1697 
Q 3059 1844 2750 1925 
Q 2516 1988 2242 2028 
Q 1969 2069 1663 2131 
Q 1044 2263 745 2580 
Q 447 2897 447 3406 
Q 447 3991 940 4364 
Q 1434 4738 2194 4738 
Q 2684 4738 3093 4644 
Q 3503 4550 3819 4413 
L 3819 3681 
L 3775 3681 
Q 3509 3906 3076 4054 
Q 2644 4203 2191 4203 
Q 1694 4203 1392 3997 
Q 1091 3791 1091 3466 
Q 1091 3175 1241 3009 
Q 1391 2844 1769 2756 
Q 1969 2713 2337 2650 
Q 2706 2588 2963 2522 
Q 3481 2384 3743 2106 
Q 4006 1828 4006 1328 
z
" transform="scale(0.015625)"/>
       <path id="Verdana-61" d="M 3291 0 
L 2706 0 
L 2706 372 
Q 2628 319 2495 223 
Q 2363 128 2238 72 
Q 2091 0 1900 -48 
Q 1709 -97 1453 -97 
Q 981 -97 653 215 
Q 325 528 325 1013 
Q 325 1409 495 1654 
Q 666 1900 981 2041 
Q 1300 2181 1747 2231 
Q 2194 2281 2706 2306 
L 2706 2397 
Q 2706 2597 2636 2728 
Q 2566 2859 2434 2934 
Q 2309 3006 2134 3031 
Q 1959 3056 1769 3056 
Q 1538 3056 1253 2995 
Q 969 2934 666 2819 
L 634 2819 
L 634 3416 
Q 806 3463 1131 3519 
Q 1456 3575 1772 3575 
Q 2141 3575 2414 3514 
Q 2688 3453 2888 3306 
Q 3084 3163 3187 2934 
Q 3291 2706 3291 2369 
L 3291 0 
z
M 2706 859 
L 2706 1831 
Q 2438 1816 2073 1784 
Q 1709 1753 1497 1694 
Q 1244 1622 1087 1470 
Q 931 1319 931 1053 
Q 931 753 1112 601 
Q 1294 450 1666 450 
Q 1975 450 2231 570 
Q 2488 691 2706 859 
z
" transform="scale(0.015625)"/>
       <path id="Verdana-74" d="M 2391 31 
Q 2225 -13 2029 -41 
Q 1834 -69 1681 -69 
Q 1147 -69 869 218 
Q 591 506 591 1141 
L 591 2997 
L 194 2997 
L 194 3491 
L 591 3491 
L 591 4494 
L 1178 4494 
L 1178 3491 
L 2391 3491 
L 2391 2997 
L 1178 2997 
L 1178 1406 
Q 1178 1131 1190 976 
Q 1203 822 1278 688 
Q 1347 563 1467 505 
Q 1588 447 1834 447 
Q 1978 447 2134 489 
Q 2291 531 2359 559 
L 2391 559 
L 2391 31 
z
" transform="scale(0.015625)"/>
       <path id="Verdana-75" d="M 3472 0 
L 2884 0 
L 2884 388 
Q 2588 153 2316 28 
Q 2044 -97 1716 -97 
Q 1166 -97 859 239 
Q 553 575 553 1225 
L 553 3491 
L 1141 3491 
L 1141 1503 
Q 1141 1238 1166 1048 
Q 1191 859 1272 725 
Q 1356 588 1490 525 
Q 1625 463 1881 463 
Q 2109 463 2379 581 
Q 2650 700 2884 884 
L 2884 3491 
L 3472 3491 
L 3472 0 
z
" transform="scale(0.015625)"/>
       <path id="Verdana-72" d="M 2756 2850 
L 2725 2850 
Q 2594 2881 2470 2895 
Q 2347 2909 2178 2909 
Q 1906 2909 1653 2789 
Q 1400 2669 1166 2478 
L 1166 0 
L 578 0 
L 578 3491 
L 1166 3491 
L 1166 2975 
Q 1516 3256 1783 3373 
Q 2050 3491 2328 3491 
Q 2481 3491 2550 3483 
Q 2619 3475 2756 3453 
L 2756 2850 
z
" transform="scale(0.015625)"/>
       <path id="Verdana-69" d="M 1209 4075 
L 547 4075 
L 547 4684 
L 1209 4684 
L 1209 4075 
z
M 1172 0 
L 584 0 
L 584 3491 
L 1172 3491 
L 1172 0 
z
" transform="scale(0.015625)"/>
       <path id="Verdana-6f" d="M 3553 1744 
Q 3553 891 3115 397 
Q 2678 -97 1944 -97 
Q 1203 -97 767 397 
Q 331 891 331 1744 
Q 331 2597 767 3092 
Q 1203 3588 1944 3588 
Q 2678 3588 3115 3092 
Q 3553 2597 3553 1744 
z
M 2947 1744 
Q 2947 2422 2681 2751 
Q 2416 3081 1944 3081 
Q 1466 3081 1202 2751 
Q 938 2422 938 1744 
Q 938 1088 1203 748 
Q 1469 409 1944 409 
Q 2413 409 2680 745 
Q 2947 1081 2947 1744 
z
" transform="scale(0.015625)"/>
       <path id="Verdana-6e" d="M 3497 0 
L 2909 0 
L 2909 1988 
Q 2909 2228 2881 2439 
Q 2853 2650 2778 2769 
Q 2700 2900 2553 2964 
Q 2406 3028 2172 3028 
Q 1931 3028 1668 2909 
Q 1406 2791 1166 2606 
L 1166 0 
L 578 0 
L 578 3491 
L 1166 3491 
L 1166 3103 
Q 1441 3331 1734 3459 
Q 2028 3588 2338 3588 
Q 2903 3588 3200 3247 
Q 3497 2906 3497 2266 
L 3497 0 
z
" transform="scale(0.015625)"/>
      </defs>
      <use xlink:href="#Verdana-53"/>
      <use xlink:href="#Verdana-61" x="68.359375"/>
      <use xlink:href="#Verdana-74" x="128.417969"/>
      <use xlink:href="#Verdana-75" x="167.822266"/>
      <use xlink:href="#Verdana-72" x="231.103516"/>
      <use xlink:href="#Verdana-61" x="272.029297"/>
      <use xlink:href="#Verdana-74" x="332.087891"/>
      <use xlink:href="#Verdana-69" x="371.492188"/>
      <use xlink:href="#Verdana-6f" x="398.933594"/>
      <use xlink:href="#Verdana-6e" x="459.626953"/>
     </g>
    </g>
   </g>
   <g id="PathCollection_1">
    <defs>
     <path id="C0_0_4b043f9587" d="M 0 6 
C 1.591219 6 3.117479 5.367802 4.242641 4.242641 
C 5.367802 3.117479 6 1.591219 6 -0 
C 6 -1.591219 5.367802 -3.117479 4.242641 -4.242641 
C 3.117479 -5.367802 1.591219 -6 0 -6 
C -1.591219 -6 -3.117479 -5.367802 -4.242641 -4.242641 
C -5.367802 -3.117479 -6 -1.591219 -6 0 
C -6 1.591219 -5.367802 3.117479 -4.242641 4.242641 
C -3.117479 5.367802 -1.591219 6 0 6 
z
"/>
    </defs>
    <g clip-path="url(#p9efcd19e0f)">
     <use xlink:href="#C0_0_4b043f9587" x="373.298284" y="190.515106" style="fill: #da9b67; stroke: #da9b67"/>
    </g>
    <g clip-path="url(#p9efcd19e0f)">
     <use xlink:href="#C0_0_4b043f9587" x="371.481232" y="160.002581" style="fill: #df945d; stroke: #df945d"/>
    </g>
    <g clip-path="url(#p9efcd19e0f)">
     <use xlink:href="#C0_0_4b043f9587" x="207.527136" y="283.860529" style="fill: #99d6d3; stroke: #99d6d3"/>
    </g>
    <g clip-path="url(#p9efcd19e0f)">
     <use xlink:href="#C0_0_4b043f9587" x="325.975778" y="179.257604" style="fill: #d7c64f; stroke: #d7c64f"/>
    </g>
    <g clip-path="url(#p9efcd19e0f)">
     <use xlink:href="#C0_0_4b043f9587" x="269.224665" y="418.508454" style="fill: #a2af8f; stroke: #a2af8f"/>
    </g>
    <g clip-path="url(#p9efcd19e0f)">
     <use xlink:href="#C0_0_4b043f9587" x="180.589301" y="245.283854" style="fill: #9fdfda; stroke: #9fdfda"/>
    </g>
    <g clip-path="url(#p9efcd19e0f)">
     <use xlink:href="#C0_0_4b043f9587" x="110.514375" y="377.4312" style="fill: #6c79a6; stroke: #6c79a6"/>
    </g>
    <g clip-path="url(#p9efcd19e0f)">
     <use xlink:href="#C0_0_4b043f9587" x="117.291394" y="453.449197" style="fill: #7d8594; stroke: #7d8594"/>
    </g>
    <g clip-path="url(#p9efcd19e0f)">
     <use xlink:href="#C0_0_4b043f9587" x="109.575017" y="329.611281" style="fill: #363c6d; stroke: #363c6d"/>
    </g>
    <g clip-path="url(#p9efcd19e0f)">
     <use xlink:href="#C0_0_4b043f9587" x="135.696201" y="259.442468" style="fill: #415cb6; stroke: #415cb6"/>
    </g>
    <g clip-path="url(#p9efcd19e0f)">
     <use xlink:href="#C0_0_4b043f9587" x="189.112715" y="199.404407" style="fill: #b8442f; stroke: #b8442f"/>
    </g>
    <g clip-path="url(#p9efcd19e0f)">
     <use xlink:href="#C0_0_4b043f9587" x="263.809968" y="302.82951" style="fill: #883c60; stroke: #883c60"/>
    </g>
    <g clip-path="url(#p9efcd19e0f)">
     <use xlink:href="#C0_0_4b043f9587" x="218.201505" y="32.39339" style="fill: #db0f09; stroke: #db0f09"/>
    </g>
    <g clip-path="url(#p9efcd19e0f)">
     <use xlink:href="#C0_0_4b043f9587" x="206.065986" y="273.591167" style="fill: #ad4542; stroke: #ad4542"/>
    </g>
    <g clip-path="url(#p9efcd19e0f)">
     <use xlink:href="#C0_0_4b043f9587" x="360.350339" y="198.480238" style="fill: #de937e; stroke: #de937e"/>
    </g>
    <g clip-path="url(#p9efcd19e0f)">
     <use xlink:href="#C0_0_4b043f9587" x="116.389463" y="328.583371" style="fill: #7579bb; stroke: #7579bb"/>
    </g>
    <g clip-path="url(#p9efcd19e0f)">
     <use xlink:href="#C0_0_4b043f9587" x="323.270587" y="41.96787" style="fill: #f3291e; stroke: #f3291e"/>
    </g>
    <g clip-path="url(#p9efcd19e0f)">
     <use xlink:href="#C0_0_4b043f9587" x="237.191053" y="273.001808" style="fill: #588633; stroke: #588633"/>
    </g>
   </g>
   <g id="line2d_13">
    <path d="M 109.575017 333.413924 
L 128.412394 320.635705 
L 147.24977 307.857486 
L 166.087146 295.079267 
L 184.924522 282.301047 
L 203.761898 269.522828 
L 222.599274 256.744609 
L 241.436651 243.96639 
L 260.274027 231.188171 
L 279.111403 218.409952 
L 297.948779 205.631733 
L 316.786155 192.853514 
L 335.623531 180.075295 
L 354.460908 167.297076 
L 373.298284 154.518857 
" clip-path="url(#p9efcd19e0f)" style="fill: none; stroke-dasharray: 9.6,2.4,1.5,2.4; stroke-dashoffset: 0; stroke: #000000; stroke-width: 1.5"/>
   </g>
   <g id="patch_3">
    <path d="M 61.2425 348.958125 
L 61.2425 16.318125 
" style="fill: none; stroke: #000000; stroke-width: 2; stroke-linejoin: miter; stroke-linecap: square"/>
   </g>
   <g id="patch_4">
    <path d="M 61.2425 348.958125 
L 396.0425 348.958125 
" style="fill: none; stroke: #000000; stroke-width: 2; stroke-linejoin: miter; stroke-linecap: square"/>
   </g>
   <g id="text_9">
    <!-- SURPRISED -->
    <g style="fill: #262626" transform="translate(375.798284 188.015106) scale(0.12 -0.12)">
     <defs>
      <path id="Verdana-55" d="M 4128 1869 
Q 4128 1363 4017 986 
Q 3906 609 3653 359 
Q 3413 122 3091 12 
Q 2769 -97 2341 -97 
Q 1903 -97 1578 18 
Q 1253 134 1031 359 
Q 778 616 667 978 
Q 556 1341 556 1869 
L 556 4653 
L 1175 4653 
L 1175 1838 
Q 1175 1459 1226 1240 
Q 1278 1022 1400 844 
Q 1538 641 1773 537 
Q 2009 434 2341 434 
Q 2675 434 2909 536 
Q 3144 638 3284 844 
Q 3406 1022 3457 1251 
Q 3509 1481 3509 1822 
L 3509 4653 
L 4128 4653 
L 4128 1869 
z
" transform="scale(0.015625)"/>
      <path id="Verdana-52" d="M 4475 0 
L 3672 0 
L 2116 1850 
L 1244 1850 
L 1244 0 
L 625 0 
L 625 4653 
L 1928 4653 
Q 2350 4653 2631 4598 
Q 2913 4544 3138 4403 
Q 3391 4244 3533 4001 
Q 3675 3759 3675 3388 
Q 3675 2884 3422 2545 
Q 3169 2206 2725 2034 
L 4475 0 
z
M 3028 3344 
Q 3028 3544 2958 3698 
Q 2888 3853 2725 3959 
Q 2591 4050 2406 4086 
Q 2222 4122 1972 4122 
L 1244 4122 
L 1244 2366 
L 1869 2366 
Q 2163 2366 2381 2417 
Q 2600 2469 2753 2609 
Q 2894 2741 2961 2911 
Q 3028 3081 3028 3344 
z
" transform="scale(0.015625)"/>
      <path id="Verdana-49" d="M 2266 0 
L 428 0 
L 428 475 
L 1038 475 
L 1038 4178 
L 428 4178 
L 428 4653 
L 2266 4653 
L 2266 4178 
L 1656 4178 
L 1656 475 
L 2266 475 
L 2266 0 
z
" transform="scale(0.015625)"/>
      <path id="Verdana-45" d="M 3691 0 
L 625 0 
L 625 4653 
L 3691 4653 
L 3691 4103 
L 1244 4103 
L 1244 2828 
L 3691 2828 
L 3691 2278 
L 1244 2278 
L 1244 550 
L 3691 550 
L 3691 0 
z
" transform="scale(0.015625)"/>
      <path id="Verdana-44" d="M 4556 2322 
Q 4556 1688 4279 1172 
Q 4003 656 3544 372 
Q 3225 175 2833 87 
Q 2441 0 1800 0 
L 625 0 
L 625 4653 
L 1788 4653 
Q 2469 4653 2870 4554 
Q 3272 4456 3550 4284 
Q 4025 3988 4290 3494 
Q 4556 3000 4556 2322 
z
M 3909 2331 
Q 3909 2878 3718 3253 
Q 3528 3628 3150 3844 
Q 2875 4000 2565 4061 
Q 2256 4122 1825 4122 
L 1244 4122 
L 1244 531 
L 1825 531 
Q 2272 531 2605 597 
Q 2938 663 3216 841 
Q 3563 1063 3736 1425 
Q 3909 1788 3909 2331 
z
" transform="scale(0.015625)"/>
     </defs>
     <use xlink:href="#Verdana-53"/>
     <use xlink:href="#Verdana-55" x="68.359375"/>
     <use xlink:href="#Verdana-52" x="141.552734"/>
     <use xlink:href="#Verdana-50" x="211.083984"/>
     <use xlink:href="#Verdana-52" x="271.386719"/>
     <use xlink:href="#Verdana-49" x="340.917969"/>
     <use xlink:href="#Verdana-53" x="383.007812"/>
     <use xlink:href="#Verdana-45" x="451.367188"/>
     <use xlink:href="#Verdana-44" x="514.599609"/>
    </g>
   </g>
   <g id="text_10">
    <!-- EXCITED -->
    <g style="fill: #262626" transform="translate(373.981232 157.502581) scale(0.12 -0.12)">
     <defs>
      <path id="Verdana-58" d="M 4175 4653 
L 2569 2353 
L 4172 0 
L 3456 0 
L 2188 1916 
L 888 0 
L 213 0 
L 1834 2325 
L 250 4653 
L 963 4653 
L 2216 2763 
L 3497 4653 
L 4175 4653 
z
" transform="scale(0.015625)"/>
      <path id="Verdana-54" d="M 3944 4103 
L 2281 4103 
L 2281 0 
L 1663 0 
L 1663 4103 
L 0 4103 
L 0 4653 
L 3944 4653 
L 3944 4103 
z
" transform="scale(0.015625)"/>
     </defs>
     <use xlink:href="#Verdana-45"/>
     <use xlink:href="#Verdana-58" x="63.232422"/>
     <use xlink:href="#Verdana-43" x="131.238281"/>
     <use xlink:href="#Verdana-49" x="201.0625"/>
     <use xlink:href="#Verdana-54" x="243.152344"/>
     <use xlink:href="#Verdana-45" x="304.773438"/>
     <use xlink:href="#Verdana-44" x="368.005859"/>
    </g>
   </g>
   <g id="text_11">
    <!-- SERENE -->
    <g style="fill: #262626" transform="translate(210.027136 281.360529) scale(0.12 -0.12)">
     <defs>
      <path id="Verdana-4e" d="M 4175 0 
L 3409 0 
L 1203 4163 
L 1203 0 
L 625 0 
L 625 4653 
L 1584 4653 
L 3597 853 
L 3597 4653 
L 4175 4653 
L 4175 0 
z
" transform="scale(0.015625)"/>
     </defs>
     <use xlink:href="#Verdana-53"/>
     <use xlink:href="#Verdana-45" x="68.359375"/>
     <use xlink:href="#Verdana-52" x="131.591797"/>
     <use xlink:href="#Verdana-45" x="201.123047"/>
     <use xlink:href="#Verdana-4e" x="264.355469"/>
     <use xlink:href="#Verdana-45" x="339.160156"/>
    </g>
   </g>
   <g id="text_12">
    <!-- HAPPY -->
    <g style="fill: #262626" transform="translate(328.475778 176.757604) scale(0.12 -0.12)">
     <defs>
      <path id="Verdana-48" d="M 4184 0 
L 3566 0 
L 3566 2278 
L 1244 2278 
L 1244 0 
L 625 0 
L 625 4653 
L 1244 4653 
L 1244 2828 
L 3566 2828 
L 3566 4653 
L 4184 4653 
L 4184 0 
z
" transform="scale(0.015625)"/>
      <path id="Verdana-41" d="M 4294 0 
L 3634 0 
L 3178 1297 
L 1166 1297 
L 709 0 
L 81 0 
L 1775 4653 
L 2600 4653 
L 4294 0 
z
M 2988 1828 
L 2172 4113 
L 1353 1828 
L 2988 1828 
z
" transform="scale(0.015625)"/>
      <path id="Verdana-59" d="M 3919 4653 
L 2281 2041 
L 2281 0 
L 1663 0 
L 1663 1975 
L 19 4653 
L 703 4653 
L 1975 2572 
L 3259 4653 
L 3919 4653 
z
" transform="scale(0.015625)"/>
     </defs>
     <use xlink:href="#Verdana-48"/>
     <use xlink:href="#Verdana-41" x="75.146484"/>
     <use xlink:href="#Verdana-50" x="143.505859"/>
     <use xlink:href="#Verdana-50" x="203.808594"/>
     <use xlink:href="#Verdana-59" x="265.111328"/>
    </g>
   </g>
   <g id="text_13">
    <!-- CALM -->
    <g style="fill: #262626" transform="translate(183.089301 242.783854) scale(0.12 -0.12)">
     <defs>
      <path id="Verdana-4c" d="M 3569 0 
L 625 0 
L 625 4653 
L 1244 4653 
L 1244 550 
L 3569 550 
L 3569 0 
z
" transform="scale(0.015625)"/>
      <path id="Verdana-4d" d="M 4769 0 
L 4150 0 
L 4150 4009 
L 2856 1281 
L 2488 1281 
L 1203 4009 
L 1203 0 
L 625 0 
L 625 4653 
L 1469 4653 
L 2709 2063 
L 3909 4653 
L 4769 4653 
L 4769 0 
z
" transform="scale(0.015625)"/>
     </defs>
     <use xlink:href="#Verdana-43"/>
     <use xlink:href="#Verdana-41" x="69.824219"/>
     <use xlink:href="#Verdana-4c" x="138.183594"/>
     <use xlink:href="#Verdana-4d" x="193.847656"/>
    </g>
   </g>
   <g id="text_14">
    <!-- DEPRESSED -->
    <g style="fill: #262626" transform="translate(112.075017 327.111281) scale(0.12 -0.12)">
     <use xlink:href="#Verdana-44"/>
     <use xlink:href="#Verdana-45" x="77.050781"/>
     <use xlink:href="#Verdana-50" x="140.283203"/>
     <use xlink:href="#Verdana-52" x="200.585938"/>
     <use xlink:href="#Verdana-45" x="270.117188"/>
     <use xlink:href="#Verdana-53" x="333.349609"/>
     <use xlink:href="#Verdana-53" x="400.583984"/>
     <use xlink:href="#Verdana-45" x="468.943359"/>
     <use xlink:href="#Verdana-44" x="532.175781"/>
    </g>
   </g>
   <g id="text_15">
    <!-- SAD -->
    <g style="fill: #262626" transform="translate(138.196201 256.942468) scale(0.12 -0.12)">
     <use xlink:href="#Verdana-53"/>
     <use xlink:href="#Verdana-41" x="67.359375"/>
     <use xlink:href="#Verdana-44" x="135.71875"/>
    </g>
   </g>
   <g id="text_16">
    <!-- FRUSTRATED -->
    <g style="fill: #262626" transform="translate(191.612715 196.904407) scale(0.12 -0.12)">
     <defs>
      <path id="Verdana-46" d="M 3597 4103 
L 1244 4103 
L 1244 2791 
L 3266 2791 
L 3266 2241 
L 1244 2241 
L 1244 0 
L 625 0 
L 625 4653 
L 3597 4653 
L 3597 4103 
z
" transform="scale(0.015625)"/>
     </defs>
     <use xlink:href="#Verdana-46"/>
     <use xlink:href="#Verdana-52" x="57.470703"/>
     <use xlink:href="#Verdana-55" x="127.001953"/>
     <use xlink:href="#Verdana-53" x="200.195312"/>
     <use xlink:href="#Verdana-54" x="268.554688"/>
     <use xlink:href="#Verdana-52" x="330.175781"/>
     <use xlink:href="#Verdana-41" x="399.707031"/>
     <use xlink:href="#Verdana-54" x="462.191406"/>
     <use xlink:href="#Verdana-45" x="523.8125"/>
     <use xlink:href="#Verdana-44" x="587.044922"/>
    </g>
   </g>
   <g id="text_17">
    <!-- AFRAID -->
    <g style="fill: #262626" transform="translate(266.309968 300.32951) scale(0.12 -0.12)">
     <use xlink:href="#Verdana-41"/>
     <use xlink:href="#Verdana-46" x="68.359375"/>
     <use xlink:href="#Verdana-52" x="125.830078"/>
     <use xlink:href="#Verdana-41" x="195.361328"/>
     <use xlink:href="#Verdana-49" x="263.720703"/>
     <use xlink:href="#Verdana-44" x="305.810547"/>
    </g>
   </g>
   <g id="text_18">
    <!-- ANGRY -->
    <g style="fill: #262626" transform="translate(220.701505 29.89339) scale(0.12 -0.12)">
     <defs>
      <path id="Verdana-47" d="M 4506 344 
Q 4125 169 3673 39 
Q 3222 -91 2800 -91 
Q 2256 -91 1803 59 
Q 1350 209 1031 509 
Q 709 813 534 1267 
Q 359 1722 359 2331 
Q 359 3447 1011 4092 
Q 1663 4738 2800 4738 
Q 3197 4738 3611 4642 
Q 4025 4547 4503 4319 
L 4503 3584 
L 4447 3584 
Q 4350 3659 4165 3781 
Q 3981 3903 3803 3984 
Q 3588 4081 3314 4145 
Q 3041 4209 2694 4209 
Q 1913 4209 1458 3707 
Q 1003 3206 1003 2350 
Q 1003 1447 1478 945 
Q 1953 444 2772 444 
Q 3072 444 3370 503 
Q 3669 563 3894 656 
L 3894 1797 
L 2647 1797 
L 2647 2341 
L 4506 2341 
L 4506 344 
z
" transform="scale(0.015625)"/>
     </defs>
     <use xlink:href="#Verdana-41"/>
     <use xlink:href="#Verdana-4e" x="68.359375"/>
     <use xlink:href="#Verdana-47" x="143.164062"/>
     <use xlink:href="#Verdana-52" x="220.703125"/>
     <use xlink:href="#Verdana-59" x="289.234375"/>
    </g>
   </g>
   <g id="text_19">
    <!-- STRESSED -->
    <g style="fill: #262626" transform="translate(208.565986 271.091167) scale(0.12 -0.12)">
     <use xlink:href="#Verdana-53"/>
     <use xlink:href="#Verdana-54" x="68.359375"/>
     <use xlink:href="#Verdana-52" x="129.980469"/>
     <use xlink:href="#Verdana-45" x="199.511719"/>
     <use xlink:href="#Verdana-53" x="262.744141"/>
     <use xlink:href="#Verdana-53" x="329.978516"/>
     <use xlink:href="#Verdana-45" x="398.337891"/>
     <use xlink:href="#Verdana-44" x="461.570312"/>
    </g>
   </g>
   <g id="text_20">
    <!-- ASTONISHED -->
    <g style="fill: #262626" transform="translate(362.850339 195.980238) scale(0.12 -0.12)">
     <defs>
      <path id="Verdana-4f" d="M 4094 4119 
Q 4378 3806 4529 3353 
Q 4681 2900 4681 2325 
Q 4681 1750 4526 1295 
Q 4372 841 4094 538 
Q 3806 222 3414 62 
Q 3022 -97 2519 -97 
Q 2028 -97 1626 65 
Q 1225 228 944 538 
Q 663 847 511 1297 
Q 359 1747 359 2325 
Q 359 2894 509 3345 
Q 659 3797 947 4119 
Q 1222 4425 1630 4587 
Q 2038 4750 2519 4750 
Q 3019 4750 3417 4586 
Q 3816 4422 4094 4119 
z
M 4038 2325 
Q 4038 3231 3631 3723 
Q 3225 4216 2522 4216 
Q 1813 4216 1408 3723 
Q 1003 3231 1003 2325 
Q 1003 1409 1415 923 
Q 1828 438 2522 438 
Q 3216 438 3627 923 
Q 4038 1409 4038 2325 
z
" transform="scale(0.015625)"/>
     </defs>
     <use xlink:href="#Verdana-41"/>
     <use xlink:href="#Verdana-53" x="67.859375"/>
     <use xlink:href="#Verdana-54" x="136.21875"/>
     <use xlink:href="#Verdana-4f" x="195.339844"/>
     <use xlink:href="#Verdana-4e" x="274.050781"/>
     <use xlink:href="#Verdana-49" x="348.855469"/>
     <use xlink:href="#Verdana-53" x="390.945312"/>
     <use xlink:href="#Verdana-48" x="459.304688"/>
     <use xlink:href="#Verdana-45" x="534.451172"/>
     <use xlink:href="#Verdana-44" x="597.683594"/>
    </g>
   </g>
   <g id="text_21">
    <!-- SLEEPY -->
    <g style="fill: #262626" transform="translate(118.889463 326.083371) scale(0.12 -0.12)">
     <use xlink:href="#Verdana-53"/>
     <use xlink:href="#Verdana-4c" x="68.359375"/>
     <use xlink:href="#Verdana-45" x="124.023438"/>
     <use xlink:href="#Verdana-45" x="187.255859"/>
     <use xlink:href="#Verdana-50" x="250.488281"/>
     <use xlink:href="#Verdana-59" x="311.791016"/>
    </g>
   </g>
   <g id="text_22">
    <!-- ALARMED -->
    <g style="fill: #262626" transform="translate(325.770587 39.46787) scale(0.12 -0.12)">
     <use xlink:href="#Verdana-41"/>
     <use xlink:href="#Verdana-4c" x="68.359375"/>
     <use xlink:href="#Verdana-41" x="124.023438"/>
     <use xlink:href="#Verdana-52" x="192.382812"/>
     <use xlink:href="#Verdana-4d" x="261.914062"/>
     <use xlink:href="#Verdana-45" x="346.191406"/>
     <use xlink:href="#Verdana-44" x="409.423828"/>
    </g>
   </g>
   <g id="text_23">
    <!-- DISGUSTED -->
    <g style="fill: #262626" transform="translate(239.691053 270.501808) scale(0.12 -0.12)">
     <use xlink:href="#Verdana-44"/>
     <use xlink:href="#Verdana-49" x="77.050781"/>
     <use xlink:href="#Verdana-53" x="119.140625"/>
     <use xlink:href="#Verdana-47" x="187.5"/>
     <use xlink:href="#Verdana-55" x="265.039062"/>
     <use xlink:href="#Verdana-53" x="338.232422"/>
     <use xlink:href="#Verdana-54" x="406.591797"/>
     <use xlink:href="#Verdana-45" x="468.212891"/>
     <use xlink:href="#Verdana-44" x="531.445312"/>
    </g>
   </g>
   <g id="text_24">
    <!-- r = 0.41 * -->
    <g style="fill: #262626" transform="translate(71.705 16.318125) scale(0.12 -0.12)">
     <defs>
      <path id="Verdana-20" transform="scale(0.015625)"/>
      <path id="Verdana-3d" d="M 4472 2444 
L 766 2444 
L 766 2944 
L 4472 2944 
L 4472 2444 
z
M 4472 1131 
L 766 1131 
L 766 1631 
L 4472 1631 
L 4472 1131 
z
" transform="scale(0.015625)"/>
      <path id="Verdana-31" d="M 3388 0 
L 869 0 
L 869 475 
L 1838 475 
L 1838 3594 
L 869 3594 
L 869 4019 
Q 1066 4019 1291 4051 
Q 1516 4084 1631 4147 
Q 1775 4225 1858 4345 
Q 1941 4466 1953 4669 
L 2438 4669 
L 2438 475 
L 3388 475 
L 3388 0 
z
" transform="scale(0.015625)"/>
      <path id="Verdana-2a" d="M 3553 2772 
L 3353 2428 
L 2222 3094 
L 2241 1969 
L 1838 1969 
L 1853 3094 
L 725 2425 
L 522 2769 
L 1713 3416 
L 522 4063 
L 725 4406 
L 1856 3741 
L 1838 4863 
L 2241 4863 
L 2219 3741 
L 3353 4403 
L 3553 4059 
L 2366 3419 
L 3553 2772 
z
" transform="scale(0.015625)"/>
     </defs>
     <use xlink:href="#Verdana-72"/>
     <use xlink:href="#Verdana-20" x="42.675781"/>
     <use xlink:href="#Verdana-3d" x="77.832031"/>
     <use xlink:href="#Verdana-20" x="159.667969"/>
     <use xlink:href="#Verdana-30" x="194.824219"/>
     <use xlink:href="#Verdana-2e" x="258.398438"/>
     <use xlink:href="#Verdana-34" x="294.775391"/>
     <use xlink:href="#Verdana-31" x="358.349609"/>
     <use xlink:href="#Verdana-20" x="421.923828"/>
     <use xlink:href="#Verdana-2a" x="457.080078"/>
    </g>
   </g>
  </g>
 </g>
 <defs>
  <clipPath id="p9efcd19e0f">
   <rect x="61.2425" y="16.318125" width="334.8" height="332.64"/>
  </clipPath>
 </defs>
</svg>
