<?xml version="1.0" encoding="utf-8" standalone="no"?>
<!DOCTYPE svg PUBLIC "-//W3C//DTD SVG 1.1//EN"
  "http://www.w3.org/Graphics/SVG/1.1/DTD/svg11.dtd">
<svg xmlns:xlink="http://www.w3.org/1999/xlink" width="604.8pt" height="504pt" viewBox="0 0 604.8 504" xmlns="http://www.w3.org/2000/svg" version="1.1">
 <metadata>
  <rdf:RDF xmlns:dc="http://purl.org/dc/elements/1.1/" xmlns:cc="http://creativecommons.org/ns#" xmlns:rdf="http://www.w3.org/1999/02/22-rdf-syntax-ns#">
   <cc:Work>
    <dc:type rdf:resource="http://purl.org/dc/dcmitype/StillImage"/>
    <dc:date>2023-07-12T11:45:31.504812</dc:date>
    <dc:format>image/svg+xml</dc:format>
    <dc:creator>
     <cc:Agent>
      <dc:title>Matplotlib v3.6.2, https://matplotlib.org/</dc:title>
     </cc:Agent>
    </dc:creator>
   </cc:Work>
  </rdf:RDF>
 </metadata>
 <defs>
  <style type="text/css">*{stroke-linejoin: round; stroke-linecap: butt}</style>
 </defs>
 <g id="figure_1">
  <g id="patch_1">
   <path d="M 0 504 
L 604.8 504 
L 604.8 0 
L 0 0 
z
" style="fill: #ffffff"/>
  </g>
  <g id="axes_1">
   <g id="patch_2">
    <path d="M 76.5 437.22 
L 585.36 437.22 
L 585.36 19.44 
L 76.5 19.44 
z
" style="fill: #ffffff"/>
   </g>
   <g id="matplotlib.axis_1">
    <g id="xtick_1">
     <g id="text_1">
      <!-- 0 -->
      <g style="fill: #262626" transform="translate(86.400775 459.257422) scale(0.165 -0.165)">
       <defs>
        <path id="DejaVuSans-30" d="M 2034 4250 
Q 1547 4250 1301 3770 
Q 1056 3291 1056 2328 
Q 1056 1369 1301 889 
Q 1547 409 2034 409 
Q 2525 409 2770 889 
Q 3016 1369 3016 2328 
Q 3016 3291 2770 3770 
Q 2525 4250 2034 4250 
z
M 2034 4750 
Q 2819 4750 3233 4129 
Q 3647 3509 3647 2328 
Q 3647 1150 3233 529 
Q 2819 -91 2034 -91 
Q 1250 -91 836 529 
Q 422 1150 422 2328 
Q 422 3509 836 4129 
Q 1250 4750 2034 4750 
z
" transform="scale(0.015625)"/>
       </defs>
       <use xlink:href="#DejaVuSans-30"/>
      </g>
     </g>
    </g>
    <g id="xtick_2">
     <g id="text_2">
      <!-- 2 -->
      <g style="fill: #262626" transform="translate(194.866229 459.257422) scale(0.165 -0.165)">
       <defs>
        <path id="DejaVuSans-32" d="M 1228 531 
L 3431 531 
L 3431 0 
L 469 0 
L 469 531 
Q 828 903 1448 1529 
Q 2069 2156 2228 2338 
Q 2531 2678 2651 2914 
Q 2772 3150 2772 3378 
Q 2772 3750 2511 3984 
Q 2250 4219 1831 4219 
Q 1534 4219 1204 4116 
Q 875 4013 500 3803 
L 500 4441 
Q 881 4594 1212 4672 
Q 1544 4750 1819 4750 
Q 2544 4750 2975 4387 
Q 3406 4025 3406 3419 
Q 3406 3131 3298 2873 
Q 3191 2616 2906 2266 
Q 2828 2175 2409 1742 
Q 1991 1309 1228 531 
z
" transform="scale(0.015625)"/>
       </defs>
       <use xlink:href="#DejaVuSans-32"/>
      </g>
     </g>
    </g>
    <g id="xtick_3">
     <g id="text_3">
      <!-- 4 -->
      <g style="fill: #262626" transform="translate(303.331682 459.257422) scale(0.165 -0.165)">
       <defs>
        <path id="DejaVuSans-34" d="M 2419 4116 
L 825 1625 
L 2419 1625 
L 2419 4116 
z
M 2253 4666 
L 3047 4666 
L 3047 1625 
L 3713 1625 
L 3713 1100 
L 3047 1100 
L 3047 0 
L 2419 0 
L 2419 1100 
L 313 1100 
L 313 1709 
L 2253 4666 
z
" transform="scale(0.015625)"/>
       </defs>
       <use xlink:href="#DejaVuSans-34"/>
      </g>
     </g>
    </g>
    <g id="xtick_4">
     <g id="text_4">
      <!-- 6 -->
      <g style="fill: #262626" transform="translate(411.797135 459.257422) scale(0.165 -0.165)">
       <defs>
        <path id="DejaVuSans-36" d="M 2113 2584 
Q 1688 2584 1439 2293 
Q 1191 2003 1191 1497 
Q 1191 994 1439 701 
Q 1688 409 2113 409 
Q 2538 409 2786 701 
Q 3034 994 3034 1497 
Q 3034 2003 2786 2293 
Q 2538 2584 2113 2584 
z
M 3366 4563 
L 3366 3988 
Q 3128 4100 2886 4159 
Q 2644 4219 2406 4219 
Q 1781 4219 1451 3797 
Q 1122 3375 1075 2522 
Q 1259 2794 1537 2939 
Q 1816 3084 2150 3084 
Q 2853 3084 3261 2657 
Q 3669 2231 3669 1497 
Q 3669 778 3244 343 
Q 2819 -91 2113 -91 
Q 1303 -91 875 529 
Q 447 1150 447 2328 
Q 447 3434 972 4092 
Q 1497 4750 2381 4750 
Q 2619 4750 2861 4703 
Q 3103 4656 3366 4563 
z
" transform="scale(0.015625)"/>
       </defs>
       <use xlink:href="#DejaVuSans-36"/>
      </g>
     </g>
    </g>
    <g id="xtick_5">
     <g id="text_5">
      <!-- 8 -->
      <g style="fill: #262626" transform="translate(520.262589 459.257422) scale(0.165 -0.165)">
       <defs>
        <path id="DejaVuSans-38" d="M 2034 2216 
Q 1584 2216 1326 1975 
Q 1069 1734 1069 1313 
Q 1069 891 1326 650 
Q 1584 409 2034 409 
Q 2484 409 2743 651 
Q 3003 894 3003 1313 
Q 3003 1734 2745 1975 
Q 2488 2216 2034 2216 
z
M 1403 2484 
Q 997 2584 770 2862 
Q 544 3141 544 3541 
Q 544 4100 942 4425 
Q 1341 4750 2034 4750 
Q 2731 4750 3128 4425 
Q 3525 4100 3525 3541 
Q 3525 3141 3298 2862 
Q 3072 2584 2669 2484 
Q 3125 2378 3379 2068 
Q 3634 1759 3634 1313 
Q 3634 634 3220 271 
Q 2806 -91 2034 -91 
Q 1263 -91 848 271 
Q 434 634 434 1313 
Q 434 1759 690 2068 
Q 947 2378 1403 2484 
z
M 1172 3481 
Q 1172 3119 1398 2916 
Q 1625 2713 2034 2713 
Q 2441 2713 2670 2916 
Q 2900 3119 2900 3481 
Q 2900 3844 2670 4047 
Q 2441 4250 2034 4250 
Q 1625 4250 1398 4047 
Q 1172 3844 1172 3481 
z
" transform="scale(0.015625)"/>
       </defs>
       <use xlink:href="#DejaVuSans-38"/>
      </g>
     </g>
    </g>
    <g id="text_6">
     <!-- Human ratings (euclidean distance) -->
     <g style="fill: #262626" transform="translate(169.721719 480.366094) scale(0.18 -0.18)">
      <defs>
       <path id="DejaVuSans-48" d="M 628 4666 
L 1259 4666 
L 1259 2753 
L 3553 2753 
L 3553 4666 
L 4184 4666 
L 4184 0 
L 3553 0 
L 3553 2222 
L 1259 2222 
L 1259 0 
L 628 0 
L 628 4666 
z
" transform="scale(0.015625)"/>
       <path id="DejaVuSans-75" d="M 544 1381 
L 544 3500 
L 1119 3500 
L 1119 1403 
Q 1119 906 1312 657 
Q 1506 409 1894 409 
Q 2359 409 2629 706 
Q 2900 1003 2900 1516 
L 2900 3500 
L 3475 3500 
L 3475 0 
L 2900 0 
L 2900 538 
Q 2691 219 2414 64 
Q 2138 -91 1772 -91 
Q 1169 -91 856 284 
Q 544 659 544 1381 
z
M 1991 3584 
L 1991 3584 
z
" transform="scale(0.015625)"/>
       <path id="DejaVuSans-6d" d="M 3328 2828 
Q 3544 3216 3844 3400 
Q 4144 3584 4550 3584 
Q 5097 3584 5394 3201 
Q 5691 2819 5691 2113 
L 5691 0 
L 5113 0 
L 5113 2094 
Q 5113 2597 4934 2840 
Q 4756 3084 4391 3084 
Q 3944 3084 3684 2787 
Q 3425 2491 3425 1978 
L 3425 0 
L 2847 0 
L 2847 2094 
Q 2847 2600 2669 2842 
Q 2491 3084 2119 3084 
Q 1678 3084 1418 2786 
Q 1159 2488 1159 1978 
L 1159 0 
L 581 0 
L 581 3500 
L 1159 3500 
L 1159 2956 
Q 1356 3278 1631 3431 
Q 1906 3584 2284 3584 
Q 2666 3584 2933 3390 
Q 3200 3197 3328 2828 
z
" transform="scale(0.015625)"/>
       <path id="DejaVuSans-61" d="M 2194 1759 
Q 1497 1759 1228 1600 
Q 959 1441 959 1056 
Q 959 750 1161 570 
Q 1363 391 1709 391 
Q 2188 391 2477 730 
Q 2766 1069 2766 1631 
L 2766 1759 
L 2194 1759 
z
M 3341 1997 
L 3341 0 
L 2766 0 
L 2766 531 
Q 2569 213 2275 61 
Q 1981 -91 1556 -91 
Q 1019 -91 701 211 
Q 384 513 384 1019 
Q 384 1609 779 1909 
Q 1175 2209 1959 2209 
L 2766 2209 
L 2766 2266 
Q 2766 2663 2505 2880 
Q 2244 3097 1772 3097 
Q 1472 3097 1187 3025 
Q 903 2953 641 2809 
L 641 3341 
Q 956 3463 1253 3523 
Q 1550 3584 1831 3584 
Q 2591 3584 2966 3190 
Q 3341 2797 3341 1997 
z
" transform="scale(0.015625)"/>
       <path id="DejaVuSans-6e" d="M 3513 2113 
L 3513 0 
L 2938 0 
L 2938 2094 
Q 2938 2591 2744 2837 
Q 2550 3084 2163 3084 
Q 1697 3084 1428 2787 
Q 1159 2491 1159 1978 
L 1159 0 
L 581 0 
L 581 3500 
L 1159 3500 
L 1159 2956 
Q 1366 3272 1645 3428 
Q 1925 3584 2291 3584 
Q 2894 3584 3203 3211 
Q 3513 2838 3513 2113 
z
" transform="scale(0.015625)"/>
       <path id="DejaVuSans-20" transform="scale(0.015625)"/>
       <path id="DejaVuSans-72" d="M 2631 2963 
Q 2534 3019 2420 3045 
Q 2306 3072 2169 3072 
Q 1681 3072 1420 2755 
Q 1159 2438 1159 1844 
L 1159 0 
L 581 0 
L 581 3500 
L 1159 3500 
L 1159 2956 
Q 1341 3275 1631 3429 
Q 1922 3584 2338 3584 
Q 2397 3584 2469 3576 
Q 2541 3569 2628 3553 
L 2631 2963 
z
" transform="scale(0.015625)"/>
       <path id="DejaVuSans-74" d="M 1172 4494 
L 1172 3500 
L 2356 3500 
L 2356 3053 
L 1172 3053 
L 1172 1153 
Q 1172 725 1289 603 
Q 1406 481 1766 481 
L 2356 481 
L 2356 0 
L 1766 0 
Q 1100 0 847 248 
Q 594 497 594 1153 
L 594 3053 
L 172 3053 
L 172 3500 
L 594 3500 
L 594 4494 
L 1172 4494 
z
" transform="scale(0.015625)"/>
       <path id="DejaVuSans-69" d="M 603 3500 
L 1178 3500 
L 1178 0 
L 603 0 
L 603 3500 
z
M 603 4863 
L 1178 4863 
L 1178 4134 
L 603 4134 
L 603 4863 
z
" transform="scale(0.015625)"/>
       <path id="DejaVuSans-67" d="M 2906 1791 
Q 2906 2416 2648 2759 
Q 2391 3103 1925 3103 
Q 1463 3103 1205 2759 
Q 947 2416 947 1791 
Q 947 1169 1205 825 
Q 1463 481 1925 481 
Q 2391 481 2648 825 
Q 2906 1169 2906 1791 
z
M 3481 434 
Q 3481 -459 3084 -895 
Q 2688 -1331 1869 -1331 
Q 1566 -1331 1297 -1286 
Q 1028 -1241 775 -1147 
L 775 -588 
Q 1028 -725 1275 -790 
Q 1522 -856 1778 -856 
Q 2344 -856 2625 -561 
Q 2906 -266 2906 331 
L 2906 616 
Q 2728 306 2450 153 
Q 2172 0 1784 0 
Q 1141 0 747 490 
Q 353 981 353 1791 
Q 353 2603 747 3093 
Q 1141 3584 1784 3584 
Q 2172 3584 2450 3431 
Q 2728 3278 2906 2969 
L 2906 3500 
L 3481 3500 
L 3481 434 
z
" transform="scale(0.015625)"/>
       <path id="DejaVuSans-73" d="M 2834 3397 
L 2834 2853 
Q 2591 2978 2328 3040 
Q 2066 3103 1784 3103 
Q 1356 3103 1142 2972 
Q 928 2841 928 2578 
Q 928 2378 1081 2264 
Q 1234 2150 1697 2047 
L 1894 2003 
Q 2506 1872 2764 1633 
Q 3022 1394 3022 966 
Q 3022 478 2636 193 
Q 2250 -91 1575 -91 
Q 1294 -91 989 -36 
Q 684 19 347 128 
L 347 722 
Q 666 556 975 473 
Q 1284 391 1588 391 
Q 1994 391 2212 530 
Q 2431 669 2431 922 
Q 2431 1156 2273 1281 
Q 2116 1406 1581 1522 
L 1381 1569 
Q 847 1681 609 1914 
Q 372 2147 372 2553 
Q 372 3047 722 3315 
Q 1072 3584 1716 3584 
Q 2034 3584 2315 3537 
Q 2597 3491 2834 3397 
z
" transform="scale(0.015625)"/>
       <path id="DejaVuSans-28" d="M 1984 4856 
Q 1566 4138 1362 3434 
Q 1159 2731 1159 2009 
Q 1159 1288 1364 580 
Q 1569 -128 1984 -844 
L 1484 -844 
Q 1016 -109 783 600 
Q 550 1309 550 2009 
Q 550 2706 781 3412 
Q 1013 4119 1484 4856 
L 1984 4856 
z
" transform="scale(0.015625)"/>
       <path id="DejaVuSans-65" d="M 3597 1894 
L 3597 1613 
L 953 1613 
Q 991 1019 1311 708 
Q 1631 397 2203 397 
Q 2534 397 2845 478 
Q 3156 559 3463 722 
L 3463 178 
Q 3153 47 2828 -22 
Q 2503 -91 2169 -91 
Q 1331 -91 842 396 
Q 353 884 353 1716 
Q 353 2575 817 3079 
Q 1281 3584 2069 3584 
Q 2775 3584 3186 3129 
Q 3597 2675 3597 1894 
z
M 3022 2063 
Q 3016 2534 2758 2815 
Q 2500 3097 2075 3097 
Q 1594 3097 1305 2825 
Q 1016 2553 972 2059 
L 3022 2063 
z
" transform="scale(0.015625)"/>
       <path id="DejaVuSans-63" d="M 3122 3366 
L 3122 2828 
Q 2878 2963 2633 3030 
Q 2388 3097 2138 3097 
Q 1578 3097 1268 2742 
Q 959 2388 959 1747 
Q 959 1106 1268 751 
Q 1578 397 2138 397 
Q 2388 397 2633 464 
Q 2878 531 3122 666 
L 3122 134 
Q 2881 22 2623 -34 
Q 2366 -91 2075 -91 
Q 1284 -91 818 406 
Q 353 903 353 1747 
Q 353 2603 823 3093 
Q 1294 3584 2113 3584 
Q 2378 3584 2631 3529 
Q 2884 3475 3122 3366 
z
" transform="scale(0.015625)"/>
       <path id="DejaVuSans-6c" d="M 603 4863 
L 1178 4863 
L 1178 0 
L 603 0 
L 603 4863 
z
" transform="scale(0.015625)"/>
       <path id="DejaVuSans-64" d="M 2906 2969 
L 2906 4863 
L 3481 4863 
L 3481 0 
L 2906 0 
L 2906 525 
Q 2725 213 2448 61 
Q 2172 -91 1784 -91 
Q 1150 -91 751 415 
Q 353 922 353 1747 
Q 353 2572 751 3078 
Q 1150 3584 1784 3584 
Q 2172 3584 2448 3432 
Q 2725 3281 2906 2969 
z
M 947 1747 
Q 947 1113 1208 752 
Q 1469 391 1925 391 
Q 2381 391 2643 752 
Q 2906 1113 2906 1747 
Q 2906 2381 2643 2742 
Q 2381 3103 1925 3103 
Q 1469 3103 1208 2742 
Q 947 2381 947 1747 
z
" transform="scale(0.015625)"/>
       <path id="DejaVuSans-29" d="M 513 4856 
L 1013 4856 
Q 1481 4119 1714 3412 
Q 1947 2706 1947 2009 
Q 1947 1309 1714 600 
Q 1481 -109 1013 -844 
L 513 -844 
Q 928 -128 1133 580 
Q 1338 1288 1338 2009 
Q 1338 2731 1133 3434 
Q 928 4138 513 4856 
z
" transform="scale(0.015625)"/>
      </defs>
      <use xlink:href="#DejaVuSans-48"/>
      <use xlink:href="#DejaVuSans-75" x="75.195312"/>
      <use xlink:href="#DejaVuSans-6d" x="138.574219"/>
      <use xlink:href="#DejaVuSans-61" x="235.986328"/>
      <use xlink:href="#DejaVuSans-6e" x="297.265625"/>
      <use xlink:href="#DejaVuSans-20" x="360.644531"/>
      <use xlink:href="#DejaVuSans-72" x="392.431641"/>
      <use xlink:href="#DejaVuSans-61" x="433.544922"/>
      <use xlink:href="#DejaVuSans-74" x="494.824219"/>
      <use xlink:href="#DejaVuSans-69" x="534.033203"/>
      <use xlink:href="#DejaVuSans-6e" x="561.816406"/>
      <use xlink:href="#DejaVuSans-67" x="625.195312"/>
      <use xlink:href="#DejaVuSans-73" x="688.671875"/>
      <use xlink:href="#DejaVuSans-20" x="740.771484"/>
      <use xlink:href="#DejaVuSans-28" x="772.558594"/>
      <use xlink:href="#DejaVuSans-65" x="811.572266"/>
      <use xlink:href="#DejaVuSans-75" x="873.095703"/>
      <use xlink:href="#DejaVuSans-63" x="936.474609"/>
      <use xlink:href="#DejaVuSans-6c" x="991.455078"/>
      <use xlink:href="#DejaVuSans-69" x="1019.238281"/>
      <use xlink:href="#DejaVuSans-64" x="1047.021484"/>
      <use xlink:href="#DejaVuSans-65" x="1110.498047"/>
      <use xlink:href="#DejaVuSans-61" x="1172.021484"/>
      <use xlink:href="#DejaVuSans-6e" x="1233.300781"/>
      <use xlink:href="#DejaVuSans-20" x="1296.679688"/>
      <use xlink:href="#DejaVuSans-64" x="1328.466797"/>
      <use xlink:href="#DejaVuSans-69" x="1391.943359"/>
      <use xlink:href="#DejaVuSans-73" x="1419.726562"/>
      <use xlink:href="#DejaVuSans-74" x="1471.826172"/>
      <use xlink:href="#DejaVuSans-61" x="1511.035156"/>
      <use xlink:href="#DejaVuSans-6e" x="1572.314453"/>
      <use xlink:href="#DejaVuSans-63" x="1635.693359"/>
      <use xlink:href="#DejaVuSans-65" x="1690.673828"/>
      <use xlink:href="#DejaVuSans-29" x="1752.197266"/>
     </g>
    </g>
   </g>
   <g id="matplotlib.axis_2">
    <g id="ytick_1">
     <g id="text_7">
      <!-- 0.0 -->
      <g style="fill: #262626" transform="translate(40.759844 427.723139) scale(0.165 -0.165)">
       <defs>
        <path id="DejaVuSans-2e" d="M 684 794 
L 1344 794 
L 1344 0 
L 684 0 
L 684 794 
z
" transform="scale(0.015625)"/>
       </defs>
       <use xlink:href="#DejaVuSans-30"/>
       <use xlink:href="#DejaVuSans-2e" x="63.623047"/>
       <use xlink:href="#DejaVuSans-30" x="95.410156"/>
      </g>
     </g>
    </g>
    <g id="ytick_2">
     <g id="text_8">
      <!-- 0.2 -->
      <g style="fill: #262626" transform="translate(40.759844 357.40386) scale(0.165 -0.165)">
       <use xlink:href="#DejaVuSans-30"/>
       <use xlink:href="#DejaVuSans-2e" x="63.623047"/>
       <use xlink:href="#DejaVuSans-32" x="95.410156"/>
      </g>
     </g>
    </g>
    <g id="ytick_3">
     <g id="text_9">
      <!-- 0.4 -->
      <g style="fill: #262626" transform="translate(40.759844 287.084581) scale(0.165 -0.165)">
       <use xlink:href="#DejaVuSans-30"/>
       <use xlink:href="#DejaVuSans-2e" x="63.623047"/>
       <use xlink:href="#DejaVuSans-34" x="95.410156"/>
      </g>
     </g>
    </g>
    <g id="ytick_4">
     <g id="text_10">
      <!-- 0.6 -->
      <g style="fill: #262626" transform="translate(40.759844 216.765302) scale(0.165 -0.165)">
       <use xlink:href="#DejaVuSans-30"/>
       <use xlink:href="#DejaVuSans-2e" x="63.623047"/>
       <use xlink:href="#DejaVuSans-36" x="95.410156"/>
      </g>
     </g>
    </g>
    <g id="ytick_5">
     <g id="text_11">
      <!-- 0.8 -->
      <g style="fill: #262626" transform="translate(40.759844 146.446023) scale(0.165 -0.165)">
       <use xlink:href="#DejaVuSans-30"/>
       <use xlink:href="#DejaVuSans-2e" x="63.623047"/>
       <use xlink:href="#DejaVuSans-38" x="95.410156"/>
      </g>
     </g>
    </g>
    <g id="ytick_6">
     <g id="text_12">
      <!-- 1.0 -->
      <g style="fill: #262626" transform="translate(40.759844 76.126744) scale(0.165 -0.165)">
       <defs>
        <path id="DejaVuSans-31" d="M 794 531 
L 1825 531 
L 1825 4091 
L 703 3866 
L 703 4441 
L 1819 4666 
L 2450 4666 
L 2450 531 
L 3481 531 
L 3481 0 
L 794 0 
L 794 531 
z
" transform="scale(0.015625)"/>
       </defs>
       <use xlink:href="#DejaVuSans-31"/>
       <use xlink:href="#DejaVuSans-2e" x="63.623047"/>
       <use xlink:href="#DejaVuSans-30" x="95.410156"/>
      </g>
     </g>
    </g>
    <g id="text_13">
     <!-- Osgood space (euclidean distance) -->
     <g style="fill: #262626" transform="translate(33.016406 386.348906) rotate(-90) scale(0.18 -0.18)">
      <defs>
       <path id="DejaVuSans-4f" d="M 2522 4238 
Q 1834 4238 1429 3725 
Q 1025 3213 1025 2328 
Q 1025 1447 1429 934 
Q 1834 422 2522 422 
Q 3209 422 3611 934 
Q 4013 1447 4013 2328 
Q 4013 3213 3611 3725 
Q 3209 4238 2522 4238 
z
M 2522 4750 
Q 3503 4750 4090 4092 
Q 4678 3434 4678 2328 
Q 4678 1225 4090 567 
Q 3503 -91 2522 -91 
Q 1538 -91 948 565 
Q 359 1222 359 2328 
Q 359 3434 948 4092 
Q 1538 4750 2522 4750 
z
" transform="scale(0.015625)"/>
       <path id="DejaVuSans-6f" d="M 1959 3097 
Q 1497 3097 1228 2736 
Q 959 2375 959 1747 
Q 959 1119 1226 758 
Q 1494 397 1959 397 
Q 2419 397 2687 759 
Q 2956 1122 2956 1747 
Q 2956 2369 2687 2733 
Q 2419 3097 1959 3097 
z
M 1959 3584 
Q 2709 3584 3137 3096 
Q 3566 2609 3566 1747 
Q 3566 888 3137 398 
Q 2709 -91 1959 -91 
Q 1206 -91 779 398 
Q 353 888 353 1747 
Q 353 2609 779 3096 
Q 1206 3584 1959 3584 
z
" transform="scale(0.015625)"/>
       <path id="DejaVuSans-70" d="M 1159 525 
L 1159 -1331 
L 581 -1331 
L 581 3500 
L 1159 3500 
L 1159 2969 
Q 1341 3281 1617 3432 
Q 1894 3584 2278 3584 
Q 2916 3584 3314 3078 
Q 3713 2572 3713 1747 
Q 3713 922 3314 415 
Q 2916 -91 2278 -91 
Q 1894 -91 1617 61 
Q 1341 213 1159 525 
z
M 3116 1747 
Q 3116 2381 2855 2742 
Q 2594 3103 2138 3103 
Q 1681 3103 1420 2742 
Q 1159 2381 1159 1747 
Q 1159 1113 1420 752 
Q 1681 391 2138 391 
Q 2594 391 2855 752 
Q 3116 1113 3116 1747 
z
" transform="scale(0.015625)"/>
      </defs>
      <use xlink:href="#DejaVuSans-4f"/>
      <use xlink:href="#DejaVuSans-73" x="78.710938"/>
      <use xlink:href="#DejaVuSans-67" x="130.810547"/>
      <use xlink:href="#DejaVuSans-6f" x="194.287109"/>
      <use xlink:href="#DejaVuSans-6f" x="255.46875"/>
      <use xlink:href="#DejaVuSans-64" x="316.650391"/>
      <use xlink:href="#DejaVuSans-20" x="380.126953"/>
      <use xlink:href="#DejaVuSans-73" x="411.914062"/>
      <use xlink:href="#DejaVuSans-70" x="464.013672"/>
      <use xlink:href="#DejaVuSans-61" x="527.490234"/>
      <use xlink:href="#DejaVuSans-63" x="588.769531"/>
      <use xlink:href="#DejaVuSans-65" x="643.75"/>
      <use xlink:href="#DejaVuSans-20" x="705.273438"/>
      <use xlink:href="#DejaVuSans-28" x="737.060547"/>
      <use xlink:href="#DejaVuSans-65" x="776.074219"/>
      <use xlink:href="#DejaVuSans-75" x="837.597656"/>
      <use xlink:href="#DejaVuSans-63" x="900.976562"/>
      <use xlink:href="#DejaVuSans-6c" x="955.957031"/>
      <use xlink:href="#DejaVuSans-69" x="983.740234"/>
      <use xlink:href="#DejaVuSans-64" x="1011.523438"/>
      <use xlink:href="#DejaVuSans-65" x="1075"/>
      <use xlink:href="#DejaVuSans-61" x="1136.523438"/>
      <use xlink:href="#DejaVuSans-6e" x="1197.802734"/>
      <use xlink:href="#DejaVuSans-20" x="1261.181641"/>
      <use xlink:href="#DejaVuSans-64" x="1292.96875"/>
      <use xlink:href="#DejaVuSans-69" x="1356.445312"/>
      <use xlink:href="#DejaVuSans-73" x="1384.228516"/>
      <use xlink:href="#DejaVuSans-74" x="1436.328125"/>
      <use xlink:href="#DejaVuSans-61" x="1475.537109"/>
      <use xlink:href="#DejaVuSans-6e" x="1536.816406"/>
      <use xlink:href="#DejaVuSans-63" x="1600.195312"/>
      <use xlink:href="#DejaVuSans-65" x="1655.175781"/>
      <use xlink:href="#DejaVuSans-29" x="1716.699219"/>
     </g>
    </g>
   </g>
   <g id="PathCollection_1">
    <defs>
     <path id="m9471e8bf8e" d="M 0 3.872983 
C 1.027127 3.872983 2.012324 3.464901 2.738613 2.738613 
C 3.464901 2.012324 3.872983 1.027127 3.872983 0 
C 3.872983 -1.027127 3.464901 -2.012324 2.738613 -2.738613 
C 2.012324 -3.464901 1.027127 -3.872983 0 -3.872983 
C -1.027127 -3.872983 -2.012324 -3.464901 -2.738613 -2.738613 
C -3.464901 -2.012324 -3.872983 -1.027127 -3.872983 0 
C -3.872983 1.027127 -3.464901 2.012324 -2.738613 2.738613 
C -2.012324 3.464901 -1.027127 3.872983 0 3.872983 
z
" style="stroke: #000000; stroke-opacity: 0.8; stroke-width: 0.7"/>
    </defs>
    <g clip-path="url(#p2362040a1e)">
     <use xlink:href="#m9471e8bf8e" x="193.916824" y="292.479015" style="fill: #4c72b0; fill-opacity: 0.8; stroke: #000000; stroke-opacity: 0.8; stroke-width: 0.7"/>
     <use xlink:href="#m9471e8bf8e" x="455.010912" y="274.518696" style="fill: #4c72b0; fill-opacity: 0.8; stroke: #000000; stroke-opacity: 0.8; stroke-width: 0.7"/>
     <use xlink:href="#m9471e8bf8e" x="379.07776" y="198.790057" style="fill: #4c72b0; fill-opacity: 0.8; stroke: #000000; stroke-opacity: 0.8; stroke-width: 0.7"/>
     <use xlink:href="#m9471e8bf8e" x="363.493234" y="327.754258" style="fill: #4c72b0; fill-opacity: 0.8; stroke: #000000; stroke-opacity: 0.8; stroke-width: 0.7"/>
     <use xlink:href="#m9471e8bf8e" x="265.668603" y="232.882405" style="fill: #4c72b0; fill-opacity: 0.8; stroke: #000000; stroke-opacity: 0.8; stroke-width: 0.7"/>
     <use xlink:href="#m9471e8bf8e" x="246.270304" y="366.114754" style="fill: #4c72b0; fill-opacity: 0.8; stroke: #000000; stroke-opacity: 0.8; stroke-width: 0.7"/>
     <use xlink:href="#m9471e8bf8e" x="395.679276" y="318.291791" style="fill: #4c72b0; fill-opacity: 0.8; stroke: #000000; stroke-opacity: 0.8; stroke-width: 0.7"/>
     <use xlink:href="#m9471e8bf8e" x="308.020307" y="361.21306" style="fill: #4c72b0; fill-opacity: 0.8; stroke: #000000; stroke-opacity: 0.8; stroke-width: 0.7"/>
     <use xlink:href="#m9471e8bf8e" x="177.534906" y="257.015194" style="fill: #4c72b0; fill-opacity: 0.8; stroke: #000000; stroke-opacity: 0.8; stroke-width: 0.7"/>
     <use xlink:href="#m9471e8bf8e" x="160.493709" y="285.12021" style="fill: #4c72b0; fill-opacity: 0.8; stroke: #000000; stroke-opacity: 0.8; stroke-width: 0.7"/>
     <use xlink:href="#m9471e8bf8e" x="477.160288" y="325.521824" style="fill: #4c72b0; fill-opacity: 0.8; stroke: #000000; stroke-opacity: 0.8; stroke-width: 0.7"/>
     <use xlink:href="#m9471e8bf8e" x="408.30097" y="334.323504" style="fill: #4c72b0; fill-opacity: 0.8; stroke: #000000; stroke-opacity: 0.8; stroke-width: 0.7"/>
     <use xlink:href="#m9471e8bf8e" x="133.520342" y="284.156877" style="fill: #4c72b0; fill-opacity: 0.8; stroke: #000000; stroke-opacity: 0.8; stroke-width: 0.7"/>
     <use xlink:href="#m9471e8bf8e" x="286.571471" y="309.545256" style="fill: #4c72b0; fill-opacity: 0.8; stroke: #000000; stroke-opacity: 0.8; stroke-width: 0.7"/>
     <use xlink:href="#m9471e8bf8e" x="217.757225" y="394.162693" style="fill: #4c72b0; fill-opacity: 0.8; stroke: #000000; stroke-opacity: 0.8; stroke-width: 0.7"/>
     <use xlink:href="#m9471e8bf8e" x="505.891246" y="165.742595" style="fill: #4c72b0; fill-opacity: 0.8; stroke: #000000; stroke-opacity: 0.8; stroke-width: 0.7"/>
     <use xlink:href="#m9471e8bf8e" x="500.178821" y="38.43" style="fill: #4c72b0; fill-opacity: 0.8; stroke: #000000; stroke-opacity: 0.8; stroke-width: 0.7"/>
     <use xlink:href="#m9471e8bf8e" x="382.814868" y="140.49355" style="fill: #4c72b0; fill-opacity: 0.8; stroke: #000000; stroke-opacity: 0.8; stroke-width: 0.7"/>
     <use xlink:href="#m9471e8bf8e" x="485.024596" y="170.537577" style="fill: #4c72b0; fill-opacity: 0.8; stroke: #000000; stroke-opacity: 0.8; stroke-width: 0.7"/>
     <use xlink:href="#m9471e8bf8e" x="432.651877" y="65.440108" style="fill: #4c72b0; fill-opacity: 0.8; stroke: #000000; stroke-opacity: 0.8; stroke-width: 0.7"/>
     <use xlink:href="#m9471e8bf8e" x="352.940662" y="80.052118" style="fill: #4c72b0; fill-opacity: 0.8; stroke: #000000; stroke-opacity: 0.8; stroke-width: 0.7"/>
     <use xlink:href="#m9471e8bf8e" x="502.140213" y="182.359904" style="fill: #4c72b0; fill-opacity: 0.8; stroke: #000000; stroke-opacity: 0.8; stroke-width: 0.7"/>
     <use xlink:href="#m9471e8bf8e" x="494.800995" y="53.703429" style="fill: #4c72b0; fill-opacity: 0.8; stroke: #000000; stroke-opacity: 0.8; stroke-width: 0.7"/>
     <use xlink:href="#m9471e8bf8e" x="374.842532" y="169.205361" style="fill: #4c72b0; fill-opacity: 0.8; stroke: #000000; stroke-opacity: 0.8; stroke-width: 0.7"/>
     <use xlink:href="#m9471e8bf8e" x="477.650034" y="196.165648" style="fill: #4c72b0; fill-opacity: 0.8; stroke: #000000; stroke-opacity: 0.8; stroke-width: 0.7"/>
     <use xlink:href="#m9471e8bf8e" x="424.959238" y="84.627497" style="fill: #4c72b0; fill-opacity: 0.8; stroke: #000000; stroke-opacity: 0.8; stroke-width: 0.7"/>
     <use xlink:href="#m9471e8bf8e" x="344.97669" y="100.883586" style="fill: #4c72b0; fill-opacity: 0.8; stroke: #000000; stroke-opacity: 0.8; stroke-width: 0.7"/>
     <use xlink:href="#m9471e8bf8e" x="99.63" y="389.635991" style="fill: #4c72b0; fill-opacity: 0.8; stroke: #000000; stroke-opacity: 0.8; stroke-width: 0.7"/>
     <use xlink:href="#m9471e8bf8e" x="500.273237" y="249.292406" style="fill: #4c72b0; fill-opacity: 0.8; stroke: #000000; stroke-opacity: 0.8; stroke-width: 0.7"/>
     <use xlink:href="#m9471e8bf8e" x="525.30284" y="134.155117" style="fill: #4c72b0; fill-opacity: 0.8; stroke: #000000; stroke-opacity: 0.8; stroke-width: 0.7"/>
     <use xlink:href="#m9471e8bf8e" x="485.252047" y="163.169592" style="fill: #4c72b0; fill-opacity: 0.8; stroke: #000000; stroke-opacity: 0.8; stroke-width: 0.7"/>
     <use xlink:href="#m9471e8bf8e" x="557.543192" y="211.070426" style="fill: #4c72b0; fill-opacity: 0.8; stroke: #000000; stroke-opacity: 0.8; stroke-width: 0.7"/>
     <use xlink:href="#m9471e8bf8e" x="517.523848" y="146.751391" style="fill: #4c72b0; fill-opacity: 0.8; stroke: #000000; stroke-opacity: 0.8; stroke-width: 0.7"/>
     <use xlink:href="#m9471e8bf8e" x="462.178271" y="153.852157" style="fill: #4c72b0; fill-opacity: 0.8; stroke: #000000; stroke-opacity: 0.8; stroke-width: 0.7"/>
     <use xlink:href="#m9471e8bf8e" x="217.721609" y="300.759069" style="fill: #4c72b0; fill-opacity: 0.8; stroke: #000000; stroke-opacity: 0.8; stroke-width: 0.7"/>
     <use xlink:href="#m9471e8bf8e" x="223.946714" y="296.194822" style="fill: #4c72b0; fill-opacity: 0.8; stroke: #000000; stroke-opacity: 0.8; stroke-width: 0.7"/>
     <use xlink:href="#m9471e8bf8e" x="469.39021" y="184.108718" style="fill: #4c72b0; fill-opacity: 0.8; stroke: #000000; stroke-opacity: 0.8; stroke-width: 0.7"/>
     <use xlink:href="#m9471e8bf8e" x="497.855077" y="55.539711" style="fill: #4c72b0; fill-opacity: 0.8; stroke: #000000; stroke-opacity: 0.8; stroke-width: 0.7"/>
     <use xlink:href="#m9471e8bf8e" x="476.308092" y="169.100384" style="fill: #4c72b0; fill-opacity: 0.8; stroke: #000000; stroke-opacity: 0.8; stroke-width: 0.7"/>
     <use xlink:href="#m9471e8bf8e" x="538.878014" y="196.710673" style="fill: #4c72b0; fill-opacity: 0.8; stroke: #000000; stroke-opacity: 0.8; stroke-width: 0.7"/>
     <use xlink:href="#m9471e8bf8e" x="502.51504" y="86.053696" style="fill: #4c72b0; fill-opacity: 0.8; stroke: #000000; stroke-opacity: 0.8; stroke-width: 0.7"/>
     <use xlink:href="#m9471e8bf8e" x="456.245761" y="102.112727" style="fill: #4c72b0; fill-opacity: 0.8; stroke: #000000; stroke-opacity: 0.8; stroke-width: 0.7"/>
     <use xlink:href="#m9471e8bf8e" x="228.109136" y="391.044567" style="fill: #4c72b0; fill-opacity: 0.8; stroke: #000000; stroke-opacity: 0.8; stroke-width: 0.7"/>
     <use xlink:href="#m9471e8bf8e" x="233.013867" y="418.23" style="fill: #4c72b0; fill-opacity: 0.8; stroke: #000000; stroke-opacity: 0.8; stroke-width: 0.7"/>
     <use xlink:href="#m9471e8bf8e" x="124.255031" y="299.33434" style="fill: #4c72b0; fill-opacity: 0.8; stroke: #000000; stroke-opacity: 0.8; stroke-width: 0.7"/>
     <use xlink:href="#m9471e8bf8e" x="436.180039" y="282.562413" style="fill: #4c72b0; fill-opacity: 0.8; stroke: #000000; stroke-opacity: 0.8; stroke-width: 0.7"/>
     <use xlink:href="#m9471e8bf8e" x="486.511793" y="169.846023" style="fill: #4c72b0; fill-opacity: 0.8; stroke: #000000; stroke-opacity: 0.8; stroke-width: 0.7"/>
     <use xlink:href="#m9471e8bf8e" x="527.660504" y="183.441332" style="fill: #4c72b0; fill-opacity: 0.8; stroke: #000000; stroke-opacity: 0.8; stroke-width: 0.7"/>
     <use xlink:href="#m9471e8bf8e" x="562.23" y="234.486287" style="fill: #4c72b0; fill-opacity: 0.8; stroke: #000000; stroke-opacity: 0.8; stroke-width: 0.7"/>
     <use xlink:href="#m9471e8bf8e" x="537.857623" y="180.890402" style="fill: #4c72b0; fill-opacity: 0.8; stroke: #000000; stroke-opacity: 0.8; stroke-width: 0.7"/>
     <use xlink:href="#m9471e8bf8e" x="514.5512" y="186.676967" style="fill: #4c72b0; fill-opacity: 0.8; stroke: #000000; stroke-opacity: 0.8; stroke-width: 0.7"/>
     <use xlink:href="#m9471e8bf8e" x="315.002438" y="271.540288" style="fill: #4c72b0; fill-opacity: 0.8; stroke: #000000; stroke-opacity: 0.8; stroke-width: 0.7"/>
     <use xlink:href="#m9471e8bf8e" x="318.825899" y="272.598408" style="fill: #4c72b0; fill-opacity: 0.8; stroke: #000000; stroke-opacity: 0.8; stroke-width: 0.7"/>
     <use xlink:href="#m9471e8bf8e" x="208.772475" y="385.64465" style="fill: #4c72b0; fill-opacity: 0.8; stroke: #000000; stroke-opacity: 0.8; stroke-width: 0.7"/>
     <use xlink:href="#m9471e8bf8e" x="182.650913" y="275.530432" style="fill: #4c72b0; fill-opacity: 0.8; stroke: #000000; stroke-opacity: 0.8; stroke-width: 0.7"/>
     <use xlink:href="#m9471e8bf8e" x="312.235146" y="325.552246" style="fill: #4c72b0; fill-opacity: 0.8; stroke: #000000; stroke-opacity: 0.8; stroke-width: 0.7"/>
     <use xlink:href="#m9471e8bf8e" x="382.107509" y="216.534613" style="fill: #4c72b0; fill-opacity: 0.8; stroke: #000000; stroke-opacity: 0.8; stroke-width: 0.7"/>
     <use xlink:href="#m9471e8bf8e" x="509.099229" y="207.842031" style="fill: #4c72b0; fill-opacity: 0.8; stroke: #000000; stroke-opacity: 0.8; stroke-width: 0.7"/>
     <use xlink:href="#m9471e8bf8e" x="497.485701" y="262.081353" style="fill: #4c72b0; fill-opacity: 0.8; stroke: #000000; stroke-opacity: 0.8; stroke-width: 0.7"/>
     <use xlink:href="#m9471e8bf8e" x="492.57248" y="226.015159" style="fill: #4c72b0; fill-opacity: 0.8; stroke: #000000; stroke-opacity: 0.8; stroke-width: 0.7"/>
     <use xlink:href="#m9471e8bf8e" x="509.231856" y="229.949127" style="fill: #4c72b0; fill-opacity: 0.8; stroke: #000000; stroke-opacity: 0.8; stroke-width: 0.7"/>
     <use xlink:href="#m9471e8bf8e" x="390.886802" y="231.993676" style="fill: #4c72b0; fill-opacity: 0.8; stroke: #000000; stroke-opacity: 0.8; stroke-width: 0.7"/>
     <use xlink:href="#m9471e8bf8e" x="391.338783" y="238.442362" style="fill: #4c72b0; fill-opacity: 0.8; stroke: #000000; stroke-opacity: 0.8; stroke-width: 0.7"/>
     <use xlink:href="#m9471e8bf8e" x="325.360028" y="339.04559" style="fill: #4c72b0; fill-opacity: 0.8; stroke: #000000; stroke-opacity: 0.8; stroke-width: 0.7"/>
     <use xlink:href="#m9471e8bf8e" x="293.050211" y="241.061106" style="fill: #4c72b0; fill-opacity: 0.8; stroke: #000000; stroke-opacity: 0.8; stroke-width: 0.7"/>
     <use xlink:href="#m9471e8bf8e" x="227.771003" y="374.764087" style="fill: #4c72b0; fill-opacity: 0.8; stroke: #000000; stroke-opacity: 0.8; stroke-width: 0.7"/>
     <use xlink:href="#m9471e8bf8e" x="386.112715" y="256.814182" style="fill: #4c72b0; fill-opacity: 0.8; stroke: #000000; stroke-opacity: 0.8; stroke-width: 0.7"/>
     <use xlink:href="#m9471e8bf8e" x="449.175831" y="161.884102" style="fill: #4c72b0; fill-opacity: 0.8; stroke: #000000; stroke-opacity: 0.8; stroke-width: 0.7"/>
     <use xlink:href="#m9471e8bf8e" x="535.925458" y="140.418351" style="fill: #4c72b0; fill-opacity: 0.8; stroke: #000000; stroke-opacity: 0.8; stroke-width: 0.7"/>
     <use xlink:href="#m9471e8bf8e" x="547.497651" y="193.539443" style="fill: #4c72b0; fill-opacity: 0.8; stroke: #000000; stroke-opacity: 0.8; stroke-width: 0.7"/>
     <use xlink:href="#m9471e8bf8e" x="532.923022" y="161.663986" style="fill: #4c72b0; fill-opacity: 0.8; stroke: #000000; stroke-opacity: 0.8; stroke-width: 0.7"/>
     <use xlink:href="#m9471e8bf8e" x="529.0805" y="162.608775" style="fill: #4c72b0; fill-opacity: 0.8; stroke: #000000; stroke-opacity: 0.8; stroke-width: 0.7"/>
     <use xlink:href="#m9471e8bf8e" x="363.540644" y="240.224111" style="fill: #4c72b0; fill-opacity: 0.8; stroke: #000000; stroke-opacity: 0.8; stroke-width: 0.7"/>
     <use xlink:href="#m9471e8bf8e" x="365.93279" y="234.578046" style="fill: #4c72b0; fill-opacity: 0.8; stroke: #000000; stroke-opacity: 0.8; stroke-width: 0.7"/>
     <use xlink:href="#m9471e8bf8e" x="272.352492" y="359.824765" style="fill: #4c72b0; fill-opacity: 0.8; stroke: #000000; stroke-opacity: 0.8; stroke-width: 0.7"/>
     <use xlink:href="#m9471e8bf8e" x="242.659684" y="237.712098" style="fill: #4c72b0; fill-opacity: 0.8; stroke: #000000; stroke-opacity: 0.8; stroke-width: 0.7"/>
     <use xlink:href="#m9471e8bf8e" x="159.651166" y="372.059107" style="fill: #4c72b0; fill-opacity: 0.8; stroke: #000000; stroke-opacity: 0.8; stroke-width: 0.7"/>
     <use xlink:href="#m9471e8bf8e" x="167.087037" y="351.03895" style="fill: #4c72b0; fill-opacity: 0.8; stroke: #000000; stroke-opacity: 0.8; stroke-width: 0.7"/>
     <use xlink:href="#m9471e8bf8e" x="417.881447" y="374.957305" style="fill: #4c72b0; fill-opacity: 0.8; stroke: #000000; stroke-opacity: 0.8; stroke-width: 0.7"/>
     <use xlink:href="#m9471e8bf8e" x="474.772243" y="337.60061" style="fill: #4c72b0; fill-opacity: 0.8; stroke: #000000; stroke-opacity: 0.8; stroke-width: 0.7"/>
     <use xlink:href="#m9471e8bf8e" x="537.159599" y="247.380644" style="fill: #4c72b0; fill-opacity: 0.8; stroke: #000000; stroke-opacity: 0.8; stroke-width: 0.7"/>
     <use xlink:href="#m9471e8bf8e" x="561.455179" y="294.699779" style="fill: #4c72b0; fill-opacity: 0.8; stroke: #000000; stroke-opacity: 0.8; stroke-width: 0.7"/>
     <use xlink:href="#m9471e8bf8e" x="541.49829" y="348.674866" style="fill: #4c72b0; fill-opacity: 0.8; stroke: #000000; stroke-opacity: 0.8; stroke-width: 0.7"/>
     <use xlink:href="#m9471e8bf8e" x="526.746338" y="343.453399" style="fill: #4c72b0; fill-opacity: 0.8; stroke: #000000; stroke-opacity: 0.8; stroke-width: 0.7"/>
     <use xlink:href="#m9471e8bf8e" x="340.56665" y="122.255216" style="fill: #4c72b0; fill-opacity: 0.8; stroke: #000000; stroke-opacity: 0.8; stroke-width: 0.7"/>
     <use xlink:href="#m9471e8bf8e" x="343.8444" y="137.414351" style="fill: #4c72b0; fill-opacity: 0.8; stroke: #000000; stroke-opacity: 0.8; stroke-width: 0.7"/>
     <use xlink:href="#m9471e8bf8e" x="239.290789" y="214.498824" style="fill: #4c72b0; fill-opacity: 0.8; stroke: #000000; stroke-opacity: 0.8; stroke-width: 0.7"/>
     <use xlink:href="#m9471e8bf8e" x="211.820186" y="139.287877" style="fill: #4c72b0; fill-opacity: 0.8; stroke: #000000; stroke-opacity: 0.8; stroke-width: 0.7"/>
     <use xlink:href="#m9471e8bf8e" x="122.778286" y="249.65033" style="fill: #4c72b0; fill-opacity: 0.8; stroke: #000000; stroke-opacity: 0.8; stroke-width: 0.7"/>
     <use xlink:href="#m9471e8bf8e" x="202.841107" y="295.909919" style="fill: #4c72b0; fill-opacity: 0.8; stroke: #000000; stroke-opacity: 0.8; stroke-width: 0.7"/>
     <use xlink:href="#m9471e8bf8e" x="130.024371" y="233.96025" style="fill: #4c72b0; fill-opacity: 0.8; stroke: #000000; stroke-opacity: 0.8; stroke-width: 0.7"/>
     <use xlink:href="#m9471e8bf8e" x="117.440583" y="408.110181" style="fill: #4c72b0; fill-opacity: 0.8; stroke: #000000; stroke-opacity: 0.8; stroke-width: 0.7"/>
     <use xlink:href="#m9471e8bf8e" x="208.36336" y="288.460439" style="fill: #4c72b0; fill-opacity: 0.8; stroke: #000000; stroke-opacity: 0.8; stroke-width: 0.7"/>
     <use xlink:href="#m9471e8bf8e" x="452.300549" y="263.061763" style="fill: #4c72b0; fill-opacity: 0.8; stroke: #000000; stroke-opacity: 0.8; stroke-width: 0.7"/>
     <use xlink:href="#m9471e8bf8e" x="371.201103" y="317.11683" style="fill: #4c72b0; fill-opacity: 0.8; stroke: #000000; stroke-opacity: 0.8; stroke-width: 0.7"/>
     <use xlink:href="#m9471e8bf8e" x="397.962156" y="308.922609" style="fill: #4c72b0; fill-opacity: 0.8; stroke: #000000; stroke-opacity: 0.8; stroke-width: 0.7"/>
     <use xlink:href="#m9471e8bf8e" x="471.967175" y="314.059725" style="fill: #4c72b0; fill-opacity: 0.8; stroke: #000000; stroke-opacity: 0.8; stroke-width: 0.7"/>
     <use xlink:href="#m9471e8bf8e" x="486.056354" y="171.307048" style="fill: #4c72b0; fill-opacity: 0.8; stroke: #000000; stroke-opacity: 0.8; stroke-width: 0.7"/>
     <use xlink:href="#m9471e8bf8e" x="482.600081" y="186.526615" style="fill: #4c72b0; fill-opacity: 0.8; stroke: #000000; stroke-opacity: 0.8; stroke-width: 0.7"/>
     <use xlink:href="#m9471e8bf8e" x="476.300839" y="259.283033" style="fill: #4c72b0; fill-opacity: 0.8; stroke: #000000; stroke-opacity: 0.8; stroke-width: 0.7"/>
     <use xlink:href="#m9471e8bf8e" x="445.174264" y="188.418054" style="fill: #4c72b0; fill-opacity: 0.8; stroke: #000000; stroke-opacity: 0.8; stroke-width: 0.7"/>
     <use xlink:href="#m9471e8bf8e" x="410.53966" y="293.247287" style="fill: #4c72b0; fill-opacity: 0.8; stroke: #000000; stroke-opacity: 0.8; stroke-width: 0.7"/>
     <use xlink:href="#m9471e8bf8e" x="286.591886" y="337.334529" style="fill: #4c72b0; fill-opacity: 0.8; stroke: #000000; stroke-opacity: 0.8; stroke-width: 0.7"/>
     <use xlink:href="#m9471e8bf8e" x="360.345348" y="269.361443" style="fill: #4c72b0; fill-opacity: 0.8; stroke: #000000; stroke-opacity: 0.8; stroke-width: 0.7"/>
     <use xlink:href="#m9471e8bf8e" x="392.102308" y="372.301016" style="fill: #4c72b0; fill-opacity: 0.8; stroke: #000000; stroke-opacity: 0.8; stroke-width: 0.7"/>
     <use xlink:href="#m9471e8bf8e" x="520.124939" y="253.593499" style="fill: #4c72b0; fill-opacity: 0.8; stroke: #000000; stroke-opacity: 0.8; stroke-width: 0.7"/>
     <use xlink:href="#m9471e8bf8e" x="488.84024" y="126.464201" style="fill: #4c72b0; fill-opacity: 0.8; stroke: #000000; stroke-opacity: 0.8; stroke-width: 0.7"/>
     <use xlink:href="#m9471e8bf8e" x="301.025039" y="207.286122" style="fill: #4c72b0; fill-opacity: 0.8; stroke: #000000; stroke-opacity: 0.8; stroke-width: 0.7"/>
     <use xlink:href="#m9471e8bf8e" x="429.778618" y="246.926584" style="fill: #4c72b0; fill-opacity: 0.8; stroke: #000000; stroke-opacity: 0.8; stroke-width: 0.7"/>
     <use xlink:href="#m9471e8bf8e" x="367.763591" y="152.444481" style="fill: #4c72b0; fill-opacity: 0.8; stroke: #000000; stroke-opacity: 0.8; stroke-width: 0.7"/>
     <use xlink:href="#m9471e8bf8e" x="264.47459" y="165.750024" style="fill: #4c72b0; fill-opacity: 0.8; stroke: #000000; stroke-opacity: 0.8; stroke-width: 0.7"/>
     <use xlink:href="#m9471e8bf8e" x="196.440033" y="333.411363" style="fill: #4c72b0; fill-opacity: 0.8; stroke: #000000; stroke-opacity: 0.8; stroke-width: 0.7"/>
     <use xlink:href="#m9471e8bf8e" x="189.551023" y="345.062346" style="fill: #4c72b0; fill-opacity: 0.8; stroke: #000000; stroke-opacity: 0.8; stroke-width: 0.7"/>
     <use xlink:href="#m9471e8bf8e" x="321.522259" y="355.416232" style="fill: #4c72b0; fill-opacity: 0.8; stroke: #000000; stroke-opacity: 0.8; stroke-width: 0.7"/>
     <use xlink:href="#m9471e8bf8e" x="327.636679" y="347.530991" style="fill: #4c72b0; fill-opacity: 0.8; stroke: #000000; stroke-opacity: 0.8; stroke-width: 0.7"/>
     <use xlink:href="#m9471e8bf8e" x="408.025772" y="343.876751" style="fill: #4c72b0; fill-opacity: 0.8; stroke: #000000; stroke-opacity: 0.8; stroke-width: 0.7"/>
     <use xlink:href="#m9471e8bf8e" x="456.969856" y="314.537782" style="fill: #4c72b0; fill-opacity: 0.8; stroke: #000000; stroke-opacity: 0.8; stroke-width: 0.7"/>
     <use xlink:href="#m9471e8bf8e" x="446.309221" y="298.787382" style="fill: #4c72b0; fill-opacity: 0.8; stroke: #000000; stroke-opacity: 0.8; stroke-width: 0.7"/>
     <use xlink:href="#m9471e8bf8e" x="429.86544" y="210.296047" style="fill: #4c72b0; fill-opacity: 0.8; stroke: #000000; stroke-opacity: 0.8; stroke-width: 0.7"/>
     <use xlink:href="#m9471e8bf8e" x="505.016851" y="259.348012" style="fill: #4c72b0; fill-opacity: 0.8; stroke: #000000; stroke-opacity: 0.8; stroke-width: 0.7"/>
     <use xlink:href="#m9471e8bf8e" x="267.373561" y="312.525785" style="fill: #4c72b0; fill-opacity: 0.8; stroke: #000000; stroke-opacity: 0.8; stroke-width: 0.7"/>
     <use xlink:href="#m9471e8bf8e" x="358.652828" y="254.666727" style="fill: #4c72b0; fill-opacity: 0.8; stroke: #000000; stroke-opacity: 0.8; stroke-width: 0.7"/>
     <use xlink:href="#m9471e8bf8e" x="546.44602" y="168.037523" style="fill: #4c72b0; fill-opacity: 0.8; stroke: #000000; stroke-opacity: 0.8; stroke-width: 0.7"/>
     <use xlink:href="#m9471e8bf8e" x="503.869916" y="223.021328" style="fill: #4c72b0; fill-opacity: 0.8; stroke: #000000; stroke-opacity: 0.8; stroke-width: 0.7"/>
     <use xlink:href="#m9471e8bf8e" x="513.656952" y="241.659718" style="fill: #4c72b0; fill-opacity: 0.8; stroke: #000000; stroke-opacity: 0.8; stroke-width: 0.7"/>
     <use xlink:href="#m9471e8bf8e" x="554.067707" y="234.883567" style="fill: #4c72b0; fill-opacity: 0.8; stroke: #000000; stroke-opacity: 0.8; stroke-width: 0.7"/>
     <use xlink:href="#m9471e8bf8e" x="472.461716" y="161.307992" style="fill: #4c72b0; fill-opacity: 0.8; stroke: #000000; stroke-opacity: 0.8; stroke-width: 0.7"/>
     <use xlink:href="#m9471e8bf8e" x="472.066447" y="165.03156" style="fill: #4c72b0; fill-opacity: 0.8; stroke: #000000; stroke-opacity: 0.8; stroke-width: 0.7"/>
     <use xlink:href="#m9471e8bf8e" x="414.003679" y="277.899167" style="fill: #4c72b0; fill-opacity: 0.8; stroke: #000000; stroke-opacity: 0.8; stroke-width: 0.7"/>
     <use xlink:href="#m9471e8bf8e" x="381.623977" y="167.767924" style="fill: #4c72b0; fill-opacity: 0.8; stroke: #000000; stroke-opacity: 0.8; stroke-width: 0.7"/>
     <use xlink:href="#m9471e8bf8e" x="313.80919" y="310.95929" style="fill: #4c72b0; fill-opacity: 0.8; stroke: #000000; stroke-opacity: 0.8; stroke-width: 0.7"/>
     <use xlink:href="#m9471e8bf8e" x="180.369859" y="346.756929" style="fill: #4c72b0; fill-opacity: 0.8; stroke: #000000; stroke-opacity: 0.8; stroke-width: 0.7"/>
     <use xlink:href="#m9471e8bf8e" x="248.025563" y="323.142911" style="fill: #4c72b0; fill-opacity: 0.8; stroke: #000000; stroke-opacity: 0.8; stroke-width: 0.7"/>
     <use xlink:href="#m9471e8bf8e" x="286.181661" y="312.745094" style="fill: #4c72b0; fill-opacity: 0.8; stroke: #000000; stroke-opacity: 0.8; stroke-width: 0.7"/>
     <use xlink:href="#m9471e8bf8e" x="245.12373" y="325.274609" style="fill: #4c72b0; fill-opacity: 0.8; stroke: #000000; stroke-opacity: 0.8; stroke-width: 0.7"/>
     <use xlink:href="#m9471e8bf8e" x="528.318233" y="240.492878" style="fill: #4c72b0; fill-opacity: 0.8; stroke: #000000; stroke-opacity: 0.8; stroke-width: 0.7"/>
     <use xlink:href="#m9471e8bf8e" x="315.248266" y="196.589206" style="fill: #4c72b0; fill-opacity: 0.8; stroke: #000000; stroke-opacity: 0.8; stroke-width: 0.7"/>
     <use xlink:href="#m9471e8bf8e" x="379.314101" y="86.8646" style="fill: #4c72b0; fill-opacity: 0.8; stroke: #000000; stroke-opacity: 0.8; stroke-width: 0.7"/>
     <use xlink:href="#m9471e8bf8e" x="493.895948" y="110.019656" style="fill: #4c72b0; fill-opacity: 0.8; stroke: #000000; stroke-opacity: 0.8; stroke-width: 0.7"/>
     <use xlink:href="#m9471e8bf8e" x="487.67381" y="156.819925" style="fill: #4c72b0; fill-opacity: 0.8; stroke: #000000; stroke-opacity: 0.8; stroke-width: 0.7"/>
     <use xlink:href="#m9471e8bf8e" x="480.103202" y="95.03165" style="fill: #4c72b0; fill-opacity: 0.8; stroke: #000000; stroke-opacity: 0.8; stroke-width: 0.7"/>
     <use xlink:href="#m9471e8bf8e" x="492.936893" y="100.747908" style="fill: #4c72b0; fill-opacity: 0.8; stroke: #000000; stroke-opacity: 0.8; stroke-width: 0.7"/>
     <use xlink:href="#m9471e8bf8e" x="372.038565" y="300.542548" style="fill: #4c72b0; fill-opacity: 0.8; stroke: #000000; stroke-opacity: 0.8; stroke-width: 0.7"/>
     <use xlink:href="#m9471e8bf8e" x="372.422534" y="283.164673" style="fill: #4c72b0; fill-opacity: 0.8; stroke: #000000; stroke-opacity: 0.8; stroke-width: 0.7"/>
     <use xlink:href="#m9471e8bf8e" x="309.34586" y="366.76" style="fill: #4c72b0; fill-opacity: 0.8; stroke: #000000; stroke-opacity: 0.8; stroke-width: 0.7"/>
     <use xlink:href="#m9471e8bf8e" x="276.86109" y="286.336157" style="fill: #4c72b0; fill-opacity: 0.8; stroke: #000000; stroke-opacity: 0.8; stroke-width: 0.7"/>
     <use xlink:href="#m9471e8bf8e" x="217.062867" y="335.457855" style="fill: #4c72b0; fill-opacity: 0.8; stroke: #000000; stroke-opacity: 0.8; stroke-width: 0.7"/>
     <use xlink:href="#m9471e8bf8e" x="110.695214" y="290.121015" style="fill: #4c72b0; fill-opacity: 0.8; stroke: #000000; stroke-opacity: 0.8; stroke-width: 0.7"/>
     <use xlink:href="#m9471e8bf8e" x="162.799789" y="339.355181" style="fill: #4c72b0; fill-opacity: 0.8; stroke: #000000; stroke-opacity: 0.8; stroke-width: 0.7"/>
     <use xlink:href="#m9471e8bf8e" x="194.988903" y="164.616292" style="fill: #4c72b0; fill-opacity: 0.8; stroke: #000000; stroke-opacity: 0.8; stroke-width: 0.7"/>
     <use xlink:href="#m9471e8bf8e" x="289.461187" y="207.274265" style="fill: #4c72b0; fill-opacity: 0.8; stroke: #000000; stroke-opacity: 0.8; stroke-width: 0.7"/>
     <use xlink:href="#m9471e8bf8e" x="438.039872" y="315.404819" style="fill: #4c72b0; fill-opacity: 0.8; stroke: #000000; stroke-opacity: 0.8; stroke-width: 0.7"/>
     <use xlink:href="#m9471e8bf8e" x="196.656782" y="242.040016" style="fill: #4c72b0; fill-opacity: 0.8; stroke: #000000; stroke-opacity: 0.8; stroke-width: 0.7"/>
    </g>
   </g>
   <g id="PolyCollection_1">
    <defs>
     <path id="m378c7bc141" d="M 99.63 -186.769261 
L 99.63 -137.747441 
L 104.302727 -139.747183 
L 108.975455 -141.623832 
L 113.648182 -143.44635 
L 118.320909 -145.436945 
L 122.993636 -147.43786 
L 127.666364 -149.334243 
L 132.339091 -151.177196 
L 137.011818 -153.045134 
L 141.684545 -155.173318 
L 146.357273 -156.996059 
L 151.03 -158.753168 
L 155.702727 -160.574687 
L 160.375455 -162.539765 
L 165.048182 -164.527915 
L 169.720909 -166.631059 
L 174.393636 -168.647329 
L 179.066364 -170.419291 
L 183.739091 -172.321051 
L 188.411818 -174.058663 
L 193.084545 -175.796585 
L 197.757273 -177.764519 
L 202.43 -179.642133 
L 207.102727 -181.833643 
L 211.775455 -183.692267 
L 216.448182 -185.509635 
L 221.120909 -187.321918 
L 225.793636 -189.173849 
L 230.466364 -191.264246 
L 235.139091 -193.116577 
L 239.811818 -194.767741 
L 244.484545 -196.505105 
L 249.157273 -198.456521 
L 253.83 -200.538863 
L 258.502727 -202.404853 
L 263.175455 -204.196627 
L 267.848182 -206.028248 
L 272.520909 -207.837124 
L 277.193636 -209.561339 
L 281.866364 -211.456987 
L 286.539091 -213.220024 
L 291.211818 -215.155473 
L 295.884545 -216.841075 
L 300.557273 -218.564884 
L 305.23 -220.273676 
L 309.902727 -222.031901 
L 314.575455 -223.689659 
L 319.248182 -225.317195 
L 323.920909 -226.961521 
L 328.593636 -228.571078 
L 333.266364 -230.263836 
L 337.939091 -231.983082 
L 342.611818 -233.557964 
L 347.284545 -235.092017 
L 351.957273 -236.664611 
L 356.63 -238.28646 
L 361.302727 -239.939359 
L 365.975455 -241.453685 
L 370.648182 -242.959278 
L 375.320909 -244.437653 
L 379.993636 -245.950493 
L 384.666364 -247.53487 
L 389.339091 -249.164274 
L 394.011818 -250.721146 
L 398.684545 -252.21858 
L 403.357273 -253.858014 
L 408.03 -255.291641 
L 412.702727 -256.72275 
L 417.375455 -258.086545 
L 422.048182 -259.437555 
L 426.720909 -260.80107 
L 431.393636 -262.208903 
L 436.066364 -263.887736 
L 440.739091 -265.36262 
L 445.411818 -266.553719 
L 450.084545 -268.084368 
L 454.757273 -269.572638 
L 459.43 -270.902726 
L 464.102727 -272.25891 
L 468.775455 -273.627369 
L 473.448182 -275.065667 
L 478.120909 -276.506317 
L 482.793636 -278.028892 
L 487.466364 -279.604889 
L 492.139091 -280.85301 
L 496.811818 -282.218239 
L 501.484545 -283.339145 
L 506.157273 -284.786738 
L 510.83 -286.254509 
L 515.502727 -287.456848 
L 520.175455 -288.815247 
L 524.848182 -290.220922 
L 529.520909 -291.626596 
L 534.193636 -292.938576 
L 538.866364 -294.081915 
L 543.539091 -295.126394 
L 548.211818 -296.143532 
L 552.884545 -297.502704 
L 557.557273 -298.781253 
L 562.23 -300.179141 
L 562.23 -343.265565 
L 562.23 -343.265565 
L 557.557273 -341.254267 
L 552.884545 -339.242521 
L 548.211818 -337.204728 
L 543.539091 -335.168327 
L 538.866364 -333.153716 
L 534.193636 -331.158551 
L 529.520909 -329.261637 
L 524.848182 -327.465651 
L 520.175455 -325.586288 
L 515.502727 -323.65564 
L 510.83 -321.726225 
L 506.157273 -319.88114 
L 501.484545 -318.014831 
L 496.811818 -316.194229 
L 492.139091 -314.283251 
L 487.466364 -312.500411 
L 482.793636 -310.604432 
L 478.120909 -308.831131 
L 473.448182 -306.810424 
L 468.775455 -304.942409 
L 464.102727 -303.138156 
L 459.43 -301.285187 
L 454.757273 -299.429698 
L 450.084545 -297.573004 
L 445.411818 -295.893984 
L 440.739091 -294.313028 
L 436.066364 -292.682669 
L 431.393636 -291.097181 
L 426.720909 -289.341216 
L 422.048182 -287.610423 
L 417.375455 -285.798369 
L 412.702727 -284.031649 
L 408.03 -282.249822 
L 403.357273 -280.516584 
L 398.684545 -278.815342 
L 394.011818 -277.055966 
L 389.339091 -275.257536 
L 384.666364 -273.454679 
L 379.993636 -271.655577 
L 375.320909 -270.070941 
L 370.648182 -268.287204 
L 365.975455 -266.670776 
L 361.302727 -265.074777 
L 356.63 -263.323095 
L 351.957273 -261.687833 
L 347.284545 -260.093375 
L 342.611818 -258.404263 
L 337.939091 -256.799052 
L 333.266364 -255.212628 
L 328.593636 -254.09051 
L 323.920909 -252.449043 
L 319.248182 -250.980936 
L 314.575455 -249.511518 
L 309.902727 -248.013436 
L 305.23 -246.324937 
L 300.557273 -244.763427 
L 295.884545 -243.281402 
L 291.211818 -241.987987 
L 286.539091 -240.383595 
L 281.866364 -238.929503 
L 277.193636 -237.60828 
L 272.520909 -236.483612 
L 267.848182 -235.204741 
L 263.175455 -233.61212 
L 258.502727 -232.227366 
L 253.83 -230.457413 
L 249.157273 -228.973872 
L 244.484545 -227.725044 
L 239.811818 -226.472128 
L 235.139091 -225.229862 
L 230.466364 -223.84859 
L 225.793636 -222.460645 
L 221.120909 -221.026938 
L 216.448182 -219.629633 
L 211.775455 -218.276983 
L 207.102727 -216.915267 
L 202.43 -215.548919 
L 197.757273 -214.40018 
L 193.084545 -213.245777 
L 188.411818 -211.968789 
L 183.739091 -210.923355 
L 179.066364 -209.466941 
L 174.393636 -208.034128 
L 169.720909 -206.740808 
L 165.048182 -205.558248 
L 160.375455 -204.256685 
L 155.702727 -203.003213 
L 151.03 -201.704644 
L 146.357273 -200.300255 
L 141.684545 -198.930077 
L 137.011818 -197.595288 
L 132.339091 -196.260303 
L 127.666364 -194.925318 
L 122.993636 -193.590334 
L 118.320909 -192.255349 
L 113.648182 -190.920364 
L 108.975455 -189.550233 
L 104.302727 -188.159747 
L 99.63 -186.769261 
z
" style="stroke: #ffffff; stroke-opacity: 0.15"/>
    </defs>
    <g clip-path="url(#p2362040a1e)">
     <use xlink:href="#m378c7bc141" x="0" y="504" style="fill: #4c72b0; fill-opacity: 0.15; stroke: #ffffff; stroke-opacity: 0.15"/>
    </g>
   </g>
   <g id="line2d_1">
    <path d="M 99.63 341.134293 
L 104.302727 339.538695 
L 108.975455 337.943096 
L 113.648182 336.347498 
L 118.320909 334.7519 
L 122.993636 333.156301 
L 127.666364 331.560703 
L 132.339091 329.965104 
L 137.011818 328.369506 
L 141.684545 326.773908 
L 146.357273 325.178309 
L 151.03 323.582711 
L 155.702727 321.987112 
L 160.375455 320.391514 
L 165.048182 318.795916 
L 169.720909 317.200317 
L 174.393636 315.604719 
L 179.066364 314.00912 
L 183.739091 312.413522 
L 188.411818 310.817923 
L 193.084545 309.222325 
L 197.757273 307.626727 
L 202.43 306.031128 
L 207.102727 304.43553 
L 211.775455 302.839931 
L 216.448182 301.244333 
L 221.120909 299.648735 
L 225.793636 298.053136 
L 230.466364 296.457538 
L 235.139091 294.861939 
L 239.811818 293.266341 
L 244.484545 291.670742 
L 249.157273 290.075144 
L 253.83 288.479546 
L 258.502727 286.883947 
L 263.175455 285.288349 
L 267.848182 283.69275 
L 272.520909 282.097152 
L 277.193636 280.501554 
L 281.866364 278.905955 
L 286.539091 277.310357 
L 291.211818 275.714758 
L 295.884545 274.11916 
L 300.557273 272.523562 
L 305.23 270.927963 
L 309.902727 269.332365 
L 314.575455 267.736766 
L 319.248182 266.141168 
L 323.920909 264.545569 
L 328.593636 262.949971 
L 333.266364 261.354373 
L 337.939091 259.758774 
L 342.611818 258.163176 
L 347.284545 256.567577 
L 351.957273 254.971979 
L 356.63 253.376381 
L 361.302727 251.780782 
L 365.975455 250.185184 
L 370.648182 248.589585 
L 375.320909 246.993987 
L 379.993636 245.398388 
L 384.666364 243.80279 
L 389.339091 242.207192 
L 394.011818 240.611593 
L 398.684545 239.015995 
L 403.357273 237.420396 
L 408.03 235.824798 
L 412.702727 234.2292 
L 417.375455 232.633601 
L 422.048182 231.038003 
L 426.720909 229.442404 
L 431.393636 227.846806 
L 436.066364 226.251207 
L 440.739091 224.655609 
L 445.411818 223.060011 
L 450.084545 221.464412 
L 454.757273 219.868814 
L 459.43 218.273215 
L 464.102727 216.677617 
L 468.775455 215.082019 
L 473.448182 213.48642 
L 478.120909 211.890822 
L 482.793636 210.295223 
L 487.466364 208.699625 
L 492.139091 207.104027 
L 496.811818 205.508428 
L 501.484545 203.91283 
L 506.157273 202.317231 
L 510.83 200.721633 
L 515.502727 199.126034 
L 520.175455 197.530436 
L 524.848182 195.934838 
L 529.520909 194.339239 
L 534.193636 192.743641 
L 538.866364 191.148042 
L 543.539091 189.552444 
L 548.211818 187.956846 
L 552.884545 186.361247 
L 557.557273 184.765649 
L 562.23 183.17005 
" clip-path="url(#p2362040a1e)" style="fill: none; stroke: #4c72b0; stroke-width: 2.25; stroke-linecap: round"/>
   </g>
   <g id="patch_3">
    <path d="M 76.5 437.22 
L 76.5 19.44 
" style="fill: none; stroke: #262626; stroke-width: 1.25; stroke-linejoin: miter; stroke-linecap: square"/>
   </g>
   <g id="patch_4">
    <path d="M 76.5 437.22 
L 585.36 437.22 
" style="fill: none; stroke: #262626; stroke-width: 1.25; stroke-linejoin: miter; stroke-linecap: square"/>
   </g>
   <g id="text_14">
    <!-- Human ratings ~ Osgoodspace -->
    <g style="fill: #262626" transform="translate(190.382344 13.44) scale(0.18 -0.18)">
     <defs>
      <path id="DejaVuSans-7e" d="M 4684 2553 
L 4684 1997 
Q 4356 1750 4076 1644 
Q 3797 1538 3494 1538 
Q 3150 1538 2694 1722 
Q 2659 1734 2644 1741 
Q 2622 1750 2575 1766 
Q 2091 1959 1797 1959 
Q 1522 1959 1253 1839 
Q 984 1719 678 1459 
L 678 2016 
Q 1006 2263 1286 2370 
Q 1566 2478 1869 2478 
Q 2213 2478 2672 2291 
Q 2703 2278 2719 2272 
Q 2744 2263 2788 2247 
Q 3272 2053 3566 2053 
Q 3834 2053 4098 2172 
Q 4363 2291 4684 2553 
z
" transform="scale(0.015625)"/>
     </defs>
     <use xlink:href="#DejaVuSans-48"/>
     <use xlink:href="#DejaVuSans-75" x="75.195312"/>
     <use xlink:href="#DejaVuSans-6d" x="138.574219"/>
     <use xlink:href="#DejaVuSans-61" x="235.986328"/>
     <use xlink:href="#DejaVuSans-6e" x="297.265625"/>
     <use xlink:href="#DejaVuSans-20" x="360.644531"/>
     <use xlink:href="#DejaVuSans-72" x="392.431641"/>
     <use xlink:href="#DejaVuSans-61" x="433.544922"/>
     <use xlink:href="#DejaVuSans-74" x="494.824219"/>
     <use xlink:href="#DejaVuSans-69" x="534.033203"/>
     <use xlink:href="#DejaVuSans-6e" x="561.816406"/>
     <use xlink:href="#DejaVuSans-67" x="625.195312"/>
     <use xlink:href="#DejaVuSans-73" x="688.671875"/>
     <use xlink:href="#DejaVuSans-20" x="740.771484"/>
     <use xlink:href="#DejaVuSans-7e" x="772.558594"/>
     <use xlink:href="#DejaVuSans-20" x="856.347656"/>
     <use xlink:href="#DejaVuSans-4f" x="888.134766"/>
     <use xlink:href="#DejaVuSans-73" x="966.845703"/>
     <use xlink:href="#DejaVuSans-67" x="1018.945312"/>
     <use xlink:href="#DejaVuSans-6f" x="1082.421875"/>
     <use xlink:href="#DejaVuSans-6f" x="1143.603516"/>
     <use xlink:href="#DejaVuSans-64" x="1204.785156"/>
     <use xlink:href="#DejaVuSans-73" x="1268.261719"/>
     <use xlink:href="#DejaVuSans-70" x="1320.361328"/>
     <use xlink:href="#DejaVuSans-61" x="1383.837891"/>
     <use xlink:href="#DejaVuSans-63" x="1445.117188"/>
     <use xlink:href="#DejaVuSans-65" x="1500.097656"/>
    </g>
   </g>
  </g>
  <g id="text_15">
   <!-- r =  0.484 -->
   <g style="fill: #262626" transform="translate(247.694625 56.732625) scale(0.216 -0.216)">
    <defs>
     <path id="DejaVuSans-3d" d="M 678 2906 
L 4684 2906 
L 4684 2381 
L 678 2381 
L 678 2906 
z
M 678 1631 
L 4684 1631 
L 4684 1100 
L 678 1100 
L 678 1631 
z
" transform="scale(0.015625)"/>
    </defs>
    <use xlink:href="#DejaVuSans-72"/>
    <use xlink:href="#DejaVuSans-20" x="41.113281"/>
    <use xlink:href="#DejaVuSans-3d" x="72.900391"/>
    <use xlink:href="#DejaVuSans-20" x="156.689453"/>
    <use xlink:href="#DejaVuSans-20" x="188.476562"/>
    <use xlink:href="#DejaVuSans-30" x="220.263672"/>
    <use xlink:href="#DejaVuSans-2e" x="283.886719"/>
    <use xlink:href="#DejaVuSans-34" x="315.673828"/>
    <use xlink:href="#DejaVuSans-38" x="379.296875"/>
    <use xlink:href="#DejaVuSans-34" x="442.919922"/>
   </g>
  </g>
 </g>
 <defs>
  <clipPath id="p2362040a1e">
   <rect x="76.5" y="19.44" width="508.86" height="417.78"/>
  </clipPath>
 </defs>
</svg>
