<?xml version="1.0" encoding="utf-8" standalone="no"?>
<!DOCTYPE svg PUBLIC "-//W3C//DTD SVG 1.1//EN"
  "http://www.w3.org/Graphics/SVG/1.1/DTD/svg11.dtd">
<svg height="504pt" version="1.1" viewBox="0 0 604.8 504" width="604.8pt" xmlns="http://www.w3.org/2000/svg" xmlns:xlink="http://www.w3.org/1999/xlink">
 <metadata>
  <rdf:RDF xmlns:cc="http://creativecommons.org/ns#" xmlns:dc="http://purl.org/dc/elements/1.1/" xmlns:rdf="http://www.w3.org/1999/02/22-rdf-syntax-ns#">
   <cc:Work>
    <dc:type rdf:resource="http://purl.org/dc/dcmitype/StillImage"/>
    <dc:date>2023-07-25T11:05:43.268388</dc:date>
    <dc:format>image/svg+xml</dc:format>
    <dc:creator>
     <cc:Agent>
      <dc:title>Matplotlib v3.4.3, https://matplotlib.org/</dc:title>
     </cc:Agent>
    </dc:creator>
   </cc:Work>
  </rdf:RDF>
 </metadata>
 <defs>
  <style type="text/css">*{stroke-linecap:butt;stroke-linejoin:round;}</style>
 </defs>
 <g id="figure_1">
  <g id="patch_1">
   <path d="M 0 504 
L 604.8 504 
L 604.8 0 
L 0 0 
z
" style="fill:#ffffff;"/>
  </g>
  <g id="axes_1">
   <g id="patch_2">
    <path d="M 60.75 437.22 
L 585.36 437.22 
L 585.36 19.44 
L 60.75 19.44 
z
" style="fill:#ffffff;"/>
   </g>
   <g id="matplotlib.axis_1">
    <g id="xtick_1">
     <g id="text_1">
      <!-- 0 -->
      <g style="fill:#262626;" transform="translate(65.959625 459.257422)scale(0.165 -0.165)">
       <defs>
        <path d="M 2034 4250 
Q 1547 4250 1301 3770 
Q 1056 3291 1056 2328 
Q 1056 1369 1301 889 
Q 1547 409 2034 409 
Q 2525 409 2770 889 
Q 3016 1369 3016 2328 
Q 3016 3291 2770 3770 
Q 2525 4250 2034 4250 
z
M 2034 4750 
Q 2819 4750 3233 4129 
Q 3647 3509 3647 2328 
Q 3647 1150 3233 529 
Q 2819 -91 2034 -91 
Q 1250 -91 836 529 
Q 422 1150 422 2328 
Q 422 3509 836 4129 
Q 1250 4750 2034 4750 
z
" id="DejaVuSans-30" transform="scale(0.015625)"/>
       </defs>
       <use xlink:href="#DejaVuSans-30"/>
      </g>
     </g>
    </g>
    <g id="xtick_2">
     <g id="text_2">
      <!-- 2 -->
      <g style="fill:#262626;" transform="translate(172.941449 459.257422)scale(0.165 -0.165)">
       <defs>
        <path d="M 1228 531 
L 3431 531 
L 3431 0 
L 469 0 
L 469 531 
Q 828 903 1448 1529 
Q 2069 2156 2228 2338 
Q 2531 2678 2651 2914 
Q 2772 3150 2772 3378 
Q 2772 3750 2511 3984 
Q 2250 4219 1831 4219 
Q 1534 4219 1204 4116 
Q 875 4013 500 3803 
L 500 4441 
Q 881 4594 1212 4672 
Q 1544 4750 1819 4750 
Q 2544 4750 2975 4387 
Q 3406 4025 3406 3419 
Q 3406 3131 3298 2873 
Q 3191 2616 2906 2266 
Q 2828 2175 2409 1742 
Q 1991 1309 1228 531 
z
" id="DejaVuSans-32" transform="scale(0.015625)"/>
       </defs>
       <use xlink:href="#DejaVuSans-32"/>
      </g>
     </g>
    </g>
    <g id="xtick_3">
     <g id="text_3">
      <!-- 4 -->
      <g style="fill:#262626;" transform="translate(279.923273 459.257422)scale(0.165 -0.165)">
       <defs>
        <path d="M 2419 4116 
L 825 1625 
L 2419 1625 
L 2419 4116 
z
M 2253 4666 
L 3047 4666 
L 3047 1625 
L 3713 1625 
L 3713 1100 
L 3047 1100 
L 3047 0 
L 2419 0 
L 2419 1100 
L 313 1100 
L 313 1709 
L 2253 4666 
z
" id="DejaVuSans-34" transform="scale(0.015625)"/>
       </defs>
       <use xlink:href="#DejaVuSans-34"/>
      </g>
     </g>
    </g>
    <g id="xtick_4">
     <g id="text_4">
      <!-- 6 -->
      <g style="fill:#262626;" transform="translate(386.905097 459.257422)scale(0.165 -0.165)">
       <defs>
        <path d="M 2113 2584 
Q 1688 2584 1439 2293 
Q 1191 2003 1191 1497 
Q 1191 994 1439 701 
Q 1688 409 2113 409 
Q 2538 409 2786 701 
Q 3034 994 3034 1497 
Q 3034 2003 2786 2293 
Q 2538 2584 2113 2584 
z
M 3366 4563 
L 3366 3988 
Q 3128 4100 2886 4159 
Q 2644 4219 2406 4219 
Q 1781 4219 1451 3797 
Q 1122 3375 1075 2522 
Q 1259 2794 1537 2939 
Q 1816 3084 2150 3084 
Q 2853 3084 3261 2657 
Q 3669 2231 3669 1497 
Q 3669 778 3244 343 
Q 2819 -91 2113 -91 
Q 1303 -91 875 529 
Q 447 1150 447 2328 
Q 447 3434 972 4092 
Q 1497 4750 2381 4750 
Q 2619 4750 2861 4703 
Q 3103 4656 3366 4563 
z
" id="DejaVuSans-36" transform="scale(0.015625)"/>
       </defs>
       <use xlink:href="#DejaVuSans-36"/>
      </g>
     </g>
    </g>
    <g id="xtick_5">
     <g id="text_5">
      <!-- 8 -->
      <g style="fill:#262626;" transform="translate(493.886922 459.257422)scale(0.165 -0.165)">
       <defs>
        <path d="M 2034 2216 
Q 1584 2216 1326 1975 
Q 1069 1734 1069 1313 
Q 1069 891 1326 650 
Q 1584 409 2034 409 
Q 2484 409 2743 651 
Q 3003 894 3003 1313 
Q 3003 1734 2745 1975 
Q 2488 2216 2034 2216 
z
M 1403 2484 
Q 997 2584 770 2862 
Q 544 3141 544 3541 
Q 544 4100 942 4425 
Q 1341 4750 2034 4750 
Q 2731 4750 3128 4425 
Q 3525 4100 3525 3541 
Q 3525 3141 3298 2862 
Q 3072 2584 2669 2484 
Q 3125 2378 3379 2068 
Q 3634 1759 3634 1313 
Q 3634 634 3220 271 
Q 2806 -91 2034 -91 
Q 1263 -91 848 271 
Q 434 634 434 1313 
Q 434 1759 690 2068 
Q 947 2378 1403 2484 
z
M 1172 3481 
Q 1172 3119 1398 2916 
Q 1625 2713 2034 2713 
Q 2441 2713 2670 2916 
Q 2900 3119 2900 3481 
Q 2900 3844 2670 4047 
Q 2441 4250 2034 4250 
Q 1625 4250 1398 4047 
Q 1172 3844 1172 3481 
z
" id="DejaVuSans-38" transform="scale(0.015625)"/>
       </defs>
       <use xlink:href="#DejaVuSans-38"/>
      </g>
     </g>
    </g>
    <g id="text_6">
     <!-- Human ratings (euclidean distance) -->
     <g style="fill:#262626;" transform="translate(161.846719 480.366094)scale(0.18 -0.18)">
      <defs>
       <path d="M 628 4666 
L 1259 4666 
L 1259 2753 
L 3553 2753 
L 3553 4666 
L 4184 4666 
L 4184 0 
L 3553 0 
L 3553 2222 
L 1259 2222 
L 1259 0 
L 628 0 
L 628 4666 
z
" id="DejaVuSans-48" transform="scale(0.015625)"/>
       <path d="M 544 1381 
L 544 3500 
L 1119 3500 
L 1119 1403 
Q 1119 906 1312 657 
Q 1506 409 1894 409 
Q 2359 409 2629 706 
Q 2900 1003 2900 1516 
L 2900 3500 
L 3475 3500 
L 3475 0 
L 2900 0 
L 2900 538 
Q 2691 219 2414 64 
Q 2138 -91 1772 -91 
Q 1169 -91 856 284 
Q 544 659 544 1381 
z
M 1991 3584 
L 1991 3584 
z
" id="DejaVuSans-75" transform="scale(0.015625)"/>
       <path d="M 3328 2828 
Q 3544 3216 3844 3400 
Q 4144 3584 4550 3584 
Q 5097 3584 5394 3201 
Q 5691 2819 5691 2113 
L 5691 0 
L 5113 0 
L 5113 2094 
Q 5113 2597 4934 2840 
Q 4756 3084 4391 3084 
Q 3944 3084 3684 2787 
Q 3425 2491 3425 1978 
L 3425 0 
L 2847 0 
L 2847 2094 
Q 2847 2600 2669 2842 
Q 2491 3084 2119 3084 
Q 1678 3084 1418 2786 
Q 1159 2488 1159 1978 
L 1159 0 
L 581 0 
L 581 3500 
L 1159 3500 
L 1159 2956 
Q 1356 3278 1631 3431 
Q 1906 3584 2284 3584 
Q 2666 3584 2933 3390 
Q 3200 3197 3328 2828 
z
" id="DejaVuSans-6d" transform="scale(0.015625)"/>
       <path d="M 2194 1759 
Q 1497 1759 1228 1600 
Q 959 1441 959 1056 
Q 959 750 1161 570 
Q 1363 391 1709 391 
Q 2188 391 2477 730 
Q 2766 1069 2766 1631 
L 2766 1759 
L 2194 1759 
z
M 3341 1997 
L 3341 0 
L 2766 0 
L 2766 531 
Q 2569 213 2275 61 
Q 1981 -91 1556 -91 
Q 1019 -91 701 211 
Q 384 513 384 1019 
Q 384 1609 779 1909 
Q 1175 2209 1959 2209 
L 2766 2209 
L 2766 2266 
Q 2766 2663 2505 2880 
Q 2244 3097 1772 3097 
Q 1472 3097 1187 3025 
Q 903 2953 641 2809 
L 641 3341 
Q 956 3463 1253 3523 
Q 1550 3584 1831 3584 
Q 2591 3584 2966 3190 
Q 3341 2797 3341 1997 
z
" id="DejaVuSans-61" transform="scale(0.015625)"/>
       <path d="M 3513 2113 
L 3513 0 
L 2938 0 
L 2938 2094 
Q 2938 2591 2744 2837 
Q 2550 3084 2163 3084 
Q 1697 3084 1428 2787 
Q 1159 2491 1159 1978 
L 1159 0 
L 581 0 
L 581 3500 
L 1159 3500 
L 1159 2956 
Q 1366 3272 1645 3428 
Q 1925 3584 2291 3584 
Q 2894 3584 3203 3211 
Q 3513 2838 3513 2113 
z
" id="DejaVuSans-6e" transform="scale(0.015625)"/>
       <path id="DejaVuSans-20" transform="scale(0.015625)"/>
       <path d="M 2631 2963 
Q 2534 3019 2420 3045 
Q 2306 3072 2169 3072 
Q 1681 3072 1420 2755 
Q 1159 2438 1159 1844 
L 1159 0 
L 581 0 
L 581 3500 
L 1159 3500 
L 1159 2956 
Q 1341 3275 1631 3429 
Q 1922 3584 2338 3584 
Q 2397 3584 2469 3576 
Q 2541 3569 2628 3553 
L 2631 2963 
z
" id="DejaVuSans-72" transform="scale(0.015625)"/>
       <path d="M 1172 4494 
L 1172 3500 
L 2356 3500 
L 2356 3053 
L 1172 3053 
L 1172 1153 
Q 1172 725 1289 603 
Q 1406 481 1766 481 
L 2356 481 
L 2356 0 
L 1766 0 
Q 1100 0 847 248 
Q 594 497 594 1153 
L 594 3053 
L 172 3053 
L 172 3500 
L 594 3500 
L 594 4494 
L 1172 4494 
z
" id="DejaVuSans-74" transform="scale(0.015625)"/>
       <path d="M 603 3500 
L 1178 3500 
L 1178 0 
L 603 0 
L 603 3500 
z
M 603 4863 
L 1178 4863 
L 1178 4134 
L 603 4134 
L 603 4863 
z
" id="DejaVuSans-69" transform="scale(0.015625)"/>
       <path d="M 2906 1791 
Q 2906 2416 2648 2759 
Q 2391 3103 1925 3103 
Q 1463 3103 1205 2759 
Q 947 2416 947 1791 
Q 947 1169 1205 825 
Q 1463 481 1925 481 
Q 2391 481 2648 825 
Q 2906 1169 2906 1791 
z
M 3481 434 
Q 3481 -459 3084 -895 
Q 2688 -1331 1869 -1331 
Q 1566 -1331 1297 -1286 
Q 1028 -1241 775 -1147 
L 775 -588 
Q 1028 -725 1275 -790 
Q 1522 -856 1778 -856 
Q 2344 -856 2625 -561 
Q 2906 -266 2906 331 
L 2906 616 
Q 2728 306 2450 153 
Q 2172 0 1784 0 
Q 1141 0 747 490 
Q 353 981 353 1791 
Q 353 2603 747 3093 
Q 1141 3584 1784 3584 
Q 2172 3584 2450 3431 
Q 2728 3278 2906 2969 
L 2906 3500 
L 3481 3500 
L 3481 434 
z
" id="DejaVuSans-67" transform="scale(0.015625)"/>
       <path d="M 2834 3397 
L 2834 2853 
Q 2591 2978 2328 3040 
Q 2066 3103 1784 3103 
Q 1356 3103 1142 2972 
Q 928 2841 928 2578 
Q 928 2378 1081 2264 
Q 1234 2150 1697 2047 
L 1894 2003 
Q 2506 1872 2764 1633 
Q 3022 1394 3022 966 
Q 3022 478 2636 193 
Q 2250 -91 1575 -91 
Q 1294 -91 989 -36 
Q 684 19 347 128 
L 347 722 
Q 666 556 975 473 
Q 1284 391 1588 391 
Q 1994 391 2212 530 
Q 2431 669 2431 922 
Q 2431 1156 2273 1281 
Q 2116 1406 1581 1522 
L 1381 1569 
Q 847 1681 609 1914 
Q 372 2147 372 2553 
Q 372 3047 722 3315 
Q 1072 3584 1716 3584 
Q 2034 3584 2315 3537 
Q 2597 3491 2834 3397 
z
" id="DejaVuSans-73" transform="scale(0.015625)"/>
       <path d="M 1984 4856 
Q 1566 4138 1362 3434 
Q 1159 2731 1159 2009 
Q 1159 1288 1364 580 
Q 1569 -128 1984 -844 
L 1484 -844 
Q 1016 -109 783 600 
Q 550 1309 550 2009 
Q 550 2706 781 3412 
Q 1013 4119 1484 4856 
L 1984 4856 
z
" id="DejaVuSans-28" transform="scale(0.015625)"/>
       <path d="M 3597 1894 
L 3597 1613 
L 953 1613 
Q 991 1019 1311 708 
Q 1631 397 2203 397 
Q 2534 397 2845 478 
Q 3156 559 3463 722 
L 3463 178 
Q 3153 47 2828 -22 
Q 2503 -91 2169 -91 
Q 1331 -91 842 396 
Q 353 884 353 1716 
Q 353 2575 817 3079 
Q 1281 3584 2069 3584 
Q 2775 3584 3186 3129 
Q 3597 2675 3597 1894 
z
M 3022 2063 
Q 3016 2534 2758 2815 
Q 2500 3097 2075 3097 
Q 1594 3097 1305 2825 
Q 1016 2553 972 2059 
L 3022 2063 
z
" id="DejaVuSans-65" transform="scale(0.015625)"/>
       <path d="M 3122 3366 
L 3122 2828 
Q 2878 2963 2633 3030 
Q 2388 3097 2138 3097 
Q 1578 3097 1268 2742 
Q 959 2388 959 1747 
Q 959 1106 1268 751 
Q 1578 397 2138 397 
Q 2388 397 2633 464 
Q 2878 531 3122 666 
L 3122 134 
Q 2881 22 2623 -34 
Q 2366 -91 2075 -91 
Q 1284 -91 818 406 
Q 353 903 353 1747 
Q 353 2603 823 3093 
Q 1294 3584 2113 3584 
Q 2378 3584 2631 3529 
Q 2884 3475 3122 3366 
z
" id="DejaVuSans-63" transform="scale(0.015625)"/>
       <path d="M 603 4863 
L 1178 4863 
L 1178 0 
L 603 0 
L 603 4863 
z
" id="DejaVuSans-6c" transform="scale(0.015625)"/>
       <path d="M 2906 2969 
L 2906 4863 
L 3481 4863 
L 3481 0 
L 2906 0 
L 2906 525 
Q 2725 213 2448 61 
Q 2172 -91 1784 -91 
Q 1150 -91 751 415 
Q 353 922 353 1747 
Q 353 2572 751 3078 
Q 1150 3584 1784 3584 
Q 2172 3584 2448 3432 
Q 2725 3281 2906 2969 
z
M 947 1747 
Q 947 1113 1208 752 
Q 1469 391 1925 391 
Q 2381 391 2643 752 
Q 2906 1113 2906 1747 
Q 2906 2381 2643 2742 
Q 2381 3103 1925 3103 
Q 1469 3103 1208 2742 
Q 947 2381 947 1747 
z
" id="DejaVuSans-64" transform="scale(0.015625)"/>
       <path d="M 513 4856 
L 1013 4856 
Q 1481 4119 1714 3412 
Q 1947 2706 1947 2009 
Q 1947 1309 1714 600 
Q 1481 -109 1013 -844 
L 513 -844 
Q 928 -128 1133 580 
Q 1338 1288 1338 2009 
Q 1338 2731 1133 3434 
Q 928 4138 513 4856 
z
" id="DejaVuSans-29" transform="scale(0.015625)"/>
      </defs>
      <use xlink:href="#DejaVuSans-48"/>
      <use x="75.195312" xlink:href="#DejaVuSans-75"/>
      <use x="138.574219" xlink:href="#DejaVuSans-6d"/>
      <use x="235.986328" xlink:href="#DejaVuSans-61"/>
      <use x="297.265625" xlink:href="#DejaVuSans-6e"/>
      <use x="360.644531" xlink:href="#DejaVuSans-20"/>
      <use x="392.431641" xlink:href="#DejaVuSans-72"/>
      <use x="433.544922" xlink:href="#DejaVuSans-61"/>
      <use x="494.824219" xlink:href="#DejaVuSans-74"/>
      <use x="534.033203" xlink:href="#DejaVuSans-69"/>
      <use x="561.816406" xlink:href="#DejaVuSans-6e"/>
      <use x="625.195312" xlink:href="#DejaVuSans-67"/>
      <use x="688.671875" xlink:href="#DejaVuSans-73"/>
      <use x="740.771484" xlink:href="#DejaVuSans-20"/>
      <use x="772.558594" xlink:href="#DejaVuSans-28"/>
      <use x="811.572266" xlink:href="#DejaVuSans-65"/>
      <use x="873.095703" xlink:href="#DejaVuSans-75"/>
      <use x="936.474609" xlink:href="#DejaVuSans-63"/>
      <use x="991.455078" xlink:href="#DejaVuSans-6c"/>
      <use x="1019.238281" xlink:href="#DejaVuSans-69"/>
      <use x="1047.021484" xlink:href="#DejaVuSans-64"/>
      <use x="1110.498047" xlink:href="#DejaVuSans-65"/>
      <use x="1172.021484" xlink:href="#DejaVuSans-61"/>
      <use x="1233.300781" xlink:href="#DejaVuSans-6e"/>
      <use x="1296.679688" xlink:href="#DejaVuSans-20"/>
      <use x="1328.466797" xlink:href="#DejaVuSans-64"/>
      <use x="1391.943359" xlink:href="#DejaVuSans-69"/>
      <use x="1419.726562" xlink:href="#DejaVuSans-73"/>
      <use x="1471.826172" xlink:href="#DejaVuSans-74"/>
      <use x="1511.035156" xlink:href="#DejaVuSans-61"/>
      <use x="1572.314453" xlink:href="#DejaVuSans-6e"/>
      <use x="1635.693359" xlink:href="#DejaVuSans-63"/>
      <use x="1690.673828" xlink:href="#DejaVuSans-65"/>
      <use x="1752.197266" xlink:href="#DejaVuSans-29"/>
     </g>
    </g>
   </g>
   <g id="matplotlib.axis_2">
    <g id="ytick_1">
     <g id="text_7">
      <!-- 0 -->
      <g style="fill:#262626;" transform="translate(40.751875 432.215697)scale(0.165 -0.165)">
       <use xlink:href="#DejaVuSans-30"/>
      </g>
     </g>
    </g>
    <g id="ytick_2">
     <g id="text_8">
      <!-- 1 -->
      <g style="fill:#262626;" transform="translate(40.751875 344.307266)scale(0.165 -0.165)">
       <defs>
        <path d="M 794 531 
L 1825 531 
L 1825 4091 
L 703 3866 
L 703 4441 
L 1819 4666 
L 2450 4666 
L 2450 531 
L 3481 531 
L 3481 0 
L 794 0 
L 794 531 
z
" id="DejaVuSans-31" transform="scale(0.015625)"/>
       </defs>
       <use xlink:href="#DejaVuSans-31"/>
      </g>
     </g>
    </g>
    <g id="ytick_3">
     <g id="text_9">
      <!-- 2 -->
      <g style="fill:#262626;" transform="translate(40.751875 256.398834)scale(0.165 -0.165)">
       <use xlink:href="#DejaVuSans-32"/>
      </g>
     </g>
    </g>
    <g id="ytick_4">
     <g id="text_10">
      <!-- 3 -->
      <g style="fill:#262626;" transform="translate(40.751875 168.490403)scale(0.165 -0.165)">
       <defs>
        <path d="M 2597 2516 
Q 3050 2419 3304 2112 
Q 3559 1806 3559 1356 
Q 3559 666 3084 287 
Q 2609 -91 1734 -91 
Q 1441 -91 1130 -33 
Q 819 25 488 141 
L 488 750 
Q 750 597 1062 519 
Q 1375 441 1716 441 
Q 2309 441 2620 675 
Q 2931 909 2931 1356 
Q 2931 1769 2642 2001 
Q 2353 2234 1838 2234 
L 1294 2234 
L 1294 2753 
L 1863 2753 
Q 2328 2753 2575 2939 
Q 2822 3125 2822 3475 
Q 2822 3834 2567 4026 
Q 2313 4219 1838 4219 
Q 1578 4219 1281 4162 
Q 984 4106 628 3988 
L 628 4550 
Q 988 4650 1302 4700 
Q 1616 4750 1894 4750 
Q 2613 4750 3031 4423 
Q 3450 4097 3450 3541 
Q 3450 3153 3228 2886 
Q 3006 2619 2597 2516 
z
" id="DejaVuSans-33" transform="scale(0.015625)"/>
       </defs>
       <use xlink:href="#DejaVuSans-33"/>
      </g>
     </g>
    </g>
    <g id="ytick_5">
     <g id="text_11">
      <!-- 4 -->
      <g style="fill:#262626;" transform="translate(40.751875 80.581971)scale(0.165 -0.165)">
       <use xlink:href="#DejaVuSans-34"/>
      </g>
     </g>
    </g>
    <g id="text_12">
     <!-- Fasttext 2D space (euclidean distance) -->
     <g style="fill:#262626;" transform="translate(33.008437 403.502344)rotate(-90)scale(0.18 -0.18)">
      <defs>
       <path d="M 628 4666 
L 3309 4666 
L 3309 4134 
L 1259 4134 
L 1259 2759 
L 3109 2759 
L 3109 2228 
L 1259 2228 
L 1259 0 
L 628 0 
L 628 4666 
z
" id="DejaVuSans-46" transform="scale(0.015625)"/>
       <path d="M 3513 3500 
L 2247 1797 
L 3578 0 
L 2900 0 
L 1881 1375 
L 863 0 
L 184 0 
L 1544 1831 
L 300 3500 
L 978 3500 
L 1906 2253 
L 2834 3500 
L 3513 3500 
z
" id="DejaVuSans-78" transform="scale(0.015625)"/>
       <path d="M 1259 4147 
L 1259 519 
L 2022 519 
Q 2988 519 3436 956 
Q 3884 1394 3884 2338 
Q 3884 3275 3436 3711 
Q 2988 4147 2022 4147 
L 1259 4147 
z
M 628 4666 
L 1925 4666 
Q 3281 4666 3915 4102 
Q 4550 3538 4550 2338 
Q 4550 1131 3912 565 
Q 3275 0 1925 0 
L 628 0 
L 628 4666 
z
" id="DejaVuSans-44" transform="scale(0.015625)"/>
       <path d="M 1159 525 
L 1159 -1331 
L 581 -1331 
L 581 3500 
L 1159 3500 
L 1159 2969 
Q 1341 3281 1617 3432 
Q 1894 3584 2278 3584 
Q 2916 3584 3314 3078 
Q 3713 2572 3713 1747 
Q 3713 922 3314 415 
Q 2916 -91 2278 -91 
Q 1894 -91 1617 61 
Q 1341 213 1159 525 
z
M 3116 1747 
Q 3116 2381 2855 2742 
Q 2594 3103 2138 3103 
Q 1681 3103 1420 2742 
Q 1159 2381 1159 1747 
Q 1159 1113 1420 752 
Q 1681 391 2138 391 
Q 2594 391 2855 752 
Q 3116 1113 3116 1747 
z
" id="DejaVuSans-70" transform="scale(0.015625)"/>
      </defs>
      <use xlink:href="#DejaVuSans-46"/>
      <use x="48.394531" xlink:href="#DejaVuSans-61"/>
      <use x="109.673828" xlink:href="#DejaVuSans-73"/>
      <use x="161.773438" xlink:href="#DejaVuSans-74"/>
      <use x="200.982422" xlink:href="#DejaVuSans-74"/>
      <use x="240.191406" xlink:href="#DejaVuSans-65"/>
      <use x="299.964844" xlink:href="#DejaVuSans-78"/>
      <use x="359.144531" xlink:href="#DejaVuSans-74"/>
      <use x="398.353516" xlink:href="#DejaVuSans-20"/>
      <use x="430.140625" xlink:href="#DejaVuSans-32"/>
      <use x="493.763672" xlink:href="#DejaVuSans-44"/>
      <use x="570.765625" xlink:href="#DejaVuSans-20"/>
      <use x="602.552734" xlink:href="#DejaVuSans-73"/>
      <use x="654.652344" xlink:href="#DejaVuSans-70"/>
      <use x="718.128906" xlink:href="#DejaVuSans-61"/>
      <use x="779.408203" xlink:href="#DejaVuSans-63"/>
      <use x="834.388672" xlink:href="#DejaVuSans-65"/>
      <use x="895.912109" xlink:href="#DejaVuSans-20"/>
      <use x="927.699219" xlink:href="#DejaVuSans-28"/>
      <use x="966.712891" xlink:href="#DejaVuSans-65"/>
      <use x="1028.236328" xlink:href="#DejaVuSans-75"/>
      <use x="1091.615234" xlink:href="#DejaVuSans-63"/>
      <use x="1146.595703" xlink:href="#DejaVuSans-6c"/>
      <use x="1174.378906" xlink:href="#DejaVuSans-69"/>
      <use x="1202.162109" xlink:href="#DejaVuSans-64"/>
      <use x="1265.638672" xlink:href="#DejaVuSans-65"/>
      <use x="1327.162109" xlink:href="#DejaVuSans-61"/>
      <use x="1388.441406" xlink:href="#DejaVuSans-6e"/>
      <use x="1451.820312" xlink:href="#DejaVuSans-20"/>
      <use x="1483.607422" xlink:href="#DejaVuSans-64"/>
      <use x="1547.083984" xlink:href="#DejaVuSans-69"/>
      <use x="1574.867188" xlink:href="#DejaVuSans-73"/>
      <use x="1626.966797" xlink:href="#DejaVuSans-74"/>
      <use x="1666.175781" xlink:href="#DejaVuSans-61"/>
      <use x="1727.455078" xlink:href="#DejaVuSans-6e"/>
      <use x="1790.833984" xlink:href="#DejaVuSans-63"/>
      <use x="1845.814453" xlink:href="#DejaVuSans-65"/>
      <use x="1907.337891" xlink:href="#DejaVuSans-29"/>
     </g>
    </g>
   </g>
   <g id="PathCollection_1">
    <defs>
     <path d="M 0 3.872983 
C 1.027127 3.872983 2.012324 3.464901 2.738613 2.738613 
C 3.464901 2.012324 3.872983 1.027127 3.872983 0 
C 3.872983 -1.027127 3.464901 -2.012324 2.738613 -2.738613 
C 2.012324 -3.464901 1.027127 -3.872983 0 -3.872983 
C -1.027127 -3.872983 -2.012324 -3.464901 -2.738613 -2.738613 
C -3.464901 -2.012324 -3.872983 -1.027127 -3.872983 0 
C -3.872983 1.027127 -3.464901 2.012324 -2.738613 2.738613 
C -2.012324 3.464901 -1.027127 3.872983 0 3.872983 
z
" id="m9c63a31745" style="stroke:#000000;stroke-opacity:0.8;stroke-width:0.7;"/>
    </defs>
    <g clip-path="url(#p85cbb60275)">
     <use style="fill:#4c72b0;fill-opacity:0.8;stroke:#000000;stroke-opacity:0.8;stroke-width:0.7;" x="206.274289" xlink:href="#m9c63a31745" y="288.045812"/>
     <use style="fill:#4c72b0;fill-opacity:0.8;stroke:#000000;stroke-opacity:0.8;stroke-width:0.7;" x="280.255271" xlink:href="#m9c63a31745" y="173.267679"/>
     <use style="fill:#4c72b0;fill-opacity:0.8;stroke:#000000;stroke-opacity:0.8;stroke-width:0.7;" x="161.388199" xlink:href="#m9c63a31745" y="91.498692"/>
     <use style="fill:#4c72b0;fill-opacity:0.8;stroke:#000000;stroke-opacity:0.8;stroke-width:0.7;" x="232.332776" xlink:href="#m9c63a31745" y="388.527216"/>
     <use style="fill:#4c72b0;fill-opacity:0.8;stroke:#000000;stroke-opacity:0.8;stroke-width:0.7;" x="98.136391" xlink:href="#m9c63a31745" y="260.216801"/>
     <use style="fill:#4c72b0;fill-opacity:0.8;stroke:#000000;stroke-opacity:0.8;stroke-width:0.7;" x="139.010949" xlink:href="#m9c63a31745" y="156.813455"/>
     <use style="fill:#4c72b0;fill-opacity:0.8;stroke:#000000;stroke-opacity:0.8;stroke-width:0.7;" x="250.229747" xlink:href="#m9c63a31745" y="262.879514"/>
     <use style="fill:#4c72b0;fill-opacity:0.8;stroke:#000000;stroke-opacity:0.8;stroke-width:0.7;" x="121.974718" xlink:href="#m9c63a31745" y="341.345275"/>
     <use style="fill:#4c72b0;fill-opacity:0.8;stroke:#000000;stroke-opacity:0.8;stroke-width:0.7;" x="112.226694" xlink:href="#m9c63a31745" y="141.561593"/>
     <use style="fill:#4c72b0;fill-opacity:0.8;stroke:#000000;stroke-opacity:0.8;stroke-width:0.7;" x="98.00746" xlink:href="#m9c63a31745" y="226.594052"/>
     <use style="fill:#4c72b0;fill-opacity:0.8;stroke:#000000;stroke-opacity:0.8;stroke-width:0.7;" x="330.448654" xlink:href="#m9c63a31745" y="246.494489"/>
     <use style="fill:#4c72b0;fill-opacity:0.8;stroke:#000000;stroke-opacity:0.8;stroke-width:0.7;" x="260.153696" xlink:href="#m9c63a31745" y="117.439279"/>
     <use style="fill:#4c72b0;fill-opacity:0.8;stroke:#000000;stroke-opacity:0.8;stroke-width:0.7;" x="191.215931" xlink:href="#m9c63a31745" y="109.02046"/>
     <use style="fill:#4c72b0;fill-opacity:0.8;stroke:#000000;stroke-opacity:0.8;stroke-width:0.7;" x="247.785029" xlink:href="#m9c63a31745" y="281.212428"/>
     <use style="fill:#4c72b0;fill-opacity:0.8;stroke:#000000;stroke-opacity:0.8;stroke-width:0.7;" x="224.704745" xlink:href="#m9c63a31745" y="83.623659"/>
     <use style="fill:#4c72b0;fill-opacity:0.8;stroke:#000000;stroke-opacity:0.8;stroke-width:0.7;" x="468.877587" xlink:href="#m9c63a31745" y="375.610059"/>
     <use style="fill:#4c72b0;fill-opacity:0.8;stroke:#000000;stroke-opacity:0.8;stroke-width:0.7;" x="484.264039" xlink:href="#m9c63a31745" y="238.225555"/>
     <use style="fill:#4c72b0;fill-opacity:0.8;stroke:#000000;stroke-opacity:0.8;stroke-width:0.7;" x="449.344148" xlink:href="#m9c63a31745" y="197.714906"/>
     <use style="fill:#4c72b0;fill-opacity:0.8;stroke:#000000;stroke-opacity:0.8;stroke-width:0.7;" x="485.143583" xlink:href="#m9c63a31745" y="382.871823"/>
     <use style="fill:#4c72b0;fill-opacity:0.8;stroke:#000000;stroke-opacity:0.8;stroke-width:0.7;" x="470.582835" xlink:href="#m9c63a31745" y="222.123372"/>
     <use style="fill:#4c72b0;fill-opacity:0.8;stroke:#000000;stroke-opacity:0.8;stroke-width:0.7;" x="340.609201" xlink:href="#m9c63a31745" y="283.468031"/>
     <use style="fill:#4c72b0;fill-opacity:0.8;stroke:#000000;stroke-opacity:0.8;stroke-width:0.7;" x="490.579319" xlink:href="#m9c63a31745" y="377.796051"/>
     <use style="fill:#4c72b0;fill-opacity:0.8;stroke:#000000;stroke-opacity:0.8;stroke-width:0.7;" x="514.478809" xlink:href="#m9c63a31745" y="333.962322"/>
     <use style="fill:#4c72b0;fill-opacity:0.8;stroke:#000000;stroke-opacity:0.8;stroke-width:0.7;" x="483.415011" xlink:href="#m9c63a31745" y="140.624218"/>
     <use style="fill:#4c72b0;fill-opacity:0.8;stroke:#000000;stroke-opacity:0.8;stroke-width:0.7;" x="516.683349" xlink:href="#m9c63a31745" y="352.061266"/>
     <use style="fill:#4c72b0;fill-opacity:0.8;stroke:#000000;stroke-opacity:0.8;stroke-width:0.7;" x="503.165039" xlink:href="#m9c63a31745" y="292.180905"/>
     <use style="fill:#4c72b0;fill-opacity:0.8;stroke:#000000;stroke-opacity:0.8;stroke-width:0.7;" x="376.683994" xlink:href="#m9c63a31745" y="208.11244"/>
     <use style="fill:#4c72b0;fill-opacity:0.8;stroke:#000000;stroke-opacity:0.8;stroke-width:0.7;" x="108.634497" xlink:href="#m9c63a31745" y="327.538756"/>
     <use style="fill:#4c72b0;fill-opacity:0.8;stroke:#000000;stroke-opacity:0.8;stroke-width:0.7;" x="504.842468" xlink:href="#m9c63a31745" y="366.706405"/>
     <use style="fill:#4c72b0;fill-opacity:0.8;stroke:#000000;stroke-opacity:0.8;stroke-width:0.7;" x="547.480959" xlink:href="#m9c63a31745" y="341.311223"/>
     <use style="fill:#4c72b0;fill-opacity:0.8;stroke:#000000;stroke-opacity:0.8;stroke-width:0.7;" x="527.198793" xlink:href="#m9c63a31745" y="128.73635"/>
     <use style="fill:#4c72b0;fill-opacity:0.8;stroke:#000000;stroke-opacity:0.8;stroke-width:0.7;" x="553.044895" xlink:href="#m9c63a31745" y="344.368904"/>
     <use style="fill:#4c72b0;fill-opacity:0.8;stroke:#000000;stroke-opacity:0.8;stroke-width:0.7;" x="542.466278" xlink:href="#m9c63a31745" y="291.855152"/>
     <use style="fill:#4c72b0;fill-opacity:0.8;stroke:#000000;stroke-opacity:0.8;stroke-width:0.7;" x="428.262357" xlink:href="#m9c63a31745" y="202.022426"/>
     <use style="fill:#4c72b0;fill-opacity:0.8;stroke:#000000;stroke-opacity:0.8;stroke-width:0.7;" x="173.111308" xlink:href="#m9c63a31745" y="316.80936"/>
     <use style="fill:#4c72b0;fill-opacity:0.8;stroke:#000000;stroke-opacity:0.8;stroke-width:0.7;" x="138.941417" xlink:href="#m9c63a31745" y="413.652817"/>
     <use style="fill:#4c72b0;fill-opacity:0.8;stroke:#000000;stroke-opacity:0.8;stroke-width:0.7;" x="465.391744" xlink:href="#m9c63a31745" y="295.299985"/>
     <use style="fill:#4c72b0;fill-opacity:0.8;stroke:#000000;stroke-opacity:0.8;stroke-width:0.7;" x="515.688607" xlink:href="#m9c63a31745" y="183.903583"/>
     <use style="fill:#4c72b0;fill-opacity:0.8;stroke:#000000;stroke-opacity:0.8;stroke-width:0.7;" x="502.126112" xlink:href="#m9c63a31745" y="296.067036"/>
     <use style="fill:#4c72b0;fill-opacity:0.8;stroke:#000000;stroke-opacity:0.8;stroke-width:0.7;" x="523.067743" xlink:href="#m9c63a31745" y="284.963255"/>
     <use style="fill:#4c72b0;fill-opacity:0.8;stroke:#000000;stroke-opacity:0.8;stroke-width:0.7;" x="514.320554" xlink:href="#m9c63a31745" y="204.267135"/>
     <use style="fill:#4c72b0;fill-opacity:0.8;stroke:#000000;stroke-opacity:0.8;stroke-width:0.7;" x="410.425661" xlink:href="#m9c63a31745" y="225.697487"/>
     <use style="fill:#4c72b0;fill-opacity:0.8;stroke:#000000;stroke-opacity:0.8;stroke-width:0.7;" x="181.95075" xlink:href="#m9c63a31745" y="326.992663"/>
     <use style="fill:#4c72b0;fill-opacity:0.8;stroke:#000000;stroke-opacity:0.8;stroke-width:0.7;" x="158.452294" xlink:href="#m9c63a31745" y="254.439794"/>
     <use style="fill:#4c72b0;fill-opacity:0.8;stroke:#000000;stroke-opacity:0.8;stroke-width:0.7;" x="115.818877" xlink:href="#m9c63a31745" y="242.148048"/>
     <use style="fill:#4c72b0;fill-opacity:0.8;stroke:#000000;stroke-opacity:0.8;stroke-width:0.7;" x="491.150025" xlink:href="#m9c63a31745" y="333.57448"/>
     <use style="fill:#4c72b0;fill-opacity:0.8;stroke:#000000;stroke-opacity:0.8;stroke-width:0.7;" x="552.346706" xlink:href="#m9c63a31745" y="355.430231"/>
     <use style="fill:#4c72b0;fill-opacity:0.8;stroke:#000000;stroke-opacity:0.8;stroke-width:0.7;" x="544.628362" xlink:href="#m9c63a31745" y="95.404797"/>
     <use style="fill:#4c72b0;fill-opacity:0.8;stroke:#000000;stroke-opacity:0.8;stroke-width:0.7;" x="561.514091" xlink:href="#m9c63a31745" y="317.420044"/>
     <use style="fill:#4c72b0;fill-opacity:0.8;stroke:#000000;stroke-opacity:0.8;stroke-width:0.7;" x="554.437369" xlink:href="#m9c63a31745" y="286.16066"/>
     <use style="fill:#4c72b0;fill-opacity:0.8;stroke:#000000;stroke-opacity:0.8;stroke-width:0.7;" x="457.165898" xlink:href="#m9c63a31745" y="181.469234"/>
     <use style="fill:#4c72b0;fill-opacity:0.8;stroke:#000000;stroke-opacity:0.8;stroke-width:0.7;" x="229.164881" xlink:href="#m9c63a31745" y="284.842515"/>
     <use style="fill:#4c72b0;fill-opacity:0.8;stroke:#000000;stroke-opacity:0.8;stroke-width:0.7;" x="200.931573" xlink:href="#m9c63a31745" y="379.068008"/>
     <use style="fill:#4c72b0;fill-opacity:0.8;stroke:#000000;stroke-opacity:0.8;stroke-width:0.7;" x="138.661282" xlink:href="#m9c63a31745" y="391.357174"/>
     <use style="fill:#4c72b0;fill-opacity:0.8;stroke:#000000;stroke-opacity:0.8;stroke-width:0.7;" x="120.921747" xlink:href="#m9c63a31745" y="207.561103"/>
     <use style="fill:#4c72b0;fill-opacity:0.8;stroke:#000000;stroke-opacity:0.8;stroke-width:0.7;" x="350.506714" xlink:href="#m9c63a31745" y="312.972253"/>
     <use style="fill:#4c72b0;fill-opacity:0.8;stroke:#000000;stroke-opacity:0.8;stroke-width:0.7;" x="460.594378" xlink:href="#m9c63a31745" y="389.067871"/>
     <use style="fill:#4c72b0;fill-opacity:0.8;stroke:#000000;stroke-opacity:0.8;stroke-width:0.7;" x="494.669511" xlink:href="#m9c63a31745" y="128.356012"/>
     <use style="fill:#4c72b0;fill-opacity:0.8;stroke:#000000;stroke-opacity:0.8;stroke-width:0.7;" x="480.037203" xlink:href="#m9c63a31745" y="280.555876"/>
     <use style="fill:#4c72b0;fill-opacity:0.8;stroke:#000000;stroke-opacity:0.8;stroke-width:0.7;" x="485.225619" xlink:href="#m9c63a31745" y="359.135402"/>
     <use style="fill:#4c72b0;fill-opacity:0.8;stroke:#000000;stroke-opacity:0.8;stroke-width:0.7;" x="460.416807" xlink:href="#m9c63a31745" y="135.847153"/>
     <use style="fill:#4c72b0;fill-opacity:0.8;stroke:#000000;stroke-opacity:0.8;stroke-width:0.7;" x="378.184096" xlink:href="#m9c63a31745" y="265.213417"/>
     <use style="fill:#4c72b0;fill-opacity:0.8;stroke:#000000;stroke-opacity:0.8;stroke-width:0.7;" x="373.186903" xlink:href="#m9c63a31745" y="352.715998"/>
     <use style="fill:#4c72b0;fill-opacity:0.8;stroke:#000000;stroke-opacity:0.8;stroke-width:0.7;" x="341.157731" xlink:href="#m9c63a31745" y="355.438858"/>
     <use style="fill:#4c72b0;fill-opacity:0.8;stroke:#000000;stroke-opacity:0.8;stroke-width:0.7;" x="297.752236" xlink:href="#m9c63a31745" y="218.977065"/>
     <use style="fill:#4c72b0;fill-opacity:0.8;stroke:#000000;stroke-opacity:0.8;stroke-width:0.7;" x="289.579561" xlink:href="#m9c63a31745" y="352.927072"/>
     <use style="fill:#4c72b0;fill-opacity:0.8;stroke:#000000;stroke-opacity:0.8;stroke-width:0.7;" x="426.794108" xlink:href="#m9c63a31745" y="323.648641"/>
     <use style="fill:#4c72b0;fill-opacity:0.8;stroke:#000000;stroke-opacity:0.8;stroke-width:0.7;" x="507.924476" xlink:href="#m9c63a31745" y="390.344071"/>
     <use style="fill:#4c72b0;fill-opacity:0.8;stroke:#000000;stroke-opacity:0.8;stroke-width:0.7;" x="516.709557" xlink:href="#m9c63a31745" y="116.450959"/>
     <use style="fill:#4c72b0;fill-opacity:0.8;stroke:#000000;stroke-opacity:0.8;stroke-width:0.7;" x="521.36147" xlink:href="#m9c63a31745" y="295.186217"/>
     <use style="fill:#4c72b0;fill-opacity:0.8;stroke:#000000;stroke-opacity:0.8;stroke-width:0.7;" x="518.985645" xlink:href="#m9c63a31745" y="333.636563"/>
     <use style="fill:#4c72b0;fill-opacity:0.8;stroke:#000000;stroke-opacity:0.8;stroke-width:0.7;" x="448.747038" xlink:href="#m9c63a31745" y="151.561006"/>
     <use style="fill:#4c72b0;fill-opacity:0.8;stroke:#000000;stroke-opacity:0.8;stroke-width:0.7;" x="280.984987" xlink:href="#m9c63a31745" y="273.788206"/>
     <use style="fill:#4c72b0;fill-opacity:0.8;stroke:#000000;stroke-opacity:0.8;stroke-width:0.7;" x="265.159579" xlink:href="#m9c63a31745" y="369.07192"/>
     <use style="fill:#4c72b0;fill-opacity:0.8;stroke:#000000;stroke-opacity:0.8;stroke-width:0.7;" x="219.812191" xlink:href="#m9c63a31745" y="375.14827"/>
     <use style="fill:#4c72b0;fill-opacity:0.8;stroke:#000000;stroke-opacity:0.8;stroke-width:0.7;" x="180.1897" xlink:href="#m9c63a31745" y="215.683874"/>
     <use style="fill:#4c72b0;fill-opacity:0.8;stroke:#000000;stroke-opacity:0.8;stroke-width:0.7;" x="162.708359" xlink:href="#m9c63a31745" y="378.455859"/>
     <use style="fill:#4c72b0;fill-opacity:0.8;stroke:#000000;stroke-opacity:0.8;stroke-width:0.7;" x="198.364413" xlink:href="#m9c63a31745" y="400.281718"/>
     <use style="fill:#4c72b0;fill-opacity:0.8;stroke:#000000;stroke-opacity:0.8;stroke-width:0.7;" x="444.316476" xlink:href="#m9c63a31745" y="404.427103"/>
     <use style="fill:#4c72b0;fill-opacity:0.8;stroke:#000000;stroke-opacity:0.8;stroke-width:0.7;" x="513.380474" xlink:href="#m9c63a31745" y="306.916549"/>
     <use style="fill:#4c72b0;fill-opacity:0.8;stroke:#000000;stroke-opacity:0.8;stroke-width:0.7;" x="513.075512" xlink:href="#m9c63a31745" y="173.071495"/>
     <use style="fill:#4c72b0;fill-opacity:0.8;stroke:#000000;stroke-opacity:0.8;stroke-width:0.7;" x="524.430054" xlink:href="#m9c63a31745" y="367.871849"/>
     <use style="fill:#4c72b0;fill-opacity:0.8;stroke:#000000;stroke-opacity:0.8;stroke-width:0.7;" x="519.42653" xlink:href="#m9c63a31745" y="284.314416"/>
     <use style="fill:#4c72b0;fill-opacity:0.8;stroke:#000000;stroke-opacity:0.8;stroke-width:0.7;" x="434.866244" xlink:href="#m9c63a31745" y="224.976763"/>
     <use style="fill:#4c72b0;fill-opacity:0.8;stroke:#000000;stroke-opacity:0.8;stroke-width:0.7;" x="241.484126" xlink:href="#m9c63a31745" y="357.045008"/>
     <use style="fill:#4c72b0;fill-opacity:0.8;stroke:#000000;stroke-opacity:0.8;stroke-width:0.7;" x="222.544214" xlink:href="#m9c63a31745" y="391.15319"/>
     <use style="fill:#4c72b0;fill-opacity:0.8;stroke:#000000;stroke-opacity:0.8;stroke-width:0.7;" x="175.285993" xlink:href="#m9c63a31745" y="378.890634"/>
     <use style="fill:#4c72b0;fill-opacity:0.8;stroke:#000000;stroke-opacity:0.8;stroke-width:0.7;" x="136.209052" xlink:href="#m9c63a31745" y="289.147342"/>
     <use style="fill:#4c72b0;fill-opacity:0.8;stroke:#000000;stroke-opacity:0.8;stroke-width:0.7;" x="123.014102" xlink:href="#m9c63a31745" y="344.308889"/>
     <use style="fill:#4c72b0;fill-opacity:0.8;stroke:#000000;stroke-opacity:0.8;stroke-width:0.7;" x="239.634479" xlink:href="#m9c63a31745" y="333.705893"/>
     <use style="fill:#4c72b0;fill-opacity:0.8;stroke:#000000;stroke-opacity:0.8;stroke-width:0.7;" x="115.776343" xlink:href="#m9c63a31745" y="342.361725"/>
     <use style="fill:#4c72b0;fill-opacity:0.8;stroke:#000000;stroke-opacity:0.8;stroke-width:0.7;" x="84.595909" xlink:href="#m9c63a31745" y="354.867921"/>
     <use style="fill:#4c72b0;fill-opacity:0.8;stroke:#000000;stroke-opacity:0.8;stroke-width:0.7;" x="199.511952" xlink:href="#m9c63a31745" y="245.254736"/>
     <use style="fill:#4c72b0;fill-opacity:0.8;stroke:#000000;stroke-opacity:0.8;stroke-width:0.7;" x="270.111455" xlink:href="#m9c63a31745" y="244.318299"/>
     <use style="fill:#4c72b0;fill-opacity:0.8;stroke:#000000;stroke-opacity:0.8;stroke-width:0.7;" x="224.953732" xlink:href="#m9c63a31745" y="334.539913"/>
     <use style="fill:#4c72b0;fill-opacity:0.8;stroke:#000000;stroke-opacity:0.8;stroke-width:0.7;" x="241.527677" xlink:href="#m9c63a31745" y="254.17331"/>
     <use style="fill:#4c72b0;fill-opacity:0.8;stroke:#000000;stroke-opacity:0.8;stroke-width:0.7;" x="317.392823" xlink:href="#m9c63a31745" y="231.320295"/>
     <use style="fill:#4c72b0;fill-opacity:0.8;stroke:#000000;stroke-opacity:0.8;stroke-width:0.7;" x="457.311352" xlink:href="#m9c63a31745" y="367.421726"/>
     <use style="fill:#4c72b0;fill-opacity:0.8;stroke:#000000;stroke-opacity:0.8;stroke-width:0.7;" x="479.552634" xlink:href="#m9c63a31745" y="317.385663"/>
     <use style="fill:#4c72b0;fill-opacity:0.8;stroke:#000000;stroke-opacity:0.8;stroke-width:0.7;" x="495.138455" xlink:href="#m9c63a31745" y="305.095048"/>
     <use style="fill:#4c72b0;fill-opacity:0.8;stroke:#000000;stroke-opacity:0.8;stroke-width:0.7;" x="456.180958" xlink:href="#m9c63a31745" y="362.689999"/>
     <use style="fill:#4c72b0;fill-opacity:0.8;stroke:#000000;stroke-opacity:0.8;stroke-width:0.7;" x="483.006797" xlink:href="#m9c63a31745" y="270.547408"/>
     <use style="fill:#4c72b0;fill-opacity:0.8;stroke:#000000;stroke-opacity:0.8;stroke-width:0.7;" x="348.50444" xlink:href="#m9c63a31745" y="279.138157"/>
     <use style="fill:#4c72b0;fill-opacity:0.8;stroke:#000000;stroke-opacity:0.8;stroke-width:0.7;" x="420.596339" xlink:href="#m9c63a31745" y="278.048572"/>
     <use style="fill:#4c72b0;fill-opacity:0.8;stroke:#000000;stroke-opacity:0.8;stroke-width:0.7;" x="436.804724" xlink:href="#m9c63a31745" y="351.87725"/>
     <use style="fill:#4c72b0;fill-opacity:0.8;stroke:#000000;stroke-opacity:0.8;stroke-width:0.7;" x="449.647544" xlink:href="#m9c63a31745" y="229.835804"/>
     <use style="fill:#4c72b0;fill-opacity:0.8;stroke:#000000;stroke-opacity:0.8;stroke-width:0.7;" x="442.810016" xlink:href="#m9c63a31745" y="366.446852"/>
     <use style="fill:#4c72b0;fill-opacity:0.8;stroke:#000000;stroke-opacity:0.8;stroke-width:0.7;" x="396.380371" xlink:href="#m9c63a31745" y="38.43"/>
     <use style="fill:#4c72b0;fill-opacity:0.8;stroke:#000000;stroke-opacity:0.8;stroke-width:0.7;" x="439.808846" xlink:href="#m9c63a31745" y="204.465137"/>
     <use style="fill:#4c72b0;fill-opacity:0.8;stroke:#000000;stroke-opacity:0.8;stroke-width:0.7;" x="422.245466" xlink:href="#m9c63a31745" y="311.894997"/>
     <use style="fill:#4c72b0;fill-opacity:0.8;stroke:#000000;stroke-opacity:0.8;stroke-width:0.7;" x="281.246953" xlink:href="#m9c63a31745" y="64.5926"/>
     <use style="fill:#4c72b0;fill-opacity:0.8;stroke:#000000;stroke-opacity:0.8;stroke-width:0.7;" x="142.403488" xlink:href="#m9c63a31745" y="179.67027"/>
     <use style="fill:#4c72b0;fill-opacity:0.8;stroke:#000000;stroke-opacity:0.8;stroke-width:0.7;" x="179.237244" xlink:href="#m9c63a31745" y="277.037376"/>
     <use style="fill:#4c72b0;fill-opacity:0.8;stroke:#000000;stroke-opacity:0.8;stroke-width:0.7;" x="244.015822" xlink:href="#m9c63a31745" y="285.981918"/>
     <use style="fill:#4c72b0;fill-opacity:0.8;stroke:#000000;stroke-opacity:0.8;stroke-width:0.7;" x="247.047889" xlink:href="#m9c63a31745" y="125.226794"/>
     <use style="fill:#4c72b0;fill-opacity:0.8;stroke:#000000;stroke-opacity:0.8;stroke-width:0.7;" x="296.164551" xlink:href="#m9c63a31745" y="308.820701"/>
     <use style="fill:#4c72b0;fill-opacity:0.8;stroke:#000000;stroke-opacity:0.8;stroke-width:0.7;" x="413.122231" xlink:href="#m9c63a31745" y="332.128222"/>
     <use style="fill:#4c72b0;fill-opacity:0.8;stroke:#000000;stroke-opacity:0.8;stroke-width:0.7;" x="334.253606" xlink:href="#m9c63a31745" y="331.525098"/>
     <use style="fill:#4c72b0;fill-opacity:0.8;stroke:#000000;stroke-opacity:0.8;stroke-width:0.7;" x="299.788776" xlink:href="#m9c63a31745" y="247.979996"/>
     <use style="fill:#4c72b0;fill-opacity:0.8;stroke:#000000;stroke-opacity:0.8;stroke-width:0.7;" x="437.064174" xlink:href="#m9c63a31745" y="186.035813"/>
     <use style="fill:#4c72b0;fill-opacity:0.8;stroke:#000000;stroke-opacity:0.8;stroke-width:0.7;" x="335.348715" xlink:href="#m9c63a31745" y="314.676545"/>
     <use style="fill:#4c72b0;fill-opacity:0.8;stroke:#000000;stroke-opacity:0.8;stroke-width:0.7;" x="446.569698" xlink:href="#m9c63a31745" y="366.573709"/>
     <use style="fill:#4c72b0;fill-opacity:0.8;stroke:#000000;stroke-opacity:0.8;stroke-width:0.7;" x="482.283963" xlink:href="#m9c63a31745" y="150.125524"/>
     <use style="fill:#4c72b0;fill-opacity:0.8;stroke:#000000;stroke-opacity:0.8;stroke-width:0.7;" x="466.331655" xlink:href="#m9c63a31745" y="279.343509"/>
     <use style="fill:#4c72b0;fill-opacity:0.8;stroke:#000000;stroke-opacity:0.8;stroke-width:0.7;" x="472.009182" xlink:href="#m9c63a31745" y="371.938152"/>
     <use style="fill:#4c72b0;fill-opacity:0.8;stroke:#000000;stroke-opacity:0.8;stroke-width:0.7;" x="451.173783" xlink:href="#m9c63a31745" y="135.296009"/>
     <use style="fill:#4c72b0;fill-opacity:0.8;stroke:#000000;stroke-opacity:0.8;stroke-width:0.7;" x="380.143741" xlink:href="#m9c63a31745" y="270.495048"/>
     <use style="fill:#4c72b0;fill-opacity:0.8;stroke:#000000;stroke-opacity:0.8;stroke-width:0.7;" x="376.990659" xlink:href="#m9c63a31745" y="346.164392"/>
     <use style="fill:#4c72b0;fill-opacity:0.8;stroke:#000000;stroke-opacity:0.8;stroke-width:0.7;" x="347.999062" xlink:href="#m9c63a31745" y="345.264163"/>
     <use style="fill:#4c72b0;fill-opacity:0.8;stroke:#000000;stroke-opacity:0.8;stroke-width:0.7;" x="304.087507" xlink:href="#m9c63a31745" y="235.065609"/>
     <use style="fill:#4c72b0;fill-opacity:0.8;stroke:#000000;stroke-opacity:0.8;stroke-width:0.7;" x="298.810388" xlink:href="#m9c63a31745" y="334.546134"/>
     <use style="fill:#4c72b0;fill-opacity:0.8;stroke:#000000;stroke-opacity:0.8;stroke-width:0.7;" x="86.644506" xlink:href="#m9c63a31745" y="401.988861"/>
     <use style="fill:#4c72b0;fill-opacity:0.8;stroke:#000000;stroke-opacity:0.8;stroke-width:0.7;" x="208.329101" xlink:href="#m9c63a31745" y="379.436908"/>
     <use style="fill:#4c72b0;fill-opacity:0.8;stroke:#000000;stroke-opacity:0.8;stroke-width:0.7;" x="248.082299" xlink:href="#m9c63a31745" y="336.183781"/>
     <use style="fill:#4c72b0;fill-opacity:0.8;stroke:#000000;stroke-opacity:0.8;stroke-width:0.7;" x="333.507269" xlink:href="#m9c63a31745" y="292.641325"/>
     <use style="fill:#4c72b0;fill-opacity:0.8;stroke:#000000;stroke-opacity:0.8;stroke-width:0.7;" x="412.091431" xlink:href="#m9c63a31745" y="313.335108"/>
     <use style="fill:#4c72b0;fill-opacity:0.8;stroke:#000000;stroke-opacity:0.8;stroke-width:0.7;" x="388.900478" xlink:href="#m9c63a31745" y="294.455679"/>
     <use style="fill:#4c72b0;fill-opacity:0.8;stroke:#000000;stroke-opacity:0.8;stroke-width:0.7;" x="464.2742" xlink:href="#m9c63a31745" y="418.23"/>
     <use style="fill:#4c72b0;fill-opacity:0.8;stroke:#000000;stroke-opacity:0.8;stroke-width:0.7;" x="471.242502" xlink:href="#m9c63a31745" y="93.237971"/>
     <use style="fill:#4c72b0;fill-opacity:0.8;stroke:#000000;stroke-opacity:0.8;stroke-width:0.7;" x="477.040521" xlink:href="#m9c63a31745" y="267.267119"/>
     <use style="fill:#4c72b0;fill-opacity:0.8;stroke:#000000;stroke-opacity:0.8;stroke-width:0.7;" x="474.078257" xlink:href="#m9c63a31745" y="336.804587"/>
     <use style="fill:#4c72b0;fill-opacity:0.8;stroke:#000000;stroke-opacity:0.8;stroke-width:0.7;" x="403.858959" xlink:href="#m9c63a31745" y="124.793089"/>
     <use style="fill:#4c72b0;fill-opacity:0.8;stroke:#000000;stroke-opacity:0.8;stroke-width:0.7;" x="257.539544" xlink:href="#m9c63a31745" y="244.453041"/>
     <use style="fill:#4c72b0;fill-opacity:0.8;stroke:#000000;stroke-opacity:0.8;stroke-width:0.7;" x="249.311525" xlink:href="#m9c63a31745" y="340.859292"/>
     <use style="fill:#4c72b0;fill-opacity:0.8;stroke:#000000;stroke-opacity:0.8;stroke-width:0.7;" x="219.080868" xlink:href="#m9c63a31745" y="348.559736"/>
     <use style="fill:#4c72b0;fill-opacity:0.8;stroke:#000000;stroke-opacity:0.8;stroke-width:0.7;" x="174.753258" xlink:href="#m9c63a31745" y="187.918035"/>
     <use style="fill:#4c72b0;fill-opacity:0.8;stroke:#000000;stroke-opacity:0.8;stroke-width:0.7;" x="178.946984" xlink:href="#m9c63a31745" y="363.121278"/>
     <use style="fill:#4c72b0;fill-opacity:0.8;stroke:#000000;stroke-opacity:0.8;stroke-width:0.7;" x="195.571254" xlink:href="#m9c63a31745" y="390.348686"/>
     <use style="fill:#4c72b0;fill-opacity:0.8;stroke:#000000;stroke-opacity:0.8;stroke-width:0.7;" x="116.817659" xlink:href="#m9c63a31745" y="396.510628"/>
     <use style="fill:#4c72b0;fill-opacity:0.8;stroke:#000000;stroke-opacity:0.8;stroke-width:0.7;" x="128.071884" xlink:href="#m9c63a31745" y="312.935833"/>
     <use style="fill:#4c72b0;fill-opacity:0.8;stroke:#000000;stroke-opacity:0.8;stroke-width:0.7;" x="381.83903" xlink:href="#m9c63a31745" y="249.719377"/>
     <use style="fill:#4c72b0;fill-opacity:0.8;stroke:#000000;stroke-opacity:0.8;stroke-width:0.7;" x="302.392208" xlink:href="#m9c63a31745" y="360.958602"/>
     <use style="fill:#4c72b0;fill-opacity:0.8;stroke:#000000;stroke-opacity:0.8;stroke-width:0.7;" x="200.86359" xlink:href="#m9c63a31745" y="366.801291"/>
    </g>
   </g>
   <g id="PolyCollection_1">
    <defs>
     <path d="M 84.595909 -234.669985 
L 84.595909 -175.563624 
L 89.413264 -176.233651 
L 94.23062 -176.903678 
L 99.047975 -177.574109 
L 103.865331 -178.194416 
L 108.682686 -178.800565 
L 113.500041 -179.406714 
L 118.317397 -180.012863 
L 123.134752 -180.619012 
L 127.952107 -181.225161 
L 132.769463 -181.836003 
L 137.586818 -182.448211 
L 142.404174 -183.08869 
L 147.221529 -183.882257 
L 152.038884 -184.449262 
L 156.85624 -184.867479 
L 161.673595 -185.524726 
L 166.49095 -186.074353 
L 171.308306 -186.677509 
L 176.125661 -187.276755 
L 180.943017 -187.754011 
L 185.760372 -188.173775 
L 190.577727 -188.580778 
L 195.395083 -189.044847 
L 200.212438 -189.715832 
L 205.029793 -190.176611 
L 209.847149 -190.763785 
L 214.664504 -191.302416 
L 219.48186 -192.065766 
L 224.299215 -192.645459 
L 229.11657 -193.049495 
L 233.933926 -193.391282 
L 238.751281 -193.952868 
L 243.568636 -194.664362 
L 248.385992 -195.141539 
L 253.203347 -195.738226 
L 258.020702 -196.408225 
L 262.838058 -196.96776 
L 267.655413 -197.337819 
L 272.472769 -197.784873 
L 277.290124 -198.064227 
L 282.107479 -198.358277 
L 286.924835 -198.554937 
L 291.74219 -198.95592 
L 296.559545 -199.260261 
L 301.376901 -199.366793 
L 306.194256 -199.808188 
L 311.011612 -200.055884 
L 315.828967 -200.117185 
L 320.646322 -200.50826 
L 325.463678 -200.824374 
L 330.281033 -201.301695 
L 335.098388 -201.700433 
L 339.915744 -201.951368 
L 344.733099 -202.247769 
L 349.550455 -202.512129 
L 354.36781 -202.679036 
L 359.185165 -202.984049 
L 364.002521 -203.145339 
L 368.819876 -203.30663 
L 373.637231 -203.46792 
L 378.454587 -203.528226 
L 383.271942 -203.715697 
L 388.089298 -203.748683 
L 392.906653 -203.935614 
L 397.724008 -203.999651 
L 402.541364 -204.111292 
L 407.358719 -204.165587 
L 412.176074 -204.197798 
L 416.99343 -204.052595 
L 421.810785 -204.246447 
L 426.62814 -204.212422 
L 431.445496 -204.140494 
L 436.262851 -204.02553 
L 441.080207 -204.043057 
L 445.897562 -204.066929 
L 450.714917 -204.093472 
L 455.532273 -203.99042 
L 460.349628 -204.102364 
L 465.166983 -204.100821 
L 469.984339 -204.23672 
L 474.801694 -204.230619 
L 479.61905 -204.256711 
L 484.436405 -204.282803 
L 489.25376 -204.308894 
L 494.071116 -204.07404 
L 498.888471 -204.058232 
L 503.705826 -204.054473 
L 508.523182 -203.98457 
L 513.340537 -204.039419 
L 518.157893 -203.621117 
L 522.975248 -203.528417 
L 527.792603 -203.420896 
L 532.609959 -203.516912 
L 537.427314 -203.37577 
L 542.244669 -203.318809 
L 547.062025 -203.164115 
L 551.87938 -203.115399 
L 556.696736 -203.298183 
L 561.514091 -203.106601 
L 561.514091 -258.816684 
L 561.514091 -258.816684 
L 556.696736 -258.104982 
L 551.87938 -257.393279 
L 547.062025 -256.679955 
L 542.244669 -255.964664 
L 537.427314 -255.245123 
L 532.609959 -254.368342 
L 527.792603 -253.523686 
L 522.975248 -252.910383 
L 518.157893 -252.297079 
L 513.340537 -251.671709 
L 508.523182 -250.965155 
L 503.705826 -250.24901 
L 498.888471 -249.537661 
L 494.071116 -248.823863 
L 489.25376 -248.185247 
L 484.436405 -247.426403 
L 479.61905 -246.67912 
L 474.801694 -245.969465 
L 469.984339 -245.387696 
L 465.166983 -244.897327 
L 460.349628 -244.414085 
L 455.532273 -243.930843 
L 450.714917 -243.442026 
L 445.897562 -242.871901 
L 441.080207 -242.18092 
L 436.262851 -241.542751 
L 431.445496 -240.924265 
L 426.62814 -240.692338 
L 421.810785 -240.086895 
L 416.99343 -239.471345 
L 412.176074 -238.866336 
L 407.358719 -238.256208 
L 402.541364 -237.732548 
L 397.724008 -237.21312 
L 392.906653 -236.878244 
L 388.089298 -236.292073 
L 383.271942 -235.822694 
L 378.454587 -235.3684 
L 373.637231 -235.02339 
L 368.819876 -234.740765 
L 364.002521 -234.318977 
L 359.185165 -233.688207 
L 354.36781 -233.128452 
L 349.550455 -232.680759 
L 344.733099 -232.521995 
L 339.915744 -232.391473 
L 335.098388 -232.097426 
L 330.281033 -231.804969 
L 325.463678 -231.595725 
L 320.646322 -231.495957 
L 315.828967 -231.280002 
L 311.011612 -231.022069 
L 306.194256 -230.925843 
L 301.376901 -230.947852 
L 296.559545 -230.671846 
L 291.74219 -230.700788 
L 286.924835 -230.728648 
L 282.107479 -230.730686 
L 277.290124 -230.794543 
L 272.472769 -230.828996 
L 267.655413 -230.788104 
L 262.838058 -230.525616 
L 258.020702 -230.436635 
L 253.203347 -230.561265 
L 248.385992 -230.424469 
L 243.568636 -230.298339 
L 238.751281 -230.668043 
L 233.933926 -231.033634 
L 229.11657 -231.101619 
L 224.299215 -231.132963 
L 219.48186 -231.065178 
L 214.664504 -230.939793 
L 209.847149 -231.105161 
L 205.029793 -231.254203 
L 200.212438 -231.28489 
L 195.395083 -231.411002 
L 190.577727 -231.546591 
L 185.760372 -231.65076 
L 180.943017 -231.648357 
L 176.125661 -231.657059 
L 171.308306 -231.872489 
L 166.49095 -232.126673 
L 161.673595 -232.251203 
L 156.85624 -232.373638 
L 152.038884 -232.494117 
L 147.221529 -232.614597 
L 142.404174 -232.735076 
L 137.586818 -232.855556 
L 132.769463 -233.004161 
L 127.952107 -233.227949 
L 123.134752 -233.533894 
L 118.317397 -233.607814 
L 113.500041 -233.669611 
L 108.682686 -233.837337 
L 103.865331 -234.003937 
L 99.047975 -234.170536 
L 94.23062 -234.337136 
L 89.413264 -234.503736 
L 84.595909 -234.669985 
z
" id="mb60b4e246a" style="stroke:#ffffff;stroke-opacity:0.15;"/>
    </defs>
    <g clip-path="url(#p85cbb60275)">
     <use style="fill:#4c72b0;fill-opacity:0.15;stroke:#ffffff;stroke-opacity:0.15;" x="0" xlink:href="#mb60b4e246a" y="504"/>
    </g>
   </g>
   <g id="line2d_1">
    <path clip-path="url(#p85cbb60275)" d="M 84.595909 301.187926 
L 89.413264 300.933238 
L 94.23062 300.67855 
L 99.047975 300.423862 
L 103.865331 300.169174 
L 108.682686 299.914486 
L 113.500041 299.659797 
L 118.317397 299.405109 
L 123.134752 299.150421 
L 127.952107 298.895733 
L 132.769463 298.641045 
L 137.586818 298.386357 
L 142.404174 298.131669 
L 147.221529 297.87698 
L 152.038884 297.622292 
L 156.85624 297.367604 
L 161.673595 297.112916 
L 166.49095 296.858228 
L 171.308306 296.60354 
L 176.125661 296.348852 
L 180.943017 296.094164 
L 185.760372 295.839475 
L 190.577727 295.584787 
L 195.395083 295.330099 
L 200.212438 295.075411 
L 205.029793 294.820723 
L 209.847149 294.566035 
L 214.664504 294.311347 
L 219.48186 294.056658 
L 224.299215 293.80197 
L 229.11657 293.547282 
L 233.933926 293.292594 
L 238.751281 293.037906 
L 243.568636 292.783218 
L 248.385992 292.52853 
L 253.203347 292.273841 
L 258.020702 292.019153 
L 262.838058 291.764465 
L 267.655413 291.509777 
L 272.472769 291.255089 
L 277.290124 291.000401 
L 282.107479 290.745713 
L 286.924835 290.491025 
L 291.74219 290.236336 
L 296.559545 289.981648 
L 301.376901 289.72696 
L 306.194256 289.472272 
L 311.011612 289.217584 
L 315.828967 288.962896 
L 320.646322 288.708208 
L 325.463678 288.453519 
L 330.281033 288.198831 
L 335.098388 287.944143 
L 339.915744 287.689455 
L 344.733099 287.434767 
L 349.550455 287.180079 
L 354.36781 286.925391 
L 359.185165 286.670702 
L 364.002521 286.416014 
L 368.819876 286.161326 
L 373.637231 285.906638 
L 378.454587 285.65195 
L 383.271942 285.397262 
L 388.089298 285.142574 
L 392.906653 284.887885 
L 397.724008 284.633197 
L 402.541364 284.378509 
L 407.358719 284.123821 
L 412.176074 283.869133 
L 416.99343 283.614445 
L 421.810785 283.359757 
L 426.62814 283.105069 
L 431.445496 282.85038 
L 436.262851 282.595692 
L 441.080207 282.341004 
L 445.897562 282.086316 
L 450.714917 281.831628 
L 455.532273 281.57694 
L 460.349628 281.322252 
L 465.166983 281.067563 
L 469.984339 280.812875 
L 474.801694 280.558187 
L 479.61905 280.303499 
L 484.436405 280.048811 
L 489.25376 279.794123 
L 494.071116 279.539435 
L 498.888471 279.284746 
L 503.705826 279.030058 
L 508.523182 278.77537 
L 513.340537 278.520682 
L 518.157893 278.265994 
L 522.975248 278.011306 
L 527.792603 277.756618 
L 532.609959 277.501929 
L 537.427314 277.247241 
L 542.244669 276.992553 
L 547.062025 276.737865 
L 551.87938 276.483177 
L 556.696736 276.228489 
L 561.514091 275.973801 
" style="fill:none;stroke:#4c72b0;stroke-linecap:round;stroke-width:2.25;"/>
   </g>
   <g id="patch_3">
    <path d="M 60.75 437.22 
L 60.75 19.44 
" style="fill:none;stroke:#262626;stroke-linecap:square;stroke-linejoin:miter;stroke-width:1.25;"/>
   </g>
   <g id="patch_4">
    <path d="M 60.75 437.22 
L 585.36 437.22 
" style="fill:none;stroke:#262626;stroke-linecap:square;stroke-linejoin:miter;stroke-width:1.25;"/>
   </g>
   <g id="text_13">
    <!-- Human ratings ~ Fasttext 2D space -->
    <g style="fill:#262626;" transform="translate(162.493594 13.44)scale(0.18 -0.18)">
     <defs>
      <path d="M 4684 2553 
L 4684 1997 
Q 4356 1750 4076 1644 
Q 3797 1538 3494 1538 
Q 3150 1538 2694 1722 
Q 2659 1734 2644 1741 
Q 2622 1750 2575 1766 
Q 2091 1959 1797 1959 
Q 1522 1959 1253 1839 
Q 984 1719 678 1459 
L 678 2016 
Q 1006 2263 1286 2370 
Q 1566 2478 1869 2478 
Q 2213 2478 2672 2291 
Q 2703 2278 2719 2272 
Q 2744 2263 2788 2247 
Q 3272 2053 3566 2053 
Q 3834 2053 4098 2172 
Q 4363 2291 4684 2553 
z
" id="DejaVuSans-7e" transform="scale(0.015625)"/>
     </defs>
     <use xlink:href="#DejaVuSans-48"/>
     <use x="75.195312" xlink:href="#DejaVuSans-75"/>
     <use x="138.574219" xlink:href="#DejaVuSans-6d"/>
     <use x="235.986328" xlink:href="#DejaVuSans-61"/>
     <use x="297.265625" xlink:href="#DejaVuSans-6e"/>
     <use x="360.644531" xlink:href="#DejaVuSans-20"/>
     <use x="392.431641" xlink:href="#DejaVuSans-72"/>
     <use x="433.544922" xlink:href="#DejaVuSans-61"/>
     <use x="494.824219" xlink:href="#DejaVuSans-74"/>
     <use x="534.033203" xlink:href="#DejaVuSans-69"/>
     <use x="561.816406" xlink:href="#DejaVuSans-6e"/>
     <use x="625.195312" xlink:href="#DejaVuSans-67"/>
     <use x="688.671875" xlink:href="#DejaVuSans-73"/>
     <use x="740.771484" xlink:href="#DejaVuSans-20"/>
     <use x="772.558594" xlink:href="#DejaVuSans-7e"/>
     <use x="856.347656" xlink:href="#DejaVuSans-20"/>
     <use x="888.134766" xlink:href="#DejaVuSans-46"/>
     <use x="936.529297" xlink:href="#DejaVuSans-61"/>
     <use x="997.808594" xlink:href="#DejaVuSans-73"/>
     <use x="1049.908203" xlink:href="#DejaVuSans-74"/>
     <use x="1089.117188" xlink:href="#DejaVuSans-74"/>
     <use x="1128.326172" xlink:href="#DejaVuSans-65"/>
     <use x="1188.099609" xlink:href="#DejaVuSans-78"/>
     <use x="1247.279297" xlink:href="#DejaVuSans-74"/>
     <use x="1286.488281" xlink:href="#DejaVuSans-20"/>
     <use x="1318.275391" xlink:href="#DejaVuSans-32"/>
     <use x="1381.898438" xlink:href="#DejaVuSans-44"/>
     <use x="1458.900391" xlink:href="#DejaVuSans-20"/>
     <use x="1490.6875" xlink:href="#DejaVuSans-73"/>
     <use x="1542.787109" xlink:href="#DejaVuSans-70"/>
     <use x="1606.263672" xlink:href="#DejaVuSans-61"/>
     <use x="1667.542969" xlink:href="#DejaVuSans-63"/>
     <use x="1722.523438" xlink:href="#DejaVuSans-65"/>
    </g>
   </g>
  </g>
  <g id="text_14">
   <!-- r =  0.076 -->
   <g style="fill:#262626;" transform="translate(247.694625 56.732625)scale(0.216 -0.216)">
    <defs>
     <path d="M 678 2906 
L 4684 2906 
L 4684 2381 
L 678 2381 
L 678 2906 
z
M 678 1631 
L 4684 1631 
L 4684 1100 
L 678 1100 
L 678 1631 
z
" id="DejaVuSans-3d" transform="scale(0.015625)"/>
     <path d="M 684 794 
L 1344 794 
L 1344 0 
L 684 0 
L 684 794 
z
" id="DejaVuSans-2e" transform="scale(0.015625)"/>
     <path d="M 525 4666 
L 3525 4666 
L 3525 4397 
L 1831 0 
L 1172 0 
L 2766 4134 
L 525 4134 
L 525 4666 
z
" id="DejaVuSans-37" transform="scale(0.015625)"/>
    </defs>
    <use xlink:href="#DejaVuSans-72"/>
    <use x="41.113281" xlink:href="#DejaVuSans-20"/>
    <use x="72.900391" xlink:href="#DejaVuSans-3d"/>
    <use x="156.689453" xlink:href="#DejaVuSans-20"/>
    <use x="188.476562" xlink:href="#DejaVuSans-20"/>
    <use x="220.263672" xlink:href="#DejaVuSans-30"/>
    <use x="283.886719" xlink:href="#DejaVuSans-2e"/>
    <use x="315.673828" xlink:href="#DejaVuSans-30"/>
    <use x="379.296875" xlink:href="#DejaVuSans-37"/>
    <use x="442.919922" xlink:href="#DejaVuSans-36"/>
   </g>
  </g>
 </g>
 <defs>
  <clipPath id="p85cbb60275">
   <rect height="417.78" width="524.61" x="60.75" y="19.44"/>
  </clipPath>
 </defs>
</svg>
