<?xml version="1.0" encoding="utf-8" standalone="no"?>
<!DOCTYPE svg PUBLIC "-//W3C//DTD SVG 1.1//EN"
  "http://www.w3.org/Graphics/SVG/1.1/DTD/svg11.dtd">
<svg height="504pt" version="1.1" viewBox="0 0 604.8 504" width="604.8pt" xmlns="http://www.w3.org/2000/svg" xmlns:xlink="http://www.w3.org/1999/xlink">
 <metadata>
  <rdf:RDF xmlns:cc="http://creativecommons.org/ns#" xmlns:dc="http://purl.org/dc/elements/1.1/" xmlns:rdf="http://www.w3.org/1999/02/22-rdf-syntax-ns#">
   <cc:Work>
    <dc:type rdf:resource="http://purl.org/dc/dcmitype/StillImage"/>
    <dc:date>2023-07-24T14:46:20.367393</dc:date>
    <dc:format>image/svg+xml</dc:format>
    <dc:creator>
     <cc:Agent>
      <dc:title>Matplotlib v3.4.3, https://matplotlib.org/</dc:title>
     </cc:Agent>
    </dc:creator>
   </cc:Work>
  </rdf:RDF>
 </metadata>
 <defs>
  <style type="text/css">*{stroke-linecap:butt;stroke-linejoin:round;}</style>
 </defs>
 <g id="figure_1">
  <g id="patch_1">
   <path d="M 0 504 
L 604.8 504 
L 604.8 0 
L 0 0 
z
" style="fill:#ffffff;"/>
  </g>
  <g id="axes_1">
   <g id="patch_2">
    <path d="M 76.59 437.22 
L 585.36 437.22 
L 585.36 19.44 
L 76.59 19.44 
z
" style="fill:#ffffff;"/>
   </g>
   <g id="matplotlib.axis_1">
    <g id="xtick_1">
     <g id="text_1">
      <!-- 0 -->
      <g style="fill:#262626;" transform="translate(81.483837 459.257422)scale(0.165 -0.165)">
       <defs>
        <path d="M 2034 4250 
Q 1547 4250 1301 3770 
Q 1056 3291 1056 2328 
Q 1056 1369 1301 889 
Q 1547 409 2034 409 
Q 2525 409 2770 889 
Q 3016 1369 3016 2328 
Q 3016 3291 2770 3770 
Q 2525 4250 2034 4250 
z
M 2034 4750 
Q 2819 4750 3233 4129 
Q 3647 3509 3647 2328 
Q 3647 1150 3233 529 
Q 2819 -91 2034 -91 
Q 1250 -91 836 529 
Q 422 1150 422 2328 
Q 422 3509 836 4129 
Q 1250 4750 2034 4750 
z
" id="DejaVuSans-30" transform="scale(0.015625)"/>
       </defs>
       <use xlink:href="#DejaVuSans-30"/>
      </g>
     </g>
    </g>
    <g id="xtick_2">
     <g id="text_2">
      <!-- 2 -->
      <g style="fill:#262626;" transform="translate(185.235467 459.257422)scale(0.165 -0.165)">
       <defs>
        <path d="M 1228 531 
L 3431 531 
L 3431 0 
L 469 0 
L 469 531 
Q 828 903 1448 1529 
Q 2069 2156 2228 2338 
Q 2531 2678 2651 2914 
Q 2772 3150 2772 3378 
Q 2772 3750 2511 3984 
Q 2250 4219 1831 4219 
Q 1534 4219 1204 4116 
Q 875 4013 500 3803 
L 500 4441 
Q 881 4594 1212 4672 
Q 1544 4750 1819 4750 
Q 2544 4750 2975 4387 
Q 3406 4025 3406 3419 
Q 3406 3131 3298 2873 
Q 3191 2616 2906 2266 
Q 2828 2175 2409 1742 
Q 1991 1309 1228 531 
z
" id="DejaVuSans-32" transform="scale(0.015625)"/>
       </defs>
       <use xlink:href="#DejaVuSans-32"/>
      </g>
     </g>
    </g>
    <g id="xtick_3">
     <g id="text_3">
      <!-- 4 -->
      <g style="fill:#262626;" transform="translate(288.987097 459.257422)scale(0.165 -0.165)">
       <defs>
        <path d="M 2419 4116 
L 825 1625 
L 2419 1625 
L 2419 4116 
z
M 2253 4666 
L 3047 4666 
L 3047 1625 
L 3713 1625 
L 3713 1100 
L 3047 1100 
L 3047 0 
L 2419 0 
L 2419 1100 
L 313 1100 
L 313 1709 
L 2253 4666 
z
" id="DejaVuSans-34" transform="scale(0.015625)"/>
       </defs>
       <use xlink:href="#DejaVuSans-34"/>
      </g>
     </g>
    </g>
    <g id="xtick_4">
     <g id="text_4">
      <!-- 6 -->
      <g style="fill:#262626;" transform="translate(392.738727 459.257422)scale(0.165 -0.165)">
       <defs>
        <path d="M 2113 2584 
Q 1688 2584 1439 2293 
Q 1191 2003 1191 1497 
Q 1191 994 1439 701 
Q 1688 409 2113 409 
Q 2538 409 2786 701 
Q 3034 994 3034 1497 
Q 3034 2003 2786 2293 
Q 2538 2584 2113 2584 
z
M 3366 4563 
L 3366 3988 
Q 3128 4100 2886 4159 
Q 2644 4219 2406 4219 
Q 1781 4219 1451 3797 
Q 1122 3375 1075 2522 
Q 1259 2794 1537 2939 
Q 1816 3084 2150 3084 
Q 2853 3084 3261 2657 
Q 3669 2231 3669 1497 
Q 3669 778 3244 343 
Q 2819 -91 2113 -91 
Q 1303 -91 875 529 
Q 447 1150 447 2328 
Q 447 3434 972 4092 
Q 1497 4750 2381 4750 
Q 2619 4750 2861 4703 
Q 3103 4656 3366 4563 
z
" id="DejaVuSans-36" transform="scale(0.015625)"/>
       </defs>
       <use xlink:href="#DejaVuSans-36"/>
      </g>
     </g>
    </g>
    <g id="xtick_5">
     <g id="text_5">
      <!-- 8 -->
      <g style="fill:#262626;" transform="translate(496.490357 459.257422)scale(0.165 -0.165)">
       <defs>
        <path d="M 2034 2216 
Q 1584 2216 1326 1975 
Q 1069 1734 1069 1313 
Q 1069 891 1326 650 
Q 1584 409 2034 409 
Q 2484 409 2743 651 
Q 3003 894 3003 1313 
Q 3003 1734 2745 1975 
Q 2488 2216 2034 2216 
z
M 1403 2484 
Q 997 2584 770 2862 
Q 544 3141 544 3541 
Q 544 4100 942 4425 
Q 1341 4750 2034 4750 
Q 2731 4750 3128 4425 
Q 3525 4100 3525 3541 
Q 3525 3141 3298 2862 
Q 3072 2584 2669 2484 
Q 3125 2378 3379 2068 
Q 3634 1759 3634 1313 
Q 3634 634 3220 271 
Q 2806 -91 2034 -91 
Q 1263 -91 848 271 
Q 434 634 434 1313 
Q 434 1759 690 2068 
Q 947 2378 1403 2484 
z
M 1172 3481 
Q 1172 3119 1398 2916 
Q 1625 2713 2034 2713 
Q 2441 2713 2670 2916 
Q 2900 3119 2900 3481 
Q 2900 3844 2670 4047 
Q 2441 4250 2034 4250 
Q 1625 4250 1398 4047 
Q 1172 3844 1172 3481 
z
" id="DejaVuSans-38" transform="scale(0.015625)"/>
       </defs>
       <use xlink:href="#DejaVuSans-38"/>
      </g>
     </g>
    </g>
    <g id="text_6">
     <!-- Human ratings (euclidean distance) -->
     <g style="fill:#262626;" transform="translate(169.766719 480.366094)scale(0.18 -0.18)">
      <defs>
       <path d="M 628 4666 
L 1259 4666 
L 1259 2753 
L 3553 2753 
L 3553 4666 
L 4184 4666 
L 4184 0 
L 3553 0 
L 3553 2222 
L 1259 2222 
L 1259 0 
L 628 0 
L 628 4666 
z
" id="DejaVuSans-48" transform="scale(0.015625)"/>
       <path d="M 544 1381 
L 544 3500 
L 1119 3500 
L 1119 1403 
Q 1119 906 1312 657 
Q 1506 409 1894 409 
Q 2359 409 2629 706 
Q 2900 1003 2900 1516 
L 2900 3500 
L 3475 3500 
L 3475 0 
L 2900 0 
L 2900 538 
Q 2691 219 2414 64 
Q 2138 -91 1772 -91 
Q 1169 -91 856 284 
Q 544 659 544 1381 
z
M 1991 3584 
L 1991 3584 
z
" id="DejaVuSans-75" transform="scale(0.015625)"/>
       <path d="M 3328 2828 
Q 3544 3216 3844 3400 
Q 4144 3584 4550 3584 
Q 5097 3584 5394 3201 
Q 5691 2819 5691 2113 
L 5691 0 
L 5113 0 
L 5113 2094 
Q 5113 2597 4934 2840 
Q 4756 3084 4391 3084 
Q 3944 3084 3684 2787 
Q 3425 2491 3425 1978 
L 3425 0 
L 2847 0 
L 2847 2094 
Q 2847 2600 2669 2842 
Q 2491 3084 2119 3084 
Q 1678 3084 1418 2786 
Q 1159 2488 1159 1978 
L 1159 0 
L 581 0 
L 581 3500 
L 1159 3500 
L 1159 2956 
Q 1356 3278 1631 3431 
Q 1906 3584 2284 3584 
Q 2666 3584 2933 3390 
Q 3200 3197 3328 2828 
z
" id="DejaVuSans-6d" transform="scale(0.015625)"/>
       <path d="M 2194 1759 
Q 1497 1759 1228 1600 
Q 959 1441 959 1056 
Q 959 750 1161 570 
Q 1363 391 1709 391 
Q 2188 391 2477 730 
Q 2766 1069 2766 1631 
L 2766 1759 
L 2194 1759 
z
M 3341 1997 
L 3341 0 
L 2766 0 
L 2766 531 
Q 2569 213 2275 61 
Q 1981 -91 1556 -91 
Q 1019 -91 701 211 
Q 384 513 384 1019 
Q 384 1609 779 1909 
Q 1175 2209 1959 2209 
L 2766 2209 
L 2766 2266 
Q 2766 2663 2505 2880 
Q 2244 3097 1772 3097 
Q 1472 3097 1187 3025 
Q 903 2953 641 2809 
L 641 3341 
Q 956 3463 1253 3523 
Q 1550 3584 1831 3584 
Q 2591 3584 2966 3190 
Q 3341 2797 3341 1997 
z
" id="DejaVuSans-61" transform="scale(0.015625)"/>
       <path d="M 3513 2113 
L 3513 0 
L 2938 0 
L 2938 2094 
Q 2938 2591 2744 2837 
Q 2550 3084 2163 3084 
Q 1697 3084 1428 2787 
Q 1159 2491 1159 1978 
L 1159 0 
L 581 0 
L 581 3500 
L 1159 3500 
L 1159 2956 
Q 1366 3272 1645 3428 
Q 1925 3584 2291 3584 
Q 2894 3584 3203 3211 
Q 3513 2838 3513 2113 
z
" id="DejaVuSans-6e" transform="scale(0.015625)"/>
       <path id="DejaVuSans-20" transform="scale(0.015625)"/>
       <path d="M 2631 2963 
Q 2534 3019 2420 3045 
Q 2306 3072 2169 3072 
Q 1681 3072 1420 2755 
Q 1159 2438 1159 1844 
L 1159 0 
L 581 0 
L 581 3500 
L 1159 3500 
L 1159 2956 
Q 1341 3275 1631 3429 
Q 1922 3584 2338 3584 
Q 2397 3584 2469 3576 
Q 2541 3569 2628 3553 
L 2631 2963 
z
" id="DejaVuSans-72" transform="scale(0.015625)"/>
       <path d="M 1172 4494 
L 1172 3500 
L 2356 3500 
L 2356 3053 
L 1172 3053 
L 1172 1153 
Q 1172 725 1289 603 
Q 1406 481 1766 481 
L 2356 481 
L 2356 0 
L 1766 0 
Q 1100 0 847 248 
Q 594 497 594 1153 
L 594 3053 
L 172 3053 
L 172 3500 
L 594 3500 
L 594 4494 
L 1172 4494 
z
" id="DejaVuSans-74" transform="scale(0.015625)"/>
       <path d="M 603 3500 
L 1178 3500 
L 1178 0 
L 603 0 
L 603 3500 
z
M 603 4863 
L 1178 4863 
L 1178 4134 
L 603 4134 
L 603 4863 
z
" id="DejaVuSans-69" transform="scale(0.015625)"/>
       <path d="M 2906 1791 
Q 2906 2416 2648 2759 
Q 2391 3103 1925 3103 
Q 1463 3103 1205 2759 
Q 947 2416 947 1791 
Q 947 1169 1205 825 
Q 1463 481 1925 481 
Q 2391 481 2648 825 
Q 2906 1169 2906 1791 
z
M 3481 434 
Q 3481 -459 3084 -895 
Q 2688 -1331 1869 -1331 
Q 1566 -1331 1297 -1286 
Q 1028 -1241 775 -1147 
L 775 -588 
Q 1028 -725 1275 -790 
Q 1522 -856 1778 -856 
Q 2344 -856 2625 -561 
Q 2906 -266 2906 331 
L 2906 616 
Q 2728 306 2450 153 
Q 2172 0 1784 0 
Q 1141 0 747 490 
Q 353 981 353 1791 
Q 353 2603 747 3093 
Q 1141 3584 1784 3584 
Q 2172 3584 2450 3431 
Q 2728 3278 2906 2969 
L 2906 3500 
L 3481 3500 
L 3481 434 
z
" id="DejaVuSans-67" transform="scale(0.015625)"/>
       <path d="M 2834 3397 
L 2834 2853 
Q 2591 2978 2328 3040 
Q 2066 3103 1784 3103 
Q 1356 3103 1142 2972 
Q 928 2841 928 2578 
Q 928 2378 1081 2264 
Q 1234 2150 1697 2047 
L 1894 2003 
Q 2506 1872 2764 1633 
Q 3022 1394 3022 966 
Q 3022 478 2636 193 
Q 2250 -91 1575 -91 
Q 1294 -91 989 -36 
Q 684 19 347 128 
L 347 722 
Q 666 556 975 473 
Q 1284 391 1588 391 
Q 1994 391 2212 530 
Q 2431 669 2431 922 
Q 2431 1156 2273 1281 
Q 2116 1406 1581 1522 
L 1381 1569 
Q 847 1681 609 1914 
Q 372 2147 372 2553 
Q 372 3047 722 3315 
Q 1072 3584 1716 3584 
Q 2034 3584 2315 3537 
Q 2597 3491 2834 3397 
z
" id="DejaVuSans-73" transform="scale(0.015625)"/>
       <path d="M 1984 4856 
Q 1566 4138 1362 3434 
Q 1159 2731 1159 2009 
Q 1159 1288 1364 580 
Q 1569 -128 1984 -844 
L 1484 -844 
Q 1016 -109 783 600 
Q 550 1309 550 2009 
Q 550 2706 781 3412 
Q 1013 4119 1484 4856 
L 1984 4856 
z
" id="DejaVuSans-28" transform="scale(0.015625)"/>
       <path d="M 3597 1894 
L 3597 1613 
L 953 1613 
Q 991 1019 1311 708 
Q 1631 397 2203 397 
Q 2534 397 2845 478 
Q 3156 559 3463 722 
L 3463 178 
Q 3153 47 2828 -22 
Q 2503 -91 2169 -91 
Q 1331 -91 842 396 
Q 353 884 353 1716 
Q 353 2575 817 3079 
Q 1281 3584 2069 3584 
Q 2775 3584 3186 3129 
Q 3597 2675 3597 1894 
z
M 3022 2063 
Q 3016 2534 2758 2815 
Q 2500 3097 2075 3097 
Q 1594 3097 1305 2825 
Q 1016 2553 972 2059 
L 3022 2063 
z
" id="DejaVuSans-65" transform="scale(0.015625)"/>
       <path d="M 3122 3366 
L 3122 2828 
Q 2878 2963 2633 3030 
Q 2388 3097 2138 3097 
Q 1578 3097 1268 2742 
Q 959 2388 959 1747 
Q 959 1106 1268 751 
Q 1578 397 2138 397 
Q 2388 397 2633 464 
Q 2878 531 3122 666 
L 3122 134 
Q 2881 22 2623 -34 
Q 2366 -91 2075 -91 
Q 1284 -91 818 406 
Q 353 903 353 1747 
Q 353 2603 823 3093 
Q 1294 3584 2113 3584 
Q 2378 3584 2631 3529 
Q 2884 3475 3122 3366 
z
" id="DejaVuSans-63" transform="scale(0.015625)"/>
       <path d="M 603 4863 
L 1178 4863 
L 1178 0 
L 603 0 
L 603 4863 
z
" id="DejaVuSans-6c" transform="scale(0.015625)"/>
       <path d="M 2906 2969 
L 2906 4863 
L 3481 4863 
L 3481 0 
L 2906 0 
L 2906 525 
Q 2725 213 2448 61 
Q 2172 -91 1784 -91 
Q 1150 -91 751 415 
Q 353 922 353 1747 
Q 353 2572 751 3078 
Q 1150 3584 1784 3584 
Q 2172 3584 2448 3432 
Q 2725 3281 2906 2969 
z
M 947 1747 
Q 947 1113 1208 752 
Q 1469 391 1925 391 
Q 2381 391 2643 752 
Q 2906 1113 2906 1747 
Q 2906 2381 2643 2742 
Q 2381 3103 1925 3103 
Q 1469 3103 1208 2742 
Q 947 2381 947 1747 
z
" id="DejaVuSans-64" transform="scale(0.015625)"/>
       <path d="M 513 4856 
L 1013 4856 
Q 1481 4119 1714 3412 
Q 1947 2706 1947 2009 
Q 1947 1309 1714 600 
Q 1481 -109 1013 -844 
L 513 -844 
Q 928 -128 1133 580 
Q 1338 1288 1338 2009 
Q 1338 2731 1133 3434 
Q 928 4138 513 4856 
z
" id="DejaVuSans-29" transform="scale(0.015625)"/>
      </defs>
      <use xlink:href="#DejaVuSans-48"/>
      <use x="75.195312" xlink:href="#DejaVuSans-75"/>
      <use x="138.574219" xlink:href="#DejaVuSans-6d"/>
      <use x="235.986328" xlink:href="#DejaVuSans-61"/>
      <use x="297.265625" xlink:href="#DejaVuSans-6e"/>
      <use x="360.644531" xlink:href="#DejaVuSans-20"/>
      <use x="392.431641" xlink:href="#DejaVuSans-72"/>
      <use x="433.544922" xlink:href="#DejaVuSans-61"/>
      <use x="494.824219" xlink:href="#DejaVuSans-74"/>
      <use x="534.033203" xlink:href="#DejaVuSans-69"/>
      <use x="561.816406" xlink:href="#DejaVuSans-6e"/>
      <use x="625.195312" xlink:href="#DejaVuSans-67"/>
      <use x="688.671875" xlink:href="#DejaVuSans-73"/>
      <use x="740.771484" xlink:href="#DejaVuSans-20"/>
      <use x="772.558594" xlink:href="#DejaVuSans-28"/>
      <use x="811.572266" xlink:href="#DejaVuSans-65"/>
      <use x="873.095703" xlink:href="#DejaVuSans-75"/>
      <use x="936.474609" xlink:href="#DejaVuSans-63"/>
      <use x="991.455078" xlink:href="#DejaVuSans-6c"/>
      <use x="1019.238281" xlink:href="#DejaVuSans-69"/>
      <use x="1047.021484" xlink:href="#DejaVuSans-64"/>
      <use x="1110.498047" xlink:href="#DejaVuSans-65"/>
      <use x="1172.021484" xlink:href="#DejaVuSans-61"/>
      <use x="1233.300781" xlink:href="#DejaVuSans-6e"/>
      <use x="1296.679688" xlink:href="#DejaVuSans-20"/>
      <use x="1328.466797" xlink:href="#DejaVuSans-64"/>
      <use x="1391.943359" xlink:href="#DejaVuSans-69"/>
      <use x="1419.726562" xlink:href="#DejaVuSans-73"/>
      <use x="1471.826172" xlink:href="#DejaVuSans-74"/>
      <use x="1511.035156" xlink:href="#DejaVuSans-61"/>
      <use x="1572.314453" xlink:href="#DejaVuSans-6e"/>
      <use x="1635.693359" xlink:href="#DejaVuSans-63"/>
      <use x="1690.673828" xlink:href="#DejaVuSans-65"/>
      <use x="1752.197266" xlink:href="#DejaVuSans-29"/>
     </g>
    </g>
   </g>
   <g id="matplotlib.axis_2">
    <g id="ytick_1">
     <g id="text_7">
      <!-- 0.0 -->
      <g style="fill:#262626;" transform="translate(40.849844 430.275969)scale(0.165 -0.165)">
       <defs>
        <path d="M 684 794 
L 1344 794 
L 1344 0 
L 684 0 
L 684 794 
z
" id="DejaVuSans-2e" transform="scale(0.015625)"/>
       </defs>
       <use xlink:href="#DejaVuSans-30"/>
       <use x="63.623047" xlink:href="#DejaVuSans-2e"/>
       <use x="95.410156" xlink:href="#DejaVuSans-30"/>
      </g>
     </g>
    </g>
    <g id="ytick_2">
     <g id="text_8">
      <!-- 0.1 -->
      <g style="fill:#262626;" transform="translate(40.849844 354.842802)scale(0.165 -0.165)">
       <defs>
        <path d="M 794 531 
L 1825 531 
L 1825 4091 
L 703 3866 
L 703 4441 
L 1819 4666 
L 2450 4666 
L 2450 531 
L 3481 531 
L 3481 0 
L 794 0 
L 794 531 
z
" id="DejaVuSans-31" transform="scale(0.015625)"/>
       </defs>
       <use xlink:href="#DejaVuSans-30"/>
       <use x="63.623047" xlink:href="#DejaVuSans-2e"/>
       <use x="95.410156" xlink:href="#DejaVuSans-31"/>
      </g>
     </g>
    </g>
    <g id="ytick_3">
     <g id="text_9">
      <!-- 0.2 -->
      <g style="fill:#262626;" transform="translate(40.849844 279.409636)scale(0.165 -0.165)">
       <use xlink:href="#DejaVuSans-30"/>
       <use x="63.623047" xlink:href="#DejaVuSans-2e"/>
       <use x="95.410156" xlink:href="#DejaVuSans-32"/>
      </g>
     </g>
    </g>
    <g id="ytick_4">
     <g id="text_10">
      <!-- 0.3 -->
      <g style="fill:#262626;" transform="translate(40.849844 203.976469)scale(0.165 -0.165)">
       <defs>
        <path d="M 2597 2516 
Q 3050 2419 3304 2112 
Q 3559 1806 3559 1356 
Q 3559 666 3084 287 
Q 2609 -91 1734 -91 
Q 1441 -91 1130 -33 
Q 819 25 488 141 
L 488 750 
Q 750 597 1062 519 
Q 1375 441 1716 441 
Q 2309 441 2620 675 
Q 2931 909 2931 1356 
Q 2931 1769 2642 2001 
Q 2353 2234 1838 2234 
L 1294 2234 
L 1294 2753 
L 1863 2753 
Q 2328 2753 2575 2939 
Q 2822 3125 2822 3475 
Q 2822 3834 2567 4026 
Q 2313 4219 1838 4219 
Q 1578 4219 1281 4162 
Q 984 4106 628 3988 
L 628 4550 
Q 988 4650 1302 4700 
Q 1616 4750 1894 4750 
Q 2613 4750 3031 4423 
Q 3450 4097 3450 3541 
Q 3450 3153 3228 2886 
Q 3006 2619 2597 2516 
z
" id="DejaVuSans-33" transform="scale(0.015625)"/>
       </defs>
       <use xlink:href="#DejaVuSans-30"/>
       <use x="63.623047" xlink:href="#DejaVuSans-2e"/>
       <use x="95.410156" xlink:href="#DejaVuSans-33"/>
      </g>
     </g>
    </g>
    <g id="ytick_5">
     <g id="text_11">
      <!-- 0.4 -->
      <g style="fill:#262626;" transform="translate(40.849844 128.543303)scale(0.165 -0.165)">
       <use xlink:href="#DejaVuSans-30"/>
       <use x="63.623047" xlink:href="#DejaVuSans-2e"/>
       <use x="95.410156" xlink:href="#DejaVuSans-34"/>
      </g>
     </g>
    </g>
    <g id="ytick_6">
     <g id="text_12">
      <!-- 0.5 -->
      <g style="fill:#262626;" transform="translate(40.849844 53.110136)scale(0.165 -0.165)">
       <defs>
        <path d="M 691 4666 
L 3169 4666 
L 3169 4134 
L 1269 4134 
L 1269 2991 
Q 1406 3038 1543 3061 
Q 1681 3084 1819 3084 
Q 2600 3084 3056 2656 
Q 3513 2228 3513 1497 
Q 3513 744 3044 326 
Q 2575 -91 1722 -91 
Q 1428 -91 1123 -41 
Q 819 9 494 109 
L 494 744 
Q 775 591 1075 516 
Q 1375 441 1709 441 
Q 2250 441 2565 725 
Q 2881 1009 2881 1497 
Q 2881 1984 2565 2268 
Q 2250 2553 1709 2553 
Q 1456 2553 1204 2497 
Q 953 2441 691 2322 
L 691 4666 
z
" id="DejaVuSans-35" transform="scale(0.015625)"/>
       </defs>
       <use xlink:href="#DejaVuSans-30"/>
       <use x="63.623047" xlink:href="#DejaVuSans-2e"/>
       <use x="95.410156" xlink:href="#DejaVuSans-35"/>
      </g>
     </g>
    </g>
    <g id="text_13">
     <!-- Osgood space (euclidean distance) -->
     <g style="fill:#262626;" transform="translate(33.106406 386.348906)rotate(-90)scale(0.18 -0.18)">
      <defs>
       <path d="M 2522 4238 
Q 1834 4238 1429 3725 
Q 1025 3213 1025 2328 
Q 1025 1447 1429 934 
Q 1834 422 2522 422 
Q 3209 422 3611 934 
Q 4013 1447 4013 2328 
Q 4013 3213 3611 3725 
Q 3209 4238 2522 4238 
z
M 2522 4750 
Q 3503 4750 4090 4092 
Q 4678 3434 4678 2328 
Q 4678 1225 4090 567 
Q 3503 -91 2522 -91 
Q 1538 -91 948 565 
Q 359 1222 359 2328 
Q 359 3434 948 4092 
Q 1538 4750 2522 4750 
z
" id="DejaVuSans-4f" transform="scale(0.015625)"/>
       <path d="M 1959 3097 
Q 1497 3097 1228 2736 
Q 959 2375 959 1747 
Q 959 1119 1226 758 
Q 1494 397 1959 397 
Q 2419 397 2687 759 
Q 2956 1122 2956 1747 
Q 2956 2369 2687 2733 
Q 2419 3097 1959 3097 
z
M 1959 3584 
Q 2709 3584 3137 3096 
Q 3566 2609 3566 1747 
Q 3566 888 3137 398 
Q 2709 -91 1959 -91 
Q 1206 -91 779 398 
Q 353 888 353 1747 
Q 353 2609 779 3096 
Q 1206 3584 1959 3584 
z
" id="DejaVuSans-6f" transform="scale(0.015625)"/>
       <path d="M 1159 525 
L 1159 -1331 
L 581 -1331 
L 581 3500 
L 1159 3500 
L 1159 2969 
Q 1341 3281 1617 3432 
Q 1894 3584 2278 3584 
Q 2916 3584 3314 3078 
Q 3713 2572 3713 1747 
Q 3713 922 3314 415 
Q 2916 -91 2278 -91 
Q 1894 -91 1617 61 
Q 1341 213 1159 525 
z
M 3116 1747 
Q 3116 2381 2855 2742 
Q 2594 3103 2138 3103 
Q 1681 3103 1420 2742 
Q 1159 2381 1159 1747 
Q 1159 1113 1420 752 
Q 1681 391 2138 391 
Q 2594 391 2855 752 
Q 3116 1113 3116 1747 
z
" id="DejaVuSans-70" transform="scale(0.015625)"/>
      </defs>
      <use xlink:href="#DejaVuSans-4f"/>
      <use x="78.710938" xlink:href="#DejaVuSans-73"/>
      <use x="130.810547" xlink:href="#DejaVuSans-67"/>
      <use x="194.287109" xlink:href="#DejaVuSans-6f"/>
      <use x="255.46875" xlink:href="#DejaVuSans-6f"/>
      <use x="316.650391" xlink:href="#DejaVuSans-64"/>
      <use x="380.126953" xlink:href="#DejaVuSans-20"/>
      <use x="411.914062" xlink:href="#DejaVuSans-73"/>
      <use x="464.013672" xlink:href="#DejaVuSans-70"/>
      <use x="527.490234" xlink:href="#DejaVuSans-61"/>
      <use x="588.769531" xlink:href="#DejaVuSans-63"/>
      <use x="643.75" xlink:href="#DejaVuSans-65"/>
      <use x="705.273438" xlink:href="#DejaVuSans-20"/>
      <use x="737.060547" xlink:href="#DejaVuSans-28"/>
      <use x="776.074219" xlink:href="#DejaVuSans-65"/>
      <use x="837.597656" xlink:href="#DejaVuSans-75"/>
      <use x="900.976562" xlink:href="#DejaVuSans-63"/>
      <use x="955.957031" xlink:href="#DejaVuSans-6c"/>
      <use x="983.740234" xlink:href="#DejaVuSans-69"/>
      <use x="1011.523438" xlink:href="#DejaVuSans-64"/>
      <use x="1075" xlink:href="#DejaVuSans-65"/>
      <use x="1136.523438" xlink:href="#DejaVuSans-61"/>
      <use x="1197.802734" xlink:href="#DejaVuSans-6e"/>
      <use x="1261.181641" xlink:href="#DejaVuSans-20"/>
      <use x="1292.96875" xlink:href="#DejaVuSans-64"/>
      <use x="1356.445312" xlink:href="#DejaVuSans-69"/>
      <use x="1384.228516" xlink:href="#DejaVuSans-73"/>
      <use x="1436.328125" xlink:href="#DejaVuSans-74"/>
      <use x="1475.537109" xlink:href="#DejaVuSans-61"/>
      <use x="1536.816406" xlink:href="#DejaVuSans-6e"/>
      <use x="1600.195312" xlink:href="#DejaVuSans-63"/>
      <use x="1655.175781" xlink:href="#DejaVuSans-65"/>
      <use x="1716.699219" xlink:href="#DejaVuSans-29"/>
     </g>
    </g>
   </g>
   <g id="PathCollection_1">
    <defs>
     <path d="M 0 3.872983 
C 1.027127 3.872983 2.012324 3.464901 2.738613 2.738613 
C 3.464901 2.012324 3.872983 1.027127 3.872983 0 
C 3.872983 -1.027127 3.464901 -2.012324 2.738613 -2.738613 
C 2.012324 -3.464901 1.027127 -3.872983 0 -3.872983 
C -1.027127 -3.872983 -2.012324 -3.464901 -2.738613 -2.738613 
C -3.464901 -2.012324 -3.872983 -1.027127 -3.872983 0 
C -3.872983 1.027127 -3.464901 2.012324 -2.738613 2.738613 
C -2.012324 3.464901 -1.027127 3.872983 0 3.872983 
z
" id="m6e1c6f9797" style="stroke:#000000;stroke-opacity:0.8;stroke-width:0.7;"/>
    </defs>
    <g clip-path="url(#pe5eb92befa)">
     <use style="fill:#4c72b0;fill-opacity:0.8;stroke:#000000;stroke-opacity:0.8;stroke-width:0.7;" x="217.72035" xlink:href="#m6e1c6f9797" y="373.650233"/>
     <use style="fill:#4c72b0;fill-opacity:0.8;stroke:#000000;stroke-opacity:0.8;stroke-width:0.7;" x="289.46756" xlink:href="#m6e1c6f9797" y="158.87703"/>
     <use style="fill:#4c72b0;fill-opacity:0.8;stroke:#000000;stroke-opacity:0.8;stroke-width:0.7;" x="174.189543" xlink:href="#m6e1c6f9797" y="169.601942"/>
     <use style="fill:#4c72b0;fill-opacity:0.8;stroke:#000000;stroke-opacity:0.8;stroke-width:0.7;" x="242.99203" xlink:href="#m6e1c6f9797" y="284.245185"/>
     <use style="fill:#4c72b0;fill-opacity:0.8;stroke:#000000;stroke-opacity:0.8;stroke-width:0.7;" x="112.847552" xlink:href="#m6e1c6f9797" y="283.295832"/>
     <use style="fill:#4c72b0;fill-opacity:0.8;stroke:#000000;stroke-opacity:0.8;stroke-width:0.7;" x="152.487949" xlink:href="#m6e1c6f9797" y="295.50928"/>
     <use style="fill:#4c72b0;fill-opacity:0.8;stroke:#000000;stroke-opacity:0.8;stroke-width:0.7;" x="260.348623" xlink:href="#m6e1c6f9797" y="411.962864"/>
     <use style="fill:#4c72b0;fill-opacity:0.8;stroke:#000000;stroke-opacity:0.8;stroke-width:0.7;" x="135.966108" xlink:href="#m6e1c6f9797" y="383.362879"/>
     <use style="fill:#4c72b0;fill-opacity:0.8;stroke:#000000;stroke-opacity:0.8;stroke-width:0.7;" x="126.512414" xlink:href="#m6e1c6f9797" y="155.647233"/>
     <use style="fill:#4c72b0;fill-opacity:0.8;stroke:#000000;stroke-opacity:0.8;stroke-width:0.7;" x="112.722513" xlink:href="#m6e1c6f9797" y="279.169943"/>
     <use style="fill:#4c72b0;fill-opacity:0.8;stroke:#000000;stroke-opacity:0.8;stroke-width:0.7;" x="338.145411" xlink:href="#m6e1c6f9797" y="110.252512"/>
     <use style="fill:#4c72b0;fill-opacity:0.8;stroke:#000000;stroke-opacity:0.8;stroke-width:0.7;" x="269.972929" xlink:href="#m6e1c6f9797" y="103.884182"/>
     <use style="fill:#4c72b0;fill-opacity:0.8;stroke:#000000;stroke-opacity:0.8;stroke-width:0.7;" x="203.116661" xlink:href="#m6e1c6f9797" y="310.881501"/>
     <use style="fill:#4c72b0;fill-opacity:0.8;stroke:#000000;stroke-opacity:0.8;stroke-width:0.7;" x="257.977719" xlink:href="#m6e1c6f9797" y="244.590688"/>
     <use style="fill:#4c72b0;fill-opacity:0.8;stroke:#000000;stroke-opacity:0.8;stroke-width:0.7;" x="235.594319" xlink:href="#m6e1c6f9797" y="103.242461"/>
     <use style="fill:#4c72b0;fill-opacity:0.8;stroke:#000000;stroke-opacity:0.8;stroke-width:0.7;" x="472.394641" xlink:href="#m6e1c6f9797" y="377.593565"/>
     <use style="fill:#4c72b0;fill-opacity:0.8;stroke:#000000;stroke-opacity:0.8;stroke-width:0.7;" x="487.316516" xlink:href="#m6e1c6f9797" y="329.996406"/>
     <use style="fill:#4c72b0;fill-opacity:0.8;stroke:#000000;stroke-opacity:0.8;stroke-width:0.7;" x="453.450991" xlink:href="#m6e1c6f9797" y="162.726752"/>
     <use style="fill:#4c72b0;fill-opacity:0.8;stroke:#000000;stroke-opacity:0.8;stroke-width:0.7;" x="488.169504" xlink:href="#m6e1c6f9797" y="291.190536"/>
     <use style="fill:#4c72b0;fill-opacity:0.8;stroke:#000000;stroke-opacity:0.8;stroke-width:0.7;" x="474.0484" xlink:href="#m6e1c6f9797" y="365.578977"/>
     <use style="fill:#4c72b0;fill-opacity:0.8;stroke:#000000;stroke-opacity:0.8;stroke-width:0.7;" x="347.999172" xlink:href="#m6e1c6f9797" y="130.826346"/>
     <use style="fill:#4c72b0;fill-opacity:0.8;stroke:#000000;stroke-opacity:0.8;stroke-width:0.7;" x="493.441114" xlink:href="#m6e1c6f9797" y="350.388509"/>
     <use style="fill:#4c72b0;fill-opacity:0.8;stroke:#000000;stroke-opacity:0.8;stroke-width:0.7;" x="516.618986" xlink:href="#m6e1c6f9797" y="300.142697"/>
     <use style="fill:#4c72b0;fill-opacity:0.8;stroke:#000000;stroke-opacity:0.8;stroke-width:0.7;" x="486.493124" xlink:href="#m6e1c6f9797" y="122.798199"/>
     <use style="fill:#4c72b0;fill-opacity:0.8;stroke:#000000;stroke-opacity:0.8;stroke-width:0.7;" x="518.756962" xlink:href="#m6e1c6f9797" y="250.778193"/>
     <use style="fill:#4c72b0;fill-opacity:0.8;stroke:#000000;stroke-opacity:0.8;stroke-width:0.7;" x="505.646822" xlink:href="#m6e1c6f9797" y="340.445807"/>
     <use style="fill:#4c72b0;fill-opacity:0.8;stroke:#000000;stroke-opacity:0.8;stroke-width:0.7;" x="382.984728" xlink:href="#m6e1c6f9797" y="98.967542"/>
     <use style="fill:#4c72b0;fill-opacity:0.8;stroke:#000000;stroke-opacity:0.8;stroke-width:0.7;" x="123.028679" xlink:href="#m6e1c6f9797" y="381.535493"/>
     <use style="fill:#4c72b0;fill-opacity:0.8;stroke:#000000;stroke-opacity:0.8;stroke-width:0.7;" x="507.273603" xlink:href="#m6e1c6f9797" y="321.580908"/>
     <use style="fill:#4c72b0;fill-opacity:0.8;stroke:#000000;stroke-opacity:0.8;stroke-width:0.7;" x="548.624673" xlink:href="#m6e1c6f9797" y="272.368493"/>
     <use style="fill:#4c72b0;fill-opacity:0.8;stroke:#000000;stroke-opacity:0.8;stroke-width:0.7;" x="528.954905" xlink:href="#m6e1c6f9797" y="92.261014"/>
     <use style="fill:#4c72b0;fill-opacity:0.8;stroke:#000000;stroke-opacity:0.8;stroke-width:0.7;" x="554.020613" xlink:href="#m6e1c6f9797" y="219.637887"/>
     <use style="fill:#4c72b0;fill-opacity:0.8;stroke:#000000;stroke-opacity:0.8;stroke-width:0.7;" x="543.761405" xlink:href="#m6e1c6f9797" y="313.004501"/>
     <use style="fill:#4c72b0;fill-opacity:0.8;stroke:#000000;stroke-opacity:0.8;stroke-width:0.7;" x="433.005741" xlink:href="#m6e1c6f9797" y="73.966228"/>
     <use style="fill:#4c72b0;fill-opacity:0.8;stroke:#000000;stroke-opacity:0.8;stroke-width:0.7;" x="185.558687" xlink:href="#m6e1c6f9797" y="349.019645"/>
     <use style="fill:#4c72b0;fill-opacity:0.8;stroke:#000000;stroke-opacity:0.8;stroke-width:0.7;" x="152.420516" xlink:href="#m6e1c6f9797" y="391.470472"/>
     <use style="fill:#4c72b0;fill-opacity:0.8;stroke:#000000;stroke-opacity:0.8;stroke-width:0.7;" x="469.014048" xlink:href="#m6e1c6f9797" y="323.998771"/>
     <use style="fill:#4c72b0;fill-opacity:0.8;stroke:#000000;stroke-opacity:0.8;stroke-width:0.7;" x="517.792255" xlink:href="#m6e1c6f9797" y="284.193441"/>
     <use style="fill:#4c72b0;fill-opacity:0.8;stroke:#000000;stroke-opacity:0.8;stroke-width:0.7;" x="504.639264" xlink:href="#m6e1c6f9797" y="189.011792"/>
     <use style="fill:#4c72b0;fill-opacity:0.8;stroke:#000000;stroke-opacity:0.8;stroke-width:0.7;" x="524.948586" xlink:href="#m6e1c6f9797" y="310.594646"/>
     <use style="fill:#4c72b0;fill-opacity:0.8;stroke:#000000;stroke-opacity:0.8;stroke-width:0.7;" x="516.465509" xlink:href="#m6e1c6f9797" y="312.270137"/>
     <use style="fill:#4c72b0;fill-opacity:0.8;stroke:#000000;stroke-opacity:0.8;stroke-width:0.7;" x="415.707604" xlink:href="#m6e1c6f9797" y="176.300144"/>
     <use style="fill:#4c72b0;fill-opacity:0.8;stroke:#000000;stroke-opacity:0.8;stroke-width:0.7;" x="194.131232" xlink:href="#m6e1c6f9797" y="366.138008"/>
     <use style="fill:#4c72b0;fill-opacity:0.8;stroke:#000000;stroke-opacity:0.8;stroke-width:0.7;" x="171.342285" xlink:href="#m6e1c6f9797" y="345.766485"/>
     <use style="fill:#4c72b0;fill-opacity:0.8;stroke:#000000;stroke-opacity:0.8;stroke-width:0.7;" x="129.996135" xlink:href="#m6e1c6f9797" y="321.506594"/>
     <use style="fill:#4c72b0;fill-opacity:0.8;stroke:#000000;stroke-opacity:0.8;stroke-width:0.7;" x="493.994588" xlink:href="#m6e1c6f9797" y="321.12847"/>
     <use style="fill:#4c72b0;fill-opacity:0.8;stroke:#000000;stroke-opacity:0.8;stroke-width:0.7;" x="553.343505" xlink:href="#m6e1c6f9797" y="279.141767"/>
     <use style="fill:#4c72b0;fill-opacity:0.8;stroke:#000000;stroke-opacity:0.8;stroke-width:0.7;" x="545.858207" xlink:href="#m6e1c6f9797" y="67.238388"/>
     <use style="fill:#4c72b0;fill-opacity:0.8;stroke:#000000;stroke-opacity:0.8;stroke-width:0.7;" x="562.234091" xlink:href="#m6e1c6f9797" y="195.730962"/>
     <use style="fill:#4c72b0;fill-opacity:0.8;stroke:#000000;stroke-opacity:0.8;stroke-width:0.7;" x="555.371043" xlink:href="#m6e1c6f9797" y="316.906043"/>
     <use style="fill:#4c72b0;fill-opacity:0.8;stroke:#000000;stroke-opacity:0.8;stroke-width:0.7;" x="461.036573" xlink:href="#m6e1c6f9797" y="38.43"/>
     <use style="fill:#4c72b0;fill-opacity:0.8;stroke:#000000;stroke-opacity:0.8;stroke-width:0.7;" x="239.919786" xlink:href="#m6e1c6f9797" y="328.243219"/>
     <use style="fill:#4c72b0;fill-opacity:0.8;stroke:#000000;stroke-opacity:0.8;stroke-width:0.7;" x="212.53895" xlink:href="#m6e1c6f9797" y="363.201059"/>
     <use style="fill:#4c72b0;fill-opacity:0.8;stroke:#000000;stroke-opacity:0.8;stroke-width:0.7;" x="152.14884" xlink:href="#m6e1c6f9797" y="378.3914"/>
     <use style="fill:#4c72b0;fill-opacity:0.8;stroke:#000000;stroke-opacity:0.8;stroke-width:0.7;" x="134.94493" xlink:href="#m6e1c6f9797" y="284.976242"/>
     <use style="fill:#4c72b0;fill-opacity:0.8;stroke:#000000;stroke-opacity:0.8;stroke-width:0.7;" x="357.597841" xlink:href="#m6e1c6f9797" y="347.267309"/>
     <use style="fill:#4c72b0;fill-opacity:0.8;stroke:#000000;stroke-opacity:0.8;stroke-width:0.7;" x="464.361534" xlink:href="#m6e1c6f9797" y="298.515313"/>
     <use style="fill:#4c72b0;fill-opacity:0.8;stroke:#000000;stroke-opacity:0.8;stroke-width:0.7;" x="497.407806" xlink:href="#m6e1c6f9797" y="107.332934"/>
     <use style="fill:#4c72b0;fill-opacity:0.8;stroke:#000000;stroke-opacity:0.8;stroke-width:0.7;" x="483.217304" xlink:href="#m6e1c6f9797" y="235.682919"/>
     <use style="fill:#4c72b0;fill-opacity:0.8;stroke:#000000;stroke-opacity:0.8;stroke-width:0.7;" x="488.249062" xlink:href="#m6e1c6f9797" y="339.113716"/>
     <use style="fill:#4c72b0;fill-opacity:0.8;stroke:#000000;stroke-opacity:0.8;stroke-width:0.7;" x="464.189324" xlink:href="#m6e1c6f9797" y="81.169388"/>
     <use style="fill:#4c72b0;fill-opacity:0.8;stroke:#000000;stroke-opacity:0.8;stroke-width:0.7;" x="384.439536" xlink:href="#m6e1c6f9797" y="368.298676"/>
     <use style="fill:#4c72b0;fill-opacity:0.8;stroke:#000000;stroke-opacity:0.8;stroke-width:0.7;" x="379.593228" xlink:href="#m6e1c6f9797" y="405.810509"/>
     <use style="fill:#4c72b0;fill-opacity:0.8;stroke:#000000;stroke-opacity:0.8;stroke-width:0.7;" x="348.53114" xlink:href="#m6e1c6f9797" y="397.688799"/>
     <use style="fill:#4c72b0;fill-opacity:0.8;stroke:#000000;stroke-opacity:0.8;stroke-width:0.7;" x="306.436225" xlink:href="#m6e1c6f9797" y="327.619907"/>
     <use style="fill:#4c72b0;fill-opacity:0.8;stroke:#000000;stroke-opacity:0.8;stroke-width:0.7;" x="298.510313" xlink:href="#m6e1c6f9797" y="381.232528"/>
     <use style="fill:#4c72b0;fill-opacity:0.8;stroke:#000000;stroke-opacity:0.8;stroke-width:0.7;" x="431.581824" xlink:href="#m6e1c6f9797" y="349.524231"/>
     <use style="fill:#4c72b0;fill-opacity:0.8;stroke:#000000;stroke-opacity:0.8;stroke-width:0.7;" x="510.262553" xlink:href="#m6e1c6f9797" y="299.203734"/>
     <use style="fill:#4c72b0;fill-opacity:0.8;stroke:#000000;stroke-opacity:0.8;stroke-width:0.7;" x="518.782379" xlink:href="#m6e1c6f9797" y="130.810169"/>
     <use style="fill:#4c72b0;fill-opacity:0.8;stroke:#000000;stroke-opacity:0.8;stroke-width:0.7;" x="523.293832" xlink:href="#m6e1c6f9797" y="258.413889"/>
     <use style="fill:#4c72b0;fill-opacity:0.8;stroke:#000000;stroke-opacity:0.8;stroke-width:0.7;" x="520.989743" xlink:href="#m6e1c6f9797" y="338.803551"/>
     <use style="fill:#4c72b0;fill-opacity:0.8;stroke:#000000;stroke-opacity:0.8;stroke-width:0.7;" x="452.871911" xlink:href="#m6e1c6f9797" y="108.616682"/>
     <use style="fill:#4c72b0;fill-opacity:0.8;stroke:#000000;stroke-opacity:0.8;stroke-width:0.7;" x="290.175243" xlink:href="#m6e1c6f9797" y="386.364202"/>
     <use style="fill:#4c72b0;fill-opacity:0.8;stroke:#000000;stroke-opacity:0.8;stroke-width:0.7;" x="274.827665" xlink:href="#m6e1c6f9797" y="413.93927"/>
     <use style="fill:#4c72b0;fill-opacity:0.8;stroke:#000000;stroke-opacity:0.8;stroke-width:0.7;" x="230.84949" xlink:href="#m6e1c6f9797" y="385.174822"/>
     <use style="fill:#4c72b0;fill-opacity:0.8;stroke:#000000;stroke-opacity:0.8;stroke-width:0.7;" x="192.423354" xlink:href="#m6e1c6f9797" y="355.701341"/>
     <use style="fill:#4c72b0;fill-opacity:0.8;stroke:#000000;stroke-opacity:0.8;stroke-width:0.7;" x="175.469843" xlink:href="#m6e1c6f9797" y="353.27676"/>
     <use style="fill:#4c72b0;fill-opacity:0.8;stroke:#000000;stroke-opacity:0.8;stroke-width:0.7;" x="210.049303" xlink:href="#m6e1c6f9797" y="395.758204"/>
     <use style="fill:#4c72b0;fill-opacity:0.8;stroke:#000000;stroke-opacity:0.8;stroke-width:0.7;" x="448.575124" xlink:href="#m6e1c6f9797" y="342.612202"/>
     <use style="fill:#4c72b0;fill-opacity:0.8;stroke:#000000;stroke-opacity:0.8;stroke-width:0.7;" x="515.553813" xlink:href="#m6e1c6f9797" y="293.49009"/>
     <use style="fill:#4c72b0;fill-opacity:0.8;stroke:#000000;stroke-opacity:0.8;stroke-width:0.7;" x="515.25806" xlink:href="#m6e1c6f9797" y="106.278612"/>
     <use style="fill:#4c72b0;fill-opacity:0.8;stroke:#000000;stroke-opacity:0.8;stroke-width:0.7;" x="526.269764" xlink:href="#m6e1c6f9797" y="234.451643"/>
     <use style="fill:#4c72b0;fill-opacity:0.8;stroke:#000000;stroke-opacity:0.8;stroke-width:0.7;" x="521.417316" xlink:href="#m6e1c6f9797" y="334.126093"/>
     <use style="fill:#4c72b0;fill-opacity:0.8;stroke:#000000;stroke-opacity:0.8;stroke-width:0.7;" x="439.410232" xlink:href="#m6e1c6f9797" y="82.048138"/>
     <use style="fill:#4c72b0;fill-opacity:0.8;stroke:#000000;stroke-opacity:0.8;stroke-width:0.7;" x="251.867065" xlink:href="#m6e1c6f9797" y="366.48148"/>
     <use style="fill:#4c72b0;fill-opacity:0.8;stroke:#000000;stroke-opacity:0.8;stroke-width:0.7;" x="233.499022" xlink:href="#m6e1c6f9797" y="406.994798"/>
     <use style="fill:#4c72b0;fill-opacity:0.8;stroke:#000000;stroke-opacity:0.8;stroke-width:0.7;" x="187.66771" xlink:href="#m6e1c6f9797" y="402.885535"/>
     <use style="fill:#4c72b0;fill-opacity:0.8;stroke:#000000;stroke-opacity:0.8;stroke-width:0.7;" x="149.770652" xlink:href="#m6e1c6f9797" y="329.156479"/>
     <use style="fill:#4c72b0;fill-opacity:0.8;stroke:#000000;stroke-opacity:0.8;stroke-width:0.7;" x="136.974108" xlink:href="#m6e1c6f9797" y="379.698666"/>
     <use style="fill:#4c72b0;fill-opacity:0.8;stroke:#000000;stroke-opacity:0.8;stroke-width:0.7;" x="250.073267" xlink:href="#m6e1c6f9797" y="418.23"/>
     <use style="fill:#4c72b0;fill-opacity:0.8;stroke:#000000;stroke-opacity:0.8;stroke-width:0.7;" x="129.954885" xlink:href="#m6e1c6f9797" y="397.411753"/>
     <use style="fill:#4c72b0;fill-opacity:0.8;stroke:#000000;stroke-opacity:0.8;stroke-width:0.7;" x="99.715909" xlink:href="#m6e1c6f9797" y="389.614536"/>
     <use style="fill:#4c72b0;fill-opacity:0.8;stroke:#000000;stroke-opacity:0.8;stroke-width:0.7;" x="211.162193" xlink:href="#m6e1c6f9797" y="402.887198"/>
     <use style="fill:#4c72b0;fill-opacity:0.8;stroke:#000000;stroke-opacity:0.8;stroke-width:0.7;" x="279.630025" xlink:href="#m6e1c6f9797" y="177.934195"/>
     <use style="fill:#4c72b0;fill-opacity:0.8;stroke:#000000;stroke-opacity:0.8;stroke-width:0.7;" x="235.835788" xlink:href="#m6e1c6f9797" y="296.951435"/>
     <use style="fill:#4c72b0;fill-opacity:0.8;stroke:#000000;stroke-opacity:0.8;stroke-width:0.7;" x="251.909302" xlink:href="#m6e1c6f9797" y="395.586383"/>
     <use style="fill:#4c72b0;fill-opacity:0.8;stroke:#000000;stroke-opacity:0.8;stroke-width:0.7;" x="325.483786" xlink:href="#m6e1c6f9797" y="118.180061"/>
     <use style="fill:#4c72b0;fill-opacity:0.8;stroke:#000000;stroke-opacity:0.8;stroke-width:0.7;" x="461.177635" xlink:href="#m6e1c6f9797" y="349.633916"/>
     <use style="fill:#4c72b0;fill-opacity:0.8;stroke:#000000;stroke-opacity:0.8;stroke-width:0.7;" x="482.747366" xlink:href="#m6e1c6f9797" y="316.712795"/>
     <use style="fill:#4c72b0;fill-opacity:0.8;stroke:#000000;stroke-opacity:0.8;stroke-width:0.7;" x="497.862592" xlink:href="#m6e1c6f9797" y="287.25707"/>
     <use style="fill:#4c72b0;fill-opacity:0.8;stroke:#000000;stroke-opacity:0.8;stroke-width:0.7;" x="460.081372" xlink:href="#m6e1c6f9797" y="305.306687"/>
     <use style="fill:#4c72b0;fill-opacity:0.8;stroke:#000000;stroke-opacity:0.8;stroke-width:0.7;" x="486.097235" xlink:href="#m6e1c6f9797" y="288.53818"/>
     <use style="fill:#4c72b0;fill-opacity:0.8;stroke:#000000;stroke-opacity:0.8;stroke-width:0.7;" x="355.656024" xlink:href="#m6e1c6f9797" y="312.87544"/>
     <use style="fill:#4c72b0;fill-opacity:0.8;stroke:#000000;stroke-opacity:0.8;stroke-width:0.7;" x="425.571189" xlink:href="#m6e1c6f9797" y="316.850825"/>
     <use style="fill:#4c72b0;fill-opacity:0.8;stroke:#000000;stroke-opacity:0.8;stroke-width:0.7;" x="441.290181" xlink:href="#m6e1c6f9797" y="308.251879"/>
     <use style="fill:#4c72b0;fill-opacity:0.8;stroke:#000000;stroke-opacity:0.8;stroke-width:0.7;" x="453.745227" xlink:href="#m6e1c6f9797" y="351.185277"/>
     <use style="fill:#4c72b0;fill-opacity:0.8;stroke:#000000;stroke-opacity:0.8;stroke-width:0.7;" x="447.11415" xlink:href="#m6e1c6f9797" y="301.900643"/>
     <use style="fill:#4c72b0;fill-opacity:0.8;stroke:#000000;stroke-opacity:0.8;stroke-width:0.7;" x="402.086395" xlink:href="#m6e1c6f9797" y="146.272805"/>
     <use style="fill:#4c72b0;fill-opacity:0.8;stroke:#000000;stroke-opacity:0.8;stroke-width:0.7;" x="444.203597" xlink:href="#m6e1c6f9797" y="273.445344"/>
     <use style="fill:#4c72b0;fill-opacity:0.8;stroke:#000000;stroke-opacity:0.8;stroke-width:0.7;" x="427.170523" xlink:href="#m6e1c6f9797" y="339.572164"/>
     <use style="fill:#4c72b0;fill-opacity:0.8;stroke:#000000;stroke-opacity:0.8;stroke-width:0.7;" x="290.429299" xlink:href="#m6e1c6f9797" y="124.77876"/>
     <use style="fill:#4c72b0;fill-opacity:0.8;stroke:#000000;stroke-opacity:0.8;stroke-width:0.7;" x="155.778054" xlink:href="#m6e1c6f9797" y="394.90887"/>
     <use style="fill:#4c72b0;fill-opacity:0.8;stroke:#000000;stroke-opacity:0.8;stroke-width:0.7;" x="191.499657" xlink:href="#m6e1c6f9797" y="398.14672"/>
     <use style="fill:#4c72b0;fill-opacity:0.8;stroke:#000000;stroke-opacity:0.8;stroke-width:0.7;" x="254.32232" xlink:href="#m6e1c6f9797" y="369.992109"/>
     <use style="fill:#4c72b0;fill-opacity:0.8;stroke:#000000;stroke-opacity:0.8;stroke-width:0.7;" x="257.262837" xlink:href="#m6e1c6f9797" y="371.522202"/>
     <use style="fill:#4c72b0;fill-opacity:0.8;stroke:#000000;stroke-opacity:0.8;stroke-width:0.7;" x="304.896478" xlink:href="#m6e1c6f9797" y="337.357438"/>
     <use style="fill:#4c72b0;fill-opacity:0.8;stroke:#000000;stroke-opacity:0.8;stroke-width:0.7;" x="418.322753" xlink:href="#m6e1c6f9797" y="380.080162"/>
     <use style="fill:#4c72b0;fill-opacity:0.8;stroke:#000000;stroke-opacity:0.8;stroke-width:0.7;" x="341.835477" xlink:href="#m6e1c6f9797" y="407.801811"/>
     <use style="fill:#4c72b0;fill-opacity:0.8;stroke:#000000;stroke-opacity:0.8;stroke-width:0.7;" x="308.411273" xlink:href="#m6e1c6f9797" y="381.276583"/>
     <use style="fill:#4c72b0;fill-opacity:0.8;stroke:#000000;stroke-opacity:0.8;stroke-width:0.7;" x="441.541797" xlink:href="#m6e1c6f9797" y="320.98702"/>
     <use style="fill:#4c72b0;fill-opacity:0.8;stroke:#000000;stroke-opacity:0.8;stroke-width:0.7;" x="342.89752" xlink:href="#m6e1c6f9797" y="342.748713"/>
     <use style="fill:#4c72b0;fill-opacity:0.8;stroke:#000000;stroke-opacity:0.8;stroke-width:0.7;" x="450.760313" xlink:href="#m6e1c6f9797" y="299.076763"/>
     <use style="fill:#4c72b0;fill-opacity:0.8;stroke:#000000;stroke-opacity:0.8;stroke-width:0.7;" x="485.396226" xlink:href="#m6e1c6f9797" y="88.767566"/>
     <use style="fill:#4c72b0;fill-opacity:0.8;stroke:#000000;stroke-opacity:0.8;stroke-width:0.7;" x="469.92558" xlink:href="#m6e1c6f9797" y="217.21688"/>
     <use style="fill:#4c72b0;fill-opacity:0.8;stroke:#000000;stroke-opacity:0.8;stroke-width:0.7;" x="475.431681" xlink:href="#m6e1c6f9797" y="337.836629"/>
     <use style="fill:#4c72b0;fill-opacity:0.8;stroke:#000000;stroke-opacity:0.8;stroke-width:0.7;" x="455.225383" xlink:href="#m6e1c6f9797" y="57.497816"/>
     <use style="fill:#4c72b0;fill-opacity:0.8;stroke:#000000;stroke-opacity:0.8;stroke-width:0.7;" x="386.340012" xlink:href="#m6e1c6f9797" y="349.195249"/>
     <use style="fill:#4c72b0;fill-opacity:0.8;stroke:#000000;stroke-opacity:0.8;stroke-width:0.7;" x="383.282133" xlink:href="#m6e1c6f9797" y="379.628717"/>
     <use style="fill:#4c72b0;fill-opacity:0.8;stroke:#000000;stroke-opacity:0.8;stroke-width:0.7;" x="355.165905" xlink:href="#m6e1c6f9797" y="382.136383"/>
     <use style="fill:#4c72b0;fill-opacity:0.8;stroke:#000000;stroke-opacity:0.8;stroke-width:0.7;" x="312.580209" xlink:href="#m6e1c6f9797" y="302.304678"/>
     <use style="fill:#4c72b0;fill-opacity:0.8;stroke:#000000;stroke-opacity:0.8;stroke-width:0.7;" x="307.462426" xlink:href="#m6e1c6f9797" y="401.919051"/>
     <use style="fill:#4c72b0;fill-opacity:0.8;stroke:#000000;stroke-opacity:0.8;stroke-width:0.7;" x="101.702651" xlink:href="#m6e1c6f9797" y="397.373128"/>
     <use style="fill:#4c72b0;fill-opacity:0.8;stroke:#000000;stroke-opacity:0.8;stroke-width:0.7;" x="219.713118" xlink:href="#m6e1c6f9797" y="369.603941"/>
     <use style="fill:#4c72b0;fill-opacity:0.8;stroke:#000000;stroke-opacity:0.8;stroke-width:0.7;" x="258.266014" xlink:href="#m6e1c6f9797" y="393.509032"/>
     <use style="fill:#4c72b0;fill-opacity:0.8;stroke:#000000;stroke-opacity:0.8;stroke-width:0.7;" x="341.111675" xlink:href="#m6e1c6f9797" y="309.63163"/>
     <use style="fill:#4c72b0;fill-opacity:0.8;stroke:#000000;stroke-opacity:0.8;stroke-width:0.7;" x="417.323077" xlink:href="#m6e1c6f9797" y="354.6468"/>
     <use style="fill:#4c72b0;fill-opacity:0.8;stroke:#000000;stroke-opacity:0.8;stroke-width:0.7;" x="394.832349" xlink:href="#m6e1c6f9797" y="305.954016"/>
     <use style="fill:#4c72b0;fill-opacity:0.8;stroke:#000000;stroke-opacity:0.8;stroke-width:0.7;" x="467.930247" xlink:href="#m6e1c6f9797" y="259.266066"/>
     <use style="fill:#4c72b0;fill-opacity:0.8;stroke:#000000;stroke-opacity:0.8;stroke-width:0.7;" x="474.68815" xlink:href="#m6e1c6f9797" y="66.760951"/>
     <use style="fill:#4c72b0;fill-opacity:0.8;stroke:#000000;stroke-opacity:0.8;stroke-width:0.7;" x="480.311104" xlink:href="#m6e1c6f9797" y="194.602495"/>
     <use style="fill:#4c72b0;fill-opacity:0.8;stroke:#000000;stroke-opacity:0.8;stroke-width:0.7;" x="477.438282" xlink:href="#m6e1c6f9797" y="299.184924"/>
     <use style="fill:#4c72b0;fill-opacity:0.8;stroke:#000000;stroke-opacity:0.8;stroke-width:0.7;" x="409.339175" xlink:href="#m6e1c6f9797" y="47.309163"/>
     <use style="fill:#4c72b0;fill-opacity:0.8;stroke:#000000;stroke-opacity:0.8;stroke-width:0.7;" x="267.437709" xlink:href="#m6e1c6f9797" y="326.038809"/>
     <use style="fill:#4c72b0;fill-opacity:0.8;stroke:#000000;stroke-opacity:0.8;stroke-width:0.7;" x="259.458125" xlink:href="#m6e1c6f9797" y="367.810264"/>
     <use style="fill:#4c72b0;fill-opacity:0.8;stroke:#000000;stroke-opacity:0.8;stroke-width:0.7;" x="230.140249" xlink:href="#m6e1c6f9797" y="397.344638"/>
     <use style="fill:#4c72b0;fill-opacity:0.8;stroke:#000000;stroke-opacity:0.8;stroke-width:0.7;" x="187.15106" xlink:href="#m6e1c6f9797" y="294.851575"/>
     <use style="fill:#4c72b0;fill-opacity:0.8;stroke:#000000;stroke-opacity:0.8;stroke-width:0.7;" x="191.218161" xlink:href="#m6e1c6f9797" y="392.490499"/>
     <use style="fill:#4c72b0;fill-opacity:0.8;stroke:#000000;stroke-opacity:0.8;stroke-width:0.7;" x="207.340481" xlink:href="#m6e1c6f9797" y="380.825736"/>
     <use style="fill:#4c72b0;fill-opacity:0.8;stroke:#000000;stroke-opacity:0.8;stroke-width:0.7;" x="130.96476" xlink:href="#m6e1c6f9797" y="359.910722"/>
     <use style="fill:#4c72b0;fill-opacity:0.8;stroke:#000000;stroke-opacity:0.8;stroke-width:0.7;" x="141.879177" xlink:href="#m6e1c6f9797" y="383.526844"/>
     <use style="fill:#4c72b0;fill-opacity:0.8;stroke:#000000;stroke-opacity:0.8;stroke-width:0.7;" x="387.984113" xlink:href="#m6e1c6f9797" y="271.764678"/>
     <use style="fill:#4c72b0;fill-opacity:0.8;stroke:#000000;stroke-opacity:0.8;stroke-width:0.7;" x="310.936097" xlink:href="#m6e1c6f9797" y="344.118583"/>
     <use style="fill:#4c72b0;fill-opacity:0.8;stroke:#000000;stroke-opacity:0.8;stroke-width:0.7;" x="212.47302" xlink:href="#m6e1c6f9797" y="382.253848"/>
    </g>
   </g>
   <g id="PolyCollection_1">
    <defs>
     <path d="M 99.715909 -151.813522 
L 99.715909 -109.114867 
L 104.38781 -110.504573 
L 109.059711 -112.203804 
L 113.731612 -113.697857 
L 118.403512 -115.272322 
L 123.075413 -116.88038 
L 127.747314 -118.160265 
L 132.419215 -119.482318 
L 137.091116 -120.916196 
L 141.763017 -122.339663 
L 146.434917 -124.045654 
L 151.106818 -125.706534 
L 155.778719 -127.392261 
L 160.45062 -128.891672 
L 165.122521 -130.382194 
L 169.794421 -131.882395 
L 174.466322 -132.97096 
L 179.138223 -134.425427 
L 183.810124 -135.630138 
L 188.482025 -136.83485 
L 193.153926 -138.039831 
L 197.825826 -139.252813 
L 202.497727 -140.554563 
L 207.169628 -141.709494 
L 211.841529 -143.120508 
L 216.51343 -144.266762 
L 221.185331 -145.493129 
L 225.857231 -146.66824 
L 230.529132 -147.960255 
L 235.201033 -149.188024 
L 239.872934 -150.400418 
L 244.544835 -151.958499 
L 249.216736 -153.029739 
L 253.888636 -154.092277 
L 258.560537 -155.194583 
L 263.232438 -156.204775 
L 267.904339 -157.502313 
L 272.57624 -158.639099 
L 277.24814 -159.774392 
L 281.920041 -160.909676 
L 286.591942 -161.963416 
L 291.263843 -163.126634 
L 295.935744 -164.231498 
L 300.607645 -165.281734 
L 305.279545 -166.336394 
L 309.951446 -167.430903 
L 314.623347 -168.460695 
L 319.295248 -169.495542 
L 323.967149 -170.744704 
L 328.63905 -172.034344 
L 333.31095 -173.220903 
L 337.982851 -174.181209 
L 342.654752 -175.157107 
L 347.326653 -176.31218 
L 351.998554 -177.461825 
L 356.670455 -178.554161 
L 361.342355 -179.712965 
L 366.014256 -180.926658 
L 370.686157 -181.856783 
L 375.358058 -182.819105 
L 380.029959 -183.880391 
L 384.70186 -184.944216 
L 389.37376 -186.011245 
L 394.045661 -187.078273 
L 398.717562 -188.145302 
L 403.389463 -189.21233 
L 408.061364 -190.279358 
L 412.733264 -191.367338 
L 417.405165 -192.445336 
L 422.077066 -193.444838 
L 426.748967 -194.410002 
L 431.420868 -195.375165 
L 436.092769 -196.340328 
L 440.764669 -197.305491 
L 445.43657 -198.342484 
L 450.108471 -199.398865 
L 454.780372 -200.434669 
L 459.452273 -201.348916 
L 464.124174 -202.416477 
L 468.796074 -203.485424 
L 473.467975 -204.537859 
L 478.139876 -205.619479 
L 482.811777 -206.688797 
L 487.483678 -207.748874 
L 492.155579 -208.816261 
L 496.827479 -209.751147 
L 501.49938 -210.577226 
L 506.171281 -211.595063 
L 510.843182 -212.646232 
L 515.515083 -213.610683 
L 520.186983 -214.506817 
L 524.858884 -215.483579 
L 529.530785 -216.42127 
L 534.202686 -217.445541 
L 538.874587 -218.395194 
L 543.546488 -219.228971 
L 548.218388 -220.16311 
L 552.890289 -221.100799 
L 557.56219 -221.977936 
L 562.234091 -222.96623 
L 562.234091 -292.830829 
L 562.234091 -292.830829 
L 557.56219 -291.196962 
L 552.890289 -289.608731 
L 548.218388 -288.017302 
L 543.546488 -286.135748 
L 538.874587 -284.238771 
L 534.202686 -282.396132 
L 529.530785 -280.801293 
L 524.858884 -279.2304 
L 520.186983 -277.659421 
L 515.515083 -276.084337 
L 510.843182 -274.372073 
L 506.171281 -272.658205 
L 501.49938 -271.036995 
L 496.827479 -269.414262 
L 492.155579 -267.791528 
L 487.483678 -266.168794 
L 482.811777 -264.503332 
L 478.139876 -262.804518 
L 473.467975 -261.105705 
L 468.796074 -259.406892 
L 464.124174 -257.707828 
L 459.452273 -256.002678 
L 454.780372 -254.307815 
L 450.108471 -252.606504 
L 445.43657 -250.902895 
L 440.764669 -249.198411 
L 436.092769 -247.489058 
L 431.420868 -245.840404 
L 426.748967 -244.316323 
L 422.077066 -242.811563 
L 417.405165 -241.286914 
L 412.733264 -240.16969 
L 408.061364 -238.622869 
L 403.389463 -237.097418 
L 398.717562 -235.307888 
L 394.045661 -233.676236 
L 389.37376 -232.080256 
L 384.70186 -230.139603 
L 380.029959 -228.510972 
L 375.358058 -227.095838 
L 370.686157 -225.650383 
L 366.014256 -224.260337 
L 361.342355 -222.505214 
L 356.670455 -220.802008 
L 351.998554 -219.178002 
L 347.326653 -217.555774 
L 342.654752 -216.117917 
L 337.982851 -214.490595 
L 333.31095 -213.095425 
L 328.63905 -211.391515 
L 323.967149 -210.201829 
L 319.295248 -208.57252 
L 314.623347 -206.887522 
L 309.951446 -205.455429 
L 305.279545 -204.01552 
L 300.607645 -202.502452 
L 295.935744 -201.131185 
L 291.263843 -199.701568 
L 286.591942 -198.264322 
L 281.920041 -196.813239 
L 277.24814 -195.546185 
L 272.57624 -194.055237 
L 267.904339 -192.716224 
L 263.232438 -191.463761 
L 258.560537 -190.222083 
L 253.888636 -189.050677 
L 249.216736 -188.008034 
L 244.544835 -186.996817 
L 239.872934 -185.919979 
L 235.201033 -184.751176 
L 230.529132 -183.500154 
L 225.857231 -182.154681 
L 221.185331 -181.007897 
L 216.51343 -179.959711 
L 211.841529 -178.714327 
L 207.169628 -177.337608 
L 202.497727 -176.002802 
L 197.825826 -174.954223 
L 193.153926 -173.733014 
L 188.482025 -172.710712 
L 183.810124 -171.688807 
L 179.138223 -170.6625 
L 174.466322 -169.497021 
L 169.794421 -168.331191 
L 165.122521 -167.165361 
L 160.45062 -165.999531 
L 155.778719 -164.833701 
L 151.106818 -163.667871 
L 146.434917 -162.538932 
L 141.763017 -161.419524 
L 137.091116 -160.300116 
L 132.419215 -159.180708 
L 127.747314 -158.081472 
L 123.075413 -156.932315 
L 118.403512 -155.786721 
L 113.731612 -154.641127 
L 109.059711 -153.593012 
L 104.38781 -152.68886 
L 99.715909 -151.813522 
z
" id="m31fdb5cd53" style="stroke:#ffffff;stroke-opacity:0.15;"/>
    </defs>
    <g clip-path="url(#pe5eb92befa)">
     <use style="fill:#4c72b0;fill-opacity:0.15;stroke:#ffffff;stroke-opacity:0.15;" x="0" xlink:href="#m31fdb5cd53" y="504"/>
    </g>
   </g>
   <g id="line2d_1">
    <path clip-path="url(#pe5eb92befa)" d="M 99.715909 375.178114 
L 104.38781 373.954609 
L 109.059711 372.731104 
L 113.731612 371.507599 
L 118.403512 370.284095 
L 123.075413 369.06059 
L 127.747314 367.837085 
L 132.419215 366.61358 
L 137.091116 365.390075 
L 141.763017 364.16657 
L 146.434917 362.943065 
L 151.106818 361.71956 
L 155.778719 360.496055 
L 160.45062 359.27255 
L 165.122521 358.049046 
L 169.794421 356.825541 
L 174.466322 355.602036 
L 179.138223 354.378531 
L 183.810124 353.155026 
L 188.482025 351.931521 
L 193.153926 350.708016 
L 197.825826 349.484511 
L 202.497727 348.261006 
L 207.169628 347.037501 
L 211.841529 345.813997 
L 216.51343 344.590492 
L 221.185331 343.366987 
L 225.857231 342.143482 
L 230.529132 340.919977 
L 235.201033 339.696472 
L 239.872934 338.472967 
L 244.544835 337.249462 
L 249.216736 336.025957 
L 253.888636 334.802452 
L 258.560537 333.578948 
L 263.232438 332.355443 
L 267.904339 331.131938 
L 272.57624 329.908433 
L 277.24814 328.684928 
L 281.920041 327.461423 
L 286.591942 326.237918 
L 291.263843 325.014413 
L 295.935744 323.790908 
L 300.607645 322.567403 
L 305.279545 321.343899 
L 309.951446 320.120394 
L 314.623347 318.896889 
L 319.295248 317.673384 
L 323.967149 316.449879 
L 328.63905 315.226374 
L 333.31095 314.002869 
L 337.982851 312.779364 
L 342.654752 311.555859 
L 347.326653 310.332354 
L 351.998554 309.10885 
L 356.670455 307.885345 
L 361.342355 306.66184 
L 366.014256 305.438335 
L 370.686157 304.21483 
L 375.358058 302.991325 
L 380.029959 301.76782 
L 384.70186 300.544315 
L 389.37376 299.32081 
L 394.045661 298.097305 
L 398.717562 296.873801 
L 403.389463 295.650296 
L 408.061364 294.426791 
L 412.733264 293.203286 
L 417.405165 291.979781 
L 422.077066 290.756276 
L 426.748967 289.532771 
L 431.420868 288.309266 
L 436.092769 287.085761 
L 440.764669 285.862256 
L 445.43657 284.638752 
L 450.108471 283.415247 
L 454.780372 282.191742 
L 459.452273 280.968237 
L 464.124174 279.744732 
L 468.796074 278.521227 
L 473.467975 277.297722 
L 478.139876 276.074217 
L 482.811777 274.850712 
L 487.483678 273.627207 
L 492.155579 272.403703 
L 496.827479 271.180198 
L 501.49938 269.956693 
L 506.171281 268.733188 
L 510.843182 267.509683 
L 515.515083 266.286178 
L 520.186983 265.062673 
L 524.858884 263.839168 
L 529.530785 262.615663 
L 534.202686 261.392158 
L 538.874587 260.168654 
L 543.546488 258.945149 
L 548.218388 257.721644 
L 552.890289 256.498139 
L 557.56219 255.274634 
L 562.234091 254.051129 
" style="fill:none;stroke:#4c72b0;stroke-linecap:round;stroke-width:2.25;"/>
   </g>
   <g id="patch_3">
    <path d="M 76.59 437.22 
L 76.59 19.44 
" style="fill:none;stroke:#262626;stroke-linecap:square;stroke-linejoin:miter;stroke-width:1.25;"/>
   </g>
   <g id="patch_4">
    <path d="M 76.59 437.22 
L 585.36 437.22 
" style="fill:none;stroke:#262626;stroke-linecap:square;stroke-linejoin:miter;stroke-width:1.25;"/>
   </g>
   <g id="text_14">
    <!-- Human ratings ~ Osgoodspace -->
    <g style="fill:#262626;" transform="translate(190.427344 13.44)scale(0.18 -0.18)">
     <defs>
      <path d="M 4684 2553 
L 4684 1997 
Q 4356 1750 4076 1644 
Q 3797 1538 3494 1538 
Q 3150 1538 2694 1722 
Q 2659 1734 2644 1741 
Q 2622 1750 2575 1766 
Q 2091 1959 1797 1959 
Q 1522 1959 1253 1839 
Q 984 1719 678 1459 
L 678 2016 
Q 1006 2263 1286 2370 
Q 1566 2478 1869 2478 
Q 2213 2478 2672 2291 
Q 2703 2278 2719 2272 
Q 2744 2263 2788 2247 
Q 3272 2053 3566 2053 
Q 3834 2053 4098 2172 
Q 4363 2291 4684 2553 
z
" id="DejaVuSans-7e" transform="scale(0.015625)"/>
     </defs>
     <use xlink:href="#DejaVuSans-48"/>
     <use x="75.195312" xlink:href="#DejaVuSans-75"/>
     <use x="138.574219" xlink:href="#DejaVuSans-6d"/>
     <use x="235.986328" xlink:href="#DejaVuSans-61"/>
     <use x="297.265625" xlink:href="#DejaVuSans-6e"/>
     <use x="360.644531" xlink:href="#DejaVuSans-20"/>
     <use x="392.431641" xlink:href="#DejaVuSans-72"/>
     <use x="433.544922" xlink:href="#DejaVuSans-61"/>
     <use x="494.824219" xlink:href="#DejaVuSans-74"/>
     <use x="534.033203" xlink:href="#DejaVuSans-69"/>
     <use x="561.816406" xlink:href="#DejaVuSans-6e"/>
     <use x="625.195312" xlink:href="#DejaVuSans-67"/>
     <use x="688.671875" xlink:href="#DejaVuSans-73"/>
     <use x="740.771484" xlink:href="#DejaVuSans-20"/>
     <use x="772.558594" xlink:href="#DejaVuSans-7e"/>
     <use x="856.347656" xlink:href="#DejaVuSans-20"/>
     <use x="888.134766" xlink:href="#DejaVuSans-4f"/>
     <use x="966.845703" xlink:href="#DejaVuSans-73"/>
     <use x="1018.945312" xlink:href="#DejaVuSans-67"/>
     <use x="1082.421875" xlink:href="#DejaVuSans-6f"/>
     <use x="1143.603516" xlink:href="#DejaVuSans-6f"/>
     <use x="1204.785156" xlink:href="#DejaVuSans-64"/>
     <use x="1268.261719" xlink:href="#DejaVuSans-73"/>
     <use x="1320.361328" xlink:href="#DejaVuSans-70"/>
     <use x="1383.837891" xlink:href="#DejaVuSans-61"/>
     <use x="1445.117188" xlink:href="#DejaVuSans-63"/>
     <use x="1500.097656" xlink:href="#DejaVuSans-65"/>
    </g>
   </g>
  </g>
  <g id="text_15">
   <!-- r =  0.475 -->
   <g style="fill:#262626;" transform="translate(247.694625 56.732625)scale(0.216 -0.216)">
    <defs>
     <path d="M 678 2906 
L 4684 2906 
L 4684 2381 
L 678 2381 
L 678 2906 
z
M 678 1631 
L 4684 1631 
L 4684 1100 
L 678 1100 
L 678 1631 
z
" id="DejaVuSans-3d" transform="scale(0.015625)"/>
     <path d="M 525 4666 
L 3525 4666 
L 3525 4397 
L 1831 0 
L 1172 0 
L 2766 4134 
L 525 4134 
L 525 4666 
z
" id="DejaVuSans-37" transform="scale(0.015625)"/>
    </defs>
    <use xlink:href="#DejaVuSans-72"/>
    <use x="41.113281" xlink:href="#DejaVuSans-20"/>
    <use x="72.900391" xlink:href="#DejaVuSans-3d"/>
    <use x="156.689453" xlink:href="#DejaVuSans-20"/>
    <use x="188.476562" xlink:href="#DejaVuSans-20"/>
    <use x="220.263672" xlink:href="#DejaVuSans-30"/>
    <use x="283.886719" xlink:href="#DejaVuSans-2e"/>
    <use x="315.673828" xlink:href="#DejaVuSans-34"/>
    <use x="379.296875" xlink:href="#DejaVuSans-37"/>
    <use x="442.919922" xlink:href="#DejaVuSans-35"/>
   </g>
  </g>
 </g>
 <defs>
  <clipPath id="pe5eb92befa">
   <rect height="417.78" width="508.77" x="76.59" y="19.44"/>
  </clipPath>
 </defs>
</svg>
