<?xml version="1.0" encoding="utf-8" standalone="no"?>
<!DOCTYPE svg PUBLIC "-//W3C//DTD SVG 1.1//EN"
  "http://www.w3.org/Graphics/SVG/1.1/DTD/svg11.dtd">
<svg height="504pt" version="1.1" viewBox="0 0 604.8 504" width="604.8pt" xmlns="http://www.w3.org/2000/svg" xmlns:xlink="http://www.w3.org/1999/xlink">
 <metadata>
  <rdf:RDF xmlns:cc="http://creativecommons.org/ns#" xmlns:dc="http://purl.org/dc/elements/1.1/" xmlns:rdf="http://www.w3.org/1999/02/22-rdf-syntax-ns#">
   <cc:Work>
    <dc:type rdf:resource="http://purl.org/dc/dcmitype/StillImage"/>
    <dc:date>2023-07-24T16:22:57.803805</dc:date>
    <dc:format>image/svg+xml</dc:format>
    <dc:creator>
     <cc:Agent>
      <dc:title>Matplotlib v3.4.3, https://matplotlib.org/</dc:title>
     </cc:Agent>
    </dc:creator>
   </cc:Work>
  </rdf:RDF>
 </metadata>
 <defs>
  <style type="text/css">*{stroke-linecap:butt;stroke-linejoin:round;}</style>
 </defs>
 <g id="figure_1">
  <g id="patch_1">
   <path d="M 0 504 
L 604.8 504 
L 604.8 0 
L 0 0 
z
" style="fill:#ffffff;"/>
  </g>
  <g id="axes_1">
   <g id="patch_2">
    <path d="M 97.65 437.22 
L 585.36 437.22 
L 585.36 19.44 
L 97.65 19.44 
z
" style="fill:#ffffff;"/>
   </g>
   <g id="matplotlib.axis_1">
    <g id="xtick_1">
     <g id="text_1">
      <!-- 0.2 -->
      <g style="fill:#262626;" transform="translate(172.732794 459.257422)scale(0.165 -0.165)">
       <defs>
        <path d="M 2034 4250 
Q 1547 4250 1301 3770 
Q 1056 3291 1056 2328 
Q 1056 1369 1301 889 
Q 1547 409 2034 409 
Q 2525 409 2770 889 
Q 3016 1369 3016 2328 
Q 3016 3291 2770 3770 
Q 2525 4250 2034 4250 
z
M 2034 4750 
Q 2819 4750 3233 4129 
Q 3647 3509 3647 2328 
Q 3647 1150 3233 529 
Q 2819 -91 2034 -91 
Q 1250 -91 836 529 
Q 422 1150 422 2328 
Q 422 3509 836 4129 
Q 1250 4750 2034 4750 
z
" id="DejaVuSans-30" transform="scale(0.015625)"/>
        <path d="M 684 794 
L 1344 794 
L 1344 0 
L 684 0 
L 684 794 
z
" id="DejaVuSans-2e" transform="scale(0.015625)"/>
        <path d="M 1228 531 
L 3431 531 
L 3431 0 
L 469 0 
L 469 531 
Q 828 903 1448 1529 
Q 2069 2156 2228 2338 
Q 2531 2678 2651 2914 
Q 2772 3150 2772 3378 
Q 2772 3750 2511 3984 
Q 2250 4219 1831 4219 
Q 1534 4219 1204 4116 
Q 875 4013 500 3803 
L 500 4441 
Q 881 4594 1212 4672 
Q 1544 4750 1819 4750 
Q 2544 4750 2975 4387 
Q 3406 4025 3406 3419 
Q 3406 3131 3298 2873 
Q 3191 2616 2906 2266 
Q 2828 2175 2409 1742 
Q 1991 1309 1228 531 
z
" id="DejaVuSans-32" transform="scale(0.015625)"/>
       </defs>
       <use xlink:href="#DejaVuSans-30"/>
       <use x="63.623047" xlink:href="#DejaVuSans-2e"/>
       <use x="95.410156" xlink:href="#DejaVuSans-32"/>
      </g>
     </g>
    </g>
    <g id="xtick_2">
     <g id="text_2">
      <!-- 0.4 -->
      <g style="fill:#262626;" transform="translate(267.067417 459.257422)scale(0.165 -0.165)">
       <defs>
        <path d="M 2419 4116 
L 825 1625 
L 2419 1625 
L 2419 4116 
z
M 2253 4666 
L 3047 4666 
L 3047 1625 
L 3713 1625 
L 3713 1100 
L 3047 1100 
L 3047 0 
L 2419 0 
L 2419 1100 
L 313 1100 
L 313 1709 
L 2253 4666 
z
" id="DejaVuSans-34" transform="scale(0.015625)"/>
       </defs>
       <use xlink:href="#DejaVuSans-30"/>
       <use x="63.623047" xlink:href="#DejaVuSans-2e"/>
       <use x="95.410156" xlink:href="#DejaVuSans-34"/>
      </g>
     </g>
    </g>
    <g id="xtick_3">
     <g id="text_3">
      <!-- 0.6 -->
      <g style="fill:#262626;" transform="translate(361.40204 459.257422)scale(0.165 -0.165)">
       <defs>
        <path d="M 2113 2584 
Q 1688 2584 1439 2293 
Q 1191 2003 1191 1497 
Q 1191 994 1439 701 
Q 1688 409 2113 409 
Q 2538 409 2786 701 
Q 3034 994 3034 1497 
Q 3034 2003 2786 2293 
Q 2538 2584 2113 2584 
z
M 3366 4563 
L 3366 3988 
Q 3128 4100 2886 4159 
Q 2644 4219 2406 4219 
Q 1781 4219 1451 3797 
Q 1122 3375 1075 2522 
Q 1259 2794 1537 2939 
Q 1816 3084 2150 3084 
Q 2853 3084 3261 2657 
Q 3669 2231 3669 1497 
Q 3669 778 3244 343 
Q 2819 -91 2113 -91 
Q 1303 -91 875 529 
Q 447 1150 447 2328 
Q 447 3434 972 4092 
Q 1497 4750 2381 4750 
Q 2619 4750 2861 4703 
Q 3103 4656 3366 4563 
z
" id="DejaVuSans-36" transform="scale(0.015625)"/>
       </defs>
       <use xlink:href="#DejaVuSans-30"/>
       <use x="63.623047" xlink:href="#DejaVuSans-2e"/>
       <use x="95.410156" xlink:href="#DejaVuSans-36"/>
      </g>
     </g>
    </g>
    <g id="xtick_4">
     <g id="text_4">
      <!-- 0.8 -->
      <g style="fill:#262626;" transform="translate(455.736663 459.257422)scale(0.165 -0.165)">
       <defs>
        <path d="M 2034 2216 
Q 1584 2216 1326 1975 
Q 1069 1734 1069 1313 
Q 1069 891 1326 650 
Q 1584 409 2034 409 
Q 2484 409 2743 651 
Q 3003 894 3003 1313 
Q 3003 1734 2745 1975 
Q 2488 2216 2034 2216 
z
M 1403 2484 
Q 997 2584 770 2862 
Q 544 3141 544 3541 
Q 544 4100 942 4425 
Q 1341 4750 2034 4750 
Q 2731 4750 3128 4425 
Q 3525 4100 3525 3541 
Q 3525 3141 3298 2862 
Q 3072 2584 2669 2484 
Q 3125 2378 3379 2068 
Q 3634 1759 3634 1313 
Q 3634 634 3220 271 
Q 2806 -91 2034 -91 
Q 1263 -91 848 271 
Q 434 634 434 1313 
Q 434 1759 690 2068 
Q 947 2378 1403 2484 
z
M 1172 3481 
Q 1172 3119 1398 2916 
Q 1625 2713 2034 2713 
Q 2441 2713 2670 2916 
Q 2900 3119 2900 3481 
Q 2900 3844 2670 4047 
Q 2441 4250 2034 4250 
Q 1625 4250 1398 4047 
Q 1172 3844 1172 3481 
z
" id="DejaVuSans-38" transform="scale(0.015625)"/>
       </defs>
       <use xlink:href="#DejaVuSans-30"/>
       <use x="63.623047" xlink:href="#DejaVuSans-2e"/>
       <use x="95.410156" xlink:href="#DejaVuSans-38"/>
      </g>
     </g>
    </g>
    <g id="xtick_5">
     <g id="text_5">
      <!-- 1.0 -->
      <g style="fill:#262626;" transform="translate(550.071286 459.257422)scale(0.165 -0.165)">
       <defs>
        <path d="M 794 531 
L 1825 531 
L 1825 4091 
L 703 3866 
L 703 4441 
L 1819 4666 
L 2450 4666 
L 2450 531 
L 3481 531 
L 3481 0 
L 794 0 
L 794 531 
z
" id="DejaVuSans-31" transform="scale(0.015625)"/>
       </defs>
       <use xlink:href="#DejaVuSans-31"/>
       <use x="63.623047" xlink:href="#DejaVuSans-2e"/>
       <use x="95.410156" xlink:href="#DejaVuSans-30"/>
      </g>
     </g>
    </g>
    <g id="text_6">
     <!-- Human ratings -->
     <g style="fill:#262626;" transform="translate(274.8375 480.366094)scale(0.18 -0.18)">
      <defs>
       <path d="M 628 4666 
L 1259 4666 
L 1259 2753 
L 3553 2753 
L 3553 4666 
L 4184 4666 
L 4184 0 
L 3553 0 
L 3553 2222 
L 1259 2222 
L 1259 0 
L 628 0 
L 628 4666 
z
" id="DejaVuSans-48" transform="scale(0.015625)"/>
       <path d="M 544 1381 
L 544 3500 
L 1119 3500 
L 1119 1403 
Q 1119 906 1312 657 
Q 1506 409 1894 409 
Q 2359 409 2629 706 
Q 2900 1003 2900 1516 
L 2900 3500 
L 3475 3500 
L 3475 0 
L 2900 0 
L 2900 538 
Q 2691 219 2414 64 
Q 2138 -91 1772 -91 
Q 1169 -91 856 284 
Q 544 659 544 1381 
z
M 1991 3584 
L 1991 3584 
z
" id="DejaVuSans-75" transform="scale(0.015625)"/>
       <path d="M 3328 2828 
Q 3544 3216 3844 3400 
Q 4144 3584 4550 3584 
Q 5097 3584 5394 3201 
Q 5691 2819 5691 2113 
L 5691 0 
L 5113 0 
L 5113 2094 
Q 5113 2597 4934 2840 
Q 4756 3084 4391 3084 
Q 3944 3084 3684 2787 
Q 3425 2491 3425 1978 
L 3425 0 
L 2847 0 
L 2847 2094 
Q 2847 2600 2669 2842 
Q 2491 3084 2119 3084 
Q 1678 3084 1418 2786 
Q 1159 2488 1159 1978 
L 1159 0 
L 581 0 
L 581 3500 
L 1159 3500 
L 1159 2956 
Q 1356 3278 1631 3431 
Q 1906 3584 2284 3584 
Q 2666 3584 2933 3390 
Q 3200 3197 3328 2828 
z
" id="DejaVuSans-6d" transform="scale(0.015625)"/>
       <path d="M 2194 1759 
Q 1497 1759 1228 1600 
Q 959 1441 959 1056 
Q 959 750 1161 570 
Q 1363 391 1709 391 
Q 2188 391 2477 730 
Q 2766 1069 2766 1631 
L 2766 1759 
L 2194 1759 
z
M 3341 1997 
L 3341 0 
L 2766 0 
L 2766 531 
Q 2569 213 2275 61 
Q 1981 -91 1556 -91 
Q 1019 -91 701 211 
Q 384 513 384 1019 
Q 384 1609 779 1909 
Q 1175 2209 1959 2209 
L 2766 2209 
L 2766 2266 
Q 2766 2663 2505 2880 
Q 2244 3097 1772 3097 
Q 1472 3097 1187 3025 
Q 903 2953 641 2809 
L 641 3341 
Q 956 3463 1253 3523 
Q 1550 3584 1831 3584 
Q 2591 3584 2966 3190 
Q 3341 2797 3341 1997 
z
" id="DejaVuSans-61" transform="scale(0.015625)"/>
       <path d="M 3513 2113 
L 3513 0 
L 2938 0 
L 2938 2094 
Q 2938 2591 2744 2837 
Q 2550 3084 2163 3084 
Q 1697 3084 1428 2787 
Q 1159 2491 1159 1978 
L 1159 0 
L 581 0 
L 581 3500 
L 1159 3500 
L 1159 2956 
Q 1366 3272 1645 3428 
Q 1925 3584 2291 3584 
Q 2894 3584 3203 3211 
Q 3513 2838 3513 2113 
z
" id="DejaVuSans-6e" transform="scale(0.015625)"/>
       <path id="DejaVuSans-20" transform="scale(0.015625)"/>
       <path d="M 2631 2963 
Q 2534 3019 2420 3045 
Q 2306 3072 2169 3072 
Q 1681 3072 1420 2755 
Q 1159 2438 1159 1844 
L 1159 0 
L 581 0 
L 581 3500 
L 1159 3500 
L 1159 2956 
Q 1341 3275 1631 3429 
Q 1922 3584 2338 3584 
Q 2397 3584 2469 3576 
Q 2541 3569 2628 3553 
L 2631 2963 
z
" id="DejaVuSans-72" transform="scale(0.015625)"/>
       <path d="M 1172 4494 
L 1172 3500 
L 2356 3500 
L 2356 3053 
L 1172 3053 
L 1172 1153 
Q 1172 725 1289 603 
Q 1406 481 1766 481 
L 2356 481 
L 2356 0 
L 1766 0 
Q 1100 0 847 248 
Q 594 497 594 1153 
L 594 3053 
L 172 3053 
L 172 3500 
L 594 3500 
L 594 4494 
L 1172 4494 
z
" id="DejaVuSans-74" transform="scale(0.015625)"/>
       <path d="M 603 3500 
L 1178 3500 
L 1178 0 
L 603 0 
L 603 3500 
z
M 603 4863 
L 1178 4863 
L 1178 4134 
L 603 4134 
L 603 4863 
z
" id="DejaVuSans-69" transform="scale(0.015625)"/>
       <path d="M 2906 1791 
Q 2906 2416 2648 2759 
Q 2391 3103 1925 3103 
Q 1463 3103 1205 2759 
Q 947 2416 947 1791 
Q 947 1169 1205 825 
Q 1463 481 1925 481 
Q 2391 481 2648 825 
Q 2906 1169 2906 1791 
z
M 3481 434 
Q 3481 -459 3084 -895 
Q 2688 -1331 1869 -1331 
Q 1566 -1331 1297 -1286 
Q 1028 -1241 775 -1147 
L 775 -588 
Q 1028 -725 1275 -790 
Q 1522 -856 1778 -856 
Q 2344 -856 2625 -561 
Q 2906 -266 2906 331 
L 2906 616 
Q 2728 306 2450 153 
Q 2172 0 1784 0 
Q 1141 0 747 490 
Q 353 981 353 1791 
Q 353 2603 747 3093 
Q 1141 3584 1784 3584 
Q 2172 3584 2450 3431 
Q 2728 3278 2906 2969 
L 2906 3500 
L 3481 3500 
L 3481 434 
z
" id="DejaVuSans-67" transform="scale(0.015625)"/>
       <path d="M 2834 3397 
L 2834 2853 
Q 2591 2978 2328 3040 
Q 2066 3103 1784 3103 
Q 1356 3103 1142 2972 
Q 928 2841 928 2578 
Q 928 2378 1081 2264 
Q 1234 2150 1697 2047 
L 1894 2003 
Q 2506 1872 2764 1633 
Q 3022 1394 3022 966 
Q 3022 478 2636 193 
Q 2250 -91 1575 -91 
Q 1294 -91 989 -36 
Q 684 19 347 128 
L 347 722 
Q 666 556 975 473 
Q 1284 391 1588 391 
Q 1994 391 2212 530 
Q 2431 669 2431 922 
Q 2431 1156 2273 1281 
Q 2116 1406 1581 1522 
L 1381 1569 
Q 847 1681 609 1914 
Q 372 2147 372 2553 
Q 372 3047 722 3315 
Q 1072 3584 1716 3584 
Q 2034 3584 2315 3537 
Q 2597 3491 2834 3397 
z
" id="DejaVuSans-73" transform="scale(0.015625)"/>
      </defs>
      <use xlink:href="#DejaVuSans-48"/>
      <use x="75.195312" xlink:href="#DejaVuSans-75"/>
      <use x="138.574219" xlink:href="#DejaVuSans-6d"/>
      <use x="235.986328" xlink:href="#DejaVuSans-61"/>
      <use x="297.265625" xlink:href="#DejaVuSans-6e"/>
      <use x="360.644531" xlink:href="#DejaVuSans-20"/>
      <use x="392.431641" xlink:href="#DejaVuSans-72"/>
      <use x="433.544922" xlink:href="#DejaVuSans-61"/>
      <use x="494.824219" xlink:href="#DejaVuSans-74"/>
      <use x="534.033203" xlink:href="#DejaVuSans-69"/>
      <use x="561.816406" xlink:href="#DejaVuSans-6e"/>
      <use x="625.195312" xlink:href="#DejaVuSans-67"/>
      <use x="688.671875" xlink:href="#DejaVuSans-73"/>
     </g>
    </g>
   </g>
   <g id="matplotlib.axis_2">
    <g id="ytick_1">
     <g id="text_7">
      <!-- 0.575 -->
      <g style="fill:#262626;" transform="translate(40.913594 440.030764)scale(0.165 -0.165)">
       <defs>
        <path d="M 691 4666 
L 3169 4666 
L 3169 4134 
L 1269 4134 
L 1269 2991 
Q 1406 3038 1543 3061 
Q 1681 3084 1819 3084 
Q 2600 3084 3056 2656 
Q 3513 2228 3513 1497 
Q 3513 744 3044 326 
Q 2575 -91 1722 -91 
Q 1428 -91 1123 -41 
Q 819 9 494 109 
L 494 744 
Q 775 591 1075 516 
Q 1375 441 1709 441 
Q 2250 441 2565 725 
Q 2881 1009 2881 1497 
Q 2881 1984 2565 2268 
Q 2250 2553 1709 2553 
Q 1456 2553 1204 2497 
Q 953 2441 691 2322 
L 691 4666 
z
" id="DejaVuSans-35" transform="scale(0.015625)"/>
        <path d="M 525 4666 
L 3525 4666 
L 3525 4397 
L 1831 0 
L 1172 0 
L 2766 4134 
L 525 4134 
L 525 4666 
z
" id="DejaVuSans-37" transform="scale(0.015625)"/>
       </defs>
       <use xlink:href="#DejaVuSans-30"/>
       <use x="63.623047" xlink:href="#DejaVuSans-2e"/>
       <use x="95.410156" xlink:href="#DejaVuSans-35"/>
       <use x="159.033203" xlink:href="#DejaVuSans-37"/>
       <use x="222.65625" xlink:href="#DejaVuSans-35"/>
      </g>
     </g>
    </g>
    <g id="ytick_2">
     <g id="text_8">
      <!-- 0.600 -->
      <g style="fill:#262626;" transform="translate(40.913594 391.279492)scale(0.165 -0.165)">
       <use xlink:href="#DejaVuSans-30"/>
       <use x="63.623047" xlink:href="#DejaVuSans-2e"/>
       <use x="95.410156" xlink:href="#DejaVuSans-36"/>
       <use x="159.033203" xlink:href="#DejaVuSans-30"/>
       <use x="222.65625" xlink:href="#DejaVuSans-30"/>
      </g>
     </g>
    </g>
    <g id="ytick_3">
     <g id="text_9">
      <!-- 0.625 -->
      <g style="fill:#262626;" transform="translate(40.913594 342.528221)scale(0.165 -0.165)">
       <use xlink:href="#DejaVuSans-30"/>
       <use x="63.623047" xlink:href="#DejaVuSans-2e"/>
       <use x="95.410156" xlink:href="#DejaVuSans-36"/>
       <use x="159.033203" xlink:href="#DejaVuSans-32"/>
       <use x="222.65625" xlink:href="#DejaVuSans-35"/>
      </g>
     </g>
    </g>
    <g id="ytick_4">
     <g id="text_10">
      <!-- 0.650 -->
      <g style="fill:#262626;" transform="translate(40.913594 293.776949)scale(0.165 -0.165)">
       <use xlink:href="#DejaVuSans-30"/>
       <use x="63.623047" xlink:href="#DejaVuSans-2e"/>
       <use x="95.410156" xlink:href="#DejaVuSans-36"/>
       <use x="159.033203" xlink:href="#DejaVuSans-35"/>
       <use x="222.65625" xlink:href="#DejaVuSans-30"/>
      </g>
     </g>
    </g>
    <g id="ytick_5">
     <g id="text_11">
      <!-- 0.675 -->
      <g style="fill:#262626;" transform="translate(40.913594 245.025677)scale(0.165 -0.165)">
       <use xlink:href="#DejaVuSans-30"/>
       <use x="63.623047" xlink:href="#DejaVuSans-2e"/>
       <use x="95.410156" xlink:href="#DejaVuSans-36"/>
       <use x="159.033203" xlink:href="#DejaVuSans-37"/>
       <use x="222.65625" xlink:href="#DejaVuSans-35"/>
      </g>
     </g>
    </g>
    <g id="ytick_6">
     <g id="text_12">
      <!-- 0.700 -->
      <g style="fill:#262626;" transform="translate(40.913594 196.274406)scale(0.165 -0.165)">
       <use xlink:href="#DejaVuSans-30"/>
       <use x="63.623047" xlink:href="#DejaVuSans-2e"/>
       <use x="95.410156" xlink:href="#DejaVuSans-37"/>
       <use x="159.033203" xlink:href="#DejaVuSans-30"/>
       <use x="222.65625" xlink:href="#DejaVuSans-30"/>
      </g>
     </g>
    </g>
    <g id="ytick_7">
     <g id="text_13">
      <!-- 0.725 -->
      <g style="fill:#262626;" transform="translate(40.913594 147.523134)scale(0.165 -0.165)">
       <use xlink:href="#DejaVuSans-30"/>
       <use x="63.623047" xlink:href="#DejaVuSans-2e"/>
       <use x="95.410156" xlink:href="#DejaVuSans-37"/>
       <use x="159.033203" xlink:href="#DejaVuSans-32"/>
       <use x="222.65625" xlink:href="#DejaVuSans-35"/>
      </g>
     </g>
    </g>
    <g id="ytick_8">
     <g id="text_14">
      <!-- 0.750 -->
      <g style="fill:#262626;" transform="translate(40.913594 98.771862)scale(0.165 -0.165)">
       <use xlink:href="#DejaVuSans-30"/>
       <use x="63.623047" xlink:href="#DejaVuSans-2e"/>
       <use x="95.410156" xlink:href="#DejaVuSans-37"/>
       <use x="159.033203" xlink:href="#DejaVuSans-35"/>
       <use x="222.65625" xlink:href="#DejaVuSans-30"/>
      </g>
     </g>
    </g>
    <g id="ytick_9">
     <g id="text_15">
      <!-- 0.775 -->
      <g style="fill:#262626;" transform="translate(40.913594 50.020591)scale(0.165 -0.165)">
       <use xlink:href="#DejaVuSans-30"/>
       <use x="63.623047" xlink:href="#DejaVuSans-2e"/>
       <use x="95.410156" xlink:href="#DejaVuSans-37"/>
       <use x="159.033203" xlink:href="#DejaVuSans-37"/>
       <use x="222.65625" xlink:href="#DejaVuSans-35"/>
      </g>
     </g>
    </g>
    <g id="text_16">
     <!-- Fasttext space (cosine distance) -->
     <g style="fill:#262626;" transform="translate(33.170156 373.210313)rotate(-90)scale(0.18 -0.18)">
      <defs>
       <path d="M 628 4666 
L 3309 4666 
L 3309 4134 
L 1259 4134 
L 1259 2759 
L 3109 2759 
L 3109 2228 
L 1259 2228 
L 1259 0 
L 628 0 
L 628 4666 
z
" id="DejaVuSans-46" transform="scale(0.015625)"/>
       <path d="M 3597 1894 
L 3597 1613 
L 953 1613 
Q 991 1019 1311 708 
Q 1631 397 2203 397 
Q 2534 397 2845 478 
Q 3156 559 3463 722 
L 3463 178 
Q 3153 47 2828 -22 
Q 2503 -91 2169 -91 
Q 1331 -91 842 396 
Q 353 884 353 1716 
Q 353 2575 817 3079 
Q 1281 3584 2069 3584 
Q 2775 3584 3186 3129 
Q 3597 2675 3597 1894 
z
M 3022 2063 
Q 3016 2534 2758 2815 
Q 2500 3097 2075 3097 
Q 1594 3097 1305 2825 
Q 1016 2553 972 2059 
L 3022 2063 
z
" id="DejaVuSans-65" transform="scale(0.015625)"/>
       <path d="M 3513 3500 
L 2247 1797 
L 3578 0 
L 2900 0 
L 1881 1375 
L 863 0 
L 184 0 
L 1544 1831 
L 300 3500 
L 978 3500 
L 1906 2253 
L 2834 3500 
L 3513 3500 
z
" id="DejaVuSans-78" transform="scale(0.015625)"/>
       <path d="M 1159 525 
L 1159 -1331 
L 581 -1331 
L 581 3500 
L 1159 3500 
L 1159 2969 
Q 1341 3281 1617 3432 
Q 1894 3584 2278 3584 
Q 2916 3584 3314 3078 
Q 3713 2572 3713 1747 
Q 3713 922 3314 415 
Q 2916 -91 2278 -91 
Q 1894 -91 1617 61 
Q 1341 213 1159 525 
z
M 3116 1747 
Q 3116 2381 2855 2742 
Q 2594 3103 2138 3103 
Q 1681 3103 1420 2742 
Q 1159 2381 1159 1747 
Q 1159 1113 1420 752 
Q 1681 391 2138 391 
Q 2594 391 2855 752 
Q 3116 1113 3116 1747 
z
" id="DejaVuSans-70" transform="scale(0.015625)"/>
       <path d="M 3122 3366 
L 3122 2828 
Q 2878 2963 2633 3030 
Q 2388 3097 2138 3097 
Q 1578 3097 1268 2742 
Q 959 2388 959 1747 
Q 959 1106 1268 751 
Q 1578 397 2138 397 
Q 2388 397 2633 464 
Q 2878 531 3122 666 
L 3122 134 
Q 2881 22 2623 -34 
Q 2366 -91 2075 -91 
Q 1284 -91 818 406 
Q 353 903 353 1747 
Q 353 2603 823 3093 
Q 1294 3584 2113 3584 
Q 2378 3584 2631 3529 
Q 2884 3475 3122 3366 
z
" id="DejaVuSans-63" transform="scale(0.015625)"/>
       <path d="M 1984 4856 
Q 1566 4138 1362 3434 
Q 1159 2731 1159 2009 
Q 1159 1288 1364 580 
Q 1569 -128 1984 -844 
L 1484 -844 
Q 1016 -109 783 600 
Q 550 1309 550 2009 
Q 550 2706 781 3412 
Q 1013 4119 1484 4856 
L 1984 4856 
z
" id="DejaVuSans-28" transform="scale(0.015625)"/>
       <path d="M 1959 3097 
Q 1497 3097 1228 2736 
Q 959 2375 959 1747 
Q 959 1119 1226 758 
Q 1494 397 1959 397 
Q 2419 397 2687 759 
Q 2956 1122 2956 1747 
Q 2956 2369 2687 2733 
Q 2419 3097 1959 3097 
z
M 1959 3584 
Q 2709 3584 3137 3096 
Q 3566 2609 3566 1747 
Q 3566 888 3137 398 
Q 2709 -91 1959 -91 
Q 1206 -91 779 398 
Q 353 888 353 1747 
Q 353 2609 779 3096 
Q 1206 3584 1959 3584 
z
" id="DejaVuSans-6f" transform="scale(0.015625)"/>
       <path d="M 2906 2969 
L 2906 4863 
L 3481 4863 
L 3481 0 
L 2906 0 
L 2906 525 
Q 2725 213 2448 61 
Q 2172 -91 1784 -91 
Q 1150 -91 751 415 
Q 353 922 353 1747 
Q 353 2572 751 3078 
Q 1150 3584 1784 3584 
Q 2172 3584 2448 3432 
Q 2725 3281 2906 2969 
z
M 947 1747 
Q 947 1113 1208 752 
Q 1469 391 1925 391 
Q 2381 391 2643 752 
Q 2906 1113 2906 1747 
Q 2906 2381 2643 2742 
Q 2381 3103 1925 3103 
Q 1469 3103 1208 2742 
Q 947 2381 947 1747 
z
" id="DejaVuSans-64" transform="scale(0.015625)"/>
       <path d="M 513 4856 
L 1013 4856 
Q 1481 4119 1714 3412 
Q 1947 2706 1947 2009 
Q 1947 1309 1714 600 
Q 1481 -109 1013 -844 
L 513 -844 
Q 928 -128 1133 580 
Q 1338 1288 1338 2009 
Q 1338 2731 1133 3434 
Q 928 4138 513 4856 
z
" id="DejaVuSans-29" transform="scale(0.015625)"/>
      </defs>
      <use xlink:href="#DejaVuSans-46"/>
      <use x="48.394531" xlink:href="#DejaVuSans-61"/>
      <use x="109.673828" xlink:href="#DejaVuSans-73"/>
      <use x="161.773438" xlink:href="#DejaVuSans-74"/>
      <use x="200.982422" xlink:href="#DejaVuSans-74"/>
      <use x="240.191406" xlink:href="#DejaVuSans-65"/>
      <use x="299.964844" xlink:href="#DejaVuSans-78"/>
      <use x="359.144531" xlink:href="#DejaVuSans-74"/>
      <use x="398.353516" xlink:href="#DejaVuSans-20"/>
      <use x="430.140625" xlink:href="#DejaVuSans-73"/>
      <use x="482.240234" xlink:href="#DejaVuSans-70"/>
      <use x="545.716797" xlink:href="#DejaVuSans-61"/>
      <use x="606.996094" xlink:href="#DejaVuSans-63"/>
      <use x="661.976562" xlink:href="#DejaVuSans-65"/>
      <use x="723.5" xlink:href="#DejaVuSans-20"/>
      <use x="755.287109" xlink:href="#DejaVuSans-28"/>
      <use x="794.300781" xlink:href="#DejaVuSans-63"/>
      <use x="849.28125" xlink:href="#DejaVuSans-6f"/>
      <use x="910.462891" xlink:href="#DejaVuSans-73"/>
      <use x="962.5625" xlink:href="#DejaVuSans-69"/>
      <use x="990.345703" xlink:href="#DejaVuSans-6e"/>
      <use x="1053.724609" xlink:href="#DejaVuSans-65"/>
      <use x="1115.248047" xlink:href="#DejaVuSans-20"/>
      <use x="1147.035156" xlink:href="#DejaVuSans-64"/>
      <use x="1210.511719" xlink:href="#DejaVuSans-69"/>
      <use x="1238.294922" xlink:href="#DejaVuSans-73"/>
      <use x="1290.394531" xlink:href="#DejaVuSans-74"/>
      <use x="1329.603516" xlink:href="#DejaVuSans-61"/>
      <use x="1390.882812" xlink:href="#DejaVuSans-6e"/>
      <use x="1454.261719" xlink:href="#DejaVuSans-63"/>
      <use x="1509.242188" xlink:href="#DejaVuSans-65"/>
      <use x="1570.765625" xlink:href="#DejaVuSans-29"/>
     </g>
    </g>
   </g>
   <g id="PathCollection_1">
    <defs>
     <path d="M 0 3.872983 
C 1.027127 3.872983 2.012324 3.464901 2.738613 2.738613 
C 3.464901 2.012324 3.872983 1.027127 3.872983 0 
C 3.872983 -1.027127 3.464901 -2.012324 2.738613 -2.738613 
C 2.012324 -3.464901 1.027127 -3.872983 0 -3.872983 
C -1.027127 -3.872983 -2.012324 -3.464901 -2.738613 -2.738613 
C -3.464901 -2.012324 -3.872983 -1.027127 -3.872983 0 
C -3.872983 1.027127 -3.464901 2.012324 -2.738613 2.738613 
C -2.012324 3.464901 -1.027127 3.872983 0 3.872983 
z
" id="m341f6a78b8" style="stroke:#000000;stroke-opacity:0.8;stroke-width:0.7;"/>
    </defs>
    <g clip-path="url(#pcea73d3932)">
     <use style="fill:#4c72b0;fill-opacity:0.8;stroke:#000000;stroke-opacity:0.8;stroke-width:0.7;" x="534.890977" xlink:href="#m341f6a78b8" y="213.417315"/>
     <use style="fill:#4c72b0;fill-opacity:0.8;stroke:#000000;stroke-opacity:0.8;stroke-width:0.7;" x="299.05442" xlink:href="#m341f6a78b8" y="157.364928"/>
     <use style="fill:#4c72b0;fill-opacity:0.8;stroke:#000000;stroke-opacity:0.8;stroke-width:0.7;" x="449.989816" xlink:href="#m341f6a78b8" y="217.053507"/>
     <use style="fill:#4c72b0;fill-opacity:0.8;stroke:#000000;stroke-opacity:0.8;stroke-width:0.7;" x="563.191364" xlink:href="#m341f6a78b8" y="242.234404"/>
     <use style="fill:#4c72b0;fill-opacity:0.8;stroke:#000000;stroke-opacity:0.8;stroke-width:0.7;" x="516.024052" xlink:href="#m341f6a78b8" y="281.096397"/>
     <use style="fill:#4c72b0;fill-opacity:0.8;stroke:#000000;stroke-opacity:0.8;stroke-width:0.7;" x="544.324439" xlink:href="#m341f6a78b8" y="261.531177"/>
     <use style="fill:#4c72b0;fill-opacity:0.8;stroke:#000000;stroke-opacity:0.8;stroke-width:0.7;" x="506.59059" xlink:href="#m341f6a78b8" y="301.201022"/>
     <use style="fill:#4c72b0;fill-opacity:0.8;stroke:#000000;stroke-opacity:0.8;stroke-width:0.7;" x="440.556354" xlink:href="#m341f6a78b8" y="260.401016"/>
     <use style="fill:#4c72b0;fill-opacity:0.8;stroke:#000000;stroke-opacity:0.8;stroke-width:0.7;" x="365.088656" xlink:href="#m341f6a78b8" y="292.330301"/>
     <use style="fill:#4c72b0;fill-opacity:0.8;stroke:#000000;stroke-opacity:0.8;stroke-width:0.7;" x="563.191364" xlink:href="#m341f6a78b8" y="257.06426"/>
     <use style="fill:#4c72b0;fill-opacity:0.8;stroke:#000000;stroke-opacity:0.8;stroke-width:0.7;" x="506.59059" xlink:href="#m341f6a78b8" y="398.834067"/>
     <use style="fill:#4c72b0;fill-opacity:0.8;stroke:#000000;stroke-opacity:0.8;stroke-width:0.7;" x="525.457515" xlink:href="#m341f6a78b8" y="276.572813"/>
     <use style="fill:#4c72b0;fill-opacity:0.8;stroke:#000000;stroke-opacity:0.8;stroke-width:0.7;" x="468.856741" xlink:href="#m341f6a78b8" y="405.328549"/>
     <use style="fill:#4c72b0;fill-opacity:0.8;stroke:#000000;stroke-opacity:0.8;stroke-width:0.7;" x="563.191364" xlink:href="#m341f6a78b8" y="307.300971"/>
     <use style="fill:#4c72b0;fill-opacity:0.8;stroke:#000000;stroke-opacity:0.8;stroke-width:0.7;" x="478.290203" xlink:href="#m341f6a78b8" y="244.313856"/>
     <use style="fill:#4c72b0;fill-opacity:0.8;stroke:#000000;stroke-opacity:0.8;stroke-width:0.7;" x="336.788269" xlink:href="#m341f6a78b8" y="329.942497"/>
     <use style="fill:#4c72b0;fill-opacity:0.8;stroke:#000000;stroke-opacity:0.8;stroke-width:0.7;" x="497.157128" xlink:href="#m341f6a78b8" y="374.893472"/>
     <use style="fill:#4c72b0;fill-opacity:0.8;stroke:#000000;stroke-opacity:0.8;stroke-width:0.7;" x="563.191364" xlink:href="#m341f6a78b8" y="196.047187"/>
     <use style="fill:#4c72b0;fill-opacity:0.8;stroke:#000000;stroke-opacity:0.8;stroke-width:0.7;" x="506.59059" xlink:href="#m341f6a78b8" y="403.606711"/>
     <use style="fill:#4c72b0;fill-opacity:0.8;stroke:#000000;stroke-opacity:0.8;stroke-width:0.7;" x="497.157128" xlink:href="#m341f6a78b8" y="276.016072"/>
     <use style="fill:#4c72b0;fill-opacity:0.8;stroke:#000000;stroke-opacity:0.8;stroke-width:0.7;" x="261.320571" xlink:href="#m341f6a78b8" y="356.900616"/>
     <use style="fill:#4c72b0;fill-opacity:0.8;stroke:#000000;stroke-opacity:0.8;stroke-width:0.7;" x="544.324439" xlink:href="#m341f6a78b8" y="382.260566"/>
     <use style="fill:#4c72b0;fill-opacity:0.8;stroke:#000000;stroke-opacity:0.8;stroke-width:0.7;" x="544.324439" xlink:href="#m341f6a78b8" y="388.169708"/>
     <use style="fill:#4c72b0;fill-opacity:0.8;stroke:#000000;stroke-opacity:0.8;stroke-width:0.7;" x="553.757901" xlink:href="#m341f6a78b8" y="367.555464"/>
     <use style="fill:#4c72b0;fill-opacity:0.8;stroke:#000000;stroke-opacity:0.8;stroke-width:0.7;" x="374.522118" xlink:href="#m341f6a78b8" y="177.33604"/>
     <use style="fill:#4c72b0;fill-opacity:0.8;stroke:#000000;stroke-opacity:0.8;stroke-width:0.7;" x="497.157128" xlink:href="#m341f6a78b8" y="38.43"/>
     <use style="fill:#4c72b0;fill-opacity:0.8;stroke:#000000;stroke-opacity:0.8;stroke-width:0.7;" x="497.157128" xlink:href="#m341f6a78b8" y="149.03826"/>
     <use style="fill:#4c72b0;fill-opacity:0.8;stroke:#000000;stroke-opacity:0.8;stroke-width:0.7;" x="487.723665" xlink:href="#m341f6a78b8" y="200.402958"/>
     <use style="fill:#4c72b0;fill-opacity:0.8;stroke:#000000;stroke-opacity:0.8;stroke-width:0.7;" x="487.723665" xlink:href="#m341f6a78b8" y="174.269479"/>
     <use style="fill:#4c72b0;fill-opacity:0.8;stroke:#000000;stroke-opacity:0.8;stroke-width:0.7;" x="563.191364" xlink:href="#m341f6a78b8" y="170.75157"/>
     <use style="fill:#4c72b0;fill-opacity:0.8;stroke:#000000;stroke-opacity:0.8;stroke-width:0.7;" x="497.157128" xlink:href="#m341f6a78b8" y="250.869682"/>
     <use style="fill:#4c72b0;fill-opacity:0.8;stroke:#000000;stroke-opacity:0.8;stroke-width:0.7;" x="553.757901" xlink:href="#m341f6a78b8" y="284.719247"/>
     <use style="fill:#4c72b0;fill-opacity:0.8;stroke:#000000;stroke-opacity:0.8;stroke-width:0.7;" x="497.157128" xlink:href="#m341f6a78b8" y="220.066214"/>
     <use style="fill:#4c72b0;fill-opacity:0.8;stroke:#000000;stroke-opacity:0.8;stroke-width:0.7;" x="251.887108" xlink:href="#m341f6a78b8" y="272.049149"/>
     <use style="fill:#4c72b0;fill-opacity:0.8;stroke:#000000;stroke-opacity:0.8;stroke-width:0.7;" x="544.324439" xlink:href="#m341f6a78b8" y="210.551058"/>
     <use style="fill:#4c72b0;fill-opacity:0.8;stroke:#000000;stroke-opacity:0.8;stroke-width:0.7;" x="563.191364" xlink:href="#m341f6a78b8" y="155.140202"/>
     <use style="fill:#4c72b0;fill-opacity:0.8;stroke:#000000;stroke-opacity:0.8;stroke-width:0.7;" x="525.457515" xlink:href="#m341f6a78b8" y="300.319489"/>
     <use style="fill:#4c72b0;fill-opacity:0.8;stroke:#000000;stroke-opacity:0.8;stroke-width:0.7;" x="506.59059" xlink:href="#m341f6a78b8" y="205.73923"/>
     <use style="fill:#4c72b0;fill-opacity:0.8;stroke:#000000;stroke-opacity:0.8;stroke-width:0.7;" x="534.890977" xlink:href="#m341f6a78b8" y="349.42702"/>
     <use style="fill:#4c72b0;fill-opacity:0.8;stroke:#000000;stroke-opacity:0.8;stroke-width:0.7;" x="289.620957" xlink:href="#m341f6a78b8" y="284.442961"/>
     <use style="fill:#4c72b0;fill-opacity:0.8;stroke:#000000;stroke-opacity:0.8;stroke-width:0.7;" x="497.157128" xlink:href="#m341f6a78b8" y="324.856678"/>
     <use style="fill:#4c72b0;fill-opacity:0.8;stroke:#000000;stroke-opacity:0.8;stroke-width:0.7;" x="553.757901" xlink:href="#m341f6a78b8" y="332.020073"/>
     <use style="fill:#4c72b0;fill-opacity:0.8;stroke:#000000;stroke-opacity:0.8;stroke-width:0.7;" x="449.989816" xlink:href="#m341f6a78b8" y="151.808601"/>
     <use style="fill:#4c72b0;fill-opacity:0.8;stroke:#000000;stroke-opacity:0.8;stroke-width:0.7;" x="497.157128" xlink:href="#m341f6a78b8" y="144.276256"/>
     <use style="fill:#4c72b0;fill-opacity:0.8;stroke:#000000;stroke-opacity:0.8;stroke-width:0.7;" x="516.024052" xlink:href="#m341f6a78b8" y="122.889814"/>
     <use style="fill:#4c72b0;fill-opacity:0.8;stroke:#000000;stroke-opacity:0.8;stroke-width:0.7;" x="440.556354" xlink:href="#m341f6a78b8" y="227.673773"/>
     <use style="fill:#4c72b0;fill-opacity:0.8;stroke:#000000;stroke-opacity:0.8;stroke-width:0.7;" x="468.856741" xlink:href="#m341f6a78b8" y="286.625572"/>
     <use style="fill:#4c72b0;fill-opacity:0.8;stroke:#000000;stroke-opacity:0.8;stroke-width:0.7;" x="534.890977" xlink:href="#m341f6a78b8" y="159.707367"/>
     <use style="fill:#4c72b0;fill-opacity:0.8;stroke:#000000;stroke-opacity:0.8;stroke-width:0.7;" x="563.191364" xlink:href="#m341f6a78b8" y="164.278318"/>
     <use style="fill:#4c72b0;fill-opacity:0.8;stroke:#000000;stroke-opacity:0.8;stroke-width:0.7;" x="563.191364" xlink:href="#m341f6a78b8" y="153.738293"/>
     <use style="fill:#4c72b0;fill-opacity:0.8;stroke:#000000;stroke-opacity:0.8;stroke-width:0.7;" x="553.757901" xlink:href="#m341f6a78b8" y="245.377382"/>
     <use style="fill:#4c72b0;fill-opacity:0.8;stroke:#000000;stroke-opacity:0.8;stroke-width:0.7;" x="166.985948" xlink:href="#m341f6a78b8" y="175.850593"/>
     <use style="fill:#4c72b0;fill-opacity:0.8;stroke:#000000;stroke-opacity:0.8;stroke-width:0.7;" x="497.157128" xlink:href="#m341f6a78b8" y="241.09975"/>
     <use style="fill:#4c72b0;fill-opacity:0.8;stroke:#000000;stroke-opacity:0.8;stroke-width:0.7;" x="563.191364" xlink:href="#m341f6a78b8" y="212.321346"/>
     <use style="fill:#4c72b0;fill-opacity:0.8;stroke:#000000;stroke-opacity:0.8;stroke-width:0.7;" x="553.757901" xlink:href="#m341f6a78b8" y="263.580648"/>
     <use style="fill:#4c72b0;fill-opacity:0.8;stroke:#000000;stroke-opacity:0.8;stroke-width:0.7;" x="553.757901" xlink:href="#m341f6a78b8" y="292.34538"/>
     <use style="fill:#4c72b0;fill-opacity:0.8;stroke:#000000;stroke-opacity:0.8;stroke-width:0.7;" x="525.457515" xlink:href="#m341f6a78b8" y="355.876469"/>
     <use style="fill:#4c72b0;fill-opacity:0.8;stroke:#000000;stroke-opacity:0.8;stroke-width:0.7;" x="176.41941" xlink:href="#m341f6a78b8" y="320.529154"/>
     <use style="fill:#4c72b0;fill-opacity:0.8;stroke:#000000;stroke-opacity:0.8;stroke-width:0.7;" x="534.890977" xlink:href="#m341f6a78b8" y="384.736803"/>
     <use style="fill:#4c72b0;fill-opacity:0.8;stroke:#000000;stroke-opacity:0.8;stroke-width:0.7;" x="563.191364" xlink:href="#m341f6a78b8" y="337.544007"/>
     <use style="fill:#4c72b0;fill-opacity:0.8;stroke:#000000;stroke-opacity:0.8;stroke-width:0.7;" x="544.324439" xlink:href="#m341f6a78b8" y="187.28199"/>
     <use style="fill:#4c72b0;fill-opacity:0.8;stroke:#000000;stroke-opacity:0.8;stroke-width:0.7;" x="449.989816" xlink:href="#m341f6a78b8" y="171.745107"/>
     <use style="fill:#4c72b0;fill-opacity:0.8;stroke:#000000;stroke-opacity:0.8;stroke-width:0.7;" x="544.324439" xlink:href="#m341f6a78b8" y="259.051022"/>
     <use style="fill:#4c72b0;fill-opacity:0.8;stroke:#000000;stroke-opacity:0.8;stroke-width:0.7;" x="534.890977" xlink:href="#m341f6a78b8" y="272.132661"/>
     <use style="fill:#4c72b0;fill-opacity:0.8;stroke:#000000;stroke-opacity:0.8;stroke-width:0.7;" x="487.723665" xlink:href="#m341f6a78b8" y="258.546111"/>
     <use style="fill:#4c72b0;fill-opacity:0.8;stroke:#000000;stroke-opacity:0.8;stroke-width:0.7;" x="346.221731" xlink:href="#m341f6a78b8" y="229.666435"/>
     <use style="fill:#4c72b0;fill-opacity:0.8;stroke:#000000;stroke-opacity:0.8;stroke-width:0.7;" x="534.890977" xlink:href="#m341f6a78b8" y="148.293061"/>
     <use style="fill:#4c72b0;fill-opacity:0.8;stroke:#000000;stroke-opacity:0.8;stroke-width:0.7;" x="506.59059" xlink:href="#m341f6a78b8" y="175.247037"/>
     <use style="fill:#4c72b0;fill-opacity:0.8;stroke:#000000;stroke-opacity:0.8;stroke-width:0.7;" x="487.723665" xlink:href="#m341f6a78b8" y="248.579868"/>
     <use style="fill:#4c72b0;fill-opacity:0.8;stroke:#000000;stroke-opacity:0.8;stroke-width:0.7;" x="516.024052" xlink:href="#m341f6a78b8" y="238.026347"/>
     <use style="fill:#4c72b0;fill-opacity:0.8;stroke:#000000;stroke-opacity:0.8;stroke-width:0.7;" x="506.59059" xlink:href="#m341f6a78b8" y="289.930737"/>
     <use style="fill:#4c72b0;fill-opacity:0.8;stroke:#000000;stroke-opacity:0.8;stroke-width:0.7;" x="355.655193" xlink:href="#m341f6a78b8" y="281.130858"/>
     <use style="fill:#4c72b0;fill-opacity:0.8;stroke:#000000;stroke-opacity:0.8;stroke-width:0.7;" x="563.191364" xlink:href="#m341f6a78b8" y="296.807862"/>
     <use style="fill:#4c72b0;fill-opacity:0.8;stroke:#000000;stroke-opacity:0.8;stroke-width:0.7;" x="544.324439" xlink:href="#m341f6a78b8" y="361.999298"/>
     <use style="fill:#4c72b0;fill-opacity:0.8;stroke:#000000;stroke-opacity:0.8;stroke-width:0.7;" x="563.191364" xlink:href="#m341f6a78b8" y="416.59569"/>
     <use style="fill:#4c72b0;fill-opacity:0.8;stroke:#000000;stroke-opacity:0.8;stroke-width:0.7;" x="563.191364" xlink:href="#m341f6a78b8" y="380.953541"/>
     <use style="fill:#4c72b0;fill-opacity:0.8;stroke:#000000;stroke-opacity:0.8;stroke-width:0.7;" x="553.757901" xlink:href="#m341f6a78b8" y="412.347054"/>
     <use style="fill:#4c72b0;fill-opacity:0.8;stroke:#000000;stroke-opacity:0.8;stroke-width:0.7;" x="119.818636" xlink:href="#m341f6a78b8" y="418.23"/>
     <use style="fill:#4c72b0;fill-opacity:0.8;stroke:#000000;stroke-opacity:0.8;stroke-width:0.7;" x="544.324439" xlink:href="#m341f6a78b8" y="139.824952"/>
     <use style="fill:#4c72b0;fill-opacity:0.8;stroke:#000000;stroke-opacity:0.8;stroke-width:0.7;" x="468.856741" xlink:href="#m341f6a78b8" y="89.264812"/>
     <use style="fill:#4c72b0;fill-opacity:0.8;stroke:#000000;stroke-opacity:0.8;stroke-width:0.7;" x="525.457515" xlink:href="#m341f6a78b8" y="147.129775"/>
     <use style="fill:#4c72b0;fill-opacity:0.8;stroke:#000000;stroke-opacity:0.8;stroke-width:0.7;" x="544.324439" xlink:href="#m341f6a78b8" y="121.642936"/>
     <use style="fill:#4c72b0;fill-opacity:0.8;stroke:#000000;stroke-opacity:0.8;stroke-width:0.7;" x="506.59059" xlink:href="#m341f6a78b8" y="105.683873"/>
     <use style="fill:#4c72b0;fill-opacity:0.8;stroke:#000000;stroke-opacity:0.8;stroke-width:0.7;" x="317.921344" xlink:href="#m341f6a78b8" y="169.819204"/>
     <use style="fill:#4c72b0;fill-opacity:0.8;stroke:#000000;stroke-opacity:0.8;stroke-width:0.7;" x="525.457515" xlink:href="#m341f6a78b8" y="146.404232"/>
     <use style="fill:#4c72b0;fill-opacity:0.8;stroke:#000000;stroke-opacity:0.8;stroke-width:0.7;" x="327.354807" xlink:href="#m341f6a78b8" y="118.353659"/>
     <use style="fill:#4c72b0;fill-opacity:0.8;stroke:#000000;stroke-opacity:0.8;stroke-width:0.7;" x="478.290203" xlink:href="#m341f6a78b8" y="180.055592"/>
     <use style="fill:#4c72b0;fill-opacity:0.8;stroke:#000000;stroke-opacity:0.8;stroke-width:0.7;" x="553.757901" xlink:href="#m341f6a78b8" y="218.38581"/>
     <use style="fill:#4c72b0;fill-opacity:0.8;stroke:#000000;stroke-opacity:0.8;stroke-width:0.7;" x="516.024052" xlink:href="#m341f6a78b8" y="235.302476"/>
     <use style="fill:#4c72b0;fill-opacity:0.8;stroke:#000000;stroke-opacity:0.8;stroke-width:0.7;" x="506.59059" xlink:href="#m341f6a78b8" y="197.945748"/>
     <use style="fill:#4c72b0;fill-opacity:0.8;stroke:#000000;stroke-opacity:0.8;stroke-width:0.7;" x="525.457515" xlink:href="#m341f6a78b8" y="273.147955"/>
     <use style="fill:#4c72b0;fill-opacity:0.8;stroke:#000000;stroke-opacity:0.8;stroke-width:0.7;" x="563.191364" xlink:href="#m341f6a78b8" y="196.182091"/>
     <use style="fill:#4c72b0;fill-opacity:0.8;stroke:#000000;stroke-opacity:0.8;stroke-width:0.7;" x="516.024052" xlink:href="#m341f6a78b8" y="243.821578"/>
     <use style="fill:#4c72b0;fill-opacity:0.8;stroke:#000000;stroke-opacity:0.8;stroke-width:0.7;" x="242.453646" xlink:href="#m341f6a78b8" y="304.319654"/>
     <use style="fill:#4c72b0;fill-opacity:0.8;stroke:#000000;stroke-opacity:0.8;stroke-width:0.7;" x="497.157128" xlink:href="#m341f6a78b8" y="279.988745"/>
     <use style="fill:#4c72b0;fill-opacity:0.8;stroke:#000000;stroke-opacity:0.8;stroke-width:0.7;" x="563.191364" xlink:href="#m341f6a78b8" y="269.94297"/>
     <use style="fill:#4c72b0;fill-opacity:0.8;stroke:#000000;stroke-opacity:0.8;stroke-width:0.7;" x="563.191364" xlink:href="#m341f6a78b8" y="117.551455"/>
     <use style="fill:#4c72b0;fill-opacity:0.8;stroke:#000000;stroke-opacity:0.8;stroke-width:0.7;" x="516.024052" xlink:href="#m341f6a78b8" y="207.12922"/>
     <use style="fill:#4c72b0;fill-opacity:0.8;stroke:#000000;stroke-opacity:0.8;stroke-width:0.7;" x="563.191364" xlink:href="#m341f6a78b8" y="210.582339"/>
     <use style="fill:#4c72b0;fill-opacity:0.8;stroke:#000000;stroke-opacity:0.8;stroke-width:0.7;" x="563.191364" xlink:href="#m341f6a78b8" y="156.025942"/>
     <use style="fill:#4c72b0;fill-opacity:0.8;stroke:#000000;stroke-opacity:0.8;stroke-width:0.7;" x="563.191364" xlink:href="#m341f6a78b8" y="229.271822"/>
     <use style="fill:#4c72b0;fill-opacity:0.8;stroke:#000000;stroke-opacity:0.8;stroke-width:0.7;" x="138.685561" xlink:href="#m341f6a78b8" y="184.738262"/>
     <use style="fill:#4c72b0;fill-opacity:0.8;stroke:#000000;stroke-opacity:0.8;stroke-width:0.7;" x="365.088656" xlink:href="#m341f6a78b8" y="131.874607"/>
     <use style="fill:#4c72b0;fill-opacity:0.8;stroke:#000000;stroke-opacity:0.8;stroke-width:0.7;" x="534.890977" xlink:href="#m341f6a78b8" y="159.522518"/>
     <use style="fill:#4c72b0;fill-opacity:0.8;stroke:#000000;stroke-opacity:0.8;stroke-width:0.7;" x="516.024052" xlink:href="#m341f6a78b8" y="200.071752"/>
     <use style="fill:#4c72b0;fill-opacity:0.8;stroke:#000000;stroke-opacity:0.8;stroke-width:0.7;" x="544.324439" xlink:href="#m341f6a78b8" y="183.686783"/>
     <use style="fill:#4c72b0;fill-opacity:0.8;stroke:#000000;stroke-opacity:0.8;stroke-width:0.7;" x="516.024052" xlink:href="#m341f6a78b8" y="246.409907"/>
     <use style="fill:#4c72b0;fill-opacity:0.8;stroke:#000000;stroke-opacity:0.8;stroke-width:0.7;" x="431.122892" xlink:href="#m341f6a78b8" y="153.337747"/>
    </g>
   </g>
   <g id="PolyCollection_1">
    <defs>
     <path d="M 119.818636 -329.756537 
L 119.818636 -180.744004 
L 124.297149 -181.82332 
L 128.775661 -182.902636 
L 133.254174 -183.981952 
L 137.732686 -185.061268 
L 142.211198 -186.140584 
L 146.689711 -187.2199 
L 151.168223 -188.299216 
L 155.646736 -189.378532 
L 160.125248 -190.457848 
L 164.60376 -191.537164 
L 169.082273 -192.61648 
L 173.560785 -193.698505 
L 178.039298 -194.781125 
L 182.51781 -195.863745 
L 186.996322 -196.946365 
L 191.474835 -198.053126 
L 195.953347 -199.256244 
L 200.43186 -200.138477 
L 204.910372 -200.964647 
L 209.388884 -201.792367 
L 213.867397 -202.710839 
L 218.345909 -203.444468 
L 222.824421 -204.314397 
L 227.302934 -205.488697 
L 231.781446 -206.672353 
L 236.259959 -207.85601 
L 240.738471 -208.808438 
L 245.216983 -209.804239 
L 249.695496 -210.616846 
L 254.174008 -211.429452 
L 258.652521 -212.252656 
L 263.131033 -213.081715 
L 267.609545 -213.910773 
L 272.088058 -214.869503 
L 276.56657 -215.642705 
L 281.045083 -216.415907 
L 285.523595 -217.324593 
L 290.002107 -218.391048 
L 294.48062 -219.464053 
L 298.959132 -220.537779 
L 303.437645 -221.611506 
L 307.916157 -222.527938 
L 312.394669 -223.49905 
L 316.873182 -224.498493 
L 321.351694 -224.930451 
L 325.830207 -225.720213 
L 330.308719 -226.518411 
L 334.787231 -227.327518 
L 339.265744 -228.185967 
L 343.744256 -229.14964 
L 348.222769 -230.009766 
L 352.701281 -230.644628 
L 357.179793 -231.44915 
L 361.658306 -232.583946 
L 366.136818 -233.151715 
L 370.615331 -233.923098 
L 375.093843 -234.77889 
L 379.572355 -235.649917 
L 384.050868 -236.241735 
L 388.52938 -237.184517 
L 393.007893 -238.075842 
L 397.486405 -238.554355 
L 401.964917 -239.322667 
L 406.44343 -240.048293 
L 410.921942 -240.43385 
L 415.400455 -241.030581 
L 419.878967 -241.737221 
L 424.357479 -242.455134 
L 428.835992 -242.685538 
L 433.314504 -243.166092 
L 437.793017 -243.594643 
L 442.271529 -244.218273 
L 446.750041 -244.97251 
L 451.228554 -245.168976 
L 455.707066 -245.286148 
L 460.185579 -245.773114 
L 464.664091 -245.904316 
L 469.142603 -246.124905 
L 473.621116 -245.918962 
L 478.099628 -246.188758 
L 482.57814 -246.51656 
L 487.056653 -246.438442 
L 491.535165 -246.79054 
L 496.013678 -246.31955 
L 500.49219 -246.340222 
L 504.970702 -246.208149 
L 509.449215 -246.005351 
L 513.927727 -245.693663 
L 518.40624 -245.09599 
L 522.884752 -245.196656 
L 527.363264 -244.794159 
L 531.841777 -244.373623 
L 536.320289 -244.021852 
L 540.798802 -243.588748 
L 545.277314 -243.240343 
L 549.755826 -243.454922 
L 554.234339 -242.549001 
L 558.712851 -242.19513 
L 563.191364 -241.846726 
L 563.191364 -287.699805 
L 563.191364 -287.699805 
L 558.712851 -286.853206 
L 554.234339 -286.063835 
L 549.755826 -285.631159 
L 545.277314 -285.238647 
L 540.798802 -284.620459 
L 536.320289 -284.144741 
L 531.841777 -283.765318 
L 527.363264 -283.451531 
L 522.884752 -283.048066 
L 518.40624 -282.596673 
L 513.927727 -282.115661 
L 509.449215 -281.579126 
L 504.970702 -281.419302 
L 500.49219 -281.022566 
L 496.013678 -280.887478 
L 491.535165 -280.882951 
L 487.056653 -281.111915 
L 482.57814 -280.928429 
L 478.099628 -280.904958 
L 473.621116 -280.893223 
L 469.142603 -280.93102 
L 464.664091 -280.937964 
L 460.185579 -280.651661 
L 455.707066 -280.658607 
L 451.228554 -281.291081 
L 446.750041 -281.738703 
L 442.271529 -281.881984 
L 437.793017 -282.266644 
L 433.314504 -282.878551 
L 428.835992 -283.33351 
L 424.357479 -283.792414 
L 419.878967 -283.90437 
L 415.400455 -284.171693 
L 410.921942 -285.006363 
L 406.44343 -285.611454 
L 401.964917 -286.100307 
L 397.486405 -287.07556 
L 393.007893 -287.619368 
L 388.52938 -288.785709 
L 384.050868 -289.252095 
L 379.572355 -289.561163 
L 375.093843 -290.206336 
L 370.615331 -290.66165 
L 366.136818 -291.116963 
L 361.658306 -291.572277 
L 357.179793 -292.123918 
L 352.701281 -292.821658 
L 348.222769 -293.526458 
L 343.744256 -294.239428 
L 339.265744 -294.952398 
L 334.787231 -295.662997 
L 330.308719 -296.361199 
L 325.830207 -297.057104 
L 321.351694 -297.39543 
L 316.873182 -297.714095 
L 312.394669 -298.551152 
L 307.916157 -299.388209 
L 303.437645 -300.218733 
L 298.959132 -300.695657 
L 294.48062 -301.065644 
L 290.002107 -301.812595 
L 285.523595 -302.690158 
L 281.045083 -303.567539 
L 276.56657 -304.335422 
L 272.088058 -304.885632 
L 267.609545 -305.433437 
L 263.131033 -305.97738 
L 258.652521 -306.721101 
L 254.174008 -307.578037 
L 249.695496 -308.434974 
L 245.216983 -309.291411 
L 240.738471 -310.144282 
L 236.259959 -310.851166 
L 231.781446 -311.716732 
L 227.302934 -312.609163 
L 222.824421 -313.319861 
L 218.345909 -314.030559 
L 213.867397 -314.73863 
L 209.388884 -315.445135 
L 204.910372 -316.15164 
L 200.43186 -316.858145 
L 195.953347 -317.56465 
L 191.474835 -318.271155 
L 186.996322 -319.034401 
L 182.51781 -319.809937 
L 178.039298 -320.582707 
L 173.560785 -321.165541 
L 169.082273 -321.80368 
L 164.60376 -322.510185 
L 160.125248 -323.21669 
L 155.646736 -323.923195 
L 151.168223 -324.6297 
L 146.689711 -325.336205 
L 142.211198 -326.04271 
L 137.732686 -326.749215 
L 133.254174 -327.45572 
L 128.775661 -328.162225 
L 124.297149 -328.992562 
L 119.818636 -329.756537 
z
" id="m43febc2d2b" style="stroke:#ffffff;stroke-opacity:0.15;"/>
    </defs>
    <g clip-path="url(#pcea73d3932)">
     <use style="fill:#4c72b0;fill-opacity:0.15;stroke:#ffffff;stroke-opacity:0.15;" x="0" xlink:href="#m43febc2d2b" y="504"/>
    </g>
   </g>
   <g id="line2d_1">
    <path clip-path="url(#pcea73d3932)" d="M 119.818636 246.616786 
L 124.297149 246.536482 
L 128.775661 246.456179 
L 133.254174 246.375875 
L 137.732686 246.295572 
L 142.211198 246.215268 
L 146.689711 246.134965 
L 151.168223 246.054661 
L 155.646736 245.974358 
L 160.125248 245.894054 
L 164.60376 245.813751 
L 169.082273 245.733447 
L 173.560785 245.653144 
L 178.039298 245.57284 
L 182.51781 245.492537 
L 186.996322 245.412234 
L 191.474835 245.33193 
L 195.953347 245.251627 
L 200.43186 245.171323 
L 204.910372 245.09102 
L 209.388884 245.010716 
L 213.867397 244.930413 
L 218.345909 244.850109 
L 222.824421 244.769806 
L 227.302934 244.689502 
L 231.781446 244.609199 
L 236.259959 244.528895 
L 240.738471 244.448592 
L 245.216983 244.368288 
L 249.695496 244.287985 
L 254.174008 244.207681 
L 258.652521 244.127378 
L 263.131033 244.047074 
L 267.609545 243.966771 
L 272.088058 243.886467 
L 276.56657 243.806164 
L 281.045083 243.72586 
L 285.523595 243.645557 
L 290.002107 243.565253 
L 294.48062 243.48495 
L 298.959132 243.404646 
L 303.437645 243.324343 
L 307.916157 243.244039 
L 312.394669 243.163736 
L 316.873182 243.083432 
L 321.351694 243.003129 
L 325.830207 242.922825 
L 330.308719 242.842522 
L 334.787231 242.762218 
L 339.265744 242.681915 
L 343.744256 242.601611 
L 348.222769 242.521308 
L 352.701281 242.441004 
L 357.179793 242.360701 
L 361.658306 242.280397 
L 366.136818 242.200094 
L 370.615331 242.119791 
L 375.093843 242.039487 
L 379.572355 241.959184 
L 384.050868 241.87888 
L 388.52938 241.798577 
L 393.007893 241.718273 
L 397.486405 241.63797 
L 401.964917 241.557666 
L 406.44343 241.477363 
L 410.921942 241.397059 
L 415.400455 241.316756 
L 419.878967 241.236452 
L 424.357479 241.156149 
L 428.835992 241.075845 
L 433.314504 240.995542 
L 437.793017 240.915238 
L 442.271529 240.834935 
L 446.750041 240.754631 
L 451.228554 240.674328 
L 455.707066 240.594024 
L 460.185579 240.513721 
L 464.664091 240.433417 
L 469.142603 240.353114 
L 473.621116 240.27281 
L 478.099628 240.192507 
L 482.57814 240.112203 
L 487.056653 240.0319 
L 491.535165 239.951596 
L 496.013678 239.871293 
L 500.49219 239.790989 
L 504.970702 239.710686 
L 509.449215 239.630382 
L 513.927727 239.550079 
L 518.40624 239.469775 
L 522.884752 239.389472 
L 527.363264 239.309168 
L 531.841777 239.228865 
L 536.320289 239.148561 
L 540.798802 239.068258 
L 545.277314 238.987954 
L 549.755826 238.907651 
L 554.234339 238.827347 
L 558.712851 238.747044 
L 563.191364 238.666741 
" style="fill:none;stroke:#4c72b0;stroke-linecap:round;stroke-width:2.25;"/>
   </g>
   <g id="patch_3">
    <path d="M 97.65 437.22 
L 97.65 19.44 
" style="fill:none;stroke:#262626;stroke-linecap:square;stroke-linejoin:miter;stroke-width:1.25;"/>
   </g>
   <g id="patch_4">
    <path d="M 97.65 437.22 
L 585.36 437.22 
" style="fill:none;stroke:#262626;stroke-linecap:square;stroke-linejoin:miter;stroke-width:1.25;"/>
   </g>
   <g id="text_17">
    <!-- Human ratings ~ Fasttext space -->
    <g style="fill:#262626;" transform="translate(196.460156 13.44)scale(0.18 -0.18)">
     <defs>
      <path d="M 4684 2553 
L 4684 1997 
Q 4356 1750 4076 1644 
Q 3797 1538 3494 1538 
Q 3150 1538 2694 1722 
Q 2659 1734 2644 1741 
Q 2622 1750 2575 1766 
Q 2091 1959 1797 1959 
Q 1522 1959 1253 1839 
Q 984 1719 678 1459 
L 678 2016 
Q 1006 2263 1286 2370 
Q 1566 2478 1869 2478 
Q 2213 2478 2672 2291 
Q 2703 2278 2719 2272 
Q 2744 2263 2788 2247 
Q 3272 2053 3566 2053 
Q 3834 2053 4098 2172 
Q 4363 2291 4684 2553 
z
" id="DejaVuSans-7e" transform="scale(0.015625)"/>
     </defs>
     <use xlink:href="#DejaVuSans-48"/>
     <use x="75.195312" xlink:href="#DejaVuSans-75"/>
     <use x="138.574219" xlink:href="#DejaVuSans-6d"/>
     <use x="235.986328" xlink:href="#DejaVuSans-61"/>
     <use x="297.265625" xlink:href="#DejaVuSans-6e"/>
     <use x="360.644531" xlink:href="#DejaVuSans-20"/>
     <use x="392.431641" xlink:href="#DejaVuSans-72"/>
     <use x="433.544922" xlink:href="#DejaVuSans-61"/>
     <use x="494.824219" xlink:href="#DejaVuSans-74"/>
     <use x="534.033203" xlink:href="#DejaVuSans-69"/>
     <use x="561.816406" xlink:href="#DejaVuSans-6e"/>
     <use x="625.195312" xlink:href="#DejaVuSans-67"/>
     <use x="688.671875" xlink:href="#DejaVuSans-73"/>
     <use x="740.771484" xlink:href="#DejaVuSans-20"/>
     <use x="772.558594" xlink:href="#DejaVuSans-7e"/>
     <use x="856.347656" xlink:href="#DejaVuSans-20"/>
     <use x="888.134766" xlink:href="#DejaVuSans-46"/>
     <use x="936.529297" xlink:href="#DejaVuSans-61"/>
     <use x="997.808594" xlink:href="#DejaVuSans-73"/>
     <use x="1049.908203" xlink:href="#DejaVuSans-74"/>
     <use x="1089.117188" xlink:href="#DejaVuSans-74"/>
     <use x="1128.326172" xlink:href="#DejaVuSans-65"/>
     <use x="1188.099609" xlink:href="#DejaVuSans-78"/>
     <use x="1247.279297" xlink:href="#DejaVuSans-74"/>
     <use x="1286.488281" xlink:href="#DejaVuSans-20"/>
     <use x="1318.275391" xlink:href="#DejaVuSans-73"/>
     <use x="1370.375" xlink:href="#DejaVuSans-70"/>
     <use x="1433.851562" xlink:href="#DejaVuSans-61"/>
     <use x="1495.130859" xlink:href="#DejaVuSans-63"/>
     <use x="1550.111328" xlink:href="#DejaVuSans-65"/>
    </g>
   </g>
  </g>
  <g id="text_18">
   <!-- r =  -0.043 -->
   <g style="fill:#262626;" transform="translate(243.798188 56.732625)scale(0.216 -0.216)">
    <defs>
     <path d="M 678 2906 
L 4684 2906 
L 4684 2381 
L 678 2381 
L 678 2906 
z
M 678 1631 
L 4684 1631 
L 4684 1100 
L 678 1100 
L 678 1631 
z
" id="DejaVuSans-3d" transform="scale(0.015625)"/>
     <path d="M 313 2009 
L 1997 2009 
L 1997 1497 
L 313 1497 
L 313 2009 
z
" id="DejaVuSans-2d" transform="scale(0.015625)"/>
     <path d="M 2597 2516 
Q 3050 2419 3304 2112 
Q 3559 1806 3559 1356 
Q 3559 666 3084 287 
Q 2609 -91 1734 -91 
Q 1441 -91 1130 -33 
Q 819 25 488 141 
L 488 750 
Q 750 597 1062 519 
Q 1375 441 1716 441 
Q 2309 441 2620 675 
Q 2931 909 2931 1356 
Q 2931 1769 2642 2001 
Q 2353 2234 1838 2234 
L 1294 2234 
L 1294 2753 
L 1863 2753 
Q 2328 2753 2575 2939 
Q 2822 3125 2822 3475 
Q 2822 3834 2567 4026 
Q 2313 4219 1838 4219 
Q 1578 4219 1281 4162 
Q 984 4106 628 3988 
L 628 4550 
Q 988 4650 1302 4700 
Q 1616 4750 1894 4750 
Q 2613 4750 3031 4423 
Q 3450 4097 3450 3541 
Q 3450 3153 3228 2886 
Q 3006 2619 2597 2516 
z
" id="DejaVuSans-33" transform="scale(0.015625)"/>
    </defs>
    <use xlink:href="#DejaVuSans-72"/>
    <use x="41.113281" xlink:href="#DejaVuSans-20"/>
    <use x="72.900391" xlink:href="#DejaVuSans-3d"/>
    <use x="156.689453" xlink:href="#DejaVuSans-20"/>
    <use x="188.476562" xlink:href="#DejaVuSans-20"/>
    <use x="220.263672" xlink:href="#DejaVuSans-2d"/>
    <use x="256.347656" xlink:href="#DejaVuSans-30"/>
    <use x="319.970703" xlink:href="#DejaVuSans-2e"/>
    <use x="351.757812" xlink:href="#DejaVuSans-30"/>
    <use x="415.380859" xlink:href="#DejaVuSans-34"/>
    <use x="479.003906" xlink:href="#DejaVuSans-33"/>
   </g>
  </g>
 </g>
 <defs>
  <clipPath id="pcea73d3932">
   <rect height="417.78" width="487.71" x="97.65" y="19.44"/>
  </clipPath>
 </defs>
</svg>
