<?xml version="1.0" encoding="utf-8" standalone="no"?>
<!DOCTYPE svg PUBLIC "-//W3C//DTD SVG 1.1//EN"
  "http://www.w3.org/Graphics/SVG/1.1/DTD/svg11.dtd">
<svg height="504pt" version="1.1" viewBox="0 0 604.8 504" width="604.8pt" xmlns="http://www.w3.org/2000/svg" xmlns:xlink="http://www.w3.org/1999/xlink">
 <metadata>
  <rdf:RDF xmlns:cc="http://creativecommons.org/ns#" xmlns:dc="http://purl.org/dc/elements/1.1/" xmlns:rdf="http://www.w3.org/1999/02/22-rdf-syntax-ns#">
   <cc:Work>
    <dc:type rdf:resource="http://purl.org/dc/dcmitype/StillImage"/>
    <dc:date>2023-07-24T16:14:12.177805</dc:date>
    <dc:format>image/svg+xml</dc:format>
    <dc:creator>
     <cc:Agent>
      <dc:title>Matplotlib v3.4.3, https://matplotlib.org/</dc:title>
     </cc:Agent>
    </dc:creator>
   </cc:Work>
  </rdf:RDF>
 </metadata>
 <defs>
  <style type="text/css">*{stroke-linecap:butt;stroke-linejoin:round;}</style>
 </defs>
 <g id="figure_1">
  <g id="patch_1">
   <path d="M 0 504 
L 604.8 504 
L 604.8 0 
L 0 0 
z
" style="fill:#ffffff;"/>
  </g>
  <g id="axes_1">
   <g id="patch_2">
    <path d="M 87.12 437.22 
L 585.36 437.22 
L 585.36 20.845111 
L 87.12 20.845111 
z
" style="fill:#ffffff;"/>
   </g>
   <g id="matplotlib.axis_1">
    <g id="xtick_1">
     <g id="text_1">
      <!-- 2.0 -->
      <g style="fill:#262626;" transform="translate(132.806201 459.257422)scale(0.165 -0.165)">
       <defs>
        <path d="M 1228 531 
L 3431 531 
L 3431 0 
L 469 0 
L 469 531 
Q 828 903 1448 1529 
Q 2069 2156 2228 2338 
Q 2531 2678 2651 2914 
Q 2772 3150 2772 3378 
Q 2772 3750 2511 3984 
Q 2250 4219 1831 4219 
Q 1534 4219 1204 4116 
Q 875 4013 500 3803 
L 500 4441 
Q 881 4594 1212 4672 
Q 1544 4750 1819 4750 
Q 2544 4750 2975 4387 
Q 3406 4025 3406 3419 
Q 3406 3131 3298 2873 
Q 3191 2616 2906 2266 
Q 2828 2175 2409 1742 
Q 1991 1309 1228 531 
z
" id="DejaVuSans-32" transform="scale(0.015625)"/>
        <path d="M 684 794 
L 1344 794 
L 1344 0 
L 684 0 
L 684 794 
z
" id="DejaVuSans-2e" transform="scale(0.015625)"/>
        <path d="M 2034 4250 
Q 1547 4250 1301 3770 
Q 1056 3291 1056 2328 
Q 1056 1369 1301 889 
Q 1547 409 2034 409 
Q 2525 409 2770 889 
Q 3016 1369 3016 2328 
Q 3016 3291 2770 3770 
Q 2525 4250 2034 4250 
z
M 2034 4750 
Q 2819 4750 3233 4129 
Q 3647 3509 3647 2328 
Q 3647 1150 3233 529 
Q 2819 -91 2034 -91 
Q 1250 -91 836 529 
Q 422 1150 422 2328 
Q 422 3509 836 4129 
Q 1250 4750 2034 4750 
z
" id="DejaVuSans-30" transform="scale(0.015625)"/>
       </defs>
       <use xlink:href="#DejaVuSans-32"/>
       <use x="63.623047" xlink:href="#DejaVuSans-2e"/>
       <use x="95.410156" xlink:href="#DejaVuSans-30"/>
      </g>
     </g>
    </g>
    <g id="xtick_2">
     <g id="text_2">
      <!-- 2.5 -->
      <g style="fill:#262626;" transform="translate(200.162649 459.257422)scale(0.165 -0.165)">
       <defs>
        <path d="M 691 4666 
L 3169 4666 
L 3169 4134 
L 1269 4134 
L 1269 2991 
Q 1406 3038 1543 3061 
Q 1681 3084 1819 3084 
Q 2600 3084 3056 2656 
Q 3513 2228 3513 1497 
Q 3513 744 3044 326 
Q 2575 -91 1722 -91 
Q 1428 -91 1123 -41 
Q 819 9 494 109 
L 494 744 
Q 775 591 1075 516 
Q 1375 441 1709 441 
Q 2250 441 2565 725 
Q 2881 1009 2881 1497 
Q 2881 1984 2565 2268 
Q 2250 2553 1709 2553 
Q 1456 2553 1204 2497 
Q 953 2441 691 2322 
L 691 4666 
z
" id="DejaVuSans-35" transform="scale(0.015625)"/>
       </defs>
       <use xlink:href="#DejaVuSans-32"/>
       <use x="63.623047" xlink:href="#DejaVuSans-2e"/>
       <use x="95.410156" xlink:href="#DejaVuSans-35"/>
      </g>
     </g>
    </g>
    <g id="xtick_3">
     <g id="text_3">
      <!-- 3.0 -->
      <g style="fill:#262626;" transform="translate(267.519096 459.257422)scale(0.165 -0.165)">
       <defs>
        <path d="M 2597 2516 
Q 3050 2419 3304 2112 
Q 3559 1806 3559 1356 
Q 3559 666 3084 287 
Q 2609 -91 1734 -91 
Q 1441 -91 1130 -33 
Q 819 25 488 141 
L 488 750 
Q 750 597 1062 519 
Q 1375 441 1716 441 
Q 2309 441 2620 675 
Q 2931 909 2931 1356 
Q 2931 1769 2642 2001 
Q 2353 2234 1838 2234 
L 1294 2234 
L 1294 2753 
L 1863 2753 
Q 2328 2753 2575 2939 
Q 2822 3125 2822 3475 
Q 2822 3834 2567 4026 
Q 2313 4219 1838 4219 
Q 1578 4219 1281 4162 
Q 984 4106 628 3988 
L 628 4550 
Q 988 4650 1302 4700 
Q 1616 4750 1894 4750 
Q 2613 4750 3031 4423 
Q 3450 4097 3450 3541 
Q 3450 3153 3228 2886 
Q 3006 2619 2597 2516 
z
" id="DejaVuSans-33" transform="scale(0.015625)"/>
       </defs>
       <use xlink:href="#DejaVuSans-33"/>
       <use x="63.623047" xlink:href="#DejaVuSans-2e"/>
       <use x="95.410156" xlink:href="#DejaVuSans-30"/>
      </g>
     </g>
    </g>
    <g id="xtick_4">
     <g id="text_4">
      <!-- 3.5 -->
      <g style="fill:#262626;" transform="translate(334.875544 459.257422)scale(0.165 -0.165)">
       <use xlink:href="#DejaVuSans-33"/>
       <use x="63.623047" xlink:href="#DejaVuSans-2e"/>
       <use x="95.410156" xlink:href="#DejaVuSans-35"/>
      </g>
     </g>
    </g>
    <g id="xtick_5">
     <g id="text_5">
      <!-- 4.0 -->
      <g style="fill:#262626;" transform="translate(402.231992 459.257422)scale(0.165 -0.165)">
       <defs>
        <path d="M 2419 4116 
L 825 1625 
L 2419 1625 
L 2419 4116 
z
M 2253 4666 
L 3047 4666 
L 3047 1625 
L 3713 1625 
L 3713 1100 
L 3047 1100 
L 3047 0 
L 2419 0 
L 2419 1100 
L 313 1100 
L 313 1709 
L 2253 4666 
z
" id="DejaVuSans-34" transform="scale(0.015625)"/>
       </defs>
       <use xlink:href="#DejaVuSans-34"/>
       <use x="63.623047" xlink:href="#DejaVuSans-2e"/>
       <use x="95.410156" xlink:href="#DejaVuSans-30"/>
      </g>
     </g>
    </g>
    <g id="xtick_6">
     <g id="text_6">
      <!-- 4.5 -->
      <g style="fill:#262626;" transform="translate(469.588439 459.257422)scale(0.165 -0.165)">
       <use xlink:href="#DejaVuSans-34"/>
       <use x="63.623047" xlink:href="#DejaVuSans-2e"/>
       <use x="95.410156" xlink:href="#DejaVuSans-35"/>
      </g>
     </g>
    </g>
    <g id="xtick_7">
     <g id="text_7">
      <!-- 5.0 -->
      <g style="fill:#262626;" transform="translate(536.944887 459.257422)scale(0.165 -0.165)">
       <use xlink:href="#DejaVuSans-35"/>
       <use x="63.623047" xlink:href="#DejaVuSans-2e"/>
       <use x="95.410156" xlink:href="#DejaVuSans-30"/>
      </g>
     </g>
    </g>
    <g id="text_8">
     <!-- Human ratings (euclidean distance) -->
     <g style="fill:#262626;" transform="translate(175.031719 480.366094)scale(0.18 -0.18)">
      <defs>
       <path d="M 628 4666 
L 1259 4666 
L 1259 2753 
L 3553 2753 
L 3553 4666 
L 4184 4666 
L 4184 0 
L 3553 0 
L 3553 2222 
L 1259 2222 
L 1259 0 
L 628 0 
L 628 4666 
z
" id="DejaVuSans-48" transform="scale(0.015625)"/>
       <path d="M 544 1381 
L 544 3500 
L 1119 3500 
L 1119 1403 
Q 1119 906 1312 657 
Q 1506 409 1894 409 
Q 2359 409 2629 706 
Q 2900 1003 2900 1516 
L 2900 3500 
L 3475 3500 
L 3475 0 
L 2900 0 
L 2900 538 
Q 2691 219 2414 64 
Q 2138 -91 1772 -91 
Q 1169 -91 856 284 
Q 544 659 544 1381 
z
M 1991 3584 
L 1991 3584 
z
" id="DejaVuSans-75" transform="scale(0.015625)"/>
       <path d="M 3328 2828 
Q 3544 3216 3844 3400 
Q 4144 3584 4550 3584 
Q 5097 3584 5394 3201 
Q 5691 2819 5691 2113 
L 5691 0 
L 5113 0 
L 5113 2094 
Q 5113 2597 4934 2840 
Q 4756 3084 4391 3084 
Q 3944 3084 3684 2787 
Q 3425 2491 3425 1978 
L 3425 0 
L 2847 0 
L 2847 2094 
Q 2847 2600 2669 2842 
Q 2491 3084 2119 3084 
Q 1678 3084 1418 2786 
Q 1159 2488 1159 1978 
L 1159 0 
L 581 0 
L 581 3500 
L 1159 3500 
L 1159 2956 
Q 1356 3278 1631 3431 
Q 1906 3584 2284 3584 
Q 2666 3584 2933 3390 
Q 3200 3197 3328 2828 
z
" id="DejaVuSans-6d" transform="scale(0.015625)"/>
       <path d="M 2194 1759 
Q 1497 1759 1228 1600 
Q 959 1441 959 1056 
Q 959 750 1161 570 
Q 1363 391 1709 391 
Q 2188 391 2477 730 
Q 2766 1069 2766 1631 
L 2766 1759 
L 2194 1759 
z
M 3341 1997 
L 3341 0 
L 2766 0 
L 2766 531 
Q 2569 213 2275 61 
Q 1981 -91 1556 -91 
Q 1019 -91 701 211 
Q 384 513 384 1019 
Q 384 1609 779 1909 
Q 1175 2209 1959 2209 
L 2766 2209 
L 2766 2266 
Q 2766 2663 2505 2880 
Q 2244 3097 1772 3097 
Q 1472 3097 1187 3025 
Q 903 2953 641 2809 
L 641 3341 
Q 956 3463 1253 3523 
Q 1550 3584 1831 3584 
Q 2591 3584 2966 3190 
Q 3341 2797 3341 1997 
z
" id="DejaVuSans-61" transform="scale(0.015625)"/>
       <path d="M 3513 2113 
L 3513 0 
L 2938 0 
L 2938 2094 
Q 2938 2591 2744 2837 
Q 2550 3084 2163 3084 
Q 1697 3084 1428 2787 
Q 1159 2491 1159 1978 
L 1159 0 
L 581 0 
L 581 3500 
L 1159 3500 
L 1159 2956 
Q 1366 3272 1645 3428 
Q 1925 3584 2291 3584 
Q 2894 3584 3203 3211 
Q 3513 2838 3513 2113 
z
" id="DejaVuSans-6e" transform="scale(0.015625)"/>
       <path id="DejaVuSans-20" transform="scale(0.015625)"/>
       <path d="M 2631 2963 
Q 2534 3019 2420 3045 
Q 2306 3072 2169 3072 
Q 1681 3072 1420 2755 
Q 1159 2438 1159 1844 
L 1159 0 
L 581 0 
L 581 3500 
L 1159 3500 
L 1159 2956 
Q 1341 3275 1631 3429 
Q 1922 3584 2338 3584 
Q 2397 3584 2469 3576 
Q 2541 3569 2628 3553 
L 2631 2963 
z
" id="DejaVuSans-72" transform="scale(0.015625)"/>
       <path d="M 1172 4494 
L 1172 3500 
L 2356 3500 
L 2356 3053 
L 1172 3053 
L 1172 1153 
Q 1172 725 1289 603 
Q 1406 481 1766 481 
L 2356 481 
L 2356 0 
L 1766 0 
Q 1100 0 847 248 
Q 594 497 594 1153 
L 594 3053 
L 172 3053 
L 172 3500 
L 594 3500 
L 594 4494 
L 1172 4494 
z
" id="DejaVuSans-74" transform="scale(0.015625)"/>
       <path d="M 603 3500 
L 1178 3500 
L 1178 0 
L 603 0 
L 603 3500 
z
M 603 4863 
L 1178 4863 
L 1178 4134 
L 603 4134 
L 603 4863 
z
" id="DejaVuSans-69" transform="scale(0.015625)"/>
       <path d="M 2906 1791 
Q 2906 2416 2648 2759 
Q 2391 3103 1925 3103 
Q 1463 3103 1205 2759 
Q 947 2416 947 1791 
Q 947 1169 1205 825 
Q 1463 481 1925 481 
Q 2391 481 2648 825 
Q 2906 1169 2906 1791 
z
M 3481 434 
Q 3481 -459 3084 -895 
Q 2688 -1331 1869 -1331 
Q 1566 -1331 1297 -1286 
Q 1028 -1241 775 -1147 
L 775 -588 
Q 1028 -725 1275 -790 
Q 1522 -856 1778 -856 
Q 2344 -856 2625 -561 
Q 2906 -266 2906 331 
L 2906 616 
Q 2728 306 2450 153 
Q 2172 0 1784 0 
Q 1141 0 747 490 
Q 353 981 353 1791 
Q 353 2603 747 3093 
Q 1141 3584 1784 3584 
Q 2172 3584 2450 3431 
Q 2728 3278 2906 2969 
L 2906 3500 
L 3481 3500 
L 3481 434 
z
" id="DejaVuSans-67" transform="scale(0.015625)"/>
       <path d="M 2834 3397 
L 2834 2853 
Q 2591 2978 2328 3040 
Q 2066 3103 1784 3103 
Q 1356 3103 1142 2972 
Q 928 2841 928 2578 
Q 928 2378 1081 2264 
Q 1234 2150 1697 2047 
L 1894 2003 
Q 2506 1872 2764 1633 
Q 3022 1394 3022 966 
Q 3022 478 2636 193 
Q 2250 -91 1575 -91 
Q 1294 -91 989 -36 
Q 684 19 347 128 
L 347 722 
Q 666 556 975 473 
Q 1284 391 1588 391 
Q 1994 391 2212 530 
Q 2431 669 2431 922 
Q 2431 1156 2273 1281 
Q 2116 1406 1581 1522 
L 1381 1569 
Q 847 1681 609 1914 
Q 372 2147 372 2553 
Q 372 3047 722 3315 
Q 1072 3584 1716 3584 
Q 2034 3584 2315 3537 
Q 2597 3491 2834 3397 
z
" id="DejaVuSans-73" transform="scale(0.015625)"/>
       <path d="M 1984 4856 
Q 1566 4138 1362 3434 
Q 1159 2731 1159 2009 
Q 1159 1288 1364 580 
Q 1569 -128 1984 -844 
L 1484 -844 
Q 1016 -109 783 600 
Q 550 1309 550 2009 
Q 550 2706 781 3412 
Q 1013 4119 1484 4856 
L 1984 4856 
z
" id="DejaVuSans-28" transform="scale(0.015625)"/>
       <path d="M 3597 1894 
L 3597 1613 
L 953 1613 
Q 991 1019 1311 708 
Q 1631 397 2203 397 
Q 2534 397 2845 478 
Q 3156 559 3463 722 
L 3463 178 
Q 3153 47 2828 -22 
Q 2503 -91 2169 -91 
Q 1331 -91 842 396 
Q 353 884 353 1716 
Q 353 2575 817 3079 
Q 1281 3584 2069 3584 
Q 2775 3584 3186 3129 
Q 3597 2675 3597 1894 
z
M 3022 2063 
Q 3016 2534 2758 2815 
Q 2500 3097 2075 3097 
Q 1594 3097 1305 2825 
Q 1016 2553 972 2059 
L 3022 2063 
z
" id="DejaVuSans-65" transform="scale(0.015625)"/>
       <path d="M 3122 3366 
L 3122 2828 
Q 2878 2963 2633 3030 
Q 2388 3097 2138 3097 
Q 1578 3097 1268 2742 
Q 959 2388 959 1747 
Q 959 1106 1268 751 
Q 1578 397 2138 397 
Q 2388 397 2633 464 
Q 2878 531 3122 666 
L 3122 134 
Q 2881 22 2623 -34 
Q 2366 -91 2075 -91 
Q 1284 -91 818 406 
Q 353 903 353 1747 
Q 353 2603 823 3093 
Q 1294 3584 2113 3584 
Q 2378 3584 2631 3529 
Q 2884 3475 3122 3366 
z
" id="DejaVuSans-63" transform="scale(0.015625)"/>
       <path d="M 603 4863 
L 1178 4863 
L 1178 0 
L 603 0 
L 603 4863 
z
" id="DejaVuSans-6c" transform="scale(0.015625)"/>
       <path d="M 2906 2969 
L 2906 4863 
L 3481 4863 
L 3481 0 
L 2906 0 
L 2906 525 
Q 2725 213 2448 61 
Q 2172 -91 1784 -91 
Q 1150 -91 751 415 
Q 353 922 353 1747 
Q 353 2572 751 3078 
Q 1150 3584 1784 3584 
Q 2172 3584 2448 3432 
Q 2725 3281 2906 2969 
z
M 947 1747 
Q 947 1113 1208 752 
Q 1469 391 1925 391 
Q 2381 391 2643 752 
Q 2906 1113 2906 1747 
Q 2906 2381 2643 2742 
Q 2381 3103 1925 3103 
Q 1469 3103 1208 2742 
Q 947 2381 947 1747 
z
" id="DejaVuSans-64" transform="scale(0.015625)"/>
       <path d="M 513 4856 
L 1013 4856 
Q 1481 4119 1714 3412 
Q 1947 2706 1947 2009 
Q 1947 1309 1714 600 
Q 1481 -109 1013 -844 
L 513 -844 
Q 928 -128 1133 580 
Q 1338 1288 1338 2009 
Q 1338 2731 1133 3434 
Q 928 4138 513 4856 
z
" id="DejaVuSans-29" transform="scale(0.015625)"/>
      </defs>
      <use xlink:href="#DejaVuSans-48"/>
      <use x="75.195312" xlink:href="#DejaVuSans-75"/>
      <use x="138.574219" xlink:href="#DejaVuSans-6d"/>
      <use x="235.986328" xlink:href="#DejaVuSans-61"/>
      <use x="297.265625" xlink:href="#DejaVuSans-6e"/>
      <use x="360.644531" xlink:href="#DejaVuSans-20"/>
      <use x="392.431641" xlink:href="#DejaVuSans-72"/>
      <use x="433.544922" xlink:href="#DejaVuSans-61"/>
      <use x="494.824219" xlink:href="#DejaVuSans-74"/>
      <use x="534.033203" xlink:href="#DejaVuSans-69"/>
      <use x="561.816406" xlink:href="#DejaVuSans-6e"/>
      <use x="625.195312" xlink:href="#DejaVuSans-67"/>
      <use x="688.671875" xlink:href="#DejaVuSans-73"/>
      <use x="740.771484" xlink:href="#DejaVuSans-20"/>
      <use x="772.558594" xlink:href="#DejaVuSans-28"/>
      <use x="811.572266" xlink:href="#DejaVuSans-65"/>
      <use x="873.095703" xlink:href="#DejaVuSans-75"/>
      <use x="936.474609" xlink:href="#DejaVuSans-63"/>
      <use x="991.455078" xlink:href="#DejaVuSans-6c"/>
      <use x="1019.238281" xlink:href="#DejaVuSans-69"/>
      <use x="1047.021484" xlink:href="#DejaVuSans-64"/>
      <use x="1110.498047" xlink:href="#DejaVuSans-65"/>
      <use x="1172.021484" xlink:href="#DejaVuSans-61"/>
      <use x="1233.300781" xlink:href="#DejaVuSans-6e"/>
      <use x="1296.679688" xlink:href="#DejaVuSans-20"/>
      <use x="1328.466797" xlink:href="#DejaVuSans-64"/>
      <use x="1391.943359" xlink:href="#DejaVuSans-69"/>
      <use x="1419.726562" xlink:href="#DejaVuSans-73"/>
      <use x="1471.826172" xlink:href="#DejaVuSans-74"/>
      <use x="1511.035156" xlink:href="#DejaVuSans-61"/>
      <use x="1572.314453" xlink:href="#DejaVuSans-6e"/>
      <use x="1635.693359" xlink:href="#DejaVuSans-63"/>
      <use x="1690.673828" xlink:href="#DejaVuSans-65"/>
      <use x="1752.197266" xlink:href="#DejaVuSans-29"/>
     </g>
    </g>
   </g>
   <g id="matplotlib.axis_2">
    <g id="ytick_1">
     <g id="text_9">
      <!-- 0.12 -->
      <g style="fill:#262626;" transform="translate(40.881719 416.631512)scale(0.165 -0.165)">
       <defs>
        <path d="M 794 531 
L 1825 531 
L 1825 4091 
L 703 3866 
L 703 4441 
L 1819 4666 
L 2450 4666 
L 2450 531 
L 3481 531 
L 3481 0 
L 794 0 
L 794 531 
z
" id="DejaVuSans-31" transform="scale(0.015625)"/>
       </defs>
       <use xlink:href="#DejaVuSans-30"/>
       <use x="63.623047" xlink:href="#DejaVuSans-2e"/>
       <use x="95.410156" xlink:href="#DejaVuSans-31"/>
       <use x="159.033203" xlink:href="#DejaVuSans-32"/>
      </g>
     </g>
    </g>
    <g id="ytick_2">
     <g id="text_10">
      <!-- 0.14 -->
      <g style="fill:#262626;" transform="translate(40.881719 368.583989)scale(0.165 -0.165)">
       <use xlink:href="#DejaVuSans-30"/>
       <use x="63.623047" xlink:href="#DejaVuSans-2e"/>
       <use x="95.410156" xlink:href="#DejaVuSans-31"/>
       <use x="159.033203" xlink:href="#DejaVuSans-34"/>
      </g>
     </g>
    </g>
    <g id="ytick_3">
     <g id="text_11">
      <!-- 0.16 -->
      <g style="fill:#262626;" transform="translate(40.881719 320.536466)scale(0.165 -0.165)">
       <defs>
        <path d="M 2113 2584 
Q 1688 2584 1439 2293 
Q 1191 2003 1191 1497 
Q 1191 994 1439 701 
Q 1688 409 2113 409 
Q 2538 409 2786 701 
Q 3034 994 3034 1497 
Q 3034 2003 2786 2293 
Q 2538 2584 2113 2584 
z
M 3366 4563 
L 3366 3988 
Q 3128 4100 2886 4159 
Q 2644 4219 2406 4219 
Q 1781 4219 1451 3797 
Q 1122 3375 1075 2522 
Q 1259 2794 1537 2939 
Q 1816 3084 2150 3084 
Q 2853 3084 3261 2657 
Q 3669 2231 3669 1497 
Q 3669 778 3244 343 
Q 2819 -91 2113 -91 
Q 1303 -91 875 529 
Q 447 1150 447 2328 
Q 447 3434 972 4092 
Q 1497 4750 2381 4750 
Q 2619 4750 2861 4703 
Q 3103 4656 3366 4563 
z
" id="DejaVuSans-36" transform="scale(0.015625)"/>
       </defs>
       <use xlink:href="#DejaVuSans-30"/>
       <use x="63.623047" xlink:href="#DejaVuSans-2e"/>
       <use x="95.410156" xlink:href="#DejaVuSans-31"/>
       <use x="159.033203" xlink:href="#DejaVuSans-36"/>
      </g>
     </g>
    </g>
    <g id="ytick_4">
     <g id="text_12">
      <!-- 0.18 -->
      <g style="fill:#262626;" transform="translate(40.881719 272.488943)scale(0.165 -0.165)">
       <defs>
        <path d="M 2034 2216 
Q 1584 2216 1326 1975 
Q 1069 1734 1069 1313 
Q 1069 891 1326 650 
Q 1584 409 2034 409 
Q 2484 409 2743 651 
Q 3003 894 3003 1313 
Q 3003 1734 2745 1975 
Q 2488 2216 2034 2216 
z
M 1403 2484 
Q 997 2584 770 2862 
Q 544 3141 544 3541 
Q 544 4100 942 4425 
Q 1341 4750 2034 4750 
Q 2731 4750 3128 4425 
Q 3525 4100 3525 3541 
Q 3525 3141 3298 2862 
Q 3072 2584 2669 2484 
Q 3125 2378 3379 2068 
Q 3634 1759 3634 1313 
Q 3634 634 3220 271 
Q 2806 -91 2034 -91 
Q 1263 -91 848 271 
Q 434 634 434 1313 
Q 434 1759 690 2068 
Q 947 2378 1403 2484 
z
M 1172 3481 
Q 1172 3119 1398 2916 
Q 1625 2713 2034 2713 
Q 2441 2713 2670 2916 
Q 2900 3119 2900 3481 
Q 2900 3844 2670 4047 
Q 2441 4250 2034 4250 
Q 1625 4250 1398 4047 
Q 1172 3844 1172 3481 
z
" id="DejaVuSans-38" transform="scale(0.015625)"/>
       </defs>
       <use xlink:href="#DejaVuSans-30"/>
       <use x="63.623047" xlink:href="#DejaVuSans-2e"/>
       <use x="95.410156" xlink:href="#DejaVuSans-31"/>
       <use x="159.033203" xlink:href="#DejaVuSans-38"/>
      </g>
     </g>
    </g>
    <g id="ytick_5">
     <g id="text_13">
      <!-- 0.20 -->
      <g style="fill:#262626;" transform="translate(40.881719 224.44142)scale(0.165 -0.165)">
       <use xlink:href="#DejaVuSans-30"/>
       <use x="63.623047" xlink:href="#DejaVuSans-2e"/>
       <use x="95.410156" xlink:href="#DejaVuSans-32"/>
       <use x="159.033203" xlink:href="#DejaVuSans-30"/>
      </g>
     </g>
    </g>
    <g id="ytick_6">
     <g id="text_14">
      <!-- 0.22 -->
      <g style="fill:#262626;" transform="translate(40.881719 176.393897)scale(0.165 -0.165)">
       <use xlink:href="#DejaVuSans-30"/>
       <use x="63.623047" xlink:href="#DejaVuSans-2e"/>
       <use x="95.410156" xlink:href="#DejaVuSans-32"/>
       <use x="159.033203" xlink:href="#DejaVuSans-32"/>
      </g>
     </g>
    </g>
    <g id="ytick_7">
     <g id="text_15">
      <!-- 0.24 -->
      <g style="fill:#262626;" transform="translate(40.881719 128.346374)scale(0.165 -0.165)">
       <use xlink:href="#DejaVuSans-30"/>
       <use x="63.623047" xlink:href="#DejaVuSans-2e"/>
       <use x="95.410156" xlink:href="#DejaVuSans-32"/>
       <use x="159.033203" xlink:href="#DejaVuSans-34"/>
      </g>
     </g>
    </g>
    <g id="ytick_8">
     <g id="text_16">
      <!-- 0.26 -->
      <g style="fill:#262626;" transform="translate(40.881719 80.298851)scale(0.165 -0.165)">
       <use xlink:href="#DejaVuSans-30"/>
       <use x="63.623047" xlink:href="#DejaVuSans-2e"/>
       <use x="95.410156" xlink:href="#DejaVuSans-32"/>
       <use x="159.033203" xlink:href="#DejaVuSans-36"/>
      </g>
     </g>
    </g>
    <g id="ytick_9">
     <g id="text_17">
      <!-- 0.28 -->
      <g style="fill:#262626;" transform="translate(40.881719 32.251328)scale(0.165 -0.165)">
       <use xlink:href="#DejaVuSans-30"/>
       <use x="63.623047" xlink:href="#DejaVuSans-2e"/>
       <use x="95.410156" xlink:href="#DejaVuSans-32"/>
       <use x="159.033203" xlink:href="#DejaVuSans-38"/>
      </g>
     </g>
    </g>
    <g id="text_18">
     <!-- Fasttext space (cosine distance) -->
     <g style="fill:#262626;" transform="translate(33.138281 373.912868)rotate(-90)scale(0.18 -0.18)">
      <defs>
       <path d="M 628 4666 
L 3309 4666 
L 3309 4134 
L 1259 4134 
L 1259 2759 
L 3109 2759 
L 3109 2228 
L 1259 2228 
L 1259 0 
L 628 0 
L 628 4666 
z
" id="DejaVuSans-46" transform="scale(0.015625)"/>
       <path d="M 3513 3500 
L 2247 1797 
L 3578 0 
L 2900 0 
L 1881 1375 
L 863 0 
L 184 0 
L 1544 1831 
L 300 3500 
L 978 3500 
L 1906 2253 
L 2834 3500 
L 3513 3500 
z
" id="DejaVuSans-78" transform="scale(0.015625)"/>
       <path d="M 1159 525 
L 1159 -1331 
L 581 -1331 
L 581 3500 
L 1159 3500 
L 1159 2969 
Q 1341 3281 1617 3432 
Q 1894 3584 2278 3584 
Q 2916 3584 3314 3078 
Q 3713 2572 3713 1747 
Q 3713 922 3314 415 
Q 2916 -91 2278 -91 
Q 1894 -91 1617 61 
Q 1341 213 1159 525 
z
M 3116 1747 
Q 3116 2381 2855 2742 
Q 2594 3103 2138 3103 
Q 1681 3103 1420 2742 
Q 1159 2381 1159 1747 
Q 1159 1113 1420 752 
Q 1681 391 2138 391 
Q 2594 391 2855 752 
Q 3116 1113 3116 1747 
z
" id="DejaVuSans-70" transform="scale(0.015625)"/>
       <path d="M 1959 3097 
Q 1497 3097 1228 2736 
Q 959 2375 959 1747 
Q 959 1119 1226 758 
Q 1494 397 1959 397 
Q 2419 397 2687 759 
Q 2956 1122 2956 1747 
Q 2956 2369 2687 2733 
Q 2419 3097 1959 3097 
z
M 1959 3584 
Q 2709 3584 3137 3096 
Q 3566 2609 3566 1747 
Q 3566 888 3137 398 
Q 2709 -91 1959 -91 
Q 1206 -91 779 398 
Q 353 888 353 1747 
Q 353 2609 779 3096 
Q 1206 3584 1959 3584 
z
" id="DejaVuSans-6f" transform="scale(0.015625)"/>
      </defs>
      <use xlink:href="#DejaVuSans-46"/>
      <use x="48.394531" xlink:href="#DejaVuSans-61"/>
      <use x="109.673828" xlink:href="#DejaVuSans-73"/>
      <use x="161.773438" xlink:href="#DejaVuSans-74"/>
      <use x="200.982422" xlink:href="#DejaVuSans-74"/>
      <use x="240.191406" xlink:href="#DejaVuSans-65"/>
      <use x="299.964844" xlink:href="#DejaVuSans-78"/>
      <use x="359.144531" xlink:href="#DejaVuSans-74"/>
      <use x="398.353516" xlink:href="#DejaVuSans-20"/>
      <use x="430.140625" xlink:href="#DejaVuSans-73"/>
      <use x="482.240234" xlink:href="#DejaVuSans-70"/>
      <use x="545.716797" xlink:href="#DejaVuSans-61"/>
      <use x="606.996094" xlink:href="#DejaVuSans-63"/>
      <use x="661.976562" xlink:href="#DejaVuSans-65"/>
      <use x="723.5" xlink:href="#DejaVuSans-20"/>
      <use x="755.287109" xlink:href="#DejaVuSans-28"/>
      <use x="794.300781" xlink:href="#DejaVuSans-63"/>
      <use x="849.28125" xlink:href="#DejaVuSans-6f"/>
      <use x="910.462891" xlink:href="#DejaVuSans-73"/>
      <use x="962.5625" xlink:href="#DejaVuSans-69"/>
      <use x="990.345703" xlink:href="#DejaVuSans-6e"/>
      <use x="1053.724609" xlink:href="#DejaVuSans-65"/>
      <use x="1115.248047" xlink:href="#DejaVuSans-20"/>
      <use x="1147.035156" xlink:href="#DejaVuSans-64"/>
      <use x="1210.511719" xlink:href="#DejaVuSans-69"/>
      <use x="1238.294922" xlink:href="#DejaVuSans-73"/>
      <use x="1290.394531" xlink:href="#DejaVuSans-74"/>
      <use x="1329.603516" xlink:href="#DejaVuSans-61"/>
      <use x="1390.882812" xlink:href="#DejaVuSans-6e"/>
      <use x="1454.261719" xlink:href="#DejaVuSans-63"/>
      <use x="1509.242188" xlink:href="#DejaVuSans-65"/>
      <use x="1570.765625" xlink:href="#DejaVuSans-29"/>
     </g>
    </g>
   </g>
   <g id="PathCollection_1">
    <defs>
     <path d="M 0 3.872983 
C 1.027127 3.872983 2.012324 3.464901 2.738613 2.738613 
C 3.464901 2.012324 3.872983 1.027127 3.872983 0 
C 3.872983 -1.027127 3.464901 -2.012324 2.738613 -2.738613 
C 2.012324 -3.464901 1.027127 -3.872983 0 -3.872983 
C -1.027127 -3.872983 -2.012324 -3.464901 -2.738613 -2.738613 
C -3.464901 -2.012324 -3.872983 -1.027127 -3.872983 0 
C -3.872983 1.027127 -3.464901 2.012324 -2.738613 2.738613 
C -2.012324 3.464901 -1.027127 3.872983 0 3.872983 
z
" id="m4ca1db0b9e" style="stroke:#000000;stroke-opacity:0.8;stroke-width:0.7;"/>
    </defs>
    <g clip-path="url(#p62351b919c)">
     <use style="fill:#4c72b0;fill-opacity:0.8;stroke:#000000;stroke-opacity:0.8;stroke-width:0.7;" x="464.304285" xlink:href="#m4ca1db0b9e" y="39.771242"/>
     <use style="fill:#4c72b0;fill-opacity:0.8;stroke:#000000;stroke-opacity:0.8;stroke-width:0.7;" x="265.706644" xlink:href="#m4ca1db0b9e" y="238.415535"/>
     <use style="fill:#4c72b0;fill-opacity:0.8;stroke:#000000;stroke-opacity:0.8;stroke-width:0.7;" x="134.899742" xlink:href="#m4ca1db0b9e" y="238.868857"/>
     <use style="fill:#4c72b0;fill-opacity:0.8;stroke:#000000;stroke-opacity:0.8;stroke-width:0.7;" x="215.754708" xlink:href="#m4ca1db0b9e" y="226.990325"/>
     <use style="fill:#4c72b0;fill-opacity:0.8;stroke:#000000;stroke-opacity:0.8;stroke-width:0.7;" x="562.712727" xlink:href="#m4ca1db0b9e" y="91.402776"/>
     <use style="fill:#4c72b0;fill-opacity:0.8;stroke:#000000;stroke-opacity:0.8;stroke-width:0.7;" x="478.866817" xlink:href="#m4ca1db0b9e" y="310.546483"/>
     <use style="fill:#4c72b0;fill-opacity:0.8;stroke:#000000;stroke-opacity:0.8;stroke-width:0.7;" x="415.604999" xlink:href="#m4ca1db0b9e" y="161.583409"/>
     <use style="fill:#4c72b0;fill-opacity:0.8;stroke:#000000;stroke-opacity:0.8;stroke-width:0.7;" x="495.514155" xlink:href="#m4ca1db0b9e" y="151.530241"/>
     <use style="fill:#4c72b0;fill-opacity:0.8;stroke:#000000;stroke-opacity:0.8;stroke-width:0.7;" x="521.174675" xlink:href="#m4ca1db0b9e" y="273.83736"/>
     <use style="fill:#4c72b0;fill-opacity:0.8;stroke:#000000;stroke-opacity:0.8;stroke-width:0.7;" x="148.927707" xlink:href="#m4ca1db0b9e" y="257.368141"/>
     <use style="fill:#4c72b0;fill-opacity:0.8;stroke:#000000;stroke-opacity:0.8;stroke-width:0.7;" x="496.989678" xlink:href="#m4ca1db0b9e" y="207.850174"/>
     <use style="fill:#4c72b0;fill-opacity:0.8;stroke:#000000;stroke-opacity:0.8;stroke-width:0.7;" x="109.767273" xlink:href="#m4ca1db0b9e" y="87.350192"/>
     <use style="fill:#4c72b0;fill-opacity:0.8;stroke:#000000;stroke-opacity:0.8;stroke-width:0.7;" x="297.540782" xlink:href="#m4ca1db0b9e" y="355.236978"/>
     <use style="fill:#4c72b0;fill-opacity:0.8;stroke:#000000;stroke-opacity:0.8;stroke-width:0.7;" x="469.941518" xlink:href="#m4ca1db0b9e" y="418.293869"/>
     <use style="fill:#4c72b0;fill-opacity:0.8;stroke:#000000;stroke-opacity:0.8;stroke-width:0.7;" x="321.32426" xlink:href="#m4ca1db0b9e" y="196.474784"/>
    </g>
   </g>
   <g id="PolyCollection_1">
    <defs>
     <path d="M 109.767273 -364.805019 
L 109.767273 -197.142517 
L 114.342479 -198.724908 
L 118.917686 -200.742171 
L 123.492893 -201.495732 
L 128.068099 -202.249293 
L 132.643306 -203.002855 
L 137.218512 -203.779856 
L 141.793719 -204.560198 
L 146.368926 -206.103758 
L 150.944132 -207.908231 
L 155.519339 -209.733558 
L 160.094545 -211.959425 
L 164.669752 -213.139196 
L 169.244959 -214.249239 
L 173.820165 -215.386024 
L 178.395372 -216.522808 
L 182.970579 -217.506044 
L 187.545785 -218.303113 
L 192.120992 -219.100181 
L 196.696198 -219.751808 
L 201.271405 -220.697468 
L 205.846612 -221.872217 
L 210.421818 -222.779034 
L 214.997025 -223.529048 
L 219.572231 -224.467299 
L 224.147438 -225.57831 
L 228.722645 -226.95586 
L 233.297851 -227.309958 
L 237.873058 -228.086441 
L 242.448264 -229.15882 
L 247.023471 -229.997695 
L 251.598678 -229.418257 
L 256.173884 -229.683424 
L 260.749091 -231.168009 
L 265.324298 -232.061203 
L 269.899504 -232.56528 
L 274.474711 -233.346683 
L 279.049917 -234.136204 
L 283.625124 -234.140774 
L 288.200331 -233.512136 
L 292.775537 -232.407722 
L 297.350744 -233.807204 
L 301.92595 -233.455392 
L 306.501157 -233.55899 
L 311.076364 -233.378334 
L 315.65157 -232.906161 
L 320.226777 -232.392603 
L 324.801983 -231.89729 
L 329.37719 -231.402903 
L 333.952397 -231.429266 
L 338.527603 -231.221579 
L 343.10281 -229.935114 
L 347.678017 -229.393767 
L 352.253223 -228.977824 
L 356.82843 -228.411036 
L 361.403636 -227.754226 
L 365.978843 -226.391102 
L 370.55405 -226.866579 
L 375.129256 -225.75711 
L 379.704463 -225.88005 
L 384.279669 -225.382624 
L 388.854876 -224.10355 
L 393.430083 -223.431869 
L 398.005289 -222.196362 
L 402.580496 -219.919354 
L 407.155702 -218.231535 
L 411.730909 -216.599757 
L 416.306116 -216.062552 
L 420.881322 -215.237208 
L 425.456529 -214.279324 
L 430.031736 -213.489057 
L 434.606942 -212.277826 
L 439.182149 -211.438369 
L 443.757355 -210.605706 
L 448.332562 -209.773043 
L 452.907769 -208.35662 
L 457.482975 -207.168643 
L 462.058182 -206.276697 
L 466.633388 -205.551972 
L 471.208595 -204.64887 
L 475.783802 -203.557527 
L 480.359008 -202.671712 
L 484.934215 -201.785897 
L 489.509421 -200.882625 
L 494.084628 -199.650326 
L 498.659835 -198.150303 
L 503.235041 -196.542384 
L 507.810248 -195.30819 
L 512.385455 -193.869697 
L 516.960661 -192.27368 
L 521.535868 -190.671134 
L 526.111074 -189.076507 
L 530.686281 -187.484888 
L 535.261488 -186.079857 
L 539.836694 -185.18761 
L 544.411901 -183.849707 
L 548.987107 -182.119069 
L 553.562314 -180.398355 
L 558.137521 -178.978618 
L 562.712727 -177.852028 
L 562.712727 -395.76238 
L 562.712727 -395.76238 
L 558.137521 -394.193433 
L 553.562314 -393.07962 
L 548.987107 -392.500155 
L 544.411901 -390.468499 
L 539.836694 -388.061562 
L 535.261488 -386.427218 
L 530.686281 -385.235535 
L 526.111074 -383.461089 
L 521.535868 -381.641861 
L 516.960661 -380.204771 
L 512.385455 -378.510405 
L 507.810248 -376.919333 
L 503.235041 -375.14838 
L 498.659835 -373.285475 
L 494.084628 -371.608524 
L 489.509421 -369.8448 
L 484.934215 -368.638818 
L 480.359008 -367.537277 
L 475.783802 -365.997014 
L 471.208595 -364.436271 
L 466.633388 -362.87519 
L 462.058182 -361.0831 
L 457.482975 -359.010966 
L 452.907769 -357.951326 
L 448.332562 -356.630545 
L 443.757355 -355.373073 
L 439.182149 -354.007153 
L 434.606942 -352.275119 
L 430.031736 -351.737935 
L 425.456529 -350.306597 
L 420.881322 -348.950779 
L 416.306116 -347.953402 
L 411.730909 -347.464816 
L 407.155702 -346.525381 
L 402.580496 -345.326533 
L 398.005289 -343.969143 
L 393.430083 -343.412203 
L 388.854876 -342.414567 
L 384.279669 -342.191517 
L 379.704463 -341.458795 
L 375.129256 -340.753976 
L 370.55405 -340.570881 
L 365.978843 -340.368559 
L 361.403636 -340.170504 
L 356.82843 -339.999244 
L 352.253223 -339.340549 
L 347.678017 -339.015025 
L 343.10281 -338.900001 
L 338.527603 -339.049276 
L 333.952397 -339.398212 
L 329.37719 -339.107838 
L 324.801983 -339.124661 
L 320.226777 -339.141483 
L 315.65157 -339.158305 
L 311.076364 -339.093599 
L 306.501157 -339.317224 
L 301.92595 -339.2356 
L 297.350744 -339.258937 
L 292.775537 -339.817753 
L 288.200331 -339.474127 
L 283.625124 -339.322256 
L 279.049917 -339.750278 
L 274.474711 -340.376814 
L 269.899504 -340.810197 
L 265.324298 -341.497453 
L 260.749091 -342.156324 
L 256.173884 -342.416324 
L 251.598678 -342.774362 
L 247.023471 -343.395793 
L 242.448264 -343.798935 
L 237.873058 -344.682564 
L 233.297851 -345.526213 
L 228.722645 -345.807263 
L 224.147438 -345.817133 
L 219.572231 -345.80596 
L 214.997025 -347.184223 
L 210.421818 -347.392943 
L 205.846612 -348.272772 
L 201.271405 -348.911901 
L 196.696198 -349.75078 
L 192.120992 -350.640583 
L 187.545785 -351.476363 
L 182.970579 -352.42019 
L 178.395372 -353.309994 
L 173.820165 -354.464964 
L 169.244959 -355.476133 
L 164.669752 -356.363155 
L 160.094545 -356.869208 
L 155.519339 -357.759011 
L 150.944132 -358.4313 
L 146.368926 -359.537894 
L 141.793719 -360.217204 
L 137.218512 -360.396966 
L 132.643306 -360.576729 
L 128.068099 -360.908175 
L 123.492893 -362.218153 
L 118.917686 -362.867324 
L 114.342479 -363.836915 
L 109.767273 -364.805019 
z
" id="mb771ab5707" style="stroke:#ffffff;stroke-opacity:0.15;"/>
    </defs>
    <g clip-path="url(#p62351b919c)">
     <use style="fill:#4c72b0;fill-opacity:0.15;stroke:#ffffff;stroke-opacity:0.15;" x="0" xlink:href="#mb771ab5707" y="504"/>
    </g>
   </g>
   <g id="line2d_1">
    <path clip-path="url(#p62351b919c)" d="M 109.767273 227.102783 
L 114.342479 226.8741 
L 118.917686 226.645418 
L 123.492893 226.416735 
L 128.068099 226.188052 
L 132.643306 225.959369 
L 137.218512 225.730687 
L 141.793719 225.502004 
L 146.368926 225.273321 
L 150.944132 225.044638 
L 155.519339 224.815956 
L 160.094545 224.587273 
L 164.669752 224.35859 
L 169.244959 224.129907 
L 173.820165 223.901225 
L 178.395372 223.672542 
L 182.970579 223.443859 
L 187.545785 223.215176 
L 192.120992 222.986494 
L 196.696198 222.757811 
L 201.271405 222.529128 
L 205.846612 222.300446 
L 210.421818 222.071763 
L 214.997025 221.84308 
L 219.572231 221.614397 
L 224.147438 221.385715 
L 228.722645 221.157032 
L 233.297851 220.928349 
L 237.873058 220.699666 
L 242.448264 220.470984 
L 247.023471 220.242301 
L 251.598678 220.013618 
L 256.173884 219.784935 
L 260.749091 219.556253 
L 265.324298 219.32757 
L 269.899504 219.098887 
L 274.474711 218.870205 
L 279.049917 218.641522 
L 283.625124 218.412839 
L 288.200331 218.184156 
L 292.775537 217.955474 
L 297.350744 217.726791 
L 301.92595 217.498108 
L 306.501157 217.269425 
L 311.076364 217.040743 
L 315.65157 216.81206 
L 320.226777 216.583377 
L 324.801983 216.354694 
L 329.37719 216.126012 
L 333.952397 215.897329 
L 338.527603 215.668646 
L 343.10281 215.439963 
L 347.678017 215.211281 
L 352.253223 214.982598 
L 356.82843 214.753915 
L 361.403636 214.525233 
L 365.978843 214.29655 
L 370.55405 214.067867 
L 375.129256 213.839184 
L 379.704463 213.610502 
L 384.279669 213.381819 
L 388.854876 213.153136 
L 393.430083 212.924453 
L 398.005289 212.695771 
L 402.580496 212.467088 
L 407.155702 212.238405 
L 411.730909 212.009722 
L 416.306116 211.78104 
L 420.881322 211.552357 
L 425.456529 211.323674 
L 430.031736 211.094991 
L 434.606942 210.866309 
L 439.182149 210.637626 
L 443.757355 210.408943 
L 448.332562 210.180261 
L 452.907769 209.951578 
L 457.482975 209.722895 
L 462.058182 209.494212 
L 466.633388 209.26553 
L 471.208595 209.036847 
L 475.783802 208.808164 
L 480.359008 208.579481 
L 484.934215 208.350799 
L 489.509421 208.122116 
L 494.084628 207.893433 
L 498.659835 207.66475 
L 503.235041 207.436068 
L 507.810248 207.207385 
L 512.385455 206.978702 
L 516.960661 206.75002 
L 521.535868 206.521337 
L 526.111074 206.292654 
L 530.686281 206.063971 
L 535.261488 205.835289 
L 539.836694 205.606606 
L 544.411901 205.377923 
L 548.987107 205.14924 
L 553.562314 204.920558 
L 558.137521 204.691875 
L 562.712727 204.463192 
" style="fill:none;stroke:#4c72b0;stroke-linecap:round;stroke-width:2.25;"/>
   </g>
   <g id="patch_3">
    <path d="M 87.12 437.22 
L 87.12 20.845111 
" style="fill:none;stroke:#262626;stroke-linecap:square;stroke-linejoin:miter;stroke-width:1.25;"/>
   </g>
   <g id="patch_4">
    <path d="M 87.12 437.22 
L 585.36 437.22 
" style="fill:none;stroke:#262626;stroke-linecap:square;stroke-linejoin:miter;stroke-width:1.25;"/>
   </g>
   <g id="text_19">
    <!-- Human ratings ~ Fasttext space -->
    <g style="fill:#262626;" transform="translate(191.195156 14.845111)scale(0.18 -0.18)">
     <defs>
      <path d="M 4684 2553 
L 4684 1997 
Q 4356 1750 4076 1644 
Q 3797 1538 3494 1538 
Q 3150 1538 2694 1722 
Q 2659 1734 2644 1741 
Q 2622 1750 2575 1766 
Q 2091 1959 1797 1959 
Q 1522 1959 1253 1839 
Q 984 1719 678 1459 
L 678 2016 
Q 1006 2263 1286 2370 
Q 1566 2478 1869 2478 
Q 2213 2478 2672 2291 
Q 2703 2278 2719 2272 
Q 2744 2263 2788 2247 
Q 3272 2053 3566 2053 
Q 3834 2053 4098 2172 
Q 4363 2291 4684 2553 
z
" id="DejaVuSans-7e" transform="scale(0.015625)"/>
     </defs>
     <use xlink:href="#DejaVuSans-48"/>
     <use x="75.195312" xlink:href="#DejaVuSans-75"/>
     <use x="138.574219" xlink:href="#DejaVuSans-6d"/>
     <use x="235.986328" xlink:href="#DejaVuSans-61"/>
     <use x="297.265625" xlink:href="#DejaVuSans-6e"/>
     <use x="360.644531" xlink:href="#DejaVuSans-20"/>
     <use x="392.431641" xlink:href="#DejaVuSans-72"/>
     <use x="433.544922" xlink:href="#DejaVuSans-61"/>
     <use x="494.824219" xlink:href="#DejaVuSans-74"/>
     <use x="534.033203" xlink:href="#DejaVuSans-69"/>
     <use x="561.816406" xlink:href="#DejaVuSans-6e"/>
     <use x="625.195312" xlink:href="#DejaVuSans-67"/>
     <use x="688.671875" xlink:href="#DejaVuSans-73"/>
     <use x="740.771484" xlink:href="#DejaVuSans-20"/>
     <use x="772.558594" xlink:href="#DejaVuSans-7e"/>
     <use x="856.347656" xlink:href="#DejaVuSans-20"/>
     <use x="888.134766" xlink:href="#DejaVuSans-46"/>
     <use x="936.529297" xlink:href="#DejaVuSans-61"/>
     <use x="997.808594" xlink:href="#DejaVuSans-73"/>
     <use x="1049.908203" xlink:href="#DejaVuSans-74"/>
     <use x="1089.117188" xlink:href="#DejaVuSans-74"/>
     <use x="1128.326172" xlink:href="#DejaVuSans-65"/>
     <use x="1188.099609" xlink:href="#DejaVuSans-78"/>
     <use x="1247.279297" xlink:href="#DejaVuSans-74"/>
     <use x="1286.488281" xlink:href="#DejaVuSans-20"/>
     <use x="1318.275391" xlink:href="#DejaVuSans-73"/>
     <use x="1370.375" xlink:href="#DejaVuSans-70"/>
     <use x="1433.851562" xlink:href="#DejaVuSans-61"/>
     <use x="1495.130859" xlink:href="#DejaVuSans-63"/>
     <use x="1550.111328" xlink:href="#DejaVuSans-65"/>
    </g>
   </g>
  </g>
  <g id="text_20">
   <!-- r =  0.029 -->
   <g style="fill:#262626;" transform="translate(247.694625 56.732625)scale(0.216 -0.216)">
    <defs>
     <path d="M 678 2906 
L 4684 2906 
L 4684 2381 
L 678 2381 
L 678 2906 
z
M 678 1631 
L 4684 1631 
L 4684 1100 
L 678 1100 
L 678 1631 
z
" id="DejaVuSans-3d" transform="scale(0.015625)"/>
     <path d="M 703 97 
L 703 672 
Q 941 559 1184 500 
Q 1428 441 1663 441 
Q 2288 441 2617 861 
Q 2947 1281 2994 2138 
Q 2813 1869 2534 1725 
Q 2256 1581 1919 1581 
Q 1219 1581 811 2004 
Q 403 2428 403 3163 
Q 403 3881 828 4315 
Q 1253 4750 1959 4750 
Q 2769 4750 3195 4129 
Q 3622 3509 3622 2328 
Q 3622 1225 3098 567 
Q 2575 -91 1691 -91 
Q 1453 -91 1209 -44 
Q 966 3 703 97 
z
M 1959 2075 
Q 2384 2075 2632 2365 
Q 2881 2656 2881 3163 
Q 2881 3666 2632 3958 
Q 2384 4250 1959 4250 
Q 1534 4250 1286 3958 
Q 1038 3666 1038 3163 
Q 1038 2656 1286 2365 
Q 1534 2075 1959 2075 
z
" id="DejaVuSans-39" transform="scale(0.015625)"/>
    </defs>
    <use xlink:href="#DejaVuSans-72"/>
    <use x="41.113281" xlink:href="#DejaVuSans-20"/>
    <use x="72.900391" xlink:href="#DejaVuSans-3d"/>
    <use x="156.689453" xlink:href="#DejaVuSans-20"/>
    <use x="188.476562" xlink:href="#DejaVuSans-20"/>
    <use x="220.263672" xlink:href="#DejaVuSans-30"/>
    <use x="283.886719" xlink:href="#DejaVuSans-2e"/>
    <use x="315.673828" xlink:href="#DejaVuSans-30"/>
    <use x="379.296875" xlink:href="#DejaVuSans-32"/>
    <use x="442.919922" xlink:href="#DejaVuSans-39"/>
   </g>
  </g>
 </g>
 <defs>
  <clipPath id="p62351b919c">
   <rect height="416.374889" width="498.24" x="87.12" y="20.845111"/>
  </clipPath>
 </defs>
</svg>
