<?xml version="1.0" encoding="utf-8" standalone="no"?>
<!DOCTYPE svg PUBLIC "-//W3C//DTD SVG 1.1//EN"
  "http://www.w3.org/Graphics/SVG/1.1/DTD/svg11.dtd">
<svg height="504pt" version="1.1" viewBox="0 0 604.8 504" width="604.8pt" xmlns="http://www.w3.org/2000/svg" xmlns:xlink="http://www.w3.org/1999/xlink">
 <metadata>
  <rdf:RDF xmlns:cc="http://creativecommons.org/ns#" xmlns:dc="http://purl.org/dc/elements/1.1/" xmlns:rdf="http://www.w3.org/1999/02/22-rdf-syntax-ns#">
   <cc:Work>
    <dc:type rdf:resource="http://purl.org/dc/dcmitype/StillImage"/>
    <dc:date>2023-07-25T11:05:07.143070</dc:date>
    <dc:format>image/svg+xml</dc:format>
    <dc:creator>
     <cc:Agent>
      <dc:title>Matplotlib v3.4.3, https://matplotlib.org/</dc:title>
     </cc:Agent>
    </dc:creator>
   </cc:Work>
  </rdf:RDF>
 </metadata>
 <defs>
  <style type="text/css">*{stroke-linecap:butt;stroke-linejoin:round;}</style>
 </defs>
 <g id="figure_1">
  <g id="patch_1">
   <path d="M 0 504 
L 604.8 504 
L 604.8 0 
L 0 0 
z
" style="fill:#ffffff;"/>
  </g>
  <g id="axes_1">
   <g id="patch_2">
    <path d="M 87.12 437.22 
L 585.36 437.22 
L 585.36 19.44 
L 87.12 19.44 
z
" style="fill:#ffffff;"/>
   </g>
   <g id="matplotlib.axis_1">
    <g id="xtick_1">
     <g id="text_1">
      <!-- 1.0 -->
      <g style="fill:#262626;" transform="translate(82.179192 459.257422)scale(0.165 -0.165)">
       <defs>
        <path d="M 794 531 
L 1825 531 
L 1825 4091 
L 703 3866 
L 703 4441 
L 1819 4666 
L 2450 4666 
L 2450 531 
L 3481 531 
L 3481 0 
L 794 0 
L 794 531 
z
" id="DejaVuSans-31" transform="scale(0.015625)"/>
        <path d="M 684 794 
L 1344 794 
L 1344 0 
L 684 0 
L 684 794 
z
" id="DejaVuSans-2e" transform="scale(0.015625)"/>
        <path d="M 2034 4250 
Q 1547 4250 1301 3770 
Q 1056 3291 1056 2328 
Q 1056 1369 1301 889 
Q 1547 409 2034 409 
Q 2525 409 2770 889 
Q 3016 1369 3016 2328 
Q 3016 3291 2770 3770 
Q 2525 4250 2034 4250 
z
M 2034 4750 
Q 2819 4750 3233 4129 
Q 3647 3509 3647 2328 
Q 3647 1150 3233 529 
Q 2819 -91 2034 -91 
Q 1250 -91 836 529 
Q 422 1150 422 2328 
Q 422 3509 836 4129 
Q 1250 4750 2034 4750 
z
" id="DejaVuSans-30" transform="scale(0.015625)"/>
       </defs>
       <use xlink:href="#DejaVuSans-31"/>
       <use x="63.623047" xlink:href="#DejaVuSans-2e"/>
       <use x="95.410156" xlink:href="#DejaVuSans-30"/>
      </g>
     </g>
    </g>
    <g id="xtick_2">
     <g id="text_2">
      <!-- 1.5 -->
      <g style="fill:#262626;" transform="translate(152.282254 459.257422)scale(0.165 -0.165)">
       <defs>
        <path d="M 691 4666 
L 3169 4666 
L 3169 4134 
L 1269 4134 
L 1269 2991 
Q 1406 3038 1543 3061 
Q 1681 3084 1819 3084 
Q 2600 3084 3056 2656 
Q 3513 2228 3513 1497 
Q 3513 744 3044 326 
Q 2575 -91 1722 -91 
Q 1428 -91 1123 -41 
Q 819 9 494 109 
L 494 744 
Q 775 591 1075 516 
Q 1375 441 1709 441 
Q 2250 441 2565 725 
Q 2881 1009 2881 1497 
Q 2881 1984 2565 2268 
Q 2250 2553 1709 2553 
Q 1456 2553 1204 2497 
Q 953 2441 691 2322 
L 691 4666 
z
" id="DejaVuSans-35" transform="scale(0.015625)"/>
       </defs>
       <use xlink:href="#DejaVuSans-31"/>
       <use x="63.623047" xlink:href="#DejaVuSans-2e"/>
       <use x="95.410156" xlink:href="#DejaVuSans-35"/>
      </g>
     </g>
    </g>
    <g id="xtick_3">
     <g id="text_3">
      <!-- 2.0 -->
      <g style="fill:#262626;" transform="translate(222.385315 459.257422)scale(0.165 -0.165)">
       <defs>
        <path d="M 1228 531 
L 3431 531 
L 3431 0 
L 469 0 
L 469 531 
Q 828 903 1448 1529 
Q 2069 2156 2228 2338 
Q 2531 2678 2651 2914 
Q 2772 3150 2772 3378 
Q 2772 3750 2511 3984 
Q 2250 4219 1831 4219 
Q 1534 4219 1204 4116 
Q 875 4013 500 3803 
L 500 4441 
Q 881 4594 1212 4672 
Q 1544 4750 1819 4750 
Q 2544 4750 2975 4387 
Q 3406 4025 3406 3419 
Q 3406 3131 3298 2873 
Q 3191 2616 2906 2266 
Q 2828 2175 2409 1742 
Q 1991 1309 1228 531 
z
" id="DejaVuSans-32" transform="scale(0.015625)"/>
       </defs>
       <use xlink:href="#DejaVuSans-32"/>
       <use x="63.623047" xlink:href="#DejaVuSans-2e"/>
       <use x="95.410156" xlink:href="#DejaVuSans-30"/>
      </g>
     </g>
    </g>
    <g id="xtick_4">
     <g id="text_4">
      <!-- 2.5 -->
      <g style="fill:#262626;" transform="translate(292.488376 459.257422)scale(0.165 -0.165)">
       <use xlink:href="#DejaVuSans-32"/>
       <use x="63.623047" xlink:href="#DejaVuSans-2e"/>
       <use x="95.410156" xlink:href="#DejaVuSans-35"/>
      </g>
     </g>
    </g>
    <g id="xtick_5">
     <g id="text_5">
      <!-- 3.0 -->
      <g style="fill:#262626;" transform="translate(362.591437 459.257422)scale(0.165 -0.165)">
       <defs>
        <path d="M 2597 2516 
Q 3050 2419 3304 2112 
Q 3559 1806 3559 1356 
Q 3559 666 3084 287 
Q 2609 -91 1734 -91 
Q 1441 -91 1130 -33 
Q 819 25 488 141 
L 488 750 
Q 750 597 1062 519 
Q 1375 441 1716 441 
Q 2309 441 2620 675 
Q 2931 909 2931 1356 
Q 2931 1769 2642 2001 
Q 2353 2234 1838 2234 
L 1294 2234 
L 1294 2753 
L 1863 2753 
Q 2328 2753 2575 2939 
Q 2822 3125 2822 3475 
Q 2822 3834 2567 4026 
Q 2313 4219 1838 4219 
Q 1578 4219 1281 4162 
Q 984 4106 628 3988 
L 628 4550 
Q 988 4650 1302 4700 
Q 1616 4750 1894 4750 
Q 2613 4750 3031 4423 
Q 3450 4097 3450 3541 
Q 3450 3153 3228 2886 
Q 3006 2619 2597 2516 
z
" id="DejaVuSans-33" transform="scale(0.015625)"/>
       </defs>
       <use xlink:href="#DejaVuSans-33"/>
       <use x="63.623047" xlink:href="#DejaVuSans-2e"/>
       <use x="95.410156" xlink:href="#DejaVuSans-30"/>
      </g>
     </g>
    </g>
    <g id="xtick_6">
     <g id="text_6">
      <!-- 3.5 -->
      <g style="fill:#262626;" transform="translate(432.694498 459.257422)scale(0.165 -0.165)">
       <use xlink:href="#DejaVuSans-33"/>
       <use x="63.623047" xlink:href="#DejaVuSans-2e"/>
       <use x="95.410156" xlink:href="#DejaVuSans-35"/>
      </g>
     </g>
    </g>
    <g id="xtick_7">
     <g id="text_7">
      <!-- 4.0 -->
      <g style="fill:#262626;" transform="translate(502.797559 459.257422)scale(0.165 -0.165)">
       <defs>
        <path d="M 2419 4116 
L 825 1625 
L 2419 1625 
L 2419 4116 
z
M 2253 4666 
L 3047 4666 
L 3047 1625 
L 3713 1625 
L 3713 1100 
L 3047 1100 
L 3047 0 
L 2419 0 
L 2419 1100 
L 313 1100 
L 313 1709 
L 2253 4666 
z
" id="DejaVuSans-34" transform="scale(0.015625)"/>
       </defs>
       <use xlink:href="#DejaVuSans-34"/>
       <use x="63.623047" xlink:href="#DejaVuSans-2e"/>
       <use x="95.410156" xlink:href="#DejaVuSans-30"/>
      </g>
     </g>
    </g>
    <g id="text_8">
     <!-- Human ratings (euclidean distance) -->
     <g style="fill:#262626;" transform="translate(175.031719 480.366094)scale(0.18 -0.18)">
      <defs>
       <path d="M 628 4666 
L 1259 4666 
L 1259 2753 
L 3553 2753 
L 3553 4666 
L 4184 4666 
L 4184 0 
L 3553 0 
L 3553 2222 
L 1259 2222 
L 1259 0 
L 628 0 
L 628 4666 
z
" id="DejaVuSans-48" transform="scale(0.015625)"/>
       <path d="M 544 1381 
L 544 3500 
L 1119 3500 
L 1119 1403 
Q 1119 906 1312 657 
Q 1506 409 1894 409 
Q 2359 409 2629 706 
Q 2900 1003 2900 1516 
L 2900 3500 
L 3475 3500 
L 3475 0 
L 2900 0 
L 2900 538 
Q 2691 219 2414 64 
Q 2138 -91 1772 -91 
Q 1169 -91 856 284 
Q 544 659 544 1381 
z
M 1991 3584 
L 1991 3584 
z
" id="DejaVuSans-75" transform="scale(0.015625)"/>
       <path d="M 3328 2828 
Q 3544 3216 3844 3400 
Q 4144 3584 4550 3584 
Q 5097 3584 5394 3201 
Q 5691 2819 5691 2113 
L 5691 0 
L 5113 0 
L 5113 2094 
Q 5113 2597 4934 2840 
Q 4756 3084 4391 3084 
Q 3944 3084 3684 2787 
Q 3425 2491 3425 1978 
L 3425 0 
L 2847 0 
L 2847 2094 
Q 2847 2600 2669 2842 
Q 2491 3084 2119 3084 
Q 1678 3084 1418 2786 
Q 1159 2488 1159 1978 
L 1159 0 
L 581 0 
L 581 3500 
L 1159 3500 
L 1159 2956 
Q 1356 3278 1631 3431 
Q 1906 3584 2284 3584 
Q 2666 3584 2933 3390 
Q 3200 3197 3328 2828 
z
" id="DejaVuSans-6d" transform="scale(0.015625)"/>
       <path d="M 2194 1759 
Q 1497 1759 1228 1600 
Q 959 1441 959 1056 
Q 959 750 1161 570 
Q 1363 391 1709 391 
Q 2188 391 2477 730 
Q 2766 1069 2766 1631 
L 2766 1759 
L 2194 1759 
z
M 3341 1997 
L 3341 0 
L 2766 0 
L 2766 531 
Q 2569 213 2275 61 
Q 1981 -91 1556 -91 
Q 1019 -91 701 211 
Q 384 513 384 1019 
Q 384 1609 779 1909 
Q 1175 2209 1959 2209 
L 2766 2209 
L 2766 2266 
Q 2766 2663 2505 2880 
Q 2244 3097 1772 3097 
Q 1472 3097 1187 3025 
Q 903 2953 641 2809 
L 641 3341 
Q 956 3463 1253 3523 
Q 1550 3584 1831 3584 
Q 2591 3584 2966 3190 
Q 3341 2797 3341 1997 
z
" id="DejaVuSans-61" transform="scale(0.015625)"/>
       <path d="M 3513 2113 
L 3513 0 
L 2938 0 
L 2938 2094 
Q 2938 2591 2744 2837 
Q 2550 3084 2163 3084 
Q 1697 3084 1428 2787 
Q 1159 2491 1159 1978 
L 1159 0 
L 581 0 
L 581 3500 
L 1159 3500 
L 1159 2956 
Q 1366 3272 1645 3428 
Q 1925 3584 2291 3584 
Q 2894 3584 3203 3211 
Q 3513 2838 3513 2113 
z
" id="DejaVuSans-6e" transform="scale(0.015625)"/>
       <path id="DejaVuSans-20" transform="scale(0.015625)"/>
       <path d="M 2631 2963 
Q 2534 3019 2420 3045 
Q 2306 3072 2169 3072 
Q 1681 3072 1420 2755 
Q 1159 2438 1159 1844 
L 1159 0 
L 581 0 
L 581 3500 
L 1159 3500 
L 1159 2956 
Q 1341 3275 1631 3429 
Q 1922 3584 2338 3584 
Q 2397 3584 2469 3576 
Q 2541 3569 2628 3553 
L 2631 2963 
z
" id="DejaVuSans-72" transform="scale(0.015625)"/>
       <path d="M 1172 4494 
L 1172 3500 
L 2356 3500 
L 2356 3053 
L 1172 3053 
L 1172 1153 
Q 1172 725 1289 603 
Q 1406 481 1766 481 
L 2356 481 
L 2356 0 
L 1766 0 
Q 1100 0 847 248 
Q 594 497 594 1153 
L 594 3053 
L 172 3053 
L 172 3500 
L 594 3500 
L 594 4494 
L 1172 4494 
z
" id="DejaVuSans-74" transform="scale(0.015625)"/>
       <path d="M 603 3500 
L 1178 3500 
L 1178 0 
L 603 0 
L 603 3500 
z
M 603 4863 
L 1178 4863 
L 1178 4134 
L 603 4134 
L 603 4863 
z
" id="DejaVuSans-69" transform="scale(0.015625)"/>
       <path d="M 2906 1791 
Q 2906 2416 2648 2759 
Q 2391 3103 1925 3103 
Q 1463 3103 1205 2759 
Q 947 2416 947 1791 
Q 947 1169 1205 825 
Q 1463 481 1925 481 
Q 2391 481 2648 825 
Q 2906 1169 2906 1791 
z
M 3481 434 
Q 3481 -459 3084 -895 
Q 2688 -1331 1869 -1331 
Q 1566 -1331 1297 -1286 
Q 1028 -1241 775 -1147 
L 775 -588 
Q 1028 -725 1275 -790 
Q 1522 -856 1778 -856 
Q 2344 -856 2625 -561 
Q 2906 -266 2906 331 
L 2906 616 
Q 2728 306 2450 153 
Q 2172 0 1784 0 
Q 1141 0 747 490 
Q 353 981 353 1791 
Q 353 2603 747 3093 
Q 1141 3584 1784 3584 
Q 2172 3584 2450 3431 
Q 2728 3278 2906 2969 
L 2906 3500 
L 3481 3500 
L 3481 434 
z
" id="DejaVuSans-67" transform="scale(0.015625)"/>
       <path d="M 2834 3397 
L 2834 2853 
Q 2591 2978 2328 3040 
Q 2066 3103 1784 3103 
Q 1356 3103 1142 2972 
Q 928 2841 928 2578 
Q 928 2378 1081 2264 
Q 1234 2150 1697 2047 
L 1894 2003 
Q 2506 1872 2764 1633 
Q 3022 1394 3022 966 
Q 3022 478 2636 193 
Q 2250 -91 1575 -91 
Q 1294 -91 989 -36 
Q 684 19 347 128 
L 347 722 
Q 666 556 975 473 
Q 1284 391 1588 391 
Q 1994 391 2212 530 
Q 2431 669 2431 922 
Q 2431 1156 2273 1281 
Q 2116 1406 1581 1522 
L 1381 1569 
Q 847 1681 609 1914 
Q 372 2147 372 2553 
Q 372 3047 722 3315 
Q 1072 3584 1716 3584 
Q 2034 3584 2315 3537 
Q 2597 3491 2834 3397 
z
" id="DejaVuSans-73" transform="scale(0.015625)"/>
       <path d="M 1984 4856 
Q 1566 4138 1362 3434 
Q 1159 2731 1159 2009 
Q 1159 1288 1364 580 
Q 1569 -128 1984 -844 
L 1484 -844 
Q 1016 -109 783 600 
Q 550 1309 550 2009 
Q 550 2706 781 3412 
Q 1013 4119 1484 4856 
L 1984 4856 
z
" id="DejaVuSans-28" transform="scale(0.015625)"/>
       <path d="M 3597 1894 
L 3597 1613 
L 953 1613 
Q 991 1019 1311 708 
Q 1631 397 2203 397 
Q 2534 397 2845 478 
Q 3156 559 3463 722 
L 3463 178 
Q 3153 47 2828 -22 
Q 2503 -91 2169 -91 
Q 1331 -91 842 396 
Q 353 884 353 1716 
Q 353 2575 817 3079 
Q 1281 3584 2069 3584 
Q 2775 3584 3186 3129 
Q 3597 2675 3597 1894 
z
M 3022 2063 
Q 3016 2534 2758 2815 
Q 2500 3097 2075 3097 
Q 1594 3097 1305 2825 
Q 1016 2553 972 2059 
L 3022 2063 
z
" id="DejaVuSans-65" transform="scale(0.015625)"/>
       <path d="M 3122 3366 
L 3122 2828 
Q 2878 2963 2633 3030 
Q 2388 3097 2138 3097 
Q 1578 3097 1268 2742 
Q 959 2388 959 1747 
Q 959 1106 1268 751 
Q 1578 397 2138 397 
Q 2388 397 2633 464 
Q 2878 531 3122 666 
L 3122 134 
Q 2881 22 2623 -34 
Q 2366 -91 2075 -91 
Q 1284 -91 818 406 
Q 353 903 353 1747 
Q 353 2603 823 3093 
Q 1294 3584 2113 3584 
Q 2378 3584 2631 3529 
Q 2884 3475 3122 3366 
z
" id="DejaVuSans-63" transform="scale(0.015625)"/>
       <path d="M 603 4863 
L 1178 4863 
L 1178 0 
L 603 0 
L 603 4863 
z
" id="DejaVuSans-6c" transform="scale(0.015625)"/>
       <path d="M 2906 2969 
L 2906 4863 
L 3481 4863 
L 3481 0 
L 2906 0 
L 2906 525 
Q 2725 213 2448 61 
Q 2172 -91 1784 -91 
Q 1150 -91 751 415 
Q 353 922 353 1747 
Q 353 2572 751 3078 
Q 1150 3584 1784 3584 
Q 2172 3584 2448 3432 
Q 2725 3281 2906 2969 
z
M 947 1747 
Q 947 1113 1208 752 
Q 1469 391 1925 391 
Q 2381 391 2643 752 
Q 2906 1113 2906 1747 
Q 2906 2381 2643 2742 
Q 2381 3103 1925 3103 
Q 1469 3103 1208 2742 
Q 947 2381 947 1747 
z
" id="DejaVuSans-64" transform="scale(0.015625)"/>
       <path d="M 513 4856 
L 1013 4856 
Q 1481 4119 1714 3412 
Q 1947 2706 1947 2009 
Q 1947 1309 1714 600 
Q 1481 -109 1013 -844 
L 513 -844 
Q 928 -128 1133 580 
Q 1338 1288 1338 2009 
Q 1338 2731 1133 3434 
Q 928 4138 513 4856 
z
" id="DejaVuSans-29" transform="scale(0.015625)"/>
      </defs>
      <use xlink:href="#DejaVuSans-48"/>
      <use x="75.195312" xlink:href="#DejaVuSans-75"/>
      <use x="138.574219" xlink:href="#DejaVuSans-6d"/>
      <use x="235.986328" xlink:href="#DejaVuSans-61"/>
      <use x="297.265625" xlink:href="#DejaVuSans-6e"/>
      <use x="360.644531" xlink:href="#DejaVuSans-20"/>
      <use x="392.431641" xlink:href="#DejaVuSans-72"/>
      <use x="433.544922" xlink:href="#DejaVuSans-61"/>
      <use x="494.824219" xlink:href="#DejaVuSans-74"/>
      <use x="534.033203" xlink:href="#DejaVuSans-69"/>
      <use x="561.816406" xlink:href="#DejaVuSans-6e"/>
      <use x="625.195312" xlink:href="#DejaVuSans-67"/>
      <use x="688.671875" xlink:href="#DejaVuSans-73"/>
      <use x="740.771484" xlink:href="#DejaVuSans-20"/>
      <use x="772.558594" xlink:href="#DejaVuSans-28"/>
      <use x="811.572266" xlink:href="#DejaVuSans-65"/>
      <use x="873.095703" xlink:href="#DejaVuSans-75"/>
      <use x="936.474609" xlink:href="#DejaVuSans-63"/>
      <use x="991.455078" xlink:href="#DejaVuSans-6c"/>
      <use x="1019.238281" xlink:href="#DejaVuSans-69"/>
      <use x="1047.021484" xlink:href="#DejaVuSans-64"/>
      <use x="1110.498047" xlink:href="#DejaVuSans-65"/>
      <use x="1172.021484" xlink:href="#DejaVuSans-61"/>
      <use x="1233.300781" xlink:href="#DejaVuSans-6e"/>
      <use x="1296.679688" xlink:href="#DejaVuSans-20"/>
      <use x="1328.466797" xlink:href="#DejaVuSans-64"/>
      <use x="1391.943359" xlink:href="#DejaVuSans-69"/>
      <use x="1419.726562" xlink:href="#DejaVuSans-73"/>
      <use x="1471.826172" xlink:href="#DejaVuSans-74"/>
      <use x="1511.035156" xlink:href="#DejaVuSans-61"/>
      <use x="1572.314453" xlink:href="#DejaVuSans-6e"/>
      <use x="1635.693359" xlink:href="#DejaVuSans-63"/>
      <use x="1690.673828" xlink:href="#DejaVuSans-65"/>
      <use x="1752.197266" xlink:href="#DejaVuSans-29"/>
     </g>
    </g>
   </g>
   <g id="matplotlib.axis_2">
    <g id="ytick_1">
     <g id="text_9">
      <!-- 0.00 -->
      <g style="fill:#262626;" transform="translate(40.881719 439.474117)scale(0.165 -0.165)">
       <use xlink:href="#DejaVuSans-30"/>
       <use x="63.623047" xlink:href="#DejaVuSans-2e"/>
       <use x="95.410156" xlink:href="#DejaVuSans-30"/>
       <use x="159.033203" xlink:href="#DejaVuSans-30"/>
      </g>
     </g>
    </g>
    <g id="ytick_2">
     <g id="text_10">
      <!-- 0.02 -->
      <g style="fill:#262626;" transform="translate(40.881719 392.98299)scale(0.165 -0.165)">
       <use xlink:href="#DejaVuSans-30"/>
       <use x="63.623047" xlink:href="#DejaVuSans-2e"/>
       <use x="95.410156" xlink:href="#DejaVuSans-30"/>
       <use x="159.033203" xlink:href="#DejaVuSans-32"/>
      </g>
     </g>
    </g>
    <g id="ytick_3">
     <g id="text_11">
      <!-- 0.04 -->
      <g style="fill:#262626;" transform="translate(40.881719 346.491863)scale(0.165 -0.165)">
       <use xlink:href="#DejaVuSans-30"/>
       <use x="63.623047" xlink:href="#DejaVuSans-2e"/>
       <use x="95.410156" xlink:href="#DejaVuSans-30"/>
       <use x="159.033203" xlink:href="#DejaVuSans-34"/>
      </g>
     </g>
    </g>
    <g id="ytick_4">
     <g id="text_12">
      <!-- 0.06 -->
      <g style="fill:#262626;" transform="translate(40.881719 300.000735)scale(0.165 -0.165)">
       <defs>
        <path d="M 2113 2584 
Q 1688 2584 1439 2293 
Q 1191 2003 1191 1497 
Q 1191 994 1439 701 
Q 1688 409 2113 409 
Q 2538 409 2786 701 
Q 3034 994 3034 1497 
Q 3034 2003 2786 2293 
Q 2538 2584 2113 2584 
z
M 3366 4563 
L 3366 3988 
Q 3128 4100 2886 4159 
Q 2644 4219 2406 4219 
Q 1781 4219 1451 3797 
Q 1122 3375 1075 2522 
Q 1259 2794 1537 2939 
Q 1816 3084 2150 3084 
Q 2853 3084 3261 2657 
Q 3669 2231 3669 1497 
Q 3669 778 3244 343 
Q 2819 -91 2113 -91 
Q 1303 -91 875 529 
Q 447 1150 447 2328 
Q 447 3434 972 4092 
Q 1497 4750 2381 4750 
Q 2619 4750 2861 4703 
Q 3103 4656 3366 4563 
z
" id="DejaVuSans-36" transform="scale(0.015625)"/>
       </defs>
       <use xlink:href="#DejaVuSans-30"/>
       <use x="63.623047" xlink:href="#DejaVuSans-2e"/>
       <use x="95.410156" xlink:href="#DejaVuSans-30"/>
       <use x="159.033203" xlink:href="#DejaVuSans-36"/>
      </g>
     </g>
    </g>
    <g id="ytick_5">
     <g id="text_13">
      <!-- 0.08 -->
      <g style="fill:#262626;" transform="translate(40.881719 253.509608)scale(0.165 -0.165)">
       <defs>
        <path d="M 2034 2216 
Q 1584 2216 1326 1975 
Q 1069 1734 1069 1313 
Q 1069 891 1326 650 
Q 1584 409 2034 409 
Q 2484 409 2743 651 
Q 3003 894 3003 1313 
Q 3003 1734 2745 1975 
Q 2488 2216 2034 2216 
z
M 1403 2484 
Q 997 2584 770 2862 
Q 544 3141 544 3541 
Q 544 4100 942 4425 
Q 1341 4750 2034 4750 
Q 2731 4750 3128 4425 
Q 3525 4100 3525 3541 
Q 3525 3141 3298 2862 
Q 3072 2584 2669 2484 
Q 3125 2378 3379 2068 
Q 3634 1759 3634 1313 
Q 3634 634 3220 271 
Q 2806 -91 2034 -91 
Q 1263 -91 848 271 
Q 434 634 434 1313 
Q 434 1759 690 2068 
Q 947 2378 1403 2484 
z
M 1172 3481 
Q 1172 3119 1398 2916 
Q 1625 2713 2034 2713 
Q 2441 2713 2670 2916 
Q 2900 3119 2900 3481 
Q 2900 3844 2670 4047 
Q 2441 4250 2034 4250 
Q 1625 4250 1398 4047 
Q 1172 3844 1172 3481 
z
" id="DejaVuSans-38" transform="scale(0.015625)"/>
       </defs>
       <use xlink:href="#DejaVuSans-30"/>
       <use x="63.623047" xlink:href="#DejaVuSans-2e"/>
       <use x="95.410156" xlink:href="#DejaVuSans-30"/>
       <use x="159.033203" xlink:href="#DejaVuSans-38"/>
      </g>
     </g>
    </g>
    <g id="ytick_6">
     <g id="text_14">
      <!-- 0.10 -->
      <g style="fill:#262626;" transform="translate(40.881719 207.018481)scale(0.165 -0.165)">
       <use xlink:href="#DejaVuSans-30"/>
       <use x="63.623047" xlink:href="#DejaVuSans-2e"/>
       <use x="95.410156" xlink:href="#DejaVuSans-31"/>
       <use x="159.033203" xlink:href="#DejaVuSans-30"/>
      </g>
     </g>
    </g>
    <g id="ytick_7">
     <g id="text_15">
      <!-- 0.12 -->
      <g style="fill:#262626;" transform="translate(40.881719 160.527354)scale(0.165 -0.165)">
       <use xlink:href="#DejaVuSans-30"/>
       <use x="63.623047" xlink:href="#DejaVuSans-2e"/>
       <use x="95.410156" xlink:href="#DejaVuSans-31"/>
       <use x="159.033203" xlink:href="#DejaVuSans-32"/>
      </g>
     </g>
    </g>
    <g id="ytick_8">
     <g id="text_16">
      <!-- 0.14 -->
      <g style="fill:#262626;" transform="translate(40.881719 114.036227)scale(0.165 -0.165)">
       <use xlink:href="#DejaVuSans-30"/>
       <use x="63.623047" xlink:href="#DejaVuSans-2e"/>
       <use x="95.410156" xlink:href="#DejaVuSans-31"/>
       <use x="159.033203" xlink:href="#DejaVuSans-34"/>
      </g>
     </g>
    </g>
    <g id="ytick_9">
     <g id="text_17">
      <!-- 0.16 -->
      <g style="fill:#262626;" transform="translate(40.881719 67.5451)scale(0.165 -0.165)">
       <use xlink:href="#DejaVuSans-30"/>
       <use x="63.623047" xlink:href="#DejaVuSans-2e"/>
       <use x="95.410156" xlink:href="#DejaVuSans-31"/>
       <use x="159.033203" xlink:href="#DejaVuSans-36"/>
      </g>
     </g>
    </g>
    <g id="text_18">
     <!-- Osgood space (euclidean distance) -->
     <g style="fill:#262626;" transform="translate(33.138281 386.348906)rotate(-90)scale(0.18 -0.18)">
      <defs>
       <path d="M 2522 4238 
Q 1834 4238 1429 3725 
Q 1025 3213 1025 2328 
Q 1025 1447 1429 934 
Q 1834 422 2522 422 
Q 3209 422 3611 934 
Q 4013 1447 4013 2328 
Q 4013 3213 3611 3725 
Q 3209 4238 2522 4238 
z
M 2522 4750 
Q 3503 4750 4090 4092 
Q 4678 3434 4678 2328 
Q 4678 1225 4090 567 
Q 3503 -91 2522 -91 
Q 1538 -91 948 565 
Q 359 1222 359 2328 
Q 359 3434 948 4092 
Q 1538 4750 2522 4750 
z
" id="DejaVuSans-4f" transform="scale(0.015625)"/>
       <path d="M 1959 3097 
Q 1497 3097 1228 2736 
Q 959 2375 959 1747 
Q 959 1119 1226 758 
Q 1494 397 1959 397 
Q 2419 397 2687 759 
Q 2956 1122 2956 1747 
Q 2956 2369 2687 2733 
Q 2419 3097 1959 3097 
z
M 1959 3584 
Q 2709 3584 3137 3096 
Q 3566 2609 3566 1747 
Q 3566 888 3137 398 
Q 2709 -91 1959 -91 
Q 1206 -91 779 398 
Q 353 888 353 1747 
Q 353 2609 779 3096 
Q 1206 3584 1959 3584 
z
" id="DejaVuSans-6f" transform="scale(0.015625)"/>
       <path d="M 1159 525 
L 1159 -1331 
L 581 -1331 
L 581 3500 
L 1159 3500 
L 1159 2969 
Q 1341 3281 1617 3432 
Q 1894 3584 2278 3584 
Q 2916 3584 3314 3078 
Q 3713 2572 3713 1747 
Q 3713 922 3314 415 
Q 2916 -91 2278 -91 
Q 1894 -91 1617 61 
Q 1341 213 1159 525 
z
M 3116 1747 
Q 3116 2381 2855 2742 
Q 2594 3103 2138 3103 
Q 1681 3103 1420 2742 
Q 1159 2381 1159 1747 
Q 1159 1113 1420 752 
Q 1681 391 2138 391 
Q 2594 391 2855 752 
Q 3116 1113 3116 1747 
z
" id="DejaVuSans-70" transform="scale(0.015625)"/>
      </defs>
      <use xlink:href="#DejaVuSans-4f"/>
      <use x="78.710938" xlink:href="#DejaVuSans-73"/>
      <use x="130.810547" xlink:href="#DejaVuSans-67"/>
      <use x="194.287109" xlink:href="#DejaVuSans-6f"/>
      <use x="255.46875" xlink:href="#DejaVuSans-6f"/>
      <use x="316.650391" xlink:href="#DejaVuSans-64"/>
      <use x="380.126953" xlink:href="#DejaVuSans-20"/>
      <use x="411.914062" xlink:href="#DejaVuSans-73"/>
      <use x="464.013672" xlink:href="#DejaVuSans-70"/>
      <use x="527.490234" xlink:href="#DejaVuSans-61"/>
      <use x="588.769531" xlink:href="#DejaVuSans-63"/>
      <use x="643.75" xlink:href="#DejaVuSans-65"/>
      <use x="705.273438" xlink:href="#DejaVuSans-20"/>
      <use x="737.060547" xlink:href="#DejaVuSans-28"/>
      <use x="776.074219" xlink:href="#DejaVuSans-65"/>
      <use x="837.597656" xlink:href="#DejaVuSans-75"/>
      <use x="900.976562" xlink:href="#DejaVuSans-63"/>
      <use x="955.957031" xlink:href="#DejaVuSans-6c"/>
      <use x="983.740234" xlink:href="#DejaVuSans-69"/>
      <use x="1011.523438" xlink:href="#DejaVuSans-64"/>
      <use x="1075" xlink:href="#DejaVuSans-65"/>
      <use x="1136.523438" xlink:href="#DejaVuSans-61"/>
      <use x="1197.802734" xlink:href="#DejaVuSans-6e"/>
      <use x="1261.181641" xlink:href="#DejaVuSans-20"/>
      <use x="1292.96875" xlink:href="#DejaVuSans-64"/>
      <use x="1356.445312" xlink:href="#DejaVuSans-69"/>
      <use x="1384.228516" xlink:href="#DejaVuSans-73"/>
      <use x="1436.328125" xlink:href="#DejaVuSans-74"/>
      <use x="1475.537109" xlink:href="#DejaVuSans-61"/>
      <use x="1536.816406" xlink:href="#DejaVuSans-6e"/>
      <use x="1600.195312" xlink:href="#DejaVuSans-63"/>
      <use x="1655.175781" xlink:href="#DejaVuSans-65"/>
      <use x="1716.699219" xlink:href="#DejaVuSans-29"/>
     </g>
    </g>
   </g>
   <g id="PathCollection_1">
    <defs>
     <path d="M 0 3.872983 
C 1.027127 3.872983 2.012324 3.464901 2.738613 2.738613 
C 3.464901 2.012324 3.872983 1.027127 3.872983 0 
C 3.872983 -1.027127 3.464901 -2.012324 2.738613 -2.738613 
C 2.012324 -3.464901 1.027127 -3.872983 0 -3.872983 
C -1.027127 -3.872983 -2.012324 -3.464901 -2.738613 -2.738613 
C -3.464901 -2.012324 -3.872983 -1.027127 -3.872983 0 
C -3.872983 1.027127 -3.464901 2.012324 -2.738613 2.738613 
C -2.012324 3.464901 -1.027127 3.872983 0 3.872983 
z
" id="m56ad05d352" style="stroke:#000000;stroke-opacity:0.8;stroke-width:0.7;"/>
    </defs>
    <g clip-path="url(#pabba56250b)">
     <use style="fill:#4c72b0;fill-opacity:0.8;stroke:#000000;stroke-opacity:0.8;stroke-width:0.7;" x="554.7779" xlink:href="#m56ad05d352" y="170.650825"/>
     <use style="fill:#4c72b0;fill-opacity:0.8;stroke:#000000;stroke-opacity:0.8;stroke-width:0.7;" x="434.974936" xlink:href="#m56ad05d352" y="182.443639"/>
     <use style="fill:#4c72b0;fill-opacity:0.8;stroke:#000000;stroke-opacity:0.8;stroke-width:0.7;" x="110.300389" xlink:href="#m56ad05d352" y="418.23"/>
     <use style="fill:#4c72b0;fill-opacity:0.8;stroke:#000000;stroke-opacity:0.8;stroke-width:0.7;" x="200.225163" xlink:href="#m56ad05d352" y="124.961337"/>
     <use style="fill:#4c72b0;fill-opacity:0.8;stroke:#000000;stroke-opacity:0.8;stroke-width:0.7;" x="562.712727" xlink:href="#m56ad05d352" y="192.879365"/>
     <use style="fill:#4c72b0;fill-opacity:0.8;stroke:#000000;stroke-opacity:0.8;stroke-width:0.7;" x="496.472619" xlink:href="#m56ad05d352" y="186.761427"/>
     <use style="fill:#4c72b0;fill-opacity:0.8;stroke:#000000;stroke-opacity:0.8;stroke-width:0.7;" x="508.26089" xlink:href="#m56ad05d352" y="92.508187"/>
     <use style="fill:#4c72b0;fill-opacity:0.8;stroke:#000000;stroke-opacity:0.8;stroke-width:0.7;" x="459.367434" xlink:href="#m56ad05d352" y="354.259959"/>
     <use style="fill:#4c72b0;fill-opacity:0.8;stroke:#000000;stroke-opacity:0.8;stroke-width:0.7;" x="492.676498" xlink:href="#m56ad05d352" y="343.268774"/>
     <use style="fill:#4c72b0;fill-opacity:0.8;stroke:#000000;stroke-opacity:0.8;stroke-width:0.7;" x="312.268393" xlink:href="#m56ad05d352" y="151.534175"/>
     <use style="fill:#4c72b0;fill-opacity:0.8;stroke:#000000;stroke-opacity:0.8;stroke-width:0.7;" x="561.82112" xlink:href="#m56ad05d352" y="38.43"/>
     <use style="fill:#4c72b0;fill-opacity:0.8;stroke:#000000;stroke-opacity:0.8;stroke-width:0.7;" x="109.767273" xlink:href="#m56ad05d352" y="289.258713"/>
     <use style="fill:#4c72b0;fill-opacity:0.8;stroke:#000000;stroke-opacity:0.8;stroke-width:0.7;" x="223.082894" xlink:href="#m56ad05d352" y="274.420647"/>
     <use style="fill:#4c72b0;fill-opacity:0.8;stroke:#000000;stroke-opacity:0.8;stroke-width:0.7;" x="506.760657" xlink:href="#m56ad05d352" y="185.521977"/>
     <use style="fill:#4c72b0;fill-opacity:0.8;stroke:#000000;stroke-opacity:0.8;stroke-width:0.7;" x="326.32286" xlink:href="#m56ad05d352" y="337.857667"/>
    </g>
   </g>
   <g id="PolyCollection_1">
    <defs>
     <path d="M 109.767273 -359.601762 
L 109.767273 -91.680955 
L 114.342479 -94.223996 
L 118.917686 -96.854733 
L 123.492893 -99.44152 
L 128.068099 -102.029703 
L 132.643306 -104.617886 
L 137.218512 -107.23985 
L 141.793719 -109.784212 
L 146.368926 -112.370108 
L 150.944132 -114.956004 
L 155.519339 -117.541899 
L 160.094545 -120.13601 
L 164.669752 -122.820418 
L 169.244959 -125.312562 
L 173.820165 -127.895216 
L 178.395372 -130.47787 
L 182.970579 -132.973957 
L 187.545785 -135.120132 
L 192.120992 -137.41442 
L 196.696198 -139.957891 
L 201.271405 -142.490271 
L 205.846612 -145.026455 
L 210.421818 -147.568473 
L 214.997025 -150.113451 
L 219.572231 -152.65843 
L 224.147438 -155.266043 
L 228.722645 -157.979882 
L 233.297851 -160.696338 
L 237.873058 -163.412794 
L 242.448264 -166.12925 
L 247.023471 -168.845706 
L 251.598678 -171.444857 
L 256.173884 -174.278618 
L 260.749091 -176.881825 
L 265.324298 -179.412165 
L 269.899504 -182.011229 
L 274.474711 -184.808686 
L 279.049917 -187.327798 
L 283.625124 -189.365721 
L 288.200331 -191.838348 
L 292.775537 -194.318793 
L 297.350744 -196.6801 
L 301.92595 -198.844851 
L 306.501157 -200.931021 
L 311.076364 -203.262121 
L 315.65157 -204.673794 
L 320.226777 -206.06204 
L 324.801983 -207.454834 
L 329.37719 -209.377603 
L 333.952397 -210.879424 
L 338.527603 -212.718503 
L 343.10281 -214.783779 
L 347.678017 -216.491986 
L 352.253223 -218.007359 
L 356.82843 -219.186756 
L 361.403636 -220.546609 
L 365.978843 -221.980421 
L 370.55405 -223.996446 
L 375.129256 -225.579398 
L 379.704463 -227.181839 
L 384.279669 -228.445235 
L 388.854876 -228.981164 
L 393.430083 -230.318504 
L 398.005289 -231.321151 
L 402.580496 -232.819096 
L 407.155702 -234.500747 
L 411.730909 -235.859836 
L 416.306116 -237.279026 
L 420.881322 -238.659644 
L 425.456529 -240.39647 
L 430.031736 -241.435284 
L 434.606942 -242.268499 
L 439.182149 -243.267573 
L 443.757355 -243.546245 
L 448.332562 -244.134999 
L 452.907769 -244.744247 
L 457.482975 -245.363468 
L 462.058182 -246.111604 
L 466.633388 -247.467731 
L 471.208595 -248.99288 
L 475.783802 -250.066281 
L 480.359008 -251.29045 
L 484.934215 -251.828261 
L 489.509421 -252.080097 
L 494.084628 -251.648203 
L 498.659835 -252.756864 
L 503.235041 -253.122185 
L 507.810248 -254.977019 
L 512.385455 -255.5308 
L 516.960661 -256.704238 
L 521.535868 -256.73293 
L 526.111074 -256.05145 
L 530.686281 -256.716241 
L 535.261488 -257.461445 
L 539.836694 -257.509548 
L 544.411901 -257.949523 
L 548.987107 -258.865347 
L 553.562314 -259.792137 
L 558.137521 -260.718926 
L 562.712727 -261.645716 
L 562.712727 -407.53178 
L 562.712727 -407.53178 
L 558.137521 -405.082868 
L 553.562314 -402.633956 
L 548.987107 -400.172109 
L 544.411901 -397.740483 
L 539.836694 -395.300537 
L 535.261488 -392.860592 
L 530.686281 -390.420646 
L 526.111074 -387.968834 
L 521.535868 -385.800151 
L 516.960661 -383.949378 
L 512.385455 -382.287838 
L 507.810248 -380.21816 
L 503.235041 -377.451538 
L 498.659835 -374.684917 
L 494.084628 -373.044568 
L 489.509421 -371.709702 
L 484.934215 -369.244225 
L 480.359008 -366.949129 
L 475.783802 -364.443805 
L 471.208595 -361.824253 
L 466.633388 -359.461798 
L 462.058182 -358.152642 
L 457.482975 -356.440927 
L 452.907769 -354.877502 
L 448.332562 -352.741458 
L 443.757355 -350.814243 
L 439.182149 -350.070376 
L 434.606942 -349.279469 
L 430.031736 -348.353387 
L 425.456529 -346.748267 
L 420.881322 -345.215319 
L 416.306116 -343.0538 
L 411.730909 -341.398353 
L 407.155702 -341.379125 
L 402.580496 -341.057713 
L 398.005289 -340.79795 
L 393.430083 -340.553821 
L 388.854876 -340.032664 
L 384.279669 -339.982175 
L 379.704463 -340.048078 
L 375.129256 -340.141541 
L 370.55405 -340.599298 
L 365.978843 -340.809685 
L 361.403636 -340.200316 
L 356.82843 -340.885475 
L 352.253223 -341.404183 
L 347.678017 -341.756447 
L 343.10281 -342.094648 
L 338.527603 -342.237157 
L 333.952397 -342.780137 
L 329.37719 -343.133406 
L 324.801983 -343.486676 
L 320.226777 -343.830298 
L 315.65157 -344.171396 
L 311.076364 -344.512494 
L 306.501157 -344.853593 
L 301.92595 -344.96802 
L 297.350744 -344.68096 
L 292.775537 -345.441323 
L 288.200331 -346.201685 
L 283.625124 -346.559084 
L 279.049917 -346.900183 
L 274.474711 -347.166676 
L 269.899504 -346.653565 
L 265.324298 -347.037987 
L 260.749091 -346.988113 
L 256.173884 -346.938238 
L 251.598678 -347.33727 
L 247.023471 -347.743521 
L 242.448264 -348.148046 
L 237.873058 -348.552571 
L 233.297851 -348.957095 
L 228.722645 -349.36162 
L 224.147438 -349.766145 
L 219.572231 -350.17067 
L 214.997025 -350.575195 
L 210.421818 -350.97972 
L 205.846612 -351.294789 
L 201.271405 -351.679651 
L 196.696198 -352.12501 
L 192.120992 -352.570368 
L 187.545785 -353.015727 
L 182.970579 -353.428784 
L 178.395372 -353.838002 
L 173.820165 -354.24722 
L 169.244959 -354.656438 
L 164.669752 -355.065656 
L 160.094545 -355.474875 
L 155.519339 -355.884093 
L 150.944132 -356.291249 
L 146.368926 -356.69789 
L 141.793719 -357.104531 
L 137.218512 -357.511172 
L 132.643306 -357.877559 
L 128.068099 -358.2224 
L 123.492893 -358.567241 
L 118.917686 -358.912081 
L 114.342479 -359.256922 
L 109.767273 -359.601762 
z
" id="m018ed10eaa" style="stroke:#ffffff;stroke-opacity:0.15;"/>
    </defs>
    <g clip-path="url(#pabba56250b)">
     <use style="fill:#4c72b0;fill-opacity:0.15;stroke:#ffffff;stroke-opacity:0.15;" x="0" xlink:href="#m018ed10eaa" y="504"/>
    </g>
   </g>
   <g id="line2d_1">
    <path clip-path="url(#pabba56250b)" d="M 109.767273 308.948791 
L 114.342479 307.546626 
L 118.917686 306.144462 
L 123.492893 304.742298 
L 128.068099 303.340134 
L 132.643306 301.93797 
L 137.218512 300.535806 
L 141.793719 299.133642 
L 146.368926 297.731478 
L 150.944132 296.329314 
L 155.519339 294.92715 
L 160.094545 293.524986 
L 164.669752 292.122822 
L 169.244959 290.720658 
L 173.820165 289.318494 
L 178.395372 287.91633 
L 182.970579 286.514166 
L 187.545785 285.112002 
L 192.120992 283.709838 
L 196.696198 282.307674 
L 201.271405 280.90551 
L 205.846612 279.503346 
L 210.421818 278.101182 
L 214.997025 276.699018 
L 219.572231 275.296854 
L 224.147438 273.89469 
L 228.722645 272.492526 
L 233.297851 271.090361 
L 237.873058 269.688197 
L 242.448264 268.286033 
L 247.023471 266.883869 
L 251.598678 265.481705 
L 256.173884 264.079541 
L 260.749091 262.677377 
L 265.324298 261.275213 
L 269.899504 259.873049 
L 274.474711 258.470885 
L 279.049917 257.068721 
L 283.625124 255.666557 
L 288.200331 254.264393 
L 292.775537 252.862229 
L 297.350744 251.460065 
L 301.92595 250.057901 
L 306.501157 248.655737 
L 311.076364 247.253573 
L 315.65157 245.851409 
L 320.226777 244.449245 
L 324.801983 243.047081 
L 329.37719 241.644917 
L 333.952397 240.242753 
L 338.527603 238.840589 
L 343.10281 237.438425 
L 347.678017 236.036261 
L 352.253223 234.634097 
L 356.82843 233.231932 
L 361.403636 231.829768 
L 365.978843 230.427604 
L 370.55405 229.02544 
L 375.129256 227.623276 
L 379.704463 226.221112 
L 384.279669 224.818948 
L 388.854876 223.416784 
L 393.430083 222.01462 
L 398.005289 220.612456 
L 402.580496 219.210292 
L 407.155702 217.808128 
L 411.730909 216.405964 
L 416.306116 215.0038 
L 420.881322 213.601636 
L 425.456529 212.199472 
L 430.031736 210.797308 
L 434.606942 209.395144 
L 439.182149 207.99298 
L 443.757355 206.590816 
L 448.332562 205.188652 
L 452.907769 203.786488 
L 457.482975 202.384324 
L 462.058182 200.98216 
L 466.633388 199.579996 
L 471.208595 198.177832 
L 475.783802 196.775668 
L 480.359008 195.373503 
L 484.934215 193.971339 
L 489.509421 192.569175 
L 494.084628 191.167011 
L 498.659835 189.764847 
L 503.235041 188.362683 
L 507.810248 186.960519 
L 512.385455 185.558355 
L 516.960661 184.156191 
L 521.535868 182.754027 
L 526.111074 181.351863 
L 530.686281 179.949699 
L 535.261488 178.547535 
L 539.836694 177.145371 
L 544.411901 175.743207 
L 548.987107 174.341043 
L 553.562314 172.938879 
L 558.137521 171.536715 
L 562.712727 170.134551 
" style="fill:none;stroke:#4c72b0;stroke-linecap:round;stroke-width:2.25;"/>
   </g>
   <g id="patch_3">
    <path d="M 87.12 437.22 
L 87.12 19.44 
" style="fill:none;stroke:#262626;stroke-linecap:square;stroke-linejoin:miter;stroke-width:1.25;"/>
   </g>
   <g id="patch_4">
    <path d="M 87.12 437.22 
L 585.36 437.22 
" style="fill:none;stroke:#262626;stroke-linecap:square;stroke-linejoin:miter;stroke-width:1.25;"/>
   </g>
   <g id="text_19">
    <!-- Human ratings ~ Osgoodspace -->
    <g style="fill:#262626;" transform="translate(195.692344 13.44)scale(0.18 -0.18)">
     <defs>
      <path d="M 4684 2553 
L 4684 1997 
Q 4356 1750 4076 1644 
Q 3797 1538 3494 1538 
Q 3150 1538 2694 1722 
Q 2659 1734 2644 1741 
Q 2622 1750 2575 1766 
Q 2091 1959 1797 1959 
Q 1522 1959 1253 1839 
Q 984 1719 678 1459 
L 678 2016 
Q 1006 2263 1286 2370 
Q 1566 2478 1869 2478 
Q 2213 2478 2672 2291 
Q 2703 2278 2719 2272 
Q 2744 2263 2788 2247 
Q 3272 2053 3566 2053 
Q 3834 2053 4098 2172 
Q 4363 2291 4684 2553 
z
" id="DejaVuSans-7e" transform="scale(0.015625)"/>
     </defs>
     <use xlink:href="#DejaVuSans-48"/>
     <use x="75.195312" xlink:href="#DejaVuSans-75"/>
     <use x="138.574219" xlink:href="#DejaVuSans-6d"/>
     <use x="235.986328" xlink:href="#DejaVuSans-61"/>
     <use x="297.265625" xlink:href="#DejaVuSans-6e"/>
     <use x="360.644531" xlink:href="#DejaVuSans-20"/>
     <use x="392.431641" xlink:href="#DejaVuSans-72"/>
     <use x="433.544922" xlink:href="#DejaVuSans-61"/>
     <use x="494.824219" xlink:href="#DejaVuSans-74"/>
     <use x="534.033203" xlink:href="#DejaVuSans-69"/>
     <use x="561.816406" xlink:href="#DejaVuSans-6e"/>
     <use x="625.195312" xlink:href="#DejaVuSans-67"/>
     <use x="688.671875" xlink:href="#DejaVuSans-73"/>
     <use x="740.771484" xlink:href="#DejaVuSans-20"/>
     <use x="772.558594" xlink:href="#DejaVuSans-7e"/>
     <use x="856.347656" xlink:href="#DejaVuSans-20"/>
     <use x="888.134766" xlink:href="#DejaVuSans-4f"/>
     <use x="966.845703" xlink:href="#DejaVuSans-73"/>
     <use x="1018.945312" xlink:href="#DejaVuSans-67"/>
     <use x="1082.421875" xlink:href="#DejaVuSans-6f"/>
     <use x="1143.603516" xlink:href="#DejaVuSans-6f"/>
     <use x="1204.785156" xlink:href="#DejaVuSans-64"/>
     <use x="1268.261719" xlink:href="#DejaVuSans-73"/>
     <use x="1320.361328" xlink:href="#DejaVuSans-70"/>
     <use x="1383.837891" xlink:href="#DejaVuSans-61"/>
     <use x="1445.117188" xlink:href="#DejaVuSans-63"/>
     <use x="1500.097656" xlink:href="#DejaVuSans-65"/>
    </g>
   </g>
  </g>
  <g id="text_20">
   <!-- r =  0.4 -->
   <g style="fill:#262626;" transform="translate(261.437625 56.732625)scale(0.216 -0.216)">
    <defs>
     <path d="M 678 2906 
L 4684 2906 
L 4684 2381 
L 678 2381 
L 678 2906 
z
M 678 1631 
L 4684 1631 
L 4684 1100 
L 678 1100 
L 678 1631 
z
" id="DejaVuSans-3d" transform="scale(0.015625)"/>
    </defs>
    <use xlink:href="#DejaVuSans-72"/>
    <use x="41.113281" xlink:href="#DejaVuSans-20"/>
    <use x="72.900391" xlink:href="#DejaVuSans-3d"/>
    <use x="156.689453" xlink:href="#DejaVuSans-20"/>
    <use x="188.476562" xlink:href="#DejaVuSans-20"/>
    <use x="220.263672" xlink:href="#DejaVuSans-30"/>
    <use x="283.886719" xlink:href="#DejaVuSans-2e"/>
    <use x="315.673828" xlink:href="#DejaVuSans-34"/>
   </g>
  </g>
 </g>
 <defs>
  <clipPath id="pabba56250b">
   <rect height="417.78" width="498.24" x="87.12" y="19.44"/>
  </clipPath>
 </defs>
</svg>
