<?xml version="1.0" encoding="utf-8" standalone="no"?>
<!DOCTYPE svg PUBLIC "-//W3C//DTD SVG 1.1//EN"
  "http://www.w3.org/Graphics/SVG/1.1/DTD/svg11.dtd">
<svg height="504pt" version="1.1" viewBox="0 0 604.8 504" width="604.8pt" xmlns="http://www.w3.org/2000/svg" xmlns:xlink="http://www.w3.org/1999/xlink">
 <metadata>
  <rdf:RDF xmlns:cc="http://creativecommons.org/ns#" xmlns:dc="http://purl.org/dc/elements/1.1/" xmlns:rdf="http://www.w3.org/1999/02/22-rdf-syntax-ns#">
   <cc:Work>
    <dc:type rdf:resource="http://purl.org/dc/dcmitype/StillImage"/>
    <dc:date>2023-07-24T16:14:20.875177</dc:date>
    <dc:format>image/svg+xml</dc:format>
    <dc:creator>
     <cc:Agent>
      <dc:title>Matplotlib v3.4.3, https://matplotlib.org/</dc:title>
     </cc:Agent>
    </dc:creator>
   </cc:Work>
  </rdf:RDF>
 </metadata>
 <defs>
  <style type="text/css">*{stroke-linecap:butt;stroke-linejoin:round;}</style>
 </defs>
 <g id="figure_1">
  <g id="patch_1">
   <path d="M 0 504 
L 604.8 504 
L 604.8 0 
L 0 0 
z
" style="fill:#ffffff;"/>
  </g>
  <g id="axes_1">
   <g id="patch_2">
    <path d="M 87.12 437.22 
L 585.36 437.22 
L 585.36 19.44 
L 87.12 19.44 
z
" style="fill:#ffffff;"/>
   </g>
   <g id="matplotlib.axis_1">
    <g id="xtick_1">
     <g id="text_1">
      <!-- 2.0 -->
      <g style="fill:#262626;" transform="translate(132.806201 459.257422)scale(0.165 -0.165)">
       <defs>
        <path d="M 1228 531 
L 3431 531 
L 3431 0 
L 469 0 
L 469 531 
Q 828 903 1448 1529 
Q 2069 2156 2228 2338 
Q 2531 2678 2651 2914 
Q 2772 3150 2772 3378 
Q 2772 3750 2511 3984 
Q 2250 4219 1831 4219 
Q 1534 4219 1204 4116 
Q 875 4013 500 3803 
L 500 4441 
Q 881 4594 1212 4672 
Q 1544 4750 1819 4750 
Q 2544 4750 2975 4387 
Q 3406 4025 3406 3419 
Q 3406 3131 3298 2873 
Q 3191 2616 2906 2266 
Q 2828 2175 2409 1742 
Q 1991 1309 1228 531 
z
" id="DejaVuSans-32" transform="scale(0.015625)"/>
        <path d="M 684 794 
L 1344 794 
L 1344 0 
L 684 0 
L 684 794 
z
" id="DejaVuSans-2e" transform="scale(0.015625)"/>
        <path d="M 2034 4250 
Q 1547 4250 1301 3770 
Q 1056 3291 1056 2328 
Q 1056 1369 1301 889 
Q 1547 409 2034 409 
Q 2525 409 2770 889 
Q 3016 1369 3016 2328 
Q 3016 3291 2770 3770 
Q 2525 4250 2034 4250 
z
M 2034 4750 
Q 2819 4750 3233 4129 
Q 3647 3509 3647 2328 
Q 3647 1150 3233 529 
Q 2819 -91 2034 -91 
Q 1250 -91 836 529 
Q 422 1150 422 2328 
Q 422 3509 836 4129 
Q 1250 4750 2034 4750 
z
" id="DejaVuSans-30" transform="scale(0.015625)"/>
       </defs>
       <use xlink:href="#DejaVuSans-32"/>
       <use x="63.623047" xlink:href="#DejaVuSans-2e"/>
       <use x="95.410156" xlink:href="#DejaVuSans-30"/>
      </g>
     </g>
    </g>
    <g id="xtick_2">
     <g id="text_2">
      <!-- 2.5 -->
      <g style="fill:#262626;" transform="translate(200.162649 459.257422)scale(0.165 -0.165)">
       <defs>
        <path d="M 691 4666 
L 3169 4666 
L 3169 4134 
L 1269 4134 
L 1269 2991 
Q 1406 3038 1543 3061 
Q 1681 3084 1819 3084 
Q 2600 3084 3056 2656 
Q 3513 2228 3513 1497 
Q 3513 744 3044 326 
Q 2575 -91 1722 -91 
Q 1428 -91 1123 -41 
Q 819 9 494 109 
L 494 744 
Q 775 591 1075 516 
Q 1375 441 1709 441 
Q 2250 441 2565 725 
Q 2881 1009 2881 1497 
Q 2881 1984 2565 2268 
Q 2250 2553 1709 2553 
Q 1456 2553 1204 2497 
Q 953 2441 691 2322 
L 691 4666 
z
" id="DejaVuSans-35" transform="scale(0.015625)"/>
       </defs>
       <use xlink:href="#DejaVuSans-32"/>
       <use x="63.623047" xlink:href="#DejaVuSans-2e"/>
       <use x="95.410156" xlink:href="#DejaVuSans-35"/>
      </g>
     </g>
    </g>
    <g id="xtick_3">
     <g id="text_3">
      <!-- 3.0 -->
      <g style="fill:#262626;" transform="translate(267.519096 459.257422)scale(0.165 -0.165)">
       <defs>
        <path d="M 2597 2516 
Q 3050 2419 3304 2112 
Q 3559 1806 3559 1356 
Q 3559 666 3084 287 
Q 2609 -91 1734 -91 
Q 1441 -91 1130 -33 
Q 819 25 488 141 
L 488 750 
Q 750 597 1062 519 
Q 1375 441 1716 441 
Q 2309 441 2620 675 
Q 2931 909 2931 1356 
Q 2931 1769 2642 2001 
Q 2353 2234 1838 2234 
L 1294 2234 
L 1294 2753 
L 1863 2753 
Q 2328 2753 2575 2939 
Q 2822 3125 2822 3475 
Q 2822 3834 2567 4026 
Q 2313 4219 1838 4219 
Q 1578 4219 1281 4162 
Q 984 4106 628 3988 
L 628 4550 
Q 988 4650 1302 4700 
Q 1616 4750 1894 4750 
Q 2613 4750 3031 4423 
Q 3450 4097 3450 3541 
Q 3450 3153 3228 2886 
Q 3006 2619 2597 2516 
z
" id="DejaVuSans-33" transform="scale(0.015625)"/>
       </defs>
       <use xlink:href="#DejaVuSans-33"/>
       <use x="63.623047" xlink:href="#DejaVuSans-2e"/>
       <use x="95.410156" xlink:href="#DejaVuSans-30"/>
      </g>
     </g>
    </g>
    <g id="xtick_4">
     <g id="text_4">
      <!-- 3.5 -->
      <g style="fill:#262626;" transform="translate(334.875544 459.257422)scale(0.165 -0.165)">
       <use xlink:href="#DejaVuSans-33"/>
       <use x="63.623047" xlink:href="#DejaVuSans-2e"/>
       <use x="95.410156" xlink:href="#DejaVuSans-35"/>
      </g>
     </g>
    </g>
    <g id="xtick_5">
     <g id="text_5">
      <!-- 4.0 -->
      <g style="fill:#262626;" transform="translate(402.231992 459.257422)scale(0.165 -0.165)">
       <defs>
        <path d="M 2419 4116 
L 825 1625 
L 2419 1625 
L 2419 4116 
z
M 2253 4666 
L 3047 4666 
L 3047 1625 
L 3713 1625 
L 3713 1100 
L 3047 1100 
L 3047 0 
L 2419 0 
L 2419 1100 
L 313 1100 
L 313 1709 
L 2253 4666 
z
" id="DejaVuSans-34" transform="scale(0.015625)"/>
       </defs>
       <use xlink:href="#DejaVuSans-34"/>
       <use x="63.623047" xlink:href="#DejaVuSans-2e"/>
       <use x="95.410156" xlink:href="#DejaVuSans-30"/>
      </g>
     </g>
    </g>
    <g id="xtick_6">
     <g id="text_6">
      <!-- 4.5 -->
      <g style="fill:#262626;" transform="translate(469.588439 459.257422)scale(0.165 -0.165)">
       <use xlink:href="#DejaVuSans-34"/>
       <use x="63.623047" xlink:href="#DejaVuSans-2e"/>
       <use x="95.410156" xlink:href="#DejaVuSans-35"/>
      </g>
     </g>
    </g>
    <g id="xtick_7">
     <g id="text_7">
      <!-- 5.0 -->
      <g style="fill:#262626;" transform="translate(536.944887 459.257422)scale(0.165 -0.165)">
       <use xlink:href="#DejaVuSans-35"/>
       <use x="63.623047" xlink:href="#DejaVuSans-2e"/>
       <use x="95.410156" xlink:href="#DejaVuSans-30"/>
      </g>
     </g>
    </g>
    <g id="text_8">
     <!-- Human ratings (euclidean distance) -->
     <g style="fill:#262626;" transform="translate(175.031719 480.366094)scale(0.18 -0.18)">
      <defs>
       <path d="M 628 4666 
L 1259 4666 
L 1259 2753 
L 3553 2753 
L 3553 4666 
L 4184 4666 
L 4184 0 
L 3553 0 
L 3553 2222 
L 1259 2222 
L 1259 0 
L 628 0 
L 628 4666 
z
" id="DejaVuSans-48" transform="scale(0.015625)"/>
       <path d="M 544 1381 
L 544 3500 
L 1119 3500 
L 1119 1403 
Q 1119 906 1312 657 
Q 1506 409 1894 409 
Q 2359 409 2629 706 
Q 2900 1003 2900 1516 
L 2900 3500 
L 3475 3500 
L 3475 0 
L 2900 0 
L 2900 538 
Q 2691 219 2414 64 
Q 2138 -91 1772 -91 
Q 1169 -91 856 284 
Q 544 659 544 1381 
z
M 1991 3584 
L 1991 3584 
z
" id="DejaVuSans-75" transform="scale(0.015625)"/>
       <path d="M 3328 2828 
Q 3544 3216 3844 3400 
Q 4144 3584 4550 3584 
Q 5097 3584 5394 3201 
Q 5691 2819 5691 2113 
L 5691 0 
L 5113 0 
L 5113 2094 
Q 5113 2597 4934 2840 
Q 4756 3084 4391 3084 
Q 3944 3084 3684 2787 
Q 3425 2491 3425 1978 
L 3425 0 
L 2847 0 
L 2847 2094 
Q 2847 2600 2669 2842 
Q 2491 3084 2119 3084 
Q 1678 3084 1418 2786 
Q 1159 2488 1159 1978 
L 1159 0 
L 581 0 
L 581 3500 
L 1159 3500 
L 1159 2956 
Q 1356 3278 1631 3431 
Q 1906 3584 2284 3584 
Q 2666 3584 2933 3390 
Q 3200 3197 3328 2828 
z
" id="DejaVuSans-6d" transform="scale(0.015625)"/>
       <path d="M 2194 1759 
Q 1497 1759 1228 1600 
Q 959 1441 959 1056 
Q 959 750 1161 570 
Q 1363 391 1709 391 
Q 2188 391 2477 730 
Q 2766 1069 2766 1631 
L 2766 1759 
L 2194 1759 
z
M 3341 1997 
L 3341 0 
L 2766 0 
L 2766 531 
Q 2569 213 2275 61 
Q 1981 -91 1556 -91 
Q 1019 -91 701 211 
Q 384 513 384 1019 
Q 384 1609 779 1909 
Q 1175 2209 1959 2209 
L 2766 2209 
L 2766 2266 
Q 2766 2663 2505 2880 
Q 2244 3097 1772 3097 
Q 1472 3097 1187 3025 
Q 903 2953 641 2809 
L 641 3341 
Q 956 3463 1253 3523 
Q 1550 3584 1831 3584 
Q 2591 3584 2966 3190 
Q 3341 2797 3341 1997 
z
" id="DejaVuSans-61" transform="scale(0.015625)"/>
       <path d="M 3513 2113 
L 3513 0 
L 2938 0 
L 2938 2094 
Q 2938 2591 2744 2837 
Q 2550 3084 2163 3084 
Q 1697 3084 1428 2787 
Q 1159 2491 1159 1978 
L 1159 0 
L 581 0 
L 581 3500 
L 1159 3500 
L 1159 2956 
Q 1366 3272 1645 3428 
Q 1925 3584 2291 3584 
Q 2894 3584 3203 3211 
Q 3513 2838 3513 2113 
z
" id="DejaVuSans-6e" transform="scale(0.015625)"/>
       <path id="DejaVuSans-20" transform="scale(0.015625)"/>
       <path d="M 2631 2963 
Q 2534 3019 2420 3045 
Q 2306 3072 2169 3072 
Q 1681 3072 1420 2755 
Q 1159 2438 1159 1844 
L 1159 0 
L 581 0 
L 581 3500 
L 1159 3500 
L 1159 2956 
Q 1341 3275 1631 3429 
Q 1922 3584 2338 3584 
Q 2397 3584 2469 3576 
Q 2541 3569 2628 3553 
L 2631 2963 
z
" id="DejaVuSans-72" transform="scale(0.015625)"/>
       <path d="M 1172 4494 
L 1172 3500 
L 2356 3500 
L 2356 3053 
L 1172 3053 
L 1172 1153 
Q 1172 725 1289 603 
Q 1406 481 1766 481 
L 2356 481 
L 2356 0 
L 1766 0 
Q 1100 0 847 248 
Q 594 497 594 1153 
L 594 3053 
L 172 3053 
L 172 3500 
L 594 3500 
L 594 4494 
L 1172 4494 
z
" id="DejaVuSans-74" transform="scale(0.015625)"/>
       <path d="M 603 3500 
L 1178 3500 
L 1178 0 
L 603 0 
L 603 3500 
z
M 603 4863 
L 1178 4863 
L 1178 4134 
L 603 4134 
L 603 4863 
z
" id="DejaVuSans-69" transform="scale(0.015625)"/>
       <path d="M 2906 1791 
Q 2906 2416 2648 2759 
Q 2391 3103 1925 3103 
Q 1463 3103 1205 2759 
Q 947 2416 947 1791 
Q 947 1169 1205 825 
Q 1463 481 1925 481 
Q 2391 481 2648 825 
Q 2906 1169 2906 1791 
z
M 3481 434 
Q 3481 -459 3084 -895 
Q 2688 -1331 1869 -1331 
Q 1566 -1331 1297 -1286 
Q 1028 -1241 775 -1147 
L 775 -588 
Q 1028 -725 1275 -790 
Q 1522 -856 1778 -856 
Q 2344 -856 2625 -561 
Q 2906 -266 2906 331 
L 2906 616 
Q 2728 306 2450 153 
Q 2172 0 1784 0 
Q 1141 0 747 490 
Q 353 981 353 1791 
Q 353 2603 747 3093 
Q 1141 3584 1784 3584 
Q 2172 3584 2450 3431 
Q 2728 3278 2906 2969 
L 2906 3500 
L 3481 3500 
L 3481 434 
z
" id="DejaVuSans-67" transform="scale(0.015625)"/>
       <path d="M 2834 3397 
L 2834 2853 
Q 2591 2978 2328 3040 
Q 2066 3103 1784 3103 
Q 1356 3103 1142 2972 
Q 928 2841 928 2578 
Q 928 2378 1081 2264 
Q 1234 2150 1697 2047 
L 1894 2003 
Q 2506 1872 2764 1633 
Q 3022 1394 3022 966 
Q 3022 478 2636 193 
Q 2250 -91 1575 -91 
Q 1294 -91 989 -36 
Q 684 19 347 128 
L 347 722 
Q 666 556 975 473 
Q 1284 391 1588 391 
Q 1994 391 2212 530 
Q 2431 669 2431 922 
Q 2431 1156 2273 1281 
Q 2116 1406 1581 1522 
L 1381 1569 
Q 847 1681 609 1914 
Q 372 2147 372 2553 
Q 372 3047 722 3315 
Q 1072 3584 1716 3584 
Q 2034 3584 2315 3537 
Q 2597 3491 2834 3397 
z
" id="DejaVuSans-73" transform="scale(0.015625)"/>
       <path d="M 1984 4856 
Q 1566 4138 1362 3434 
Q 1159 2731 1159 2009 
Q 1159 1288 1364 580 
Q 1569 -128 1984 -844 
L 1484 -844 
Q 1016 -109 783 600 
Q 550 1309 550 2009 
Q 550 2706 781 3412 
Q 1013 4119 1484 4856 
L 1984 4856 
z
" id="DejaVuSans-28" transform="scale(0.015625)"/>
       <path d="M 3597 1894 
L 3597 1613 
L 953 1613 
Q 991 1019 1311 708 
Q 1631 397 2203 397 
Q 2534 397 2845 478 
Q 3156 559 3463 722 
L 3463 178 
Q 3153 47 2828 -22 
Q 2503 -91 2169 -91 
Q 1331 -91 842 396 
Q 353 884 353 1716 
Q 353 2575 817 3079 
Q 1281 3584 2069 3584 
Q 2775 3584 3186 3129 
Q 3597 2675 3597 1894 
z
M 3022 2063 
Q 3016 2534 2758 2815 
Q 2500 3097 2075 3097 
Q 1594 3097 1305 2825 
Q 1016 2553 972 2059 
L 3022 2063 
z
" id="DejaVuSans-65" transform="scale(0.015625)"/>
       <path d="M 3122 3366 
L 3122 2828 
Q 2878 2963 2633 3030 
Q 2388 3097 2138 3097 
Q 1578 3097 1268 2742 
Q 959 2388 959 1747 
Q 959 1106 1268 751 
Q 1578 397 2138 397 
Q 2388 397 2633 464 
Q 2878 531 3122 666 
L 3122 134 
Q 2881 22 2623 -34 
Q 2366 -91 2075 -91 
Q 1284 -91 818 406 
Q 353 903 353 1747 
Q 353 2603 823 3093 
Q 1294 3584 2113 3584 
Q 2378 3584 2631 3529 
Q 2884 3475 3122 3366 
z
" id="DejaVuSans-63" transform="scale(0.015625)"/>
       <path d="M 603 4863 
L 1178 4863 
L 1178 0 
L 603 0 
L 603 4863 
z
" id="DejaVuSans-6c" transform="scale(0.015625)"/>
       <path d="M 2906 2969 
L 2906 4863 
L 3481 4863 
L 3481 0 
L 2906 0 
L 2906 525 
Q 2725 213 2448 61 
Q 2172 -91 1784 -91 
Q 1150 -91 751 415 
Q 353 922 353 1747 
Q 353 2572 751 3078 
Q 1150 3584 1784 3584 
Q 2172 3584 2448 3432 
Q 2725 3281 2906 2969 
z
M 947 1747 
Q 947 1113 1208 752 
Q 1469 391 1925 391 
Q 2381 391 2643 752 
Q 2906 1113 2906 1747 
Q 2906 2381 2643 2742 
Q 2381 3103 1925 3103 
Q 1469 3103 1208 2742 
Q 947 2381 947 1747 
z
" id="DejaVuSans-64" transform="scale(0.015625)"/>
       <path d="M 513 4856 
L 1013 4856 
Q 1481 4119 1714 3412 
Q 1947 2706 1947 2009 
Q 1947 1309 1714 600 
Q 1481 -109 1013 -844 
L 513 -844 
Q 928 -128 1133 580 
Q 1338 1288 1338 2009 
Q 1338 2731 1133 3434 
Q 928 4138 513 4856 
z
" id="DejaVuSans-29" transform="scale(0.015625)"/>
      </defs>
      <use xlink:href="#DejaVuSans-48"/>
      <use x="75.195312" xlink:href="#DejaVuSans-75"/>
      <use x="138.574219" xlink:href="#DejaVuSans-6d"/>
      <use x="235.986328" xlink:href="#DejaVuSans-61"/>
      <use x="297.265625" xlink:href="#DejaVuSans-6e"/>
      <use x="360.644531" xlink:href="#DejaVuSans-20"/>
      <use x="392.431641" xlink:href="#DejaVuSans-72"/>
      <use x="433.544922" xlink:href="#DejaVuSans-61"/>
      <use x="494.824219" xlink:href="#DejaVuSans-74"/>
      <use x="534.033203" xlink:href="#DejaVuSans-69"/>
      <use x="561.816406" xlink:href="#DejaVuSans-6e"/>
      <use x="625.195312" xlink:href="#DejaVuSans-67"/>
      <use x="688.671875" xlink:href="#DejaVuSans-73"/>
      <use x="740.771484" xlink:href="#DejaVuSans-20"/>
      <use x="772.558594" xlink:href="#DejaVuSans-28"/>
      <use x="811.572266" xlink:href="#DejaVuSans-65"/>
      <use x="873.095703" xlink:href="#DejaVuSans-75"/>
      <use x="936.474609" xlink:href="#DejaVuSans-63"/>
      <use x="991.455078" xlink:href="#DejaVuSans-6c"/>
      <use x="1019.238281" xlink:href="#DejaVuSans-69"/>
      <use x="1047.021484" xlink:href="#DejaVuSans-64"/>
      <use x="1110.498047" xlink:href="#DejaVuSans-65"/>
      <use x="1172.021484" xlink:href="#DejaVuSans-61"/>
      <use x="1233.300781" xlink:href="#DejaVuSans-6e"/>
      <use x="1296.679688" xlink:href="#DejaVuSans-20"/>
      <use x="1328.466797" xlink:href="#DejaVuSans-64"/>
      <use x="1391.943359" xlink:href="#DejaVuSans-69"/>
      <use x="1419.726562" xlink:href="#DejaVuSans-73"/>
      <use x="1471.826172" xlink:href="#DejaVuSans-74"/>
      <use x="1511.035156" xlink:href="#DejaVuSans-61"/>
      <use x="1572.314453" xlink:href="#DejaVuSans-6e"/>
      <use x="1635.693359" xlink:href="#DejaVuSans-63"/>
      <use x="1690.673828" xlink:href="#DejaVuSans-65"/>
      <use x="1752.197266" xlink:href="#DejaVuSans-29"/>
     </g>
    </g>
   </g>
   <g id="matplotlib.axis_2">
    <g id="ytick_1">
     <g id="text_9">
      <!-- 0.02 -->
      <g style="fill:#262626;" transform="translate(40.881719 418.747003)scale(0.165 -0.165)">
       <use xlink:href="#DejaVuSans-30"/>
       <use x="63.623047" xlink:href="#DejaVuSans-2e"/>
       <use x="95.410156" xlink:href="#DejaVuSans-30"/>
       <use x="159.033203" xlink:href="#DejaVuSans-32"/>
      </g>
     </g>
    </g>
    <g id="ytick_2">
     <g id="text_10">
      <!-- 0.04 -->
      <g style="fill:#262626;" transform="translate(40.881719 369.230365)scale(0.165 -0.165)">
       <use xlink:href="#DejaVuSans-30"/>
       <use x="63.623047" xlink:href="#DejaVuSans-2e"/>
       <use x="95.410156" xlink:href="#DejaVuSans-30"/>
       <use x="159.033203" xlink:href="#DejaVuSans-34"/>
      </g>
     </g>
    </g>
    <g id="ytick_3">
     <g id="text_11">
      <!-- 0.06 -->
      <g style="fill:#262626;" transform="translate(40.881719 319.713726)scale(0.165 -0.165)">
       <defs>
        <path d="M 2113 2584 
Q 1688 2584 1439 2293 
Q 1191 2003 1191 1497 
Q 1191 994 1439 701 
Q 1688 409 2113 409 
Q 2538 409 2786 701 
Q 3034 994 3034 1497 
Q 3034 2003 2786 2293 
Q 2538 2584 2113 2584 
z
M 3366 4563 
L 3366 3988 
Q 3128 4100 2886 4159 
Q 2644 4219 2406 4219 
Q 1781 4219 1451 3797 
Q 1122 3375 1075 2522 
Q 1259 2794 1537 2939 
Q 1816 3084 2150 3084 
Q 2853 3084 3261 2657 
Q 3669 2231 3669 1497 
Q 3669 778 3244 343 
Q 2819 -91 2113 -91 
Q 1303 -91 875 529 
Q 447 1150 447 2328 
Q 447 3434 972 4092 
Q 1497 4750 2381 4750 
Q 2619 4750 2861 4703 
Q 3103 4656 3366 4563 
z
" id="DejaVuSans-36" transform="scale(0.015625)"/>
       </defs>
       <use xlink:href="#DejaVuSans-30"/>
       <use x="63.623047" xlink:href="#DejaVuSans-2e"/>
       <use x="95.410156" xlink:href="#DejaVuSans-30"/>
       <use x="159.033203" xlink:href="#DejaVuSans-36"/>
      </g>
     </g>
    </g>
    <g id="ytick_4">
     <g id="text_12">
      <!-- 0.08 -->
      <g style="fill:#262626;" transform="translate(40.881719 270.197087)scale(0.165 -0.165)">
       <defs>
        <path d="M 2034 2216 
Q 1584 2216 1326 1975 
Q 1069 1734 1069 1313 
Q 1069 891 1326 650 
Q 1584 409 2034 409 
Q 2484 409 2743 651 
Q 3003 894 3003 1313 
Q 3003 1734 2745 1975 
Q 2488 2216 2034 2216 
z
M 1403 2484 
Q 997 2584 770 2862 
Q 544 3141 544 3541 
Q 544 4100 942 4425 
Q 1341 4750 2034 4750 
Q 2731 4750 3128 4425 
Q 3525 4100 3525 3541 
Q 3525 3141 3298 2862 
Q 3072 2584 2669 2484 
Q 3125 2378 3379 2068 
Q 3634 1759 3634 1313 
Q 3634 634 3220 271 
Q 2806 -91 2034 -91 
Q 1263 -91 848 271 
Q 434 634 434 1313 
Q 434 1759 690 2068 
Q 947 2378 1403 2484 
z
M 1172 3481 
Q 1172 3119 1398 2916 
Q 1625 2713 2034 2713 
Q 2441 2713 2670 2916 
Q 2900 3119 2900 3481 
Q 2900 3844 2670 4047 
Q 2441 4250 2034 4250 
Q 1625 4250 1398 4047 
Q 1172 3844 1172 3481 
z
" id="DejaVuSans-38" transform="scale(0.015625)"/>
       </defs>
       <use xlink:href="#DejaVuSans-30"/>
       <use x="63.623047" xlink:href="#DejaVuSans-2e"/>
       <use x="95.410156" xlink:href="#DejaVuSans-30"/>
       <use x="159.033203" xlink:href="#DejaVuSans-38"/>
      </g>
     </g>
    </g>
    <g id="ytick_5">
     <g id="text_13">
      <!-- 0.10 -->
      <g style="fill:#262626;" transform="translate(40.881719 220.680449)scale(0.165 -0.165)">
       <defs>
        <path d="M 794 531 
L 1825 531 
L 1825 4091 
L 703 3866 
L 703 4441 
L 1819 4666 
L 2450 4666 
L 2450 531 
L 3481 531 
L 3481 0 
L 794 0 
L 794 531 
z
" id="DejaVuSans-31" transform="scale(0.015625)"/>
       </defs>
       <use xlink:href="#DejaVuSans-30"/>
       <use x="63.623047" xlink:href="#DejaVuSans-2e"/>
       <use x="95.410156" xlink:href="#DejaVuSans-31"/>
       <use x="159.033203" xlink:href="#DejaVuSans-30"/>
      </g>
     </g>
    </g>
    <g id="ytick_6">
     <g id="text_14">
      <!-- 0.12 -->
      <g style="fill:#262626;" transform="translate(40.881719 171.16381)scale(0.165 -0.165)">
       <use xlink:href="#DejaVuSans-30"/>
       <use x="63.623047" xlink:href="#DejaVuSans-2e"/>
       <use x="95.410156" xlink:href="#DejaVuSans-31"/>
       <use x="159.033203" xlink:href="#DejaVuSans-32"/>
      </g>
     </g>
    </g>
    <g id="ytick_7">
     <g id="text_15">
      <!-- 0.14 -->
      <g style="fill:#262626;" transform="translate(40.881719 121.647171)scale(0.165 -0.165)">
       <use xlink:href="#DejaVuSans-30"/>
       <use x="63.623047" xlink:href="#DejaVuSans-2e"/>
       <use x="95.410156" xlink:href="#DejaVuSans-31"/>
       <use x="159.033203" xlink:href="#DejaVuSans-34"/>
      </g>
     </g>
    </g>
    <g id="ytick_8">
     <g id="text_16">
      <!-- 0.16 -->
      <g style="fill:#262626;" transform="translate(40.881719 72.130533)scale(0.165 -0.165)">
       <use xlink:href="#DejaVuSans-30"/>
       <use x="63.623047" xlink:href="#DejaVuSans-2e"/>
       <use x="95.410156" xlink:href="#DejaVuSans-31"/>
       <use x="159.033203" xlink:href="#DejaVuSans-36"/>
      </g>
     </g>
    </g>
    <g id="text_17">
     <!-- Control space (euclidean distance) -->
     <g style="fill:#262626;" transform="translate(33.138281 384.662813)rotate(-90)scale(0.18 -0.18)">
      <defs>
       <path d="M 4122 4306 
L 4122 3641 
Q 3803 3938 3442 4084 
Q 3081 4231 2675 4231 
Q 1875 4231 1450 3742 
Q 1025 3253 1025 2328 
Q 1025 1406 1450 917 
Q 1875 428 2675 428 
Q 3081 428 3442 575 
Q 3803 722 4122 1019 
L 4122 359 
Q 3791 134 3420 21 
Q 3050 -91 2638 -91 
Q 1578 -91 968 557 
Q 359 1206 359 2328 
Q 359 3453 968 4101 
Q 1578 4750 2638 4750 
Q 3056 4750 3426 4639 
Q 3797 4528 4122 4306 
z
" id="DejaVuSans-43" transform="scale(0.015625)"/>
       <path d="M 1959 3097 
Q 1497 3097 1228 2736 
Q 959 2375 959 1747 
Q 959 1119 1226 758 
Q 1494 397 1959 397 
Q 2419 397 2687 759 
Q 2956 1122 2956 1747 
Q 2956 2369 2687 2733 
Q 2419 3097 1959 3097 
z
M 1959 3584 
Q 2709 3584 3137 3096 
Q 3566 2609 3566 1747 
Q 3566 888 3137 398 
Q 2709 -91 1959 -91 
Q 1206 -91 779 398 
Q 353 888 353 1747 
Q 353 2609 779 3096 
Q 1206 3584 1959 3584 
z
" id="DejaVuSans-6f" transform="scale(0.015625)"/>
       <path d="M 1159 525 
L 1159 -1331 
L 581 -1331 
L 581 3500 
L 1159 3500 
L 1159 2969 
Q 1341 3281 1617 3432 
Q 1894 3584 2278 3584 
Q 2916 3584 3314 3078 
Q 3713 2572 3713 1747 
Q 3713 922 3314 415 
Q 2916 -91 2278 -91 
Q 1894 -91 1617 61 
Q 1341 213 1159 525 
z
M 3116 1747 
Q 3116 2381 2855 2742 
Q 2594 3103 2138 3103 
Q 1681 3103 1420 2742 
Q 1159 2381 1159 1747 
Q 1159 1113 1420 752 
Q 1681 391 2138 391 
Q 2594 391 2855 752 
Q 3116 1113 3116 1747 
z
" id="DejaVuSans-70" transform="scale(0.015625)"/>
      </defs>
      <use xlink:href="#DejaVuSans-43"/>
      <use x="69.824219" xlink:href="#DejaVuSans-6f"/>
      <use x="131.005859" xlink:href="#DejaVuSans-6e"/>
      <use x="194.384766" xlink:href="#DejaVuSans-74"/>
      <use x="233.59375" xlink:href="#DejaVuSans-72"/>
      <use x="272.457031" xlink:href="#DejaVuSans-6f"/>
      <use x="333.638672" xlink:href="#DejaVuSans-6c"/>
      <use x="361.421875" xlink:href="#DejaVuSans-20"/>
      <use x="393.208984" xlink:href="#DejaVuSans-73"/>
      <use x="445.308594" xlink:href="#DejaVuSans-70"/>
      <use x="508.785156" xlink:href="#DejaVuSans-61"/>
      <use x="570.064453" xlink:href="#DejaVuSans-63"/>
      <use x="625.044922" xlink:href="#DejaVuSans-65"/>
      <use x="686.568359" xlink:href="#DejaVuSans-20"/>
      <use x="718.355469" xlink:href="#DejaVuSans-28"/>
      <use x="757.369141" xlink:href="#DejaVuSans-65"/>
      <use x="818.892578" xlink:href="#DejaVuSans-75"/>
      <use x="882.271484" xlink:href="#DejaVuSans-63"/>
      <use x="937.251953" xlink:href="#DejaVuSans-6c"/>
      <use x="965.035156" xlink:href="#DejaVuSans-69"/>
      <use x="992.818359" xlink:href="#DejaVuSans-64"/>
      <use x="1056.294922" xlink:href="#DejaVuSans-65"/>
      <use x="1117.818359" xlink:href="#DejaVuSans-61"/>
      <use x="1179.097656" xlink:href="#DejaVuSans-6e"/>
      <use x="1242.476562" xlink:href="#DejaVuSans-20"/>
      <use x="1274.263672" xlink:href="#DejaVuSans-64"/>
      <use x="1337.740234" xlink:href="#DejaVuSans-69"/>
      <use x="1365.523438" xlink:href="#DejaVuSans-73"/>
      <use x="1417.623047" xlink:href="#DejaVuSans-74"/>
      <use x="1456.832031" xlink:href="#DejaVuSans-61"/>
      <use x="1518.111328" xlink:href="#DejaVuSans-6e"/>
      <use x="1581.490234" xlink:href="#DejaVuSans-63"/>
      <use x="1636.470703" xlink:href="#DejaVuSans-65"/>
      <use x="1697.994141" xlink:href="#DejaVuSans-29"/>
     </g>
    </g>
   </g>
   <g id="PathCollection_1">
    <defs>
     <path d="M 0 3.872983 
C 1.027127 3.872983 2.012324 3.464901 2.738613 2.738613 
C 3.464901 2.012324 3.872983 1.027127 3.872983 0 
C 3.872983 -1.027127 3.464901 -2.012324 2.738613 -2.738613 
C 2.012324 -3.464901 1.027127 -3.872983 0 -3.872983 
C -1.027127 -3.872983 -2.012324 -3.464901 -2.738613 -2.738613 
C -3.464901 -2.012324 -3.872983 -1.027127 -3.872983 0 
C -3.872983 1.027127 -3.464901 2.012324 -2.738613 2.738613 
C -2.012324 3.464901 -1.027127 3.872983 0 3.872983 
z
" id="m240d927afa" style="stroke:#000000;stroke-opacity:0.8;stroke-width:0.7;"/>
    </defs>
    <g clip-path="url(#p51da6e9e8b)">
     <use style="fill:#4c72b0;fill-opacity:0.8;stroke:#000000;stroke-opacity:0.8;stroke-width:0.7;" x="464.304285" xlink:href="#m240d927afa" y="258.200439"/>
     <use style="fill:#4c72b0;fill-opacity:0.8;stroke:#000000;stroke-opacity:0.8;stroke-width:0.7;" x="265.706644" xlink:href="#m240d927afa" y="179.584347"/>
     <use style="fill:#4c72b0;fill-opacity:0.8;stroke:#000000;stroke-opacity:0.8;stroke-width:0.7;" x="134.899742" xlink:href="#m240d927afa" y="116.591605"/>
     <use style="fill:#4c72b0;fill-opacity:0.8;stroke:#000000;stroke-opacity:0.8;stroke-width:0.7;" x="215.754708" xlink:href="#m240d927afa" y="282.596492"/>
     <use style="fill:#4c72b0;fill-opacity:0.8;stroke:#000000;stroke-opacity:0.8;stroke-width:0.7;" x="562.712727" xlink:href="#m240d927afa" y="102.686354"/>
     <use style="fill:#4c72b0;fill-opacity:0.8;stroke:#000000;stroke-opacity:0.8;stroke-width:0.7;" x="478.866817" xlink:href="#m240d927afa" y="38.43"/>
     <use style="fill:#4c72b0;fill-opacity:0.8;stroke:#000000;stroke-opacity:0.8;stroke-width:0.7;" x="415.604999" xlink:href="#m240d927afa" y="418.23"/>
     <use style="fill:#4c72b0;fill-opacity:0.8;stroke:#000000;stroke-opacity:0.8;stroke-width:0.7;" x="495.514155" xlink:href="#m240d927afa" y="225.402565"/>
     <use style="fill:#4c72b0;fill-opacity:0.8;stroke:#000000;stroke-opacity:0.8;stroke-width:0.7;" x="521.174675" xlink:href="#m240d927afa" y="208.269244"/>
     <use style="fill:#4c72b0;fill-opacity:0.8;stroke:#000000;stroke-opacity:0.8;stroke-width:0.7;" x="148.927707" xlink:href="#m240d927afa" y="280.217384"/>
     <use style="fill:#4c72b0;fill-opacity:0.8;stroke:#000000;stroke-opacity:0.8;stroke-width:0.7;" x="496.989678" xlink:href="#m240d927afa" y="215.865743"/>
     <use style="fill:#4c72b0;fill-opacity:0.8;stroke:#000000;stroke-opacity:0.8;stroke-width:0.7;" x="109.767273" xlink:href="#m240d927afa" y="352.867204"/>
     <use style="fill:#4c72b0;fill-opacity:0.8;stroke:#000000;stroke-opacity:0.8;stroke-width:0.7;" x="297.540782" xlink:href="#m240d927afa" y="183.875035"/>
     <use style="fill:#4c72b0;fill-opacity:0.8;stroke:#000000;stroke-opacity:0.8;stroke-width:0.7;" x="469.941518" xlink:href="#m240d927afa" y="39.926683"/>
     <use style="fill:#4c72b0;fill-opacity:0.8;stroke:#000000;stroke-opacity:0.8;stroke-width:0.7;" x="321.32426" xlink:href="#m240d927afa" y="198.577634"/>
    </g>
   </g>
   <g id="PolyCollection_1">
    <defs>
     <path d="M 109.767273 -357.42962 
L 109.767273 -163.925357 
L 114.342479 -166.272366 
L 118.917686 -168.5018 
L 123.492893 -170.376489 
L 128.068099 -173.259444 
L 132.643306 -175.185206 
L 137.218512 -176.826361 
L 141.793719 -180.075624 
L 146.368926 -181.473606 
L 150.944132 -184.049471 
L 155.519339 -186.309879 
L 160.094545 -187.816847 
L 164.669752 -189.844265 
L 169.244959 -191.664966 
L 173.820165 -193.685218 
L 178.395372 -195.496127 
L 182.970579 -197.323426 
L 187.545785 -199.485054 
L 192.120992 -201.099355 
L 196.696198 -202.504527 
L 201.271405 -203.554009 
L 205.846612 -204.60349 
L 210.421818 -205.975185 
L 214.997025 -207.461986 
L 219.572231 -208.943255 
L 224.147438 -210.424524 
L 228.722645 -211.905793 
L 233.297851 -213.128626 
L 237.873058 -213.259519 
L 242.448264 -215.296188 
L 247.023471 -217.334757 
L 251.598678 -219.230875 
L 256.173884 -220.616529 
L 260.749091 -222.003984 
L 265.324298 -223.39684 
L 269.899504 -224.789697 
L 274.474711 -225.981945 
L 279.049917 -227.191483 
L 283.625124 -228.033187 
L 288.200331 -229.128278 
L 292.775537 -229.864706 
L 297.350744 -230.589582 
L 301.92595 -231.462946 
L 306.501157 -232.401738 
L 311.076364 -233.213193 
L 315.65157 -235.570023 
L 320.226777 -236.759502 
L 324.801983 -237.831971 
L 329.37719 -239.500421 
L 333.952397 -239.836848 
L 338.527603 -240.793308 
L 343.10281 -242.079022 
L 347.678017 -242.870528 
L 352.253223 -244.346854 
L 356.82843 -245.169268 
L 361.403636 -246.212968 
L 365.978843 -247.158112 
L 370.55405 -247.829008 
L 375.129256 -247.361218 
L 379.704463 -248.877435 
L 384.279669 -249.628284 
L 388.854876 -250.567699 
L 393.430083 -251.271579 
L 398.005289 -252.213477 
L 402.580496 -253.780419 
L 407.155702 -254.528082 
L 411.730909 -255.276775 
L 416.306116 -255.988192 
L 420.881322 -256.351634 
L 425.456529 -257.420466 
L 430.031736 -257.657895 
L 434.606942 -257.669397 
L 439.182149 -257.94032 
L 443.757355 -258.765969 
L 448.332562 -259.622136 
L 452.907769 -260.656124 
L 457.482975 -261.185304 
L 462.058182 -261.478812 
L 466.633388 -262.165436 
L 471.208595 -262.83402 
L 475.783802 -262.526694 
L 480.359008 -261.649808 
L 484.934215 -261.72262 
L 489.509421 -261.798771 
L 494.084628 -261.828012 
L 498.659835 -262.084881 
L 503.235041 -262.236252 
L 507.810248 -261.932873 
L 512.385455 -260.965057 
L 516.960661 -260.008984 
L 521.535868 -260.441217 
L 526.111074 -259.811629 
L 530.686281 -259.485222 
L 535.261488 -258.80503 
L 539.836694 -258.359244 
L 544.411901 -258.134868 
L 548.987107 -257.724534 
L 553.562314 -257.610448 
L 558.137521 -257.730479 
L 562.712727 -257.73335 
L 562.712727 -436.741502 
L 562.712727 -436.741502 
L 558.137521 -434.046706 
L 553.562314 -431.348959 
L 548.987107 -429.287999 
L 544.411901 -428.130233 
L 539.836694 -426.972468 
L 535.261488 -425.810182 
L 530.686281 -424.639059 
L 526.111074 -422.079603 
L 521.535868 -419.464803 
L 516.960661 -416.838402 
L 512.385455 -414.207665 
L 507.810248 -411.576928 
L 503.235041 -409.199449 
L 498.659835 -407.453149 
L 494.084628 -405.007652 
L 489.509421 -403.294898 
L 484.934215 -401.687064 
L 480.359008 -400.07923 
L 475.783802 -398.471397 
L 471.208595 -396.863563 
L 466.633388 -394.480434 
L 462.058182 -391.732093 
L 457.482975 -389.029828 
L 452.907769 -387.384517 
L 448.332562 -385.739207 
L 443.757355 -384.085897 
L 439.182149 -382.42625 
L 434.606942 -380.426389 
L 430.031736 -377.354303 
L 425.456529 -375.646284 
L 420.881322 -373.073428 
L 416.306116 -370.491227 
L 411.730909 -367.909026 
L 407.155702 -365.334105 
L 402.580496 -363.441448 
L 398.005289 -360.839112 
L 393.430083 -358.894892 
L 388.854876 -357.624859 
L 384.279669 -356.453354 
L 379.704463 -355.893759 
L 375.129256 -354.117905 
L 370.55405 -352.892458 
L 365.978843 -351.400698 
L 361.403636 -350.719315 
L 356.82843 -349.131313 
L 352.253223 -348.764805 
L 347.678017 -347.923803 
L 343.10281 -347.141211 
L 338.527603 -345.253639 
L 333.952397 -344.604384 
L 329.37719 -343.335714 
L 324.801983 -342.072722 
L 320.226777 -341.629732 
L 315.65157 -341.339206 
L 311.076364 -340.686382 
L 306.501157 -339.732984 
L 301.92595 -338.620938 
L 297.350744 -337.465989 
L 292.775537 -336.563439 
L 288.200331 -336.114087 
L 283.625124 -336.220676 
L 279.049917 -336.257651 
L 274.474711 -336.207385 
L 269.899504 -336.835511 
L 265.324298 -338.215512 
L 260.749091 -338.270404 
L 256.173884 -338.216682 
L 251.598678 -337.975118 
L 247.023471 -338.186169 
L 242.448264 -338.453236 
L 237.873058 -339.226682 
L 233.297851 -339.606998 
L 228.722645 -339.752188 
L 224.147438 -340.983249 
L 219.572231 -341.245394 
L 214.997025 -341.692909 
L 210.421818 -342.415783 
L 205.846612 -343.133443 
L 201.271405 -343.027616 
L 196.696198 -343.883135 
L 192.120992 -344.75108 
L 187.545785 -345.619024 
L 182.970579 -346.25112 
L 178.395372 -346.300182 
L 173.820165 -347.267878 
L 169.244959 -347.677543 
L 164.669752 -348.346399 
L 160.094545 -349.339825 
L 155.519339 -350.331066 
L 150.944132 -351.314137 
L 146.368926 -352.297207 
L 141.793719 -353.105096 
L 137.218512 -353.936393 
L 132.643306 -354.545793 
L 128.068099 -355.247705 
L 123.492893 -355.961171 
L 118.917686 -356.683898 
L 114.342479 -357.381964 
L 109.767273 -357.42962 
z
" id="me6ed87e747" style="stroke:#ffffff;stroke-opacity:0.15;"/>
    </defs>
    <g clip-path="url(#p51da6e9e8b)">
     <use style="fill:#4c72b0;fill-opacity:0.15;stroke:#ffffff;stroke-opacity:0.15;" x="0" xlink:href="#me6ed87e747" y="504"/>
    </g>
   </g>
   <g id="line2d_1">
    <path clip-path="url(#p51da6e9e8b)" d="M 109.767273 269.233729 
L 114.342479 268.076732 
L 118.917686 266.919736 
L 123.492893 265.762739 
L 128.068099 264.605742 
L 132.643306 263.448746 
L 137.218512 262.291749 
L 141.793719 261.134753 
L 146.368926 259.977756 
L 150.944132 258.820759 
L 155.519339 257.663763 
L 160.094545 256.506766 
L 164.669752 255.34977 
L 169.244959 254.192773 
L 173.820165 253.035777 
L 178.395372 251.87878 
L 182.970579 250.721783 
L 187.545785 249.564787 
L 192.120992 248.40779 
L 196.696198 247.250794 
L 201.271405 246.093797 
L 205.846612 244.9368 
L 210.421818 243.779804 
L 214.997025 242.622807 
L 219.572231 241.465811 
L 224.147438 240.308814 
L 228.722645 239.151818 
L 233.297851 237.994821 
L 237.873058 236.837824 
L 242.448264 235.680828 
L 247.023471 234.523831 
L 251.598678 233.366835 
L 256.173884 232.209838 
L 260.749091 231.052842 
L 265.324298 229.895845 
L 269.899504 228.738848 
L 274.474711 227.581852 
L 279.049917 226.424855 
L 283.625124 225.267859 
L 288.200331 224.110862 
L 292.775537 222.953865 
L 297.350744 221.796869 
L 301.92595 220.639872 
L 306.501157 219.482876 
L 311.076364 218.325879 
L 315.65157 217.168883 
L 320.226777 216.011886 
L 324.801983 214.854889 
L 329.37719 213.697893 
L 333.952397 212.540896 
L 338.527603 211.3839 
L 343.10281 210.226903 
L 347.678017 209.069906 
L 352.253223 207.91291 
L 356.82843 206.755913 
L 361.403636 205.598917 
L 365.978843 204.44192 
L 370.55405 203.284924 
L 375.129256 202.127927 
L 379.704463 200.97093 
L 384.279669 199.813934 
L 388.854876 198.656937 
L 393.430083 197.499941 
L 398.005289 196.342944 
L 402.580496 195.185948 
L 407.155702 194.028951 
L 411.730909 192.871954 
L 416.306116 191.714958 
L 420.881322 190.557961 
L 425.456529 189.400965 
L 430.031736 188.243968 
L 434.606942 187.086971 
L 439.182149 185.929975 
L 443.757355 184.772978 
L 448.332562 183.615982 
L 452.907769 182.458985 
L 457.482975 181.301989 
L 462.058182 180.144992 
L 466.633388 178.987995 
L 471.208595 177.830999 
L 475.783802 176.674002 
L 480.359008 175.517006 
L 484.934215 174.360009 
L 489.509421 173.203012 
L 494.084628 172.046016 
L 498.659835 170.889019 
L 503.235041 169.732023 
L 507.810248 168.575026 
L 512.385455 167.41803 
L 516.960661 166.261033 
L 521.535868 165.104036 
L 526.111074 163.94704 
L 530.686281 162.790043 
L 535.261488 161.633047 
L 539.836694 160.47605 
L 544.411901 159.319054 
L 548.987107 158.162057 
L 553.562314 157.00506 
L 558.137521 155.848064 
L 562.712727 154.691067 
" style="fill:none;stroke:#4c72b0;stroke-linecap:round;stroke-width:2.25;"/>
   </g>
   <g id="patch_3">
    <path d="M 87.12 437.22 
L 87.12 19.44 
" style="fill:none;stroke:#262626;stroke-linecap:square;stroke-linejoin:miter;stroke-width:1.25;"/>
   </g>
   <g id="patch_4">
    <path d="M 87.12 437.22 
L 585.36 437.22 
" style="fill:none;stroke:#262626;stroke-linecap:square;stroke-linejoin:miter;stroke-width:1.25;"/>
   </g>
   <g id="text_18">
    <!-- Human ratings ~ Control geographic space -->
    <g style="fill:#262626;" transform="translate(141.104531 13.44)scale(0.18 -0.18)">
     <defs>
      <path d="M 4684 2553 
L 4684 1997 
Q 4356 1750 4076 1644 
Q 3797 1538 3494 1538 
Q 3150 1538 2694 1722 
Q 2659 1734 2644 1741 
Q 2622 1750 2575 1766 
Q 2091 1959 1797 1959 
Q 1522 1959 1253 1839 
Q 984 1719 678 1459 
L 678 2016 
Q 1006 2263 1286 2370 
Q 1566 2478 1869 2478 
Q 2213 2478 2672 2291 
Q 2703 2278 2719 2272 
Q 2744 2263 2788 2247 
Q 3272 2053 3566 2053 
Q 3834 2053 4098 2172 
Q 4363 2291 4684 2553 
z
" id="DejaVuSans-7e" transform="scale(0.015625)"/>
      <path d="M 3513 2113 
L 3513 0 
L 2938 0 
L 2938 2094 
Q 2938 2591 2744 2837 
Q 2550 3084 2163 3084 
Q 1697 3084 1428 2787 
Q 1159 2491 1159 1978 
L 1159 0 
L 581 0 
L 581 4863 
L 1159 4863 
L 1159 2956 
Q 1366 3272 1645 3428 
Q 1925 3584 2291 3584 
Q 2894 3584 3203 3211 
Q 3513 2838 3513 2113 
z
" id="DejaVuSans-68" transform="scale(0.015625)"/>
     </defs>
     <use xlink:href="#DejaVuSans-48"/>
     <use x="75.195312" xlink:href="#DejaVuSans-75"/>
     <use x="138.574219" xlink:href="#DejaVuSans-6d"/>
     <use x="235.986328" xlink:href="#DejaVuSans-61"/>
     <use x="297.265625" xlink:href="#DejaVuSans-6e"/>
     <use x="360.644531" xlink:href="#DejaVuSans-20"/>
     <use x="392.431641" xlink:href="#DejaVuSans-72"/>
     <use x="433.544922" xlink:href="#DejaVuSans-61"/>
     <use x="494.824219" xlink:href="#DejaVuSans-74"/>
     <use x="534.033203" xlink:href="#DejaVuSans-69"/>
     <use x="561.816406" xlink:href="#DejaVuSans-6e"/>
     <use x="625.195312" xlink:href="#DejaVuSans-67"/>
     <use x="688.671875" xlink:href="#DejaVuSans-73"/>
     <use x="740.771484" xlink:href="#DejaVuSans-20"/>
     <use x="772.558594" xlink:href="#DejaVuSans-7e"/>
     <use x="856.347656" xlink:href="#DejaVuSans-20"/>
     <use x="888.134766" xlink:href="#DejaVuSans-43"/>
     <use x="957.958984" xlink:href="#DejaVuSans-6f"/>
     <use x="1019.140625" xlink:href="#DejaVuSans-6e"/>
     <use x="1082.519531" xlink:href="#DejaVuSans-74"/>
     <use x="1121.728516" xlink:href="#DejaVuSans-72"/>
     <use x="1160.591797" xlink:href="#DejaVuSans-6f"/>
     <use x="1221.773438" xlink:href="#DejaVuSans-6c"/>
     <use x="1249.556641" xlink:href="#DejaVuSans-20"/>
     <use x="1281.34375" xlink:href="#DejaVuSans-67"/>
     <use x="1344.820312" xlink:href="#DejaVuSans-65"/>
     <use x="1406.34375" xlink:href="#DejaVuSans-6f"/>
     <use x="1467.525391" xlink:href="#DejaVuSans-67"/>
     <use x="1531.001953" xlink:href="#DejaVuSans-72"/>
     <use x="1572.115234" xlink:href="#DejaVuSans-61"/>
     <use x="1633.394531" xlink:href="#DejaVuSans-70"/>
     <use x="1696.871094" xlink:href="#DejaVuSans-68"/>
     <use x="1760.25" xlink:href="#DejaVuSans-69"/>
     <use x="1788.033203" xlink:href="#DejaVuSans-63"/>
     <use x="1843.013672" xlink:href="#DejaVuSans-20"/>
     <use x="1874.800781" xlink:href="#DejaVuSans-73"/>
     <use x="1926.900391" xlink:href="#DejaVuSans-70"/>
     <use x="1990.376953" xlink:href="#DejaVuSans-61"/>
     <use x="2051.65625" xlink:href="#DejaVuSans-63"/>
     <use x="2106.636719" xlink:href="#DejaVuSans-65"/>
    </g>
   </g>
  </g>
  <g id="text_19">
   <!-- r =  0.343 -->
   <g style="fill:#262626;" transform="translate(247.694625 56.732625)scale(0.216 -0.216)">
    <defs>
     <path d="M 678 2906 
L 4684 2906 
L 4684 2381 
L 678 2381 
L 678 2906 
z
M 678 1631 
L 4684 1631 
L 4684 1100 
L 678 1100 
L 678 1631 
z
" id="DejaVuSans-3d" transform="scale(0.015625)"/>
    </defs>
    <use xlink:href="#DejaVuSans-72"/>
    <use x="41.113281" xlink:href="#DejaVuSans-20"/>
    <use x="72.900391" xlink:href="#DejaVuSans-3d"/>
    <use x="156.689453" xlink:href="#DejaVuSans-20"/>
    <use x="188.476562" xlink:href="#DejaVuSans-20"/>
    <use x="220.263672" xlink:href="#DejaVuSans-30"/>
    <use x="283.886719" xlink:href="#DejaVuSans-2e"/>
    <use x="315.673828" xlink:href="#DejaVuSans-33"/>
    <use x="379.296875" xlink:href="#DejaVuSans-34"/>
    <use x="442.919922" xlink:href="#DejaVuSans-33"/>
   </g>
  </g>
 </g>
 <defs>
  <clipPath id="p51da6e9e8b">
   <rect height="417.78" width="498.24" x="87.12" y="19.44"/>
  </clipPath>
 </defs>
</svg>
