<?xml version="1.0" encoding="utf-8" standalone="no"?>
<!DOCTYPE svg PUBLIC "-//W3C//DTD SVG 1.1//EN"
  "http://www.w3.org/Graphics/SVG/1.1/DTD/svg11.dtd">
<svg height="504pt" version="1.1" viewBox="0 0 604.8 504" width="604.8pt" xmlns="http://www.w3.org/2000/svg" xmlns:xlink="http://www.w3.org/1999/xlink">
 <metadata>
  <rdf:RDF xmlns:cc="http://creativecommons.org/ns#" xmlns:dc="http://purl.org/dc/elements/1.1/" xmlns:rdf="http://www.w3.org/1999/02/22-rdf-syntax-ns#">
   <cc:Work>
    <dc:type rdf:resource="http://purl.org/dc/dcmitype/StillImage"/>
    <dc:date>2023-07-25T10:29:08.317181</dc:date>
    <dc:format>image/svg+xml</dc:format>
    <dc:creator>
     <cc:Agent>
      <dc:title>Matplotlib v3.4.3, https://matplotlib.org/</dc:title>
     </cc:Agent>
    </dc:creator>
   </cc:Work>
  </rdf:RDF>
 </metadata>
 <defs>
  <style type="text/css">*{stroke-linecap:butt;stroke-linejoin:round;}</style>
 </defs>
 <g id="figure_1">
  <g id="patch_1">
   <path d="M 0 504 
L 604.8 504 
L 604.8 0 
L 0 0 
z
" style="fill:#ffffff;"/>
  </g>
  <g id="axes_1">
   <g id="patch_2">
    <path d="M 60.75 437.22 
L 585.36 437.22 
L 585.36 19.44 
L 60.75 19.44 
z
" style="fill:#ffffff;"/>
   </g>
   <g id="matplotlib.axis_1">
    <g id="xtick_1">
     <g id="text_1">
      <!-- 0 -->
      <g style="fill:#262626;" transform="translate(70.627348 459.257422)scale(0.165 -0.165)">
       <defs>
        <path d="M 2034 4250 
Q 1547 4250 1301 3770 
Q 1056 3291 1056 2328 
Q 1056 1369 1301 889 
Q 1547 409 2034 409 
Q 2525 409 2770 889 
Q 3016 1369 3016 2328 
Q 3016 3291 2770 3770 
Q 2525 4250 2034 4250 
z
M 2034 4750 
Q 2819 4750 3233 4129 
Q 3647 3509 3647 2328 
Q 3647 1150 3233 529 
Q 2819 -91 2034 -91 
Q 1250 -91 836 529 
Q 422 1150 422 2328 
Q 422 3509 836 4129 
Q 1250 4750 2034 4750 
z
" id="DejaVuSans-30" transform="scale(0.015625)"/>
       </defs>
       <use xlink:href="#DejaVuSans-30"/>
      </g>
     </g>
    </g>
    <g id="xtick_2">
     <g id="text_2">
      <!-- 2 -->
      <g style="fill:#262626;" transform="translate(181.49607 459.257422)scale(0.165 -0.165)">
       <defs>
        <path d="M 1228 531 
L 3431 531 
L 3431 0 
L 469 0 
L 469 531 
Q 828 903 1448 1529 
Q 2069 2156 2228 2338 
Q 2531 2678 2651 2914 
Q 2772 3150 2772 3378 
Q 2772 3750 2511 3984 
Q 2250 4219 1831 4219 
Q 1534 4219 1204 4116 
Q 875 4013 500 3803 
L 500 4441 
Q 881 4594 1212 4672 
Q 1544 4750 1819 4750 
Q 2544 4750 2975 4387 
Q 3406 4025 3406 3419 
Q 3406 3131 3298 2873 
Q 3191 2616 2906 2266 
Q 2828 2175 2409 1742 
Q 1991 1309 1228 531 
z
" id="DejaVuSans-32" transform="scale(0.015625)"/>
       </defs>
       <use xlink:href="#DejaVuSans-32"/>
      </g>
     </g>
    </g>
    <g id="xtick_3">
     <g id="text_3">
      <!-- 4 -->
      <g style="fill:#262626;" transform="translate(292.364793 459.257422)scale(0.165 -0.165)">
       <defs>
        <path d="M 2419 4116 
L 825 1625 
L 2419 1625 
L 2419 4116 
z
M 2253 4666 
L 3047 4666 
L 3047 1625 
L 3713 1625 
L 3713 1100 
L 3047 1100 
L 3047 0 
L 2419 0 
L 2419 1100 
L 313 1100 
L 313 1709 
L 2253 4666 
z
" id="DejaVuSans-34" transform="scale(0.015625)"/>
       </defs>
       <use xlink:href="#DejaVuSans-34"/>
      </g>
     </g>
    </g>
    <g id="xtick_4">
     <g id="text_4">
      <!-- 6 -->
      <g style="fill:#262626;" transform="translate(403.233516 459.257422)scale(0.165 -0.165)">
       <defs>
        <path d="M 2113 2584 
Q 1688 2584 1439 2293 
Q 1191 2003 1191 1497 
Q 1191 994 1439 701 
Q 1688 409 2113 409 
Q 2538 409 2786 701 
Q 3034 994 3034 1497 
Q 3034 2003 2786 2293 
Q 2538 2584 2113 2584 
z
M 3366 4563 
L 3366 3988 
Q 3128 4100 2886 4159 
Q 2644 4219 2406 4219 
Q 1781 4219 1451 3797 
Q 1122 3375 1075 2522 
Q 1259 2794 1537 2939 
Q 1816 3084 2150 3084 
Q 2853 3084 3261 2657 
Q 3669 2231 3669 1497 
Q 3669 778 3244 343 
Q 2819 -91 2113 -91 
Q 1303 -91 875 529 
Q 447 1150 447 2328 
Q 447 3434 972 4092 
Q 1497 4750 2381 4750 
Q 2619 4750 2861 4703 
Q 3103 4656 3366 4563 
z
" id="DejaVuSans-36" transform="scale(0.015625)"/>
       </defs>
       <use xlink:href="#DejaVuSans-36"/>
      </g>
     </g>
    </g>
    <g id="xtick_5">
     <g id="text_5">
      <!-- 8 -->
      <g style="fill:#262626;" transform="translate(514.102239 459.257422)scale(0.165 -0.165)">
       <defs>
        <path d="M 2034 2216 
Q 1584 2216 1326 1975 
Q 1069 1734 1069 1313 
Q 1069 891 1326 650 
Q 1584 409 2034 409 
Q 2484 409 2743 651 
Q 3003 894 3003 1313 
Q 3003 1734 2745 1975 
Q 2488 2216 2034 2216 
z
M 1403 2484 
Q 997 2584 770 2862 
Q 544 3141 544 3541 
Q 544 4100 942 4425 
Q 1341 4750 2034 4750 
Q 2731 4750 3128 4425 
Q 3525 4100 3525 3541 
Q 3525 3141 3298 2862 
Q 3072 2584 2669 2484 
Q 3125 2378 3379 2068 
Q 3634 1759 3634 1313 
Q 3634 634 3220 271 
Q 2806 -91 2034 -91 
Q 1263 -91 848 271 
Q 434 634 434 1313 
Q 434 1759 690 2068 
Q 947 2378 1403 2484 
z
M 1172 3481 
Q 1172 3119 1398 2916 
Q 1625 2713 2034 2713 
Q 2441 2713 2670 2916 
Q 2900 3119 2900 3481 
Q 2900 3844 2670 4047 
Q 2441 4250 2034 4250 
Q 1625 4250 1398 4047 
Q 1172 3844 1172 3481 
z
" id="DejaVuSans-38" transform="scale(0.015625)"/>
       </defs>
       <use xlink:href="#DejaVuSans-38"/>
      </g>
     </g>
    </g>
    <g id="text_6">
     <!-- Human ratings (euclidean distance) -->
     <g style="fill:#262626;" transform="translate(161.846719 480.366094)scale(0.18 -0.18)">
      <defs>
       <path d="M 628 4666 
L 1259 4666 
L 1259 2753 
L 3553 2753 
L 3553 4666 
L 4184 4666 
L 4184 0 
L 3553 0 
L 3553 2222 
L 1259 2222 
L 1259 0 
L 628 0 
L 628 4666 
z
" id="DejaVuSans-48" transform="scale(0.015625)"/>
       <path d="M 544 1381 
L 544 3500 
L 1119 3500 
L 1119 1403 
Q 1119 906 1312 657 
Q 1506 409 1894 409 
Q 2359 409 2629 706 
Q 2900 1003 2900 1516 
L 2900 3500 
L 3475 3500 
L 3475 0 
L 2900 0 
L 2900 538 
Q 2691 219 2414 64 
Q 2138 -91 1772 -91 
Q 1169 -91 856 284 
Q 544 659 544 1381 
z
M 1991 3584 
L 1991 3584 
z
" id="DejaVuSans-75" transform="scale(0.015625)"/>
       <path d="M 3328 2828 
Q 3544 3216 3844 3400 
Q 4144 3584 4550 3584 
Q 5097 3584 5394 3201 
Q 5691 2819 5691 2113 
L 5691 0 
L 5113 0 
L 5113 2094 
Q 5113 2597 4934 2840 
Q 4756 3084 4391 3084 
Q 3944 3084 3684 2787 
Q 3425 2491 3425 1978 
L 3425 0 
L 2847 0 
L 2847 2094 
Q 2847 2600 2669 2842 
Q 2491 3084 2119 3084 
Q 1678 3084 1418 2786 
Q 1159 2488 1159 1978 
L 1159 0 
L 581 0 
L 581 3500 
L 1159 3500 
L 1159 2956 
Q 1356 3278 1631 3431 
Q 1906 3584 2284 3584 
Q 2666 3584 2933 3390 
Q 3200 3197 3328 2828 
z
" id="DejaVuSans-6d" transform="scale(0.015625)"/>
       <path d="M 2194 1759 
Q 1497 1759 1228 1600 
Q 959 1441 959 1056 
Q 959 750 1161 570 
Q 1363 391 1709 391 
Q 2188 391 2477 730 
Q 2766 1069 2766 1631 
L 2766 1759 
L 2194 1759 
z
M 3341 1997 
L 3341 0 
L 2766 0 
L 2766 531 
Q 2569 213 2275 61 
Q 1981 -91 1556 -91 
Q 1019 -91 701 211 
Q 384 513 384 1019 
Q 384 1609 779 1909 
Q 1175 2209 1959 2209 
L 2766 2209 
L 2766 2266 
Q 2766 2663 2505 2880 
Q 2244 3097 1772 3097 
Q 1472 3097 1187 3025 
Q 903 2953 641 2809 
L 641 3341 
Q 956 3463 1253 3523 
Q 1550 3584 1831 3584 
Q 2591 3584 2966 3190 
Q 3341 2797 3341 1997 
z
" id="DejaVuSans-61" transform="scale(0.015625)"/>
       <path d="M 3513 2113 
L 3513 0 
L 2938 0 
L 2938 2094 
Q 2938 2591 2744 2837 
Q 2550 3084 2163 3084 
Q 1697 3084 1428 2787 
Q 1159 2491 1159 1978 
L 1159 0 
L 581 0 
L 581 3500 
L 1159 3500 
L 1159 2956 
Q 1366 3272 1645 3428 
Q 1925 3584 2291 3584 
Q 2894 3584 3203 3211 
Q 3513 2838 3513 2113 
z
" id="DejaVuSans-6e" transform="scale(0.015625)"/>
       <path id="DejaVuSans-20" transform="scale(0.015625)"/>
       <path d="M 2631 2963 
Q 2534 3019 2420 3045 
Q 2306 3072 2169 3072 
Q 1681 3072 1420 2755 
Q 1159 2438 1159 1844 
L 1159 0 
L 581 0 
L 581 3500 
L 1159 3500 
L 1159 2956 
Q 1341 3275 1631 3429 
Q 1922 3584 2338 3584 
Q 2397 3584 2469 3576 
Q 2541 3569 2628 3553 
L 2631 2963 
z
" id="DejaVuSans-72" transform="scale(0.015625)"/>
       <path d="M 1172 4494 
L 1172 3500 
L 2356 3500 
L 2356 3053 
L 1172 3053 
L 1172 1153 
Q 1172 725 1289 603 
Q 1406 481 1766 481 
L 2356 481 
L 2356 0 
L 1766 0 
Q 1100 0 847 248 
Q 594 497 594 1153 
L 594 3053 
L 172 3053 
L 172 3500 
L 594 3500 
L 594 4494 
L 1172 4494 
z
" id="DejaVuSans-74" transform="scale(0.015625)"/>
       <path d="M 603 3500 
L 1178 3500 
L 1178 0 
L 603 0 
L 603 3500 
z
M 603 4863 
L 1178 4863 
L 1178 4134 
L 603 4134 
L 603 4863 
z
" id="DejaVuSans-69" transform="scale(0.015625)"/>
       <path d="M 2906 1791 
Q 2906 2416 2648 2759 
Q 2391 3103 1925 3103 
Q 1463 3103 1205 2759 
Q 947 2416 947 1791 
Q 947 1169 1205 825 
Q 1463 481 1925 481 
Q 2391 481 2648 825 
Q 2906 1169 2906 1791 
z
M 3481 434 
Q 3481 -459 3084 -895 
Q 2688 -1331 1869 -1331 
Q 1566 -1331 1297 -1286 
Q 1028 -1241 775 -1147 
L 775 -588 
Q 1028 -725 1275 -790 
Q 1522 -856 1778 -856 
Q 2344 -856 2625 -561 
Q 2906 -266 2906 331 
L 2906 616 
Q 2728 306 2450 153 
Q 2172 0 1784 0 
Q 1141 0 747 490 
Q 353 981 353 1791 
Q 353 2603 747 3093 
Q 1141 3584 1784 3584 
Q 2172 3584 2450 3431 
Q 2728 3278 2906 2969 
L 2906 3500 
L 3481 3500 
L 3481 434 
z
" id="DejaVuSans-67" transform="scale(0.015625)"/>
       <path d="M 2834 3397 
L 2834 2853 
Q 2591 2978 2328 3040 
Q 2066 3103 1784 3103 
Q 1356 3103 1142 2972 
Q 928 2841 928 2578 
Q 928 2378 1081 2264 
Q 1234 2150 1697 2047 
L 1894 2003 
Q 2506 1872 2764 1633 
Q 3022 1394 3022 966 
Q 3022 478 2636 193 
Q 2250 -91 1575 -91 
Q 1294 -91 989 -36 
Q 684 19 347 128 
L 347 722 
Q 666 556 975 473 
Q 1284 391 1588 391 
Q 1994 391 2212 530 
Q 2431 669 2431 922 
Q 2431 1156 2273 1281 
Q 2116 1406 1581 1522 
L 1381 1569 
Q 847 1681 609 1914 
Q 372 2147 372 2553 
Q 372 3047 722 3315 
Q 1072 3584 1716 3584 
Q 2034 3584 2315 3537 
Q 2597 3491 2834 3397 
z
" id="DejaVuSans-73" transform="scale(0.015625)"/>
       <path d="M 1984 4856 
Q 1566 4138 1362 3434 
Q 1159 2731 1159 2009 
Q 1159 1288 1364 580 
Q 1569 -128 1984 -844 
L 1484 -844 
Q 1016 -109 783 600 
Q 550 1309 550 2009 
Q 550 2706 781 3412 
Q 1013 4119 1484 4856 
L 1984 4856 
z
" id="DejaVuSans-28" transform="scale(0.015625)"/>
       <path d="M 3597 1894 
L 3597 1613 
L 953 1613 
Q 991 1019 1311 708 
Q 1631 397 2203 397 
Q 2534 397 2845 478 
Q 3156 559 3463 722 
L 3463 178 
Q 3153 47 2828 -22 
Q 2503 -91 2169 -91 
Q 1331 -91 842 396 
Q 353 884 353 1716 
Q 353 2575 817 3079 
Q 1281 3584 2069 3584 
Q 2775 3584 3186 3129 
Q 3597 2675 3597 1894 
z
M 3022 2063 
Q 3016 2534 2758 2815 
Q 2500 3097 2075 3097 
Q 1594 3097 1305 2825 
Q 1016 2553 972 2059 
L 3022 2063 
z
" id="DejaVuSans-65" transform="scale(0.015625)"/>
       <path d="M 3122 3366 
L 3122 2828 
Q 2878 2963 2633 3030 
Q 2388 3097 2138 3097 
Q 1578 3097 1268 2742 
Q 959 2388 959 1747 
Q 959 1106 1268 751 
Q 1578 397 2138 397 
Q 2388 397 2633 464 
Q 2878 531 3122 666 
L 3122 134 
Q 2881 22 2623 -34 
Q 2366 -91 2075 -91 
Q 1284 -91 818 406 
Q 353 903 353 1747 
Q 353 2603 823 3093 
Q 1294 3584 2113 3584 
Q 2378 3584 2631 3529 
Q 2884 3475 3122 3366 
z
" id="DejaVuSans-63" transform="scale(0.015625)"/>
       <path d="M 603 4863 
L 1178 4863 
L 1178 0 
L 603 0 
L 603 4863 
z
" id="DejaVuSans-6c" transform="scale(0.015625)"/>
       <path d="M 2906 2969 
L 2906 4863 
L 3481 4863 
L 3481 0 
L 2906 0 
L 2906 525 
Q 2725 213 2448 61 
Q 2172 -91 1784 -91 
Q 1150 -91 751 415 
Q 353 922 353 1747 
Q 353 2572 751 3078 
Q 1150 3584 1784 3584 
Q 2172 3584 2448 3432 
Q 2725 3281 2906 2969 
z
M 947 1747 
Q 947 1113 1208 752 
Q 1469 391 1925 391 
Q 2381 391 2643 752 
Q 2906 1113 2906 1747 
Q 2906 2381 2643 2742 
Q 2381 3103 1925 3103 
Q 1469 3103 1208 2742 
Q 947 2381 947 1747 
z
" id="DejaVuSans-64" transform="scale(0.015625)"/>
       <path d="M 513 4856 
L 1013 4856 
Q 1481 4119 1714 3412 
Q 1947 2706 1947 2009 
Q 1947 1309 1714 600 
Q 1481 -109 1013 -844 
L 513 -844 
Q 928 -128 1133 580 
Q 1338 1288 1338 2009 
Q 1338 2731 1133 3434 
Q 928 4138 513 4856 
z
" id="DejaVuSans-29" transform="scale(0.015625)"/>
      </defs>
      <use xlink:href="#DejaVuSans-48"/>
      <use x="75.195312" xlink:href="#DejaVuSans-75"/>
      <use x="138.574219" xlink:href="#DejaVuSans-6d"/>
      <use x="235.986328" xlink:href="#DejaVuSans-61"/>
      <use x="297.265625" xlink:href="#DejaVuSans-6e"/>
      <use x="360.644531" xlink:href="#DejaVuSans-20"/>
      <use x="392.431641" xlink:href="#DejaVuSans-72"/>
      <use x="433.544922" xlink:href="#DejaVuSans-61"/>
      <use x="494.824219" xlink:href="#DejaVuSans-74"/>
      <use x="534.033203" xlink:href="#DejaVuSans-69"/>
      <use x="561.816406" xlink:href="#DejaVuSans-6e"/>
      <use x="625.195312" xlink:href="#DejaVuSans-67"/>
      <use x="688.671875" xlink:href="#DejaVuSans-73"/>
      <use x="740.771484" xlink:href="#DejaVuSans-20"/>
      <use x="772.558594" xlink:href="#DejaVuSans-28"/>
      <use x="811.572266" xlink:href="#DejaVuSans-65"/>
      <use x="873.095703" xlink:href="#DejaVuSans-75"/>
      <use x="936.474609" xlink:href="#DejaVuSans-63"/>
      <use x="991.455078" xlink:href="#DejaVuSans-6c"/>
      <use x="1019.238281" xlink:href="#DejaVuSans-69"/>
      <use x="1047.021484" xlink:href="#DejaVuSans-64"/>
      <use x="1110.498047" xlink:href="#DejaVuSans-65"/>
      <use x="1172.021484" xlink:href="#DejaVuSans-61"/>
      <use x="1233.300781" xlink:href="#DejaVuSans-6e"/>
      <use x="1296.679688" xlink:href="#DejaVuSans-20"/>
      <use x="1328.466797" xlink:href="#DejaVuSans-64"/>
      <use x="1391.943359" xlink:href="#DejaVuSans-69"/>
      <use x="1419.726562" xlink:href="#DejaVuSans-73"/>
      <use x="1471.826172" xlink:href="#DejaVuSans-74"/>
      <use x="1511.035156" xlink:href="#DejaVuSans-61"/>
      <use x="1572.314453" xlink:href="#DejaVuSans-6e"/>
      <use x="1635.693359" xlink:href="#DejaVuSans-63"/>
      <use x="1690.673828" xlink:href="#DejaVuSans-65"/>
      <use x="1752.197266" xlink:href="#DejaVuSans-29"/>
     </g>
    </g>
   </g>
   <g id="matplotlib.axis_2">
    <g id="ytick_1">
     <g id="text_7">
      <!-- 0 -->
      <g style="fill:#262626;" transform="translate(40.751875 432.215697)scale(0.165 -0.165)">
       <use xlink:href="#DejaVuSans-30"/>
      </g>
     </g>
    </g>
    <g id="ytick_2">
     <g id="text_8">
      <!-- 1 -->
      <g style="fill:#262626;" transform="translate(40.751875 344.307266)scale(0.165 -0.165)">
       <defs>
        <path d="M 794 531 
L 1825 531 
L 1825 4091 
L 703 3866 
L 703 4441 
L 1819 4666 
L 2450 4666 
L 2450 531 
L 3481 531 
L 3481 0 
L 794 0 
L 794 531 
z
" id="DejaVuSans-31" transform="scale(0.015625)"/>
       </defs>
       <use xlink:href="#DejaVuSans-31"/>
      </g>
     </g>
    </g>
    <g id="ytick_3">
     <g id="text_9">
      <!-- 2 -->
      <g style="fill:#262626;" transform="translate(40.751875 256.398834)scale(0.165 -0.165)">
       <use xlink:href="#DejaVuSans-32"/>
      </g>
     </g>
    </g>
    <g id="ytick_4">
     <g id="text_10">
      <!-- 3 -->
      <g style="fill:#262626;" transform="translate(40.751875 168.490403)scale(0.165 -0.165)">
       <defs>
        <path d="M 2597 2516 
Q 3050 2419 3304 2112 
Q 3559 1806 3559 1356 
Q 3559 666 3084 287 
Q 2609 -91 1734 -91 
Q 1441 -91 1130 -33 
Q 819 25 488 141 
L 488 750 
Q 750 597 1062 519 
Q 1375 441 1716 441 
Q 2309 441 2620 675 
Q 2931 909 2931 1356 
Q 2931 1769 2642 2001 
Q 2353 2234 1838 2234 
L 1294 2234 
L 1294 2753 
L 1863 2753 
Q 2328 2753 2575 2939 
Q 2822 3125 2822 3475 
Q 2822 3834 2567 4026 
Q 2313 4219 1838 4219 
Q 1578 4219 1281 4162 
Q 984 4106 628 3988 
L 628 4550 
Q 988 4650 1302 4700 
Q 1616 4750 1894 4750 
Q 2613 4750 3031 4423 
Q 3450 4097 3450 3541 
Q 3450 3153 3228 2886 
Q 3006 2619 2597 2516 
z
" id="DejaVuSans-33" transform="scale(0.015625)"/>
       </defs>
       <use xlink:href="#DejaVuSans-33"/>
      </g>
     </g>
    </g>
    <g id="ytick_5">
     <g id="text_11">
      <!-- 4 -->
      <g style="fill:#262626;" transform="translate(40.751875 80.581971)scale(0.165 -0.165)">
       <use xlink:href="#DejaVuSans-34"/>
      </g>
     </g>
    </g>
    <g id="text_12">
     <!-- Fasttext 2D space (euclidean distance) -->
     <g style="fill:#262626;" transform="translate(33.008437 403.502344)rotate(-90)scale(0.18 -0.18)">
      <defs>
       <path d="M 628 4666 
L 3309 4666 
L 3309 4134 
L 1259 4134 
L 1259 2759 
L 3109 2759 
L 3109 2228 
L 1259 2228 
L 1259 0 
L 628 0 
L 628 4666 
z
" id="DejaVuSans-46" transform="scale(0.015625)"/>
       <path d="M 3513 3500 
L 2247 1797 
L 3578 0 
L 2900 0 
L 1881 1375 
L 863 0 
L 184 0 
L 1544 1831 
L 300 3500 
L 978 3500 
L 1906 2253 
L 2834 3500 
L 3513 3500 
z
" id="DejaVuSans-78" transform="scale(0.015625)"/>
       <path d="M 1259 4147 
L 1259 519 
L 2022 519 
Q 2988 519 3436 956 
Q 3884 1394 3884 2338 
Q 3884 3275 3436 3711 
Q 2988 4147 2022 4147 
L 1259 4147 
z
M 628 4666 
L 1925 4666 
Q 3281 4666 3915 4102 
Q 4550 3538 4550 2338 
Q 4550 1131 3912 565 
Q 3275 0 1925 0 
L 628 0 
L 628 4666 
z
" id="DejaVuSans-44" transform="scale(0.015625)"/>
       <path d="M 1159 525 
L 1159 -1331 
L 581 -1331 
L 581 3500 
L 1159 3500 
L 1159 2969 
Q 1341 3281 1617 3432 
Q 1894 3584 2278 3584 
Q 2916 3584 3314 3078 
Q 3713 2572 3713 1747 
Q 3713 922 3314 415 
Q 2916 -91 2278 -91 
Q 1894 -91 1617 61 
Q 1341 213 1159 525 
z
M 3116 1747 
Q 3116 2381 2855 2742 
Q 2594 3103 2138 3103 
Q 1681 3103 1420 2742 
Q 1159 2381 1159 1747 
Q 1159 1113 1420 752 
Q 1681 391 2138 391 
Q 2594 391 2855 752 
Q 3116 1113 3116 1747 
z
" id="DejaVuSans-70" transform="scale(0.015625)"/>
      </defs>
      <use xlink:href="#DejaVuSans-46"/>
      <use x="48.394531" xlink:href="#DejaVuSans-61"/>
      <use x="109.673828" xlink:href="#DejaVuSans-73"/>
      <use x="161.773438" xlink:href="#DejaVuSans-74"/>
      <use x="200.982422" xlink:href="#DejaVuSans-74"/>
      <use x="240.191406" xlink:href="#DejaVuSans-65"/>
      <use x="299.964844" xlink:href="#DejaVuSans-78"/>
      <use x="359.144531" xlink:href="#DejaVuSans-74"/>
      <use x="398.353516" xlink:href="#DejaVuSans-20"/>
      <use x="430.140625" xlink:href="#DejaVuSans-32"/>
      <use x="493.763672" xlink:href="#DejaVuSans-44"/>
      <use x="570.765625" xlink:href="#DejaVuSans-20"/>
      <use x="602.552734" xlink:href="#DejaVuSans-73"/>
      <use x="654.652344" xlink:href="#DejaVuSans-70"/>
      <use x="718.128906" xlink:href="#DejaVuSans-61"/>
      <use x="779.408203" xlink:href="#DejaVuSans-63"/>
      <use x="834.388672" xlink:href="#DejaVuSans-65"/>
      <use x="895.912109" xlink:href="#DejaVuSans-20"/>
      <use x="927.699219" xlink:href="#DejaVuSans-28"/>
      <use x="966.712891" xlink:href="#DejaVuSans-65"/>
      <use x="1028.236328" xlink:href="#DejaVuSans-75"/>
      <use x="1091.615234" xlink:href="#DejaVuSans-63"/>
      <use x="1146.595703" xlink:href="#DejaVuSans-6c"/>
      <use x="1174.378906" xlink:href="#DejaVuSans-69"/>
      <use x="1202.162109" xlink:href="#DejaVuSans-64"/>
      <use x="1265.638672" xlink:href="#DejaVuSans-65"/>
      <use x="1327.162109" xlink:href="#DejaVuSans-61"/>
      <use x="1388.441406" xlink:href="#DejaVuSans-6e"/>
      <use x="1451.820312" xlink:href="#DejaVuSans-20"/>
      <use x="1483.607422" xlink:href="#DejaVuSans-64"/>
      <use x="1547.083984" xlink:href="#DejaVuSans-69"/>
      <use x="1574.867188" xlink:href="#DejaVuSans-73"/>
      <use x="1626.966797" xlink:href="#DejaVuSans-74"/>
      <use x="1666.175781" xlink:href="#DejaVuSans-61"/>
      <use x="1727.455078" xlink:href="#DejaVuSans-6e"/>
      <use x="1790.833984" xlink:href="#DejaVuSans-63"/>
      <use x="1845.814453" xlink:href="#DejaVuSans-65"/>
      <use x="1907.337891" xlink:href="#DejaVuSans-29"/>
     </g>
    </g>
   </g>
   <g id="PathCollection_1">
    <defs>
     <path d="M 0 3.872983 
C 1.027127 3.872983 2.012324 3.464901 2.738613 2.738613 
C 3.464901 2.012324 3.872983 1.027127 3.872983 0 
C 3.872983 -1.027127 3.464901 -2.012324 2.738613 -2.738613 
C 2.012324 -3.464901 1.027127 -3.872983 0 -3.872983 
C -1.027127 -3.872983 -2.012324 -3.464901 -2.738613 -2.738613 
C -3.464901 -2.012324 -3.872983 -1.027127 -3.872983 0 
C -3.872983 1.027127 -3.464901 2.012324 -2.738613 2.738613 
C -2.012324 3.464901 -1.027127 3.872983 0 3.872983 
z
" id="m5f48ecd753" style="stroke:#000000;stroke-opacity:0.8;stroke-width:0.7;"/>
    </defs>
    <g clip-path="url(#p1858bad9f9)">
     <use style="fill:#4c72b0;fill-opacity:0.8;stroke:#000000;stroke-opacity:0.8;stroke-width:0.7;" x="265.406175" xlink:href="#m5f48ecd753" y="288.045812"/>
     <use style="fill:#4c72b0;fill-opacity:0.8;stroke:#000000;stroke-opacity:0.8;stroke-width:0.7;" x="400.765136" xlink:href="#m5f48ecd753" y="173.267679"/>
     <use style="fill:#4c72b0;fill-opacity:0.8;stroke:#000000;stroke-opacity:0.8;stroke-width:0.7;" x="238.690575" xlink:href="#m5f48ecd753" y="91.498692"/>
     <use style="fill:#4c72b0;fill-opacity:0.8;stroke:#000000;stroke-opacity:0.8;stroke-width:0.7;" x="321.526834" xlink:href="#m5f48ecd753" y="388.527216"/>
     <use style="fill:#4c72b0;fill-opacity:0.8;stroke:#000000;stroke-opacity:0.8;stroke-width:0.7;" x="137.551968" xlink:href="#m5f48ecd753" y="260.216801"/>
     <use style="fill:#4c72b0;fill-opacity:0.8;stroke:#000000;stroke-opacity:0.8;stroke-width:0.7;" x="181.536865" xlink:href="#m5f48ecd753" y="156.813455"/>
     <use style="fill:#4c72b0;fill-opacity:0.8;stroke:#000000;stroke-opacity:0.8;stroke-width:0.7;" x="332.38102" xlink:href="#m5f48ecd753" y="262.879514"/>
     <use style="fill:#4c72b0;fill-opacity:0.8;stroke:#000000;stroke-opacity:0.8;stroke-width:0.7;" x="154.744186" xlink:href="#m5f48ecd753" y="341.345275"/>
     <use style="fill:#4c72b0;fill-opacity:0.8;stroke:#000000;stroke-opacity:0.8;stroke-width:0.7;" x="161.288131" xlink:href="#m5f48ecd753" y="141.561593"/>
     <use style="fill:#4c72b0;fill-opacity:0.8;stroke:#000000;stroke-opacity:0.8;stroke-width:0.7;" x="96.643742" xlink:href="#m5f48ecd753" y="226.594052"/>
     <use style="fill:#4c72b0;fill-opacity:0.8;stroke:#000000;stroke-opacity:0.8;stroke-width:0.7;" x="438.903384" xlink:href="#m5f48ecd753" y="246.494489"/>
     <use style="fill:#4c72b0;fill-opacity:0.8;stroke:#000000;stroke-opacity:0.8;stroke-width:0.7;" x="320.288193" xlink:href="#m5f48ecd753" y="117.439279"/>
     <use style="fill:#4c72b0;fill-opacity:0.8;stroke:#000000;stroke-opacity:0.8;stroke-width:0.7;" x="186.01716" xlink:href="#m5f48ecd753" y="109.02046"/>
     <use style="fill:#4c72b0;fill-opacity:0.8;stroke:#000000;stroke-opacity:0.8;stroke-width:0.7;" x="276.092213" xlink:href="#m5f48ecd753" y="281.212428"/>
     <use style="fill:#4c72b0;fill-opacity:0.8;stroke:#000000;stroke-opacity:0.8;stroke-width:0.7;" x="255.74075" xlink:href="#m5f48ecd753" y="83.623659"/>
     <use style="fill:#4c72b0;fill-opacity:0.8;stroke:#000000;stroke-opacity:0.8;stroke-width:0.7;" x="498.825053" xlink:href="#m5f48ecd753" y="375.610059"/>
     <use style="fill:#4c72b0;fill-opacity:0.8;stroke:#000000;stroke-opacity:0.8;stroke-width:0.7;" x="497.110267" xlink:href="#m5f48ecd753" y="238.225555"/>
     <use style="fill:#4c72b0;fill-opacity:0.8;stroke:#000000;stroke-opacity:0.8;stroke-width:0.7;" x="434.800133" xlink:href="#m5f48ecd753" y="197.714906"/>
     <use style="fill:#4c72b0;fill-opacity:0.8;stroke:#000000;stroke-opacity:0.8;stroke-width:0.7;" x="484.804315" xlink:href="#m5f48ecd753" y="382.871823"/>
     <use style="fill:#4c72b0;fill-opacity:0.8;stroke:#000000;stroke-opacity:0.8;stroke-width:0.7;" x="469.997065" xlink:href="#m5f48ecd753" y="222.123372"/>
     <use style="fill:#4c72b0;fill-opacity:0.8;stroke:#000000;stroke-opacity:0.8;stroke-width:0.7;" x="339.273008" xlink:href="#m5f48ecd753" y="283.468031"/>
     <use style="fill:#4c72b0;fill-opacity:0.8;stroke:#000000;stroke-opacity:0.8;stroke-width:0.7;" x="501.742473" xlink:href="#m5f48ecd753" y="377.796051"/>
     <use style="fill:#4c72b0;fill-opacity:0.8;stroke:#000000;stroke-opacity:0.8;stroke-width:0.7;" x="489.557082" xlink:href="#m5f48ecd753" y="333.962322"/>
     <use style="fill:#4c72b0;fill-opacity:0.8;stroke:#000000;stroke-opacity:0.8;stroke-width:0.7;" x="419.381423" xlink:href="#m5f48ecd753" y="140.624218"/>
     <use style="fill:#4c72b0;fill-opacity:0.8;stroke:#000000;stroke-opacity:0.8;stroke-width:0.7;" x="474.099608" xlink:href="#m5f48ecd753" y="352.061266"/>
     <use style="fill:#4c72b0;fill-opacity:0.8;stroke:#000000;stroke-opacity:0.8;stroke-width:0.7;" x="458.554868" xlink:href="#m5f48ecd753" y="292.180905"/>
     <use style="fill:#4c72b0;fill-opacity:0.8;stroke:#000000;stroke-opacity:0.8;stroke-width:0.7;" x="321.026952" xlink:href="#m5f48ecd753" y="208.11244"/>
     <use style="fill:#4c72b0;fill-opacity:0.8;stroke:#000000;stroke-opacity:0.8;stroke-width:0.7;" x="99.266949" xlink:href="#m5f48ecd753" y="327.538756"/>
     <use style="fill:#4c72b0;fill-opacity:0.8;stroke:#000000;stroke-opacity:0.8;stroke-width:0.7;" x="504.866116" xlink:href="#m5f48ecd753" y="366.706405"/>
     <use style="fill:#4c72b0;fill-opacity:0.8;stroke:#000000;stroke-opacity:0.8;stroke-width:0.7;" x="545.870064" xlink:href="#m5f48ecd753" y="341.311223"/>
     <use style="fill:#4c72b0;fill-opacity:0.8;stroke:#000000;stroke-opacity:0.8;stroke-width:0.7;" x="513.092094" xlink:href="#m5f48ecd753" y="128.73635"/>
     <use style="fill:#4c72b0;fill-opacity:0.8;stroke:#000000;stroke-opacity:0.8;stroke-width:0.7;" x="545.604665" xlink:href="#m5f48ecd753" y="344.368904"/>
     <use style="fill:#4c72b0;fill-opacity:0.8;stroke:#000000;stroke-opacity:0.8;stroke-width:0.7;" x="533.799908" xlink:href="#m5f48ecd753" y="291.855152"/>
     <use style="fill:#4c72b0;fill-opacity:0.8;stroke:#000000;stroke-opacity:0.8;stroke-width:0.7;" x="428.211373" xlink:href="#m5f48ecd753" y="202.022426"/>
     <use style="fill:#4c72b0;fill-opacity:0.8;stroke:#000000;stroke-opacity:0.8;stroke-width:0.7;" x="178.476325" xlink:href="#m5f48ecd753" y="316.80936"/>
     <use style="fill:#4c72b0;fill-opacity:0.8;stroke:#000000;stroke-opacity:0.8;stroke-width:0.7;" x="201.854774" xlink:href="#m5f48ecd753" y="413.652817"/>
     <use style="fill:#4c72b0;fill-opacity:0.8;stroke:#000000;stroke-opacity:0.8;stroke-width:0.7;" x="463.728274" xlink:href="#m5f48ecd753" y="295.299985"/>
     <use style="fill:#4c72b0;fill-opacity:0.8;stroke:#000000;stroke-opacity:0.8;stroke-width:0.7;" x="522.37038" xlink:href="#m5f48ecd753" y="183.903583"/>
     <use style="fill:#4c72b0;fill-opacity:0.8;stroke:#000000;stroke-opacity:0.8;stroke-width:0.7;" x="508.078296" xlink:href="#m5f48ecd753" y="296.067036"/>
     <use style="fill:#4c72b0;fill-opacity:0.8;stroke:#000000;stroke-opacity:0.8;stroke-width:0.7;" x="528.701077" xlink:href="#m5f48ecd753" y="284.963255"/>
     <use style="fill:#4c72b0;fill-opacity:0.8;stroke:#000000;stroke-opacity:0.8;stroke-width:0.7;" x="518.870428" xlink:href="#m5f48ecd753" y="204.267135"/>
     <use style="fill:#4c72b0;fill-opacity:0.8;stroke:#000000;stroke-opacity:0.8;stroke-width:0.7;" x="433.464168" xlink:href="#m5f48ecd753" y="225.697487"/>
     <use style="fill:#4c72b0;fill-opacity:0.8;stroke:#000000;stroke-opacity:0.8;stroke-width:0.7;" x="211.097197" xlink:href="#m5f48ecd753" y="326.992663"/>
     <use style="fill:#4c72b0;fill-opacity:0.8;stroke:#000000;stroke-opacity:0.8;stroke-width:0.7;" x="233.451239" xlink:href="#m5f48ecd753" y="254.439794"/>
     <use style="fill:#4c72b0;fill-opacity:0.8;stroke:#000000;stroke-opacity:0.8;stroke-width:0.7;" x="129.0964" xlink:href="#m5f48ecd753" y="242.148048"/>
     <use style="fill:#4c72b0;fill-opacity:0.8;stroke:#000000;stroke-opacity:0.8;stroke-width:0.7;" x="468.725171" xlink:href="#m5f48ecd753" y="333.57448"/>
     <use style="fill:#4c72b0;fill-opacity:0.8;stroke:#000000;stroke-opacity:0.8;stroke-width:0.7;" x="549.148719" xlink:href="#m5f48ecd753" y="355.430231"/>
     <use style="fill:#4c72b0;fill-opacity:0.8;stroke:#000000;stroke-opacity:0.8;stroke-width:0.7;" x="549.934789" xlink:href="#m5f48ecd753" y="95.404797"/>
     <use style="fill:#4c72b0;fill-opacity:0.8;stroke:#000000;stroke-opacity:0.8;stroke-width:0.7;" x="561.514091" xlink:href="#m5f48ecd753" y="317.420044"/>
     <use style="fill:#4c72b0;fill-opacity:0.8;stroke:#000000;stroke-opacity:0.8;stroke-width:0.7;" x="553.427019" xlink:href="#m5f48ecd753" y="286.16066"/>
     <use style="fill:#4c72b0;fill-opacity:0.8;stroke:#000000;stroke-opacity:0.8;stroke-width:0.7;" x="481.569525" xlink:href="#m5f48ecd753" y="181.469234"/>
     <use style="fill:#4c72b0;fill-opacity:0.8;stroke:#000000;stroke-opacity:0.8;stroke-width:0.7;" x="265.634135" xlink:href="#m5f48ecd753" y="284.842515"/>
     <use style="fill:#4c72b0;fill-opacity:0.8;stroke:#000000;stroke-opacity:0.8;stroke-width:0.7;" x="288.158004" xlink:href="#m5f48ecd753" y="379.068008"/>
     <use style="fill:#4c72b0;fill-opacity:0.8;stroke:#000000;stroke-opacity:0.8;stroke-width:0.7;" x="174.024576" xlink:href="#m5f48ecd753" y="391.357174"/>
     <use style="fill:#4c72b0;fill-opacity:0.8;stroke:#000000;stroke-opacity:0.8;stroke-width:0.7;" x="130.685799" xlink:href="#m5f48ecd753" y="207.561103"/>
     <use style="fill:#4c72b0;fill-opacity:0.8;stroke:#000000;stroke-opacity:0.8;stroke-width:0.7;" x="257.540442" xlink:href="#m5f48ecd753" y="312.972253"/>
     <use style="fill:#4c72b0;fill-opacity:0.8;stroke:#000000;stroke-opacity:0.8;stroke-width:0.7;" x="412.456243" xlink:href="#m5f48ecd753" y="389.067871"/>
     <use style="fill:#4c72b0;fill-opacity:0.8;stroke:#000000;stroke-opacity:0.8;stroke-width:0.7;" x="496.80194" xlink:href="#m5f48ecd753" y="128.356012"/>
     <use style="fill:#4c72b0;fill-opacity:0.8;stroke:#000000;stroke-opacity:0.8;stroke-width:0.7;" x="453.185477" xlink:href="#m5f48ecd753" y="280.555876"/>
     <use style="fill:#4c72b0;fill-opacity:0.8;stroke:#000000;stroke-opacity:0.8;stroke-width:0.7;" x="455.825379" xlink:href="#m5f48ecd753" y="359.135402"/>
     <use style="fill:#4c72b0;fill-opacity:0.8;stroke:#000000;stroke-opacity:0.8;stroke-width:0.7;" x="486.877782" xlink:href="#m5f48ecd753" y="135.847153"/>
     <use style="fill:#4c72b0;fill-opacity:0.8;stroke:#000000;stroke-opacity:0.8;stroke-width:0.7;" x="423.250599" xlink:href="#m5f48ecd753" y="265.213417"/>
     <use style="fill:#4c72b0;fill-opacity:0.8;stroke:#000000;stroke-opacity:0.8;stroke-width:0.7;" x="435.681756" xlink:href="#m5f48ecd753" y="352.715998"/>
     <use style="fill:#4c72b0;fill-opacity:0.8;stroke:#000000;stroke-opacity:0.8;stroke-width:0.7;" x="387.718649" xlink:href="#m5f48ecd753" y="355.438858"/>
     <use style="fill:#4c72b0;fill-opacity:0.8;stroke:#000000;stroke-opacity:0.8;stroke-width:0.7;" x="336.7289" xlink:href="#m5f48ecd753" y="218.977065"/>
     <use style="fill:#4c72b0;fill-opacity:0.8;stroke:#000000;stroke-opacity:0.8;stroke-width:0.7;" x="321.176774" xlink:href="#m5f48ecd753" y="352.927072"/>
     <use style="fill:#4c72b0;fill-opacity:0.8;stroke:#000000;stroke-opacity:0.8;stroke-width:0.7;" x="381.189378" xlink:href="#m5f48ecd753" y="323.648641"/>
     <use style="fill:#4c72b0;fill-opacity:0.8;stroke:#000000;stroke-opacity:0.8;stroke-width:0.7;" x="485.41442" xlink:href="#m5f48ecd753" y="390.344071"/>
     <use style="fill:#4c72b0;fill-opacity:0.8;stroke:#000000;stroke-opacity:0.8;stroke-width:0.7;" x="515.714853" xlink:href="#m5f48ecd753" y="116.450959"/>
     <use style="fill:#4c72b0;fill-opacity:0.8;stroke:#000000;stroke-opacity:0.8;stroke-width:0.7;" x="507.711462" xlink:href="#m5f48ecd753" y="295.186217"/>
     <use style="fill:#4c72b0;fill-opacity:0.8;stroke:#000000;stroke-opacity:0.8;stroke-width:0.7;" x="503.111438" xlink:href="#m5f48ecd753" y="333.636563"/>
     <use style="fill:#4c72b0;fill-opacity:0.8;stroke:#000000;stroke-opacity:0.8;stroke-width:0.7;" x="467.573845" xlink:href="#m5f48ecd753" y="151.561006"/>
     <use style="fill:#4c72b0;fill-opacity:0.8;stroke:#000000;stroke-opacity:0.8;stroke-width:0.7;" x="311.226547" xlink:href="#m5f48ecd753" y="273.788206"/>
     <use style="fill:#4c72b0;fill-opacity:0.8;stroke:#000000;stroke-opacity:0.8;stroke-width:0.7;" x="329.706515" xlink:href="#m5f48ecd753" y="369.07192"/>
     <use style="fill:#4c72b0;fill-opacity:0.8;stroke:#000000;stroke-opacity:0.8;stroke-width:0.7;" x="248.449915" xlink:href="#m5f48ecd753" y="375.14827"/>
     <use style="fill:#4c72b0;fill-opacity:0.8;stroke:#000000;stroke-opacity:0.8;stroke-width:0.7;" x="195.260043" xlink:href="#m5f48ecd753" y="215.683874"/>
     <use style="fill:#4c72b0;fill-opacity:0.8;stroke:#000000;stroke-opacity:0.8;stroke-width:0.7;" x="171.525226" xlink:href="#m5f48ecd753" y="378.455859"/>
     <use style="fill:#4c72b0;fill-opacity:0.8;stroke:#000000;stroke-opacity:0.8;stroke-width:0.7;" x="225.558046" xlink:href="#m5f48ecd753" y="400.281718"/>
     <use style="fill:#4c72b0;fill-opacity:0.8;stroke:#000000;stroke-opacity:0.8;stroke-width:0.7;" x="429.64431" xlink:href="#m5f48ecd753" y="404.427103"/>
     <use style="fill:#4c72b0;fill-opacity:0.8;stroke:#000000;stroke-opacity:0.8;stroke-width:0.7;" x="514.877585" xlink:href="#m5f48ecd753" y="306.916549"/>
     <use style="fill:#4c72b0;fill-opacity:0.8;stroke:#000000;stroke-opacity:0.8;stroke-width:0.7;" x="524.504572" xlink:href="#m5f48ecd753" y="173.071495"/>
     <use style="fill:#4c72b0;fill-opacity:0.8;stroke:#000000;stroke-opacity:0.8;stroke-width:0.7;" x="530.012988" xlink:href="#m5f48ecd753" y="367.871849"/>
     <use style="fill:#4c72b0;fill-opacity:0.8;stroke:#000000;stroke-opacity:0.8;stroke-width:0.7;" x="522.92441" xlink:href="#m5f48ecd753" y="284.314416"/>
     <use style="fill:#4c72b0;fill-opacity:0.8;stroke:#000000;stroke-opacity:0.8;stroke-width:0.7;" x="462.871635" xlink:href="#m5f48ecd753" y="224.976763"/>
     <use style="fill:#4c72b0;fill-opacity:0.8;stroke:#000000;stroke-opacity:0.8;stroke-width:0.7;" x="270.070917" xlink:href="#m5f48ecd753" y="357.045008"/>
     <use style="fill:#4c72b0;fill-opacity:0.8;stroke:#000000;stroke-opacity:0.8;stroke-width:0.7;" x="290.963847" xlink:href="#m5f48ecd753" y="391.15319"/>
     <use style="fill:#4c72b0;fill-opacity:0.8;stroke:#000000;stroke-opacity:0.8;stroke-width:0.7;" x="193.449541" xlink:href="#m5f48ecd753" y="378.890634"/>
     <use style="fill:#4c72b0;fill-opacity:0.8;stroke:#000000;stroke-opacity:0.8;stroke-width:0.7;" x="140.913816" xlink:href="#m5f48ecd753" y="289.147342"/>
     <use style="fill:#4c72b0;fill-opacity:0.8;stroke:#000000;stroke-opacity:0.8;stroke-width:0.7;" x="115.125336" xlink:href="#m5f48ecd753" y="344.308889"/>
     <use style="fill:#4c72b0;fill-opacity:0.8;stroke:#000000;stroke-opacity:0.8;stroke-width:0.7;" x="283.436038" xlink:href="#m5f48ecd753" y="333.705893"/>
     <use style="fill:#4c72b0;fill-opacity:0.8;stroke:#000000;stroke-opacity:0.8;stroke-width:0.7;" x="134.72126" xlink:href="#m5f48ecd753" y="342.361725"/>
     <use style="fill:#4c72b0;fill-opacity:0.8;stroke:#000000;stroke-opacity:0.8;stroke-width:0.7;" x="91.804786" xlink:href="#m5f48ecd753" y="354.867921"/>
     <use style="fill:#4c72b0;fill-opacity:0.8;stroke:#000000;stroke-opacity:0.8;stroke-width:0.7;" x="277.455065" xlink:href="#m5f48ecd753" y="245.254736"/>
     <use style="fill:#4c72b0;fill-opacity:0.8;stroke:#000000;stroke-opacity:0.8;stroke-width:0.7;" x="408.200644" xlink:href="#m5f48ecd753" y="244.318299"/>
     <use style="fill:#4c72b0;fill-opacity:0.8;stroke:#000000;stroke-opacity:0.8;stroke-width:0.7;" x="332.219388" xlink:href="#m5f48ecd753" y="334.539913"/>
     <use style="fill:#4c72b0;fill-opacity:0.8;stroke:#000000;stroke-opacity:0.8;stroke-width:0.7;" x="342.219963" xlink:href="#m5f48ecd753" y="254.17331"/>
     <use style="fill:#4c72b0;fill-opacity:0.8;stroke:#000000;stroke-opacity:0.8;stroke-width:0.7;" x="441.811966" xlink:href="#m5f48ecd753" y="231.320295"/>
     <use style="fill:#4c72b0;fill-opacity:0.8;stroke:#000000;stroke-opacity:0.8;stroke-width:0.7;" x="491.356208" xlink:href="#m5f48ecd753" y="367.421726"/>
     <use style="fill:#4c72b0;fill-opacity:0.8;stroke:#000000;stroke-opacity:0.8;stroke-width:0.7;" x="495.058697" xlink:href="#m5f48ecd753" y="317.385663"/>
     <use style="fill:#4c72b0;fill-opacity:0.8;stroke:#000000;stroke-opacity:0.8;stroke-width:0.7;" x="494.22156" xlink:href="#m5f48ecd753" y="305.095048"/>
     <use style="fill:#4c72b0;fill-opacity:0.8;stroke:#000000;stroke-opacity:0.8;stroke-width:0.7;" x="452.143489" xlink:href="#m5f48ecd753" y="362.689999"/>
     <use style="fill:#4c72b0;fill-opacity:0.8;stroke:#000000;stroke-opacity:0.8;stroke-width:0.7;" x="455.706534" xlink:href="#m5f48ecd753" y="270.547408"/>
     <use style="fill:#4c72b0;fill-opacity:0.8;stroke:#000000;stroke-opacity:0.8;stroke-width:0.7;" x="241.761083" xlink:href="#m5f48ecd753" y="279.138157"/>
     <use style="fill:#4c72b0;fill-opacity:0.8;stroke:#000000;stroke-opacity:0.8;stroke-width:0.7;" x="367.238735" xlink:href="#m5f48ecd753" y="278.048572"/>
     <use style="fill:#4c72b0;fill-opacity:0.8;stroke:#000000;stroke-opacity:0.8;stroke-width:0.7;" x="416.547427" xlink:href="#m5f48ecd753" y="351.87725"/>
     <use style="fill:#4c72b0;fill-opacity:0.8;stroke:#000000;stroke-opacity:0.8;stroke-width:0.7;" x="510.676839" xlink:href="#m5f48ecd753" y="229.835804"/>
     <use style="fill:#4c72b0;fill-opacity:0.8;stroke:#000000;stroke-opacity:0.8;stroke-width:0.7;" x="471.158386" xlink:href="#m5f48ecd753" y="366.446852"/>
     <use style="fill:#4c72b0;fill-opacity:0.8;stroke:#000000;stroke-opacity:0.8;stroke-width:0.7;" x="380.12347" xlink:href="#m5f48ecd753" y="38.43"/>
     <use style="fill:#4c72b0;fill-opacity:0.8;stroke:#000000;stroke-opacity:0.8;stroke-width:0.7;" x="447.318299" xlink:href="#m5f48ecd753" y="204.465137"/>
     <use style="fill:#4c72b0;fill-opacity:0.8;stroke:#000000;stroke-opacity:0.8;stroke-width:0.7;" x="429.954053" xlink:href="#m5f48ecd753" y="311.894997"/>
     <use style="fill:#4c72b0;fill-opacity:0.8;stroke:#000000;stroke-opacity:0.8;stroke-width:0.7;" x="275.041627" xlink:href="#m5f48ecd753" y="64.5926"/>
     <use style="fill:#4c72b0;fill-opacity:0.8;stroke:#000000;stroke-opacity:0.8;stroke-width:0.7;" x="160.149577" xlink:href="#m5f48ecd753" y="179.67027"/>
     <use style="fill:#4c72b0;fill-opacity:0.8;stroke:#000000;stroke-opacity:0.8;stroke-width:0.7;" x="136.807385" xlink:href="#m5f48ecd753" y="277.037376"/>
     <use style="fill:#4c72b0;fill-opacity:0.8;stroke:#000000;stroke-opacity:0.8;stroke-width:0.7;" x="262.741107" xlink:href="#m5f48ecd753" y="285.981918"/>
     <use style="fill:#4c72b0;fill-opacity:0.8;stroke:#000000;stroke-opacity:0.8;stroke-width:0.7;" x="291.674769" xlink:href="#m5f48ecd753" y="125.226794"/>
     <use style="fill:#4c72b0;fill-opacity:0.8;stroke:#000000;stroke-opacity:0.8;stroke-width:0.7;" x="346.468938" xlink:href="#m5f48ecd753" y="308.820701"/>
     <use style="fill:#4c72b0;fill-opacity:0.8;stroke:#000000;stroke-opacity:0.8;stroke-width:0.7;" x="469.159324" xlink:href="#m5f48ecd753" y="332.128222"/>
     <use style="fill:#4c72b0;fill-opacity:0.8;stroke:#000000;stroke-opacity:0.8;stroke-width:0.7;" x="378.639664" xlink:href="#m5f48ecd753" y="331.525098"/>
     <use style="fill:#4c72b0;fill-opacity:0.8;stroke:#000000;stroke-opacity:0.8;stroke-width:0.7;" x="345.620304" xlink:href="#m5f48ecd753" y="247.979996"/>
     <use style="fill:#4c72b0;fill-opacity:0.8;stroke:#000000;stroke-opacity:0.8;stroke-width:0.7;" x="506.087083" xlink:href="#m5f48ecd753" y="186.035813"/>
     <use style="fill:#4c72b0;fill-opacity:0.8;stroke:#000000;stroke-opacity:0.8;stroke-width:0.7;" x="256.720441" xlink:href="#m5f48ecd753" y="314.676545"/>
     <use style="fill:#4c72b0;fill-opacity:0.8;stroke:#000000;stroke-opacity:0.8;stroke-width:0.7;" x="415.358591" xlink:href="#m5f48ecd753" y="366.573709"/>
     <use style="fill:#4c72b0;fill-opacity:0.8;stroke:#000000;stroke-opacity:0.8;stroke-width:0.7;" x="502.466567" xlink:href="#m5f48ecd753" y="150.125524"/>
     <use style="fill:#4c72b0;fill-opacity:0.8;stroke:#000000;stroke-opacity:0.8;stroke-width:0.7;" x="457.11487" xlink:href="#m5f48ecd753" y="279.343509"/>
     <use style="fill:#4c72b0;fill-opacity:0.8;stroke:#000000;stroke-opacity:0.8;stroke-width:0.7;" x="460.1695" xlink:href="#m5f48ecd753" y="371.938152"/>
     <use style="fill:#4c72b0;fill-opacity:0.8;stroke:#000000;stroke-opacity:0.8;stroke-width:0.7;" x="494.069121" xlink:href="#m5f48ecd753" y="135.296009"/>
     <use style="fill:#4c72b0;fill-opacity:0.8;stroke:#000000;stroke-opacity:0.8;stroke-width:0.7;" x="431.94079" xlink:href="#m5f48ecd753" y="270.495048"/>
     <use style="fill:#4c72b0;fill-opacity:0.8;stroke:#000000;stroke-opacity:0.8;stroke-width:0.7;" x="444.398156" xlink:href="#m5f48ecd753" y="346.164392"/>
     <use style="fill:#4c72b0;fill-opacity:0.8;stroke:#000000;stroke-opacity:0.8;stroke-width:0.7;" x="395.843385" xlink:href="#m5f48ecd753" y="345.264163"/>
     <use style="fill:#4c72b0;fill-opacity:0.8;stroke:#000000;stroke-opacity:0.8;stroke-width:0.7;" x="344.679253" xlink:href="#m5f48ecd753" y="235.065609"/>
     <use style="fill:#4c72b0;fill-opacity:0.8;stroke:#000000;stroke-opacity:0.8;stroke-width:0.7;" x="328.23383" xlink:href="#m5f48ecd753" y="334.546134"/>
     <use style="fill:#4c72b0;fill-opacity:0.8;stroke:#000000;stroke-opacity:0.8;stroke-width:0.7;" x="84.595909" xlink:href="#m5f48ecd753" y="401.988861"/>
     <use style="fill:#4c72b0;fill-opacity:0.8;stroke:#000000;stroke-opacity:0.8;stroke-width:0.7;" x="232.58509" xlink:href="#m5f48ecd753" y="379.436908"/>
     <use style="fill:#4c72b0;fill-opacity:0.8;stroke:#000000;stroke-opacity:0.8;stroke-width:0.7;" x="290.73446" xlink:href="#m5f48ecd753" y="336.183781"/>
     <use style="fill:#4c72b0;fill-opacity:0.8;stroke:#000000;stroke-opacity:0.8;stroke-width:0.7;" x="240.852007" xlink:href="#m5f48ecd753" y="292.641325"/>
     <use style="fill:#4c72b0;fill-opacity:0.8;stroke:#000000;stroke-opacity:0.8;stroke-width:0.7;" x="477.828697" xlink:href="#m5f48ecd753" y="313.335108"/>
     <use style="fill:#4c72b0;fill-opacity:0.8;stroke:#000000;stroke-opacity:0.8;stroke-width:0.7;" x="335.456127" xlink:href="#m5f48ecd753" y="294.455679"/>
     <use style="fill:#4c72b0;fill-opacity:0.8;stroke:#000000;stroke-opacity:0.8;stroke-width:0.7;" x="442.345047" xlink:href="#m5f48ecd753" y="418.23"/>
     <use style="fill:#4c72b0;fill-opacity:0.8;stroke:#000000;stroke-opacity:0.8;stroke-width:0.7;" x="482.256247" xlink:href="#m5f48ecd753" y="93.237971"/>
     <use style="fill:#4c72b0;fill-opacity:0.8;stroke:#000000;stroke-opacity:0.8;stroke-width:0.7;" x="467.403641" xlink:href="#m5f48ecd753" y="267.267119"/>
     <use style="fill:#4c72b0;fill-opacity:0.8;stroke:#000000;stroke-opacity:0.8;stroke-width:0.7;" x="463.962966" xlink:href="#m5f48ecd753" y="336.804587"/>
     <use style="fill:#4c72b0;fill-opacity:0.8;stroke:#000000;stroke-opacity:0.8;stroke-width:0.7;" x="443.110328" xlink:href="#m5f48ecd753" y="124.793089"/>
     <use style="fill:#4c72b0;fill-opacity:0.8;stroke:#000000;stroke-opacity:0.8;stroke-width:0.7;" x="320.276617" xlink:href="#m5f48ecd753" y="244.453041"/>
     <use style="fill:#4c72b0;fill-opacity:0.8;stroke:#000000;stroke-opacity:0.8;stroke-width:0.7;" x="335.833625" xlink:href="#m5f48ecd753" y="340.859292"/>
     <use style="fill:#4c72b0;fill-opacity:0.8;stroke:#000000;stroke-opacity:0.8;stroke-width:0.7;" x="274.965741" xlink:href="#m5f48ecd753" y="348.559736"/>
     <use style="fill:#4c72b0;fill-opacity:0.8;stroke:#000000;stroke-opacity:0.8;stroke-width:0.7;" x="223.670957" xlink:href="#m5f48ecd753" y="187.918035"/>
     <use style="fill:#4c72b0;fill-opacity:0.8;stroke:#000000;stroke-opacity:0.8;stroke-width:0.7;" x="212.339315" xlink:href="#m5f48ecd753" y="363.121278"/>
     <use style="fill:#4c72b0;fill-opacity:0.8;stroke:#000000;stroke-opacity:0.8;stroke-width:0.7;" x="188.937383" xlink:href="#m5f48ecd753" y="390.348686"/>
     <use style="fill:#4c72b0;fill-opacity:0.8;stroke:#000000;stroke-opacity:0.8;stroke-width:0.7;" x="121.935488" xlink:href="#m5f48ecd753" y="396.510628"/>
     <use style="fill:#4c72b0;fill-opacity:0.8;stroke:#000000;stroke-opacity:0.8;stroke-width:0.7;" x="173.301974" xlink:href="#m5f48ecd753" y="312.935833"/>
     <use style="fill:#4c72b0;fill-opacity:0.8;stroke:#000000;stroke-opacity:0.8;stroke-width:0.7;" x="321.680387" xlink:href="#m5f48ecd753" y="249.719377"/>
     <use style="fill:#4c72b0;fill-opacity:0.8;stroke:#000000;stroke-opacity:0.8;stroke-width:0.7;" x="378.134179" xlink:href="#m5f48ecd753" y="360.958602"/>
     <use style="fill:#4c72b0;fill-opacity:0.8;stroke:#000000;stroke-opacity:0.8;stroke-width:0.7;" x="196.898922" xlink:href="#m5f48ecd753" y="366.801291"/>
    </g>
   </g>
   <g id="PolyCollection_1">
    <defs>
     <path d="M 84.595909 -228.314662 
L 84.595909 -165.610481 
L 89.413264 -166.374708 
L 94.23062 -167.112673 
L 99.047975 -167.938768 
L 103.865331 -168.659404 
L 108.682686 -169.420451 
L 113.500041 -170.159893 
L 118.317397 -170.94411 
L 123.134752 -171.705718 
L 127.952107 -172.506129 
L 132.769463 -173.229657 
L 137.586818 -173.990068 
L 142.404174 -174.840213 
L 147.221529 -175.54572 
L 152.038884 -176.271887 
L 156.85624 -177.027287 
L 161.673595 -177.681281 
L 166.49095 -178.319198 
L 171.308306 -178.990685 
L 176.125661 -179.677211 
L 180.943017 -180.398315 
L 185.760372 -181.23902 
L 190.577727 -181.953339 
L 195.395083 -182.679145 
L 200.212438 -183.24474 
L 205.029793 -183.810335 
L 209.847149 -184.377831 
L 214.664504 -185.098618 
L 219.48186 -185.669855 
L 224.299215 -186.457996 
L 229.11657 -187.247376 
L 233.933926 -187.822352 
L 238.751281 -188.341358 
L 243.568636 -189.02492 
L 248.385992 -189.747043 
L 253.203347 -190.410058 
L 258.020702 -191.02755 
L 262.838058 -191.691567 
L 267.655413 -192.31084 
L 272.472769 -192.878629 
L 277.290124 -193.382229 
L 282.107479 -193.87699 
L 286.924835 -194.41201 
L 291.74219 -195.039537 
L 296.559545 -195.661295 
L 301.376901 -196.293608 
L 306.194256 -196.919902 
L 311.011612 -197.547704 
L 315.828967 -198.189105 
L 320.646322 -198.812256 
L 325.463678 -199.469131 
L 330.281033 -200.061929 
L 335.098388 -200.392527 
L 339.915744 -200.942266 
L 344.733099 -201.298446 
L 349.550455 -201.601832 
L 354.36781 -201.901438 
L 359.185165 -202.205818 
L 364.002521 -202.527087 
L 368.819876 -202.927507 
L 373.637231 -203.226613 
L 378.454587 -203.316385 
L 383.271942 -203.477114 
L 388.089298 -203.678777 
L 392.906653 -203.742007 
L 397.724008 -203.811142 
L 402.541364 -204.075145 
L 407.358719 -204.007838 
L 412.176074 -204.005096 
L 416.99343 -204.064601 
L 421.810785 -203.977309 
L 426.62814 -203.841808 
L 431.445496 -203.743501 
L 436.262851 -203.94472 
L 441.080207 -204.283419 
L 445.897562 -204.355661 
L 450.714917 -204.518666 
L 455.532273 -204.581023 
L 460.349628 -204.643479 
L 465.166983 -204.710121 
L 469.984339 -204.779861 
L 474.801694 -205.105995 
L 479.61905 -205.470799 
L 484.436405 -205.490538 
L 489.25376 -205.493468 
L 494.071116 -205.495418 
L 498.888471 -205.551704 
L 503.705826 -205.703169 
L 508.523182 -205.854634 
L 513.340537 -205.881391 
L 518.157893 -205.728502 
L 522.975248 -205.575614 
L 527.792603 -205.552167 
L 532.609959 -205.571415 
L 537.427314 -205.625497 
L 542.244669 -205.730367 
L 547.062025 -205.810429 
L 551.87938 -205.758 
L 556.696736 -205.712799 
L 561.514091 -205.543057 
L 561.514091 -259.485393 
L 561.514091 -259.485393 
L 556.696736 -258.723647 
L 551.87938 -257.96185 
L 547.062025 -257.195014 
L 542.244669 -256.36949 
L 537.427314 -255.467387 
L 532.609959 -254.601784 
L 527.792603 -254.056156 
L 522.975248 -253.377927 
L 518.157893 -252.532679 
L 513.340537 -251.636988 
L 508.523182 -250.750144 
L 503.705826 -249.871319 
L 498.888471 -249.048458 
L 494.071116 -248.515102 
L 489.25376 -247.82274 
L 484.436405 -247.196242 
L 479.61905 -246.465859 
L 474.801694 -245.777651 
L 469.984339 -245.148485 
L 465.166983 -244.537828 
L 460.349628 -243.920493 
L 455.532273 -243.082135 
L 450.714917 -242.411926 
L 445.897562 -241.633863 
L 441.080207 -240.903065 
L 436.262851 -240.152762 
L 431.445496 -239.471622 
L 426.62814 -238.846542 
L 421.810785 -238.526614 
L 416.99343 -238.088082 
L 412.176074 -237.506609 
L 407.358719 -236.810455 
L 402.541364 -236.302105 
L 397.724008 -235.715957 
L 392.906653 -235.199618 
L 388.089298 -234.6231 
L 383.271942 -234.045413 
L 378.454587 -233.513268 
L 373.637231 -232.987866 
L 368.819876 -232.4803 
L 364.002521 -232.002733 
L 359.185165 -231.873764 
L 354.36781 -231.764219 
L 349.550455 -231.641644 
L 344.733099 -230.981183 
L 339.915744 -230.85464 
L 335.098388 -230.763127 
L 330.281033 -230.333642 
L 325.463678 -229.826966 
L 320.646322 -229.646842 
L 315.828967 -229.253784 
L 311.011612 -228.877728 
L 306.194256 -228.686605 
L 301.376901 -228.248208 
L 296.559545 -227.988229 
L 291.74219 -227.70091 
L 286.924835 -227.392395 
L 282.107479 -227.342893 
L 277.290124 -227.515707 
L 272.472769 -227.431801 
L 267.655413 -227.046016 
L 262.838058 -226.747305 
L 258.020702 -226.782854 
L 253.203347 -226.818403 
L 248.385992 -226.700619 
L 243.568636 -226.585209 
L 238.751281 -226.591017 
L 233.933926 -226.563264 
L 229.11657 -226.648447 
L 224.299215 -226.733487 
L 219.48186 -226.756409 
L 214.664504 -226.909348 
L 209.847149 -227.074109 
L 205.029793 -227.22538 
L 200.212438 -227.168562 
L 195.395083 -227.305747 
L 190.577727 -227.339372 
L 185.760372 -227.334359 
L 180.943017 -227.429627 
L 176.125661 -227.438498 
L 171.308306 -227.416322 
L 166.49095 -227.516146 
L 161.673595 -227.457972 
L 156.85624 -227.354006 
L 152.038884 -227.27941 
L 147.221529 -227.468003 
L 142.404174 -227.596013 
L 137.586818 -227.522111 
L 132.769463 -227.445776 
L 127.952107 -227.369441 
L 123.134752 -227.504683 
L 118.317397 -227.762197 
L 113.500041 -227.592793 
L 108.682686 -227.688357 
L 103.865331 -227.919505 
L 99.047975 -228.120522 
L 94.23062 -228.166107 
L 89.413264 -228.207862 
L 84.595909 -228.314662 
z
" id="m45af9be188" style="stroke:#ffffff;stroke-opacity:0.15;"/>
    </defs>
    <g clip-path="url(#p1858bad9f9)">
     <use style="fill:#4c72b0;fill-opacity:0.15;stroke:#ffffff;stroke-opacity:0.15;" x="0" xlink:href="#m45af9be188" y="504"/>
    </g>
   </g>
   <g id="line2d_1">
    <path clip-path="url(#p1858bad9f9)" d="M 84.595909 308.232584 
L 89.413264 307.868996 
L 94.23062 307.505408 
L 99.047975 307.14182 
L 103.865331 306.778231 
L 108.682686 306.414643 
L 113.500041 306.051055 
L 118.317397 305.687467 
L 123.134752 305.323879 
L 127.952107 304.960291 
L 132.769463 304.596703 
L 137.586818 304.233114 
L 142.404174 303.869526 
L 147.221529 303.505938 
L 152.038884 303.14235 
L 156.85624 302.778762 
L 161.673595 302.415174 
L 166.49095 302.051586 
L 171.308306 301.687997 
L 176.125661 301.324409 
L 180.943017 300.960821 
L 185.760372 300.597233 
L 190.577727 300.233645 
L 195.395083 299.870057 
L 200.212438 299.506469 
L 205.029793 299.14288 
L 209.847149 298.779292 
L 214.664504 298.415704 
L 219.48186 298.052116 
L 224.299215 297.688528 
L 229.11657 297.32494 
L 233.933926 296.961352 
L 238.751281 296.597763 
L 243.568636 296.234175 
L 248.385992 295.870587 
L 253.203347 295.506999 
L 258.020702 295.143411 
L 262.838058 294.779823 
L 267.655413 294.416235 
L 272.472769 294.052646 
L 277.290124 293.689058 
L 282.107479 293.32547 
L 286.924835 292.961882 
L 291.74219 292.598294 
L 296.559545 292.234706 
L 301.376901 291.871118 
L 306.194256 291.507529 
L 311.011612 291.143941 
L 315.828967 290.780353 
L 320.646322 290.416765 
L 325.463678 290.053177 
L 330.281033 289.689589 
L 335.098388 289.326001 
L 339.915744 288.962412 
L 344.733099 288.598824 
L 349.550455 288.235236 
L 354.36781 287.871648 
L 359.185165 287.50806 
L 364.002521 287.144472 
L 368.819876 286.780884 
L 373.637231 286.417295 
L 378.454587 286.053707 
L 383.271942 285.690119 
L 388.089298 285.326531 
L 392.906653 284.962943 
L 397.724008 284.599355 
L 402.541364 284.235767 
L 407.358719 283.872178 
L 412.176074 283.50859 
L 416.99343 283.145002 
L 421.810785 282.781414 
L 426.62814 282.417826 
L 431.445496 282.054238 
L 436.262851 281.69065 
L 441.080207 281.327061 
L 445.897562 280.963473 
L 450.714917 280.599885 
L 455.532273 280.236297 
L 460.349628 279.872709 
L 465.166983 279.509121 
L 469.984339 279.145533 
L 474.801694 278.781944 
L 479.61905 278.418356 
L 484.436405 278.054768 
L 489.25376 277.69118 
L 494.071116 277.327592 
L 498.888471 276.964004 
L 503.705826 276.600416 
L 508.523182 276.236827 
L 513.340537 275.873239 
L 518.157893 275.509651 
L 522.975248 275.146063 
L 527.792603 274.782475 
L 532.609959 274.418887 
L 537.427314 274.055299 
L 542.244669 273.69171 
L 547.062025 273.328122 
L 551.87938 272.964534 
L 556.696736 272.600946 
L 561.514091 272.237358 
" style="fill:none;stroke:#4c72b0;stroke-linecap:round;stroke-width:2.25;"/>
   </g>
   <g id="patch_3">
    <path d="M 60.75 437.22 
L 60.75 19.44 
" style="fill:none;stroke:#262626;stroke-linecap:square;stroke-linejoin:miter;stroke-width:1.25;"/>
   </g>
   <g id="patch_4">
    <path d="M 60.75 437.22 
L 585.36 437.22 
" style="fill:none;stroke:#262626;stroke-linecap:square;stroke-linejoin:miter;stroke-width:1.25;"/>
   </g>
   <g id="text_13">
    <!-- Human ratings ~ Fasttext 2D space -->
    <g style="fill:#262626;" transform="translate(162.493594 13.44)scale(0.18 -0.18)">
     <defs>
      <path d="M 4684 2553 
L 4684 1997 
Q 4356 1750 4076 1644 
Q 3797 1538 3494 1538 
Q 3150 1538 2694 1722 
Q 2659 1734 2644 1741 
Q 2622 1750 2575 1766 
Q 2091 1959 1797 1959 
Q 1522 1959 1253 1839 
Q 984 1719 678 1459 
L 678 2016 
Q 1006 2263 1286 2370 
Q 1566 2478 1869 2478 
Q 2213 2478 2672 2291 
Q 2703 2278 2719 2272 
Q 2744 2263 2788 2247 
Q 3272 2053 3566 2053 
Q 3834 2053 4098 2172 
Q 4363 2291 4684 2553 
z
" id="DejaVuSans-7e" transform="scale(0.015625)"/>
     </defs>
     <use xlink:href="#DejaVuSans-48"/>
     <use x="75.195312" xlink:href="#DejaVuSans-75"/>
     <use x="138.574219" xlink:href="#DejaVuSans-6d"/>
     <use x="235.986328" xlink:href="#DejaVuSans-61"/>
     <use x="297.265625" xlink:href="#DejaVuSans-6e"/>
     <use x="360.644531" xlink:href="#DejaVuSans-20"/>
     <use x="392.431641" xlink:href="#DejaVuSans-72"/>
     <use x="433.544922" xlink:href="#DejaVuSans-61"/>
     <use x="494.824219" xlink:href="#DejaVuSans-74"/>
     <use x="534.033203" xlink:href="#DejaVuSans-69"/>
     <use x="561.816406" xlink:href="#DejaVuSans-6e"/>
     <use x="625.195312" xlink:href="#DejaVuSans-67"/>
     <use x="688.671875" xlink:href="#DejaVuSans-73"/>
     <use x="740.771484" xlink:href="#DejaVuSans-20"/>
     <use x="772.558594" xlink:href="#DejaVuSans-7e"/>
     <use x="856.347656" xlink:href="#DejaVuSans-20"/>
     <use x="888.134766" xlink:href="#DejaVuSans-46"/>
     <use x="936.529297" xlink:href="#DejaVuSans-61"/>
     <use x="997.808594" xlink:href="#DejaVuSans-73"/>
     <use x="1049.908203" xlink:href="#DejaVuSans-74"/>
     <use x="1089.117188" xlink:href="#DejaVuSans-74"/>
     <use x="1128.326172" xlink:href="#DejaVuSans-65"/>
     <use x="1188.099609" xlink:href="#DejaVuSans-78"/>
     <use x="1247.279297" xlink:href="#DejaVuSans-74"/>
     <use x="1286.488281" xlink:href="#DejaVuSans-20"/>
     <use x="1318.275391" xlink:href="#DejaVuSans-32"/>
     <use x="1381.898438" xlink:href="#DejaVuSans-44"/>
     <use x="1458.900391" xlink:href="#DejaVuSans-20"/>
     <use x="1490.6875" xlink:href="#DejaVuSans-73"/>
     <use x="1542.787109" xlink:href="#DejaVuSans-70"/>
     <use x="1606.263672" xlink:href="#DejaVuSans-61"/>
     <use x="1667.542969" xlink:href="#DejaVuSans-63"/>
     <use x="1722.523438" xlink:href="#DejaVuSans-65"/>
    </g>
   </g>
  </g>
  <g id="text_14">
   <!-- r =  0.112 -->
   <g style="fill:#262626;" transform="translate(247.694625 56.732625)scale(0.216 -0.216)">
    <defs>
     <path d="M 678 2906 
L 4684 2906 
L 4684 2381 
L 678 2381 
L 678 2906 
z
M 678 1631 
L 4684 1631 
L 4684 1100 
L 678 1100 
L 678 1631 
z
" id="DejaVuSans-3d" transform="scale(0.015625)"/>
     <path d="M 684 794 
L 1344 794 
L 1344 0 
L 684 0 
L 684 794 
z
" id="DejaVuSans-2e" transform="scale(0.015625)"/>
    </defs>
    <use xlink:href="#DejaVuSans-72"/>
    <use x="41.113281" xlink:href="#DejaVuSans-20"/>
    <use x="72.900391" xlink:href="#DejaVuSans-3d"/>
    <use x="156.689453" xlink:href="#DejaVuSans-20"/>
    <use x="188.476562" xlink:href="#DejaVuSans-20"/>
    <use x="220.263672" xlink:href="#DejaVuSans-30"/>
    <use x="283.886719" xlink:href="#DejaVuSans-2e"/>
    <use x="315.673828" xlink:href="#DejaVuSans-31"/>
    <use x="379.296875" xlink:href="#DejaVuSans-31"/>
    <use x="442.919922" xlink:href="#DejaVuSans-32"/>
   </g>
  </g>
 </g>
 <defs>
  <clipPath id="p1858bad9f9">
   <rect height="417.78" width="524.61" x="60.75" y="19.44"/>
  </clipPath>
 </defs>
</svg>
