<?xml version="1.0" encoding="utf-8" standalone="no"?>
<!DOCTYPE svg PUBLIC "-//W3C//DTD SVG 1.1//EN"
  "http://www.w3.org/Graphics/SVG/1.1/DTD/svg11.dtd">
<svg height="504pt" version="1.1" viewBox="0 0 604.8 504" width="604.8pt" xmlns="http://www.w3.org/2000/svg" xmlns:xlink="http://www.w3.org/1999/xlink">
 <metadata>
  <rdf:RDF xmlns:cc="http://creativecommons.org/ns#" xmlns:dc="http://purl.org/dc/elements/1.1/" xmlns:rdf="http://www.w3.org/1999/02/22-rdf-syntax-ns#">
   <cc:Work>
    <dc:type rdf:resource="http://purl.org/dc/dcmitype/StillImage"/>
    <dc:date>2023-07-25T10:28:36.482250</dc:date>
    <dc:format>image/svg+xml</dc:format>
    <dc:creator>
     <cc:Agent>
      <dc:title>Matplotlib v3.4.3, https://matplotlib.org/</dc:title>
     </cc:Agent>
    </dc:creator>
   </cc:Work>
  </rdf:RDF>
 </metadata>
 <defs>
  <style type="text/css">*{stroke-linecap:butt;stroke-linejoin:round;}</style>
 </defs>
 <g id="figure_1">
  <g id="patch_1">
   <path d="M 0 504 
L 604.8 504 
L 604.8 0 
L 0 0 
z
" style="fill:#ffffff;"/>
  </g>
  <g id="axes_1">
   <g id="patch_2">
    <path d="M 60.75 437.22 
L 585.36 437.22 
L 585.36 19.44 
L 60.75 19.44 
z
" style="fill:#ffffff;"/>
   </g>
   <g id="matplotlib.axis_1">
    <g id="xtick_1">
     <g id="text_1">
      <!-- 1.5 -->
      <g style="fill:#262626;" transform="translate(86.437519 459.257422)scale(0.165 -0.165)">
       <defs>
        <path d="M 794 531 
L 1825 531 
L 1825 4091 
L 703 3866 
L 703 4441 
L 1819 4666 
L 2450 4666 
L 2450 531 
L 3481 531 
L 3481 0 
L 794 0 
L 794 531 
z
" id="DejaVuSans-31" transform="scale(0.015625)"/>
        <path d="M 684 794 
L 1344 794 
L 1344 0 
L 684 0 
L 684 794 
z
" id="DejaVuSans-2e" transform="scale(0.015625)"/>
        <path d="M 691 4666 
L 3169 4666 
L 3169 4134 
L 1269 4134 
L 1269 2991 
Q 1406 3038 1543 3061 
Q 1681 3084 1819 3084 
Q 2600 3084 3056 2656 
Q 3513 2228 3513 1497 
Q 3513 744 3044 326 
Q 2575 -91 1722 -91 
Q 1428 -91 1123 -41 
Q 819 9 494 109 
L 494 744 
Q 775 591 1075 516 
Q 1375 441 1709 441 
Q 2250 441 2565 725 
Q 2881 1009 2881 1497 
Q 2881 1984 2565 2268 
Q 2250 2553 1709 2553 
Q 1456 2553 1204 2497 
Q 953 2441 691 2322 
L 691 4666 
z
" id="DejaVuSans-35" transform="scale(0.015625)"/>
       </defs>
       <use xlink:href="#DejaVuSans-31"/>
       <use x="63.623047" xlink:href="#DejaVuSans-2e"/>
       <use x="95.410156" xlink:href="#DejaVuSans-35"/>
      </g>
     </g>
    </g>
    <g id="xtick_2">
     <g id="text_2">
      <!-- 2.0 -->
      <g style="fill:#262626;" transform="translate(150.457232 459.257422)scale(0.165 -0.165)">
       <defs>
        <path d="M 1228 531 
L 3431 531 
L 3431 0 
L 469 0 
L 469 531 
Q 828 903 1448 1529 
Q 2069 2156 2228 2338 
Q 2531 2678 2651 2914 
Q 2772 3150 2772 3378 
Q 2772 3750 2511 3984 
Q 2250 4219 1831 4219 
Q 1534 4219 1204 4116 
Q 875 4013 500 3803 
L 500 4441 
Q 881 4594 1212 4672 
Q 1544 4750 1819 4750 
Q 2544 4750 2975 4387 
Q 3406 4025 3406 3419 
Q 3406 3131 3298 2873 
Q 3191 2616 2906 2266 
Q 2828 2175 2409 1742 
Q 1991 1309 1228 531 
z
" id="DejaVuSans-32" transform="scale(0.015625)"/>
        <path d="M 2034 4250 
Q 1547 4250 1301 3770 
Q 1056 3291 1056 2328 
Q 1056 1369 1301 889 
Q 1547 409 2034 409 
Q 2525 409 2770 889 
Q 3016 1369 3016 2328 
Q 3016 3291 2770 3770 
Q 2525 4250 2034 4250 
z
M 2034 4750 
Q 2819 4750 3233 4129 
Q 3647 3509 3647 2328 
Q 3647 1150 3233 529 
Q 2819 -91 2034 -91 
Q 1250 -91 836 529 
Q 422 1150 422 2328 
Q 422 3509 836 4129 
Q 1250 4750 2034 4750 
z
" id="DejaVuSans-30" transform="scale(0.015625)"/>
       </defs>
       <use xlink:href="#DejaVuSans-32"/>
       <use x="63.623047" xlink:href="#DejaVuSans-2e"/>
       <use x="95.410156" xlink:href="#DejaVuSans-30"/>
      </g>
     </g>
    </g>
    <g id="xtick_3">
     <g id="text_3">
      <!-- 2.5 -->
      <g style="fill:#262626;" transform="translate(214.476945 459.257422)scale(0.165 -0.165)">
       <use xlink:href="#DejaVuSans-32"/>
       <use x="63.623047" xlink:href="#DejaVuSans-2e"/>
       <use x="95.410156" xlink:href="#DejaVuSans-35"/>
      </g>
     </g>
    </g>
    <g id="xtick_4">
     <g id="text_4">
      <!-- 3.0 -->
      <g style="fill:#262626;" transform="translate(278.496658 459.257422)scale(0.165 -0.165)">
       <defs>
        <path d="M 2597 2516 
Q 3050 2419 3304 2112 
Q 3559 1806 3559 1356 
Q 3559 666 3084 287 
Q 2609 -91 1734 -91 
Q 1441 -91 1130 -33 
Q 819 25 488 141 
L 488 750 
Q 750 597 1062 519 
Q 1375 441 1716 441 
Q 2309 441 2620 675 
Q 2931 909 2931 1356 
Q 2931 1769 2642 2001 
Q 2353 2234 1838 2234 
L 1294 2234 
L 1294 2753 
L 1863 2753 
Q 2328 2753 2575 2939 
Q 2822 3125 2822 3475 
Q 2822 3834 2567 4026 
Q 2313 4219 1838 4219 
Q 1578 4219 1281 4162 
Q 984 4106 628 3988 
L 628 4550 
Q 988 4650 1302 4700 
Q 1616 4750 1894 4750 
Q 2613 4750 3031 4423 
Q 3450 4097 3450 3541 
Q 3450 3153 3228 2886 
Q 3006 2619 2597 2516 
z
" id="DejaVuSans-33" transform="scale(0.015625)"/>
       </defs>
       <use xlink:href="#DejaVuSans-33"/>
       <use x="63.623047" xlink:href="#DejaVuSans-2e"/>
       <use x="95.410156" xlink:href="#DejaVuSans-30"/>
      </g>
     </g>
    </g>
    <g id="xtick_5">
     <g id="text_5">
      <!-- 3.5 -->
      <g style="fill:#262626;" transform="translate(342.516371 459.257422)scale(0.165 -0.165)">
       <use xlink:href="#DejaVuSans-33"/>
       <use x="63.623047" xlink:href="#DejaVuSans-2e"/>
       <use x="95.410156" xlink:href="#DejaVuSans-35"/>
      </g>
     </g>
    </g>
    <g id="xtick_6">
     <g id="text_6">
      <!-- 4.0 -->
      <g style="fill:#262626;" transform="translate(406.536084 459.257422)scale(0.165 -0.165)">
       <defs>
        <path d="M 2419 4116 
L 825 1625 
L 2419 1625 
L 2419 4116 
z
M 2253 4666 
L 3047 4666 
L 3047 1625 
L 3713 1625 
L 3713 1100 
L 3047 1100 
L 3047 0 
L 2419 0 
L 2419 1100 
L 313 1100 
L 313 1709 
L 2253 4666 
z
" id="DejaVuSans-34" transform="scale(0.015625)"/>
       </defs>
       <use xlink:href="#DejaVuSans-34"/>
       <use x="63.623047" xlink:href="#DejaVuSans-2e"/>
       <use x="95.410156" xlink:href="#DejaVuSans-30"/>
      </g>
     </g>
    </g>
    <g id="xtick_7">
     <g id="text_7">
      <!-- 4.5 -->
      <g style="fill:#262626;" transform="translate(470.555797 459.257422)scale(0.165 -0.165)">
       <use xlink:href="#DejaVuSans-34"/>
       <use x="63.623047" xlink:href="#DejaVuSans-2e"/>
       <use x="95.410156" xlink:href="#DejaVuSans-35"/>
      </g>
     </g>
    </g>
    <g id="xtick_8">
     <g id="text_8">
      <!-- 5.0 -->
      <g style="fill:#262626;" transform="translate(534.57551 459.257422)scale(0.165 -0.165)">
       <use xlink:href="#DejaVuSans-35"/>
       <use x="63.623047" xlink:href="#DejaVuSans-2e"/>
       <use x="95.410156" xlink:href="#DejaVuSans-30"/>
      </g>
     </g>
    </g>
    <g id="text_9">
     <!-- Human ratings (euclidean distance) -->
     <g style="fill:#262626;" transform="translate(161.846719 480.366094)scale(0.18 -0.18)">
      <defs>
       <path d="M 628 4666 
L 1259 4666 
L 1259 2753 
L 3553 2753 
L 3553 4666 
L 4184 4666 
L 4184 0 
L 3553 0 
L 3553 2222 
L 1259 2222 
L 1259 0 
L 628 0 
L 628 4666 
z
" id="DejaVuSans-48" transform="scale(0.015625)"/>
       <path d="M 544 1381 
L 544 3500 
L 1119 3500 
L 1119 1403 
Q 1119 906 1312 657 
Q 1506 409 1894 409 
Q 2359 409 2629 706 
Q 2900 1003 2900 1516 
L 2900 3500 
L 3475 3500 
L 3475 0 
L 2900 0 
L 2900 538 
Q 2691 219 2414 64 
Q 2138 -91 1772 -91 
Q 1169 -91 856 284 
Q 544 659 544 1381 
z
M 1991 3584 
L 1991 3584 
z
" id="DejaVuSans-75" transform="scale(0.015625)"/>
       <path d="M 3328 2828 
Q 3544 3216 3844 3400 
Q 4144 3584 4550 3584 
Q 5097 3584 5394 3201 
Q 5691 2819 5691 2113 
L 5691 0 
L 5113 0 
L 5113 2094 
Q 5113 2597 4934 2840 
Q 4756 3084 4391 3084 
Q 3944 3084 3684 2787 
Q 3425 2491 3425 1978 
L 3425 0 
L 2847 0 
L 2847 2094 
Q 2847 2600 2669 2842 
Q 2491 3084 2119 3084 
Q 1678 3084 1418 2786 
Q 1159 2488 1159 1978 
L 1159 0 
L 581 0 
L 581 3500 
L 1159 3500 
L 1159 2956 
Q 1356 3278 1631 3431 
Q 1906 3584 2284 3584 
Q 2666 3584 2933 3390 
Q 3200 3197 3328 2828 
z
" id="DejaVuSans-6d" transform="scale(0.015625)"/>
       <path d="M 2194 1759 
Q 1497 1759 1228 1600 
Q 959 1441 959 1056 
Q 959 750 1161 570 
Q 1363 391 1709 391 
Q 2188 391 2477 730 
Q 2766 1069 2766 1631 
L 2766 1759 
L 2194 1759 
z
M 3341 1997 
L 3341 0 
L 2766 0 
L 2766 531 
Q 2569 213 2275 61 
Q 1981 -91 1556 -91 
Q 1019 -91 701 211 
Q 384 513 384 1019 
Q 384 1609 779 1909 
Q 1175 2209 1959 2209 
L 2766 2209 
L 2766 2266 
Q 2766 2663 2505 2880 
Q 2244 3097 1772 3097 
Q 1472 3097 1187 3025 
Q 903 2953 641 2809 
L 641 3341 
Q 956 3463 1253 3523 
Q 1550 3584 1831 3584 
Q 2591 3584 2966 3190 
Q 3341 2797 3341 1997 
z
" id="DejaVuSans-61" transform="scale(0.015625)"/>
       <path d="M 3513 2113 
L 3513 0 
L 2938 0 
L 2938 2094 
Q 2938 2591 2744 2837 
Q 2550 3084 2163 3084 
Q 1697 3084 1428 2787 
Q 1159 2491 1159 1978 
L 1159 0 
L 581 0 
L 581 3500 
L 1159 3500 
L 1159 2956 
Q 1366 3272 1645 3428 
Q 1925 3584 2291 3584 
Q 2894 3584 3203 3211 
Q 3513 2838 3513 2113 
z
" id="DejaVuSans-6e" transform="scale(0.015625)"/>
       <path id="DejaVuSans-20" transform="scale(0.015625)"/>
       <path d="M 2631 2963 
Q 2534 3019 2420 3045 
Q 2306 3072 2169 3072 
Q 1681 3072 1420 2755 
Q 1159 2438 1159 1844 
L 1159 0 
L 581 0 
L 581 3500 
L 1159 3500 
L 1159 2956 
Q 1341 3275 1631 3429 
Q 1922 3584 2338 3584 
Q 2397 3584 2469 3576 
Q 2541 3569 2628 3553 
L 2631 2963 
z
" id="DejaVuSans-72" transform="scale(0.015625)"/>
       <path d="M 1172 4494 
L 1172 3500 
L 2356 3500 
L 2356 3053 
L 1172 3053 
L 1172 1153 
Q 1172 725 1289 603 
Q 1406 481 1766 481 
L 2356 481 
L 2356 0 
L 1766 0 
Q 1100 0 847 248 
Q 594 497 594 1153 
L 594 3053 
L 172 3053 
L 172 3500 
L 594 3500 
L 594 4494 
L 1172 4494 
z
" id="DejaVuSans-74" transform="scale(0.015625)"/>
       <path d="M 603 3500 
L 1178 3500 
L 1178 0 
L 603 0 
L 603 3500 
z
M 603 4863 
L 1178 4863 
L 1178 4134 
L 603 4134 
L 603 4863 
z
" id="DejaVuSans-69" transform="scale(0.015625)"/>
       <path d="M 2906 1791 
Q 2906 2416 2648 2759 
Q 2391 3103 1925 3103 
Q 1463 3103 1205 2759 
Q 947 2416 947 1791 
Q 947 1169 1205 825 
Q 1463 481 1925 481 
Q 2391 481 2648 825 
Q 2906 1169 2906 1791 
z
M 3481 434 
Q 3481 -459 3084 -895 
Q 2688 -1331 1869 -1331 
Q 1566 -1331 1297 -1286 
Q 1028 -1241 775 -1147 
L 775 -588 
Q 1028 -725 1275 -790 
Q 1522 -856 1778 -856 
Q 2344 -856 2625 -561 
Q 2906 -266 2906 331 
L 2906 616 
Q 2728 306 2450 153 
Q 2172 0 1784 0 
Q 1141 0 747 490 
Q 353 981 353 1791 
Q 353 2603 747 3093 
Q 1141 3584 1784 3584 
Q 2172 3584 2450 3431 
Q 2728 3278 2906 2969 
L 2906 3500 
L 3481 3500 
L 3481 434 
z
" id="DejaVuSans-67" transform="scale(0.015625)"/>
       <path d="M 2834 3397 
L 2834 2853 
Q 2591 2978 2328 3040 
Q 2066 3103 1784 3103 
Q 1356 3103 1142 2972 
Q 928 2841 928 2578 
Q 928 2378 1081 2264 
Q 1234 2150 1697 2047 
L 1894 2003 
Q 2506 1872 2764 1633 
Q 3022 1394 3022 966 
Q 3022 478 2636 193 
Q 2250 -91 1575 -91 
Q 1294 -91 989 -36 
Q 684 19 347 128 
L 347 722 
Q 666 556 975 473 
Q 1284 391 1588 391 
Q 1994 391 2212 530 
Q 2431 669 2431 922 
Q 2431 1156 2273 1281 
Q 2116 1406 1581 1522 
L 1381 1569 
Q 847 1681 609 1914 
Q 372 2147 372 2553 
Q 372 3047 722 3315 
Q 1072 3584 1716 3584 
Q 2034 3584 2315 3537 
Q 2597 3491 2834 3397 
z
" id="DejaVuSans-73" transform="scale(0.015625)"/>
       <path d="M 1984 4856 
Q 1566 4138 1362 3434 
Q 1159 2731 1159 2009 
Q 1159 1288 1364 580 
Q 1569 -128 1984 -844 
L 1484 -844 
Q 1016 -109 783 600 
Q 550 1309 550 2009 
Q 550 2706 781 3412 
Q 1013 4119 1484 4856 
L 1984 4856 
z
" id="DejaVuSans-28" transform="scale(0.015625)"/>
       <path d="M 3597 1894 
L 3597 1613 
L 953 1613 
Q 991 1019 1311 708 
Q 1631 397 2203 397 
Q 2534 397 2845 478 
Q 3156 559 3463 722 
L 3463 178 
Q 3153 47 2828 -22 
Q 2503 -91 2169 -91 
Q 1331 -91 842 396 
Q 353 884 353 1716 
Q 353 2575 817 3079 
Q 1281 3584 2069 3584 
Q 2775 3584 3186 3129 
Q 3597 2675 3597 1894 
z
M 3022 2063 
Q 3016 2534 2758 2815 
Q 2500 3097 2075 3097 
Q 1594 3097 1305 2825 
Q 1016 2553 972 2059 
L 3022 2063 
z
" id="DejaVuSans-65" transform="scale(0.015625)"/>
       <path d="M 3122 3366 
L 3122 2828 
Q 2878 2963 2633 3030 
Q 2388 3097 2138 3097 
Q 1578 3097 1268 2742 
Q 959 2388 959 1747 
Q 959 1106 1268 751 
Q 1578 397 2138 397 
Q 2388 397 2633 464 
Q 2878 531 3122 666 
L 3122 134 
Q 2881 22 2623 -34 
Q 2366 -91 2075 -91 
Q 1284 -91 818 406 
Q 353 903 353 1747 
Q 353 2603 823 3093 
Q 1294 3584 2113 3584 
Q 2378 3584 2631 3529 
Q 2884 3475 3122 3366 
z
" id="DejaVuSans-63" transform="scale(0.015625)"/>
       <path d="M 603 4863 
L 1178 4863 
L 1178 0 
L 603 0 
L 603 4863 
z
" id="DejaVuSans-6c" transform="scale(0.015625)"/>
       <path d="M 2906 2969 
L 2906 4863 
L 3481 4863 
L 3481 0 
L 2906 0 
L 2906 525 
Q 2725 213 2448 61 
Q 2172 -91 1784 -91 
Q 1150 -91 751 415 
Q 353 922 353 1747 
Q 353 2572 751 3078 
Q 1150 3584 1784 3584 
Q 2172 3584 2448 3432 
Q 2725 3281 2906 2969 
z
M 947 1747 
Q 947 1113 1208 752 
Q 1469 391 1925 391 
Q 2381 391 2643 752 
Q 2906 1113 2906 1747 
Q 2906 2381 2643 2742 
Q 2381 3103 1925 3103 
Q 1469 3103 1208 2742 
Q 947 2381 947 1747 
z
" id="DejaVuSans-64" transform="scale(0.015625)"/>
       <path d="M 513 4856 
L 1013 4856 
Q 1481 4119 1714 3412 
Q 1947 2706 1947 2009 
Q 1947 1309 1714 600 
Q 1481 -109 1013 -844 
L 513 -844 
Q 928 -128 1133 580 
Q 1338 1288 1338 2009 
Q 1338 2731 1133 3434 
Q 928 4138 513 4856 
z
" id="DejaVuSans-29" transform="scale(0.015625)"/>
      </defs>
      <use xlink:href="#DejaVuSans-48"/>
      <use x="75.195312" xlink:href="#DejaVuSans-75"/>
      <use x="138.574219" xlink:href="#DejaVuSans-6d"/>
      <use x="235.986328" xlink:href="#DejaVuSans-61"/>
      <use x="297.265625" xlink:href="#DejaVuSans-6e"/>
      <use x="360.644531" xlink:href="#DejaVuSans-20"/>
      <use x="392.431641" xlink:href="#DejaVuSans-72"/>
      <use x="433.544922" xlink:href="#DejaVuSans-61"/>
      <use x="494.824219" xlink:href="#DejaVuSans-74"/>
      <use x="534.033203" xlink:href="#DejaVuSans-69"/>
      <use x="561.816406" xlink:href="#DejaVuSans-6e"/>
      <use x="625.195312" xlink:href="#DejaVuSans-67"/>
      <use x="688.671875" xlink:href="#DejaVuSans-73"/>
      <use x="740.771484" xlink:href="#DejaVuSans-20"/>
      <use x="772.558594" xlink:href="#DejaVuSans-28"/>
      <use x="811.572266" xlink:href="#DejaVuSans-65"/>
      <use x="873.095703" xlink:href="#DejaVuSans-75"/>
      <use x="936.474609" xlink:href="#DejaVuSans-63"/>
      <use x="991.455078" xlink:href="#DejaVuSans-6c"/>
      <use x="1019.238281" xlink:href="#DejaVuSans-69"/>
      <use x="1047.021484" xlink:href="#DejaVuSans-64"/>
      <use x="1110.498047" xlink:href="#DejaVuSans-65"/>
      <use x="1172.021484" xlink:href="#DejaVuSans-61"/>
      <use x="1233.300781" xlink:href="#DejaVuSans-6e"/>
      <use x="1296.679688" xlink:href="#DejaVuSans-20"/>
      <use x="1328.466797" xlink:href="#DejaVuSans-64"/>
      <use x="1391.943359" xlink:href="#DejaVuSans-69"/>
      <use x="1419.726562" xlink:href="#DejaVuSans-73"/>
      <use x="1471.826172" xlink:href="#DejaVuSans-74"/>
      <use x="1511.035156" xlink:href="#DejaVuSans-61"/>
      <use x="1572.314453" xlink:href="#DejaVuSans-6e"/>
      <use x="1635.693359" xlink:href="#DejaVuSans-63"/>
      <use x="1690.673828" xlink:href="#DejaVuSans-65"/>
      <use x="1752.197266" xlink:href="#DejaVuSans-29"/>
     </g>
    </g>
   </g>
   <g id="matplotlib.axis_2">
    <g id="ytick_1">
     <g id="text_10">
      <!-- 0 -->
      <g style="fill:#262626;" transform="translate(40.751875 434.770552)scale(0.165 -0.165)">
       <use xlink:href="#DejaVuSans-30"/>
      </g>
     </g>
    </g>
    <g id="ytick_2">
     <g id="text_11">
      <!-- 1 -->
      <g style="fill:#262626;" transform="translate(40.751875 349.517288)scale(0.165 -0.165)">
       <use xlink:href="#DejaVuSans-31"/>
      </g>
     </g>
    </g>
    <g id="ytick_3">
     <g id="text_12">
      <!-- 2 -->
      <g style="fill:#262626;" transform="translate(40.751875 264.264024)scale(0.165 -0.165)">
       <use xlink:href="#DejaVuSans-32"/>
      </g>
     </g>
    </g>
    <g id="ytick_4">
     <g id="text_13">
      <!-- 3 -->
      <g style="fill:#262626;" transform="translate(40.751875 179.01076)scale(0.165 -0.165)">
       <use xlink:href="#DejaVuSans-33"/>
      </g>
     </g>
    </g>
    <g id="ytick_5">
     <g id="text_14">
      <!-- 4 -->
      <g style="fill:#262626;" transform="translate(40.751875 93.757496)scale(0.165 -0.165)">
       <use xlink:href="#DejaVuSans-34"/>
      </g>
     </g>
    </g>
    <g id="text_15">
     <!-- Fasttext 2D space (euclidean distance) -->
     <g style="fill:#262626;" transform="translate(33.008437 403.502344)rotate(-90)scale(0.18 -0.18)">
      <defs>
       <path d="M 628 4666 
L 3309 4666 
L 3309 4134 
L 1259 4134 
L 1259 2759 
L 3109 2759 
L 3109 2228 
L 1259 2228 
L 1259 0 
L 628 0 
L 628 4666 
z
" id="DejaVuSans-46" transform="scale(0.015625)"/>
       <path d="M 3513 3500 
L 2247 1797 
L 3578 0 
L 2900 0 
L 1881 1375 
L 863 0 
L 184 0 
L 1544 1831 
L 300 3500 
L 978 3500 
L 1906 2253 
L 2834 3500 
L 3513 3500 
z
" id="DejaVuSans-78" transform="scale(0.015625)"/>
       <path d="M 1259 4147 
L 1259 519 
L 2022 519 
Q 2988 519 3436 956 
Q 3884 1394 3884 2338 
Q 3884 3275 3436 3711 
Q 2988 4147 2022 4147 
L 1259 4147 
z
M 628 4666 
L 1925 4666 
Q 3281 4666 3915 4102 
Q 4550 3538 4550 2338 
Q 4550 1131 3912 565 
Q 3275 0 1925 0 
L 628 0 
L 628 4666 
z
" id="DejaVuSans-44" transform="scale(0.015625)"/>
       <path d="M 1159 525 
L 1159 -1331 
L 581 -1331 
L 581 3500 
L 1159 3500 
L 1159 2969 
Q 1341 3281 1617 3432 
Q 1894 3584 2278 3584 
Q 2916 3584 3314 3078 
Q 3713 2572 3713 1747 
Q 3713 922 3314 415 
Q 2916 -91 2278 -91 
Q 1894 -91 1617 61 
Q 1341 213 1159 525 
z
M 3116 1747 
Q 3116 2381 2855 2742 
Q 2594 3103 2138 3103 
Q 1681 3103 1420 2742 
Q 1159 2381 1159 1747 
Q 1159 1113 1420 752 
Q 1681 391 2138 391 
Q 2594 391 2855 752 
Q 3116 1113 3116 1747 
z
" id="DejaVuSans-70" transform="scale(0.015625)"/>
      </defs>
      <use xlink:href="#DejaVuSans-46"/>
      <use x="48.394531" xlink:href="#DejaVuSans-61"/>
      <use x="109.673828" xlink:href="#DejaVuSans-73"/>
      <use x="161.773438" xlink:href="#DejaVuSans-74"/>
      <use x="200.982422" xlink:href="#DejaVuSans-74"/>
      <use x="240.191406" xlink:href="#DejaVuSans-65"/>
      <use x="299.964844" xlink:href="#DejaVuSans-78"/>
      <use x="359.144531" xlink:href="#DejaVuSans-74"/>
      <use x="398.353516" xlink:href="#DejaVuSans-20"/>
      <use x="430.140625" xlink:href="#DejaVuSans-32"/>
      <use x="493.763672" xlink:href="#DejaVuSans-44"/>
      <use x="570.765625" xlink:href="#DejaVuSans-20"/>
      <use x="602.552734" xlink:href="#DejaVuSans-73"/>
      <use x="654.652344" xlink:href="#DejaVuSans-70"/>
      <use x="718.128906" xlink:href="#DejaVuSans-61"/>
      <use x="779.408203" xlink:href="#DejaVuSans-63"/>
      <use x="834.388672" xlink:href="#DejaVuSans-65"/>
      <use x="895.912109" xlink:href="#DejaVuSans-20"/>
      <use x="927.699219" xlink:href="#DejaVuSans-28"/>
      <use x="966.712891" xlink:href="#DejaVuSans-65"/>
      <use x="1028.236328" xlink:href="#DejaVuSans-75"/>
      <use x="1091.615234" xlink:href="#DejaVuSans-63"/>
      <use x="1146.595703" xlink:href="#DejaVuSans-6c"/>
      <use x="1174.378906" xlink:href="#DejaVuSans-69"/>
      <use x="1202.162109" xlink:href="#DejaVuSans-64"/>
      <use x="1265.638672" xlink:href="#DejaVuSans-65"/>
      <use x="1327.162109" xlink:href="#DejaVuSans-61"/>
      <use x="1388.441406" xlink:href="#DejaVuSans-6e"/>
      <use x="1451.820312" xlink:href="#DejaVuSans-20"/>
      <use x="1483.607422" xlink:href="#DejaVuSans-64"/>
      <use x="1547.083984" xlink:href="#DejaVuSans-69"/>
      <use x="1574.867188" xlink:href="#DejaVuSans-73"/>
      <use x="1626.966797" xlink:href="#DejaVuSans-74"/>
      <use x="1666.175781" xlink:href="#DejaVuSans-61"/>
      <use x="1727.455078" xlink:href="#DejaVuSans-6e"/>
      <use x="1790.833984" xlink:href="#DejaVuSans-63"/>
      <use x="1845.814453" xlink:href="#DejaVuSans-65"/>
      <use x="1907.337891" xlink:href="#DejaVuSans-29"/>
     </g>
    </g>
   </g>
   <g id="PathCollection_1">
    <defs>
     <path d="M 0 3.872983 
C 1.027127 3.872983 2.012324 3.464901 2.738613 2.738613 
C 3.464901 2.012324 3.872983 1.027127 3.872983 0 
C 3.872983 -1.027127 3.464901 -2.012324 2.738613 -2.738613 
C 2.012324 -3.464901 1.027127 -3.872983 0 -3.872983 
C -1.027127 -3.872983 -2.012324 -3.464901 -2.738613 -2.738613 
C -3.464901 -2.012324 -3.872983 -1.027127 -3.872983 0 
C -3.872983 1.027127 -3.464901 2.012324 -2.738613 2.738613 
C -2.012324 3.464901 -1.027127 3.872983 0 3.872983 
z
" id="m073c25590d" style="stroke:#000000;stroke-opacity:0.8;stroke-width:0.7;"/>
    </defs>
    <g clip-path="url(#p9d83c9e703)">
     <use style="fill:#4c72b0;fill-opacity:0.8;stroke:#000000;stroke-opacity:0.8;stroke-width:0.7;" x="468.51368" xlink:href="#m073c25590d" y="172.943973"/>
     <use style="fill:#4c72b0;fill-opacity:0.8;stroke:#000000;stroke-opacity:0.8;stroke-width:0.7;" x="344.143745" xlink:href="#m073c25590d" y="277.466104"/>
     <use style="fill:#4c72b0;fill-opacity:0.8;stroke:#000000;stroke-opacity:0.8;stroke-width:0.7;" x="84.595909" xlink:href="#m073c25590d" y="240.421637"/>
     <use style="fill:#4c72b0;fill-opacity:0.8;stroke:#000000;stroke-opacity:0.8;stroke-width:0.7;" x="268.187436" xlink:href="#m073c25590d" y="205.348798"/>
     <use style="fill:#4c72b0;fill-opacity:0.8;stroke:#000000;stroke-opacity:0.8;stroke-width:0.7;" x="561.514091" xlink:href="#m073c25590d" y="38.43"/>
     <use style="fill:#4c72b0;fill-opacity:0.8;stroke:#000000;stroke-opacity:0.8;stroke-width:0.7;" x="529.907405" xlink:href="#m073c25590d" y="225.964996"/>
     <use style="fill:#4c72b0;fill-opacity:0.8;stroke:#000000;stroke-opacity:0.8;stroke-width:0.7;" x="413.65558" xlink:href="#m073c25590d" y="253.541998"/>
     <use style="fill:#4c72b0;fill-opacity:0.8;stroke:#000000;stroke-opacity:0.8;stroke-width:0.7;" x="460.112658" xlink:href="#m073c25590d" y="184.208599"/>
     <use style="fill:#4c72b0;fill-opacity:0.8;stroke:#000000;stroke-opacity:0.8;stroke-width:0.7;" x="495.375072" xlink:href="#m073c25590d" y="369.257825"/>
     <use style="fill:#4c72b0;fill-opacity:0.8;stroke:#000000;stroke-opacity:0.8;stroke-width:0.7;" x="145.426101" xlink:href="#m073c25590d" y="276.274045"/>
     <use style="fill:#4c72b0;fill-opacity:0.8;stroke:#000000;stroke-opacity:0.8;stroke-width:0.7;" x="508.470743" xlink:href="#m073c25590d" y="307.552448"/>
     <use style="fill:#4c72b0;fill-opacity:0.8;stroke:#000000;stroke-opacity:0.8;stroke-width:0.7;" x="108.940828" xlink:href="#m073c25590d" y="200.435751"/>
     <use style="fill:#4c72b0;fill-opacity:0.8;stroke:#000000;stroke-opacity:0.8;stroke-width:0.7;" x="250.747144" xlink:href="#m073c25590d" y="379.87761"/>
     <use style="fill:#4c72b0;fill-opacity:0.8;stroke:#000000;stroke-opacity:0.8;stroke-width:0.7;" x="480.969861" xlink:href="#m073c25590d" y="264.798911"/>
     <use style="fill:#4c72b0;fill-opacity:0.8;stroke:#000000;stroke-opacity:0.8;stroke-width:0.7;" x="318.772859" xlink:href="#m073c25590d" y="373.976323"/>
    </g>
   </g>
   <g id="PolyCollection_1">
    <defs>
     <path d="M 84.595909 -290.088521 
L 84.595909 -85.77 
L 89.413264 -88.177558 
L 94.23062 -90.760902 
L 99.047975 -92.993379 
L 103.865331 -95.225856 
L 108.682686 -97.458333 
L 113.500041 -99.691927 
L 118.317397 -102.008779 
L 123.134752 -104.234845 
L 127.952107 -106.376793 
L 132.769463 -108.600148 
L 137.586818 -110.839905 
L 142.404174 -113.394452 
L 147.221529 -115.909889 
L 152.038884 -118.22674 
L 156.85624 -120.55633 
L 161.673595 -123.034057 
L 166.49095 -125.788208 
L 171.308306 -128.542359 
L 176.125661 -131.296511 
L 180.943017 -134.056196 
L 185.760372 -136.555158 
L 190.577727 -138.508272 
L 195.395083 -140.424111 
L 200.212438 -142.325596 
L 205.029793 -144.275924 
L 209.847149 -146.204611 
L 214.664504 -148.125124 
L 219.48186 -150.054838 
L 224.299215 -152.580585 
L 229.11657 -153.90412 
L 233.933926 -155.82249 
L 238.751281 -157.754953 
L 243.568636 -159.902069 
L 248.385992 -162.12469 
L 253.203347 -163.649226 
L 258.020702 -165.438829 
L 262.838058 -167.727607 
L 267.655413 -170.821112 
L 272.472769 -173.278139 
L 277.290124 -175.546098 
L 282.107479 -178.483436 
L 286.924835 -182.528162 
L 291.74219 -185.451524 
L 296.559545 -187.229522 
L 301.376901 -188.81726 
L 306.194256 -191.66653 
L 311.011612 -193.546949 
L 315.828967 -194.178538 
L 320.646322 -195.553093 
L 325.463678 -196.821551 
L 330.281033 -198.621206 
L 335.098388 -201.474555 
L 339.915744 -200.542051 
L 344.733099 -200.588747 
L 349.550455 -202.876051 
L 354.36781 -204.495298 
L 359.185165 -204.182864 
L 364.002521 -203.426354 
L 368.819876 -202.727042 
L 373.637231 -202.191473 
L 378.454587 -202.594391 
L 383.271942 -201.742826 
L 388.089298 -201.224688 
L 392.906653 -201.460355 
L 397.724008 -201.498685 
L 402.541364 -200.507008 
L 407.358719 -202.038578 
L 412.176074 -201.319129 
L 416.99343 -200.611782 
L 421.810785 -199.871958 
L 426.62814 -199.272434 
L 431.445496 -198.596737 
L 436.262851 -198.965362 
L 441.080207 -198.736419 
L 445.897562 -198.507475 
L 450.714917 -198.291671 
L 455.532273 -197.857098 
L 460.349628 -196.823296 
L 465.166983 -195.789494 
L 469.984339 -195.661255 
L 474.801694 -195.338213 
L 479.61905 -195.193651 
L 484.436405 -195.049089 
L 489.25376 -194.904527 
L 494.071116 -194.688525 
L 498.888471 -194.075384 
L 503.705826 -193.117808 
L 508.523182 -192.160232 
L 513.340537 -191.202655 
L 518.157893 -190.245079 
L 522.975248 -189.287503 
L 527.792603 -188.329926 
L 532.609959 -187.375975 
L 537.427314 -186.424997 
L 542.244669 -185.474019 
L 547.062025 -184.523041 
L 551.87938 -183.773827 
L 556.696736 -183.01438 
L 561.514091 -181.700445 
L 561.514091 -372.437581 
L 561.514091 -372.437581 
L 556.696736 -370.771288 
L 551.87938 -367.715097 
L 547.062025 -364.674515 
L 542.244669 -362.89028 
L 537.427314 -359.95647 
L 532.609959 -357.693019 
L 527.792603 -355.614963 
L 522.975248 -353.198302 
L 518.157893 -351.732733 
L 513.340537 -350.545579 
L 508.523182 -348.28012 
L 503.705826 -346.138715 
L 498.888471 -344.21947 
L 494.071116 -342.235537 
L 489.25376 -340.813527 
L 484.436405 -339.130064 
L 479.61905 -337.441064 
L 474.801694 -335.752064 
L 469.984339 -333.219736 
L 465.166983 -331.643589 
L 460.349628 -330.05689 
L 455.532273 -328.785548 
L 450.714917 -327.404329 
L 445.897562 -326.247633 
L 441.080207 -325.090936 
L 436.262851 -323.163128 
L 431.445496 -321.674768 
L 426.62814 -320.257652 
L 421.810785 -318.707649 
L 416.99343 -317.023699 
L 412.176074 -315.339749 
L 407.358719 -313.655799 
L 402.541364 -311.99431 
L 397.724008 -311.267332 
L 392.906653 -309.790609 
L 388.089298 -308.883812 
L 383.271942 -306.596603 
L 378.454587 -304.307458 
L 373.637231 -302.71888 
L 368.819876 -300.725319 
L 364.002521 -300.182159 
L 359.185165 -299.590115 
L 354.36781 -298.291749 
L 349.550455 -296.650056 
L 344.733099 -294.991819 
L 339.915744 -294.019142 
L 335.098388 -292.288321 
L 330.281033 -291.981132 
L 325.463678 -292.202694 
L 320.646322 -290.868598 
L 315.828967 -289.879931 
L 311.011612 -288.459501 
L 306.194256 -287.047434 
L 301.376901 -285.630558 
L 296.559545 -285.075664 
L 291.74219 -284.665217 
L 286.924835 -283.807134 
L 282.107479 -282.8691 
L 277.290124 -281.848921 
L 272.472769 -281.902395 
L 267.655413 -281.82527 
L 262.838058 -281.101275 
L 258.020702 -280.814128 
L 253.203347 -280.235287 
L 248.385992 -280.029105 
L 243.568636 -279.866618 
L 238.751281 -279.774521 
L 233.933926 -279.843812 
L 229.11657 -279.25875 
L 224.299215 -279.342776 
L 219.48186 -278.969835 
L 214.664504 -279.218213 
L 209.847149 -279.170148 
L 205.029793 -279.603434 
L 200.212438 -279.867082 
L 195.395083 -280.344687 
L 190.577727 -280.811576 
L 185.760372 -281.058541 
L 180.943017 -281.199385 
L 176.125661 -280.92561 
L 171.308306 -281.554133 
L 166.49095 -281.953914 
L 161.673595 -282.18843 
L 156.85624 -282.309326 
L 152.038884 -282.620264 
L 147.221529 -282.848278 
L 142.404174 -283.153887 
L 137.586818 -283.883063 
L 132.769463 -284.293595 
L 127.952107 -284.849821 
L 123.134752 -285.746821 
L 118.317397 -286.096084 
L 113.500041 -286.35335 
L 108.682686 -286.576104 
L 103.865331 -287.248327 
L 99.047975 -287.921134 
L 94.23062 -288.669614 
L 89.413264 -289.383233 
L 84.595909 -290.088521 
z
" id="md25c4f6a4c" style="stroke:#ffffff;stroke-opacity:0.15;"/>
    </defs>
    <g clip-path="url(#p9d83c9e703)">
     <use style="fill:#4c72b0;fill-opacity:0.15;stroke:#ffffff;stroke-opacity:0.15;" x="0" xlink:href="#md25c4f6a4c" y="504"/>
    </g>
   </g>
   <g id="line2d_1">
    <path clip-path="url(#p9d83c9e703)" d="M 84.595909 276.165572 
L 89.413264 275.831949 
L 94.23062 275.498326 
L 99.047975 275.164703 
L 103.865331 274.831079 
L 108.682686 274.497456 
L 113.500041 274.163833 
L 118.317397 273.83021 
L 123.134752 273.496587 
L 127.952107 273.162964 
L 132.769463 272.829341 
L 137.586818 272.495718 
L 142.404174 272.162095 
L 147.221529 271.828472 
L 152.038884 271.494849 
L 156.85624 271.161225 
L 161.673595 270.827602 
L 166.49095 270.493979 
L 171.308306 270.160356 
L 176.125661 269.826733 
L 180.943017 269.49311 
L 185.760372 269.159487 
L 190.577727 268.825864 
L 195.395083 268.492241 
L 200.212438 268.158618 
L 205.029793 267.824995 
L 209.847149 267.491372 
L 214.664504 267.157748 
L 219.48186 266.824125 
L 224.299215 266.490502 
L 229.11657 266.156879 
L 233.933926 265.823256 
L 238.751281 265.489633 
L 243.568636 265.15601 
L 248.385992 264.822387 
L 253.203347 264.488764 
L 258.020702 264.155141 
L 262.838058 263.821518 
L 267.655413 263.487894 
L 272.472769 263.154271 
L 277.290124 262.820648 
L 282.107479 262.487025 
L 286.924835 262.153402 
L 291.74219 261.819779 
L 296.559545 261.486156 
L 301.376901 261.152533 
L 306.194256 260.81891 
L 311.011612 260.485287 
L 315.828967 260.151664 
L 320.646322 259.81804 
L 325.463678 259.484417 
L 330.281033 259.150794 
L 335.098388 258.817171 
L 339.915744 258.483548 
L 344.733099 258.149925 
L 349.550455 257.816302 
L 354.36781 257.482679 
L 359.185165 257.149056 
L 364.002521 256.815433 
L 368.819876 256.48181 
L 373.637231 256.148187 
L 378.454587 255.814563 
L 383.271942 255.48094 
L 388.089298 255.147317 
L 392.906653 254.813694 
L 397.724008 254.480071 
L 402.541364 254.146448 
L 407.358719 253.812825 
L 412.176074 253.479202 
L 416.99343 253.145579 
L 421.810785 252.811956 
L 426.62814 252.478333 
L 431.445496 252.144709 
L 436.262851 251.811086 
L 441.080207 251.477463 
L 445.897562 251.14384 
L 450.714917 250.810217 
L 455.532273 250.476594 
L 460.349628 250.142971 
L 465.166983 249.809348 
L 469.984339 249.475725 
L 474.801694 249.142102 
L 479.61905 248.808479 
L 484.436405 248.474855 
L 489.25376 248.141232 
L 494.071116 247.807609 
L 498.888471 247.473986 
L 503.705826 247.140363 
L 508.523182 246.80674 
L 513.340537 246.473117 
L 518.157893 246.139494 
L 522.975248 245.805871 
L 527.792603 245.472248 
L 532.609959 245.138625 
L 537.427314 244.805002 
L 542.244669 244.471378 
L 547.062025 244.137755 
L 551.87938 243.804132 
L 556.696736 243.470509 
L 561.514091 243.136886 
" style="fill:none;stroke:#4c72b0;stroke-linecap:round;stroke-width:2.25;"/>
   </g>
   <g id="patch_3">
    <path d="M 60.75 437.22 
L 60.75 19.44 
" style="fill:none;stroke:#262626;stroke-linecap:square;stroke-linejoin:miter;stroke-width:1.25;"/>
   </g>
   <g id="patch_4">
    <path d="M 60.75 437.22 
L 585.36 437.22 
" style="fill:none;stroke:#262626;stroke-linecap:square;stroke-linejoin:miter;stroke-width:1.25;"/>
   </g>
   <g id="text_16">
    <!-- Human ratings ~ Fasttext 2D space -->
    <g style="fill:#262626;" transform="translate(162.493594 13.44)scale(0.18 -0.18)">
     <defs>
      <path d="M 4684 2553 
L 4684 1997 
Q 4356 1750 4076 1644 
Q 3797 1538 3494 1538 
Q 3150 1538 2694 1722 
Q 2659 1734 2644 1741 
Q 2622 1750 2575 1766 
Q 2091 1959 1797 1959 
Q 1522 1959 1253 1839 
Q 984 1719 678 1459 
L 678 2016 
Q 1006 2263 1286 2370 
Q 1566 2478 1869 2478 
Q 2213 2478 2672 2291 
Q 2703 2278 2719 2272 
Q 2744 2263 2788 2247 
Q 3272 2053 3566 2053 
Q 3834 2053 4098 2172 
Q 4363 2291 4684 2553 
z
" id="DejaVuSans-7e" transform="scale(0.015625)"/>
     </defs>
     <use xlink:href="#DejaVuSans-48"/>
     <use x="75.195312" xlink:href="#DejaVuSans-75"/>
     <use x="138.574219" xlink:href="#DejaVuSans-6d"/>
     <use x="235.986328" xlink:href="#DejaVuSans-61"/>
     <use x="297.265625" xlink:href="#DejaVuSans-6e"/>
     <use x="360.644531" xlink:href="#DejaVuSans-20"/>
     <use x="392.431641" xlink:href="#DejaVuSans-72"/>
     <use x="433.544922" xlink:href="#DejaVuSans-61"/>
     <use x="494.824219" xlink:href="#DejaVuSans-74"/>
     <use x="534.033203" xlink:href="#DejaVuSans-69"/>
     <use x="561.816406" xlink:href="#DejaVuSans-6e"/>
     <use x="625.195312" xlink:href="#DejaVuSans-67"/>
     <use x="688.671875" xlink:href="#DejaVuSans-73"/>
     <use x="740.771484" xlink:href="#DejaVuSans-20"/>
     <use x="772.558594" xlink:href="#DejaVuSans-7e"/>
     <use x="856.347656" xlink:href="#DejaVuSans-20"/>
     <use x="888.134766" xlink:href="#DejaVuSans-46"/>
     <use x="936.529297" xlink:href="#DejaVuSans-61"/>
     <use x="997.808594" xlink:href="#DejaVuSans-73"/>
     <use x="1049.908203" xlink:href="#DejaVuSans-74"/>
     <use x="1089.117188" xlink:href="#DejaVuSans-74"/>
     <use x="1128.326172" xlink:href="#DejaVuSans-65"/>
     <use x="1188.099609" xlink:href="#DejaVuSans-78"/>
     <use x="1247.279297" xlink:href="#DejaVuSans-74"/>
     <use x="1286.488281" xlink:href="#DejaVuSans-20"/>
     <use x="1318.275391" xlink:href="#DejaVuSans-32"/>
     <use x="1381.898438" xlink:href="#DejaVuSans-44"/>
     <use x="1458.900391" xlink:href="#DejaVuSans-20"/>
     <use x="1490.6875" xlink:href="#DejaVuSans-73"/>
     <use x="1542.787109" xlink:href="#DejaVuSans-70"/>
     <use x="1606.263672" xlink:href="#DejaVuSans-61"/>
     <use x="1667.542969" xlink:href="#DejaVuSans-63"/>
     <use x="1722.523438" xlink:href="#DejaVuSans-65"/>
    </g>
   </g>
  </g>
  <g id="text_17">
   <!-- r =  0.171 -->
   <g style="fill:#262626;" transform="translate(247.694625 56.732625)scale(0.216 -0.216)">
    <defs>
     <path d="M 678 2906 
L 4684 2906 
L 4684 2381 
L 678 2381 
L 678 2906 
z
M 678 1631 
L 4684 1631 
L 4684 1100 
L 678 1100 
L 678 1631 
z
" id="DejaVuSans-3d" transform="scale(0.015625)"/>
     <path d="M 525 4666 
L 3525 4666 
L 3525 4397 
L 1831 0 
L 1172 0 
L 2766 4134 
L 525 4134 
L 525 4666 
z
" id="DejaVuSans-37" transform="scale(0.015625)"/>
    </defs>
    <use xlink:href="#DejaVuSans-72"/>
    <use x="41.113281" xlink:href="#DejaVuSans-20"/>
    <use x="72.900391" xlink:href="#DejaVuSans-3d"/>
    <use x="156.689453" xlink:href="#DejaVuSans-20"/>
    <use x="188.476562" xlink:href="#DejaVuSans-20"/>
    <use x="220.263672" xlink:href="#DejaVuSans-30"/>
    <use x="283.886719" xlink:href="#DejaVuSans-2e"/>
    <use x="315.673828" xlink:href="#DejaVuSans-31"/>
    <use x="379.296875" xlink:href="#DejaVuSans-37"/>
    <use x="442.919922" xlink:href="#DejaVuSans-31"/>
   </g>
  </g>
 </g>
 <defs>
  <clipPath id="p9d83c9e703">
   <rect height="417.78" width="524.61" x="60.75" y="19.44"/>
  </clipPath>
 </defs>
</svg>
