<?xml version="1.0" encoding="utf-8" standalone="no"?>
<!DOCTYPE svg PUBLIC "-//W3C//DTD SVG 1.1//EN"
  "http://www.w3.org/Graphics/SVG/1.1/DTD/svg11.dtd">
<svg height="504pt" version="1.1" viewBox="0 0 604.8 504" width="604.8pt" xmlns="http://www.w3.org/2000/svg" xmlns:xlink="http://www.w3.org/1999/xlink">
 <metadata>
  <rdf:RDF xmlns:cc="http://creativecommons.org/ns#" xmlns:dc="http://purl.org/dc/elements/1.1/" xmlns:rdf="http://www.w3.org/1999/02/22-rdf-syntax-ns#">
   <cc:Work>
    <dc:type rdf:resource="http://purl.org/dc/dcmitype/StillImage"/>
    <dc:date>2023-07-25T10:28:32.983340</dc:date>
    <dc:format>image/svg+xml</dc:format>
    <dc:creator>
     <cc:Agent>
      <dc:title>Matplotlib v3.4.3, https://matplotlib.org/</dc:title>
     </cc:Agent>
    </dc:creator>
   </cc:Work>
  </rdf:RDF>
 </metadata>
 <defs>
  <style type="text/css">*{stroke-linecap:butt;stroke-linejoin:round;}</style>
 </defs>
 <g id="figure_1">
  <g id="patch_1">
   <path d="M 0 504 
L 604.8 504 
L 604.8 0 
L 0 0 
z
" style="fill:#ffffff;"/>
  </g>
  <g id="axes_1">
   <g id="patch_2">
    <path d="M 87.12 437.22 
L 585.36 437.22 
L 585.36 19.44 
L 87.12 19.44 
z
" style="fill:#ffffff;"/>
   </g>
   <g id="matplotlib.axis_1">
    <g id="xtick_1">
     <g id="text_1">
      <!-- 1.5 -->
      <g style="fill:#262626;" transform="translate(110.85682 459.257422)scale(0.165 -0.165)">
       <defs>
        <path d="M 794 531 
L 1825 531 
L 1825 4091 
L 703 3866 
L 703 4441 
L 1819 4666 
L 2450 4666 
L 2450 531 
L 3481 531 
L 3481 0 
L 794 0 
L 794 531 
z
" id="DejaVuSans-31" transform="scale(0.015625)"/>
        <path d="M 684 794 
L 1344 794 
L 1344 0 
L 684 0 
L 684 794 
z
" id="DejaVuSans-2e" transform="scale(0.015625)"/>
        <path d="M 691 4666 
L 3169 4666 
L 3169 4134 
L 1269 4134 
L 1269 2991 
Q 1406 3038 1543 3061 
Q 1681 3084 1819 3084 
Q 2600 3084 3056 2656 
Q 3513 2228 3513 1497 
Q 3513 744 3044 326 
Q 2575 -91 1722 -91 
Q 1428 -91 1123 -41 
Q 819 9 494 109 
L 494 744 
Q 775 591 1075 516 
Q 1375 441 1709 441 
Q 2250 441 2565 725 
Q 2881 1009 2881 1497 
Q 2881 1984 2565 2268 
Q 2250 2553 1709 2553 
Q 1456 2553 1204 2497 
Q 953 2441 691 2322 
L 691 4666 
z
" id="DejaVuSans-35" transform="scale(0.015625)"/>
       </defs>
       <use xlink:href="#DejaVuSans-31"/>
       <use x="63.623047" xlink:href="#DejaVuSans-2e"/>
       <use x="95.410156" xlink:href="#DejaVuSans-35"/>
      </g>
     </g>
    </g>
    <g id="xtick_2">
     <g id="text_2">
      <!-- 2.0 -->
      <g style="fill:#262626;" transform="translate(171.658524 459.257422)scale(0.165 -0.165)">
       <defs>
        <path d="M 1228 531 
L 3431 531 
L 3431 0 
L 469 0 
L 469 531 
Q 828 903 1448 1529 
Q 2069 2156 2228 2338 
Q 2531 2678 2651 2914 
Q 2772 3150 2772 3378 
Q 2772 3750 2511 3984 
Q 2250 4219 1831 4219 
Q 1534 4219 1204 4116 
Q 875 4013 500 3803 
L 500 4441 
Q 881 4594 1212 4672 
Q 1544 4750 1819 4750 
Q 2544 4750 2975 4387 
Q 3406 4025 3406 3419 
Q 3406 3131 3298 2873 
Q 3191 2616 2906 2266 
Q 2828 2175 2409 1742 
Q 1991 1309 1228 531 
z
" id="DejaVuSans-32" transform="scale(0.015625)"/>
        <path d="M 2034 4250 
Q 1547 4250 1301 3770 
Q 1056 3291 1056 2328 
Q 1056 1369 1301 889 
Q 1547 409 2034 409 
Q 2525 409 2770 889 
Q 3016 1369 3016 2328 
Q 3016 3291 2770 3770 
Q 2525 4250 2034 4250 
z
M 2034 4750 
Q 2819 4750 3233 4129 
Q 3647 3509 3647 2328 
Q 3647 1150 3233 529 
Q 2819 -91 2034 -91 
Q 1250 -91 836 529 
Q 422 1150 422 2328 
Q 422 3509 836 4129 
Q 1250 4750 2034 4750 
z
" id="DejaVuSans-30" transform="scale(0.015625)"/>
       </defs>
       <use xlink:href="#DejaVuSans-32"/>
       <use x="63.623047" xlink:href="#DejaVuSans-2e"/>
       <use x="95.410156" xlink:href="#DejaVuSans-30"/>
      </g>
     </g>
    </g>
    <g id="xtick_3">
     <g id="text_3">
      <!-- 2.5 -->
      <g style="fill:#262626;" transform="translate(232.460227 459.257422)scale(0.165 -0.165)">
       <use xlink:href="#DejaVuSans-32"/>
       <use x="63.623047" xlink:href="#DejaVuSans-2e"/>
       <use x="95.410156" xlink:href="#DejaVuSans-35"/>
      </g>
     </g>
    </g>
    <g id="xtick_4">
     <g id="text_4">
      <!-- 3.0 -->
      <g style="fill:#262626;" transform="translate(293.261931 459.257422)scale(0.165 -0.165)">
       <defs>
        <path d="M 2597 2516 
Q 3050 2419 3304 2112 
Q 3559 1806 3559 1356 
Q 3559 666 3084 287 
Q 2609 -91 1734 -91 
Q 1441 -91 1130 -33 
Q 819 25 488 141 
L 488 750 
Q 750 597 1062 519 
Q 1375 441 1716 441 
Q 2309 441 2620 675 
Q 2931 909 2931 1356 
Q 2931 1769 2642 2001 
Q 2353 2234 1838 2234 
L 1294 2234 
L 1294 2753 
L 1863 2753 
Q 2328 2753 2575 2939 
Q 2822 3125 2822 3475 
Q 2822 3834 2567 4026 
Q 2313 4219 1838 4219 
Q 1578 4219 1281 4162 
Q 984 4106 628 3988 
L 628 4550 
Q 988 4650 1302 4700 
Q 1616 4750 1894 4750 
Q 2613 4750 3031 4423 
Q 3450 4097 3450 3541 
Q 3450 3153 3228 2886 
Q 3006 2619 2597 2516 
z
" id="DejaVuSans-33" transform="scale(0.015625)"/>
       </defs>
       <use xlink:href="#DejaVuSans-33"/>
       <use x="63.623047" xlink:href="#DejaVuSans-2e"/>
       <use x="95.410156" xlink:href="#DejaVuSans-30"/>
      </g>
     </g>
    </g>
    <g id="xtick_5">
     <g id="text_5">
      <!-- 3.5 -->
      <g style="fill:#262626;" transform="translate(354.063635 459.257422)scale(0.165 -0.165)">
       <use xlink:href="#DejaVuSans-33"/>
       <use x="63.623047" xlink:href="#DejaVuSans-2e"/>
       <use x="95.410156" xlink:href="#DejaVuSans-35"/>
      </g>
     </g>
    </g>
    <g id="xtick_6">
     <g id="text_6">
      <!-- 4.0 -->
      <g style="fill:#262626;" transform="translate(414.865339 459.257422)scale(0.165 -0.165)">
       <defs>
        <path d="M 2419 4116 
L 825 1625 
L 2419 1625 
L 2419 4116 
z
M 2253 4666 
L 3047 4666 
L 3047 1625 
L 3713 1625 
L 3713 1100 
L 3047 1100 
L 3047 0 
L 2419 0 
L 2419 1100 
L 313 1100 
L 313 1709 
L 2253 4666 
z
" id="DejaVuSans-34" transform="scale(0.015625)"/>
       </defs>
       <use xlink:href="#DejaVuSans-34"/>
       <use x="63.623047" xlink:href="#DejaVuSans-2e"/>
       <use x="95.410156" xlink:href="#DejaVuSans-30"/>
      </g>
     </g>
    </g>
    <g id="xtick_7">
     <g id="text_7">
      <!-- 4.5 -->
      <g style="fill:#262626;" transform="translate(475.667043 459.257422)scale(0.165 -0.165)">
       <use xlink:href="#DejaVuSans-34"/>
       <use x="63.623047" xlink:href="#DejaVuSans-2e"/>
       <use x="95.410156" xlink:href="#DejaVuSans-35"/>
      </g>
     </g>
    </g>
    <g id="xtick_8">
     <g id="text_8">
      <!-- 5.0 -->
      <g style="fill:#262626;" transform="translate(536.468746 459.257422)scale(0.165 -0.165)">
       <use xlink:href="#DejaVuSans-35"/>
       <use x="63.623047" xlink:href="#DejaVuSans-2e"/>
       <use x="95.410156" xlink:href="#DejaVuSans-30"/>
      </g>
     </g>
    </g>
    <g id="text_9">
     <!-- Human ratings (euclidean distance) -->
     <g style="fill:#262626;" transform="translate(175.031719 480.366094)scale(0.18 -0.18)">
      <defs>
       <path d="M 628 4666 
L 1259 4666 
L 1259 2753 
L 3553 2753 
L 3553 4666 
L 4184 4666 
L 4184 0 
L 3553 0 
L 3553 2222 
L 1259 2222 
L 1259 0 
L 628 0 
L 628 4666 
z
" id="DejaVuSans-48" transform="scale(0.015625)"/>
       <path d="M 544 1381 
L 544 3500 
L 1119 3500 
L 1119 1403 
Q 1119 906 1312 657 
Q 1506 409 1894 409 
Q 2359 409 2629 706 
Q 2900 1003 2900 1516 
L 2900 3500 
L 3475 3500 
L 3475 0 
L 2900 0 
L 2900 538 
Q 2691 219 2414 64 
Q 2138 -91 1772 -91 
Q 1169 -91 856 284 
Q 544 659 544 1381 
z
M 1991 3584 
L 1991 3584 
z
" id="DejaVuSans-75" transform="scale(0.015625)"/>
       <path d="M 3328 2828 
Q 3544 3216 3844 3400 
Q 4144 3584 4550 3584 
Q 5097 3584 5394 3201 
Q 5691 2819 5691 2113 
L 5691 0 
L 5113 0 
L 5113 2094 
Q 5113 2597 4934 2840 
Q 4756 3084 4391 3084 
Q 3944 3084 3684 2787 
Q 3425 2491 3425 1978 
L 3425 0 
L 2847 0 
L 2847 2094 
Q 2847 2600 2669 2842 
Q 2491 3084 2119 3084 
Q 1678 3084 1418 2786 
Q 1159 2488 1159 1978 
L 1159 0 
L 581 0 
L 581 3500 
L 1159 3500 
L 1159 2956 
Q 1356 3278 1631 3431 
Q 1906 3584 2284 3584 
Q 2666 3584 2933 3390 
Q 3200 3197 3328 2828 
z
" id="DejaVuSans-6d" transform="scale(0.015625)"/>
       <path d="M 2194 1759 
Q 1497 1759 1228 1600 
Q 959 1441 959 1056 
Q 959 750 1161 570 
Q 1363 391 1709 391 
Q 2188 391 2477 730 
Q 2766 1069 2766 1631 
L 2766 1759 
L 2194 1759 
z
M 3341 1997 
L 3341 0 
L 2766 0 
L 2766 531 
Q 2569 213 2275 61 
Q 1981 -91 1556 -91 
Q 1019 -91 701 211 
Q 384 513 384 1019 
Q 384 1609 779 1909 
Q 1175 2209 1959 2209 
L 2766 2209 
L 2766 2266 
Q 2766 2663 2505 2880 
Q 2244 3097 1772 3097 
Q 1472 3097 1187 3025 
Q 903 2953 641 2809 
L 641 3341 
Q 956 3463 1253 3523 
Q 1550 3584 1831 3584 
Q 2591 3584 2966 3190 
Q 3341 2797 3341 1997 
z
" id="DejaVuSans-61" transform="scale(0.015625)"/>
       <path d="M 3513 2113 
L 3513 0 
L 2938 0 
L 2938 2094 
Q 2938 2591 2744 2837 
Q 2550 3084 2163 3084 
Q 1697 3084 1428 2787 
Q 1159 2491 1159 1978 
L 1159 0 
L 581 0 
L 581 3500 
L 1159 3500 
L 1159 2956 
Q 1366 3272 1645 3428 
Q 1925 3584 2291 3584 
Q 2894 3584 3203 3211 
Q 3513 2838 3513 2113 
z
" id="DejaVuSans-6e" transform="scale(0.015625)"/>
       <path id="DejaVuSans-20" transform="scale(0.015625)"/>
       <path d="M 2631 2963 
Q 2534 3019 2420 3045 
Q 2306 3072 2169 3072 
Q 1681 3072 1420 2755 
Q 1159 2438 1159 1844 
L 1159 0 
L 581 0 
L 581 3500 
L 1159 3500 
L 1159 2956 
Q 1341 3275 1631 3429 
Q 1922 3584 2338 3584 
Q 2397 3584 2469 3576 
Q 2541 3569 2628 3553 
L 2631 2963 
z
" id="DejaVuSans-72" transform="scale(0.015625)"/>
       <path d="M 1172 4494 
L 1172 3500 
L 2356 3500 
L 2356 3053 
L 1172 3053 
L 1172 1153 
Q 1172 725 1289 603 
Q 1406 481 1766 481 
L 2356 481 
L 2356 0 
L 1766 0 
Q 1100 0 847 248 
Q 594 497 594 1153 
L 594 3053 
L 172 3053 
L 172 3500 
L 594 3500 
L 594 4494 
L 1172 4494 
z
" id="DejaVuSans-74" transform="scale(0.015625)"/>
       <path d="M 603 3500 
L 1178 3500 
L 1178 0 
L 603 0 
L 603 3500 
z
M 603 4863 
L 1178 4863 
L 1178 4134 
L 603 4134 
L 603 4863 
z
" id="DejaVuSans-69" transform="scale(0.015625)"/>
       <path d="M 2906 1791 
Q 2906 2416 2648 2759 
Q 2391 3103 1925 3103 
Q 1463 3103 1205 2759 
Q 947 2416 947 1791 
Q 947 1169 1205 825 
Q 1463 481 1925 481 
Q 2391 481 2648 825 
Q 2906 1169 2906 1791 
z
M 3481 434 
Q 3481 -459 3084 -895 
Q 2688 -1331 1869 -1331 
Q 1566 -1331 1297 -1286 
Q 1028 -1241 775 -1147 
L 775 -588 
Q 1028 -725 1275 -790 
Q 1522 -856 1778 -856 
Q 2344 -856 2625 -561 
Q 2906 -266 2906 331 
L 2906 616 
Q 2728 306 2450 153 
Q 2172 0 1784 0 
Q 1141 0 747 490 
Q 353 981 353 1791 
Q 353 2603 747 3093 
Q 1141 3584 1784 3584 
Q 2172 3584 2450 3431 
Q 2728 3278 2906 2969 
L 2906 3500 
L 3481 3500 
L 3481 434 
z
" id="DejaVuSans-67" transform="scale(0.015625)"/>
       <path d="M 2834 3397 
L 2834 2853 
Q 2591 2978 2328 3040 
Q 2066 3103 1784 3103 
Q 1356 3103 1142 2972 
Q 928 2841 928 2578 
Q 928 2378 1081 2264 
Q 1234 2150 1697 2047 
L 1894 2003 
Q 2506 1872 2764 1633 
Q 3022 1394 3022 966 
Q 3022 478 2636 193 
Q 2250 -91 1575 -91 
Q 1294 -91 989 -36 
Q 684 19 347 128 
L 347 722 
Q 666 556 975 473 
Q 1284 391 1588 391 
Q 1994 391 2212 530 
Q 2431 669 2431 922 
Q 2431 1156 2273 1281 
Q 2116 1406 1581 1522 
L 1381 1569 
Q 847 1681 609 1914 
Q 372 2147 372 2553 
Q 372 3047 722 3315 
Q 1072 3584 1716 3584 
Q 2034 3584 2315 3537 
Q 2597 3491 2834 3397 
z
" id="DejaVuSans-73" transform="scale(0.015625)"/>
       <path d="M 1984 4856 
Q 1566 4138 1362 3434 
Q 1159 2731 1159 2009 
Q 1159 1288 1364 580 
Q 1569 -128 1984 -844 
L 1484 -844 
Q 1016 -109 783 600 
Q 550 1309 550 2009 
Q 550 2706 781 3412 
Q 1013 4119 1484 4856 
L 1984 4856 
z
" id="DejaVuSans-28" transform="scale(0.015625)"/>
       <path d="M 3597 1894 
L 3597 1613 
L 953 1613 
Q 991 1019 1311 708 
Q 1631 397 2203 397 
Q 2534 397 2845 478 
Q 3156 559 3463 722 
L 3463 178 
Q 3153 47 2828 -22 
Q 2503 -91 2169 -91 
Q 1331 -91 842 396 
Q 353 884 353 1716 
Q 353 2575 817 3079 
Q 1281 3584 2069 3584 
Q 2775 3584 3186 3129 
Q 3597 2675 3597 1894 
z
M 3022 2063 
Q 3016 2534 2758 2815 
Q 2500 3097 2075 3097 
Q 1594 3097 1305 2825 
Q 1016 2553 972 2059 
L 3022 2063 
z
" id="DejaVuSans-65" transform="scale(0.015625)"/>
       <path d="M 3122 3366 
L 3122 2828 
Q 2878 2963 2633 3030 
Q 2388 3097 2138 3097 
Q 1578 3097 1268 2742 
Q 959 2388 959 1747 
Q 959 1106 1268 751 
Q 1578 397 2138 397 
Q 2388 397 2633 464 
Q 2878 531 3122 666 
L 3122 134 
Q 2881 22 2623 -34 
Q 2366 -91 2075 -91 
Q 1284 -91 818 406 
Q 353 903 353 1747 
Q 353 2603 823 3093 
Q 1294 3584 2113 3584 
Q 2378 3584 2631 3529 
Q 2884 3475 3122 3366 
z
" id="DejaVuSans-63" transform="scale(0.015625)"/>
       <path d="M 603 4863 
L 1178 4863 
L 1178 0 
L 603 0 
L 603 4863 
z
" id="DejaVuSans-6c" transform="scale(0.015625)"/>
       <path d="M 2906 2969 
L 2906 4863 
L 3481 4863 
L 3481 0 
L 2906 0 
L 2906 525 
Q 2725 213 2448 61 
Q 2172 -91 1784 -91 
Q 1150 -91 751 415 
Q 353 922 353 1747 
Q 353 2572 751 3078 
Q 1150 3584 1784 3584 
Q 2172 3584 2448 3432 
Q 2725 3281 2906 2969 
z
M 947 1747 
Q 947 1113 1208 752 
Q 1469 391 1925 391 
Q 2381 391 2643 752 
Q 2906 1113 2906 1747 
Q 2906 2381 2643 2742 
Q 2381 3103 1925 3103 
Q 1469 3103 1208 2742 
Q 947 2381 947 1747 
z
" id="DejaVuSans-64" transform="scale(0.015625)"/>
       <path d="M 513 4856 
L 1013 4856 
Q 1481 4119 1714 3412 
Q 1947 2706 1947 2009 
Q 1947 1309 1714 600 
Q 1481 -109 1013 -844 
L 513 -844 
Q 928 -128 1133 580 
Q 1338 1288 1338 2009 
Q 1338 2731 1133 3434 
Q 928 4138 513 4856 
z
" id="DejaVuSans-29" transform="scale(0.015625)"/>
      </defs>
      <use xlink:href="#DejaVuSans-48"/>
      <use x="75.195312" xlink:href="#DejaVuSans-75"/>
      <use x="138.574219" xlink:href="#DejaVuSans-6d"/>
      <use x="235.986328" xlink:href="#DejaVuSans-61"/>
      <use x="297.265625" xlink:href="#DejaVuSans-6e"/>
      <use x="360.644531" xlink:href="#DejaVuSans-20"/>
      <use x="392.431641" xlink:href="#DejaVuSans-72"/>
      <use x="433.544922" xlink:href="#DejaVuSans-61"/>
      <use x="494.824219" xlink:href="#DejaVuSans-74"/>
      <use x="534.033203" xlink:href="#DejaVuSans-69"/>
      <use x="561.816406" xlink:href="#DejaVuSans-6e"/>
      <use x="625.195312" xlink:href="#DejaVuSans-67"/>
      <use x="688.671875" xlink:href="#DejaVuSans-73"/>
      <use x="740.771484" xlink:href="#DejaVuSans-20"/>
      <use x="772.558594" xlink:href="#DejaVuSans-28"/>
      <use x="811.572266" xlink:href="#DejaVuSans-65"/>
      <use x="873.095703" xlink:href="#DejaVuSans-75"/>
      <use x="936.474609" xlink:href="#DejaVuSans-63"/>
      <use x="991.455078" xlink:href="#DejaVuSans-6c"/>
      <use x="1019.238281" xlink:href="#DejaVuSans-69"/>
      <use x="1047.021484" xlink:href="#DejaVuSans-64"/>
      <use x="1110.498047" xlink:href="#DejaVuSans-65"/>
      <use x="1172.021484" xlink:href="#DejaVuSans-61"/>
      <use x="1233.300781" xlink:href="#DejaVuSans-6e"/>
      <use x="1296.679688" xlink:href="#DejaVuSans-20"/>
      <use x="1328.466797" xlink:href="#DejaVuSans-64"/>
      <use x="1391.943359" xlink:href="#DejaVuSans-69"/>
      <use x="1419.726562" xlink:href="#DejaVuSans-73"/>
      <use x="1471.826172" xlink:href="#DejaVuSans-74"/>
      <use x="1511.035156" xlink:href="#DejaVuSans-61"/>
      <use x="1572.314453" xlink:href="#DejaVuSans-6e"/>
      <use x="1635.693359" xlink:href="#DejaVuSans-63"/>
      <use x="1690.673828" xlink:href="#DejaVuSans-65"/>
      <use x="1752.197266" xlink:href="#DejaVuSans-29"/>
     </g>
    </g>
   </g>
   <g id="matplotlib.axis_2">
    <g id="ytick_1">
     <g id="text_10">
      <!-- 0.25 -->
      <g style="fill:#262626;" transform="translate(40.881719 383.045962)scale(0.165 -0.165)">
       <use xlink:href="#DejaVuSans-30"/>
       <use x="63.623047" xlink:href="#DejaVuSans-2e"/>
       <use x="95.410156" xlink:href="#DejaVuSans-32"/>
       <use x="159.033203" xlink:href="#DejaVuSans-35"/>
      </g>
     </g>
    </g>
    <g id="ytick_2">
     <g id="text_11">
      <!-- 0.30 -->
      <g style="fill:#262626;" transform="translate(40.881719 320.888201)scale(0.165 -0.165)">
       <use xlink:href="#DejaVuSans-30"/>
       <use x="63.623047" xlink:href="#DejaVuSans-2e"/>
       <use x="95.410156" xlink:href="#DejaVuSans-33"/>
       <use x="159.033203" xlink:href="#DejaVuSans-30"/>
      </g>
     </g>
    </g>
    <g id="ytick_3">
     <g id="text_12">
      <!-- 0.35 -->
      <g style="fill:#262626;" transform="translate(40.881719 258.73044)scale(0.165 -0.165)">
       <use xlink:href="#DejaVuSans-30"/>
       <use x="63.623047" xlink:href="#DejaVuSans-2e"/>
       <use x="95.410156" xlink:href="#DejaVuSans-33"/>
       <use x="159.033203" xlink:href="#DejaVuSans-35"/>
      </g>
     </g>
    </g>
    <g id="ytick_4">
     <g id="text_13">
      <!-- 0.40 -->
      <g style="fill:#262626;" transform="translate(40.881719 196.572679)scale(0.165 -0.165)">
       <use xlink:href="#DejaVuSans-30"/>
       <use x="63.623047" xlink:href="#DejaVuSans-2e"/>
       <use x="95.410156" xlink:href="#DejaVuSans-34"/>
       <use x="159.033203" xlink:href="#DejaVuSans-30"/>
      </g>
     </g>
    </g>
    <g id="ytick_5">
     <g id="text_14">
      <!-- 0.45 -->
      <g style="fill:#262626;" transform="translate(40.881719 134.414918)scale(0.165 -0.165)">
       <use xlink:href="#DejaVuSans-30"/>
       <use x="63.623047" xlink:href="#DejaVuSans-2e"/>
       <use x="95.410156" xlink:href="#DejaVuSans-34"/>
       <use x="159.033203" xlink:href="#DejaVuSans-35"/>
      </g>
     </g>
    </g>
    <g id="ytick_6">
     <g id="text_15">
      <!-- 0.50 -->
      <g style="fill:#262626;" transform="translate(40.881719 72.257157)scale(0.165 -0.165)">
       <use xlink:href="#DejaVuSans-30"/>
       <use x="63.623047" xlink:href="#DejaVuSans-2e"/>
       <use x="95.410156" xlink:href="#DejaVuSans-35"/>
       <use x="159.033203" xlink:href="#DejaVuSans-30"/>
      </g>
     </g>
    </g>
    <g id="text_16">
     <!-- Fasttext space (cosine distance) -->
     <g style="fill:#262626;" transform="translate(33.138281 373.210313)rotate(-90)scale(0.18 -0.18)">
      <defs>
       <path d="M 628 4666 
L 3309 4666 
L 3309 4134 
L 1259 4134 
L 1259 2759 
L 3109 2759 
L 3109 2228 
L 1259 2228 
L 1259 0 
L 628 0 
L 628 4666 
z
" id="DejaVuSans-46" transform="scale(0.015625)"/>
       <path d="M 3513 3500 
L 2247 1797 
L 3578 0 
L 2900 0 
L 1881 1375 
L 863 0 
L 184 0 
L 1544 1831 
L 300 3500 
L 978 3500 
L 1906 2253 
L 2834 3500 
L 3513 3500 
z
" id="DejaVuSans-78" transform="scale(0.015625)"/>
       <path d="M 1159 525 
L 1159 -1331 
L 581 -1331 
L 581 3500 
L 1159 3500 
L 1159 2969 
Q 1341 3281 1617 3432 
Q 1894 3584 2278 3584 
Q 2916 3584 3314 3078 
Q 3713 2572 3713 1747 
Q 3713 922 3314 415 
Q 2916 -91 2278 -91 
Q 1894 -91 1617 61 
Q 1341 213 1159 525 
z
M 3116 1747 
Q 3116 2381 2855 2742 
Q 2594 3103 2138 3103 
Q 1681 3103 1420 2742 
Q 1159 2381 1159 1747 
Q 1159 1113 1420 752 
Q 1681 391 2138 391 
Q 2594 391 2855 752 
Q 3116 1113 3116 1747 
z
" id="DejaVuSans-70" transform="scale(0.015625)"/>
       <path d="M 1959 3097 
Q 1497 3097 1228 2736 
Q 959 2375 959 1747 
Q 959 1119 1226 758 
Q 1494 397 1959 397 
Q 2419 397 2687 759 
Q 2956 1122 2956 1747 
Q 2956 2369 2687 2733 
Q 2419 3097 1959 3097 
z
M 1959 3584 
Q 2709 3584 3137 3096 
Q 3566 2609 3566 1747 
Q 3566 888 3137 398 
Q 2709 -91 1959 -91 
Q 1206 -91 779 398 
Q 353 888 353 1747 
Q 353 2609 779 3096 
Q 1206 3584 1959 3584 
z
" id="DejaVuSans-6f" transform="scale(0.015625)"/>
      </defs>
      <use xlink:href="#DejaVuSans-46"/>
      <use x="48.394531" xlink:href="#DejaVuSans-61"/>
      <use x="109.673828" xlink:href="#DejaVuSans-73"/>
      <use x="161.773438" xlink:href="#DejaVuSans-74"/>
      <use x="200.982422" xlink:href="#DejaVuSans-74"/>
      <use x="240.191406" xlink:href="#DejaVuSans-65"/>
      <use x="299.964844" xlink:href="#DejaVuSans-78"/>
      <use x="359.144531" xlink:href="#DejaVuSans-74"/>
      <use x="398.353516" xlink:href="#DejaVuSans-20"/>
      <use x="430.140625" xlink:href="#DejaVuSans-73"/>
      <use x="482.240234" xlink:href="#DejaVuSans-70"/>
      <use x="545.716797" xlink:href="#DejaVuSans-61"/>
      <use x="606.996094" xlink:href="#DejaVuSans-63"/>
      <use x="661.976562" xlink:href="#DejaVuSans-65"/>
      <use x="723.5" xlink:href="#DejaVuSans-20"/>
      <use x="755.287109" xlink:href="#DejaVuSans-28"/>
      <use x="794.300781" xlink:href="#DejaVuSans-63"/>
      <use x="849.28125" xlink:href="#DejaVuSans-6f"/>
      <use x="910.462891" xlink:href="#DejaVuSans-73"/>
      <use x="962.5625" xlink:href="#DejaVuSans-69"/>
      <use x="990.345703" xlink:href="#DejaVuSans-6e"/>
      <use x="1053.724609" xlink:href="#DejaVuSans-65"/>
      <use x="1115.248047" xlink:href="#DejaVuSans-20"/>
      <use x="1147.035156" xlink:href="#DejaVuSans-64"/>
      <use x="1210.511719" xlink:href="#DejaVuSans-69"/>
      <use x="1238.294922" xlink:href="#DejaVuSans-73"/>
      <use x="1290.394531" xlink:href="#DejaVuSans-74"/>
      <use x="1329.603516" xlink:href="#DejaVuSans-61"/>
      <use x="1390.882812" xlink:href="#DejaVuSans-6e"/>
      <use x="1454.261719" xlink:href="#DejaVuSans-63"/>
      <use x="1509.242188" xlink:href="#DejaVuSans-65"/>
      <use x="1570.765625" xlink:href="#DejaVuSans-29"/>
     </g>
    </g>
   </g>
   <g id="PathCollection_1">
    <defs>
     <path d="M 0 3.872983 
C 1.027127 3.872983 2.012324 3.464901 2.738613 2.738613 
C 3.464901 2.012324 3.872983 1.027127 3.872983 0 
C 3.872983 -1.027127 3.464901 -2.012324 2.738613 -2.738613 
C 2.012324 -3.464901 1.027127 -3.872983 0 -3.872983 
C -1.027127 -3.872983 -2.012324 -3.464901 -2.738613 -2.738613 
C -3.464901 -2.012324 -3.872983 -1.027127 -3.872983 0 
C -3.872983 1.027127 -3.464901 2.012324 -2.738613 2.738613 
C -2.012324 3.464901 -1.027127 3.872983 0 3.872983 
z
" id="m3a1430d05c" style="stroke:#000000;stroke-opacity:0.8;stroke-width:0.7;"/>
    </defs>
    <g clip-path="url(#p8ef73fd71d)">
     <use style="fill:#4c72b0;fill-opacity:0.8;stroke:#000000;stroke-opacity:0.8;stroke-width:0.7;" x="474.387067" xlink:href="#m3a1430d05c" y="278.962808"/>
     <use style="fill:#4c72b0;fill-opacity:0.8;stroke:#000000;stroke-opacity:0.8;stroke-width:0.7;" x="356.2687" xlink:href="#m3a1430d05c" y="211.789196"/>
     <use style="fill:#4c72b0;fill-opacity:0.8;stroke:#000000;stroke-opacity:0.8;stroke-width:0.7;" x="109.767273" xlink:href="#m3a1430d05c" y="301.018904"/>
     <use style="fill:#4c72b0;fill-opacity:0.8;stroke:#000000;stroke-opacity:0.8;stroke-width:0.7;" x="284.130404" xlink:href="#m3a1430d05c" y="296.235969"/>
     <use style="fill:#4c72b0;fill-opacity:0.8;stroke:#000000;stroke-opacity:0.8;stroke-width:0.7;" x="562.712727" xlink:href="#m3a1430d05c" y="418.23"/>
     <use style="fill:#4c72b0;fill-opacity:0.8;stroke:#000000;stroke-opacity:0.8;stroke-width:0.7;" x="532.694781" xlink:href="#m3a1430d05c" y="296.381271"/>
     <use style="fill:#4c72b0;fill-opacity:0.8;stroke:#000000;stroke-opacity:0.8;stroke-width:0.7;" x="422.286459" xlink:href="#m3a1430d05c" y="38.43"/>
     <use style="fill:#4c72b0;fill-opacity:0.8;stroke:#000000;stroke-opacity:0.8;stroke-width:0.7;" x="466.40833" xlink:href="#m3a1430d05c" y="182.191633"/>
     <use style="fill:#4c72b0;fill-opacity:0.8;stroke:#000000;stroke-opacity:0.8;stroke-width:0.7;" x="499.898247" xlink:href="#m3a1430d05c" y="71.00978"/>
     <use style="fill:#4c72b0;fill-opacity:0.8;stroke:#000000;stroke-opacity:0.8;stroke-width:0.7;" x="167.53978" xlink:href="#m3a1430d05c" y="150.298009"/>
     <use style="fill:#4c72b0;fill-opacity:0.8;stroke:#000000;stroke-opacity:0.8;stroke-width:0.7;" x="512.335652" xlink:href="#m3a1430d05c" y="260.601951"/>
     <use style="fill:#4c72b0;fill-opacity:0.8;stroke:#000000;stroke-opacity:0.8;stroke-width:0.7;" x="132.888472" xlink:href="#m3a1430d05c" y="358.392663"/>
     <use style="fill:#4c72b0;fill-opacity:0.8;stroke:#000000;stroke-opacity:0.8;stroke-width:0.7;" x="267.566765" xlink:href="#m3a1430d05c" y="400.216355"/>
     <use style="fill:#4c72b0;fill-opacity:0.8;stroke:#000000;stroke-opacity:0.8;stroke-width:0.7;" x="486.217127" xlink:href="#m3a1430d05c" y="392.505701"/>
     <use style="fill:#4c72b0;fill-opacity:0.8;stroke:#000000;stroke-opacity:0.8;stroke-width:0.7;" x="332.173104" xlink:href="#m3a1430d05c" y="123.137184"/>
    </g>
   </g>
   <g id="PolyCollection_1">
    <defs>
     <path d="M 109.767273 -384.821515 
L 109.767273 -139.814967 
L 114.342479 -142.168046 
L 118.917686 -143.405785 
L 123.492893 -145.343232 
L 128.068099 -146.929468 
L 132.643306 -148.694667 
L 137.218512 -150.362148 
L 141.793719 -150.842604 
L 146.368926 -153.791657 
L 150.944132 -155.028871 
L 155.519339 -156.116985 
L 160.094545 -157.209287 
L 164.669752 -158.614964 
L 169.244959 -160.965623 
L 173.820165 -162.77889 
L 178.395372 -164.221956 
L 182.970579 -165.095732 
L 187.545785 -166.29096 
L 192.120992 -166.53144 
L 196.696198 -167.825113 
L 201.271405 -169.215032 
L 205.846612 -169.724217 
L 210.421818 -170.402725 
L 214.997025 -171.535668 
L 219.572231 -171.70125 
L 224.147438 -172.552793 
L 228.722645 -173.176834 
L 233.297851 -173.696266 
L 237.873058 -174.217838 
L 242.448264 -174.758944 
L 247.023471 -175.864974 
L 251.598678 -176.026513 
L 256.173884 -176.32453 
L 260.749091 -177.241015 
L 265.324298 -178.195673 
L 269.899504 -179.784123 
L 274.474711 -179.687892 
L 279.049917 -181.334829 
L 283.625124 -181.885081 
L 288.200331 -182.418464 
L 292.775537 -182.962357 
L 297.350744 -183.50625 
L 301.92595 -184.051673 
L 306.501157 -184.066149 
L 311.076364 -184.721769 
L 315.65157 -185.123602 
L 320.226777 -186.065254 
L 324.801983 -186.769608 
L 329.37719 -187.313501 
L 333.952397 -187.857394 
L 338.527603 -188.401288 
L 343.10281 -188.945181 
L 347.678017 -189.256167 
L 352.253223 -189.462003 
L 356.82843 -189.221815 
L 361.403636 -188.618586 
L 365.978843 -188.840395 
L 370.55405 -189.372318 
L 375.129256 -189.940194 
L 379.704463 -190.409065 
L 384.279669 -190.912632 
L 388.854876 -190.695536 
L 393.430083 -189.316821 
L 398.005289 -188.459889 
L 402.580496 -187.265353 
L 407.155702 -187.031967 
L 411.730909 -186.614494 
L 416.306116 -186.674162 
L 420.881322 -186.933489 
L 425.456529 -186.175905 
L 430.031736 -185.327976 
L 434.606942 -184.987777 
L 439.182149 -184.647577 
L 443.757355 -184.307378 
L 448.332562 -183.967179 
L 452.907769 -183.643342 
L 457.482975 -182.941381 
L 462.058182 -181.883445 
L 466.633388 -180.825509 
L 471.208595 -180.154046 
L 475.783802 -179.134394 
L 480.359008 -177.683806 
L 484.934215 -176.382499 
L 489.509421 -174.84792 
L 494.084628 -174.295839 
L 498.659835 -172.281668 
L 503.235041 -170.470984 
L 507.810248 -170.719958 
L 512.385455 -169.927741 
L 516.960661 -168.854331 
L 521.535868 -167.780922 
L 526.111074 -166.707512 
L 530.686281 -165.634102 
L 535.261488 -164.638408 
L 539.836694 -163.944723 
L 544.411901 -162.990638 
L 548.987107 -161.683157 
L 553.562314 -160.217916 
L 558.137521 -159.131254 
L 562.712727 -158.281297 
L 562.712727 -394.329533 
L 562.712727 -394.329533 
L 558.137521 -392.353731 
L 553.562314 -390.377928 
L 548.987107 -388.402126 
L 544.411901 -386.426324 
L 539.836694 -384.28966 
L 535.261488 -381.623757 
L 530.686281 -378.957855 
L 526.111074 -377.10619 
L 521.535868 -375.269877 
L 516.960661 -373.433565 
L 512.385455 -371.597252 
L 507.810248 -370.448989 
L 503.235041 -368.82364 
L 498.659835 -366.862968 
L 494.084628 -364.890211 
L 489.509421 -362.794209 
L 484.934215 -360.579375 
L 480.359008 -358.743065 
L 475.783802 -356.906753 
L 471.208595 -355.07044 
L 466.633388 -353.135096 
L 462.058182 -350.920758 
L 457.482975 -349.221552 
L 452.907769 -347.017451 
L 448.332562 -345.511272 
L 443.757355 -343.814262 
L 439.182149 -342.243874 
L 434.606942 -340.418838 
L 430.031736 -338.959358 
L 425.456529 -337.985331 
L 420.881322 -336.140175 
L 416.306116 -334.560327 
L 411.730909 -333.388222 
L 407.155702 -331.947583 
L 402.580496 -330.583025 
L 398.005289 -328.940202 
L 393.430083 -329.412566 
L 388.854876 -328.865266 
L 384.279669 -327.785957 
L 379.704463 -326.650284 
L 375.129256 -324.217097 
L 370.55405 -325.141694 
L 365.978843 -324.390468 
L 361.403636 -324.317554 
L 356.82843 -324.694965 
L 352.253223 -323.779735 
L 347.678017 -323.524127 
L 343.10281 -322.647613 
L 338.527603 -323.269245 
L 333.952397 -320.606441 
L 329.37719 -318.171497 
L 324.801983 -316.249202 
L 320.226777 -318.307171 
L 315.65157 -320.232925 
L 311.076364 -320.188899 
L 306.501157 -319.541403 
L 301.92595 -321.652888 
L 297.350744 -322.155455 
L 292.775537 -324.906002 
L 288.200331 -325.211671 
L 283.625124 -327.117017 
L 279.049917 -328.999269 
L 274.474711 -330.859805 
L 269.899504 -332.347597 
L 265.324298 -333.400775 
L 260.749091 -335.130378 
L 256.173884 -336.859708 
L 251.598678 -338.404232 
L 247.023471 -338.433728 
L 242.448264 -338.463224 
L 237.873058 -339.133686 
L 233.297851 -340.806794 
L 228.722645 -342.471116 
L 224.147438 -342.767576 
L 219.572231 -343.502462 
L 214.997025 -345.301169 
L 210.421818 -347.099876 
L 205.846612 -348.898583 
L 201.271405 -350.69729 
L 196.696198 -352.495997 
L 192.120992 -354.294704 
L 187.545785 -356.093411 
L 182.970579 -357.892118 
L 178.395372 -360.310799 
L 173.820165 -362.225346 
L 169.244959 -363.260658 
L 164.669752 -364.763156 
L 160.094545 -366.566035 
L 155.519339 -368.368915 
L 150.944132 -370.171794 
L 146.368926 -371.974673 
L 141.793719 -373.777553 
L 137.218512 -375.580432 
L 132.643306 -377.383312 
L 128.068099 -379.186191 
L 123.492893 -380.989071 
L 118.917686 -382.79195 
L 114.342479 -384.326075 
L 109.767273 -384.821515 
z
" id="m26fc4c520b" style="stroke:#ffffff;stroke-opacity:0.15;"/>
    </defs>
    <g clip-path="url(#p8ef73fd71d)">
     <use style="fill:#4c72b0;fill-opacity:0.15;stroke:#ffffff;stroke-opacity:0.15;" x="0" xlink:href="#m26fc4c520b" y="504"/>
    </g>
   </g>
   <g id="line2d_1">
    <path clip-path="url(#p8ef73fd71d)" d="M 109.767273 262.98894 
L 114.342479 262.822402 
L 118.917686 262.655864 
L 123.492893 262.489326 
L 128.068099 262.322788 
L 132.643306 262.15625 
L 137.218512 261.989712 
L 141.793719 261.823174 
L 146.368926 261.656636 
L 150.944132 261.490098 
L 155.519339 261.32356 
L 160.094545 261.157022 
L 164.669752 260.990484 
L 169.244959 260.823946 
L 173.820165 260.657408 
L 178.395372 260.49087 
L 182.970579 260.324332 
L 187.545785 260.157794 
L 192.120992 259.991256 
L 196.696198 259.824718 
L 201.271405 259.65818 
L 205.846612 259.491642 
L 210.421818 259.325104 
L 214.997025 259.158566 
L 219.572231 258.992028 
L 224.147438 258.82549 
L 228.722645 258.658952 
L 233.297851 258.492414 
L 237.873058 258.325876 
L 242.448264 258.159338 
L 247.023471 257.9928 
L 251.598678 257.826262 
L 256.173884 257.659724 
L 260.749091 257.493186 
L 265.324298 257.326648 
L 269.899504 257.16011 
L 274.474711 256.993572 
L 279.049917 256.827034 
L 283.625124 256.660496 
L 288.200331 256.493958 
L 292.775537 256.32742 
L 297.350744 256.160882 
L 301.92595 255.994344 
L 306.501157 255.827806 
L 311.076364 255.661268 
L 315.65157 255.49473 
L 320.226777 255.328192 
L 324.801983 255.161654 
L 329.37719 254.995116 
L 333.952397 254.828578 
L 338.527603 254.66204 
L 343.10281 254.495502 
L 347.678017 254.328964 
L 352.253223 254.162426 
L 356.82843 253.995888 
L 361.403636 253.82935 
L 365.978843 253.662812 
L 370.55405 253.496274 
L 375.129256 253.329736 
L 379.704463 253.163198 
L 384.279669 252.99666 
L 388.854876 252.830122 
L 393.430083 252.663584 
L 398.005289 252.497046 
L 402.580496 252.330508 
L 407.155702 252.16397 
L 411.730909 251.997432 
L 416.306116 251.830894 
L 420.881322 251.664356 
L 425.456529 251.497818 
L 430.031736 251.33128 
L 434.606942 251.164742 
L 439.182149 250.998204 
L 443.757355 250.831666 
L 448.332562 250.665128 
L 452.907769 250.49859 
L 457.482975 250.332052 
L 462.058182 250.165514 
L 466.633388 249.998976 
L 471.208595 249.832438 
L 475.783802 249.6659 
L 480.359008 249.499362 
L 484.934215 249.332824 
L 489.509421 249.166286 
L 494.084628 248.999748 
L 498.659835 248.83321 
L 503.235041 248.666672 
L 507.810248 248.500134 
L 512.385455 248.333596 
L 516.960661 248.167058 
L 521.535868 248.00052 
L 526.111074 247.833982 
L 530.686281 247.667444 
L 535.261488 247.500906 
L 539.836694 247.334368 
L 544.411901 247.16783 
L 548.987107 247.001292 
L 553.562314 246.834754 
L 558.137521 246.668216 
L 562.712727 246.501678 
" style="fill:none;stroke:#4c72b0;stroke-linecap:round;stroke-width:2.25;"/>
   </g>
   <g id="patch_3">
    <path d="M 87.12 437.22 
L 87.12 19.44 
" style="fill:none;stroke:#262626;stroke-linecap:square;stroke-linejoin:miter;stroke-width:1.25;"/>
   </g>
   <g id="patch_4">
    <path d="M 87.12 437.22 
L 585.36 437.22 
" style="fill:none;stroke:#262626;stroke-linecap:square;stroke-linejoin:miter;stroke-width:1.25;"/>
   </g>
   <g id="text_17">
    <!-- Human ratings ~ Fasttext space -->
    <g style="fill:#262626;" transform="translate(191.195156 13.44)scale(0.18 -0.18)">
     <defs>
      <path d="M 4684 2553 
L 4684 1997 
Q 4356 1750 4076 1644 
Q 3797 1538 3494 1538 
Q 3150 1538 2694 1722 
Q 2659 1734 2644 1741 
Q 2622 1750 2575 1766 
Q 2091 1959 1797 1959 
Q 1522 1959 1253 1839 
Q 984 1719 678 1459 
L 678 2016 
Q 1006 2263 1286 2370 
Q 1566 2478 1869 2478 
Q 2213 2478 2672 2291 
Q 2703 2278 2719 2272 
Q 2744 2263 2788 2247 
Q 3272 2053 3566 2053 
Q 3834 2053 4098 2172 
Q 4363 2291 4684 2553 
z
" id="DejaVuSans-7e" transform="scale(0.015625)"/>
     </defs>
     <use xlink:href="#DejaVuSans-48"/>
     <use x="75.195312" xlink:href="#DejaVuSans-75"/>
     <use x="138.574219" xlink:href="#DejaVuSans-6d"/>
     <use x="235.986328" xlink:href="#DejaVuSans-61"/>
     <use x="297.265625" xlink:href="#DejaVuSans-6e"/>
     <use x="360.644531" xlink:href="#DejaVuSans-20"/>
     <use x="392.431641" xlink:href="#DejaVuSans-72"/>
     <use x="433.544922" xlink:href="#DejaVuSans-61"/>
     <use x="494.824219" xlink:href="#DejaVuSans-74"/>
     <use x="534.033203" xlink:href="#DejaVuSans-69"/>
     <use x="561.816406" xlink:href="#DejaVuSans-6e"/>
     <use x="625.195312" xlink:href="#DejaVuSans-67"/>
     <use x="688.671875" xlink:href="#DejaVuSans-73"/>
     <use x="740.771484" xlink:href="#DejaVuSans-20"/>
     <use x="772.558594" xlink:href="#DejaVuSans-7e"/>
     <use x="856.347656" xlink:href="#DejaVuSans-20"/>
     <use x="888.134766" xlink:href="#DejaVuSans-46"/>
     <use x="936.529297" xlink:href="#DejaVuSans-61"/>
     <use x="997.808594" xlink:href="#DejaVuSans-73"/>
     <use x="1049.908203" xlink:href="#DejaVuSans-74"/>
     <use x="1089.117188" xlink:href="#DejaVuSans-74"/>
     <use x="1128.326172" xlink:href="#DejaVuSans-65"/>
     <use x="1188.099609" xlink:href="#DejaVuSans-78"/>
     <use x="1247.279297" xlink:href="#DejaVuSans-74"/>
     <use x="1286.488281" xlink:href="#DejaVuSans-20"/>
     <use x="1318.275391" xlink:href="#DejaVuSans-73"/>
     <use x="1370.375" xlink:href="#DejaVuSans-70"/>
     <use x="1433.851562" xlink:href="#DejaVuSans-61"/>
     <use x="1495.130859" xlink:href="#DejaVuSans-63"/>
     <use x="1550.111328" xlink:href="#DejaVuSans-65"/>
    </g>
   </g>
  </g>
  <g id="text_18">
   <!-- r =  -0.014 -->
   <g style="fill:#262626;" transform="translate(243.798188 56.732625)scale(0.216 -0.216)">
    <defs>
     <path d="M 678 2906 
L 4684 2906 
L 4684 2381 
L 678 2381 
L 678 2906 
z
M 678 1631 
L 4684 1631 
L 4684 1100 
L 678 1100 
L 678 1631 
z
" id="DejaVuSans-3d" transform="scale(0.015625)"/>
     <path d="M 313 2009 
L 1997 2009 
L 1997 1497 
L 313 1497 
L 313 2009 
z
" id="DejaVuSans-2d" transform="scale(0.015625)"/>
    </defs>
    <use xlink:href="#DejaVuSans-72"/>
    <use x="41.113281" xlink:href="#DejaVuSans-20"/>
    <use x="72.900391" xlink:href="#DejaVuSans-3d"/>
    <use x="156.689453" xlink:href="#DejaVuSans-20"/>
    <use x="188.476562" xlink:href="#DejaVuSans-20"/>
    <use x="220.263672" xlink:href="#DejaVuSans-2d"/>
    <use x="256.347656" xlink:href="#DejaVuSans-30"/>
    <use x="319.970703" xlink:href="#DejaVuSans-2e"/>
    <use x="351.757812" xlink:href="#DejaVuSans-30"/>
    <use x="415.380859" xlink:href="#DejaVuSans-31"/>
    <use x="479.003906" xlink:href="#DejaVuSans-34"/>
   </g>
  </g>
 </g>
 <defs>
  <clipPath id="p8ef73fd71d">
   <rect height="417.78" width="498.24" x="87.12" y="19.44"/>
  </clipPath>
 </defs>
</svg>
