<?xml version="1.0" encoding="utf-8" standalone="no"?>
<!DOCTYPE svg PUBLIC "-//W3C//DTD SVG 1.1//EN"
  "http://www.w3.org/Graphics/SVG/1.1/DTD/svg11.dtd">
<svg xmlns:xlink="http://www.w3.org/1999/xlink" width="604.8pt" height="504pt" viewBox="0 0 604.8 504" xmlns="http://www.w3.org/2000/svg" version="1.1">
 <metadata>
  <rdf:RDF xmlns:dc="http://purl.org/dc/elements/1.1/" xmlns:cc="http://creativecommons.org/ns#" xmlns:rdf="http://www.w3.org/1999/02/22-rdf-syntax-ns#">
   <cc:Work>
    <dc:type rdf:resource="http://purl.org/dc/dcmitype/StillImage"/>
    <dc:date>2023-07-12T11:45:34.901621</dc:date>
    <dc:format>image/svg+xml</dc:format>
    <dc:creator>
     <cc:Agent>
      <dc:title>Matplotlib v3.6.2, https://matplotlib.org/</dc:title>
     </cc:Agent>
    </dc:creator>
   </cc:Work>
  </rdf:RDF>
 </metadata>
 <defs>
  <style type="text/css">*{stroke-linejoin: round; stroke-linecap: butt}</style>
 </defs>
 <g id="figure_1">
  <g id="patch_1">
   <path d="M 0 504 
L 604.8 504 
L 604.8 0 
L 0 0 
z
" style="fill: #ffffff"/>
  </g>
  <g id="axes_1">
   <g id="patch_2">
    <path d="M 76.5 437.22 
L 585.36 437.22 
L 585.36 19.44 
L 76.5 19.44 
z
" style="fill: #ffffff"/>
   </g>
   <g id="matplotlib.axis_1">
    <g id="xtick_1">
     <g id="text_1">
      <!-- 0 -->
      <g style="fill: #262626" transform="translate(86.400775 459.257422) scale(0.165 -0.165)">
       <defs>
        <path id="DejaVuSans-30" d="M 2034 4250 
Q 1547 4250 1301 3770 
Q 1056 3291 1056 2328 
Q 1056 1369 1301 889 
Q 1547 409 2034 409 
Q 2525 409 2770 889 
Q 3016 1369 3016 2328 
Q 3016 3291 2770 3770 
Q 2525 4250 2034 4250 
z
M 2034 4750 
Q 2819 4750 3233 4129 
Q 3647 3509 3647 2328 
Q 3647 1150 3233 529 
Q 2819 -91 2034 -91 
Q 1250 -91 836 529 
Q 422 1150 422 2328 
Q 422 3509 836 4129 
Q 1250 4750 2034 4750 
z
" transform="scale(0.015625)"/>
       </defs>
       <use xlink:href="#DejaVuSans-30"/>
      </g>
     </g>
    </g>
    <g id="xtick_2">
     <g id="text_2">
      <!-- 2 -->
      <g style="fill: #262626" transform="translate(194.866229 459.257422) scale(0.165 -0.165)">
       <defs>
        <path id="DejaVuSans-32" d="M 1228 531 
L 3431 531 
L 3431 0 
L 469 0 
L 469 531 
Q 828 903 1448 1529 
Q 2069 2156 2228 2338 
Q 2531 2678 2651 2914 
Q 2772 3150 2772 3378 
Q 2772 3750 2511 3984 
Q 2250 4219 1831 4219 
Q 1534 4219 1204 4116 
Q 875 4013 500 3803 
L 500 4441 
Q 881 4594 1212 4672 
Q 1544 4750 1819 4750 
Q 2544 4750 2975 4387 
Q 3406 4025 3406 3419 
Q 3406 3131 3298 2873 
Q 3191 2616 2906 2266 
Q 2828 2175 2409 1742 
Q 1991 1309 1228 531 
z
" transform="scale(0.015625)"/>
       </defs>
       <use xlink:href="#DejaVuSans-32"/>
      </g>
     </g>
    </g>
    <g id="xtick_3">
     <g id="text_3">
      <!-- 4 -->
      <g style="fill: #262626" transform="translate(303.331682 459.257422) scale(0.165 -0.165)">
       <defs>
        <path id="DejaVuSans-34" d="M 2419 4116 
L 825 1625 
L 2419 1625 
L 2419 4116 
z
M 2253 4666 
L 3047 4666 
L 3047 1625 
L 3713 1625 
L 3713 1100 
L 3047 1100 
L 3047 0 
L 2419 0 
L 2419 1100 
L 313 1100 
L 313 1709 
L 2253 4666 
z
" transform="scale(0.015625)"/>
       </defs>
       <use xlink:href="#DejaVuSans-34"/>
      </g>
     </g>
    </g>
    <g id="xtick_4">
     <g id="text_4">
      <!-- 6 -->
      <g style="fill: #262626" transform="translate(411.797135 459.257422) scale(0.165 -0.165)">
       <defs>
        <path id="DejaVuSans-36" d="M 2113 2584 
Q 1688 2584 1439 2293 
Q 1191 2003 1191 1497 
Q 1191 994 1439 701 
Q 1688 409 2113 409 
Q 2538 409 2786 701 
Q 3034 994 3034 1497 
Q 3034 2003 2786 2293 
Q 2538 2584 2113 2584 
z
M 3366 4563 
L 3366 3988 
Q 3128 4100 2886 4159 
Q 2644 4219 2406 4219 
Q 1781 4219 1451 3797 
Q 1122 3375 1075 2522 
Q 1259 2794 1537 2939 
Q 1816 3084 2150 3084 
Q 2853 3084 3261 2657 
Q 3669 2231 3669 1497 
Q 3669 778 3244 343 
Q 2819 -91 2113 -91 
Q 1303 -91 875 529 
Q 447 1150 447 2328 
Q 447 3434 972 4092 
Q 1497 4750 2381 4750 
Q 2619 4750 2861 4703 
Q 3103 4656 3366 4563 
z
" transform="scale(0.015625)"/>
       </defs>
       <use xlink:href="#DejaVuSans-36"/>
      </g>
     </g>
    </g>
    <g id="xtick_5">
     <g id="text_5">
      <!-- 8 -->
      <g style="fill: #262626" transform="translate(520.262589 459.257422) scale(0.165 -0.165)">
       <defs>
        <path id="DejaVuSans-38" d="M 2034 2216 
Q 1584 2216 1326 1975 
Q 1069 1734 1069 1313 
Q 1069 891 1326 650 
Q 1584 409 2034 409 
Q 2484 409 2743 651 
Q 3003 894 3003 1313 
Q 3003 1734 2745 1975 
Q 2488 2216 2034 2216 
z
M 1403 2484 
Q 997 2584 770 2862 
Q 544 3141 544 3541 
Q 544 4100 942 4425 
Q 1341 4750 2034 4750 
Q 2731 4750 3128 4425 
Q 3525 4100 3525 3541 
Q 3525 3141 3298 2862 
Q 3072 2584 2669 2484 
Q 3125 2378 3379 2068 
Q 3634 1759 3634 1313 
Q 3634 634 3220 271 
Q 2806 -91 2034 -91 
Q 1263 -91 848 271 
Q 434 634 434 1313 
Q 434 1759 690 2068 
Q 947 2378 1403 2484 
z
M 1172 3481 
Q 1172 3119 1398 2916 
Q 1625 2713 2034 2713 
Q 2441 2713 2670 2916 
Q 2900 3119 2900 3481 
Q 2900 3844 2670 4047 
Q 2441 4250 2034 4250 
Q 1625 4250 1398 4047 
Q 1172 3844 1172 3481 
z
" transform="scale(0.015625)"/>
       </defs>
       <use xlink:href="#DejaVuSans-38"/>
      </g>
     </g>
    </g>
    <g id="text_6">
     <!-- Human ratings (euclidean distance) -->
     <g style="fill: #262626" transform="translate(169.721719 480.366094) scale(0.18 -0.18)">
      <defs>
       <path id="DejaVuSans-48" d="M 628 4666 
L 1259 4666 
L 1259 2753 
L 3553 2753 
L 3553 4666 
L 4184 4666 
L 4184 0 
L 3553 0 
L 3553 2222 
L 1259 2222 
L 1259 0 
L 628 0 
L 628 4666 
z
" transform="scale(0.015625)"/>
       <path id="DejaVuSans-75" d="M 544 1381 
L 544 3500 
L 1119 3500 
L 1119 1403 
Q 1119 906 1312 657 
Q 1506 409 1894 409 
Q 2359 409 2629 706 
Q 2900 1003 2900 1516 
L 2900 3500 
L 3475 3500 
L 3475 0 
L 2900 0 
L 2900 538 
Q 2691 219 2414 64 
Q 2138 -91 1772 -91 
Q 1169 -91 856 284 
Q 544 659 544 1381 
z
M 1991 3584 
L 1991 3584 
z
" transform="scale(0.015625)"/>
       <path id="DejaVuSans-6d" d="M 3328 2828 
Q 3544 3216 3844 3400 
Q 4144 3584 4550 3584 
Q 5097 3584 5394 3201 
Q 5691 2819 5691 2113 
L 5691 0 
L 5113 0 
L 5113 2094 
Q 5113 2597 4934 2840 
Q 4756 3084 4391 3084 
Q 3944 3084 3684 2787 
Q 3425 2491 3425 1978 
L 3425 0 
L 2847 0 
L 2847 2094 
Q 2847 2600 2669 2842 
Q 2491 3084 2119 3084 
Q 1678 3084 1418 2786 
Q 1159 2488 1159 1978 
L 1159 0 
L 581 0 
L 581 3500 
L 1159 3500 
L 1159 2956 
Q 1356 3278 1631 3431 
Q 1906 3584 2284 3584 
Q 2666 3584 2933 3390 
Q 3200 3197 3328 2828 
z
" transform="scale(0.015625)"/>
       <path id="DejaVuSans-61" d="M 2194 1759 
Q 1497 1759 1228 1600 
Q 959 1441 959 1056 
Q 959 750 1161 570 
Q 1363 391 1709 391 
Q 2188 391 2477 730 
Q 2766 1069 2766 1631 
L 2766 1759 
L 2194 1759 
z
M 3341 1997 
L 3341 0 
L 2766 0 
L 2766 531 
Q 2569 213 2275 61 
Q 1981 -91 1556 -91 
Q 1019 -91 701 211 
Q 384 513 384 1019 
Q 384 1609 779 1909 
Q 1175 2209 1959 2209 
L 2766 2209 
L 2766 2266 
Q 2766 2663 2505 2880 
Q 2244 3097 1772 3097 
Q 1472 3097 1187 3025 
Q 903 2953 641 2809 
L 641 3341 
Q 956 3463 1253 3523 
Q 1550 3584 1831 3584 
Q 2591 3584 2966 3190 
Q 3341 2797 3341 1997 
z
" transform="scale(0.015625)"/>
       <path id="DejaVuSans-6e" d="M 3513 2113 
L 3513 0 
L 2938 0 
L 2938 2094 
Q 2938 2591 2744 2837 
Q 2550 3084 2163 3084 
Q 1697 3084 1428 2787 
Q 1159 2491 1159 1978 
L 1159 0 
L 581 0 
L 581 3500 
L 1159 3500 
L 1159 2956 
Q 1366 3272 1645 3428 
Q 1925 3584 2291 3584 
Q 2894 3584 3203 3211 
Q 3513 2838 3513 2113 
z
" transform="scale(0.015625)"/>
       <path id="DejaVuSans-20" transform="scale(0.015625)"/>
       <path id="DejaVuSans-72" d="M 2631 2963 
Q 2534 3019 2420 3045 
Q 2306 3072 2169 3072 
Q 1681 3072 1420 2755 
Q 1159 2438 1159 1844 
L 1159 0 
L 581 0 
L 581 3500 
L 1159 3500 
L 1159 2956 
Q 1341 3275 1631 3429 
Q 1922 3584 2338 3584 
Q 2397 3584 2469 3576 
Q 2541 3569 2628 3553 
L 2631 2963 
z
" transform="scale(0.015625)"/>
       <path id="DejaVuSans-74" d="M 1172 4494 
L 1172 3500 
L 2356 3500 
L 2356 3053 
L 1172 3053 
L 1172 1153 
Q 1172 725 1289 603 
Q 1406 481 1766 481 
L 2356 481 
L 2356 0 
L 1766 0 
Q 1100 0 847 248 
Q 594 497 594 1153 
L 594 3053 
L 172 3053 
L 172 3500 
L 594 3500 
L 594 4494 
L 1172 4494 
z
" transform="scale(0.015625)"/>
       <path id="DejaVuSans-69" d="M 603 3500 
L 1178 3500 
L 1178 0 
L 603 0 
L 603 3500 
z
M 603 4863 
L 1178 4863 
L 1178 4134 
L 603 4134 
L 603 4863 
z
" transform="scale(0.015625)"/>
       <path id="DejaVuSans-67" d="M 2906 1791 
Q 2906 2416 2648 2759 
Q 2391 3103 1925 3103 
Q 1463 3103 1205 2759 
Q 947 2416 947 1791 
Q 947 1169 1205 825 
Q 1463 481 1925 481 
Q 2391 481 2648 825 
Q 2906 1169 2906 1791 
z
M 3481 434 
Q 3481 -459 3084 -895 
Q 2688 -1331 1869 -1331 
Q 1566 -1331 1297 -1286 
Q 1028 -1241 775 -1147 
L 775 -588 
Q 1028 -725 1275 -790 
Q 1522 -856 1778 -856 
Q 2344 -856 2625 -561 
Q 2906 -266 2906 331 
L 2906 616 
Q 2728 306 2450 153 
Q 2172 0 1784 0 
Q 1141 0 747 490 
Q 353 981 353 1791 
Q 353 2603 747 3093 
Q 1141 3584 1784 3584 
Q 2172 3584 2450 3431 
Q 2728 3278 2906 2969 
L 2906 3500 
L 3481 3500 
L 3481 434 
z
" transform="scale(0.015625)"/>
       <path id="DejaVuSans-73" d="M 2834 3397 
L 2834 2853 
Q 2591 2978 2328 3040 
Q 2066 3103 1784 3103 
Q 1356 3103 1142 2972 
Q 928 2841 928 2578 
Q 928 2378 1081 2264 
Q 1234 2150 1697 2047 
L 1894 2003 
Q 2506 1872 2764 1633 
Q 3022 1394 3022 966 
Q 3022 478 2636 193 
Q 2250 -91 1575 -91 
Q 1294 -91 989 -36 
Q 684 19 347 128 
L 347 722 
Q 666 556 975 473 
Q 1284 391 1588 391 
Q 1994 391 2212 530 
Q 2431 669 2431 922 
Q 2431 1156 2273 1281 
Q 2116 1406 1581 1522 
L 1381 1569 
Q 847 1681 609 1914 
Q 372 2147 372 2553 
Q 372 3047 722 3315 
Q 1072 3584 1716 3584 
Q 2034 3584 2315 3537 
Q 2597 3491 2834 3397 
z
" transform="scale(0.015625)"/>
       <path id="DejaVuSans-28" d="M 1984 4856 
Q 1566 4138 1362 3434 
Q 1159 2731 1159 2009 
Q 1159 1288 1364 580 
Q 1569 -128 1984 -844 
L 1484 -844 
Q 1016 -109 783 600 
Q 550 1309 550 2009 
Q 550 2706 781 3412 
Q 1013 4119 1484 4856 
L 1984 4856 
z
" transform="scale(0.015625)"/>
       <path id="DejaVuSans-65" d="M 3597 1894 
L 3597 1613 
L 953 1613 
Q 991 1019 1311 708 
Q 1631 397 2203 397 
Q 2534 397 2845 478 
Q 3156 559 3463 722 
L 3463 178 
Q 3153 47 2828 -22 
Q 2503 -91 2169 -91 
Q 1331 -91 842 396 
Q 353 884 353 1716 
Q 353 2575 817 3079 
Q 1281 3584 2069 3584 
Q 2775 3584 3186 3129 
Q 3597 2675 3597 1894 
z
M 3022 2063 
Q 3016 2534 2758 2815 
Q 2500 3097 2075 3097 
Q 1594 3097 1305 2825 
Q 1016 2553 972 2059 
L 3022 2063 
z
" transform="scale(0.015625)"/>
       <path id="DejaVuSans-63" d="M 3122 3366 
L 3122 2828 
Q 2878 2963 2633 3030 
Q 2388 3097 2138 3097 
Q 1578 3097 1268 2742 
Q 959 2388 959 1747 
Q 959 1106 1268 751 
Q 1578 397 2138 397 
Q 2388 397 2633 464 
Q 2878 531 3122 666 
L 3122 134 
Q 2881 22 2623 -34 
Q 2366 -91 2075 -91 
Q 1284 -91 818 406 
Q 353 903 353 1747 
Q 353 2603 823 3093 
Q 1294 3584 2113 3584 
Q 2378 3584 2631 3529 
Q 2884 3475 3122 3366 
z
" transform="scale(0.015625)"/>
       <path id="DejaVuSans-6c" d="M 603 4863 
L 1178 4863 
L 1178 0 
L 603 0 
L 603 4863 
z
" transform="scale(0.015625)"/>
       <path id="DejaVuSans-64" d="M 2906 2969 
L 2906 4863 
L 3481 4863 
L 3481 0 
L 2906 0 
L 2906 525 
Q 2725 213 2448 61 
Q 2172 -91 1784 -91 
Q 1150 -91 751 415 
Q 353 922 353 1747 
Q 353 2572 751 3078 
Q 1150 3584 1784 3584 
Q 2172 3584 2448 3432 
Q 2725 3281 2906 2969 
z
M 947 1747 
Q 947 1113 1208 752 
Q 1469 391 1925 391 
Q 2381 391 2643 752 
Q 2906 1113 2906 1747 
Q 2906 2381 2643 2742 
Q 2381 3103 1925 3103 
Q 1469 3103 1208 2742 
Q 947 2381 947 1747 
z
" transform="scale(0.015625)"/>
       <path id="DejaVuSans-29" d="M 513 4856 
L 1013 4856 
Q 1481 4119 1714 3412 
Q 1947 2706 1947 2009 
Q 1947 1309 1714 600 
Q 1481 -109 1013 -844 
L 513 -844 
Q 928 -128 1133 580 
Q 1338 1288 1338 2009 
Q 1338 2731 1133 3434 
Q 928 4138 513 4856 
z
" transform="scale(0.015625)"/>
      </defs>
      <use xlink:href="#DejaVuSans-48"/>
      <use xlink:href="#DejaVuSans-75" x="75.195312"/>
      <use xlink:href="#DejaVuSans-6d" x="138.574219"/>
      <use xlink:href="#DejaVuSans-61" x="235.986328"/>
      <use xlink:href="#DejaVuSans-6e" x="297.265625"/>
      <use xlink:href="#DejaVuSans-20" x="360.644531"/>
      <use xlink:href="#DejaVuSans-72" x="392.431641"/>
      <use xlink:href="#DejaVuSans-61" x="433.544922"/>
      <use xlink:href="#DejaVuSans-74" x="494.824219"/>
      <use xlink:href="#DejaVuSans-69" x="534.033203"/>
      <use xlink:href="#DejaVuSans-6e" x="561.816406"/>
      <use xlink:href="#DejaVuSans-67" x="625.195312"/>
      <use xlink:href="#DejaVuSans-73" x="688.671875"/>
      <use xlink:href="#DejaVuSans-20" x="740.771484"/>
      <use xlink:href="#DejaVuSans-28" x="772.558594"/>
      <use xlink:href="#DejaVuSans-65" x="811.572266"/>
      <use xlink:href="#DejaVuSans-75" x="873.095703"/>
      <use xlink:href="#DejaVuSans-63" x="936.474609"/>
      <use xlink:href="#DejaVuSans-6c" x="991.455078"/>
      <use xlink:href="#DejaVuSans-69" x="1019.238281"/>
      <use xlink:href="#DejaVuSans-64" x="1047.021484"/>
      <use xlink:href="#DejaVuSans-65" x="1110.498047"/>
      <use xlink:href="#DejaVuSans-61" x="1172.021484"/>
      <use xlink:href="#DejaVuSans-6e" x="1233.300781"/>
      <use xlink:href="#DejaVuSans-20" x="1296.679688"/>
      <use xlink:href="#DejaVuSans-64" x="1328.466797"/>
      <use xlink:href="#DejaVuSans-69" x="1391.943359"/>
      <use xlink:href="#DejaVuSans-73" x="1419.726562"/>
      <use xlink:href="#DejaVuSans-74" x="1471.826172"/>
      <use xlink:href="#DejaVuSans-61" x="1511.035156"/>
      <use xlink:href="#DejaVuSans-6e" x="1572.314453"/>
      <use xlink:href="#DejaVuSans-63" x="1635.693359"/>
      <use xlink:href="#DejaVuSans-65" x="1690.673828"/>
      <use xlink:href="#DejaVuSans-29" x="1752.197266"/>
     </g>
    </g>
   </g>
   <g id="matplotlib.axis_2">
    <g id="ytick_1">
     <g id="text_7">
      <!-- 0.2 -->
      <g style="fill: #262626" transform="translate(40.759844 397.454072) scale(0.165 -0.165)">
       <defs>
        <path id="DejaVuSans-2e" d="M 684 794 
L 1344 794 
L 1344 0 
L 684 0 
L 684 794 
z
" transform="scale(0.015625)"/>
       </defs>
       <use xlink:href="#DejaVuSans-30"/>
       <use xlink:href="#DejaVuSans-2e" x="63.623047"/>
       <use xlink:href="#DejaVuSans-32" x="95.410156"/>
      </g>
     </g>
    </g>
    <g id="ytick_2">
     <g id="text_8">
      <!-- 0.3 -->
      <g style="fill: #262626" transform="translate(40.759844 322.272743) scale(0.165 -0.165)">
       <defs>
        <path id="DejaVuSans-33" d="M 2597 2516 
Q 3050 2419 3304 2112 
Q 3559 1806 3559 1356 
Q 3559 666 3084 287 
Q 2609 -91 1734 -91 
Q 1441 -91 1130 -33 
Q 819 25 488 141 
L 488 750 
Q 750 597 1062 519 
Q 1375 441 1716 441 
Q 2309 441 2620 675 
Q 2931 909 2931 1356 
Q 2931 1769 2642 2001 
Q 2353 2234 1838 2234 
L 1294 2234 
L 1294 2753 
L 1863 2753 
Q 2328 2753 2575 2939 
Q 2822 3125 2822 3475 
Q 2822 3834 2567 4026 
Q 2313 4219 1838 4219 
Q 1578 4219 1281 4162 
Q 984 4106 628 3988 
L 628 4550 
Q 988 4650 1302 4700 
Q 1616 4750 1894 4750 
Q 2613 4750 3031 4423 
Q 3450 4097 3450 3541 
Q 3450 3153 3228 2886 
Q 3006 2619 2597 2516 
z
" transform="scale(0.015625)"/>
       </defs>
       <use xlink:href="#DejaVuSans-30"/>
       <use xlink:href="#DejaVuSans-2e" x="63.623047"/>
       <use xlink:href="#DejaVuSans-33" x="95.410156"/>
      </g>
     </g>
    </g>
    <g id="ytick_3">
     <g id="text_9">
      <!-- 0.4 -->
      <g style="fill: #262626" transform="translate(40.759844 247.091414) scale(0.165 -0.165)">
       <use xlink:href="#DejaVuSans-30"/>
       <use xlink:href="#DejaVuSans-2e" x="63.623047"/>
       <use xlink:href="#DejaVuSans-34" x="95.410156"/>
      </g>
     </g>
    </g>
    <g id="ytick_4">
     <g id="text_10">
      <!-- 0.5 -->
      <g style="fill: #262626" transform="translate(40.759844 171.910086) scale(0.165 -0.165)">
       <defs>
        <path id="DejaVuSans-35" d="M 691 4666 
L 3169 4666 
L 3169 4134 
L 1269 4134 
L 1269 2991 
Q 1406 3038 1543 3061 
Q 1681 3084 1819 3084 
Q 2600 3084 3056 2656 
Q 3513 2228 3513 1497 
Q 3513 744 3044 326 
Q 2575 -91 1722 -91 
Q 1428 -91 1123 -41 
Q 819 9 494 109 
L 494 744 
Q 775 591 1075 516 
Q 1375 441 1709 441 
Q 2250 441 2565 725 
Q 2881 1009 2881 1497 
Q 2881 1984 2565 2268 
Q 2250 2553 1709 2553 
Q 1456 2553 1204 2497 
Q 953 2441 691 2322 
L 691 4666 
z
" transform="scale(0.015625)"/>
       </defs>
       <use xlink:href="#DejaVuSans-30"/>
       <use xlink:href="#DejaVuSans-2e" x="63.623047"/>
       <use xlink:href="#DejaVuSans-35" x="95.410156"/>
      </g>
     </g>
    </g>
    <g id="ytick_5">
     <g id="text_11">
      <!-- 0.6 -->
      <g style="fill: #262626" transform="translate(40.759844 96.728757) scale(0.165 -0.165)">
       <use xlink:href="#DejaVuSans-30"/>
       <use xlink:href="#DejaVuSans-2e" x="63.623047"/>
       <use xlink:href="#DejaVuSans-36" x="95.410156"/>
      </g>
     </g>
    </g>
    <g id="text_12">
     <!-- Fasttext space (cosine distance) -->
     <g style="fill: #262626" transform="translate(33.016406 373.210313) rotate(-90) scale(0.18 -0.18)">
      <defs>
       <path id="DejaVuSans-46" d="M 628 4666 
L 3309 4666 
L 3309 4134 
L 1259 4134 
L 1259 2759 
L 3109 2759 
L 3109 2228 
L 1259 2228 
L 1259 0 
L 628 0 
L 628 4666 
z
" transform="scale(0.015625)"/>
       <path id="DejaVuSans-78" d="M 3513 3500 
L 2247 1797 
L 3578 0 
L 2900 0 
L 1881 1375 
L 863 0 
L 184 0 
L 1544 1831 
L 300 3500 
L 978 3500 
L 1906 2253 
L 2834 3500 
L 3513 3500 
z
" transform="scale(0.015625)"/>
       <path id="DejaVuSans-70" d="M 1159 525 
L 1159 -1331 
L 581 -1331 
L 581 3500 
L 1159 3500 
L 1159 2969 
Q 1341 3281 1617 3432 
Q 1894 3584 2278 3584 
Q 2916 3584 3314 3078 
Q 3713 2572 3713 1747 
Q 3713 922 3314 415 
Q 2916 -91 2278 -91 
Q 1894 -91 1617 61 
Q 1341 213 1159 525 
z
M 3116 1747 
Q 3116 2381 2855 2742 
Q 2594 3103 2138 3103 
Q 1681 3103 1420 2742 
Q 1159 2381 1159 1747 
Q 1159 1113 1420 752 
Q 1681 391 2138 391 
Q 2594 391 2855 752 
Q 3116 1113 3116 1747 
z
" transform="scale(0.015625)"/>
       <path id="DejaVuSans-6f" d="M 1959 3097 
Q 1497 3097 1228 2736 
Q 959 2375 959 1747 
Q 959 1119 1226 758 
Q 1494 397 1959 397 
Q 2419 397 2687 759 
Q 2956 1122 2956 1747 
Q 2956 2369 2687 2733 
Q 2419 3097 1959 3097 
z
M 1959 3584 
Q 2709 3584 3137 3096 
Q 3566 2609 3566 1747 
Q 3566 888 3137 398 
Q 2709 -91 1959 -91 
Q 1206 -91 779 398 
Q 353 888 353 1747 
Q 353 2609 779 3096 
Q 1206 3584 1959 3584 
z
" transform="scale(0.015625)"/>
      </defs>
      <use xlink:href="#DejaVuSans-46"/>
      <use xlink:href="#DejaVuSans-61" x="48.394531"/>
      <use xlink:href="#DejaVuSans-73" x="109.673828"/>
      <use xlink:href="#DejaVuSans-74" x="161.773438"/>
      <use xlink:href="#DejaVuSans-74" x="200.982422"/>
      <use xlink:href="#DejaVuSans-65" x="240.191406"/>
      <use xlink:href="#DejaVuSans-78" x="299.964844"/>
      <use xlink:href="#DejaVuSans-74" x="359.144531"/>
      <use xlink:href="#DejaVuSans-20" x="398.353516"/>
      <use xlink:href="#DejaVuSans-73" x="430.140625"/>
      <use xlink:href="#DejaVuSans-70" x="482.240234"/>
      <use xlink:href="#DejaVuSans-61" x="545.716797"/>
      <use xlink:href="#DejaVuSans-63" x="606.996094"/>
      <use xlink:href="#DejaVuSans-65" x="661.976562"/>
      <use xlink:href="#DejaVuSans-20" x="723.5"/>
      <use xlink:href="#DejaVuSans-28" x="755.287109"/>
      <use xlink:href="#DejaVuSans-63" x="794.300781"/>
      <use xlink:href="#DejaVuSans-6f" x="849.28125"/>
      <use xlink:href="#DejaVuSans-73" x="910.462891"/>
      <use xlink:href="#DejaVuSans-69" x="962.5625"/>
      <use xlink:href="#DejaVuSans-6e" x="990.345703"/>
      <use xlink:href="#DejaVuSans-65" x="1053.724609"/>
      <use xlink:href="#DejaVuSans-20" x="1115.248047"/>
      <use xlink:href="#DejaVuSans-64" x="1147.035156"/>
      <use xlink:href="#DejaVuSans-69" x="1210.511719"/>
      <use xlink:href="#DejaVuSans-73" x="1238.294922"/>
      <use xlink:href="#DejaVuSans-74" x="1290.394531"/>
      <use xlink:href="#DejaVuSans-61" x="1329.603516"/>
      <use xlink:href="#DejaVuSans-6e" x="1390.882812"/>
      <use xlink:href="#DejaVuSans-63" x="1454.261719"/>
      <use xlink:href="#DejaVuSans-65" x="1509.242188"/>
      <use xlink:href="#DejaVuSans-29" x="1570.765625"/>
     </g>
    </g>
   </g>
   <g id="PathCollection_1">
    <defs>
     <path id="m230422332c" d="M 0 3.872983 
C 1.027127 3.872983 2.012324 3.464901 2.738613 2.738613 
C 3.464901 2.012324 3.872983 1.027127 3.872983 0 
C 3.872983 -1.027127 3.464901 -2.012324 2.738613 -2.738613 
C 2.012324 -3.464901 1.027127 -3.872983 0 -3.872983 
C -1.027127 -3.872983 -2.012324 -3.464901 -2.738613 -2.738613 
C -3.464901 -2.012324 -3.872983 -1.027127 -3.872983 0 
C -3.872983 1.027127 -3.464901 2.012324 -2.738613 2.738613 
C -2.012324 3.464901 -1.027127 3.872983 0 3.872983 
z
" style="stroke: #000000; stroke-opacity: 0.8; stroke-width: 0.7"/>
    </defs>
    <g clip-path="url(#pa5fc21cdab)">
     <use xlink:href="#m230422332c" x="193.916824" y="292.678605" style="fill: #4c72b0; fill-opacity: 0.8; stroke: #000000; stroke-opacity: 0.8; stroke-width: 0.7"/>
     <use xlink:href="#m230422332c" x="455.010912" y="54.222926" style="fill: #4c72b0; fill-opacity: 0.8; stroke: #000000; stroke-opacity: 0.8; stroke-width: 0.7"/>
     <use xlink:href="#m230422332c" x="379.07776" y="65.11724" style="fill: #4c72b0; fill-opacity: 0.8; stroke: #000000; stroke-opacity: 0.8; stroke-width: 0.7"/>
     <use xlink:href="#m230422332c" x="363.493234" y="238.616134" style="fill: #4c72b0; fill-opacity: 0.8; stroke: #000000; stroke-opacity: 0.8; stroke-width: 0.7"/>
     <use xlink:href="#m230422332c" x="265.668603" y="243.22118" style="fill: #4c72b0; fill-opacity: 0.8; stroke: #000000; stroke-opacity: 0.8; stroke-width: 0.7"/>
     <use xlink:href="#m230422332c" x="246.270304" y="199.519406" style="fill: #4c72b0; fill-opacity: 0.8; stroke: #000000; stroke-opacity: 0.8; stroke-width: 0.7"/>
     <use xlink:href="#m230422332c" x="395.679276" y="217.716975" style="fill: #4c72b0; fill-opacity: 0.8; stroke: #000000; stroke-opacity: 0.8; stroke-width: 0.7"/>
     <use xlink:href="#m230422332c" x="308.020307" y="190.814768" style="fill: #4c72b0; fill-opacity: 0.8; stroke: #000000; stroke-opacity: 0.8; stroke-width: 0.7"/>
     <use xlink:href="#m230422332c" x="177.534906" y="117.009646" style="fill: #4c72b0; fill-opacity: 0.8; stroke: #000000; stroke-opacity: 0.8; stroke-width: 0.7"/>
     <use xlink:href="#m230422332c" x="160.493709" y="284.230584" style="fill: #4c72b0; fill-opacity: 0.8; stroke: #000000; stroke-opacity: 0.8; stroke-width: 0.7"/>
     <use xlink:href="#m230422332c" x="477.160288" y="39.851735" style="fill: #4c72b0; fill-opacity: 0.8; stroke: #000000; stroke-opacity: 0.8; stroke-width: 0.7"/>
     <use xlink:href="#m230422332c" x="408.30097" y="65.926226" style="fill: #4c72b0; fill-opacity: 0.8; stroke: #000000; stroke-opacity: 0.8; stroke-width: 0.7"/>
     <use xlink:href="#m230422332c" x="133.520342" y="319.45775" style="fill: #4c72b0; fill-opacity: 0.8; stroke: #000000; stroke-opacity: 0.8; stroke-width: 0.7"/>
     <use xlink:href="#m230422332c" x="286.571471" y="158.034119" style="fill: #4c72b0; fill-opacity: 0.8; stroke: #000000; stroke-opacity: 0.8; stroke-width: 0.7"/>
     <use xlink:href="#m230422332c" x="217.757225" y="85.047397" style="fill: #4c72b0; fill-opacity: 0.8; stroke: #000000; stroke-opacity: 0.8; stroke-width: 0.7"/>
     <use xlink:href="#m230422332c" x="505.891246" y="186.346186" style="fill: #4c72b0; fill-opacity: 0.8; stroke: #000000; stroke-opacity: 0.8; stroke-width: 0.7"/>
     <use xlink:href="#m230422332c" x="500.178821" y="184.350494" style="fill: #4c72b0; fill-opacity: 0.8; stroke: #000000; stroke-opacity: 0.8; stroke-width: 0.7"/>
     <use xlink:href="#m230422332c" x="382.814868" y="78.806577" style="fill: #4c72b0; fill-opacity: 0.8; stroke: #000000; stroke-opacity: 0.8; stroke-width: 0.7"/>
     <use xlink:href="#m230422332c" x="485.024596" y="226.599748" style="fill: #4c72b0; fill-opacity: 0.8; stroke: #000000; stroke-opacity: 0.8; stroke-width: 0.7"/>
     <use xlink:href="#m230422332c" x="432.651877" y="159.911802" style="fill: #4c72b0; fill-opacity: 0.8; stroke: #000000; stroke-opacity: 0.8; stroke-width: 0.7"/>
     <use xlink:href="#m230422332c" x="352.940662" y="79.84247" style="fill: #4c72b0; fill-opacity: 0.8; stroke: #000000; stroke-opacity: 0.8; stroke-width: 0.7"/>
     <use xlink:href="#m230422332c" x="502.140213" y="199.116384" style="fill: #4c72b0; fill-opacity: 0.8; stroke: #000000; stroke-opacity: 0.8; stroke-width: 0.7"/>
     <use xlink:href="#m230422332c" x="494.800995" y="204.574968" style="fill: #4c72b0; fill-opacity: 0.8; stroke: #000000; stroke-opacity: 0.8; stroke-width: 0.7"/>
     <use xlink:href="#m230422332c" x="374.842532" y="89.174758" style="fill: #4c72b0; fill-opacity: 0.8; stroke: #000000; stroke-opacity: 0.8; stroke-width: 0.7"/>
     <use xlink:href="#m230422332c" x="477.650034" y="193.117132" style="fill: #4c72b0; fill-opacity: 0.8; stroke: #000000; stroke-opacity: 0.8; stroke-width: 0.7"/>
     <use xlink:href="#m230422332c" x="424.959238" y="180.050247" style="fill: #4c72b0; fill-opacity: 0.8; stroke: #000000; stroke-opacity: 0.8; stroke-width: 0.7"/>
     <use xlink:href="#m230422332c" x="344.97669" y="68.759037" style="fill: #4c72b0; fill-opacity: 0.8; stroke: #000000; stroke-opacity: 0.8; stroke-width: 0.7"/>
     <use xlink:href="#m230422332c" x="99.63" y="321.93713" style="fill: #4c72b0; fill-opacity: 0.8; stroke: #000000; stroke-opacity: 0.8; stroke-width: 0.7"/>
     <use xlink:href="#m230422332c" x="500.273237" y="156.102424" style="fill: #4c72b0; fill-opacity: 0.8; stroke: #000000; stroke-opacity: 0.8; stroke-width: 0.7"/>
     <use xlink:href="#m230422332c" x="525.30284" y="149.304374" style="fill: #4c72b0; fill-opacity: 0.8; stroke: #000000; stroke-opacity: 0.8; stroke-width: 0.7"/>
     <use xlink:href="#m230422332c" x="485.252047" y="79.820053" style="fill: #4c72b0; fill-opacity: 0.8; stroke: #000000; stroke-opacity: 0.8; stroke-width: 0.7"/>
     <use xlink:href="#m230422332c" x="557.543192" y="167.271779" style="fill: #4c72b0; fill-opacity: 0.8; stroke: #000000; stroke-opacity: 0.8; stroke-width: 0.7"/>
     <use xlink:href="#m230422332c" x="517.523848" y="121.527698" style="fill: #4c72b0; fill-opacity: 0.8; stroke: #000000; stroke-opacity: 0.8; stroke-width: 0.7"/>
     <use xlink:href="#m230422332c" x="462.178271" y="105.946658" style="fill: #4c72b0; fill-opacity: 0.8; stroke: #000000; stroke-opacity: 0.8; stroke-width: 0.7"/>
     <use xlink:href="#m230422332c" x="217.721609" y="206.96602" style="fill: #4c72b0; fill-opacity: 0.8; stroke: #000000; stroke-opacity: 0.8; stroke-width: 0.7"/>
     <use xlink:href="#m230422332c" x="223.946714" y="248.992071" style="fill: #4c72b0; fill-opacity: 0.8; stroke: #000000; stroke-opacity: 0.8; stroke-width: 0.7"/>
     <use xlink:href="#m230422332c" x="469.39021" y="240.46244" style="fill: #4c72b0; fill-opacity: 0.8; stroke: #000000; stroke-opacity: 0.8; stroke-width: 0.7"/>
     <use xlink:href="#m230422332c" x="497.855077" y="166.397229" style="fill: #4c72b0; fill-opacity: 0.8; stroke: #000000; stroke-opacity: 0.8; stroke-width: 0.7"/>
     <use xlink:href="#m230422332c" x="476.308092" y="164.123368" style="fill: #4c72b0; fill-opacity: 0.8; stroke: #000000; stroke-opacity: 0.8; stroke-width: 0.7"/>
     <use xlink:href="#m230422332c" x="538.878014" y="317.222506" style="fill: #4c72b0; fill-opacity: 0.8; stroke: #000000; stroke-opacity: 0.8; stroke-width: 0.7"/>
     <use xlink:href="#m230422332c" x="502.51504" y="134.279406" style="fill: #4c72b0; fill-opacity: 0.8; stroke: #000000; stroke-opacity: 0.8; stroke-width: 0.7"/>
     <use xlink:href="#m230422332c" x="456.245761" y="105.824217" style="fill: #4c72b0; fill-opacity: 0.8; stroke: #000000; stroke-opacity: 0.8; stroke-width: 0.7"/>
     <use xlink:href="#m230422332c" x="228.109136" y="235.808203" style="fill: #4c72b0; fill-opacity: 0.8; stroke: #000000; stroke-opacity: 0.8; stroke-width: 0.7"/>
     <use xlink:href="#m230422332c" x="233.013867" y="196.412845" style="fill: #4c72b0; fill-opacity: 0.8; stroke: #000000; stroke-opacity: 0.8; stroke-width: 0.7"/>
     <use xlink:href="#m230422332c" x="124.255031" y="222.418536" style="fill: #4c72b0; fill-opacity: 0.8; stroke: #000000; stroke-opacity: 0.8; stroke-width: 0.7"/>
     <use xlink:href="#m230422332c" x="436.180039" y="268.164257" style="fill: #4c72b0; fill-opacity: 0.8; stroke: #000000; stroke-opacity: 0.8; stroke-width: 0.7"/>
     <use xlink:href="#m230422332c" x="486.511793" y="252.244913" style="fill: #4c72b0; fill-opacity: 0.8; stroke: #000000; stroke-opacity: 0.8; stroke-width: 0.7"/>
     <use xlink:href="#m230422332c" x="527.660504" y="46.207809" style="fill: #4c72b0; fill-opacity: 0.8; stroke: #000000; stroke-opacity: 0.8; stroke-width: 0.7"/>
     <use xlink:href="#m230422332c" x="562.23" y="207.235434" style="fill: #4c72b0; fill-opacity: 0.8; stroke: #000000; stroke-opacity: 0.8; stroke-width: 0.7"/>
     <use xlink:href="#m230422332c" x="537.857623" y="226.191619" style="fill: #4c72b0; fill-opacity: 0.8; stroke: #000000; stroke-opacity: 0.8; stroke-width: 0.7"/>
     <use xlink:href="#m230422332c" x="514.5512" y="105.159748" style="fill: #4c72b0; fill-opacity: 0.8; stroke: #000000; stroke-opacity: 0.8; stroke-width: 0.7"/>
     <use xlink:href="#m230422332c" x="315.002438" y="298.158268" style="fill: #4c72b0; fill-opacity: 0.8; stroke: #000000; stroke-opacity: 0.8; stroke-width: 0.7"/>
     <use xlink:href="#m230422332c" x="318.825899" y="316.972174" style="fill: #4c72b0; fill-opacity: 0.8; stroke: #000000; stroke-opacity: 0.8; stroke-width: 0.7"/>
     <use xlink:href="#m230422332c" x="208.772475" y="267.662618" style="fill: #4c72b0; fill-opacity: 0.8; stroke: #000000; stroke-opacity: 0.8; stroke-width: 0.7"/>
     <use xlink:href="#m230422332c" x="182.650913" y="213.720005" style="fill: #4c72b0; fill-opacity: 0.8; stroke: #000000; stroke-opacity: 0.8; stroke-width: 0.7"/>
     <use xlink:href="#m230422332c" x="312.235146" y="270.417212" style="fill: #4c72b0; fill-opacity: 0.8; stroke: #000000; stroke-opacity: 0.8; stroke-width: 0.7"/>
     <use xlink:href="#m230422332c" x="382.107509" y="212.826264" style="fill: #4c72b0; fill-opacity: 0.8; stroke: #000000; stroke-opacity: 0.8; stroke-width: 0.7"/>
     <use xlink:href="#m230422332c" x="509.099229" y="49.416541" style="fill: #4c72b0; fill-opacity: 0.8; stroke: #000000; stroke-opacity: 0.8; stroke-width: 0.7"/>
     <use xlink:href="#m230422332c" x="497.485701" y="229.348377" style="fill: #4c72b0; fill-opacity: 0.8; stroke: #000000; stroke-opacity: 0.8; stroke-width: 0.7"/>
     <use xlink:href="#m230422332c" x="492.57248" y="131.186549" style="fill: #4c72b0; fill-opacity: 0.8; stroke: #000000; stroke-opacity: 0.8; stroke-width: 0.7"/>
     <use xlink:href="#m230422332c" x="509.231856" y="54.996291" style="fill: #4c72b0; fill-opacity: 0.8; stroke: #000000; stroke-opacity: 0.8; stroke-width: 0.7"/>
     <use xlink:href="#m230422332c" x="390.886802" y="210.348403" style="fill: #4c72b0; fill-opacity: 0.8; stroke: #000000; stroke-opacity: 0.8; stroke-width: 0.7"/>
     <use xlink:href="#m230422332c" x="391.338783" y="168.965165" style="fill: #4c72b0; fill-opacity: 0.8; stroke: #000000; stroke-opacity: 0.8; stroke-width: 0.7"/>
     <use xlink:href="#m230422332c" x="325.360028" y="128.696353" style="fill: #4c72b0; fill-opacity: 0.8; stroke: #000000; stroke-opacity: 0.8; stroke-width: 0.7"/>
     <use xlink:href="#m230422332c" x="293.050211" y="236.264933" style="fill: #4c72b0; fill-opacity: 0.8; stroke: #000000; stroke-opacity: 0.8; stroke-width: 0.7"/>
     <use xlink:href="#m230422332c" x="227.771003" y="221.127292" style="fill: #4c72b0; fill-opacity: 0.8; stroke: #000000; stroke-opacity: 0.8; stroke-width: 0.7"/>
     <use xlink:href="#m230422332c" x="386.112715" y="244.021356" style="fill: #4c72b0; fill-opacity: 0.8; stroke: #000000; stroke-opacity: 0.8; stroke-width: 0.7"/>
     <use xlink:href="#m230422332c" x="449.175831" y="240.742081" style="fill: #4c72b0; fill-opacity: 0.8; stroke: #000000; stroke-opacity: 0.8; stroke-width: 0.7"/>
     <use xlink:href="#m230422332c" x="535.925458" y="115.121517" style="fill: #4c72b0; fill-opacity: 0.8; stroke: #000000; stroke-opacity: 0.8; stroke-width: 0.7"/>
     <use xlink:href="#m230422332c" x="547.497651" y="227.843791" style="fill: #4c72b0; fill-opacity: 0.8; stroke: #000000; stroke-opacity: 0.8; stroke-width: 0.7"/>
     <use xlink:href="#m230422332c" x="532.923022" y="166.916111" style="fill: #4c72b0; fill-opacity: 0.8; stroke: #000000; stroke-opacity: 0.8; stroke-width: 0.7"/>
     <use xlink:href="#m230422332c" x="529.0805" y="171.143183" style="fill: #4c72b0; fill-opacity: 0.8; stroke: #000000; stroke-opacity: 0.8; stroke-width: 0.7"/>
     <use xlink:href="#m230422332c" x="363.540644" y="255.712042" style="fill: #4c72b0; fill-opacity: 0.8; stroke: #000000; stroke-opacity: 0.8; stroke-width: 0.7"/>
     <use xlink:href="#m230422332c" x="365.93279" y="252.305917" style="fill: #4c72b0; fill-opacity: 0.8; stroke: #000000; stroke-opacity: 0.8; stroke-width: 0.7"/>
     <use xlink:href="#m230422332c" x="272.352492" y="245.714056" style="fill: #4c72b0; fill-opacity: 0.8; stroke: #000000; stroke-opacity: 0.8; stroke-width: 0.7"/>
     <use xlink:href="#m230422332c" x="242.659684" y="263.010406" style="fill: #4c72b0; fill-opacity: 0.8; stroke: #000000; stroke-opacity: 0.8; stroke-width: 0.7"/>
     <use xlink:href="#m230422332c" x="159.651166" y="379.527629" style="fill: #4c72b0; fill-opacity: 0.8; stroke: #000000; stroke-opacity: 0.8; stroke-width: 0.7"/>
     <use xlink:href="#m230422332c" x="167.087037" y="237.717329" style="fill: #4c72b0; fill-opacity: 0.8; stroke: #000000; stroke-opacity: 0.8; stroke-width: 0.7"/>
     <use xlink:href="#m230422332c" x="417.881447" y="174.841441" style="fill: #4c72b0; fill-opacity: 0.8; stroke: #000000; stroke-opacity: 0.8; stroke-width: 0.7"/>
     <use xlink:href="#m230422332c" x="474.772243" y="136.842174" style="fill: #4c72b0; fill-opacity: 0.8; stroke: #000000; stroke-opacity: 0.8; stroke-width: 0.7"/>
     <use xlink:href="#m230422332c" x="537.159599" y="38.43" style="fill: #4c72b0; fill-opacity: 0.8; stroke: #000000; stroke-opacity: 0.8; stroke-width: 0.7"/>
     <use xlink:href="#m230422332c" x="561.455179" y="114.784949" style="fill: #4c72b0; fill-opacity: 0.8; stroke: #000000; stroke-opacity: 0.8; stroke-width: 0.7"/>
     <use xlink:href="#m230422332c" x="541.49829" y="164.289798" style="fill: #4c72b0; fill-opacity: 0.8; stroke: #000000; stroke-opacity: 0.8; stroke-width: 0.7"/>
     <use xlink:href="#m230422332c" x="526.746338" y="61.129949" style="fill: #4c72b0; fill-opacity: 0.8; stroke: #000000; stroke-opacity: 0.8; stroke-width: 0.7"/>
     <use xlink:href="#m230422332c" x="340.56665" y="191.527362" style="fill: #4c72b0; fill-opacity: 0.8; stroke: #000000; stroke-opacity: 0.8; stroke-width: 0.7"/>
     <use xlink:href="#m230422332c" x="343.8444" y="121.866942" style="fill: #4c72b0; fill-opacity: 0.8; stroke: #000000; stroke-opacity: 0.8; stroke-width: 0.7"/>
     <use xlink:href="#m230422332c" x="239.290789" y="141.702001" style="fill: #4c72b0; fill-opacity: 0.8; stroke: #000000; stroke-opacity: 0.8; stroke-width: 0.7"/>
     <use xlink:href="#m230422332c" x="211.820186" y="103.216917" style="fill: #4c72b0; fill-opacity: 0.8; stroke: #000000; stroke-opacity: 0.8; stroke-width: 0.7"/>
     <use xlink:href="#m230422332c" x="122.778286" y="204.434828" style="fill: #4c72b0; fill-opacity: 0.8; stroke: #000000; stroke-opacity: 0.8; stroke-width: 0.7"/>
     <use xlink:href="#m230422332c" x="202.841107" y="144.397166" style="fill: #4c72b0; fill-opacity: 0.8; stroke: #000000; stroke-opacity: 0.8; stroke-width: 0.7"/>
     <use xlink:href="#m230422332c" x="130.024371" y="136.008495" style="fill: #4c72b0; fill-opacity: 0.8; stroke: #000000; stroke-opacity: 0.8; stroke-width: 0.7"/>
     <use xlink:href="#m230422332c" x="117.440583" y="418.23" style="fill: #4c72b0; fill-opacity: 0.8; stroke: #000000; stroke-opacity: 0.8; stroke-width: 0.7"/>
     <use xlink:href="#m230422332c" x="208.36336" y="266.641687" style="fill: #4c72b0; fill-opacity: 0.8; stroke: #000000; stroke-opacity: 0.8; stroke-width: 0.7"/>
     <use xlink:href="#m230422332c" x="452.300549" y="92.419631" style="fill: #4c72b0; fill-opacity: 0.8; stroke: #000000; stroke-opacity: 0.8; stroke-width: 0.7"/>
     <use xlink:href="#m230422332c" x="371.201103" y="190.054948" style="fill: #4c72b0; fill-opacity: 0.8; stroke: #000000; stroke-opacity: 0.8; stroke-width: 0.7"/>
     <use xlink:href="#m230422332c" x="397.962156" y="204.784388" style="fill: #4c72b0; fill-opacity: 0.8; stroke: #000000; stroke-opacity: 0.8; stroke-width: 0.7"/>
     <use xlink:href="#m230422332c" x="471.967175" y="52.899183" style="fill: #4c72b0; fill-opacity: 0.8; stroke: #000000; stroke-opacity: 0.8; stroke-width: 0.7"/>
     <use xlink:href="#m230422332c" x="486.056354" y="160.476607" style="fill: #4c72b0; fill-opacity: 0.8; stroke: #000000; stroke-opacity: 0.8; stroke-width: 0.7"/>
     <use xlink:href="#m230422332c" x="482.600081" y="171.697913" style="fill: #4c72b0; fill-opacity: 0.8; stroke: #000000; stroke-opacity: 0.8; stroke-width: 0.7"/>
     <use xlink:href="#m230422332c" x="476.300839" y="124.256824" style="fill: #4c72b0; fill-opacity: 0.8; stroke: #000000; stroke-opacity: 0.8; stroke-width: 0.7"/>
     <use xlink:href="#m230422332c" x="445.174264" y="190.430295" style="fill: #4c72b0; fill-opacity: 0.8; stroke: #000000; stroke-opacity: 0.8; stroke-width: 0.7"/>
     <use xlink:href="#m230422332c" x="410.53966" y="235.396616" style="fill: #4c72b0; fill-opacity: 0.8; stroke: #000000; stroke-opacity: 0.8; stroke-width: 0.7"/>
     <use xlink:href="#m230422332c" x="286.591886" y="221.377287" style="fill: #4c72b0; fill-opacity: 0.8; stroke: #000000; stroke-opacity: 0.8; stroke-width: 0.7"/>
     <use xlink:href="#m230422332c" x="360.345348" y="230.017054" style="fill: #4c72b0; fill-opacity: 0.8; stroke: #000000; stroke-opacity: 0.8; stroke-width: 0.7"/>
     <use xlink:href="#m230422332c" x="392.102308" y="118.10251" style="fill: #4c72b0; fill-opacity: 0.8; stroke: #000000; stroke-opacity: 0.8; stroke-width: 0.7"/>
     <use xlink:href="#m230422332c" x="520.124939" y="119.178345" style="fill: #4c72b0; fill-opacity: 0.8; stroke: #000000; stroke-opacity: 0.8; stroke-width: 0.7"/>
     <use xlink:href="#m230422332c" x="488.84024" y="119.777801" style="fill: #4c72b0; fill-opacity: 0.8; stroke: #000000; stroke-opacity: 0.8; stroke-width: 0.7"/>
     <use xlink:href="#m230422332c" x="301.025039" y="172.466014" style="fill: #4c72b0; fill-opacity: 0.8; stroke: #000000; stroke-opacity: 0.8; stroke-width: 0.7"/>
     <use xlink:href="#m230422332c" x="429.778618" y="149.433284" style="fill: #4c72b0; fill-opacity: 0.8; stroke: #000000; stroke-opacity: 0.8; stroke-width: 0.7"/>
     <use xlink:href="#m230422332c" x="367.763591" y="50.170517" style="fill: #4c72b0; fill-opacity: 0.8; stroke: #000000; stroke-opacity: 0.8; stroke-width: 0.7"/>
     <use xlink:href="#m230422332c" x="264.47459" y="126.962628" style="fill: #4c72b0; fill-opacity: 0.8; stroke: #000000; stroke-opacity: 0.8; stroke-width: 0.7"/>
     <use xlink:href="#m230422332c" x="196.440033" y="262.520979" style="fill: #4c72b0; fill-opacity: 0.8; stroke: #000000; stroke-opacity: 0.8; stroke-width: 0.7"/>
     <use xlink:href="#m230422332c" x="189.551023" y="197.548916" style="fill: #4c72b0; fill-opacity: 0.8; stroke: #000000; stroke-opacity: 0.8; stroke-width: 0.7"/>
     <use xlink:href="#m230422332c" x="321.522259" y="167.284465" style="fill: #4c72b0; fill-opacity: 0.8; stroke: #000000; stroke-opacity: 0.8; stroke-width: 0.7"/>
     <use xlink:href="#m230422332c" x="327.636679" y="145.493802" style="fill: #4c72b0; fill-opacity: 0.8; stroke: #000000; stroke-opacity: 0.8; stroke-width: 0.7"/>
     <use xlink:href="#m230422332c" x="408.025772" y="152.729623" style="fill: #4c72b0; fill-opacity: 0.8; stroke: #000000; stroke-opacity: 0.8; stroke-width: 0.7"/>
     <use xlink:href="#m230422332c" x="456.969856" y="113.302129" style="fill: #4c72b0; fill-opacity: 0.8; stroke: #000000; stroke-opacity: 0.8; stroke-width: 0.7"/>
     <use xlink:href="#m230422332c" x="446.309221" y="162.667226" style="fill: #4c72b0; fill-opacity: 0.8; stroke: #000000; stroke-opacity: 0.8; stroke-width: 0.7"/>
     <use xlink:href="#m230422332c" x="429.86544" y="71.486721" style="fill: #4c72b0; fill-opacity: 0.8; stroke: #000000; stroke-opacity: 0.8; stroke-width: 0.7"/>
     <use xlink:href="#m230422332c" x="505.016851" y="115.140576" style="fill: #4c72b0; fill-opacity: 0.8; stroke: #000000; stroke-opacity: 0.8; stroke-width: 0.7"/>
     <use xlink:href="#m230422332c" x="267.373561" y="332.742657" style="fill: #4c72b0; fill-opacity: 0.8; stroke: #000000; stroke-opacity: 0.8; stroke-width: 0.7"/>
     <use xlink:href="#m230422332c" x="358.652828" y="260.359786" style="fill: #4c72b0; fill-opacity: 0.8; stroke: #000000; stroke-opacity: 0.8; stroke-width: 0.7"/>
     <use xlink:href="#m230422332c" x="546.44602" y="71.022688" style="fill: #4c72b0; fill-opacity: 0.8; stroke: #000000; stroke-opacity: 0.8; stroke-width: 0.7"/>
     <use xlink:href="#m230422332c" x="503.869916" y="140.305275" style="fill: #4c72b0; fill-opacity: 0.8; stroke: #000000; stroke-opacity: 0.8; stroke-width: 0.7"/>
     <use xlink:href="#m230422332c" x="513.656952" y="176.252843" style="fill: #4c72b0; fill-opacity: 0.8; stroke: #000000; stroke-opacity: 0.8; stroke-width: 0.7"/>
     <use xlink:href="#m230422332c" x="554.067707" y="72.092168" style="fill: #4c72b0; fill-opacity: 0.8; stroke: #000000; stroke-opacity: 0.8; stroke-width: 0.7"/>
     <use xlink:href="#m230422332c" x="472.461716" y="170.901442" style="fill: #4c72b0; fill-opacity: 0.8; stroke: #000000; stroke-opacity: 0.8; stroke-width: 0.7"/>
     <use xlink:href="#m230422332c" x="472.066447" y="176.894968" style="fill: #4c72b0; fill-opacity: 0.8; stroke: #000000; stroke-opacity: 0.8; stroke-width: 0.7"/>
     <use xlink:href="#m230422332c" x="414.003679" y="200.164919" style="fill: #4c72b0; fill-opacity: 0.8; stroke: #000000; stroke-opacity: 0.8; stroke-width: 0.7"/>
     <use xlink:href="#m230422332c" x="381.623977" y="172.135044" style="fill: #4c72b0; fill-opacity: 0.8; stroke: #000000; stroke-opacity: 0.8; stroke-width: 0.7"/>
     <use xlink:href="#m230422332c" x="313.80919" y="274.78194" style="fill: #4c72b0; fill-opacity: 0.8; stroke: #000000; stroke-opacity: 0.8; stroke-width: 0.7"/>
     <use xlink:href="#m230422332c" x="180.369859" y="264.020932" style="fill: #4c72b0; fill-opacity: 0.8; stroke: #000000; stroke-opacity: 0.8; stroke-width: 0.7"/>
     <use xlink:href="#m230422332c" x="248.025563" y="265.3646" style="fill: #4c72b0; fill-opacity: 0.8; stroke: #000000; stroke-opacity: 0.8; stroke-width: 0.7"/>
     <use xlink:href="#m230422332c" x="286.181661" y="202.239784" style="fill: #4c72b0; fill-opacity: 0.8; stroke: #000000; stroke-opacity: 0.8; stroke-width: 0.7"/>
     <use xlink:href="#m230422332c" x="245.12373" y="326.272084" style="fill: #4c72b0; fill-opacity: 0.8; stroke: #000000; stroke-opacity: 0.8; stroke-width: 0.7"/>
     <use xlink:href="#m230422332c" x="528.318233" y="160.407771" style="fill: #4c72b0; fill-opacity: 0.8; stroke: #000000; stroke-opacity: 0.8; stroke-width: 0.7"/>
     <use xlink:href="#m230422332c" x="315.248266" y="321.35803" style="fill: #4c72b0; fill-opacity: 0.8; stroke: #000000; stroke-opacity: 0.8; stroke-width: 0.7"/>
     <use xlink:href="#m230422332c" x="379.314101" y="258.306088" style="fill: #4c72b0; fill-opacity: 0.8; stroke: #000000; stroke-opacity: 0.8; stroke-width: 0.7"/>
     <use xlink:href="#m230422332c" x="493.895948" y="74.061772" style="fill: #4c72b0; fill-opacity: 0.8; stroke: #000000; stroke-opacity: 0.8; stroke-width: 0.7"/>
     <use xlink:href="#m230422332c" x="487.67381" y="205.651032" style="fill: #4c72b0; fill-opacity: 0.8; stroke: #000000; stroke-opacity: 0.8; stroke-width: 0.7"/>
     <use xlink:href="#m230422332c" x="480.103202" y="202.266529" style="fill: #4c72b0; fill-opacity: 0.8; stroke: #000000; stroke-opacity: 0.8; stroke-width: 0.7"/>
     <use xlink:href="#m230422332c" x="492.936893" y="69.810231" style="fill: #4c72b0; fill-opacity: 0.8; stroke: #000000; stroke-opacity: 0.8; stroke-width: 0.7"/>
     <use xlink:href="#m230422332c" x="372.038565" y="240.442105" style="fill: #4c72b0; fill-opacity: 0.8; stroke: #000000; stroke-opacity: 0.8; stroke-width: 0.7"/>
     <use xlink:href="#m230422332c" x="372.422534" y="246.899698" style="fill: #4c72b0; fill-opacity: 0.8; stroke: #000000; stroke-opacity: 0.8; stroke-width: 0.7"/>
     <use xlink:href="#m230422332c" x="309.34586" y="213.063781" style="fill: #4c72b0; fill-opacity: 0.8; stroke: #000000; stroke-opacity: 0.8; stroke-width: 0.7"/>
     <use xlink:href="#m230422332c" x="276.86109" y="255.910446" style="fill: #4c72b0; fill-opacity: 0.8; stroke: #000000; stroke-opacity: 0.8; stroke-width: 0.7"/>
     <use xlink:href="#m230422332c" x="217.062867" y="316.979518" style="fill: #4c72b0; fill-opacity: 0.8; stroke: #000000; stroke-opacity: 0.8; stroke-width: 0.7"/>
     <use xlink:href="#m230422332c" x="110.695214" y="203.881181" style="fill: #4c72b0; fill-opacity: 0.8; stroke: #000000; stroke-opacity: 0.8; stroke-width: 0.7"/>
     <use xlink:href="#m230422332c" x="162.799789" y="328.332589" style="fill: #4c72b0; fill-opacity: 0.8; stroke: #000000; stroke-opacity: 0.8; stroke-width: 0.7"/>
     <use xlink:href="#m230422332c" x="194.988903" y="124.644664" style="fill: #4c72b0; fill-opacity: 0.8; stroke: #000000; stroke-opacity: 0.8; stroke-width: 0.7"/>
     <use xlink:href="#m230422332c" x="289.461187" y="346.028976" style="fill: #4c72b0; fill-opacity: 0.8; stroke: #000000; stroke-opacity: 0.8; stroke-width: 0.7"/>
     <use xlink:href="#m230422332c" x="438.039872" y="115.42022" style="fill: #4c72b0; fill-opacity: 0.8; stroke: #000000; stroke-opacity: 0.8; stroke-width: 0.7"/>
     <use xlink:href="#m230422332c" x="196.656782" y="312.270783" style="fill: #4c72b0; fill-opacity: 0.8; stroke: #000000; stroke-opacity: 0.8; stroke-width: 0.7"/>
    </g>
   </g>
   <g id="PolyCollection_1">
    <defs>
     <path id="m203e44d9e5" d="M 99.63 -263.132169 
L 99.63 -201.236308 
L 104.302727 -203.100944 
L 108.975455 -204.965581 
L 113.648182 -206.830218 
L 118.320909 -208.694854 
L 122.993636 -210.571648 
L 127.666364 -212.475102 
L 132.339091 -214.378557 
L 137.011818 -216.282011 
L 141.684545 -218.147537 
L 146.357273 -219.959335 
L 151.03 -221.771133 
L 155.702727 -223.662723 
L 160.375455 -225.635663 
L 165.048182 -227.60958 
L 169.720909 -229.425162 
L 174.393636 -231.130922 
L 179.066364 -232.959356 
L 183.739091 -234.785071 
L 188.411818 -236.645632 
L 193.084545 -238.496775 
L 197.757273 -240.302281 
L 202.43 -242.133636 
L 207.102727 -243.918197 
L 211.775455 -245.717877 
L 216.448182 -247.525436 
L 221.120909 -249.337392 
L 225.793636 -251.243488 
L 230.466364 -253.275257 
L 235.139091 -254.953847 
L 239.811818 -256.587514 
L 244.484545 -258.354625 
L 249.157273 -260.170158 
L 253.83 -261.974301 
L 258.502727 -263.781975 
L 263.175455 -265.590539 
L 267.848182 -267.39925 
L 272.520909 -269.226518 
L 277.193636 -271.076653 
L 281.866364 -272.858422 
L 286.539091 -274.654867 
L 291.211818 -276.598385 
L 295.884545 -278.245472 
L 300.557273 -280.045064 
L 305.23 -281.93356 
L 309.902727 -283.656322 
L 314.575455 -285.458922 
L 319.248182 -287.08438 
L 323.920909 -288.758095 
L 328.593636 -290.536649 
L 333.266364 -292.00395 
L 337.939091 -293.580521 
L 342.611818 -295.354663 
L 347.284545 -296.934578 
L 351.957273 -298.571469 
L 356.63 -300.108404 
L 361.302727 -301.767809 
L 365.975455 -303.245514 
L 370.648182 -304.784857 
L 375.320909 -306.357208 
L 379.993636 -307.976252 
L 384.666364 -309.580272 
L 389.339091 -311.058766 
L 394.011818 -312.522258 
L 398.684545 -313.989027 
L 403.357273 -315.578965 
L 408.03 -316.988396 
L 412.702727 -318.40386 
L 417.375455 -319.806271 
L 422.048182 -321.258142 
L 426.720909 -322.619876 
L 431.393636 -323.940034 
L 436.066364 -325.431516 
L 440.739091 -326.843738 
L 445.411818 -328.282326 
L 450.084545 -329.63746 
L 454.757273 -330.756975 
L 459.43 -332.108007 
L 464.102727 -333.453122 
L 468.775455 -334.597391 
L 473.448182 -335.822821 
L 478.120909 -337.228803 
L 482.793636 -338.568485 
L 487.466364 -339.625054 
L 492.139091 -340.681745 
L 496.811818 -341.731913 
L 501.484545 -342.799654 
L 506.157273 -343.872986 
L 510.83 -345.12593 
L 515.502727 -346.381087 
L 520.175455 -347.640635 
L 524.848182 -348.852565 
L 529.520909 -350.003109 
L 534.193636 -351.170346 
L 538.866364 -352.243924 
L 543.539091 -353.489468 
L 548.211818 -354.780262 
L 552.884545 -356.074578 
L 557.557273 -357.360549 
L 562.23 -358.421796 
L 562.23 -395.347173 
L 562.23 -395.347173 
L 557.557273 -393.463967 
L 552.884545 -391.69393 
L 548.211818 -389.9278 
L 543.539091 -388.009732 
L 538.866364 -386.317757 
L 534.193636 -384.615772 
L 529.520909 -382.86665 
L 524.848182 -381.106249 
L 520.175455 -379.337348 
L 515.502727 -377.596646 
L 510.83 -375.780808 
L 506.157273 -374.051289 
L 501.484545 -372.233092 
L 496.811818 -370.521494 
L 492.139091 -368.808512 
L 487.466364 -367.023808 
L 482.793636 -365.424349 
L 478.120909 -363.82489 
L 473.448182 -362.227531 
L 468.775455 -360.57757 
L 464.102727 -359.037602 
L 459.43 -357.434986 
L 454.757273 -355.835764 
L 450.084545 -354.13742 
L 445.411818 -352.634158 
L 440.739091 -350.94932 
L 436.066364 -349.406024 
L 431.393636 -347.863384 
L 426.720909 -346.329369 
L 422.048182 -344.707379 
L 417.375455 -343.044759 
L 412.702727 -341.359729 
L 408.03 -340.017194 
L 403.357273 -338.674831 
L 398.684545 -337.20003 
L 394.011818 -335.927805 
L 389.339091 -334.674371 
L 384.666364 -333.315889 
L 379.993636 -332.173983 
L 375.320909 -330.568627 
L 370.648182 -329.374149 
L 365.975455 -328.209029 
L 361.302727 -326.944277 
L 356.63 -325.626253 
L 351.957273 -324.403907 
L 347.284545 -323.068389 
L 342.611818 -321.661362 
L 337.939091 -320.234373 
L 333.266364 -318.895078 
L 328.593636 -317.451442 
L 323.920909 -316.243503 
L 319.248182 -315.211721 
L 314.575455 -314.14925 
L 309.902727 -313.145964 
L 305.23 -312.113946 
L 300.557273 -310.893289 
L 295.884545 -309.627536 
L 291.211818 -308.361783 
L 286.539091 -307.273335 
L 281.866364 -306.119881 
L 277.193636 -305.141202 
L 272.520909 -304.153115 
L 267.848182 -302.963109 
L 263.175455 -301.874441 
L 258.502727 -300.736184 
L 253.83 -299.402581 
L 249.157273 -298.189861 
L 244.484545 -296.996549 
L 239.811818 -295.927602 
L 235.139091 -294.910017 
L 230.466364 -293.655827 
L 225.793636 -292.441958 
L 221.120909 -291.434283 
L 216.448182 -290.461823 
L 211.775455 -289.475487 
L 207.102727 -288.445634 
L 202.43 -287.32337 
L 197.757273 -286.158716 
L 193.084545 -284.994062 
L 188.411818 -283.829409 
L 183.739091 -282.664755 
L 179.066364 -281.500101 
L 174.393636 -280.335448 
L 169.720909 -279.179403 
L 165.048182 -278.083219 
L 160.375455 -276.987034 
L 155.702727 -275.890849 
L 151.03 -274.812861 
L 146.357273 -273.753409 
L 141.684545 -272.690134 
L 137.011818 -271.626501 
L 132.339091 -270.562869 
L 127.666364 -269.499236 
L 122.993636 -268.435604 
L 118.320909 -267.371971 
L 113.648182 -266.308339 
L 108.975455 -265.365678 
L 104.302727 -264.286264 
L 99.63 -263.132169 
z
" style="stroke: #ffffff; stroke-opacity: 0.15"/>
    </defs>
    <g clip-path="url(#pa5fc21cdab)">
     <use xlink:href="#m203e44d9e5" x="0" y="504" style="fill: #4c72b0; fill-opacity: 0.15; stroke: #ffffff; stroke-opacity: 0.15"/>
    </g>
   </g>
   <g id="line2d_1">
    <path d="M 99.63 272.638413 
L 104.302727 271.157787 
L 108.975455 269.67716 
L 113.648182 268.196534 
L 118.320909 266.715908 
L 122.993636 265.235281 
L 127.666364 263.754655 
L 132.339091 262.274028 
L 137.011818 260.793402 
L 141.684545 259.312775 
L 146.357273 257.832149 
L 151.03 256.351523 
L 155.702727 254.870896 
L 160.375455 253.39027 
L 165.048182 251.909643 
L 169.720909 250.429017 
L 174.393636 248.94839 
L 179.066364 247.467764 
L 183.739091 245.987138 
L 188.411818 244.506511 
L 193.084545 243.025885 
L 197.757273 241.545258 
L 202.43 240.064632 
L 207.102727 238.584005 
L 211.775455 237.103379 
L 216.448182 235.622753 
L 221.120909 234.142126 
L 225.793636 232.6615 
L 230.466364 231.180873 
L 235.139091 229.700247 
L 239.811818 228.21962 
L 244.484545 226.738994 
L 249.157273 225.258368 
L 253.83 223.777741 
L 258.502727 222.297115 
L 263.175455 220.816488 
L 267.848182 219.335862 
L 272.520909 217.855235 
L 277.193636 216.374609 
L 281.866364 214.893983 
L 286.539091 213.413356 
L 291.211818 211.93273 
L 295.884545 210.452103 
L 300.557273 208.971477 
L 305.23 207.49085 
L 309.902727 206.010224 
L 314.575455 204.529598 
L 319.248182 203.048971 
L 323.920909 201.568345 
L 328.593636 200.087718 
L 333.266364 198.607092 
L 337.939091 197.126465 
L 342.611818 195.645839 
L 347.284545 194.165213 
L 351.957273 192.684586 
L 356.63 191.20396 
L 361.302727 189.723333 
L 365.975455 188.242707 
L 370.648182 186.76208 
L 375.320909 185.281454 
L 379.993636 183.800828 
L 384.666364 182.320201 
L 389.339091 180.839575 
L 394.011818 179.358948 
L 398.684545 177.878322 
L 403.357273 176.397695 
L 408.03 174.917069 
L 412.702727 173.436443 
L 417.375455 171.955816 
L 422.048182 170.47519 
L 426.720909 168.994563 
L 431.393636 167.513937 
L 436.066364 166.03331 
L 440.739091 164.552684 
L 445.411818 163.072058 
L 450.084545 161.591431 
L 454.757273 160.110805 
L 459.43 158.630178 
L 464.102727 157.149552 
L 468.775455 155.668925 
L 473.448182 154.188299 
L 478.120909 152.707673 
L 482.793636 151.227046 
L 487.466364 149.74642 
L 492.139091 148.265793 
L 496.811818 146.785167 
L 501.484545 145.304541 
L 506.157273 143.823914 
L 510.83 142.343288 
L 515.502727 140.862661 
L 520.175455 139.382035 
L 524.848182 137.901408 
L 529.520909 136.420782 
L 534.193636 134.940156 
L 538.866364 133.459529 
L 543.539091 131.978903 
L 548.211818 130.498276 
L 552.884545 129.01765 
L 557.557273 127.537023 
L 562.23 126.056397 
" clip-path="url(#pa5fc21cdab)" style="fill: none; stroke: #4c72b0; stroke-width: 2.25; stroke-linecap: round"/>
   </g>
   <g id="patch_3">
    <path d="M 76.5 437.22 
L 76.5 19.44 
" style="fill: none; stroke: #262626; stroke-width: 1.25; stroke-linejoin: miter; stroke-linecap: square"/>
   </g>
   <g id="patch_4">
    <path d="M 76.5 437.22 
L 585.36 437.22 
" style="fill: none; stroke: #262626; stroke-width: 1.25; stroke-linejoin: miter; stroke-linecap: square"/>
   </g>
   <g id="text_13">
    <!-- Human ratings ~ Fasttext space -->
    <g style="fill: #262626" transform="translate(185.885156 13.44) scale(0.18 -0.18)">
     <defs>
      <path id="DejaVuSans-7e" d="M 4684 2553 
L 4684 1997 
Q 4356 1750 4076 1644 
Q 3797 1538 3494 1538 
Q 3150 1538 2694 1722 
Q 2659 1734 2644 1741 
Q 2622 1750 2575 1766 
Q 2091 1959 1797 1959 
Q 1522 1959 1253 1839 
Q 984 1719 678 1459 
L 678 2016 
Q 1006 2263 1286 2370 
Q 1566 2478 1869 2478 
Q 2213 2478 2672 2291 
Q 2703 2278 2719 2272 
Q 2744 2263 2788 2247 
Q 3272 2053 3566 2053 
Q 3834 2053 4098 2172 
Q 4363 2291 4684 2553 
z
" transform="scale(0.015625)"/>
     </defs>
     <use xlink:href="#DejaVuSans-48"/>
     <use xlink:href="#DejaVuSans-75" x="75.195312"/>
     <use xlink:href="#DejaVuSans-6d" x="138.574219"/>
     <use xlink:href="#DejaVuSans-61" x="235.986328"/>
     <use xlink:href="#DejaVuSans-6e" x="297.265625"/>
     <use xlink:href="#DejaVuSans-20" x="360.644531"/>
     <use xlink:href="#DejaVuSans-72" x="392.431641"/>
     <use xlink:href="#DejaVuSans-61" x="433.544922"/>
     <use xlink:href="#DejaVuSans-74" x="494.824219"/>
     <use xlink:href="#DejaVuSans-69" x="534.033203"/>
     <use xlink:href="#DejaVuSans-6e" x="561.816406"/>
     <use xlink:href="#DejaVuSans-67" x="625.195312"/>
     <use xlink:href="#DejaVuSans-73" x="688.671875"/>
     <use xlink:href="#DejaVuSans-20" x="740.771484"/>
     <use xlink:href="#DejaVuSans-7e" x="772.558594"/>
     <use xlink:href="#DejaVuSans-20" x="856.347656"/>
     <use xlink:href="#DejaVuSans-46" x="888.134766"/>
     <use xlink:href="#DejaVuSans-61" x="936.529297"/>
     <use xlink:href="#DejaVuSans-73" x="997.808594"/>
     <use xlink:href="#DejaVuSans-74" x="1049.908203"/>
     <use xlink:href="#DejaVuSans-74" x="1089.117188"/>
     <use xlink:href="#DejaVuSans-65" x="1128.326172"/>
     <use xlink:href="#DejaVuSans-78" x="1188.099609"/>
     <use xlink:href="#DejaVuSans-74" x="1247.279297"/>
     <use xlink:href="#DejaVuSans-20" x="1286.488281"/>
     <use xlink:href="#DejaVuSans-73" x="1318.275391"/>
     <use xlink:href="#DejaVuSans-70" x="1370.375"/>
     <use xlink:href="#DejaVuSans-61" x="1433.851562"/>
     <use xlink:href="#DejaVuSans-63" x="1495.130859"/>
     <use xlink:href="#DejaVuSans-65" x="1550.111328"/>
    </g>
   </g>
  </g>
  <g id="text_14">
   <!-- r =  0.482 -->
   <g style="fill: #262626" transform="translate(247.694625 56.732625) scale(0.216 -0.216)">
    <defs>
     <path id="DejaVuSans-3d" d="M 678 2906 
L 4684 2906 
L 4684 2381 
L 678 2381 
L 678 2906 
z
M 678 1631 
L 4684 1631 
L 4684 1100 
L 678 1100 
L 678 1631 
z
" transform="scale(0.015625)"/>
    </defs>
    <use xlink:href="#DejaVuSans-72"/>
    <use xlink:href="#DejaVuSans-20" x="41.113281"/>
    <use xlink:href="#DejaVuSans-3d" x="72.900391"/>
    <use xlink:href="#DejaVuSans-20" x="156.689453"/>
    <use xlink:href="#DejaVuSans-20" x="188.476562"/>
    <use xlink:href="#DejaVuSans-30" x="220.263672"/>
    <use xlink:href="#DejaVuSans-2e" x="283.886719"/>
    <use xlink:href="#DejaVuSans-34" x="315.673828"/>
    <use xlink:href="#DejaVuSans-38" x="379.296875"/>
    <use xlink:href="#DejaVuSans-32" x="442.919922"/>
   </g>
  </g>
 </g>
 <defs>
  <clipPath id="pa5fc21cdab">
   <rect x="76.5" y="19.44" width="508.86" height="417.78"/>
  </clipPath>
 </defs>
</svg>
