<?xml version="1.0" encoding="utf-8" standalone="no"?>
<!DOCTYPE svg PUBLIC "-//W3C//DTD SVG 1.1//EN"
  "http://www.w3.org/Graphics/SVG/1.1/DTD/svg11.dtd">
<svg height="504pt" version="1.1" viewBox="0 0 604.8 504" width="604.8pt" xmlns="http://www.w3.org/2000/svg" xmlns:xlink="http://www.w3.org/1999/xlink">
 <metadata>
  <rdf:RDF xmlns:cc="http://creativecommons.org/ns#" xmlns:dc="http://purl.org/dc/elements/1.1/" xmlns:rdf="http://www.w3.org/1999/02/22-rdf-syntax-ns#">
   <cc:Work>
    <dc:type rdf:resource="http://purl.org/dc/dcmitype/StillImage"/>
    <dc:date>2023-07-25T11:11:07.754752</dc:date>
    <dc:format>image/svg+xml</dc:format>
    <dc:creator>
     <cc:Agent>
      <dc:title>Matplotlib v3.4.3, https://matplotlib.org/</dc:title>
     </cc:Agent>
    </dc:creator>
   </cc:Work>
  </rdf:RDF>
 </metadata>
 <defs>
  <style type="text/css">*{stroke-linecap:butt;stroke-linejoin:round;}</style>
 </defs>
 <g id="figure_1">
  <g id="patch_1">
   <path d="M 0 504 
L 604.8 504 
L 604.8 0 
L 0 0 
z
" style="fill:#ffffff;"/>
  </g>
  <g id="axes_1">
   <g id="patch_2">
    <path d="M 87.12 437.22 
L 585.36 437.22 
L 585.36 19.44 
L 87.12 19.44 
z
" style="fill:#ffffff;"/>
   </g>
   <g id="matplotlib.axis_1">
    <g id="xtick_1">
     <g id="text_1">
      <!-- 0.4 -->
      <g style="fill:#262626;" transform="translate(136.033756 459.257422)scale(0.165 -0.165)">
       <defs>
        <path d="M 2034 4250 
Q 1547 4250 1301 3770 
Q 1056 3291 1056 2328 
Q 1056 1369 1301 889 
Q 1547 409 2034 409 
Q 2525 409 2770 889 
Q 3016 1369 3016 2328 
Q 3016 3291 2770 3770 
Q 2525 4250 2034 4250 
z
M 2034 4750 
Q 2819 4750 3233 4129 
Q 3647 3509 3647 2328 
Q 3647 1150 3233 529 
Q 2819 -91 2034 -91 
Q 1250 -91 836 529 
Q 422 1150 422 2328 
Q 422 3509 836 4129 
Q 1250 4750 2034 4750 
z
" id="DejaVuSans-30" transform="scale(0.015625)"/>
        <path d="M 684 794 
L 1344 794 
L 1344 0 
L 684 0 
L 684 794 
z
" id="DejaVuSans-2e" transform="scale(0.015625)"/>
        <path d="M 2419 4116 
L 825 1625 
L 2419 1625 
L 2419 4116 
z
M 2253 4666 
L 3047 4666 
L 3047 1625 
L 3713 1625 
L 3713 1100 
L 3047 1100 
L 3047 0 
L 2419 0 
L 2419 1100 
L 313 1100 
L 313 1709 
L 2253 4666 
z
" id="DejaVuSans-34" transform="scale(0.015625)"/>
       </defs>
       <use xlink:href="#DejaVuSans-30"/>
       <use x="63.623047" xlink:href="#DejaVuSans-2e"/>
       <use x="95.410156" xlink:href="#DejaVuSans-34"/>
      </g>
     </g>
    </g>
    <g id="xtick_2">
     <g id="text_2">
      <!-- 0.5 -->
      <g style="fill:#262626;" transform="translate(204.960238 459.257422)scale(0.165 -0.165)">
       <defs>
        <path d="M 691 4666 
L 3169 4666 
L 3169 4134 
L 1269 4134 
L 1269 2991 
Q 1406 3038 1543 3061 
Q 1681 3084 1819 3084 
Q 2600 3084 3056 2656 
Q 3513 2228 3513 1497 
Q 3513 744 3044 326 
Q 2575 -91 1722 -91 
Q 1428 -91 1123 -41 
Q 819 9 494 109 
L 494 744 
Q 775 591 1075 516 
Q 1375 441 1709 441 
Q 2250 441 2565 725 
Q 2881 1009 2881 1497 
Q 2881 1984 2565 2268 
Q 2250 2553 1709 2553 
Q 1456 2553 1204 2497 
Q 953 2441 691 2322 
L 691 4666 
z
" id="DejaVuSans-35" transform="scale(0.015625)"/>
       </defs>
       <use xlink:href="#DejaVuSans-30"/>
       <use x="63.623047" xlink:href="#DejaVuSans-2e"/>
       <use x="95.410156" xlink:href="#DejaVuSans-35"/>
      </g>
     </g>
    </g>
    <g id="xtick_3">
     <g id="text_3">
      <!-- 0.6 -->
      <g style="fill:#262626;" transform="translate(273.88672 459.257422)scale(0.165 -0.165)">
       <defs>
        <path d="M 2113 2584 
Q 1688 2584 1439 2293 
Q 1191 2003 1191 1497 
Q 1191 994 1439 701 
Q 1688 409 2113 409 
Q 2538 409 2786 701 
Q 3034 994 3034 1497 
Q 3034 2003 2786 2293 
Q 2538 2584 2113 2584 
z
M 3366 4563 
L 3366 3988 
Q 3128 4100 2886 4159 
Q 2644 4219 2406 4219 
Q 1781 4219 1451 3797 
Q 1122 3375 1075 2522 
Q 1259 2794 1537 2939 
Q 1816 3084 2150 3084 
Q 2853 3084 3261 2657 
Q 3669 2231 3669 1497 
Q 3669 778 3244 343 
Q 2819 -91 2113 -91 
Q 1303 -91 875 529 
Q 447 1150 447 2328 
Q 447 3434 972 4092 
Q 1497 4750 2381 4750 
Q 2619 4750 2861 4703 
Q 3103 4656 3366 4563 
z
" id="DejaVuSans-36" transform="scale(0.015625)"/>
       </defs>
       <use xlink:href="#DejaVuSans-30"/>
       <use x="63.623047" xlink:href="#DejaVuSans-2e"/>
       <use x="95.410156" xlink:href="#DejaVuSans-36"/>
      </g>
     </g>
    </g>
    <g id="xtick_4">
     <g id="text_4">
      <!-- 0.7 -->
      <g style="fill:#262626;" transform="translate(342.813203 459.257422)scale(0.165 -0.165)">
       <defs>
        <path d="M 525 4666 
L 3525 4666 
L 3525 4397 
L 1831 0 
L 1172 0 
L 2766 4134 
L 525 4134 
L 525 4666 
z
" id="DejaVuSans-37" transform="scale(0.015625)"/>
       </defs>
       <use xlink:href="#DejaVuSans-30"/>
       <use x="63.623047" xlink:href="#DejaVuSans-2e"/>
       <use x="95.410156" xlink:href="#DejaVuSans-37"/>
      </g>
     </g>
    </g>
    <g id="xtick_5">
     <g id="text_5">
      <!-- 0.8 -->
      <g style="fill:#262626;" transform="translate(411.739685 459.257422)scale(0.165 -0.165)">
       <defs>
        <path d="M 2034 2216 
Q 1584 2216 1326 1975 
Q 1069 1734 1069 1313 
Q 1069 891 1326 650 
Q 1584 409 2034 409 
Q 2484 409 2743 651 
Q 3003 894 3003 1313 
Q 3003 1734 2745 1975 
Q 2488 2216 2034 2216 
z
M 1403 2484 
Q 997 2584 770 2862 
Q 544 3141 544 3541 
Q 544 4100 942 4425 
Q 1341 4750 2034 4750 
Q 2731 4750 3128 4425 
Q 3525 4100 3525 3541 
Q 3525 3141 3298 2862 
Q 3072 2584 2669 2484 
Q 3125 2378 3379 2068 
Q 3634 1759 3634 1313 
Q 3634 634 3220 271 
Q 2806 -91 2034 -91 
Q 1263 -91 848 271 
Q 434 634 434 1313 
Q 434 1759 690 2068 
Q 947 2378 1403 2484 
z
M 1172 3481 
Q 1172 3119 1398 2916 
Q 1625 2713 2034 2713 
Q 2441 2713 2670 2916 
Q 2900 3119 2900 3481 
Q 2900 3844 2670 4047 
Q 2441 4250 2034 4250 
Q 1625 4250 1398 4047 
Q 1172 3844 1172 3481 
z
" id="DejaVuSans-38" transform="scale(0.015625)"/>
       </defs>
       <use xlink:href="#DejaVuSans-30"/>
       <use x="63.623047" xlink:href="#DejaVuSans-2e"/>
       <use x="95.410156" xlink:href="#DejaVuSans-38"/>
      </g>
     </g>
    </g>
    <g id="xtick_6">
     <g id="text_6">
      <!-- 0.9 -->
      <g style="fill:#262626;" transform="translate(480.666167 459.257422)scale(0.165 -0.165)">
       <defs>
        <path d="M 703 97 
L 703 672 
Q 941 559 1184 500 
Q 1428 441 1663 441 
Q 2288 441 2617 861 
Q 2947 1281 2994 2138 
Q 2813 1869 2534 1725 
Q 2256 1581 1919 1581 
Q 1219 1581 811 2004 
Q 403 2428 403 3163 
Q 403 3881 828 4315 
Q 1253 4750 1959 4750 
Q 2769 4750 3195 4129 
Q 3622 3509 3622 2328 
Q 3622 1225 3098 567 
Q 2575 -91 1691 -91 
Q 1453 -91 1209 -44 
Q 966 3 703 97 
z
M 1959 2075 
Q 2384 2075 2632 2365 
Q 2881 2656 2881 3163 
Q 2881 3666 2632 3958 
Q 2384 4250 1959 4250 
Q 1534 4250 1286 3958 
Q 1038 3666 1038 3163 
Q 1038 2656 1286 2365 
Q 1534 2075 1959 2075 
z
" id="DejaVuSans-39" transform="scale(0.015625)"/>
       </defs>
       <use xlink:href="#DejaVuSans-30"/>
       <use x="63.623047" xlink:href="#DejaVuSans-2e"/>
       <use x="95.410156" xlink:href="#DejaVuSans-39"/>
      </g>
     </g>
    </g>
    <g id="xtick_7">
     <g id="text_7">
      <!-- 1.0 -->
      <g style="fill:#262626;" transform="translate(549.592649 459.257422)scale(0.165 -0.165)">
       <defs>
        <path d="M 794 531 
L 1825 531 
L 1825 4091 
L 703 3866 
L 703 4441 
L 1819 4666 
L 2450 4666 
L 2450 531 
L 3481 531 
L 3481 0 
L 794 0 
L 794 531 
z
" id="DejaVuSans-31" transform="scale(0.015625)"/>
       </defs>
       <use xlink:href="#DejaVuSans-31"/>
       <use x="63.623047" xlink:href="#DejaVuSans-2e"/>
       <use x="95.410156" xlink:href="#DejaVuSans-30"/>
      </g>
     </g>
    </g>
    <g id="text_8">
     <!-- Human ratings -->
     <g style="fill:#262626;" transform="translate(269.5725 480.366094)scale(0.18 -0.18)">
      <defs>
       <path d="M 628 4666 
L 1259 4666 
L 1259 2753 
L 3553 2753 
L 3553 4666 
L 4184 4666 
L 4184 0 
L 3553 0 
L 3553 2222 
L 1259 2222 
L 1259 0 
L 628 0 
L 628 4666 
z
" id="DejaVuSans-48" transform="scale(0.015625)"/>
       <path d="M 544 1381 
L 544 3500 
L 1119 3500 
L 1119 1403 
Q 1119 906 1312 657 
Q 1506 409 1894 409 
Q 2359 409 2629 706 
Q 2900 1003 2900 1516 
L 2900 3500 
L 3475 3500 
L 3475 0 
L 2900 0 
L 2900 538 
Q 2691 219 2414 64 
Q 2138 -91 1772 -91 
Q 1169 -91 856 284 
Q 544 659 544 1381 
z
M 1991 3584 
L 1991 3584 
z
" id="DejaVuSans-75" transform="scale(0.015625)"/>
       <path d="M 3328 2828 
Q 3544 3216 3844 3400 
Q 4144 3584 4550 3584 
Q 5097 3584 5394 3201 
Q 5691 2819 5691 2113 
L 5691 0 
L 5113 0 
L 5113 2094 
Q 5113 2597 4934 2840 
Q 4756 3084 4391 3084 
Q 3944 3084 3684 2787 
Q 3425 2491 3425 1978 
L 3425 0 
L 2847 0 
L 2847 2094 
Q 2847 2600 2669 2842 
Q 2491 3084 2119 3084 
Q 1678 3084 1418 2786 
Q 1159 2488 1159 1978 
L 1159 0 
L 581 0 
L 581 3500 
L 1159 3500 
L 1159 2956 
Q 1356 3278 1631 3431 
Q 1906 3584 2284 3584 
Q 2666 3584 2933 3390 
Q 3200 3197 3328 2828 
z
" id="DejaVuSans-6d" transform="scale(0.015625)"/>
       <path d="M 2194 1759 
Q 1497 1759 1228 1600 
Q 959 1441 959 1056 
Q 959 750 1161 570 
Q 1363 391 1709 391 
Q 2188 391 2477 730 
Q 2766 1069 2766 1631 
L 2766 1759 
L 2194 1759 
z
M 3341 1997 
L 3341 0 
L 2766 0 
L 2766 531 
Q 2569 213 2275 61 
Q 1981 -91 1556 -91 
Q 1019 -91 701 211 
Q 384 513 384 1019 
Q 384 1609 779 1909 
Q 1175 2209 1959 2209 
L 2766 2209 
L 2766 2266 
Q 2766 2663 2505 2880 
Q 2244 3097 1772 3097 
Q 1472 3097 1187 3025 
Q 903 2953 641 2809 
L 641 3341 
Q 956 3463 1253 3523 
Q 1550 3584 1831 3584 
Q 2591 3584 2966 3190 
Q 3341 2797 3341 1997 
z
" id="DejaVuSans-61" transform="scale(0.015625)"/>
       <path d="M 3513 2113 
L 3513 0 
L 2938 0 
L 2938 2094 
Q 2938 2591 2744 2837 
Q 2550 3084 2163 3084 
Q 1697 3084 1428 2787 
Q 1159 2491 1159 1978 
L 1159 0 
L 581 0 
L 581 3500 
L 1159 3500 
L 1159 2956 
Q 1366 3272 1645 3428 
Q 1925 3584 2291 3584 
Q 2894 3584 3203 3211 
Q 3513 2838 3513 2113 
z
" id="DejaVuSans-6e" transform="scale(0.015625)"/>
       <path id="DejaVuSans-20" transform="scale(0.015625)"/>
       <path d="M 2631 2963 
Q 2534 3019 2420 3045 
Q 2306 3072 2169 3072 
Q 1681 3072 1420 2755 
Q 1159 2438 1159 1844 
L 1159 0 
L 581 0 
L 581 3500 
L 1159 3500 
L 1159 2956 
Q 1341 3275 1631 3429 
Q 1922 3584 2338 3584 
Q 2397 3584 2469 3576 
Q 2541 3569 2628 3553 
L 2631 2963 
z
" id="DejaVuSans-72" transform="scale(0.015625)"/>
       <path d="M 1172 4494 
L 1172 3500 
L 2356 3500 
L 2356 3053 
L 1172 3053 
L 1172 1153 
Q 1172 725 1289 603 
Q 1406 481 1766 481 
L 2356 481 
L 2356 0 
L 1766 0 
Q 1100 0 847 248 
Q 594 497 594 1153 
L 594 3053 
L 172 3053 
L 172 3500 
L 594 3500 
L 594 4494 
L 1172 4494 
z
" id="DejaVuSans-74" transform="scale(0.015625)"/>
       <path d="M 603 3500 
L 1178 3500 
L 1178 0 
L 603 0 
L 603 3500 
z
M 603 4863 
L 1178 4863 
L 1178 4134 
L 603 4134 
L 603 4863 
z
" id="DejaVuSans-69" transform="scale(0.015625)"/>
       <path d="M 2906 1791 
Q 2906 2416 2648 2759 
Q 2391 3103 1925 3103 
Q 1463 3103 1205 2759 
Q 947 2416 947 1791 
Q 947 1169 1205 825 
Q 1463 481 1925 481 
Q 2391 481 2648 825 
Q 2906 1169 2906 1791 
z
M 3481 434 
Q 3481 -459 3084 -895 
Q 2688 -1331 1869 -1331 
Q 1566 -1331 1297 -1286 
Q 1028 -1241 775 -1147 
L 775 -588 
Q 1028 -725 1275 -790 
Q 1522 -856 1778 -856 
Q 2344 -856 2625 -561 
Q 2906 -266 2906 331 
L 2906 616 
Q 2728 306 2450 153 
Q 2172 0 1784 0 
Q 1141 0 747 490 
Q 353 981 353 1791 
Q 353 2603 747 3093 
Q 1141 3584 1784 3584 
Q 2172 3584 2450 3431 
Q 2728 3278 2906 2969 
L 2906 3500 
L 3481 3500 
L 3481 434 
z
" id="DejaVuSans-67" transform="scale(0.015625)"/>
       <path d="M 2834 3397 
L 2834 2853 
Q 2591 2978 2328 3040 
Q 2066 3103 1784 3103 
Q 1356 3103 1142 2972 
Q 928 2841 928 2578 
Q 928 2378 1081 2264 
Q 1234 2150 1697 2047 
L 1894 2003 
Q 2506 1872 2764 1633 
Q 3022 1394 3022 966 
Q 3022 478 2636 193 
Q 2250 -91 1575 -91 
Q 1294 -91 989 -36 
Q 684 19 347 128 
L 347 722 
Q 666 556 975 473 
Q 1284 391 1588 391 
Q 1994 391 2212 530 
Q 2431 669 2431 922 
Q 2431 1156 2273 1281 
Q 2116 1406 1581 1522 
L 1381 1569 
Q 847 1681 609 1914 
Q 372 2147 372 2553 
Q 372 3047 722 3315 
Q 1072 3584 1716 3584 
Q 2034 3584 2315 3537 
Q 2597 3491 2834 3397 
z
" id="DejaVuSans-73" transform="scale(0.015625)"/>
      </defs>
      <use xlink:href="#DejaVuSans-48"/>
      <use x="75.195312" xlink:href="#DejaVuSans-75"/>
      <use x="138.574219" xlink:href="#DejaVuSans-6d"/>
      <use x="235.986328" xlink:href="#DejaVuSans-61"/>
      <use x="297.265625" xlink:href="#DejaVuSans-6e"/>
      <use x="360.644531" xlink:href="#DejaVuSans-20"/>
      <use x="392.431641" xlink:href="#DejaVuSans-72"/>
      <use x="433.544922" xlink:href="#DejaVuSans-61"/>
      <use x="494.824219" xlink:href="#DejaVuSans-74"/>
      <use x="534.033203" xlink:href="#DejaVuSans-69"/>
      <use x="561.816406" xlink:href="#DejaVuSans-6e"/>
      <use x="625.195312" xlink:href="#DejaVuSans-67"/>
      <use x="688.671875" xlink:href="#DejaVuSans-73"/>
     </g>
    </g>
   </g>
   <g id="matplotlib.axis_2">
    <g id="ytick_1">
     <g id="text_9">
      <!-- 0.60 -->
      <g style="fill:#262626;" transform="translate(40.881719 443.338068)scale(0.165 -0.165)">
       <use xlink:href="#DejaVuSans-30"/>
       <use x="63.623047" xlink:href="#DejaVuSans-2e"/>
       <use x="95.410156" xlink:href="#DejaVuSans-36"/>
       <use x="159.033203" xlink:href="#DejaVuSans-30"/>
      </g>
     </g>
    </g>
    <g id="ytick_2">
     <g id="text_10">
      <!-- 0.65 -->
      <g style="fill:#262626;" transform="translate(40.881719 388.554043)scale(0.165 -0.165)">
       <use xlink:href="#DejaVuSans-30"/>
       <use x="63.623047" xlink:href="#DejaVuSans-2e"/>
       <use x="95.410156" xlink:href="#DejaVuSans-36"/>
       <use x="159.033203" xlink:href="#DejaVuSans-35"/>
      </g>
     </g>
    </g>
    <g id="ytick_3">
     <g id="text_11">
      <!-- 0.70 -->
      <g style="fill:#262626;" transform="translate(40.881719 333.770018)scale(0.165 -0.165)">
       <use xlink:href="#DejaVuSans-30"/>
       <use x="63.623047" xlink:href="#DejaVuSans-2e"/>
       <use x="95.410156" xlink:href="#DejaVuSans-37"/>
       <use x="159.033203" xlink:href="#DejaVuSans-30"/>
      </g>
     </g>
    </g>
    <g id="ytick_4">
     <g id="text_12">
      <!-- 0.75 -->
      <g style="fill:#262626;" transform="translate(40.881719 278.985993)scale(0.165 -0.165)">
       <use xlink:href="#DejaVuSans-30"/>
       <use x="63.623047" xlink:href="#DejaVuSans-2e"/>
       <use x="95.410156" xlink:href="#DejaVuSans-37"/>
       <use x="159.033203" xlink:href="#DejaVuSans-35"/>
      </g>
     </g>
    </g>
    <g id="ytick_5">
     <g id="text_13">
      <!-- 0.80 -->
      <g style="fill:#262626;" transform="translate(40.881719 224.201967)scale(0.165 -0.165)">
       <use xlink:href="#DejaVuSans-30"/>
       <use x="63.623047" xlink:href="#DejaVuSans-2e"/>
       <use x="95.410156" xlink:href="#DejaVuSans-38"/>
       <use x="159.033203" xlink:href="#DejaVuSans-30"/>
      </g>
     </g>
    </g>
    <g id="ytick_6">
     <g id="text_14">
      <!-- 0.85 -->
      <g style="fill:#262626;" transform="translate(40.881719 169.417942)scale(0.165 -0.165)">
       <use xlink:href="#DejaVuSans-30"/>
       <use x="63.623047" xlink:href="#DejaVuSans-2e"/>
       <use x="95.410156" xlink:href="#DejaVuSans-38"/>
       <use x="159.033203" xlink:href="#DejaVuSans-35"/>
      </g>
     </g>
    </g>
    <g id="ytick_7">
     <g id="text_15">
      <!-- 0.90 -->
      <g style="fill:#262626;" transform="translate(40.881719 114.633917)scale(0.165 -0.165)">
       <use xlink:href="#DejaVuSans-30"/>
       <use x="63.623047" xlink:href="#DejaVuSans-2e"/>
       <use x="95.410156" xlink:href="#DejaVuSans-39"/>
       <use x="159.033203" xlink:href="#DejaVuSans-30"/>
      </g>
     </g>
    </g>
    <g id="ytick_8">
     <g id="text_16">
      <!-- 0.95 -->
      <g style="fill:#262626;" transform="translate(40.881719 59.849892)scale(0.165 -0.165)">
       <use xlink:href="#DejaVuSans-30"/>
       <use x="63.623047" xlink:href="#DejaVuSans-2e"/>
       <use x="95.410156" xlink:href="#DejaVuSans-39"/>
       <use x="159.033203" xlink:href="#DejaVuSans-35"/>
      </g>
     </g>
    </g>
    <g id="text_17">
     <!-- Fasttext space (cosine distance) -->
     <g style="fill:#262626;" transform="translate(33.138281 373.210313)rotate(-90)scale(0.18 -0.18)">
      <defs>
       <path d="M 628 4666 
L 3309 4666 
L 3309 4134 
L 1259 4134 
L 1259 2759 
L 3109 2759 
L 3109 2228 
L 1259 2228 
L 1259 0 
L 628 0 
L 628 4666 
z
" id="DejaVuSans-46" transform="scale(0.015625)"/>
       <path d="M 3597 1894 
L 3597 1613 
L 953 1613 
Q 991 1019 1311 708 
Q 1631 397 2203 397 
Q 2534 397 2845 478 
Q 3156 559 3463 722 
L 3463 178 
Q 3153 47 2828 -22 
Q 2503 -91 2169 -91 
Q 1331 -91 842 396 
Q 353 884 353 1716 
Q 353 2575 817 3079 
Q 1281 3584 2069 3584 
Q 2775 3584 3186 3129 
Q 3597 2675 3597 1894 
z
M 3022 2063 
Q 3016 2534 2758 2815 
Q 2500 3097 2075 3097 
Q 1594 3097 1305 2825 
Q 1016 2553 972 2059 
L 3022 2063 
z
" id="DejaVuSans-65" transform="scale(0.015625)"/>
       <path d="M 3513 3500 
L 2247 1797 
L 3578 0 
L 2900 0 
L 1881 1375 
L 863 0 
L 184 0 
L 1544 1831 
L 300 3500 
L 978 3500 
L 1906 2253 
L 2834 3500 
L 3513 3500 
z
" id="DejaVuSans-78" transform="scale(0.015625)"/>
       <path d="M 1159 525 
L 1159 -1331 
L 581 -1331 
L 581 3500 
L 1159 3500 
L 1159 2969 
Q 1341 3281 1617 3432 
Q 1894 3584 2278 3584 
Q 2916 3584 3314 3078 
Q 3713 2572 3713 1747 
Q 3713 922 3314 415 
Q 2916 -91 2278 -91 
Q 1894 -91 1617 61 
Q 1341 213 1159 525 
z
M 3116 1747 
Q 3116 2381 2855 2742 
Q 2594 3103 2138 3103 
Q 1681 3103 1420 2742 
Q 1159 2381 1159 1747 
Q 1159 1113 1420 752 
Q 1681 391 2138 391 
Q 2594 391 2855 752 
Q 3116 1113 3116 1747 
z
" id="DejaVuSans-70" transform="scale(0.015625)"/>
       <path d="M 3122 3366 
L 3122 2828 
Q 2878 2963 2633 3030 
Q 2388 3097 2138 3097 
Q 1578 3097 1268 2742 
Q 959 2388 959 1747 
Q 959 1106 1268 751 
Q 1578 397 2138 397 
Q 2388 397 2633 464 
Q 2878 531 3122 666 
L 3122 134 
Q 2881 22 2623 -34 
Q 2366 -91 2075 -91 
Q 1284 -91 818 406 
Q 353 903 353 1747 
Q 353 2603 823 3093 
Q 1294 3584 2113 3584 
Q 2378 3584 2631 3529 
Q 2884 3475 3122 3366 
z
" id="DejaVuSans-63" transform="scale(0.015625)"/>
       <path d="M 1984 4856 
Q 1566 4138 1362 3434 
Q 1159 2731 1159 2009 
Q 1159 1288 1364 580 
Q 1569 -128 1984 -844 
L 1484 -844 
Q 1016 -109 783 600 
Q 550 1309 550 2009 
Q 550 2706 781 3412 
Q 1013 4119 1484 4856 
L 1984 4856 
z
" id="DejaVuSans-28" transform="scale(0.015625)"/>
       <path d="M 1959 3097 
Q 1497 3097 1228 2736 
Q 959 2375 959 1747 
Q 959 1119 1226 758 
Q 1494 397 1959 397 
Q 2419 397 2687 759 
Q 2956 1122 2956 1747 
Q 2956 2369 2687 2733 
Q 2419 3097 1959 3097 
z
M 1959 3584 
Q 2709 3584 3137 3096 
Q 3566 2609 3566 1747 
Q 3566 888 3137 398 
Q 2709 -91 1959 -91 
Q 1206 -91 779 398 
Q 353 888 353 1747 
Q 353 2609 779 3096 
Q 1206 3584 1959 3584 
z
" id="DejaVuSans-6f" transform="scale(0.015625)"/>
       <path d="M 2906 2969 
L 2906 4863 
L 3481 4863 
L 3481 0 
L 2906 0 
L 2906 525 
Q 2725 213 2448 61 
Q 2172 -91 1784 -91 
Q 1150 -91 751 415 
Q 353 922 353 1747 
Q 353 2572 751 3078 
Q 1150 3584 1784 3584 
Q 2172 3584 2448 3432 
Q 2725 3281 2906 2969 
z
M 947 1747 
Q 947 1113 1208 752 
Q 1469 391 1925 391 
Q 2381 391 2643 752 
Q 2906 1113 2906 1747 
Q 2906 2381 2643 2742 
Q 2381 3103 1925 3103 
Q 1469 3103 1208 2742 
Q 947 2381 947 1747 
z
" id="DejaVuSans-64" transform="scale(0.015625)"/>
       <path d="M 513 4856 
L 1013 4856 
Q 1481 4119 1714 3412 
Q 1947 2706 1947 2009 
Q 1947 1309 1714 600 
Q 1481 -109 1013 -844 
L 513 -844 
Q 928 -128 1133 580 
Q 1338 1288 1338 2009 
Q 1338 2731 1133 3434 
Q 928 4138 513 4856 
z
" id="DejaVuSans-29" transform="scale(0.015625)"/>
      </defs>
      <use xlink:href="#DejaVuSans-46"/>
      <use x="48.394531" xlink:href="#DejaVuSans-61"/>
      <use x="109.673828" xlink:href="#DejaVuSans-73"/>
      <use x="161.773438" xlink:href="#DejaVuSans-74"/>
      <use x="200.982422" xlink:href="#DejaVuSans-74"/>
      <use x="240.191406" xlink:href="#DejaVuSans-65"/>
      <use x="299.964844" xlink:href="#DejaVuSans-78"/>
      <use x="359.144531" xlink:href="#DejaVuSans-74"/>
      <use x="398.353516" xlink:href="#DejaVuSans-20"/>
      <use x="430.140625" xlink:href="#DejaVuSans-73"/>
      <use x="482.240234" xlink:href="#DejaVuSans-70"/>
      <use x="545.716797" xlink:href="#DejaVuSans-61"/>
      <use x="606.996094" xlink:href="#DejaVuSans-63"/>
      <use x="661.976562" xlink:href="#DejaVuSans-65"/>
      <use x="723.5" xlink:href="#DejaVuSans-20"/>
      <use x="755.287109" xlink:href="#DejaVuSans-28"/>
      <use x="794.300781" xlink:href="#DejaVuSans-63"/>
      <use x="849.28125" xlink:href="#DejaVuSans-6f"/>
      <use x="910.462891" xlink:href="#DejaVuSans-73"/>
      <use x="962.5625" xlink:href="#DejaVuSans-69"/>
      <use x="990.345703" xlink:href="#DejaVuSans-6e"/>
      <use x="1053.724609" xlink:href="#DejaVuSans-65"/>
      <use x="1115.248047" xlink:href="#DejaVuSans-20"/>
      <use x="1147.035156" xlink:href="#DejaVuSans-64"/>
      <use x="1210.511719" xlink:href="#DejaVuSans-69"/>
      <use x="1238.294922" xlink:href="#DejaVuSans-73"/>
      <use x="1290.394531" xlink:href="#DejaVuSans-74"/>
      <use x="1329.603516" xlink:href="#DejaVuSans-61"/>
      <use x="1390.882812" xlink:href="#DejaVuSans-6e"/>
      <use x="1454.261719" xlink:href="#DejaVuSans-63"/>
      <use x="1509.242188" xlink:href="#DejaVuSans-65"/>
      <use x="1570.765625" xlink:href="#DejaVuSans-29"/>
     </g>
    </g>
   </g>
   <g id="PathCollection_1">
    <defs>
     <path d="M 0 3.872983 
C 1.027127 3.872983 2.012324 3.464901 2.738613 2.738613 
C 3.464901 2.012324 3.872983 1.027127 3.872983 0 
C 3.872983 -1.027127 3.464901 -2.012324 2.738613 -2.738613 
C 2.012324 -3.464901 1.027127 -3.872983 0 -3.872983 
C -1.027127 -3.872983 -2.012324 -3.464901 -2.738613 -2.738613 
C -3.464901 -2.012324 -3.872983 -1.027127 -3.872983 0 
C -3.872983 1.027127 -3.464901 2.012324 -2.738613 2.738613 
C -2.012324 3.464901 -1.027127 3.872983 0 3.872983 
z
" id="m2e510b8f0e" style="stroke:#000000;stroke-opacity:0.8;stroke-width:0.7;"/>
    </defs>
    <g clip-path="url(#p7cf95bb242)">
     <use style="fill:#4c72b0;fill-opacity:0.8;stroke:#000000;stroke-opacity:0.8;stroke-width:0.7;" x="385.473202" xlink:href="#m2e510b8f0e" y="119.829912"/>
     <use style="fill:#4c72b0;fill-opacity:0.8;stroke:#000000;stroke-opacity:0.8;stroke-width:0.7;" x="444.553043" xlink:href="#m2e510b8f0e" y="133.447379"/>
     <use style="fill:#4c72b0;fill-opacity:0.8;stroke:#000000;stroke-opacity:0.8;stroke-width:0.7;" x="424.859763" xlink:href="#m2e510b8f0e" y="123.600129"/>
     <use style="fill:#4c72b0;fill-opacity:0.8;stroke:#000000;stroke-opacity:0.8;stroke-width:0.7;" x="483.939605" xlink:href="#m2e510b8f0e" y="69.648959"/>
     <use style="fill:#4c72b0;fill-opacity:0.8;stroke:#000000;stroke-opacity:0.8;stroke-width:0.7;" x="523.326166" xlink:href="#m2e510b8f0e" y="101.102628"/>
     <use style="fill:#4c72b0;fill-opacity:0.8;stroke:#000000;stroke-opacity:0.8;stroke-width:0.7;" x="424.859763" xlink:href="#m2e510b8f0e" y="121.354135"/>
     <use style="fill:#4c72b0;fill-opacity:0.8;stroke:#000000;stroke-opacity:0.8;stroke-width:0.7;" x="483.939605" xlink:href="#m2e510b8f0e" y="231.477193"/>
     <use style="fill:#4c72b0;fill-opacity:0.8;stroke:#000000;stroke-opacity:0.8;stroke-width:0.7;" x="464.246324" xlink:href="#m2e510b8f0e" y="228.451877"/>
     <use style="fill:#4c72b0;fill-opacity:0.8;stroke:#000000;stroke-opacity:0.8;stroke-width:0.7;" x="346.08664" xlink:href="#m2e510b8f0e" y="113.007311"/>
     <use style="fill:#4c72b0;fill-opacity:0.8;stroke:#000000;stroke-opacity:0.8;stroke-width:0.7;" x="483.939605" xlink:href="#m2e510b8f0e" y="140.949796"/>
     <use style="fill:#4c72b0;fill-opacity:0.8;stroke:#000000;stroke-opacity:0.8;stroke-width:0.7;" x="523.326166" xlink:href="#m2e510b8f0e" y="161.461802"/>
     <use style="fill:#4c72b0;fill-opacity:0.8;stroke:#000000;stroke-opacity:0.8;stroke-width:0.7;" x="385.473202" xlink:href="#m2e510b8f0e" y="150.078615"/>
     <use style="fill:#4c72b0;fill-opacity:0.8;stroke:#000000;stroke-opacity:0.8;stroke-width:0.7;" x="365.779921" xlink:href="#m2e510b8f0e" y="247.45535"/>
     <use style="fill:#4c72b0;fill-opacity:0.8;stroke:#000000;stroke-opacity:0.8;stroke-width:0.7;" x="543.019447" xlink:href="#m2e510b8f0e" y="195.915235"/>
     <use style="fill:#4c72b0;fill-opacity:0.8;stroke:#000000;stroke-opacity:0.8;stroke-width:0.7;" x="385.473202" xlink:href="#m2e510b8f0e" y="258.425787"/>
     <use style="fill:#4c72b0;fill-opacity:0.8;stroke:#000000;stroke-opacity:0.8;stroke-width:0.7;" x="306.700079" xlink:href="#m2e510b8f0e" y="236.277824"/>
     <use style="fill:#4c72b0;fill-opacity:0.8;stroke:#000000;stroke-opacity:0.8;stroke-width:0.7;" x="562.712727" xlink:href="#m2e510b8f0e" y="162.0263"/>
     <use style="fill:#4c72b0;fill-opacity:0.8;stroke:#000000;stroke-opacity:0.8;stroke-width:0.7;" x="523.326166" xlink:href="#m2e510b8f0e" y="261.836241"/>
     <use style="fill:#4c72b0;fill-opacity:0.8;stroke:#000000;stroke-opacity:0.8;stroke-width:0.7;" x="405.166482" xlink:href="#m2e510b8f0e" y="345.673761"/>
     <use style="fill:#4c72b0;fill-opacity:0.8;stroke:#000000;stroke-opacity:0.8;stroke-width:0.7;" x="483.939605" xlink:href="#m2e510b8f0e" y="403.21485"/>
     <use style="fill:#4c72b0;fill-opacity:0.8;stroke:#000000;stroke-opacity:0.8;stroke-width:0.7;" x="346.08664" xlink:href="#m2e510b8f0e" y="376.755581"/>
     <use style="fill:#4c72b0;fill-opacity:0.8;stroke:#000000;stroke-opacity:0.8;stroke-width:0.7;" x="464.246324" xlink:href="#m2e510b8f0e" y="297.011211"/>
     <use style="fill:#4c72b0;fill-opacity:0.8;stroke:#000000;stroke-opacity:0.8;stroke-width:0.7;" x="543.019447" xlink:href="#m2e510b8f0e" y="229.929621"/>
     <use style="fill:#4c72b0;fill-opacity:0.8;stroke:#000000;stroke-opacity:0.8;stroke-width:0.7;" x="444.553043" xlink:href="#m2e510b8f0e" y="418.23"/>
     <use style="fill:#4c72b0;fill-opacity:0.8;stroke:#000000;stroke-opacity:0.8;stroke-width:0.7;" x="326.39336" xlink:href="#m2e510b8f0e" y="176.523272"/>
     <use style="fill:#4c72b0;fill-opacity:0.8;stroke:#000000;stroke-opacity:0.8;stroke-width:0.7;" x="444.553043" xlink:href="#m2e510b8f0e" y="153.874225"/>
     <use style="fill:#4c72b0;fill-opacity:0.8;stroke:#000000;stroke-opacity:0.8;stroke-width:0.7;" x="405.166482" xlink:href="#m2e510b8f0e" y="115.296472"/>
     <use style="fill:#4c72b0;fill-opacity:0.8;stroke:#000000;stroke-opacity:0.8;stroke-width:0.7;" x="464.246324" xlink:href="#m2e510b8f0e" y="145.249264"/>
     <use style="fill:#4c72b0;fill-opacity:0.8;stroke:#000000;stroke-opacity:0.8;stroke-width:0.7;" x="543.019447" xlink:href="#m2e510b8f0e" y="129.255046"/>
     <use style="fill:#4c72b0;fill-opacity:0.8;stroke:#000000;stroke-opacity:0.8;stroke-width:0.7;" x="503.632885" xlink:href="#m2e510b8f0e" y="148.889322"/>
     <use style="fill:#4c72b0;fill-opacity:0.8;stroke:#000000;stroke-opacity:0.8;stroke-width:0.7;" x="326.39336" xlink:href="#m2e510b8f0e" y="346.272493"/>
     <use style="fill:#4c72b0;fill-opacity:0.8;stroke:#000000;stroke-opacity:0.8;stroke-width:0.7;" x="543.019447" xlink:href="#m2e510b8f0e" y="305.846954"/>
     <use style="fill:#4c72b0;fill-opacity:0.8;stroke:#000000;stroke-opacity:0.8;stroke-width:0.7;" x="503.632885" xlink:href="#m2e510b8f0e" y="306.851058"/>
     <use style="fill:#4c72b0;fill-opacity:0.8;stroke:#000000;stroke-opacity:0.8;stroke-width:0.7;" x="188.540395" xlink:href="#m2e510b8f0e" y="369.222276"/>
     <use style="fill:#4c72b0;fill-opacity:0.8;stroke:#000000;stroke-opacity:0.8;stroke-width:0.7;" x="562.712727" xlink:href="#m2e510b8f0e" y="180.940034"/>
     <use style="fill:#4c72b0;fill-opacity:0.8;stroke:#000000;stroke-opacity:0.8;stroke-width:0.7;" x="562.712727" xlink:href="#m2e510b8f0e" y="315.653693"/>
     <use style="fill:#4c72b0;fill-opacity:0.8;stroke:#000000;stroke-opacity:0.8;stroke-width:0.7;" x="464.246324" xlink:href="#m2e510b8f0e" y="238.898857"/>
     <use style="fill:#4c72b0;fill-opacity:0.8;stroke:#000000;stroke-opacity:0.8;stroke-width:0.7;" x="562.712727" xlink:href="#m2e510b8f0e" y="150.992978"/>
     <use style="fill:#4c72b0;fill-opacity:0.8;stroke:#000000;stroke-opacity:0.8;stroke-width:0.7;" x="503.632885" xlink:href="#m2e510b8f0e" y="195.684066"/>
     <use style="fill:#4c72b0;fill-opacity:0.8;stroke:#000000;stroke-opacity:0.8;stroke-width:0.7;" x="326.39336" xlink:href="#m2e510b8f0e" y="146.036057"/>
     <use style="fill:#4c72b0;fill-opacity:0.8;stroke:#000000;stroke-opacity:0.8;stroke-width:0.7;" x="346.08664" xlink:href="#m2e510b8f0e" y="131.291113"/>
     <use style="fill:#4c72b0;fill-opacity:0.8;stroke:#000000;stroke-opacity:0.8;stroke-width:0.7;" x="483.939605" xlink:href="#m2e510b8f0e" y="205.266272"/>
     <use style="fill:#4c72b0;fill-opacity:0.8;stroke:#000000;stroke-opacity:0.8;stroke-width:0.7;" x="543.019447" xlink:href="#m2e510b8f0e" y="154.006486"/>
     <use style="fill:#4c72b0;fill-opacity:0.8;stroke:#000000;stroke-opacity:0.8;stroke-width:0.7;" x="464.246324" xlink:href="#m2e510b8f0e" y="119.66301"/>
     <use style="fill:#4c72b0;fill-opacity:0.8;stroke:#000000;stroke-opacity:0.8;stroke-width:0.7;" x="444.553043" xlink:href="#m2e510b8f0e" y="173.392719"/>
     <use style="fill:#4c72b0;fill-opacity:0.8;stroke:#000000;stroke-opacity:0.8;stroke-width:0.7;" x="385.473202" xlink:href="#m2e510b8f0e" y="111.208568"/>
     <use style="fill:#4c72b0;fill-opacity:0.8;stroke:#000000;stroke-opacity:0.8;stroke-width:0.7;" x="306.700079" xlink:href="#m2e510b8f0e" y="113.631915"/>
     <use style="fill:#4c72b0;fill-opacity:0.8;stroke:#000000;stroke-opacity:0.8;stroke-width:0.7;" x="543.019447" xlink:href="#m2e510b8f0e" y="145.658519"/>
     <use style="fill:#4c72b0;fill-opacity:0.8;stroke:#000000;stroke-opacity:0.8;stroke-width:0.7;" x="523.326166" xlink:href="#m2e510b8f0e" y="178.752702"/>
     <use style="fill:#4c72b0;fill-opacity:0.8;stroke:#000000;stroke-opacity:0.8;stroke-width:0.7;" x="523.326166" xlink:href="#m2e510b8f0e" y="155.710636"/>
     <use style="fill:#4c72b0;fill-opacity:0.8;stroke:#000000;stroke-opacity:0.8;stroke-width:0.7;" x="444.553043" xlink:href="#m2e510b8f0e" y="196.284206"/>
     <use style="fill:#4c72b0;fill-opacity:0.8;stroke:#000000;stroke-opacity:0.8;stroke-width:0.7;" x="365.779921" xlink:href="#m2e510b8f0e" y="134.416286"/>
     <use style="fill:#4c72b0;fill-opacity:0.8;stroke:#000000;stroke-opacity:0.8;stroke-width:0.7;" x="306.700079" xlink:href="#m2e510b8f0e" y="139.234387"/>
     <use style="fill:#4c72b0;fill-opacity:0.8;stroke:#000000;stroke-opacity:0.8;stroke-width:0.7;" x="523.326166" xlink:href="#m2e510b8f0e" y="213.65552"/>
     <use style="fill:#4c72b0;fill-opacity:0.8;stroke:#000000;stroke-opacity:0.8;stroke-width:0.7;" x="543.019447" xlink:href="#m2e510b8f0e" y="242.789013"/>
     <use style="fill:#4c72b0;fill-opacity:0.8;stroke:#000000;stroke-opacity:0.8;stroke-width:0.7;" x="424.859763" xlink:href="#m2e510b8f0e" y="250.489472"/>
     <use style="fill:#4c72b0;fill-opacity:0.8;stroke:#000000;stroke-opacity:0.8;stroke-width:0.7;" x="483.939605" xlink:href="#m2e510b8f0e" y="276.574114"/>
     <use style="fill:#4c72b0;fill-opacity:0.8;stroke:#000000;stroke-opacity:0.8;stroke-width:0.7;" x="346.08664" xlink:href="#m2e510b8f0e" y="217.450947"/>
     <use style="fill:#4c72b0;fill-opacity:0.8;stroke:#000000;stroke-opacity:0.8;stroke-width:0.7;" x="326.39336" xlink:href="#m2e510b8f0e" y="185.369378"/>
     <use style="fill:#4c72b0;fill-opacity:0.8;stroke:#000000;stroke-opacity:0.8;stroke-width:0.7;" x="562.712727" xlink:href="#m2e510b8f0e" y="257.988024"/>
     <use style="fill:#4c72b0;fill-opacity:0.8;stroke:#000000;stroke-opacity:0.8;stroke-width:0.7;" x="483.939605" xlink:href="#m2e510b8f0e" y="133.849141"/>
     <use style="fill:#4c72b0;fill-opacity:0.8;stroke:#000000;stroke-opacity:0.8;stroke-width:0.7;" x="405.166482" xlink:href="#m2e510b8f0e" y="109.782586"/>
     <use style="fill:#4c72b0;fill-opacity:0.8;stroke:#000000;stroke-opacity:0.8;stroke-width:0.7;" x="562.712727" xlink:href="#m2e510b8f0e" y="102.139163"/>
     <use style="fill:#4c72b0;fill-opacity:0.8;stroke:#000000;stroke-opacity:0.8;stroke-width:0.7;" x="464.246324" xlink:href="#m2e510b8f0e" y="115.4251"/>
     <use style="fill:#4c72b0;fill-opacity:0.8;stroke:#000000;stroke-opacity:0.8;stroke-width:0.7;" x="326.39336" xlink:href="#m2e510b8f0e" y="139.377649"/>
     <use style="fill:#4c72b0;fill-opacity:0.8;stroke:#000000;stroke-opacity:0.8;stroke-width:0.7;" x="444.553043" xlink:href="#m2e510b8f0e" y="128.901155"/>
     <use style="fill:#4c72b0;fill-opacity:0.8;stroke:#000000;stroke-opacity:0.8;stroke-width:0.7;" x="503.632885" xlink:href="#m2e510b8f0e" y="208.781781"/>
     <use style="fill:#4c72b0;fill-opacity:0.8;stroke:#000000;stroke-opacity:0.8;stroke-width:0.7;" x="464.246324" xlink:href="#m2e510b8f0e" y="222.521338"/>
     <use style="fill:#4c72b0;fill-opacity:0.8;stroke:#000000;stroke-opacity:0.8;stroke-width:0.7;" x="483.939605" xlink:href="#m2e510b8f0e" y="215.620035"/>
     <use style="fill:#4c72b0;fill-opacity:0.8;stroke:#000000;stroke-opacity:0.8;stroke-width:0.7;" x="562.712727" xlink:href="#m2e510b8f0e" y="147.732316"/>
     <use style="fill:#4c72b0;fill-opacity:0.8;stroke:#000000;stroke-opacity:0.8;stroke-width:0.7;" x="346.08664" xlink:href="#m2e510b8f0e" y="188.282712"/>
     <use style="fill:#4c72b0;fill-opacity:0.8;stroke:#000000;stroke-opacity:0.8;stroke-width:0.7;" x="326.39336" xlink:href="#m2e510b8f0e" y="224.507148"/>
     <use style="fill:#4c72b0;fill-opacity:0.8;stroke:#000000;stroke-opacity:0.8;stroke-width:0.7;" x="444.553043" xlink:href="#m2e510b8f0e" y="249.35913"/>
     <use style="fill:#4c72b0;fill-opacity:0.8;stroke:#000000;stroke-opacity:0.8;stroke-width:0.7;" x="523.326166" xlink:href="#m2e510b8f0e" y="274.736401"/>
     <use style="fill:#4c72b0;fill-opacity:0.8;stroke:#000000;stroke-opacity:0.8;stroke-width:0.7;" x="543.019447" xlink:href="#m2e510b8f0e" y="244.587308"/>
     <use style="fill:#4c72b0;fill-opacity:0.8;stroke:#000000;stroke-opacity:0.8;stroke-width:0.7;" x="562.712727" xlink:href="#m2e510b8f0e" y="240.933852"/>
     <use style="fill:#4c72b0;fill-opacity:0.8;stroke:#000000;stroke-opacity:0.8;stroke-width:0.7;" x="503.632885" xlink:href="#m2e510b8f0e" y="240.651902"/>
     <use style="fill:#4c72b0;fill-opacity:0.8;stroke:#000000;stroke-opacity:0.8;stroke-width:0.7;" x="109.767273" xlink:href="#m2e510b8f0e" y="272.409218"/>
     <use style="fill:#4c72b0;fill-opacity:0.8;stroke:#000000;stroke-opacity:0.8;stroke-width:0.7;" x="483.939605" xlink:href="#m2e510b8f0e" y="245.733854"/>
     <use style="fill:#4c72b0;fill-opacity:0.8;stroke:#000000;stroke-opacity:0.8;stroke-width:0.7;" x="444.553043" xlink:href="#m2e510b8f0e" y="190.687964"/>
     <use style="fill:#4c72b0;fill-opacity:0.8;stroke:#000000;stroke-opacity:0.8;stroke-width:0.7;" x="543.019447" xlink:href="#m2e510b8f0e" y="201.292063"/>
     <use style="fill:#4c72b0;fill-opacity:0.8;stroke:#000000;stroke-opacity:0.8;stroke-width:0.7;" x="543.019447" xlink:href="#m2e510b8f0e" y="171.738104"/>
     <use style="fill:#4c72b0;fill-opacity:0.8;stroke:#000000;stroke-opacity:0.8;stroke-width:0.7;" x="306.700079" xlink:href="#m2e510b8f0e" y="133.498651"/>
     <use style="fill:#4c72b0;fill-opacity:0.8;stroke:#000000;stroke-opacity:0.8;stroke-width:0.7;" x="365.779921" xlink:href="#m2e510b8f0e" y="215.860403"/>
     <use style="fill:#4c72b0;fill-opacity:0.8;stroke:#000000;stroke-opacity:0.8;stroke-width:0.7;" x="444.553043" xlink:href="#m2e510b8f0e" y="165.380723"/>
     <use style="fill:#4c72b0;fill-opacity:0.8;stroke:#000000;stroke-opacity:0.8;stroke-width:0.7;" x="405.166482" xlink:href="#m2e510b8f0e" y="137.855328"/>
     <use style="fill:#4c72b0;fill-opacity:0.8;stroke:#000000;stroke-opacity:0.8;stroke-width:0.7;" x="424.859763" xlink:href="#m2e510b8f0e" y="119.409405"/>
     <use style="fill:#4c72b0;fill-opacity:0.8;stroke:#000000;stroke-opacity:0.8;stroke-width:0.7;" x="444.553043" xlink:href="#m2e510b8f0e" y="117.691875"/>
     <use style="fill:#4c72b0;fill-opacity:0.8;stroke:#000000;stroke-opacity:0.8;stroke-width:0.7;" x="503.632885" xlink:href="#m2e510b8f0e" y="137.883233"/>
     <use style="fill:#4c72b0;fill-opacity:0.8;stroke:#000000;stroke-opacity:0.8;stroke-width:0.7;" x="464.246324" xlink:href="#m2e510b8f0e" y="118.68365"/>
     <use style="fill:#4c72b0;fill-opacity:0.8;stroke:#000000;stroke-opacity:0.8;stroke-width:0.7;" x="503.632885" xlink:href="#m2e510b8f0e" y="207.044889"/>
     <use style="fill:#4c72b0;fill-opacity:0.8;stroke:#000000;stroke-opacity:0.8;stroke-width:0.7;" x="444.553043" xlink:href="#m2e510b8f0e" y="256.889324"/>
     <use style="fill:#4c72b0;fill-opacity:0.8;stroke:#000000;stroke-opacity:0.8;stroke-width:0.7;" x="503.632885" xlink:href="#m2e510b8f0e" y="188.829271"/>
     <use style="fill:#4c72b0;fill-opacity:0.8;stroke:#000000;stroke-opacity:0.8;stroke-width:0.7;" x="326.39336" xlink:href="#m2e510b8f0e" y="185.96688"/>
     <use style="fill:#4c72b0;fill-opacity:0.8;stroke:#000000;stroke-opacity:0.8;stroke-width:0.7;" x="385.473202" xlink:href="#m2e510b8f0e" y="112.888407"/>
     <use style="fill:#4c72b0;fill-opacity:0.8;stroke:#000000;stroke-opacity:0.8;stroke-width:0.7;" x="523.326166" xlink:href="#m2e510b8f0e" y="192.784153"/>
     <use style="fill:#4c72b0;fill-opacity:0.8;stroke:#000000;stroke-opacity:0.8;stroke-width:0.7;" x="562.712727" xlink:href="#m2e510b8f0e" y="204.217523"/>
     <use style="fill:#4c72b0;fill-opacity:0.8;stroke:#000000;stroke-opacity:0.8;stroke-width:0.7;" x="464.246324" xlink:href="#m2e510b8f0e" y="233.910349"/>
     <use style="fill:#4c72b0;fill-opacity:0.8;stroke:#000000;stroke-opacity:0.8;stroke-width:0.7;" x="483.939605" xlink:href="#m2e510b8f0e" y="228.779573"/>
     <use style="fill:#4c72b0;fill-opacity:0.8;stroke:#000000;stroke-opacity:0.8;stroke-width:0.7;" x="562.712727" xlink:href="#m2e510b8f0e" y="155.452141"/>
     <use style="fill:#4c72b0;fill-opacity:0.8;stroke:#000000;stroke-opacity:0.8;stroke-width:0.7;" x="444.553043" xlink:href="#m2e510b8f0e" y="162.439947"/>
     <use style="fill:#4c72b0;fill-opacity:0.8;stroke:#000000;stroke-opacity:0.8;stroke-width:0.7;" x="168.847115" xlink:href="#m2e510b8f0e" y="223.063505"/>
     <use style="fill:#4c72b0;fill-opacity:0.8;stroke:#000000;stroke-opacity:0.8;stroke-width:0.7;" x="483.939605" xlink:href="#m2e510b8f0e" y="87.262524"/>
     <use style="fill:#4c72b0;fill-opacity:0.8;stroke:#000000;stroke-opacity:0.8;stroke-width:0.7;" x="503.632885" xlink:href="#m2e510b8f0e" y="81.59355"/>
     <use style="fill:#4c72b0;fill-opacity:0.8;stroke:#000000;stroke-opacity:0.8;stroke-width:0.7;" x="444.553043" xlink:href="#m2e510b8f0e" y="38.43"/>
     <use style="fill:#4c72b0;fill-opacity:0.8;stroke:#000000;stroke-opacity:0.8;stroke-width:0.7;" x="523.326166" xlink:href="#m2e510b8f0e" y="58.069754"/>
     <use style="fill:#4c72b0;fill-opacity:0.8;stroke:#000000;stroke-opacity:0.8;stroke-width:0.7;" x="247.620237" xlink:href="#m2e510b8f0e" y="84.239739"/>
     <use style="fill:#4c72b0;fill-opacity:0.8;stroke:#000000;stroke-opacity:0.8;stroke-width:0.7;" x="483.939605" xlink:href="#m2e510b8f0e" y="77.932974"/>
    </g>
   </g>
   <g id="PolyCollection_1">
    <defs>
     <path d="M 109.767273 -379.835653 
L 109.767273 -258.258304 
L 114.342479 -258.898852 
L 118.917686 -259.539399 
L 123.492893 -260.179946 
L 128.068099 -260.822721 
L 132.643306 -261.535988 
L 137.218512 -262.372089 
L 141.793719 -263.208696 
L 146.368926 -263.916006 
L 150.944132 -264.572001 
L 155.519339 -265.264983 
L 160.094545 -266.093329 
L 164.669752 -266.923048 
L 169.244959 -267.75888 
L 173.820165 -268.594712 
L 178.395372 -269.437555 
L 182.970579 -270.385548 
L 187.545785 -271.333542 
L 192.120992 -272.281535 
L 196.696198 -273.229528 
L 201.271405 -274.140573 
L 205.846612 -274.981487 
L 210.421818 -275.8224 
L 214.997025 -276.663314 
L 219.572231 -277.504227 
L 224.147438 -278.283817 
L 228.722645 -279.017325 
L 233.297851 -279.712501 
L 237.873058 -280.255797 
L 242.448264 -281.083726 
L 247.023471 -281.920776 
L 251.598678 -282.754616 
L 256.173884 -283.584949 
L 260.749091 -284.347812 
L 265.324298 -285.054937 
L 269.899504 -285.605361 
L 274.474711 -286.331323 
L 279.049917 -287.067461 
L 283.625124 -287.883436 
L 288.200331 -288.563702 
L 292.775537 -289.179005 
L 297.350744 -289.864315 
L 301.92595 -290.70343 
L 306.501157 -291.412338 
L 311.076364 -292.12319 
L 315.65157 -292.91435 
L 320.226777 -293.527347 
L 324.801983 -294.089805 
L 329.37719 -294.336737 
L 333.952397 -295.079747 
L 338.527603 -295.90956 
L 343.10281 -296.412711 
L 347.678017 -296.915862 
L 352.253223 -297.27217 
L 356.82843 -297.657667 
L 361.403636 -298.25718 
L 365.978843 -298.857494 
L 370.55405 -299.416855 
L 375.129256 -299.864539 
L 379.704463 -300.214389 
L 384.279669 -300.893279 
L 388.854876 -301.347298 
L 393.430083 -301.708487 
L 398.005289 -302.308915 
L 402.580496 -302.882592 
L 407.155702 -303.412519 
L 411.730909 -303.892284 
L 416.306116 -304.351832 
L 420.881322 -304.934154 
L 425.456529 -305.395552 
L 430.031736 -305.821536 
L 434.606942 -306.184205 
L 439.182149 -306.317388 
L 443.757355 -306.598255 
L 448.332562 -306.615593 
L 452.907769 -306.574707 
L 457.482975 -306.77415 
L 462.058182 -306.739122 
L 466.633388 -306.738672 
L 471.208595 -306.774628 
L 475.783802 -306.386023 
L 480.359008 -306.110012 
L 484.934215 -305.794344 
L 489.509421 -305.369425 
L 494.084628 -305.235669 
L 498.659835 -304.962481 
L 503.235041 -304.511262 
L 507.810248 -303.596317 
L 512.385455 -303.240553 
L 516.960661 -302.621333 
L 521.535868 -302.254929 
L 526.111074 -301.515232 
L 530.686281 -301.16561 
L 535.261488 -300.292313 
L 539.836694 -299.768849 
L 544.411901 -299.283354 
L 548.987107 -298.635386 
L 553.562314 -298.04153 
L 558.137521 -297.703633 
L 562.712727 -297.369212 
L 562.712727 -341.08549 
L 562.712727 -341.08549 
L 558.137521 -340.286145 
L 553.562314 -339.937808 
L 548.987107 -339.420063 
L 544.411901 -338.812251 
L 539.836694 -338.222184 
L 535.261488 -337.789359 
L 530.686281 -337.165718 
L 526.111074 -336.994096 
L 521.535868 -336.717669 
L 516.960661 -336.216264 
L 512.385455 -336.175593 
L 507.810248 -335.807608 
L 503.235041 -335.977836 
L 498.659835 -336.00415 
L 494.084628 -335.428615 
L 489.509421 -334.999619 
L 484.934215 -334.853176 
L 480.359008 -334.617498 
L 475.783802 -334.337614 
L 471.208595 -334.253818 
L 466.633388 -334.301576 
L 462.058182 -334.533803 
L 457.482975 -334.595337 
L 452.907769 -334.787392 
L 448.332562 -334.897515 
L 443.757355 -335.129607 
L 439.182149 -335.023058 
L 434.606942 -334.948124 
L 430.031736 -334.975855 
L 425.456529 -335.422411 
L 420.881322 -335.791289 
L 416.306116 -335.87278 
L 411.730909 -336.070048 
L 407.155702 -336.673516 
L 402.580496 -337.247194 
L 398.005289 -337.902069 
L 393.430083 -338.456062 
L 388.854876 -338.737167 
L 384.279669 -338.993388 
L 379.704463 -339.598218 
L 375.129256 -340.017912 
L 370.55405 -340.650121 
L 365.978843 -341.097715 
L 361.403636 -341.343113 
L 356.82843 -341.780315 
L 352.253223 -342.525927 
L 347.678017 -342.857262 
L 343.10281 -343.275934 
L 338.527603 -344.034943 
L 333.952397 -344.584191 
L 329.37719 -345.140633 
L 324.801983 -345.967382 
L 320.226777 -346.789884 
L 315.65157 -347.612387 
L 311.076364 -348.443653 
L 306.501157 -349.272516 
L 301.92595 -349.976411 
L 297.350744 -350.455736 
L 292.775537 -350.923659 
L 288.200331 -351.561463 
L 283.625124 -352.204026 
L 279.049917 -353.036641 
L 274.474711 -353.869255 
L 269.899504 -354.495739 
L 265.324298 -355.056065 
L 260.749091 -355.745895 
L 256.173884 -356.448337 
L 251.598678 -357.278393 
L 247.023471 -357.940961 
L 242.448264 -358.584051 
L 237.873058 -359.223792 
L 233.297851 -359.863532 
L 228.722645 -360.503272 
L 224.147438 -361.143013 
L 219.572231 -361.782753 
L 214.997025 -362.422493 
L 210.421818 -363.062234 
L 205.846612 -363.746137 
L 201.271405 -364.436644 
L 196.696198 -365.061706 
L 192.120992 -365.700884 
L 187.545785 -366.534348 
L 182.970579 -367.414564 
L 178.395372 -368.29478 
L 173.820165 -369.174995 
L 169.244959 -370.051219 
L 164.669752 -370.925771 
L 160.094545 -371.800324 
L 155.519339 -372.600669 
L 150.944132 -373.261017 
L 146.368926 -373.921364 
L 141.793719 -374.651162 
L 137.218512 -375.464808 
L 132.643306 -376.273222 
L 128.068099 -377.081637 
L 123.492893 -377.890051 
L 118.917686 -378.540154 
L 114.342479 -379.147314 
L 109.767273 -379.835653 
z
" id="ma199397950" style="stroke:#ffffff;stroke-opacity:0.15;"/>
    </defs>
    <g clip-path="url(#p7cf95bb242)">
     <use style="fill:#4c72b0;fill-opacity:0.15;stroke:#ffffff;stroke-opacity:0.15;" x="0" xlink:href="#ma199397950" y="504"/>
    </g>
   </g>
   <g id="line2d_1">
    <path clip-path="url(#p7cf95bb242)" d="M 109.767273 185.040679 
L 114.342479 185.016831 
L 118.917686 184.992983 
L 123.492893 184.969136 
L 128.068099 184.945288 
L 132.643306 184.92144 
L 137.218512 184.897592 
L 141.793719 184.873745 
L 146.368926 184.849897 
L 150.944132 184.826049 
L 155.519339 184.802201 
L 160.094545 184.778354 
L 164.669752 184.754506 
L 169.244959 184.730658 
L 173.820165 184.706811 
L 178.395372 184.682963 
L 182.970579 184.659115 
L 187.545785 184.635267 
L 192.120992 184.61142 
L 196.696198 184.587572 
L 201.271405 184.563724 
L 205.846612 184.539876 
L 210.421818 184.516029 
L 214.997025 184.492181 
L 219.572231 184.468333 
L 224.147438 184.444485 
L 228.722645 184.420638 
L 233.297851 184.39679 
L 237.873058 184.372942 
L 242.448264 184.349094 
L 247.023471 184.325247 
L 251.598678 184.301399 
L 256.173884 184.277551 
L 260.749091 184.253703 
L 265.324298 184.229856 
L 269.899504 184.206008 
L 274.474711 184.18216 
L 279.049917 184.158312 
L 283.625124 184.134465 
L 288.200331 184.110617 
L 292.775537 184.086769 
L 297.350744 184.062921 
L 301.92595 184.039074 
L 306.501157 184.015226 
L 311.076364 183.991378 
L 315.65157 183.96753 
L 320.226777 183.943683 
L 324.801983 183.919835 
L 329.37719 183.895987 
L 333.952397 183.872139 
L 338.527603 183.848292 
L 343.10281 183.824444 
L 347.678017 183.800596 
L 352.253223 183.776748 
L 356.82843 183.752901 
L 361.403636 183.729053 
L 365.978843 183.705205 
L 370.55405 183.681357 
L 375.129256 183.65751 
L 379.704463 183.633662 
L 384.279669 183.609814 
L 388.854876 183.585966 
L 393.430083 183.562119 
L 398.005289 183.538271 
L 402.580496 183.514423 
L 407.155702 183.490575 
L 411.730909 183.466728 
L 416.306116 183.44288 
L 420.881322 183.419032 
L 425.456529 183.395184 
L 430.031736 183.371337 
L 434.606942 183.347489 
L 439.182149 183.323641 
L 443.757355 183.299793 
L 448.332562 183.275946 
L 452.907769 183.252098 
L 457.482975 183.22825 
L 462.058182 183.204402 
L 466.633388 183.180555 
L 471.208595 183.156707 
L 475.783802 183.132859 
L 480.359008 183.109011 
L 484.934215 183.085164 
L 489.509421 183.061316 
L 494.084628 183.037468 
L 498.659835 183.01362 
L 503.235041 182.989773 
L 507.810248 182.965925 
L 512.385455 182.942077 
L 516.960661 182.918229 
L 521.535868 182.894382 
L 526.111074 182.870534 
L 530.686281 182.846686 
L 535.261488 182.822838 
L 539.836694 182.798991 
L 544.411901 182.775143 
L 548.987107 182.751295 
L 553.562314 182.727447 
L 558.137521 182.7036 
L 562.712727 182.679752 
" style="fill:none;stroke:#4c72b0;stroke-linecap:round;stroke-width:2.25;"/>
   </g>
   <g id="patch_3">
    <path d="M 87.12 437.22 
L 87.12 19.44 
" style="fill:none;stroke:#262626;stroke-linecap:square;stroke-linejoin:miter;stroke-width:1.25;"/>
   </g>
   <g id="patch_4">
    <path d="M 87.12 437.22 
L 585.36 437.22 
" style="fill:none;stroke:#262626;stroke-linecap:square;stroke-linejoin:miter;stroke-width:1.25;"/>
   </g>
   <g id="text_18">
    <!-- Human ratings ~ Fasttext space -->
    <g style="fill:#262626;" transform="translate(191.195156 13.44)scale(0.18 -0.18)">
     <defs>
      <path d="M 4684 2553 
L 4684 1997 
Q 4356 1750 4076 1644 
Q 3797 1538 3494 1538 
Q 3150 1538 2694 1722 
Q 2659 1734 2644 1741 
Q 2622 1750 2575 1766 
Q 2091 1959 1797 1959 
Q 1522 1959 1253 1839 
Q 984 1719 678 1459 
L 678 2016 
Q 1006 2263 1286 2370 
Q 1566 2478 1869 2478 
Q 2213 2478 2672 2291 
Q 2703 2278 2719 2272 
Q 2744 2263 2788 2247 
Q 3272 2053 3566 2053 
Q 3834 2053 4098 2172 
Q 4363 2291 4684 2553 
z
" id="DejaVuSans-7e" transform="scale(0.015625)"/>
     </defs>
     <use xlink:href="#DejaVuSans-48"/>
     <use x="75.195312" xlink:href="#DejaVuSans-75"/>
     <use x="138.574219" xlink:href="#DejaVuSans-6d"/>
     <use x="235.986328" xlink:href="#DejaVuSans-61"/>
     <use x="297.265625" xlink:href="#DejaVuSans-6e"/>
     <use x="360.644531" xlink:href="#DejaVuSans-20"/>
     <use x="392.431641" xlink:href="#DejaVuSans-72"/>
     <use x="433.544922" xlink:href="#DejaVuSans-61"/>
     <use x="494.824219" xlink:href="#DejaVuSans-74"/>
     <use x="534.033203" xlink:href="#DejaVuSans-69"/>
     <use x="561.816406" xlink:href="#DejaVuSans-6e"/>
     <use x="625.195312" xlink:href="#DejaVuSans-67"/>
     <use x="688.671875" xlink:href="#DejaVuSans-73"/>
     <use x="740.771484" xlink:href="#DejaVuSans-20"/>
     <use x="772.558594" xlink:href="#DejaVuSans-7e"/>
     <use x="856.347656" xlink:href="#DejaVuSans-20"/>
     <use x="888.134766" xlink:href="#DejaVuSans-46"/>
     <use x="936.529297" xlink:href="#DejaVuSans-61"/>
     <use x="997.808594" xlink:href="#DejaVuSans-73"/>
     <use x="1049.908203" xlink:href="#DejaVuSans-74"/>
     <use x="1089.117188" xlink:href="#DejaVuSans-74"/>
     <use x="1128.326172" xlink:href="#DejaVuSans-65"/>
     <use x="1188.099609" xlink:href="#DejaVuSans-78"/>
     <use x="1247.279297" xlink:href="#DejaVuSans-74"/>
     <use x="1286.488281" xlink:href="#DejaVuSans-20"/>
     <use x="1318.275391" xlink:href="#DejaVuSans-73"/>
     <use x="1370.375" xlink:href="#DejaVuSans-70"/>
     <use x="1433.851562" xlink:href="#DejaVuSans-61"/>
     <use x="1495.130859" xlink:href="#DejaVuSans-63"/>
     <use x="1550.111328" xlink:href="#DejaVuSans-65"/>
    </g>
   </g>
  </g>
  <g id="text_19">
   <!-- r =  -0.082 -->
   <g style="fill:#262626;" transform="translate(243.798188 56.732625)scale(0.216 -0.216)">
    <defs>
     <path d="M 678 2906 
L 4684 2906 
L 4684 2381 
L 678 2381 
L 678 2906 
z
M 678 1631 
L 4684 1631 
L 4684 1100 
L 678 1100 
L 678 1631 
z
" id="DejaVuSans-3d" transform="scale(0.015625)"/>
     <path d="M 313 2009 
L 1997 2009 
L 1997 1497 
L 313 1497 
L 313 2009 
z
" id="DejaVuSans-2d" transform="scale(0.015625)"/>
     <path d="M 1228 531 
L 3431 531 
L 3431 0 
L 469 0 
L 469 531 
Q 828 903 1448 1529 
Q 2069 2156 2228 2338 
Q 2531 2678 2651 2914 
Q 2772 3150 2772 3378 
Q 2772 3750 2511 3984 
Q 2250 4219 1831 4219 
Q 1534 4219 1204 4116 
Q 875 4013 500 3803 
L 500 4441 
Q 881 4594 1212 4672 
Q 1544 4750 1819 4750 
Q 2544 4750 2975 4387 
Q 3406 4025 3406 3419 
Q 3406 3131 3298 2873 
Q 3191 2616 2906 2266 
Q 2828 2175 2409 1742 
Q 1991 1309 1228 531 
z
" id="DejaVuSans-32" transform="scale(0.015625)"/>
    </defs>
    <use xlink:href="#DejaVuSans-72"/>
    <use x="41.113281" xlink:href="#DejaVuSans-20"/>
    <use x="72.900391" xlink:href="#DejaVuSans-3d"/>
    <use x="156.689453" xlink:href="#DejaVuSans-20"/>
    <use x="188.476562" xlink:href="#DejaVuSans-20"/>
    <use x="220.263672" xlink:href="#DejaVuSans-2d"/>
    <use x="256.347656" xlink:href="#DejaVuSans-30"/>
    <use x="319.970703" xlink:href="#DejaVuSans-2e"/>
    <use x="351.757812" xlink:href="#DejaVuSans-30"/>
    <use x="415.380859" xlink:href="#DejaVuSans-38"/>
    <use x="479.003906" xlink:href="#DejaVuSans-32"/>
   </g>
  </g>
 </g>
 <defs>
  <clipPath id="p7cf95bb242">
   <rect height="417.78" width="498.24" x="87.12" y="19.44"/>
  </clipPath>
 </defs>
</svg>
