<?xml version="1.0" encoding="utf-8" standalone="no"?>
<!DOCTYPE svg PUBLIC "-//W3C//DTD SVG 1.1//EN"
  "http://www.w3.org/Graphics/SVG/1.1/DTD/svg11.dtd">
<svg height="504pt" version="1.1" viewBox="0 0 604.8 504" width="604.8pt" xmlns="http://www.w3.org/2000/svg" xmlns:xlink="http://www.w3.org/1999/xlink">
 <metadata>
  <rdf:RDF xmlns:cc="http://creativecommons.org/ns#" xmlns:dc="http://purl.org/dc/elements/1.1/" xmlns:rdf="http://www.w3.org/1999/02/22-rdf-syntax-ns#">
   <cc:Work>
    <dc:type rdf:resource="http://purl.org/dc/dcmitype/StillImage"/>
    <dc:date>2023-07-25T11:05:17.204982</dc:date>
    <dc:format>image/svg+xml</dc:format>
    <dc:creator>
     <cc:Agent>
      <dc:title>Matplotlib v3.4.3, https://matplotlib.org/</dc:title>
     </cc:Agent>
    </dc:creator>
   </cc:Work>
  </rdf:RDF>
 </metadata>
 <defs>
  <style type="text/css">*{stroke-linecap:butt;stroke-linejoin:round;}</style>
 </defs>
 <g id="figure_1">
  <g id="patch_1">
   <path d="M 0 504 
L 604.8 504 
L 604.8 0 
L 0 0 
z
" style="fill:#ffffff;"/>
  </g>
  <g id="axes_1">
   <g id="patch_2">
    <path d="M 97.65 437.22 
L 585.36 437.22 
L 585.36 19.44 
L 97.65 19.44 
z
" style="fill:#ffffff;"/>
   </g>
   <g id="matplotlib.axis_1">
    <g id="xtick_1">
     <g id="text_1">
      <!-- 1.0 -->
      <g style="fill:#262626;" transform="translate(92.536329 459.257422)scale(0.165 -0.165)">
       <defs>
        <path d="M 794 531 
L 1825 531 
L 1825 4091 
L 703 3866 
L 703 4441 
L 1819 4666 
L 2450 4666 
L 2450 531 
L 3481 531 
L 3481 0 
L 794 0 
L 794 531 
z
" id="DejaVuSans-31" transform="scale(0.015625)"/>
        <path d="M 684 794 
L 1344 794 
L 1344 0 
L 684 0 
L 684 794 
z
" id="DejaVuSans-2e" transform="scale(0.015625)"/>
        <path d="M 2034 4250 
Q 1547 4250 1301 3770 
Q 1056 3291 1056 2328 
Q 1056 1369 1301 889 
Q 1547 409 2034 409 
Q 2525 409 2770 889 
Q 3016 1369 3016 2328 
Q 3016 3291 2770 3770 
Q 2525 4250 2034 4250 
z
M 2034 4750 
Q 2819 4750 3233 4129 
Q 3647 3509 3647 2328 
Q 3647 1150 3233 529 
Q 2819 -91 2034 -91 
Q 1250 -91 836 529 
Q 422 1150 422 2328 
Q 422 3509 836 4129 
Q 1250 4750 2034 4750 
z
" id="DejaVuSans-30" transform="scale(0.015625)"/>
       </defs>
       <use xlink:href="#DejaVuSans-31"/>
       <use x="63.623047" xlink:href="#DejaVuSans-2e"/>
       <use x="95.410156" xlink:href="#DejaVuSans-30"/>
      </g>
     </g>
    </g>
    <g id="xtick_2">
     <g id="text_2">
      <!-- 1.5 -->
      <g style="fill:#262626;" transform="translate(161.157804 459.257422)scale(0.165 -0.165)">
       <defs>
        <path d="M 691 4666 
L 3169 4666 
L 3169 4134 
L 1269 4134 
L 1269 2991 
Q 1406 3038 1543 3061 
Q 1681 3084 1819 3084 
Q 2600 3084 3056 2656 
Q 3513 2228 3513 1497 
Q 3513 744 3044 326 
Q 2575 -91 1722 -91 
Q 1428 -91 1123 -41 
Q 819 9 494 109 
L 494 744 
Q 775 591 1075 516 
Q 1375 441 1709 441 
Q 2250 441 2565 725 
Q 2881 1009 2881 1497 
Q 2881 1984 2565 2268 
Q 2250 2553 1709 2553 
Q 1456 2553 1204 2497 
Q 953 2441 691 2322 
L 691 4666 
z
" id="DejaVuSans-35" transform="scale(0.015625)"/>
       </defs>
       <use xlink:href="#DejaVuSans-31"/>
       <use x="63.623047" xlink:href="#DejaVuSans-2e"/>
       <use x="95.410156" xlink:href="#DejaVuSans-35"/>
      </g>
     </g>
    </g>
    <g id="xtick_3">
     <g id="text_3">
      <!-- 2.0 -->
      <g style="fill:#262626;" transform="translate(229.779279 459.257422)scale(0.165 -0.165)">
       <defs>
        <path d="M 1228 531 
L 3431 531 
L 3431 0 
L 469 0 
L 469 531 
Q 828 903 1448 1529 
Q 2069 2156 2228 2338 
Q 2531 2678 2651 2914 
Q 2772 3150 2772 3378 
Q 2772 3750 2511 3984 
Q 2250 4219 1831 4219 
Q 1534 4219 1204 4116 
Q 875 4013 500 3803 
L 500 4441 
Q 881 4594 1212 4672 
Q 1544 4750 1819 4750 
Q 2544 4750 2975 4387 
Q 3406 4025 3406 3419 
Q 3406 3131 3298 2873 
Q 3191 2616 2906 2266 
Q 2828 2175 2409 1742 
Q 1991 1309 1228 531 
z
" id="DejaVuSans-32" transform="scale(0.015625)"/>
       </defs>
       <use xlink:href="#DejaVuSans-32"/>
       <use x="63.623047" xlink:href="#DejaVuSans-2e"/>
       <use x="95.410156" xlink:href="#DejaVuSans-30"/>
      </g>
     </g>
    </g>
    <g id="xtick_4">
     <g id="text_4">
      <!-- 2.5 -->
      <g style="fill:#262626;" transform="translate(298.400755 459.257422)scale(0.165 -0.165)">
       <use xlink:href="#DejaVuSans-32"/>
       <use x="63.623047" xlink:href="#DejaVuSans-2e"/>
       <use x="95.410156" xlink:href="#DejaVuSans-35"/>
      </g>
     </g>
    </g>
    <g id="xtick_5">
     <g id="text_5">
      <!-- 3.0 -->
      <g style="fill:#262626;" transform="translate(367.02223 459.257422)scale(0.165 -0.165)">
       <defs>
        <path d="M 2597 2516 
Q 3050 2419 3304 2112 
Q 3559 1806 3559 1356 
Q 3559 666 3084 287 
Q 2609 -91 1734 -91 
Q 1441 -91 1130 -33 
Q 819 25 488 141 
L 488 750 
Q 750 597 1062 519 
Q 1375 441 1716 441 
Q 2309 441 2620 675 
Q 2931 909 2931 1356 
Q 2931 1769 2642 2001 
Q 2353 2234 1838 2234 
L 1294 2234 
L 1294 2753 
L 1863 2753 
Q 2328 2753 2575 2939 
Q 2822 3125 2822 3475 
Q 2822 3834 2567 4026 
Q 2313 4219 1838 4219 
Q 1578 4219 1281 4162 
Q 984 4106 628 3988 
L 628 4550 
Q 988 4650 1302 4700 
Q 1616 4750 1894 4750 
Q 2613 4750 3031 4423 
Q 3450 4097 3450 3541 
Q 3450 3153 3228 2886 
Q 3006 2619 2597 2516 
z
" id="DejaVuSans-33" transform="scale(0.015625)"/>
       </defs>
       <use xlink:href="#DejaVuSans-33"/>
       <use x="63.623047" xlink:href="#DejaVuSans-2e"/>
       <use x="95.410156" xlink:href="#DejaVuSans-30"/>
      </g>
     </g>
    </g>
    <g id="xtick_6">
     <g id="text_6">
      <!-- 3.5 -->
      <g style="fill:#262626;" transform="translate(435.643706 459.257422)scale(0.165 -0.165)">
       <use xlink:href="#DejaVuSans-33"/>
       <use x="63.623047" xlink:href="#DejaVuSans-2e"/>
       <use x="95.410156" xlink:href="#DejaVuSans-35"/>
      </g>
     </g>
    </g>
    <g id="xtick_7">
     <g id="text_7">
      <!-- 4.0 -->
      <g style="fill:#262626;" transform="translate(504.265181 459.257422)scale(0.165 -0.165)">
       <defs>
        <path d="M 2419 4116 
L 825 1625 
L 2419 1625 
L 2419 4116 
z
M 2253 4666 
L 3047 4666 
L 3047 1625 
L 3713 1625 
L 3713 1100 
L 3047 1100 
L 3047 0 
L 2419 0 
L 2419 1100 
L 313 1100 
L 313 1709 
L 2253 4666 
z
" id="DejaVuSans-34" transform="scale(0.015625)"/>
       </defs>
       <use xlink:href="#DejaVuSans-34"/>
       <use x="63.623047" xlink:href="#DejaVuSans-2e"/>
       <use x="95.410156" xlink:href="#DejaVuSans-30"/>
      </g>
     </g>
    </g>
    <g id="text_8">
     <!-- Human ratings (euclidean distance) -->
     <g style="fill:#262626;" transform="translate(180.296719 480.366094)scale(0.18 -0.18)">
      <defs>
       <path d="M 628 4666 
L 1259 4666 
L 1259 2753 
L 3553 2753 
L 3553 4666 
L 4184 4666 
L 4184 0 
L 3553 0 
L 3553 2222 
L 1259 2222 
L 1259 0 
L 628 0 
L 628 4666 
z
" id="DejaVuSans-48" transform="scale(0.015625)"/>
       <path d="M 544 1381 
L 544 3500 
L 1119 3500 
L 1119 1403 
Q 1119 906 1312 657 
Q 1506 409 1894 409 
Q 2359 409 2629 706 
Q 2900 1003 2900 1516 
L 2900 3500 
L 3475 3500 
L 3475 0 
L 2900 0 
L 2900 538 
Q 2691 219 2414 64 
Q 2138 -91 1772 -91 
Q 1169 -91 856 284 
Q 544 659 544 1381 
z
M 1991 3584 
L 1991 3584 
z
" id="DejaVuSans-75" transform="scale(0.015625)"/>
       <path d="M 3328 2828 
Q 3544 3216 3844 3400 
Q 4144 3584 4550 3584 
Q 5097 3584 5394 3201 
Q 5691 2819 5691 2113 
L 5691 0 
L 5113 0 
L 5113 2094 
Q 5113 2597 4934 2840 
Q 4756 3084 4391 3084 
Q 3944 3084 3684 2787 
Q 3425 2491 3425 1978 
L 3425 0 
L 2847 0 
L 2847 2094 
Q 2847 2600 2669 2842 
Q 2491 3084 2119 3084 
Q 1678 3084 1418 2786 
Q 1159 2488 1159 1978 
L 1159 0 
L 581 0 
L 581 3500 
L 1159 3500 
L 1159 2956 
Q 1356 3278 1631 3431 
Q 1906 3584 2284 3584 
Q 2666 3584 2933 3390 
Q 3200 3197 3328 2828 
z
" id="DejaVuSans-6d" transform="scale(0.015625)"/>
       <path d="M 2194 1759 
Q 1497 1759 1228 1600 
Q 959 1441 959 1056 
Q 959 750 1161 570 
Q 1363 391 1709 391 
Q 2188 391 2477 730 
Q 2766 1069 2766 1631 
L 2766 1759 
L 2194 1759 
z
M 3341 1997 
L 3341 0 
L 2766 0 
L 2766 531 
Q 2569 213 2275 61 
Q 1981 -91 1556 -91 
Q 1019 -91 701 211 
Q 384 513 384 1019 
Q 384 1609 779 1909 
Q 1175 2209 1959 2209 
L 2766 2209 
L 2766 2266 
Q 2766 2663 2505 2880 
Q 2244 3097 1772 3097 
Q 1472 3097 1187 3025 
Q 903 2953 641 2809 
L 641 3341 
Q 956 3463 1253 3523 
Q 1550 3584 1831 3584 
Q 2591 3584 2966 3190 
Q 3341 2797 3341 1997 
z
" id="DejaVuSans-61" transform="scale(0.015625)"/>
       <path d="M 3513 2113 
L 3513 0 
L 2938 0 
L 2938 2094 
Q 2938 2591 2744 2837 
Q 2550 3084 2163 3084 
Q 1697 3084 1428 2787 
Q 1159 2491 1159 1978 
L 1159 0 
L 581 0 
L 581 3500 
L 1159 3500 
L 1159 2956 
Q 1366 3272 1645 3428 
Q 1925 3584 2291 3584 
Q 2894 3584 3203 3211 
Q 3513 2838 3513 2113 
z
" id="DejaVuSans-6e" transform="scale(0.015625)"/>
       <path id="DejaVuSans-20" transform="scale(0.015625)"/>
       <path d="M 2631 2963 
Q 2534 3019 2420 3045 
Q 2306 3072 2169 3072 
Q 1681 3072 1420 2755 
Q 1159 2438 1159 1844 
L 1159 0 
L 581 0 
L 581 3500 
L 1159 3500 
L 1159 2956 
Q 1341 3275 1631 3429 
Q 1922 3584 2338 3584 
Q 2397 3584 2469 3576 
Q 2541 3569 2628 3553 
L 2631 2963 
z
" id="DejaVuSans-72" transform="scale(0.015625)"/>
       <path d="M 1172 4494 
L 1172 3500 
L 2356 3500 
L 2356 3053 
L 1172 3053 
L 1172 1153 
Q 1172 725 1289 603 
Q 1406 481 1766 481 
L 2356 481 
L 2356 0 
L 1766 0 
Q 1100 0 847 248 
Q 594 497 594 1153 
L 594 3053 
L 172 3053 
L 172 3500 
L 594 3500 
L 594 4494 
L 1172 4494 
z
" id="DejaVuSans-74" transform="scale(0.015625)"/>
       <path d="M 603 3500 
L 1178 3500 
L 1178 0 
L 603 0 
L 603 3500 
z
M 603 4863 
L 1178 4863 
L 1178 4134 
L 603 4134 
L 603 4863 
z
" id="DejaVuSans-69" transform="scale(0.015625)"/>
       <path d="M 2906 1791 
Q 2906 2416 2648 2759 
Q 2391 3103 1925 3103 
Q 1463 3103 1205 2759 
Q 947 2416 947 1791 
Q 947 1169 1205 825 
Q 1463 481 1925 481 
Q 2391 481 2648 825 
Q 2906 1169 2906 1791 
z
M 3481 434 
Q 3481 -459 3084 -895 
Q 2688 -1331 1869 -1331 
Q 1566 -1331 1297 -1286 
Q 1028 -1241 775 -1147 
L 775 -588 
Q 1028 -725 1275 -790 
Q 1522 -856 1778 -856 
Q 2344 -856 2625 -561 
Q 2906 -266 2906 331 
L 2906 616 
Q 2728 306 2450 153 
Q 2172 0 1784 0 
Q 1141 0 747 490 
Q 353 981 353 1791 
Q 353 2603 747 3093 
Q 1141 3584 1784 3584 
Q 2172 3584 2450 3431 
Q 2728 3278 2906 2969 
L 2906 3500 
L 3481 3500 
L 3481 434 
z
" id="DejaVuSans-67" transform="scale(0.015625)"/>
       <path d="M 2834 3397 
L 2834 2853 
Q 2591 2978 2328 3040 
Q 2066 3103 1784 3103 
Q 1356 3103 1142 2972 
Q 928 2841 928 2578 
Q 928 2378 1081 2264 
Q 1234 2150 1697 2047 
L 1894 2003 
Q 2506 1872 2764 1633 
Q 3022 1394 3022 966 
Q 3022 478 2636 193 
Q 2250 -91 1575 -91 
Q 1294 -91 989 -36 
Q 684 19 347 128 
L 347 722 
Q 666 556 975 473 
Q 1284 391 1588 391 
Q 1994 391 2212 530 
Q 2431 669 2431 922 
Q 2431 1156 2273 1281 
Q 2116 1406 1581 1522 
L 1381 1569 
Q 847 1681 609 1914 
Q 372 2147 372 2553 
Q 372 3047 722 3315 
Q 1072 3584 1716 3584 
Q 2034 3584 2315 3537 
Q 2597 3491 2834 3397 
z
" id="DejaVuSans-73" transform="scale(0.015625)"/>
       <path d="M 1984 4856 
Q 1566 4138 1362 3434 
Q 1159 2731 1159 2009 
Q 1159 1288 1364 580 
Q 1569 -128 1984 -844 
L 1484 -844 
Q 1016 -109 783 600 
Q 550 1309 550 2009 
Q 550 2706 781 3412 
Q 1013 4119 1484 4856 
L 1984 4856 
z
" id="DejaVuSans-28" transform="scale(0.015625)"/>
       <path d="M 3597 1894 
L 3597 1613 
L 953 1613 
Q 991 1019 1311 708 
Q 1631 397 2203 397 
Q 2534 397 2845 478 
Q 3156 559 3463 722 
L 3463 178 
Q 3153 47 2828 -22 
Q 2503 -91 2169 -91 
Q 1331 -91 842 396 
Q 353 884 353 1716 
Q 353 2575 817 3079 
Q 1281 3584 2069 3584 
Q 2775 3584 3186 3129 
Q 3597 2675 3597 1894 
z
M 3022 2063 
Q 3016 2534 2758 2815 
Q 2500 3097 2075 3097 
Q 1594 3097 1305 2825 
Q 1016 2553 972 2059 
L 3022 2063 
z
" id="DejaVuSans-65" transform="scale(0.015625)"/>
       <path d="M 3122 3366 
L 3122 2828 
Q 2878 2963 2633 3030 
Q 2388 3097 2138 3097 
Q 1578 3097 1268 2742 
Q 959 2388 959 1747 
Q 959 1106 1268 751 
Q 1578 397 2138 397 
Q 2388 397 2633 464 
Q 2878 531 3122 666 
L 3122 134 
Q 2881 22 2623 -34 
Q 2366 -91 2075 -91 
Q 1284 -91 818 406 
Q 353 903 353 1747 
Q 353 2603 823 3093 
Q 1294 3584 2113 3584 
Q 2378 3584 2631 3529 
Q 2884 3475 3122 3366 
z
" id="DejaVuSans-63" transform="scale(0.015625)"/>
       <path d="M 603 4863 
L 1178 4863 
L 1178 0 
L 603 0 
L 603 4863 
z
" id="DejaVuSans-6c" transform="scale(0.015625)"/>
       <path d="M 2906 2969 
L 2906 4863 
L 3481 4863 
L 3481 0 
L 2906 0 
L 2906 525 
Q 2725 213 2448 61 
Q 2172 -91 1784 -91 
Q 1150 -91 751 415 
Q 353 922 353 1747 
Q 353 2572 751 3078 
Q 1150 3584 1784 3584 
Q 2172 3584 2448 3432 
Q 2725 3281 2906 2969 
z
M 947 1747 
Q 947 1113 1208 752 
Q 1469 391 1925 391 
Q 2381 391 2643 752 
Q 2906 1113 2906 1747 
Q 2906 2381 2643 2742 
Q 2381 3103 1925 3103 
Q 1469 3103 1208 2742 
Q 947 2381 947 1747 
z
" id="DejaVuSans-64" transform="scale(0.015625)"/>
       <path d="M 513 4856 
L 1013 4856 
Q 1481 4119 1714 3412 
Q 1947 2706 1947 2009 
Q 1947 1309 1714 600 
Q 1481 -109 1013 -844 
L 513 -844 
Q 928 -128 1133 580 
Q 1338 1288 1338 2009 
Q 1338 2731 1133 3434 
Q 928 4138 513 4856 
z
" id="DejaVuSans-29" transform="scale(0.015625)"/>
      </defs>
      <use xlink:href="#DejaVuSans-48"/>
      <use x="75.195312" xlink:href="#DejaVuSans-75"/>
      <use x="138.574219" xlink:href="#DejaVuSans-6d"/>
      <use x="235.986328" xlink:href="#DejaVuSans-61"/>
      <use x="297.265625" xlink:href="#DejaVuSans-6e"/>
      <use x="360.644531" xlink:href="#DejaVuSans-20"/>
      <use x="392.431641" xlink:href="#DejaVuSans-72"/>
      <use x="433.544922" xlink:href="#DejaVuSans-61"/>
      <use x="494.824219" xlink:href="#DejaVuSans-74"/>
      <use x="534.033203" xlink:href="#DejaVuSans-69"/>
      <use x="561.816406" xlink:href="#DejaVuSans-6e"/>
      <use x="625.195312" xlink:href="#DejaVuSans-67"/>
      <use x="688.671875" xlink:href="#DejaVuSans-73"/>
      <use x="740.771484" xlink:href="#DejaVuSans-20"/>
      <use x="772.558594" xlink:href="#DejaVuSans-28"/>
      <use x="811.572266" xlink:href="#DejaVuSans-65"/>
      <use x="873.095703" xlink:href="#DejaVuSans-75"/>
      <use x="936.474609" xlink:href="#DejaVuSans-63"/>
      <use x="991.455078" xlink:href="#DejaVuSans-6c"/>
      <use x="1019.238281" xlink:href="#DejaVuSans-69"/>
      <use x="1047.021484" xlink:href="#DejaVuSans-64"/>
      <use x="1110.498047" xlink:href="#DejaVuSans-65"/>
      <use x="1172.021484" xlink:href="#DejaVuSans-61"/>
      <use x="1233.300781" xlink:href="#DejaVuSans-6e"/>
      <use x="1296.679688" xlink:href="#DejaVuSans-20"/>
      <use x="1328.466797" xlink:href="#DejaVuSans-64"/>
      <use x="1391.943359" xlink:href="#DejaVuSans-69"/>
      <use x="1419.726562" xlink:href="#DejaVuSans-73"/>
      <use x="1471.826172" xlink:href="#DejaVuSans-74"/>
      <use x="1511.035156" xlink:href="#DejaVuSans-61"/>
      <use x="1572.314453" xlink:href="#DejaVuSans-6e"/>
      <use x="1635.693359" xlink:href="#DejaVuSans-63"/>
      <use x="1690.673828" xlink:href="#DejaVuSans-65"/>
      <use x="1752.197266" xlink:href="#DejaVuSans-29"/>
     </g>
    </g>
   </g>
   <g id="matplotlib.axis_2">
    <g id="ytick_1">
     <g id="text_9">
      <!-- 0.000 -->
      <g style="fill:#262626;" transform="translate(40.913594 436.230296)scale(0.165 -0.165)">
       <use xlink:href="#DejaVuSans-30"/>
       <use x="63.623047" xlink:href="#DejaVuSans-2e"/>
       <use x="95.410156" xlink:href="#DejaVuSans-30"/>
       <use x="159.033203" xlink:href="#DejaVuSans-30"/>
       <use x="222.65625" xlink:href="#DejaVuSans-30"/>
      </g>
     </g>
    </g>
    <g id="ytick_2">
     <g id="text_10">
      <!-- 0.025 -->
      <g style="fill:#262626;" transform="translate(40.913594 384.228418)scale(0.165 -0.165)">
       <use xlink:href="#DejaVuSans-30"/>
       <use x="63.623047" xlink:href="#DejaVuSans-2e"/>
       <use x="95.410156" xlink:href="#DejaVuSans-30"/>
       <use x="159.033203" xlink:href="#DejaVuSans-32"/>
       <use x="222.65625" xlink:href="#DejaVuSans-35"/>
      </g>
     </g>
    </g>
    <g id="ytick_3">
     <g id="text_11">
      <!-- 0.050 -->
      <g style="fill:#262626;" transform="translate(40.913594 332.22654)scale(0.165 -0.165)">
       <use xlink:href="#DejaVuSans-30"/>
       <use x="63.623047" xlink:href="#DejaVuSans-2e"/>
       <use x="95.410156" xlink:href="#DejaVuSans-30"/>
       <use x="159.033203" xlink:href="#DejaVuSans-35"/>
       <use x="222.65625" xlink:href="#DejaVuSans-30"/>
      </g>
     </g>
    </g>
    <g id="ytick_4">
     <g id="text_12">
      <!-- 0.075 -->
      <g style="fill:#262626;" transform="translate(40.913594 280.224663)scale(0.165 -0.165)">
       <defs>
        <path d="M 525 4666 
L 3525 4666 
L 3525 4397 
L 1831 0 
L 1172 0 
L 2766 4134 
L 525 4134 
L 525 4666 
z
" id="DejaVuSans-37" transform="scale(0.015625)"/>
       </defs>
       <use xlink:href="#DejaVuSans-30"/>
       <use x="63.623047" xlink:href="#DejaVuSans-2e"/>
       <use x="95.410156" xlink:href="#DejaVuSans-30"/>
       <use x="159.033203" xlink:href="#DejaVuSans-37"/>
       <use x="222.65625" xlink:href="#DejaVuSans-35"/>
      </g>
     </g>
    </g>
    <g id="ytick_5">
     <g id="text_13">
      <!-- 0.100 -->
      <g style="fill:#262626;" transform="translate(40.913594 228.222785)scale(0.165 -0.165)">
       <use xlink:href="#DejaVuSans-30"/>
       <use x="63.623047" xlink:href="#DejaVuSans-2e"/>
       <use x="95.410156" xlink:href="#DejaVuSans-31"/>
       <use x="159.033203" xlink:href="#DejaVuSans-30"/>
       <use x="222.65625" xlink:href="#DejaVuSans-30"/>
      </g>
     </g>
    </g>
    <g id="ytick_6">
     <g id="text_14">
      <!-- 0.125 -->
      <g style="fill:#262626;" transform="translate(40.913594 176.220908)scale(0.165 -0.165)">
       <use xlink:href="#DejaVuSans-30"/>
       <use x="63.623047" xlink:href="#DejaVuSans-2e"/>
       <use x="95.410156" xlink:href="#DejaVuSans-31"/>
       <use x="159.033203" xlink:href="#DejaVuSans-32"/>
       <use x="222.65625" xlink:href="#DejaVuSans-35"/>
      </g>
     </g>
    </g>
    <g id="ytick_7">
     <g id="text_15">
      <!-- 0.150 -->
      <g style="fill:#262626;" transform="translate(40.913594 124.21903)scale(0.165 -0.165)">
       <use xlink:href="#DejaVuSans-30"/>
       <use x="63.623047" xlink:href="#DejaVuSans-2e"/>
       <use x="95.410156" xlink:href="#DejaVuSans-31"/>
       <use x="159.033203" xlink:href="#DejaVuSans-35"/>
       <use x="222.65625" xlink:href="#DejaVuSans-30"/>
      </g>
     </g>
    </g>
    <g id="ytick_8">
     <g id="text_16">
      <!-- 0.175 -->
      <g style="fill:#262626;" transform="translate(40.913594 72.217152)scale(0.165 -0.165)">
       <use xlink:href="#DejaVuSans-30"/>
       <use x="63.623047" xlink:href="#DejaVuSans-2e"/>
       <use x="95.410156" xlink:href="#DejaVuSans-31"/>
       <use x="159.033203" xlink:href="#DejaVuSans-37"/>
       <use x="222.65625" xlink:href="#DejaVuSans-35"/>
      </g>
     </g>
    </g>
    <g id="text_17">
     <!-- Control space (euclidean distance) -->
     <g style="fill:#262626;" transform="translate(33.170156 384.662813)rotate(-90)scale(0.18 -0.18)">
      <defs>
       <path d="M 4122 4306 
L 4122 3641 
Q 3803 3938 3442 4084 
Q 3081 4231 2675 4231 
Q 1875 4231 1450 3742 
Q 1025 3253 1025 2328 
Q 1025 1406 1450 917 
Q 1875 428 2675 428 
Q 3081 428 3442 575 
Q 3803 722 4122 1019 
L 4122 359 
Q 3791 134 3420 21 
Q 3050 -91 2638 -91 
Q 1578 -91 968 557 
Q 359 1206 359 2328 
Q 359 3453 968 4101 
Q 1578 4750 2638 4750 
Q 3056 4750 3426 4639 
Q 3797 4528 4122 4306 
z
" id="DejaVuSans-43" transform="scale(0.015625)"/>
       <path d="M 1959 3097 
Q 1497 3097 1228 2736 
Q 959 2375 959 1747 
Q 959 1119 1226 758 
Q 1494 397 1959 397 
Q 2419 397 2687 759 
Q 2956 1122 2956 1747 
Q 2956 2369 2687 2733 
Q 2419 3097 1959 3097 
z
M 1959 3584 
Q 2709 3584 3137 3096 
Q 3566 2609 3566 1747 
Q 3566 888 3137 398 
Q 2709 -91 1959 -91 
Q 1206 -91 779 398 
Q 353 888 353 1747 
Q 353 2609 779 3096 
Q 1206 3584 1959 3584 
z
" id="DejaVuSans-6f" transform="scale(0.015625)"/>
       <path d="M 1159 525 
L 1159 -1331 
L 581 -1331 
L 581 3500 
L 1159 3500 
L 1159 2969 
Q 1341 3281 1617 3432 
Q 1894 3584 2278 3584 
Q 2916 3584 3314 3078 
Q 3713 2572 3713 1747 
Q 3713 922 3314 415 
Q 2916 -91 2278 -91 
Q 1894 -91 1617 61 
Q 1341 213 1159 525 
z
M 3116 1747 
Q 3116 2381 2855 2742 
Q 2594 3103 2138 3103 
Q 1681 3103 1420 2742 
Q 1159 2381 1159 1747 
Q 1159 1113 1420 752 
Q 1681 391 2138 391 
Q 2594 391 2855 752 
Q 3116 1113 3116 1747 
z
" id="DejaVuSans-70" transform="scale(0.015625)"/>
      </defs>
      <use xlink:href="#DejaVuSans-43"/>
      <use x="69.824219" xlink:href="#DejaVuSans-6f"/>
      <use x="131.005859" xlink:href="#DejaVuSans-6e"/>
      <use x="194.384766" xlink:href="#DejaVuSans-74"/>
      <use x="233.59375" xlink:href="#DejaVuSans-72"/>
      <use x="272.457031" xlink:href="#DejaVuSans-6f"/>
      <use x="333.638672" xlink:href="#DejaVuSans-6c"/>
      <use x="361.421875" xlink:href="#DejaVuSans-20"/>
      <use x="393.208984" xlink:href="#DejaVuSans-73"/>
      <use x="445.308594" xlink:href="#DejaVuSans-70"/>
      <use x="508.785156" xlink:href="#DejaVuSans-61"/>
      <use x="570.064453" xlink:href="#DejaVuSans-63"/>
      <use x="625.044922" xlink:href="#DejaVuSans-65"/>
      <use x="686.568359" xlink:href="#DejaVuSans-20"/>
      <use x="718.355469" xlink:href="#DejaVuSans-28"/>
      <use x="757.369141" xlink:href="#DejaVuSans-65"/>
      <use x="818.892578" xlink:href="#DejaVuSans-75"/>
      <use x="882.271484" xlink:href="#DejaVuSans-63"/>
      <use x="937.251953" xlink:href="#DejaVuSans-6c"/>
      <use x="965.035156" xlink:href="#DejaVuSans-69"/>
      <use x="992.818359" xlink:href="#DejaVuSans-64"/>
      <use x="1056.294922" xlink:href="#DejaVuSans-65"/>
      <use x="1117.818359" xlink:href="#DejaVuSans-61"/>
      <use x="1179.097656" xlink:href="#DejaVuSans-6e"/>
      <use x="1242.476562" xlink:href="#DejaVuSans-20"/>
      <use x="1274.263672" xlink:href="#DejaVuSans-64"/>
      <use x="1337.740234" xlink:href="#DejaVuSans-69"/>
      <use x="1365.523438" xlink:href="#DejaVuSans-73"/>
      <use x="1417.623047" xlink:href="#DejaVuSans-74"/>
      <use x="1456.832031" xlink:href="#DejaVuSans-61"/>
      <use x="1518.111328" xlink:href="#DejaVuSans-6e"/>
      <use x="1581.490234" xlink:href="#DejaVuSans-63"/>
      <use x="1636.470703" xlink:href="#DejaVuSans-65"/>
      <use x="1697.994141" xlink:href="#DejaVuSans-29"/>
     </g>
    </g>
   </g>
   <g id="PathCollection_1">
    <defs>
     <path d="M 0 3.872983 
C 1.027127 3.872983 2.012324 3.464901 2.738613 2.738613 
C 3.464901 2.012324 3.872983 1.027127 3.872983 0 
C 3.872983 -1.027127 3.464901 -2.012324 2.738613 -2.738613 
C 2.012324 -3.464901 1.027127 -3.872983 0 -3.872983 
C -1.027127 -3.872983 -2.012324 -3.464901 -2.738613 -2.738613 
C -3.464901 -2.012324 -3.872983 -1.027127 -3.872983 0 
C -3.872983 1.027127 -3.464901 2.012324 -2.738613 2.738613 
C -2.012324 3.464901 -1.027127 3.872983 0 3.872983 
z
" id="ma525b4130f" style="stroke:#000000;stroke-opacity:0.8;stroke-width:0.7;"/>
    </defs>
    <g clip-path="url(#p859781b8fd)">
     <use style="fill:#4c72b0;fill-opacity:0.8;stroke:#000000;stroke-opacity:0.8;stroke-width:0.7;" x="555.424234" xlink:href="#ma525b4130f" y="301.494357"/>
     <use style="fill:#4c72b0;fill-opacity:0.8;stroke:#000000;stroke-opacity:0.8;stroke-width:0.7;" x="438.153233" xlink:href="#ma525b4130f" y="359.812389"/>
     <use style="fill:#4c72b0;fill-opacity:0.8;stroke:#000000;stroke-opacity:0.8;stroke-width:0.7;" x="120.340486" xlink:href="#ma525b4130f" y="286.129135"/>
     <use style="fill:#4c72b0;fill-opacity:0.8;stroke:#000000;stroke-opacity:0.8;stroke-width:0.7;" x="208.364754" xlink:href="#ma525b4130f" y="41.448032"/>
     <use style="fill:#4c72b0;fill-opacity:0.8;stroke:#000000;stroke-opacity:0.8;stroke-width:0.7;" x="563.191364" xlink:href="#ma525b4130f" y="38.43"/>
     <use style="fill:#4c72b0;fill-opacity:0.8;stroke:#000000;stroke-opacity:0.8;stroke-width:0.7;" x="498.3512" xlink:href="#ma525b4130f" y="111.158442"/>
     <use style="fill:#4c72b0;fill-opacity:0.8;stroke:#000000;stroke-opacity:0.8;stroke-width:0.7;" x="509.890333" xlink:href="#ma525b4130f" y="129.74398"/>
     <use style="fill:#4c72b0;fill-opacity:0.8;stroke:#000000;stroke-opacity:0.8;stroke-width:0.7;" x="462.03021" xlink:href="#ma525b4130f" y="222.218063"/>
     <use style="fill:#4c72b0;fill-opacity:0.8;stroke:#000000;stroke-opacity:0.8;stroke-width:0.7;" x="494.635307" xlink:href="#ma525b4130f" y="165.909414"/>
     <use style="fill:#4c72b0;fill-opacity:0.8;stroke:#000000;stroke-opacity:0.8;stroke-width:0.7;" x="318.040018" xlink:href="#ma525b4130f" y="142.450174"/>
     <use style="fill:#4c72b0;fill-opacity:0.8;stroke:#000000;stroke-opacity:0.8;stroke-width:0.7;" x="562.3186" xlink:href="#ma525b4130f" y="352.862169"/>
     <use style="fill:#4c72b0;fill-opacity:0.8;stroke:#000000;stroke-opacity:0.8;stroke-width:0.7;" x="119.818636" xlink:href="#ma525b4130f" y="291.735483"/>
     <use style="fill:#4c72b0;fill-opacity:0.8;stroke:#000000;stroke-opacity:0.8;stroke-width:0.7;" x="230.739401" xlink:href="#ma525b4130f" y="418.23"/>
     <use style="fill:#4c72b0;fill-opacity:0.8;stroke:#000000;stroke-opacity:0.8;stroke-width:0.7;" x="508.421806" xlink:href="#ma525b4130f" y="118.511673"/>
     <use style="fill:#4c72b0;fill-opacity:0.8;stroke:#000000;stroke-opacity:0.8;stroke-width:0.7;" x="331.797452" xlink:href="#ma525b4130f" y="177.526006"/>
    </g>
   </g>
   <g id="PolyCollection_1">
    <defs>
     <path d="M 119.818636 -458.761337 
L 119.818636 -110.705619 
L 124.297149 -113.941449 
L 128.775661 -116.976137 
L 133.254174 -118.941316 
L 137.732686 -120.906495 
L 142.211198 -123.470381 
L 146.689711 -126.507902 
L 151.168223 -129.569579 
L 155.646736 -132.442862 
L 160.125248 -134.794381 
L 164.60376 -137.158359 
L 169.082273 -140.194162 
L 173.560785 -143.229965 
L 178.039298 -146.265768 
L 182.51781 -148.623425 
L 186.996322 -150.829356 
L 191.474835 -153.035288 
L 195.953347 -155.324128 
L 200.43186 -158.226699 
L 204.910372 -161.009763 
L 209.388884 -163.046264 
L 213.867397 -164.975344 
L 218.345909 -167.436041 
L 222.824421 -168.868784 
L 227.302934 -171.562834 
L 231.781446 -172.748884 
L 236.259959 -175.224105 
L 240.738471 -177.323202 
L 245.216983 -179.302187 
L 249.695496 -181.493744 
L 254.174008 -183.812457 
L 258.652521 -186.048943 
L 263.131033 -188.044023 
L 267.609545 -190.107461 
L 272.088058 -192.42083 
L 276.56657 -194.486954 
L 281.045083 -195.874216 
L 285.523595 -197.0252 
L 290.002107 -198.493719 
L 294.48062 -200.284828 
L 298.959132 -201.848662 
L 303.437645 -203.479611 
L 307.916157 -205.341714 
L 312.394669 -206.561432 
L 316.873182 -208.748802 
L 321.351694 -211.499578 
L 325.830207 -212.84916 
L 330.308719 -213.788929 
L 334.787231 -214.211636 
L 339.265744 -214.642347 
L 343.744256 -215.097307 
L 348.222769 -218.271818 
L 352.701281 -220.917768 
L 357.179793 -221.567955 
L 361.658306 -225.242968 
L 366.136818 -227.316612 
L 370.615331 -228.241114 
L 375.093843 -229.038335 
L 379.572355 -230.131505 
L 384.050868 -229.956314 
L 388.52938 -230.451352 
L 393.007893 -231.324147 
L 397.486405 -233.2416 
L 401.964917 -234.266822 
L 406.44343 -234.821779 
L 410.921942 -235.819277 
L 415.400455 -236.930504 
L 419.878967 -238.382549 
L 424.357479 -239.169473 
L 428.835992 -240.129948 
L 433.314504 -240.957122 
L 437.793017 -240.68706 
L 442.271529 -240.916859 
L 446.750041 -242.430949 
L 451.228554 -243.183622 
L 455.707066 -244.441027 
L 460.185579 -244.4396 
L 464.664091 -244.549377 
L 469.142603 -244.993942 
L 473.621116 -245.467453 
L 478.099628 -245.943681 
L 482.57814 -245.938907 
L 487.056653 -245.956753 
L 491.535165 -245.962141 
L 496.013678 -245.589994 
L 500.49219 -245.971619 
L 504.970702 -245.952994 
L 509.449215 -245.690684 
L 513.927727 -245.099782 
L 518.40624 -243.992263 
L 522.884752 -243.743164 
L 527.363264 -242.682522 
L 531.841777 -241.863492 
L 536.320289 -240.605119 
L 540.798802 -238.431395 
L 545.277314 -237.254042 
L 549.755826 -236.221669 
L 554.234339 -235.712332 
L 558.712851 -234.507114 
L 563.191364 -232.75274 
L 563.191364 -421.357423 
L 563.191364 -421.357423 
L 558.712851 -418.367135 
L 554.234339 -416.300094 
L 549.755826 -413.830737 
L 545.277314 -411.007371 
L 540.798802 -409.201009 
L 536.320289 -405.560357 
L 531.841777 -402.785586 
L 527.363264 -400.765237 
L 522.884752 -398.429944 
L 518.40624 -396.484969 
L 513.927727 -393.891964 
L 509.449215 -391.294437 
L 504.970702 -389.457705 
L 500.49219 -388.525128 
L 496.013678 -386.806881 
L 491.535165 -384.905428 
L 487.056653 -383.912249 
L 482.57814 -383.32791 
L 478.099628 -381.209937 
L 473.621116 -379.866831 
L 469.142603 -378.227403 
L 464.664091 -377.493614 
L 460.185579 -376.134149 
L 455.707066 -375.095621 
L 451.228554 -373.738789 
L 446.750041 -372.358663 
L 442.271529 -370.575459 
L 437.793017 -368.505468 
L 433.314504 -366.575056 
L 428.835992 -365.594768 
L 424.357479 -364.850869 
L 419.878967 -363.467079 
L 415.400455 -362.268195 
L 410.921942 -363.506421 
L 406.44343 -363.208265 
L 401.964917 -363.308473 
L 397.486405 -363.827299 
L 393.007893 -364.402053 
L 388.52938 -364.243153 
L 384.050868 -365.385735 
L 379.572355 -364.884263 
L 375.093843 -365.013142 
L 370.615331 -365.736176 
L 366.136818 -366.605967 
L 361.658306 -368.101734 
L 357.179793 -368.890512 
L 352.701281 -370.37338 
L 348.222769 -370.014666 
L 343.744256 -370.961184 
L 339.265744 -372.508441 
L 334.787231 -373.598522 
L 330.308719 -375.617434 
L 325.830207 -377.23635 
L 321.351694 -378.926096 
L 316.873182 -380.321586 
L 312.394669 -382.758071 
L 307.916157 -385.887466 
L 303.437645 -387.844975 
L 298.959132 -388.941282 
L 294.48062 -390.230365 
L 290.002107 -393.333464 
L 285.523595 -395.449584 
L 281.045083 -396.281105 
L 276.56657 -399.207935 
L 272.088058 -402.134764 
L 267.609545 -404.480899 
L 263.131033 -405.995168 
L 258.652521 -406.821091 
L 254.174008 -407.543734 
L 249.695496 -408.266378 
L 245.216983 -408.989021 
L 240.738471 -410.23116 
L 236.259959 -412.482681 
L 231.781446 -414.734202 
L 227.302934 -416.539265 
L 222.824421 -418.912238 
L 218.345909 -421.285211 
L 213.867397 -423.658184 
L 209.388884 -426.030905 
L 204.910372 -428.384982 
L 200.43186 -430.645092 
L 195.953347 -431.580389 
L 191.474835 -432.515687 
L 186.996322 -434.223579 
L 182.51781 -436.682173 
L 178.039298 -439.140767 
L 173.560785 -441.599361 
L 169.082273 -443.613692 
L 164.60376 -445.220383 
L 160.125248 -446.798055 
L 155.646736 -448.366524 
L 151.168223 -449.77931 
L 146.689711 -450.747244 
L 142.211198 -451.715178 
L 137.732686 -452.683112 
L 133.254174 -453.651046 
L 128.775661 -454.802378 
L 124.297149 -456.781857 
L 119.818636 -458.761337 
z
" id="m05cf9ce0bc" style="stroke:#ffffff;stroke-opacity:0.15;"/>
    </defs>
    <g clip-path="url(#p859781b8fd)">
     <use style="fill:#4c72b0;fill-opacity:0.15;stroke:#ffffff;stroke-opacity:0.15;" x="0" xlink:href="#m05cf9ce0bc" y="504"/>
    </g>
   </g>
   <g id="line2d_1">
    <path clip-path="url(#p859781b8fd)" d="M 119.818636 259.285852 
L 124.297149 258.512116 
L 128.775661 257.73838 
L 133.254174 256.964644 
L 137.732686 256.190908 
L 142.211198 255.417172 
L 146.689711 254.643436 
L 151.168223 253.8697 
L 155.646736 253.095964 
L 160.125248 252.322228 
L 164.60376 251.548492 
L 169.082273 250.774756 
L 173.560785 250.00102 
L 178.039298 249.227284 
L 182.51781 248.453548 
L 186.996322 247.679812 
L 191.474835 246.906076 
L 195.953347 246.13234 
L 200.43186 245.358604 
L 204.910372 244.584868 
L 209.388884 243.811132 
L 213.867397 243.037396 
L 218.345909 242.26366 
L 222.824421 241.489924 
L 227.302934 240.716188 
L 231.781446 239.942452 
L 236.259959 239.168716 
L 240.738471 238.394981 
L 245.216983 237.621245 
L 249.695496 236.847509 
L 254.174008 236.073773 
L 258.652521 235.300037 
L 263.131033 234.526301 
L 267.609545 233.752565 
L 272.088058 232.978829 
L 276.56657 232.205093 
L 281.045083 231.431357 
L 285.523595 230.657621 
L 290.002107 229.883885 
L 294.48062 229.110149 
L 298.959132 228.336413 
L 303.437645 227.562677 
L 307.916157 226.788941 
L 312.394669 226.015205 
L 316.873182 225.241469 
L 321.351694 224.467733 
L 325.830207 223.693997 
L 330.308719 222.920261 
L 334.787231 222.146525 
L 339.265744 221.372789 
L 343.744256 220.599053 
L 348.222769 219.825317 
L 352.701281 219.051581 
L 357.179793 218.277845 
L 361.658306 217.504109 
L 366.136818 216.730373 
L 370.615331 215.956638 
L 375.093843 215.182902 
L 379.572355 214.409166 
L 384.050868 213.63543 
L 388.52938 212.861694 
L 393.007893 212.087958 
L 397.486405 211.314222 
L 401.964917 210.540486 
L 406.44343 209.76675 
L 410.921942 208.993014 
L 415.400455 208.219278 
L 419.878967 207.445542 
L 424.357479 206.671806 
L 428.835992 205.89807 
L 433.314504 205.124334 
L 437.793017 204.350598 
L 442.271529 203.576862 
L 446.750041 202.803126 
L 451.228554 202.02939 
L 455.707066 201.255654 
L 460.185579 200.481918 
L 464.664091 199.708182 
L 469.142603 198.934446 
L 473.621116 198.16071 
L 478.099628 197.386974 
L 482.57814 196.613238 
L 487.056653 195.839502 
L 491.535165 195.065766 
L 496.013678 194.29203 
L 500.49219 193.518295 
L 504.970702 192.744559 
L 509.449215 191.970823 
L 513.927727 191.197087 
L 518.40624 190.423351 
L 522.884752 189.649615 
L 527.363264 188.875879 
L 531.841777 188.102143 
L 536.320289 187.328407 
L 540.798802 186.554671 
L 545.277314 185.780935 
L 549.755826 185.007199 
L 554.234339 184.233463 
L 558.712851 183.459727 
L 563.191364 182.685991 
" style="fill:none;stroke:#4c72b0;stroke-linecap:round;stroke-width:2.25;"/>
   </g>
   <g id="patch_3">
    <path d="M 97.65 437.22 
L 97.65 19.44 
" style="fill:none;stroke:#262626;stroke-linecap:square;stroke-linejoin:miter;stroke-width:1.25;"/>
   </g>
   <g id="patch_4">
    <path d="M 97.65 437.22 
L 585.36 437.22 
" style="fill:none;stroke:#262626;stroke-linecap:square;stroke-linejoin:miter;stroke-width:1.25;"/>
   </g>
   <g id="text_18">
    <!-- Human ratings ~ Control geographic space -->
    <g style="fill:#262626;" transform="translate(146.369531 13.44)scale(0.18 -0.18)">
     <defs>
      <path d="M 4684 2553 
L 4684 1997 
Q 4356 1750 4076 1644 
Q 3797 1538 3494 1538 
Q 3150 1538 2694 1722 
Q 2659 1734 2644 1741 
Q 2622 1750 2575 1766 
Q 2091 1959 1797 1959 
Q 1522 1959 1253 1839 
Q 984 1719 678 1459 
L 678 2016 
Q 1006 2263 1286 2370 
Q 1566 2478 1869 2478 
Q 2213 2478 2672 2291 
Q 2703 2278 2719 2272 
Q 2744 2263 2788 2247 
Q 3272 2053 3566 2053 
Q 3834 2053 4098 2172 
Q 4363 2291 4684 2553 
z
" id="DejaVuSans-7e" transform="scale(0.015625)"/>
      <path d="M 3513 2113 
L 3513 0 
L 2938 0 
L 2938 2094 
Q 2938 2591 2744 2837 
Q 2550 3084 2163 3084 
Q 1697 3084 1428 2787 
Q 1159 2491 1159 1978 
L 1159 0 
L 581 0 
L 581 4863 
L 1159 4863 
L 1159 2956 
Q 1366 3272 1645 3428 
Q 1925 3584 2291 3584 
Q 2894 3584 3203 3211 
Q 3513 2838 3513 2113 
z
" id="DejaVuSans-68" transform="scale(0.015625)"/>
     </defs>
     <use xlink:href="#DejaVuSans-48"/>
     <use x="75.195312" xlink:href="#DejaVuSans-75"/>
     <use x="138.574219" xlink:href="#DejaVuSans-6d"/>
     <use x="235.986328" xlink:href="#DejaVuSans-61"/>
     <use x="297.265625" xlink:href="#DejaVuSans-6e"/>
     <use x="360.644531" xlink:href="#DejaVuSans-20"/>
     <use x="392.431641" xlink:href="#DejaVuSans-72"/>
     <use x="433.544922" xlink:href="#DejaVuSans-61"/>
     <use x="494.824219" xlink:href="#DejaVuSans-74"/>
     <use x="534.033203" xlink:href="#DejaVuSans-69"/>
     <use x="561.816406" xlink:href="#DejaVuSans-6e"/>
     <use x="625.195312" xlink:href="#DejaVuSans-67"/>
     <use x="688.671875" xlink:href="#DejaVuSans-73"/>
     <use x="740.771484" xlink:href="#DejaVuSans-20"/>
     <use x="772.558594" xlink:href="#DejaVuSans-7e"/>
     <use x="856.347656" xlink:href="#DejaVuSans-20"/>
     <use x="888.134766" xlink:href="#DejaVuSans-43"/>
     <use x="957.958984" xlink:href="#DejaVuSans-6f"/>
     <use x="1019.140625" xlink:href="#DejaVuSans-6e"/>
     <use x="1082.519531" xlink:href="#DejaVuSans-74"/>
     <use x="1121.728516" xlink:href="#DejaVuSans-72"/>
     <use x="1160.591797" xlink:href="#DejaVuSans-6f"/>
     <use x="1221.773438" xlink:href="#DejaVuSans-6c"/>
     <use x="1249.556641" xlink:href="#DejaVuSans-20"/>
     <use x="1281.34375" xlink:href="#DejaVuSans-67"/>
     <use x="1344.820312" xlink:href="#DejaVuSans-65"/>
     <use x="1406.34375" xlink:href="#DejaVuSans-6f"/>
     <use x="1467.525391" xlink:href="#DejaVuSans-67"/>
     <use x="1531.001953" xlink:href="#DejaVuSans-72"/>
     <use x="1572.115234" xlink:href="#DejaVuSans-61"/>
     <use x="1633.394531" xlink:href="#DejaVuSans-70"/>
     <use x="1696.871094" xlink:href="#DejaVuSans-68"/>
     <use x="1760.25" xlink:href="#DejaVuSans-69"/>
     <use x="1788.033203" xlink:href="#DejaVuSans-63"/>
     <use x="1843.013672" xlink:href="#DejaVuSans-20"/>
     <use x="1874.800781" xlink:href="#DejaVuSans-73"/>
     <use x="1926.900391" xlink:href="#DejaVuSans-70"/>
     <use x="1990.376953" xlink:href="#DejaVuSans-61"/>
     <use x="2051.65625" xlink:href="#DejaVuSans-63"/>
     <use x="2106.636719" xlink:href="#DejaVuSans-65"/>
    </g>
   </g>
  </g>
  <g id="text_19">
   <!-- r =  0.232 -->
   <g style="fill:#262626;" transform="translate(247.694625 56.732625)scale(0.216 -0.216)">
    <defs>
     <path d="M 678 2906 
L 4684 2906 
L 4684 2381 
L 678 2381 
L 678 2906 
z
M 678 1631 
L 4684 1631 
L 4684 1100 
L 678 1100 
L 678 1631 
z
" id="DejaVuSans-3d" transform="scale(0.015625)"/>
    </defs>
    <use xlink:href="#DejaVuSans-72"/>
    <use x="41.113281" xlink:href="#DejaVuSans-20"/>
    <use x="72.900391" xlink:href="#DejaVuSans-3d"/>
    <use x="156.689453" xlink:href="#DejaVuSans-20"/>
    <use x="188.476562" xlink:href="#DejaVuSans-20"/>
    <use x="220.263672" xlink:href="#DejaVuSans-30"/>
    <use x="283.886719" xlink:href="#DejaVuSans-2e"/>
    <use x="315.673828" xlink:href="#DejaVuSans-32"/>
    <use x="379.296875" xlink:href="#DejaVuSans-33"/>
    <use x="442.919922" xlink:href="#DejaVuSans-32"/>
   </g>
  </g>
 </g>
 <defs>
  <clipPath id="p859781b8fd">
   <rect height="417.78" width="487.71" x="97.65" y="19.44"/>
  </clipPath>
 </defs>
</svg>
