<?xml version="1.0" encoding="utf-8" standalone="no"?>
<!DOCTYPE svg PUBLIC "-//W3C//DTD SVG 1.1//EN"
  "http://www.w3.org/Graphics/SVG/1.1/DTD/svg11.dtd">
<svg height="504pt" version="1.1" viewBox="0 0 604.8 504" width="604.8pt" xmlns="http://www.w3.org/2000/svg" xmlns:xlink="http://www.w3.org/1999/xlink">
 <metadata>
  <rdf:RDF xmlns:cc="http://creativecommons.org/ns#" xmlns:dc="http://purl.org/dc/elements/1.1/" xmlns:rdf="http://www.w3.org/1999/02/22-rdf-syntax-ns#">
   <cc:Work>
    <dc:type rdf:resource="http://purl.org/dc/dcmitype/StillImage"/>
    <dc:date>2023-07-24T16:14:16.591849</dc:date>
    <dc:format>image/svg+xml</dc:format>
    <dc:creator>
     <cc:Agent>
      <dc:title>Matplotlib v3.4.3, https://matplotlib.org/</dc:title>
     </cc:Agent>
    </dc:creator>
   </cc:Work>
  </rdf:RDF>
 </metadata>
 <defs>
  <style type="text/css">*{stroke-linecap:butt;stroke-linejoin:round;}</style>
 </defs>
 <g id="figure_1">
  <g id="patch_1">
   <path d="M 0 504 
L 604.8 504 
L 604.8 0 
L 0 0 
z
" style="fill:#ffffff;"/>
  </g>
  <g id="axes_1">
   <g id="patch_2">
    <path d="M 76.59 437.22 
L 585.36 437.22 
L 585.36 19.44 
L 76.59 19.44 
z
" style="fill:#ffffff;"/>
   </g>
   <g id="matplotlib.axis_1">
    <g id="xtick_1">
     <g id="text_1">
      <!-- 2.0 -->
      <g style="fill:#262626;" transform="translate(123.519036 459.257422)scale(0.165 -0.165)">
       <defs>
        <path d="M 1228 531 
L 3431 531 
L 3431 0 
L 469 0 
L 469 531 
Q 828 903 1448 1529 
Q 2069 2156 2228 2338 
Q 2531 2678 2651 2914 
Q 2772 3150 2772 3378 
Q 2772 3750 2511 3984 
Q 2250 4219 1831 4219 
Q 1534 4219 1204 4116 
Q 875 4013 500 3803 
L 500 4441 
Q 881 4594 1212 4672 
Q 1544 4750 1819 4750 
Q 2544 4750 2975 4387 
Q 3406 4025 3406 3419 
Q 3406 3131 3298 2873 
Q 3191 2616 2906 2266 
Q 2828 2175 2409 1742 
Q 1991 1309 1228 531 
z
" id="DejaVuSans-32" transform="scale(0.015625)"/>
        <path d="M 684 794 
L 1344 794 
L 1344 0 
L 684 0 
L 684 794 
z
" id="DejaVuSans-2e" transform="scale(0.015625)"/>
        <path d="M 2034 4250 
Q 1547 4250 1301 3770 
Q 1056 3291 1056 2328 
Q 1056 1369 1301 889 
Q 1547 409 2034 409 
Q 2525 409 2770 889 
Q 3016 1369 3016 2328 
Q 3016 3291 2770 3770 
Q 2525 4250 2034 4250 
z
M 2034 4750 
Q 2819 4750 3233 4129 
Q 3647 3509 3647 2328 
Q 3647 1150 3233 529 
Q 2819 -91 2034 -91 
Q 1250 -91 836 529 
Q 422 1150 422 2328 
Q 422 3509 836 4129 
Q 1250 4750 2034 4750 
z
" id="DejaVuSans-30" transform="scale(0.015625)"/>
       </defs>
       <use xlink:href="#DejaVuSans-32"/>
       <use x="63.623047" xlink:href="#DejaVuSans-2e"/>
       <use x="95.410156" xlink:href="#DejaVuSans-30"/>
      </g>
     </g>
    </g>
    <g id="xtick_2">
     <g id="text_2">
      <!-- 2.5 -->
      <g style="fill:#262626;" transform="translate(192.299021 459.257422)scale(0.165 -0.165)">
       <defs>
        <path d="M 691 4666 
L 3169 4666 
L 3169 4134 
L 1269 4134 
L 1269 2991 
Q 1406 3038 1543 3061 
Q 1681 3084 1819 3084 
Q 2600 3084 3056 2656 
Q 3513 2228 3513 1497 
Q 3513 744 3044 326 
Q 2575 -91 1722 -91 
Q 1428 -91 1123 -41 
Q 819 9 494 109 
L 494 744 
Q 775 591 1075 516 
Q 1375 441 1709 441 
Q 2250 441 2565 725 
Q 2881 1009 2881 1497 
Q 2881 1984 2565 2268 
Q 2250 2553 1709 2553 
Q 1456 2553 1204 2497 
Q 953 2441 691 2322 
L 691 4666 
z
" id="DejaVuSans-35" transform="scale(0.015625)"/>
       </defs>
       <use xlink:href="#DejaVuSans-32"/>
       <use x="63.623047" xlink:href="#DejaVuSans-2e"/>
       <use x="95.410156" xlink:href="#DejaVuSans-35"/>
      </g>
     </g>
    </g>
    <g id="xtick_3">
     <g id="text_3">
      <!-- 3.0 -->
      <g style="fill:#262626;" transform="translate(261.079007 459.257422)scale(0.165 -0.165)">
       <defs>
        <path d="M 2597 2516 
Q 3050 2419 3304 2112 
Q 3559 1806 3559 1356 
Q 3559 666 3084 287 
Q 2609 -91 1734 -91 
Q 1441 -91 1130 -33 
Q 819 25 488 141 
L 488 750 
Q 750 597 1062 519 
Q 1375 441 1716 441 
Q 2309 441 2620 675 
Q 2931 909 2931 1356 
Q 2931 1769 2642 2001 
Q 2353 2234 1838 2234 
L 1294 2234 
L 1294 2753 
L 1863 2753 
Q 2328 2753 2575 2939 
Q 2822 3125 2822 3475 
Q 2822 3834 2567 4026 
Q 2313 4219 1838 4219 
Q 1578 4219 1281 4162 
Q 984 4106 628 3988 
L 628 4550 
Q 988 4650 1302 4700 
Q 1616 4750 1894 4750 
Q 2613 4750 3031 4423 
Q 3450 4097 3450 3541 
Q 3450 3153 3228 2886 
Q 3006 2619 2597 2516 
z
" id="DejaVuSans-33" transform="scale(0.015625)"/>
       </defs>
       <use xlink:href="#DejaVuSans-33"/>
       <use x="63.623047" xlink:href="#DejaVuSans-2e"/>
       <use x="95.410156" xlink:href="#DejaVuSans-30"/>
      </g>
     </g>
    </g>
    <g id="xtick_4">
     <g id="text_4">
      <!-- 3.5 -->
      <g style="fill:#262626;" transform="translate(329.858992 459.257422)scale(0.165 -0.165)">
       <use xlink:href="#DejaVuSans-33"/>
       <use x="63.623047" xlink:href="#DejaVuSans-2e"/>
       <use x="95.410156" xlink:href="#DejaVuSans-35"/>
      </g>
     </g>
    </g>
    <g id="xtick_5">
     <g id="text_5">
      <!-- 4.0 -->
      <g style="fill:#262626;" transform="translate(398.638977 459.257422)scale(0.165 -0.165)">
       <defs>
        <path d="M 2419 4116 
L 825 1625 
L 2419 1625 
L 2419 4116 
z
M 2253 4666 
L 3047 4666 
L 3047 1625 
L 3713 1625 
L 3713 1100 
L 3047 1100 
L 3047 0 
L 2419 0 
L 2419 1100 
L 313 1100 
L 313 1709 
L 2253 4666 
z
" id="DejaVuSans-34" transform="scale(0.015625)"/>
       </defs>
       <use xlink:href="#DejaVuSans-34"/>
       <use x="63.623047" xlink:href="#DejaVuSans-2e"/>
       <use x="95.410156" xlink:href="#DejaVuSans-30"/>
      </g>
     </g>
    </g>
    <g id="xtick_6">
     <g id="text_6">
      <!-- 4.5 -->
      <g style="fill:#262626;" transform="translate(467.418963 459.257422)scale(0.165 -0.165)">
       <use xlink:href="#DejaVuSans-34"/>
       <use x="63.623047" xlink:href="#DejaVuSans-2e"/>
       <use x="95.410156" xlink:href="#DejaVuSans-35"/>
      </g>
     </g>
    </g>
    <g id="xtick_7">
     <g id="text_7">
      <!-- 5.0 -->
      <g style="fill:#262626;" transform="translate(536.198948 459.257422)scale(0.165 -0.165)">
       <use xlink:href="#DejaVuSans-35"/>
       <use x="63.623047" xlink:href="#DejaVuSans-2e"/>
       <use x="95.410156" xlink:href="#DejaVuSans-30"/>
      </g>
     </g>
    </g>
    <g id="text_8">
     <!-- Human ratings (euclidean distance) -->
     <g style="fill:#262626;" transform="translate(169.766719 480.366094)scale(0.18 -0.18)">
      <defs>
       <path d="M 628 4666 
L 1259 4666 
L 1259 2753 
L 3553 2753 
L 3553 4666 
L 4184 4666 
L 4184 0 
L 3553 0 
L 3553 2222 
L 1259 2222 
L 1259 0 
L 628 0 
L 628 4666 
z
" id="DejaVuSans-48" transform="scale(0.015625)"/>
       <path d="M 544 1381 
L 544 3500 
L 1119 3500 
L 1119 1403 
Q 1119 906 1312 657 
Q 1506 409 1894 409 
Q 2359 409 2629 706 
Q 2900 1003 2900 1516 
L 2900 3500 
L 3475 3500 
L 3475 0 
L 2900 0 
L 2900 538 
Q 2691 219 2414 64 
Q 2138 -91 1772 -91 
Q 1169 -91 856 284 
Q 544 659 544 1381 
z
M 1991 3584 
L 1991 3584 
z
" id="DejaVuSans-75" transform="scale(0.015625)"/>
       <path d="M 3328 2828 
Q 3544 3216 3844 3400 
Q 4144 3584 4550 3584 
Q 5097 3584 5394 3201 
Q 5691 2819 5691 2113 
L 5691 0 
L 5113 0 
L 5113 2094 
Q 5113 2597 4934 2840 
Q 4756 3084 4391 3084 
Q 3944 3084 3684 2787 
Q 3425 2491 3425 1978 
L 3425 0 
L 2847 0 
L 2847 2094 
Q 2847 2600 2669 2842 
Q 2491 3084 2119 3084 
Q 1678 3084 1418 2786 
Q 1159 2488 1159 1978 
L 1159 0 
L 581 0 
L 581 3500 
L 1159 3500 
L 1159 2956 
Q 1356 3278 1631 3431 
Q 1906 3584 2284 3584 
Q 2666 3584 2933 3390 
Q 3200 3197 3328 2828 
z
" id="DejaVuSans-6d" transform="scale(0.015625)"/>
       <path d="M 2194 1759 
Q 1497 1759 1228 1600 
Q 959 1441 959 1056 
Q 959 750 1161 570 
Q 1363 391 1709 391 
Q 2188 391 2477 730 
Q 2766 1069 2766 1631 
L 2766 1759 
L 2194 1759 
z
M 3341 1997 
L 3341 0 
L 2766 0 
L 2766 531 
Q 2569 213 2275 61 
Q 1981 -91 1556 -91 
Q 1019 -91 701 211 
Q 384 513 384 1019 
Q 384 1609 779 1909 
Q 1175 2209 1959 2209 
L 2766 2209 
L 2766 2266 
Q 2766 2663 2505 2880 
Q 2244 3097 1772 3097 
Q 1472 3097 1187 3025 
Q 903 2953 641 2809 
L 641 3341 
Q 956 3463 1253 3523 
Q 1550 3584 1831 3584 
Q 2591 3584 2966 3190 
Q 3341 2797 3341 1997 
z
" id="DejaVuSans-61" transform="scale(0.015625)"/>
       <path d="M 3513 2113 
L 3513 0 
L 2938 0 
L 2938 2094 
Q 2938 2591 2744 2837 
Q 2550 3084 2163 3084 
Q 1697 3084 1428 2787 
Q 1159 2491 1159 1978 
L 1159 0 
L 581 0 
L 581 3500 
L 1159 3500 
L 1159 2956 
Q 1366 3272 1645 3428 
Q 1925 3584 2291 3584 
Q 2894 3584 3203 3211 
Q 3513 2838 3513 2113 
z
" id="DejaVuSans-6e" transform="scale(0.015625)"/>
       <path id="DejaVuSans-20" transform="scale(0.015625)"/>
       <path d="M 2631 2963 
Q 2534 3019 2420 3045 
Q 2306 3072 2169 3072 
Q 1681 3072 1420 2755 
Q 1159 2438 1159 1844 
L 1159 0 
L 581 0 
L 581 3500 
L 1159 3500 
L 1159 2956 
Q 1341 3275 1631 3429 
Q 1922 3584 2338 3584 
Q 2397 3584 2469 3576 
Q 2541 3569 2628 3553 
L 2631 2963 
z
" id="DejaVuSans-72" transform="scale(0.015625)"/>
       <path d="M 1172 4494 
L 1172 3500 
L 2356 3500 
L 2356 3053 
L 1172 3053 
L 1172 1153 
Q 1172 725 1289 603 
Q 1406 481 1766 481 
L 2356 481 
L 2356 0 
L 1766 0 
Q 1100 0 847 248 
Q 594 497 594 1153 
L 594 3053 
L 172 3053 
L 172 3500 
L 594 3500 
L 594 4494 
L 1172 4494 
z
" id="DejaVuSans-74" transform="scale(0.015625)"/>
       <path d="M 603 3500 
L 1178 3500 
L 1178 0 
L 603 0 
L 603 3500 
z
M 603 4863 
L 1178 4863 
L 1178 4134 
L 603 4134 
L 603 4863 
z
" id="DejaVuSans-69" transform="scale(0.015625)"/>
       <path d="M 2906 1791 
Q 2906 2416 2648 2759 
Q 2391 3103 1925 3103 
Q 1463 3103 1205 2759 
Q 947 2416 947 1791 
Q 947 1169 1205 825 
Q 1463 481 1925 481 
Q 2391 481 2648 825 
Q 2906 1169 2906 1791 
z
M 3481 434 
Q 3481 -459 3084 -895 
Q 2688 -1331 1869 -1331 
Q 1566 -1331 1297 -1286 
Q 1028 -1241 775 -1147 
L 775 -588 
Q 1028 -725 1275 -790 
Q 1522 -856 1778 -856 
Q 2344 -856 2625 -561 
Q 2906 -266 2906 331 
L 2906 616 
Q 2728 306 2450 153 
Q 2172 0 1784 0 
Q 1141 0 747 490 
Q 353 981 353 1791 
Q 353 2603 747 3093 
Q 1141 3584 1784 3584 
Q 2172 3584 2450 3431 
Q 2728 3278 2906 2969 
L 2906 3500 
L 3481 3500 
L 3481 434 
z
" id="DejaVuSans-67" transform="scale(0.015625)"/>
       <path d="M 2834 3397 
L 2834 2853 
Q 2591 2978 2328 3040 
Q 2066 3103 1784 3103 
Q 1356 3103 1142 2972 
Q 928 2841 928 2578 
Q 928 2378 1081 2264 
Q 1234 2150 1697 2047 
L 1894 2003 
Q 2506 1872 2764 1633 
Q 3022 1394 3022 966 
Q 3022 478 2636 193 
Q 2250 -91 1575 -91 
Q 1294 -91 989 -36 
Q 684 19 347 128 
L 347 722 
Q 666 556 975 473 
Q 1284 391 1588 391 
Q 1994 391 2212 530 
Q 2431 669 2431 922 
Q 2431 1156 2273 1281 
Q 2116 1406 1581 1522 
L 1381 1569 
Q 847 1681 609 1914 
Q 372 2147 372 2553 
Q 372 3047 722 3315 
Q 1072 3584 1716 3584 
Q 2034 3584 2315 3537 
Q 2597 3491 2834 3397 
z
" id="DejaVuSans-73" transform="scale(0.015625)"/>
       <path d="M 1984 4856 
Q 1566 4138 1362 3434 
Q 1159 2731 1159 2009 
Q 1159 1288 1364 580 
Q 1569 -128 1984 -844 
L 1484 -844 
Q 1016 -109 783 600 
Q 550 1309 550 2009 
Q 550 2706 781 3412 
Q 1013 4119 1484 4856 
L 1984 4856 
z
" id="DejaVuSans-28" transform="scale(0.015625)"/>
       <path d="M 3597 1894 
L 3597 1613 
L 953 1613 
Q 991 1019 1311 708 
Q 1631 397 2203 397 
Q 2534 397 2845 478 
Q 3156 559 3463 722 
L 3463 178 
Q 3153 47 2828 -22 
Q 2503 -91 2169 -91 
Q 1331 -91 842 396 
Q 353 884 353 1716 
Q 353 2575 817 3079 
Q 1281 3584 2069 3584 
Q 2775 3584 3186 3129 
Q 3597 2675 3597 1894 
z
M 3022 2063 
Q 3016 2534 2758 2815 
Q 2500 3097 2075 3097 
Q 1594 3097 1305 2825 
Q 1016 2553 972 2059 
L 3022 2063 
z
" id="DejaVuSans-65" transform="scale(0.015625)"/>
       <path d="M 3122 3366 
L 3122 2828 
Q 2878 2963 2633 3030 
Q 2388 3097 2138 3097 
Q 1578 3097 1268 2742 
Q 959 2388 959 1747 
Q 959 1106 1268 751 
Q 1578 397 2138 397 
Q 2388 397 2633 464 
Q 2878 531 3122 666 
L 3122 134 
Q 2881 22 2623 -34 
Q 2366 -91 2075 -91 
Q 1284 -91 818 406 
Q 353 903 353 1747 
Q 353 2603 823 3093 
Q 1294 3584 2113 3584 
Q 2378 3584 2631 3529 
Q 2884 3475 3122 3366 
z
" id="DejaVuSans-63" transform="scale(0.015625)"/>
       <path d="M 603 4863 
L 1178 4863 
L 1178 0 
L 603 0 
L 603 4863 
z
" id="DejaVuSans-6c" transform="scale(0.015625)"/>
       <path d="M 2906 2969 
L 2906 4863 
L 3481 4863 
L 3481 0 
L 2906 0 
L 2906 525 
Q 2725 213 2448 61 
Q 2172 -91 1784 -91 
Q 1150 -91 751 415 
Q 353 922 353 1747 
Q 353 2572 751 3078 
Q 1150 3584 1784 3584 
Q 2172 3584 2448 3432 
Q 2725 3281 2906 2969 
z
M 947 1747 
Q 947 1113 1208 752 
Q 1469 391 1925 391 
Q 2381 391 2643 752 
Q 2906 1113 2906 1747 
Q 2906 2381 2643 2742 
Q 2381 3103 1925 3103 
Q 1469 3103 1208 2742 
Q 947 2381 947 1747 
z
" id="DejaVuSans-64" transform="scale(0.015625)"/>
       <path d="M 513 4856 
L 1013 4856 
Q 1481 4119 1714 3412 
Q 1947 2706 1947 2009 
Q 1947 1309 1714 600 
Q 1481 -109 1013 -844 
L 513 -844 
Q 928 -128 1133 580 
Q 1338 1288 1338 2009 
Q 1338 2731 1133 3434 
Q 928 4138 513 4856 
z
" id="DejaVuSans-29" transform="scale(0.015625)"/>
      </defs>
      <use xlink:href="#DejaVuSans-48"/>
      <use x="75.195312" xlink:href="#DejaVuSans-75"/>
      <use x="138.574219" xlink:href="#DejaVuSans-6d"/>
      <use x="235.986328" xlink:href="#DejaVuSans-61"/>
      <use x="297.265625" xlink:href="#DejaVuSans-6e"/>
      <use x="360.644531" xlink:href="#DejaVuSans-20"/>
      <use x="392.431641" xlink:href="#DejaVuSans-72"/>
      <use x="433.544922" xlink:href="#DejaVuSans-61"/>
      <use x="494.824219" xlink:href="#DejaVuSans-74"/>
      <use x="534.033203" xlink:href="#DejaVuSans-69"/>
      <use x="561.816406" xlink:href="#DejaVuSans-6e"/>
      <use x="625.195312" xlink:href="#DejaVuSans-67"/>
      <use x="688.671875" xlink:href="#DejaVuSans-73"/>
      <use x="740.771484" xlink:href="#DejaVuSans-20"/>
      <use x="772.558594" xlink:href="#DejaVuSans-28"/>
      <use x="811.572266" xlink:href="#DejaVuSans-65"/>
      <use x="873.095703" xlink:href="#DejaVuSans-75"/>
      <use x="936.474609" xlink:href="#DejaVuSans-63"/>
      <use x="991.455078" xlink:href="#DejaVuSans-6c"/>
      <use x="1019.238281" xlink:href="#DejaVuSans-69"/>
      <use x="1047.021484" xlink:href="#DejaVuSans-64"/>
      <use x="1110.498047" xlink:href="#DejaVuSans-65"/>
      <use x="1172.021484" xlink:href="#DejaVuSans-61"/>
      <use x="1233.300781" xlink:href="#DejaVuSans-6e"/>
      <use x="1296.679688" xlink:href="#DejaVuSans-20"/>
      <use x="1328.466797" xlink:href="#DejaVuSans-64"/>
      <use x="1391.943359" xlink:href="#DejaVuSans-69"/>
      <use x="1419.726562" xlink:href="#DejaVuSans-73"/>
      <use x="1471.826172" xlink:href="#DejaVuSans-74"/>
      <use x="1511.035156" xlink:href="#DejaVuSans-61"/>
      <use x="1572.314453" xlink:href="#DejaVuSans-6e"/>
      <use x="1635.693359" xlink:href="#DejaVuSans-63"/>
      <use x="1690.673828" xlink:href="#DejaVuSans-65"/>
      <use x="1752.197266" xlink:href="#DejaVuSans-29"/>
     </g>
    </g>
   </g>
   <g id="matplotlib.axis_2">
    <g id="ytick_1">
     <g id="text_9">
      <!-- 0.2 -->
      <g style="fill:#262626;" transform="translate(40.849844 440.755474)scale(0.165 -0.165)">
       <use xlink:href="#DejaVuSans-30"/>
       <use x="63.623047" xlink:href="#DejaVuSans-2e"/>
       <use x="95.410156" xlink:href="#DejaVuSans-32"/>
      </g>
     </g>
    </g>
    <g id="ytick_2">
     <g id="text_10">
      <!-- 0.4 -->
      <g style="fill:#262626;" transform="translate(40.849844 361.578058)scale(0.165 -0.165)">
       <use xlink:href="#DejaVuSans-30"/>
       <use x="63.623047" xlink:href="#DejaVuSans-2e"/>
       <use x="95.410156" xlink:href="#DejaVuSans-34"/>
      </g>
     </g>
    </g>
    <g id="ytick_3">
     <g id="text_11">
      <!-- 0.6 -->
      <g style="fill:#262626;" transform="translate(40.849844 282.400642)scale(0.165 -0.165)">
       <defs>
        <path d="M 2113 2584 
Q 1688 2584 1439 2293 
Q 1191 2003 1191 1497 
Q 1191 994 1439 701 
Q 1688 409 2113 409 
Q 2538 409 2786 701 
Q 3034 994 3034 1497 
Q 3034 2003 2786 2293 
Q 2538 2584 2113 2584 
z
M 3366 4563 
L 3366 3988 
Q 3128 4100 2886 4159 
Q 2644 4219 2406 4219 
Q 1781 4219 1451 3797 
Q 1122 3375 1075 2522 
Q 1259 2794 1537 2939 
Q 1816 3084 2150 3084 
Q 2853 3084 3261 2657 
Q 3669 2231 3669 1497 
Q 3669 778 3244 343 
Q 2819 -91 2113 -91 
Q 1303 -91 875 529 
Q 447 1150 447 2328 
Q 447 3434 972 4092 
Q 1497 4750 2381 4750 
Q 2619 4750 2861 4703 
Q 3103 4656 3366 4563 
z
" id="DejaVuSans-36" transform="scale(0.015625)"/>
       </defs>
       <use xlink:href="#DejaVuSans-30"/>
       <use x="63.623047" xlink:href="#DejaVuSans-2e"/>
       <use x="95.410156" xlink:href="#DejaVuSans-36"/>
      </g>
     </g>
    </g>
    <g id="ytick_4">
     <g id="text_12">
      <!-- 0.8 -->
      <g style="fill:#262626;" transform="translate(40.849844 203.223226)scale(0.165 -0.165)">
       <defs>
        <path d="M 2034 2216 
Q 1584 2216 1326 1975 
Q 1069 1734 1069 1313 
Q 1069 891 1326 650 
Q 1584 409 2034 409 
Q 2484 409 2743 651 
Q 3003 894 3003 1313 
Q 3003 1734 2745 1975 
Q 2488 2216 2034 2216 
z
M 1403 2484 
Q 997 2584 770 2862 
Q 544 3141 544 3541 
Q 544 4100 942 4425 
Q 1341 4750 2034 4750 
Q 2731 4750 3128 4425 
Q 3525 4100 3525 3541 
Q 3525 3141 3298 2862 
Q 3072 2584 2669 2484 
Q 3125 2378 3379 2068 
Q 3634 1759 3634 1313 
Q 3634 634 3220 271 
Q 2806 -91 2034 -91 
Q 1263 -91 848 271 
Q 434 634 434 1313 
Q 434 1759 690 2068 
Q 947 2378 1403 2484 
z
M 1172 3481 
Q 1172 3119 1398 2916 
Q 1625 2713 2034 2713 
Q 2441 2713 2670 2916 
Q 2900 3119 2900 3481 
Q 2900 3844 2670 4047 
Q 2441 4250 2034 4250 
Q 1625 4250 1398 4047 
Q 1172 3844 1172 3481 
z
" id="DejaVuSans-38" transform="scale(0.015625)"/>
       </defs>
       <use xlink:href="#DejaVuSans-30"/>
       <use x="63.623047" xlink:href="#DejaVuSans-2e"/>
       <use x="95.410156" xlink:href="#DejaVuSans-38"/>
      </g>
     </g>
    </g>
    <g id="ytick_5">
     <g id="text_13">
      <!-- 1.0 -->
      <g style="fill:#262626;" transform="translate(40.849844 124.04581)scale(0.165 -0.165)">
       <defs>
        <path d="M 794 531 
L 1825 531 
L 1825 4091 
L 703 3866 
L 703 4441 
L 1819 4666 
L 2450 4666 
L 2450 531 
L 3481 531 
L 3481 0 
L 794 0 
L 794 531 
z
" id="DejaVuSans-31" transform="scale(0.015625)"/>
       </defs>
       <use xlink:href="#DejaVuSans-31"/>
       <use x="63.623047" xlink:href="#DejaVuSans-2e"/>
       <use x="95.410156" xlink:href="#DejaVuSans-30"/>
      </g>
     </g>
    </g>
    <g id="ytick_6">
     <g id="text_14">
      <!-- 1.2 -->
      <g style="fill:#262626;" transform="translate(40.849844 44.868394)scale(0.165 -0.165)">
       <use xlink:href="#DejaVuSans-31"/>
       <use x="63.623047" xlink:href="#DejaVuSans-2e"/>
       <use x="95.410156" xlink:href="#DejaVuSans-32"/>
      </g>
     </g>
    </g>
    <g id="text_15">
     <!-- Fasttext 2D space (euclidean distance) -->
     <g style="fill:#262626;" transform="translate(33.106406 403.502344)rotate(-90)scale(0.18 -0.18)">
      <defs>
       <path d="M 628 4666 
L 3309 4666 
L 3309 4134 
L 1259 4134 
L 1259 2759 
L 3109 2759 
L 3109 2228 
L 1259 2228 
L 1259 0 
L 628 0 
L 628 4666 
z
" id="DejaVuSans-46" transform="scale(0.015625)"/>
       <path d="M 3513 3500 
L 2247 1797 
L 3578 0 
L 2900 0 
L 1881 1375 
L 863 0 
L 184 0 
L 1544 1831 
L 300 3500 
L 978 3500 
L 1906 2253 
L 2834 3500 
L 3513 3500 
z
" id="DejaVuSans-78" transform="scale(0.015625)"/>
       <path d="M 1259 4147 
L 1259 519 
L 2022 519 
Q 2988 519 3436 956 
Q 3884 1394 3884 2338 
Q 3884 3275 3436 3711 
Q 2988 4147 2022 4147 
L 1259 4147 
z
M 628 4666 
L 1925 4666 
Q 3281 4666 3915 4102 
Q 4550 3538 4550 2338 
Q 4550 1131 3912 565 
Q 3275 0 1925 0 
L 628 0 
L 628 4666 
z
" id="DejaVuSans-44" transform="scale(0.015625)"/>
       <path d="M 1159 525 
L 1159 -1331 
L 581 -1331 
L 581 3500 
L 1159 3500 
L 1159 2969 
Q 1341 3281 1617 3432 
Q 1894 3584 2278 3584 
Q 2916 3584 3314 3078 
Q 3713 2572 3713 1747 
Q 3713 922 3314 415 
Q 2916 -91 2278 -91 
Q 1894 -91 1617 61 
Q 1341 213 1159 525 
z
M 3116 1747 
Q 3116 2381 2855 2742 
Q 2594 3103 2138 3103 
Q 1681 3103 1420 2742 
Q 1159 2381 1159 1747 
Q 1159 1113 1420 752 
Q 1681 391 2138 391 
Q 2594 391 2855 752 
Q 3116 1113 3116 1747 
z
" id="DejaVuSans-70" transform="scale(0.015625)"/>
      </defs>
      <use xlink:href="#DejaVuSans-46"/>
      <use x="48.394531" xlink:href="#DejaVuSans-61"/>
      <use x="109.673828" xlink:href="#DejaVuSans-73"/>
      <use x="161.773438" xlink:href="#DejaVuSans-74"/>
      <use x="200.982422" xlink:href="#DejaVuSans-74"/>
      <use x="240.191406" xlink:href="#DejaVuSans-65"/>
      <use x="299.964844" xlink:href="#DejaVuSans-78"/>
      <use x="359.144531" xlink:href="#DejaVuSans-74"/>
      <use x="398.353516" xlink:href="#DejaVuSans-20"/>
      <use x="430.140625" xlink:href="#DejaVuSans-32"/>
      <use x="493.763672" xlink:href="#DejaVuSans-44"/>
      <use x="570.765625" xlink:href="#DejaVuSans-20"/>
      <use x="602.552734" xlink:href="#DejaVuSans-73"/>
      <use x="654.652344" xlink:href="#DejaVuSans-70"/>
      <use x="718.128906" xlink:href="#DejaVuSans-61"/>
      <use x="779.408203" xlink:href="#DejaVuSans-63"/>
      <use x="834.388672" xlink:href="#DejaVuSans-65"/>
      <use x="895.912109" xlink:href="#DejaVuSans-20"/>
      <use x="927.699219" xlink:href="#DejaVuSans-28"/>
      <use x="966.712891" xlink:href="#DejaVuSans-65"/>
      <use x="1028.236328" xlink:href="#DejaVuSans-75"/>
      <use x="1091.615234" xlink:href="#DejaVuSans-63"/>
      <use x="1146.595703" xlink:href="#DejaVuSans-6c"/>
      <use x="1174.378906" xlink:href="#DejaVuSans-69"/>
      <use x="1202.162109" xlink:href="#DejaVuSans-64"/>
      <use x="1265.638672" xlink:href="#DejaVuSans-65"/>
      <use x="1327.162109" xlink:href="#DejaVuSans-61"/>
      <use x="1388.441406" xlink:href="#DejaVuSans-6e"/>
      <use x="1451.820312" xlink:href="#DejaVuSans-20"/>
      <use x="1483.607422" xlink:href="#DejaVuSans-64"/>
      <use x="1547.083984" xlink:href="#DejaVuSans-69"/>
      <use x="1574.867188" xlink:href="#DejaVuSans-73"/>
      <use x="1626.966797" xlink:href="#DejaVuSans-74"/>
      <use x="1666.175781" xlink:href="#DejaVuSans-61"/>
      <use x="1727.455078" xlink:href="#DejaVuSans-6e"/>
      <use x="1790.833984" xlink:href="#DejaVuSans-63"/>
      <use x="1845.814453" xlink:href="#DejaVuSans-65"/>
      <use x="1907.337891" xlink:href="#DejaVuSans-29"/>
     </g>
    </g>
   </g>
   <g id="PathCollection_1">
    <defs>
     <path d="M 0 3.872983 
C 1.027127 3.872983 2.012324 3.464901 2.738613 2.738613 
C 3.464901 2.012324 3.872983 1.027127 3.872983 0 
C 3.872983 -1.027127 3.464901 -2.012324 2.738613 -2.738613 
C 2.012324 -3.464901 1.027127 -3.872983 0 -3.872983 
C -1.027127 -3.872983 -2.012324 -3.464901 -2.738613 -2.738613 
C -3.464901 -2.012324 -3.872983 -1.027127 -3.872983 0 
C -3.872983 1.027127 -3.464901 2.012324 -2.738613 2.738613 
C -2.012324 3.464901 -1.027127 3.872983 0 3.872983 
z
" id="m76abcc044f" style="stroke:#000000;stroke-opacity:0.8;stroke-width:0.7;"/>
    </defs>
    <g clip-path="url(#p16dffe0985)">
     <use style="fill:#4c72b0;fill-opacity:0.8;stroke:#000000;stroke-opacity:0.8;stroke-width:0.7;" x="461.745846" xlink:href="#m76abcc044f" y="171.874102"/>
     <use style="fill:#4c72b0;fill-opacity:0.8;stroke:#000000;stroke-opacity:0.8;stroke-width:0.7;" x="258.950964" xlink:href="#m76abcc044f" y="272.578683"/>
     <use style="fill:#4c72b0;fill-opacity:0.8;stroke:#000000;stroke-opacity:0.8;stroke-width:0.7;" x="125.379538" xlink:href="#m76abcc044f" y="220.032497"/>
     <use style="fill:#4c72b0;fill-opacity:0.8;stroke:#000000;stroke-opacity:0.8;stroke-width:0.7;" x="207.943324" xlink:href="#m76abcc044f" y="256.588036"/>
     <use style="fill:#4c72b0;fill-opacity:0.8;stroke:#000000;stroke-opacity:0.8;stroke-width:0.7;" x="562.234091" xlink:href="#m76abcc044f" y="418.23"/>
     <use style="fill:#4c72b0;fill-opacity:0.8;stroke:#000000;stroke-opacity:0.8;stroke-width:0.7;" x="476.616148" xlink:href="#m76abcc044f" y="306.861768"/>
     <use style="fill:#4c72b0;fill-opacity:0.8;stroke:#000000;stroke-opacity:0.8;stroke-width:0.7;" x="412.01733" xlink:href="#m76abcc044f" y="38.43"/>
     <use style="fill:#4c72b0;fill-opacity:0.8;stroke:#000000;stroke-opacity:0.8;stroke-width:0.7;" x="493.615318" xlink:href="#m76abcc044f" y="380.198489"/>
     <use style="fill:#4c72b0;fill-opacity:0.8;stroke:#000000;stroke-opacity:0.8;stroke-width:0.7;" x="519.818157" xlink:href="#m76abcc044f" y="111.471416"/>
     <use style="fill:#4c72b0;fill-opacity:0.8;stroke:#000000;stroke-opacity:0.8;stroke-width:0.7;" x="139.703975" xlink:href="#m76abcc044f" y="288.947446"/>
     <use style="fill:#4c72b0;fill-opacity:0.8;stroke:#000000;stroke-opacity:0.8;stroke-width:0.7;" x="495.122025" xlink:href="#m76abcc044f" y="288.771084"/>
     <use style="fill:#4c72b0;fill-opacity:0.8;stroke:#000000;stroke-opacity:0.8;stroke-width:0.7;" x="99.715909" xlink:href="#m76abcc044f" y="313.198941"/>
     <use style="fill:#4c72b0;fill-opacity:0.8;stroke:#000000;stroke-opacity:0.8;stroke-width:0.7;" x="291.457898" xlink:href="#m76abcc044f" y="179.446526"/>
     <use style="fill:#4c72b0;fill-opacity:0.8;stroke:#000000;stroke-opacity:0.8;stroke-width:0.7;" x="467.502218" xlink:href="#m76abcc044f" y="335.804396"/>
     <use style="fill:#4c72b0;fill-opacity:0.8;stroke:#000000;stroke-opacity:0.8;stroke-width:0.7;" x="315.744025" xlink:href="#m76abcc044f" y="199.283763"/>
    </g>
   </g>
   <g id="PolyCollection_1">
    <defs>
     <path d="M 99.715909 -360.134375 
L 99.715909 -202.143427 
L 104.38781 -203.817542 
L 109.059711 -205.543113 
L 113.731612 -206.559825 
L 118.403512 -208.210245 
L 123.075413 -209.12985 
L 127.747314 -210.025848 
L 132.419215 -211.410286 
L 137.091116 -212.600211 
L 141.763017 -214.112832 
L 146.434917 -215.559406 
L 151.106818 -216.950963 
L 155.778719 -217.736978 
L 160.45062 -218.564774 
L 165.122521 -218.972832 
L 169.794421 -219.457952 
L 174.466322 -219.736618 
L 179.138223 -219.499095 
L 183.810124 -220.139945 
L 188.482025 -220.929849 
L 193.153926 -220.37612 
L 197.825826 -219.830557 
L 202.497727 -219.242838 
L 207.169628 -219.231561 
L 211.841529 -219.272421 
L 216.51343 -218.179642 
L 221.185331 -217.219507 
L 225.857231 -217.155799 
L 230.529132 -216.74253 
L 235.201033 -215.793135 
L 239.872934 -215.228558 
L 244.544835 -214.649705 
L 249.216736 -214.344728 
L 253.888636 -213.57203 
L 258.560537 -212.969682 
L 263.232438 -212.282341 
L 267.904339 -211.192808 
L 272.57624 -210.736701 
L 277.24814 -210.075653 
L 281.920041 -209.001516 
L 286.591942 -208.155345 
L 291.263843 -207.155722 
L 295.935744 -206.16352 
L 300.607645 -205.172695 
L 305.279545 -204.216822 
L 309.951446 -203.69729 
L 314.623347 -202.473842 
L 319.295248 -201.591148 
L 323.967149 -200.401589 
L 328.63905 -199.189539 
L 333.31095 -198.184153 
L 337.982851 -197.199769 
L 342.654752 -196.215386 
L 347.326653 -195.495105 
L 351.998554 -194.49236 
L 356.670455 -193.228116 
L 361.342355 -192.222912 
L 366.014256 -190.771642 
L 370.686157 -189.616924 
L 375.358058 -188.413448 
L 380.029959 -187.442669 
L 384.70186 -186.483766 
L 389.37376 -185.562751 
L 394.045661 -185.197054 
L 398.717562 -184.145952 
L 403.389463 -182.751289 
L 408.061364 -181.785115 
L 412.733264 -180.914322 
L 417.405165 -179.738737 
L 422.077066 -178.370594 
L 426.748967 -177.791644 
L 431.420868 -176.337766 
L 436.092769 -174.67657 
L 440.764669 -173.130602 
L 445.43657 -171.823614 
L 450.108471 -170.404634 
L 454.780372 -168.834096 
L 459.452273 -167.195981 
L 464.124174 -165.559099 
L 468.796074 -164.169364 
L 473.467975 -162.648681 
L 478.139876 -161.532756 
L 482.811777 -160.179322 
L 487.483678 -158.690806 
L 492.155579 -156.923821 
L 496.827479 -155.492784 
L 501.49938 -154.061747 
L 506.171281 -151.666593 
L 510.843182 -150.107559 
L 515.515083 -148.754405 
L 520.186983 -147.151858 
L 524.858884 -145.419725 
L 529.530785 -143.855461 
L 534.202686 -142.278515 
L 538.874587 -140.395258 
L 543.546488 -138.103305 
L 548.218388 -136.843026 
L 552.890289 -135.5941 
L 557.56219 -134.345173 
L 562.234091 -132.617248 
L 562.234091 -395.025912 
L 562.234091 -395.025912 
L 557.56219 -393.151174 
L 552.890289 -391.276435 
L 548.218388 -389.401697 
L 543.546488 -387.526959 
L 538.874587 -385.65222 
L 534.202686 -383.777482 
L 529.530785 -382.238137 
L 524.858884 -380.701146 
L 520.186983 -379.305866 
L 515.515083 -377.958937 
L 510.843182 -376.612007 
L 506.171281 -375.040134 
L 501.49938 -373.125526 
L 496.827479 -371.220264 
L 492.155579 -369.400609 
L 487.483678 -367.433465 
L 482.811777 -365.508547 
L 478.139876 -363.596445 
L 473.467975 -361.68342 
L 468.796074 -359.871208 
L 464.124174 -358.428246 
L 459.452273 -356.420217 
L 454.780372 -354.394506 
L 450.108471 -352.368544 
L 445.43657 -350.342582 
L 440.764669 -348.31662 
L 436.092769 -346.392164 
L 431.420868 -344.477953 
L 426.748967 -342.563742 
L 422.077066 -340.655008 
L 417.405165 -338.754752 
L 412.733264 -337.369632 
L 408.061364 -335.368932 
L 403.389463 -333.530335 
L 398.717562 -332.433971 
L 394.045661 -331.060413 
L 389.37376 -328.882019 
L 384.70186 -327.081806 
L 380.029959 -324.958431 
L 375.358058 -323.382122 
L 370.686157 -321.255166 
L 366.014256 -319.561699 
L 361.342355 -318.25453 
L 356.670455 -316.960028 
L 351.998554 -314.911421 
L 347.326653 -313.254989 
L 342.654752 -311.540601 
L 337.982851 -311.47221 
L 333.31095 -309.897591 
L 328.63905 -307.991329 
L 323.967149 -307.589165 
L 319.295248 -306.557411 
L 314.623347 -304.881478 
L 309.951446 -304.163127 
L 305.279545 -304.533814 
L 300.607645 -304.795076 
L 295.935744 -305.439892 
L 291.263843 -304.299567 
L 286.591942 -303.660313 
L 281.920041 -303.796161 
L 277.24814 -303.147457 
L 272.57624 -303.007675 
L 267.904339 -304.822103 
L 263.232438 -305.705372 
L 258.560537 -305.834884 
L 253.888636 -306.633366 
L 249.216736 -306.857216 
L 244.544835 -307.423763 
L 239.872934 -308.765159 
L 235.201033 -310.106554 
L 230.529132 -311.44795 
L 225.857231 -313.146038 
L 221.185331 -315.015817 
L 216.51343 -316.885596 
L 211.841529 -318.755375 
L 207.169628 -320.625154 
L 202.497727 -322.494933 
L 197.825826 -324.364711 
L 193.153926 -326.227667 
L 188.482025 -328.104269 
L 183.810124 -329.766787 
L 179.138223 -331.272711 
L 174.466322 -332.778634 
L 169.794421 -334.277267 
L 165.122521 -335.756851 
L 160.45062 -336.984117 
L 155.778719 -337.82664 
L 151.106818 -339.782173 
L 146.434917 -341.733434 
L 141.763017 -343.242728 
L 137.091116 -344.752023 
L 132.419215 -346.261317 
L 127.747314 -347.760202 
L 123.075413 -349.4736 
L 118.403512 -351.599828 
L 113.731612 -353.665819 
L 109.059711 -355.822004 
L 104.38781 -357.97819 
L 99.715909 -360.134375 
z
" id="m10d4fa60cf" style="stroke:#ffffff;stroke-opacity:0.15;"/>
    </defs>
    <g clip-path="url(#p16dffe0985)">
     <use style="fill:#4c72b0;fill-opacity:0.15;stroke:#ffffff;stroke-opacity:0.15;" x="0" xlink:href="#m10d4fa60cf" y="504"/>
    </g>
   </g>
   <g id="line2d_1">
    <path clip-path="url(#p16dffe0985)" d="M 99.715909 241.191048 
L 104.38781 241.511649 
L 109.059711 241.83225 
L 113.731612 242.152852 
L 118.403512 242.473453 
L 123.075413 242.794054 
L 127.747314 243.114655 
L 132.419215 243.435256 
L 137.091116 243.755858 
L 141.763017 244.076459 
L 146.434917 244.39706 
L 151.106818 244.717661 
L 155.778719 245.038262 
L 160.45062 245.358864 
L 165.122521 245.679465 
L 169.794421 246.000066 
L 174.466322 246.320667 
L 179.138223 246.641268 
L 183.810124 246.96187 
L 188.482025 247.282471 
L 193.153926 247.603072 
L 197.825826 247.923673 
L 202.497727 248.244274 
L 207.169628 248.564876 
L 211.841529 248.885477 
L 216.51343 249.206078 
L 221.185331 249.526679 
L 225.857231 249.84728 
L 230.529132 250.167882 
L 235.201033 250.488483 
L 239.872934 250.809084 
L 244.544835 251.129685 
L 249.216736 251.450286 
L 253.888636 251.770888 
L 258.560537 252.091489 
L 263.232438 252.41209 
L 267.904339 252.732691 
L 272.57624 253.053292 
L 277.24814 253.373894 
L 281.920041 253.694495 
L 286.591942 254.015096 
L 291.263843 254.335697 
L 295.935744 254.656298 
L 300.607645 254.9769 
L 305.279545 255.297501 
L 309.951446 255.618102 
L 314.623347 255.938703 
L 319.295248 256.259304 
L 323.967149 256.579906 
L 328.63905 256.900507 
L 333.31095 257.221108 
L 337.982851 257.541709 
L 342.654752 257.86231 
L 347.326653 258.182912 
L 351.998554 258.503513 
L 356.670455 258.824114 
L 361.342355 259.144715 
L 366.014256 259.465316 
L 370.686157 259.785918 
L 375.358058 260.106519 
L 380.029959 260.42712 
L 384.70186 260.747721 
L 389.37376 261.068322 
L 394.045661 261.388924 
L 398.717562 261.709525 
L 403.389463 262.030126 
L 408.061364 262.350727 
L 412.733264 262.671328 
L 417.405165 262.99193 
L 422.077066 263.312531 
L 426.748967 263.633132 
L 431.420868 263.953733 
L 436.092769 264.274334 
L 440.764669 264.594936 
L 445.43657 264.915537 
L 450.108471 265.236138 
L 454.780372 265.556739 
L 459.452273 265.87734 
L 464.124174 266.197942 
L 468.796074 266.518543 
L 473.467975 266.839144 
L 478.139876 267.159745 
L 482.811777 267.480346 
L 487.483678 267.800948 
L 492.155579 268.121549 
L 496.827479 268.44215 
L 501.49938 268.762751 
L 506.171281 269.083352 
L 510.843182 269.403954 
L 515.515083 269.724555 
L 520.186983 270.045156 
L 524.858884 270.365757 
L 529.530785 270.686358 
L 534.202686 271.00696 
L 538.874587 271.327561 
L 543.546488 271.648162 
L 548.218388 271.968763 
L 552.890289 272.289364 
L 557.56219 272.609966 
L 562.234091 272.930567 
" style="fill:none;stroke:#4c72b0;stroke-linecap:round;stroke-width:2.25;"/>
   </g>
   <g id="patch_3">
    <path d="M 76.59 437.22 
L 76.59 19.44 
" style="fill:none;stroke:#262626;stroke-linecap:square;stroke-linejoin:miter;stroke-width:1.25;"/>
   </g>
   <g id="patch_4">
    <path d="M 76.59 437.22 
L 585.36 437.22 
" style="fill:none;stroke:#262626;stroke-linecap:square;stroke-linejoin:miter;stroke-width:1.25;"/>
   </g>
   <g id="text_16">
    <!-- Human ratings ~ Fasttext 2D space -->
    <g style="fill:#262626;" transform="translate(170.413594 13.44)scale(0.18 -0.18)">
     <defs>
      <path d="M 4684 2553 
L 4684 1997 
Q 4356 1750 4076 1644 
Q 3797 1538 3494 1538 
Q 3150 1538 2694 1722 
Q 2659 1734 2644 1741 
Q 2622 1750 2575 1766 
Q 2091 1959 1797 1959 
Q 1522 1959 1253 1839 
Q 984 1719 678 1459 
L 678 2016 
Q 1006 2263 1286 2370 
Q 1566 2478 1869 2478 
Q 2213 2478 2672 2291 
Q 2703 2278 2719 2272 
Q 2744 2263 2788 2247 
Q 3272 2053 3566 2053 
Q 3834 2053 4098 2172 
Q 4363 2291 4684 2553 
z
" id="DejaVuSans-7e" transform="scale(0.015625)"/>
     </defs>
     <use xlink:href="#DejaVuSans-48"/>
     <use x="75.195312" xlink:href="#DejaVuSans-75"/>
     <use x="138.574219" xlink:href="#DejaVuSans-6d"/>
     <use x="235.986328" xlink:href="#DejaVuSans-61"/>
     <use x="297.265625" xlink:href="#DejaVuSans-6e"/>
     <use x="360.644531" xlink:href="#DejaVuSans-20"/>
     <use x="392.431641" xlink:href="#DejaVuSans-72"/>
     <use x="433.544922" xlink:href="#DejaVuSans-61"/>
     <use x="494.824219" xlink:href="#DejaVuSans-74"/>
     <use x="534.033203" xlink:href="#DejaVuSans-69"/>
     <use x="561.816406" xlink:href="#DejaVuSans-6e"/>
     <use x="625.195312" xlink:href="#DejaVuSans-67"/>
     <use x="688.671875" xlink:href="#DejaVuSans-73"/>
     <use x="740.771484" xlink:href="#DejaVuSans-20"/>
     <use x="772.558594" xlink:href="#DejaVuSans-7e"/>
     <use x="856.347656" xlink:href="#DejaVuSans-20"/>
     <use x="888.134766" xlink:href="#DejaVuSans-46"/>
     <use x="936.529297" xlink:href="#DejaVuSans-61"/>
     <use x="997.808594" xlink:href="#DejaVuSans-73"/>
     <use x="1049.908203" xlink:href="#DejaVuSans-74"/>
     <use x="1089.117188" xlink:href="#DejaVuSans-74"/>
     <use x="1128.326172" xlink:href="#DejaVuSans-65"/>
     <use x="1188.099609" xlink:href="#DejaVuSans-78"/>
     <use x="1247.279297" xlink:href="#DejaVuSans-74"/>
     <use x="1286.488281" xlink:href="#DejaVuSans-20"/>
     <use x="1318.275391" xlink:href="#DejaVuSans-32"/>
     <use x="1381.898438" xlink:href="#DejaVuSans-44"/>
     <use x="1458.900391" xlink:href="#DejaVuSans-20"/>
     <use x="1490.6875" xlink:href="#DejaVuSans-73"/>
     <use x="1542.787109" xlink:href="#DejaVuSans-70"/>
     <use x="1606.263672" xlink:href="#DejaVuSans-61"/>
     <use x="1667.542969" xlink:href="#DejaVuSans-63"/>
     <use x="1722.523438" xlink:href="#DejaVuSans-65"/>
    </g>
   </g>
  </g>
  <g id="text_17">
   <!-- r =  -0.161 -->
   <g style="fill:#262626;" transform="translate(243.798188 56.732625)scale(0.216 -0.216)">
    <defs>
     <path d="M 678 2906 
L 4684 2906 
L 4684 2381 
L 678 2381 
L 678 2906 
z
M 678 1631 
L 4684 1631 
L 4684 1100 
L 678 1100 
L 678 1631 
z
" id="DejaVuSans-3d" transform="scale(0.015625)"/>
     <path d="M 313 2009 
L 1997 2009 
L 1997 1497 
L 313 1497 
L 313 2009 
z
" id="DejaVuSans-2d" transform="scale(0.015625)"/>
    </defs>
    <use xlink:href="#DejaVuSans-72"/>
    <use x="41.113281" xlink:href="#DejaVuSans-20"/>
    <use x="72.900391" xlink:href="#DejaVuSans-3d"/>
    <use x="156.689453" xlink:href="#DejaVuSans-20"/>
    <use x="188.476562" xlink:href="#DejaVuSans-20"/>
    <use x="220.263672" xlink:href="#DejaVuSans-2d"/>
    <use x="256.347656" xlink:href="#DejaVuSans-30"/>
    <use x="319.970703" xlink:href="#DejaVuSans-2e"/>
    <use x="351.757812" xlink:href="#DejaVuSans-31"/>
    <use x="415.380859" xlink:href="#DejaVuSans-36"/>
    <use x="479.003906" xlink:href="#DejaVuSans-31"/>
   </g>
  </g>
 </g>
 <defs>
  <clipPath id="p16dffe0985">
   <rect height="417.78" width="508.77" x="76.59" y="19.44"/>
  </clipPath>
 </defs>
</svg>
