<?xml version="1.0" encoding="utf-8" standalone="no"?>
<!DOCTYPE svg PUBLIC "-//W3C//DTD SVG 1.1//EN"
  "http://www.w3.org/Graphics/SVG/1.1/DTD/svg11.dtd">
<svg height="504pt" version="1.1" viewBox="0 0 604.8 504" width="604.8pt" xmlns="http://www.w3.org/2000/svg" xmlns:xlink="http://www.w3.org/1999/xlink">
 <metadata>
  <rdf:RDF xmlns:cc="http://creativecommons.org/ns#" xmlns:dc="http://purl.org/dc/elements/1.1/" xmlns:rdf="http://www.w3.org/1999/02/22-rdf-syntax-ns#">
   <cc:Work>
    <dc:type rdf:resource="http://purl.org/dc/dcmitype/StillImage"/>
    <dc:date>2023-07-25T10:48:39.985753</dc:date>
    <dc:format>image/svg+xml</dc:format>
    <dc:creator>
     <cc:Agent>
      <dc:title>Matplotlib v3.4.3, https://matplotlib.org/</dc:title>
     </cc:Agent>
    </dc:creator>
   </cc:Work>
  </rdf:RDF>
 </metadata>
 <defs>
  <style type="text/css">*{stroke-linecap:butt;stroke-linejoin:round;}</style>
 </defs>
 <g id="figure_1">
  <g id="patch_1">
   <path d="M 0 504 
L 604.8 504 
L 604.8 0 
L 0 0 
z
" style="fill:#ffffff;"/>
  </g>
  <g id="axes_1">
   <g id="patch_2">
    <path d="M 60.75 437.22 
L 585.36 437.22 
L 585.36 19.44 
L 60.75 19.44 
z
" style="fill:#ffffff;"/>
   </g>
   <g id="matplotlib.axis_1">
    <g id="xtick_1">
     <g id="text_1">
      <!-- 0.0 -->
      <g style="fill:#262626;" transform="translate(48.211529 459.257422)scale(0.165 -0.165)">
       <defs>
        <path d="M 2034 4250 
Q 1547 4250 1301 3770 
Q 1056 3291 1056 2328 
Q 1056 1369 1301 889 
Q 1547 409 2034 409 
Q 2525 409 2770 889 
Q 3016 1369 3016 2328 
Q 3016 3291 2770 3770 
Q 2525 4250 2034 4250 
z
M 2034 4750 
Q 2819 4750 3233 4129 
Q 3647 3509 3647 2328 
Q 3647 1150 3233 529 
Q 2819 -91 2034 -91 
Q 1250 -91 836 529 
Q 422 1150 422 2328 
Q 422 3509 836 4129 
Q 1250 4750 2034 4750 
z
" id="DejaVuSans-30" transform="scale(0.015625)"/>
        <path d="M 684 794 
L 1344 794 
L 1344 0 
L 684 0 
L 684 794 
z
" id="DejaVuSans-2e" transform="scale(0.015625)"/>
       </defs>
       <use xlink:href="#DejaVuSans-30"/>
       <use x="63.623047" xlink:href="#DejaVuSans-2e"/>
       <use x="95.410156" xlink:href="#DejaVuSans-30"/>
      </g>
     </g>
    </g>
    <g id="xtick_2">
     <g id="text_2">
      <!-- 0.2 -->
      <g style="fill:#262626;" transform="translate(148.248026 459.257422)scale(0.165 -0.165)">
       <defs>
        <path d="M 1228 531 
L 3431 531 
L 3431 0 
L 469 0 
L 469 531 
Q 828 903 1448 1529 
Q 2069 2156 2228 2338 
Q 2531 2678 2651 2914 
Q 2772 3150 2772 3378 
Q 2772 3750 2511 3984 
Q 2250 4219 1831 4219 
Q 1534 4219 1204 4116 
Q 875 4013 500 3803 
L 500 4441 
Q 881 4594 1212 4672 
Q 1544 4750 1819 4750 
Q 2544 4750 2975 4387 
Q 3406 4025 3406 3419 
Q 3406 3131 3298 2873 
Q 3191 2616 2906 2266 
Q 2828 2175 2409 1742 
Q 1991 1309 1228 531 
z
" id="DejaVuSans-32" transform="scale(0.015625)"/>
       </defs>
       <use xlink:href="#DejaVuSans-30"/>
       <use x="63.623047" xlink:href="#DejaVuSans-2e"/>
       <use x="95.410156" xlink:href="#DejaVuSans-32"/>
      </g>
     </g>
    </g>
    <g id="xtick_3">
     <g id="text_3">
      <!-- 0.4 -->
      <g style="fill:#262626;" transform="translate(248.284523 459.257422)scale(0.165 -0.165)">
       <defs>
        <path d="M 2419 4116 
L 825 1625 
L 2419 1625 
L 2419 4116 
z
M 2253 4666 
L 3047 4666 
L 3047 1625 
L 3713 1625 
L 3713 1100 
L 3047 1100 
L 3047 0 
L 2419 0 
L 2419 1100 
L 313 1100 
L 313 1709 
L 2253 4666 
z
" id="DejaVuSans-34" transform="scale(0.015625)"/>
       </defs>
       <use xlink:href="#DejaVuSans-30"/>
       <use x="63.623047" xlink:href="#DejaVuSans-2e"/>
       <use x="95.410156" xlink:href="#DejaVuSans-34"/>
      </g>
     </g>
    </g>
    <g id="xtick_4">
     <g id="text_4">
      <!-- 0.6 -->
      <g style="fill:#262626;" transform="translate(348.321019 459.257422)scale(0.165 -0.165)">
       <defs>
        <path d="M 2113 2584 
Q 1688 2584 1439 2293 
Q 1191 2003 1191 1497 
Q 1191 994 1439 701 
Q 1688 409 2113 409 
Q 2538 409 2786 701 
Q 3034 994 3034 1497 
Q 3034 2003 2786 2293 
Q 2538 2584 2113 2584 
z
M 3366 4563 
L 3366 3988 
Q 3128 4100 2886 4159 
Q 2644 4219 2406 4219 
Q 1781 4219 1451 3797 
Q 1122 3375 1075 2522 
Q 1259 2794 1537 2939 
Q 1816 3084 2150 3084 
Q 2853 3084 3261 2657 
Q 3669 2231 3669 1497 
Q 3669 778 3244 343 
Q 2819 -91 2113 -91 
Q 1303 -91 875 529 
Q 447 1150 447 2328 
Q 447 3434 972 4092 
Q 1497 4750 2381 4750 
Q 2619 4750 2861 4703 
Q 3103 4656 3366 4563 
z
" id="DejaVuSans-36" transform="scale(0.015625)"/>
       </defs>
       <use xlink:href="#DejaVuSans-30"/>
       <use x="63.623047" xlink:href="#DejaVuSans-2e"/>
       <use x="95.410156" xlink:href="#DejaVuSans-36"/>
      </g>
     </g>
    </g>
    <g id="xtick_5">
     <g id="text_5">
      <!-- 0.8 -->
      <g style="fill:#262626;" transform="translate(448.357516 459.257422)scale(0.165 -0.165)">
       <defs>
        <path d="M 2034 2216 
Q 1584 2216 1326 1975 
Q 1069 1734 1069 1313 
Q 1069 891 1326 650 
Q 1584 409 2034 409 
Q 2484 409 2743 651 
Q 3003 894 3003 1313 
Q 3003 1734 2745 1975 
Q 2488 2216 2034 2216 
z
M 1403 2484 
Q 997 2584 770 2862 
Q 544 3141 544 3541 
Q 544 4100 942 4425 
Q 1341 4750 2034 4750 
Q 2731 4750 3128 4425 
Q 3525 4100 3525 3541 
Q 3525 3141 3298 2862 
Q 3072 2584 2669 2484 
Q 3125 2378 3379 2068 
Q 3634 1759 3634 1313 
Q 3634 634 3220 271 
Q 2806 -91 2034 -91 
Q 1263 -91 848 271 
Q 434 634 434 1313 
Q 434 1759 690 2068 
Q 947 2378 1403 2484 
z
M 1172 3481 
Q 1172 3119 1398 2916 
Q 1625 2713 2034 2713 
Q 2441 2713 2670 2916 
Q 2900 3119 2900 3481 
Q 2900 3844 2670 4047 
Q 2441 4250 2034 4250 
Q 1625 4250 1398 4047 
Q 1172 3844 1172 3481 
z
" id="DejaVuSans-38" transform="scale(0.015625)"/>
       </defs>
       <use xlink:href="#DejaVuSans-30"/>
       <use x="63.623047" xlink:href="#DejaVuSans-2e"/>
       <use x="95.410156" xlink:href="#DejaVuSans-38"/>
      </g>
     </g>
    </g>
    <g id="xtick_6">
     <g id="text_6">
      <!-- 1.0 -->
      <g style="fill:#262626;" transform="translate(548.394013 459.257422)scale(0.165 -0.165)">
       <defs>
        <path d="M 794 531 
L 1825 531 
L 1825 4091 
L 703 3866 
L 703 4441 
L 1819 4666 
L 2450 4666 
L 2450 531 
L 3481 531 
L 3481 0 
L 794 0 
L 794 531 
z
" id="DejaVuSans-31" transform="scale(0.015625)"/>
       </defs>
       <use xlink:href="#DejaVuSans-31"/>
       <use x="63.623047" xlink:href="#DejaVuSans-2e"/>
       <use x="95.410156" xlink:href="#DejaVuSans-30"/>
      </g>
     </g>
    </g>
    <g id="text_7">
     <!-- Human ratings -->
     <g style="fill:#262626;" transform="translate(256.3875 480.366094)scale(0.18 -0.18)">
      <defs>
       <path d="M 628 4666 
L 1259 4666 
L 1259 2753 
L 3553 2753 
L 3553 4666 
L 4184 4666 
L 4184 0 
L 3553 0 
L 3553 2222 
L 1259 2222 
L 1259 0 
L 628 0 
L 628 4666 
z
" id="DejaVuSans-48" transform="scale(0.015625)"/>
       <path d="M 544 1381 
L 544 3500 
L 1119 3500 
L 1119 1403 
Q 1119 906 1312 657 
Q 1506 409 1894 409 
Q 2359 409 2629 706 
Q 2900 1003 2900 1516 
L 2900 3500 
L 3475 3500 
L 3475 0 
L 2900 0 
L 2900 538 
Q 2691 219 2414 64 
Q 2138 -91 1772 -91 
Q 1169 -91 856 284 
Q 544 659 544 1381 
z
M 1991 3584 
L 1991 3584 
z
" id="DejaVuSans-75" transform="scale(0.015625)"/>
       <path d="M 3328 2828 
Q 3544 3216 3844 3400 
Q 4144 3584 4550 3584 
Q 5097 3584 5394 3201 
Q 5691 2819 5691 2113 
L 5691 0 
L 5113 0 
L 5113 2094 
Q 5113 2597 4934 2840 
Q 4756 3084 4391 3084 
Q 3944 3084 3684 2787 
Q 3425 2491 3425 1978 
L 3425 0 
L 2847 0 
L 2847 2094 
Q 2847 2600 2669 2842 
Q 2491 3084 2119 3084 
Q 1678 3084 1418 2786 
Q 1159 2488 1159 1978 
L 1159 0 
L 581 0 
L 581 3500 
L 1159 3500 
L 1159 2956 
Q 1356 3278 1631 3431 
Q 1906 3584 2284 3584 
Q 2666 3584 2933 3390 
Q 3200 3197 3328 2828 
z
" id="DejaVuSans-6d" transform="scale(0.015625)"/>
       <path d="M 2194 1759 
Q 1497 1759 1228 1600 
Q 959 1441 959 1056 
Q 959 750 1161 570 
Q 1363 391 1709 391 
Q 2188 391 2477 730 
Q 2766 1069 2766 1631 
L 2766 1759 
L 2194 1759 
z
M 3341 1997 
L 3341 0 
L 2766 0 
L 2766 531 
Q 2569 213 2275 61 
Q 1981 -91 1556 -91 
Q 1019 -91 701 211 
Q 384 513 384 1019 
Q 384 1609 779 1909 
Q 1175 2209 1959 2209 
L 2766 2209 
L 2766 2266 
Q 2766 2663 2505 2880 
Q 2244 3097 1772 3097 
Q 1472 3097 1187 3025 
Q 903 2953 641 2809 
L 641 3341 
Q 956 3463 1253 3523 
Q 1550 3584 1831 3584 
Q 2591 3584 2966 3190 
Q 3341 2797 3341 1997 
z
" id="DejaVuSans-61" transform="scale(0.015625)"/>
       <path d="M 3513 2113 
L 3513 0 
L 2938 0 
L 2938 2094 
Q 2938 2591 2744 2837 
Q 2550 3084 2163 3084 
Q 1697 3084 1428 2787 
Q 1159 2491 1159 1978 
L 1159 0 
L 581 0 
L 581 3500 
L 1159 3500 
L 1159 2956 
Q 1366 3272 1645 3428 
Q 1925 3584 2291 3584 
Q 2894 3584 3203 3211 
Q 3513 2838 3513 2113 
z
" id="DejaVuSans-6e" transform="scale(0.015625)"/>
       <path id="DejaVuSans-20" transform="scale(0.015625)"/>
       <path d="M 2631 2963 
Q 2534 3019 2420 3045 
Q 2306 3072 2169 3072 
Q 1681 3072 1420 2755 
Q 1159 2438 1159 1844 
L 1159 0 
L 581 0 
L 581 3500 
L 1159 3500 
L 1159 2956 
Q 1341 3275 1631 3429 
Q 1922 3584 2338 3584 
Q 2397 3584 2469 3576 
Q 2541 3569 2628 3553 
L 2631 2963 
z
" id="DejaVuSans-72" transform="scale(0.015625)"/>
       <path d="M 1172 4494 
L 1172 3500 
L 2356 3500 
L 2356 3053 
L 1172 3053 
L 1172 1153 
Q 1172 725 1289 603 
Q 1406 481 1766 481 
L 2356 481 
L 2356 0 
L 1766 0 
Q 1100 0 847 248 
Q 594 497 594 1153 
L 594 3053 
L 172 3053 
L 172 3500 
L 594 3500 
L 594 4494 
L 1172 4494 
z
" id="DejaVuSans-74" transform="scale(0.015625)"/>
       <path d="M 603 3500 
L 1178 3500 
L 1178 0 
L 603 0 
L 603 3500 
z
M 603 4863 
L 1178 4863 
L 1178 4134 
L 603 4134 
L 603 4863 
z
" id="DejaVuSans-69" transform="scale(0.015625)"/>
       <path d="M 2906 1791 
Q 2906 2416 2648 2759 
Q 2391 3103 1925 3103 
Q 1463 3103 1205 2759 
Q 947 2416 947 1791 
Q 947 1169 1205 825 
Q 1463 481 1925 481 
Q 2391 481 2648 825 
Q 2906 1169 2906 1791 
z
M 3481 434 
Q 3481 -459 3084 -895 
Q 2688 -1331 1869 -1331 
Q 1566 -1331 1297 -1286 
Q 1028 -1241 775 -1147 
L 775 -588 
Q 1028 -725 1275 -790 
Q 1522 -856 1778 -856 
Q 2344 -856 2625 -561 
Q 2906 -266 2906 331 
L 2906 616 
Q 2728 306 2450 153 
Q 2172 0 1784 0 
Q 1141 0 747 490 
Q 353 981 353 1791 
Q 353 2603 747 3093 
Q 1141 3584 1784 3584 
Q 2172 3584 2450 3431 
Q 2728 3278 2906 2969 
L 2906 3500 
L 3481 3500 
L 3481 434 
z
" id="DejaVuSans-67" transform="scale(0.015625)"/>
       <path d="M 2834 3397 
L 2834 2853 
Q 2591 2978 2328 3040 
Q 2066 3103 1784 3103 
Q 1356 3103 1142 2972 
Q 928 2841 928 2578 
Q 928 2378 1081 2264 
Q 1234 2150 1697 2047 
L 1894 2003 
Q 2506 1872 2764 1633 
Q 3022 1394 3022 966 
Q 3022 478 2636 193 
Q 2250 -91 1575 -91 
Q 1294 -91 989 -36 
Q 684 19 347 128 
L 347 722 
Q 666 556 975 473 
Q 1284 391 1588 391 
Q 1994 391 2212 530 
Q 2431 669 2431 922 
Q 2431 1156 2273 1281 
Q 2116 1406 1581 1522 
L 1381 1569 
Q 847 1681 609 1914 
Q 372 2147 372 2553 
Q 372 3047 722 3315 
Q 1072 3584 1716 3584 
Q 2034 3584 2315 3537 
Q 2597 3491 2834 3397 
z
" id="DejaVuSans-73" transform="scale(0.015625)"/>
      </defs>
      <use xlink:href="#DejaVuSans-48"/>
      <use x="75.195312" xlink:href="#DejaVuSans-75"/>
      <use x="138.574219" xlink:href="#DejaVuSans-6d"/>
      <use x="235.986328" xlink:href="#DejaVuSans-61"/>
      <use x="297.265625" xlink:href="#DejaVuSans-6e"/>
      <use x="360.644531" xlink:href="#DejaVuSans-20"/>
      <use x="392.431641" xlink:href="#DejaVuSans-72"/>
      <use x="433.544922" xlink:href="#DejaVuSans-61"/>
      <use x="494.824219" xlink:href="#DejaVuSans-74"/>
      <use x="534.033203" xlink:href="#DejaVuSans-69"/>
      <use x="561.816406" xlink:href="#DejaVuSans-6e"/>
      <use x="625.195312" xlink:href="#DejaVuSans-67"/>
      <use x="688.671875" xlink:href="#DejaVuSans-73"/>
     </g>
    </g>
   </g>
   <g id="matplotlib.axis_2">
    <g id="ytick_1">
     <g id="text_8">
      <!-- 1 -->
      <g style="fill:#262626;" transform="translate(40.751875 359.746366)scale(0.165 -0.165)">
       <use xlink:href="#DejaVuSans-31"/>
      </g>
     </g>
    </g>
    <g id="ytick_2">
     <g id="text_9">
      <!-- 2 -->
      <g style="fill:#262626;" transform="translate(40.751875 274.954815)scale(0.165 -0.165)">
       <use xlink:href="#DejaVuSans-32"/>
      </g>
     </g>
    </g>
    <g id="ytick_3">
     <g id="text_10">
      <!-- 3 -->
      <g style="fill:#262626;" transform="translate(40.751875 190.163265)scale(0.165 -0.165)">
       <defs>
        <path d="M 2597 2516 
Q 3050 2419 3304 2112 
Q 3559 1806 3559 1356 
Q 3559 666 3084 287 
Q 2609 -91 1734 -91 
Q 1441 -91 1130 -33 
Q 819 25 488 141 
L 488 750 
Q 750 597 1062 519 
Q 1375 441 1716 441 
Q 2309 441 2620 675 
Q 2931 909 2931 1356 
Q 2931 1769 2642 2001 
Q 2353 2234 1838 2234 
L 1294 2234 
L 1294 2753 
L 1863 2753 
Q 2328 2753 2575 2939 
Q 2822 3125 2822 3475 
Q 2822 3834 2567 4026 
Q 2313 4219 1838 4219 
Q 1578 4219 1281 4162 
Q 984 4106 628 3988 
L 628 4550 
Q 988 4650 1302 4700 
Q 1616 4750 1894 4750 
Q 2613 4750 3031 4423 
Q 3450 4097 3450 3541 
Q 3450 3153 3228 2886 
Q 3006 2619 2597 2516 
z
" id="DejaVuSans-33" transform="scale(0.015625)"/>
       </defs>
       <use xlink:href="#DejaVuSans-33"/>
      </g>
     </g>
    </g>
    <g id="ytick_4">
     <g id="text_11">
      <!-- 4 -->
      <g style="fill:#262626;" transform="translate(40.751875 105.371714)scale(0.165 -0.165)">
       <use xlink:href="#DejaVuSans-34"/>
      </g>
     </g>
    </g>
    <g id="text_12">
     <!-- Control space (euclidean distance) -->
     <g style="fill:#262626;" transform="translate(33.008437 384.662813)rotate(-90)scale(0.18 -0.18)">
      <defs>
       <path d="M 4122 4306 
L 4122 3641 
Q 3803 3938 3442 4084 
Q 3081 4231 2675 4231 
Q 1875 4231 1450 3742 
Q 1025 3253 1025 2328 
Q 1025 1406 1450 917 
Q 1875 428 2675 428 
Q 3081 428 3442 575 
Q 3803 722 4122 1019 
L 4122 359 
Q 3791 134 3420 21 
Q 3050 -91 2638 -91 
Q 1578 -91 968 557 
Q 359 1206 359 2328 
Q 359 3453 968 4101 
Q 1578 4750 2638 4750 
Q 3056 4750 3426 4639 
Q 3797 4528 4122 4306 
z
" id="DejaVuSans-43" transform="scale(0.015625)"/>
       <path d="M 1959 3097 
Q 1497 3097 1228 2736 
Q 959 2375 959 1747 
Q 959 1119 1226 758 
Q 1494 397 1959 397 
Q 2419 397 2687 759 
Q 2956 1122 2956 1747 
Q 2956 2369 2687 2733 
Q 2419 3097 1959 3097 
z
M 1959 3584 
Q 2709 3584 3137 3096 
Q 3566 2609 3566 1747 
Q 3566 888 3137 398 
Q 2709 -91 1959 -91 
Q 1206 -91 779 398 
Q 353 888 353 1747 
Q 353 2609 779 3096 
Q 1206 3584 1959 3584 
z
" id="DejaVuSans-6f" transform="scale(0.015625)"/>
       <path d="M 603 4863 
L 1178 4863 
L 1178 0 
L 603 0 
L 603 4863 
z
" id="DejaVuSans-6c" transform="scale(0.015625)"/>
       <path d="M 1159 525 
L 1159 -1331 
L 581 -1331 
L 581 3500 
L 1159 3500 
L 1159 2969 
Q 1341 3281 1617 3432 
Q 1894 3584 2278 3584 
Q 2916 3584 3314 3078 
Q 3713 2572 3713 1747 
Q 3713 922 3314 415 
Q 2916 -91 2278 -91 
Q 1894 -91 1617 61 
Q 1341 213 1159 525 
z
M 3116 1747 
Q 3116 2381 2855 2742 
Q 2594 3103 2138 3103 
Q 1681 3103 1420 2742 
Q 1159 2381 1159 1747 
Q 1159 1113 1420 752 
Q 1681 391 2138 391 
Q 2594 391 2855 752 
Q 3116 1113 3116 1747 
z
" id="DejaVuSans-70" transform="scale(0.015625)"/>
       <path d="M 3122 3366 
L 3122 2828 
Q 2878 2963 2633 3030 
Q 2388 3097 2138 3097 
Q 1578 3097 1268 2742 
Q 959 2388 959 1747 
Q 959 1106 1268 751 
Q 1578 397 2138 397 
Q 2388 397 2633 464 
Q 2878 531 3122 666 
L 3122 134 
Q 2881 22 2623 -34 
Q 2366 -91 2075 -91 
Q 1284 -91 818 406 
Q 353 903 353 1747 
Q 353 2603 823 3093 
Q 1294 3584 2113 3584 
Q 2378 3584 2631 3529 
Q 2884 3475 3122 3366 
z
" id="DejaVuSans-63" transform="scale(0.015625)"/>
       <path d="M 3597 1894 
L 3597 1613 
L 953 1613 
Q 991 1019 1311 708 
Q 1631 397 2203 397 
Q 2534 397 2845 478 
Q 3156 559 3463 722 
L 3463 178 
Q 3153 47 2828 -22 
Q 2503 -91 2169 -91 
Q 1331 -91 842 396 
Q 353 884 353 1716 
Q 353 2575 817 3079 
Q 1281 3584 2069 3584 
Q 2775 3584 3186 3129 
Q 3597 2675 3597 1894 
z
M 3022 2063 
Q 3016 2534 2758 2815 
Q 2500 3097 2075 3097 
Q 1594 3097 1305 2825 
Q 1016 2553 972 2059 
L 3022 2063 
z
" id="DejaVuSans-65" transform="scale(0.015625)"/>
       <path d="M 1984 4856 
Q 1566 4138 1362 3434 
Q 1159 2731 1159 2009 
Q 1159 1288 1364 580 
Q 1569 -128 1984 -844 
L 1484 -844 
Q 1016 -109 783 600 
Q 550 1309 550 2009 
Q 550 2706 781 3412 
Q 1013 4119 1484 4856 
L 1984 4856 
z
" id="DejaVuSans-28" transform="scale(0.015625)"/>
       <path d="M 2906 2969 
L 2906 4863 
L 3481 4863 
L 3481 0 
L 2906 0 
L 2906 525 
Q 2725 213 2448 61 
Q 2172 -91 1784 -91 
Q 1150 -91 751 415 
Q 353 922 353 1747 
Q 353 2572 751 3078 
Q 1150 3584 1784 3584 
Q 2172 3584 2448 3432 
Q 2725 3281 2906 2969 
z
M 947 1747 
Q 947 1113 1208 752 
Q 1469 391 1925 391 
Q 2381 391 2643 752 
Q 2906 1113 2906 1747 
Q 2906 2381 2643 2742 
Q 2381 3103 1925 3103 
Q 1469 3103 1208 2742 
Q 947 2381 947 1747 
z
" id="DejaVuSans-64" transform="scale(0.015625)"/>
       <path d="M 513 4856 
L 1013 4856 
Q 1481 4119 1714 3412 
Q 1947 2706 1947 2009 
Q 1947 1309 1714 600 
Q 1481 -109 1013 -844 
L 513 -844 
Q 928 -128 1133 580 
Q 1338 1288 1338 2009 
Q 1338 2731 1133 3434 
Q 928 4138 513 4856 
z
" id="DejaVuSans-29" transform="scale(0.015625)"/>
      </defs>
      <use xlink:href="#DejaVuSans-43"/>
      <use x="69.824219" xlink:href="#DejaVuSans-6f"/>
      <use x="131.005859" xlink:href="#DejaVuSans-6e"/>
      <use x="194.384766" xlink:href="#DejaVuSans-74"/>
      <use x="233.59375" xlink:href="#DejaVuSans-72"/>
      <use x="272.457031" xlink:href="#DejaVuSans-6f"/>
      <use x="333.638672" xlink:href="#DejaVuSans-6c"/>
      <use x="361.421875" xlink:href="#DejaVuSans-20"/>
      <use x="393.208984" xlink:href="#DejaVuSans-73"/>
      <use x="445.308594" xlink:href="#DejaVuSans-70"/>
      <use x="508.785156" xlink:href="#DejaVuSans-61"/>
      <use x="570.064453" xlink:href="#DejaVuSans-63"/>
      <use x="625.044922" xlink:href="#DejaVuSans-65"/>
      <use x="686.568359" xlink:href="#DejaVuSans-20"/>
      <use x="718.355469" xlink:href="#DejaVuSans-28"/>
      <use x="757.369141" xlink:href="#DejaVuSans-65"/>
      <use x="818.892578" xlink:href="#DejaVuSans-75"/>
      <use x="882.271484" xlink:href="#DejaVuSans-63"/>
      <use x="937.251953" xlink:href="#DejaVuSans-6c"/>
      <use x="965.035156" xlink:href="#DejaVuSans-69"/>
      <use x="992.818359" xlink:href="#DejaVuSans-64"/>
      <use x="1056.294922" xlink:href="#DejaVuSans-65"/>
      <use x="1117.818359" xlink:href="#DejaVuSans-61"/>
      <use x="1179.097656" xlink:href="#DejaVuSans-6e"/>
      <use x="1242.476562" xlink:href="#DejaVuSans-20"/>
      <use x="1274.263672" xlink:href="#DejaVuSans-64"/>
      <use x="1337.740234" xlink:href="#DejaVuSans-69"/>
      <use x="1365.523438" xlink:href="#DejaVuSans-73"/>
      <use x="1417.623047" xlink:href="#DejaVuSans-74"/>
      <use x="1456.832031" xlink:href="#DejaVuSans-61"/>
      <use x="1518.111328" xlink:href="#DejaVuSans-6e"/>
      <use x="1581.490234" xlink:href="#DejaVuSans-63"/>
      <use x="1636.470703" xlink:href="#DejaVuSans-65"/>
      <use x="1697.994141" xlink:href="#DejaVuSans-29"/>
     </g>
    </g>
   </g>
   <g id="PathCollection_1">
    <defs>
     <path d="M 0 3.872983 
C 1.027127 3.872983 2.012324 3.464901 2.738613 2.738613 
C 3.464901 2.012324 3.872983 1.027127 3.872983 0 
C 3.872983 -1.027127 3.464901 -2.012324 2.738613 -2.738613 
C 2.012324 -3.464901 1.027127 -3.872983 0 -3.872983 
C -1.027127 -3.872983 -2.012324 -3.464901 -2.738613 -2.738613 
C -3.464901 -2.012324 -3.872983 -1.027127 -3.872983 0 
C -3.872983 1.027127 -3.464901 2.012324 -2.738613 2.738613 
C -2.012324 3.464901 -1.027127 3.872983 0 3.872983 
z
" id="mc1d62f52b8" style="stroke:#000000;stroke-opacity:0.8;stroke-width:0.7;"/>
    </defs>
    <g clip-path="url(#pd924af39e3)">
     <use style="fill:#4c72b0;fill-opacity:0.8;stroke:#000000;stroke-opacity:0.8;stroke-width:0.7;" x="514.985488" xlink:href="#mc1d62f52b8" y="343.004603"/>
     <use style="fill:#4c72b0;fill-opacity:0.8;stroke:#000000;stroke-opacity:0.8;stroke-width:0.7;" x="398.66398" xlink:href="#mc1d62f52b8" y="398.662194"/>
     <use style="fill:#4c72b0;fill-opacity:0.8;stroke:#000000;stroke-opacity:0.8;stroke-width:0.7;" x="352.135377" xlink:href="#mc1d62f52b8" y="345.922506"/>
     <use style="fill:#4c72b0;fill-opacity:0.8;stroke:#000000;stroke-opacity:0.8;stroke-width:0.7;" x="561.514091" xlink:href="#mc1d62f52b8" y="213.463274"/>
     <use style="fill:#4c72b0;fill-opacity:0.8;stroke:#000000;stroke-opacity:0.8;stroke-width:0.7;" x="514.985488" xlink:href="#mc1d62f52b8" y="272.771828"/>
     <use style="fill:#4c72b0;fill-opacity:0.8;stroke:#000000;stroke-opacity:0.8;stroke-width:0.7;" x="526.617639" xlink:href="#mc1d62f52b8" y="354.316367"/>
     <use style="fill:#4c72b0;fill-opacity:0.8;stroke:#000000;stroke-opacity:0.8;stroke-width:0.7;" x="480.089035" xlink:href="#mc1d62f52b8" y="317.218533"/>
     <use style="fill:#4c72b0;fill-opacity:0.8;stroke:#000000;stroke-opacity:0.8;stroke-width:0.7;" x="456.824734" xlink:href="#mc1d62f52b8" y="393.99964"/>
     <use style="fill:#4c72b0;fill-opacity:0.8;stroke:#000000;stroke-opacity:0.8;stroke-width:0.7;" x="328.871075" xlink:href="#mc1d62f52b8" y="327.042545"/>
     <use style="fill:#4c72b0;fill-opacity:0.8;stroke:#000000;stroke-opacity:0.8;stroke-width:0.7;" x="526.617639" xlink:href="#mc1d62f52b8" y="226.112451"/>
     <use style="fill:#4c72b0;fill-opacity:0.8;stroke:#000000;stroke-opacity:0.8;stroke-width:0.7;" x="538.249789" xlink:href="#mc1d62f52b8" y="300.235271"/>
     <use style="fill:#4c72b0;fill-opacity:0.8;stroke:#000000;stroke-opacity:0.8;stroke-width:0.7;" x="538.249789" xlink:href="#mc1d62f52b8" y="336.554493"/>
     <use style="fill:#4c72b0;fill-opacity:0.8;stroke:#000000;stroke-opacity:0.8;stroke-width:0.7;" x="445.192583" xlink:href="#mc1d62f52b8" y="245.81231"/>
     <use style="fill:#4c72b0;fill-opacity:0.8;stroke:#000000;stroke-opacity:0.8;stroke-width:0.7;" x="491.721186" xlink:href="#mc1d62f52b8" y="136.177114"/>
     <use style="fill:#4c72b0;fill-opacity:0.8;stroke:#000000;stroke-opacity:0.8;stroke-width:0.7;" x="410.296131" xlink:href="#mc1d62f52b8" y="265.297014"/>
     <use style="fill:#4c72b0;fill-opacity:0.8;stroke:#000000;stroke-opacity:0.8;stroke-width:0.7;" x="398.66398" xlink:href="#mc1d62f52b8" y="190.609954"/>
     <use style="fill:#4c72b0;fill-opacity:0.8;stroke:#000000;stroke-opacity:0.8;stroke-width:0.7;" x="561.514091" xlink:href="#mc1d62f52b8" y="44.936217"/>
     <use style="fill:#4c72b0;fill-opacity:0.8;stroke:#000000;stroke-opacity:0.8;stroke-width:0.7;" x="561.514091" xlink:href="#mc1d62f52b8" y="257.601482"/>
     <use style="fill:#4c72b0;fill-opacity:0.8;stroke:#000000;stroke-opacity:0.8;stroke-width:0.7;" x="445.192583" xlink:href="#mc1d62f52b8" y="238.067845"/>
     <use style="fill:#4c72b0;fill-opacity:0.8;stroke:#000000;stroke-opacity:0.8;stroke-width:0.7;" x="410.296131" xlink:href="#mc1d62f52b8" y="310.037703"/>
     <use style="fill:#4c72b0;fill-opacity:0.8;stroke:#000000;stroke-opacity:0.8;stroke-width:0.7;" x="352.135377" xlink:href="#mc1d62f52b8" y="263.764929"/>
     <use style="fill:#4c72b0;fill-opacity:0.8;stroke:#000000;stroke-opacity:0.8;stroke-width:0.7;" x="561.514091" xlink:href="#mc1d62f52b8" y="274.641365"/>
     <use style="fill:#4c72b0;fill-opacity:0.8;stroke:#000000;stroke-opacity:0.8;stroke-width:0.7;" x="561.514091" xlink:href="#mc1d62f52b8" y="359.847421"/>
     <use style="fill:#4c72b0;fill-opacity:0.8;stroke:#000000;stroke-opacity:0.8;stroke-width:0.7;" x="538.249789" xlink:href="#mc1d62f52b8" y="274.060885"/>
     <use style="fill:#4c72b0;fill-opacity:0.8;stroke:#000000;stroke-opacity:0.8;stroke-width:0.7;" x="398.66398" xlink:href="#mc1d62f52b8" y="334.251063"/>
     <use style="fill:#4c72b0;fill-opacity:0.8;stroke:#000000;stroke-opacity:0.8;stroke-width:0.7;" x="433.560432" xlink:href="#mc1d62f52b8" y="332.026875"/>
     <use style="fill:#4c72b0;fill-opacity:0.8;stroke:#000000;stroke-opacity:0.8;stroke-width:0.7;" x="445.192583" xlink:href="#mc1d62f52b8" y="367.701016"/>
     <use style="fill:#4c72b0;fill-opacity:0.8;stroke:#000000;stroke-opacity:0.8;stroke-width:0.7;" x="526.617639" xlink:href="#mc1d62f52b8" y="278.008458"/>
     <use style="fill:#4c72b0;fill-opacity:0.8;stroke:#000000;stroke-opacity:0.8;stroke-width:0.7;" x="526.617639" xlink:href="#mc1d62f52b8" y="261.757753"/>
     <use style="fill:#4c72b0;fill-opacity:0.8;stroke:#000000;stroke-opacity:0.8;stroke-width:0.7;" x="538.249789" xlink:href="#mc1d62f52b8" y="377.700986"/>
     <use style="fill:#4c72b0;fill-opacity:0.8;stroke:#000000;stroke-opacity:0.8;stroke-width:0.7;" x="410.296131" xlink:href="#mc1d62f52b8" y="295.87089"/>
     <use style="fill:#4c72b0;fill-opacity:0.8;stroke:#000000;stroke-opacity:0.8;stroke-width:0.7;" x="514.985488" xlink:href="#mc1d62f52b8" y="184.146296"/>
     <use style="fill:#4c72b0;fill-opacity:0.8;stroke:#000000;stroke-opacity:0.8;stroke-width:0.7;" x="526.617639" xlink:href="#mc1d62f52b8" y="265.693676"/>
     <use style="fill:#4c72b0;fill-opacity:0.8;stroke:#000000;stroke-opacity:0.8;stroke-width:0.7;" x="328.871075" xlink:href="#mc1d62f52b8" y="73.906853"/>
     <use style="fill:#4c72b0;fill-opacity:0.8;stroke:#000000;stroke-opacity:0.8;stroke-width:0.7;" x="538.249789" xlink:href="#mc1d62f52b8" y="38.43"/>
     <use style="fill:#4c72b0;fill-opacity:0.8;stroke:#000000;stroke-opacity:0.8;stroke-width:0.7;" x="549.88194" xlink:href="#mc1d62f52b8" y="256.224979"/>
     <use style="fill:#4c72b0;fill-opacity:0.8;stroke:#000000;stroke-opacity:0.8;stroke-width:0.7;" x="549.88194" xlink:href="#mc1d62f52b8" y="283.627418"/>
     <use style="fill:#4c72b0;fill-opacity:0.8;stroke:#000000;stroke-opacity:0.8;stroke-width:0.7;" x="526.617639" xlink:href="#mc1d62f52b8" y="237.263054"/>
     <use style="fill:#4c72b0;fill-opacity:0.8;stroke:#000000;stroke-opacity:0.8;stroke-width:0.7;" x="538.249789" xlink:href="#mc1d62f52b8" y="328.141325"/>
     <use style="fill:#4c72b0;fill-opacity:0.8;stroke:#000000;stroke-opacity:0.8;stroke-width:0.7;" x="235.813869" xlink:href="#mc1d62f52b8" y="333.117135"/>
     <use style="fill:#4c72b0;fill-opacity:0.8;stroke:#000000;stroke-opacity:0.8;stroke-width:0.7;" x="456.824734" xlink:href="#mc1d62f52b8" y="193.889568"/>
     <use style="fill:#4c72b0;fill-opacity:0.8;stroke:#000000;stroke-opacity:0.8;stroke-width:0.7;" x="561.514091" xlink:href="#mc1d62f52b8" y="330.7977"/>
     <use style="fill:#4c72b0;fill-opacity:0.8;stroke:#000000;stroke-opacity:0.8;stroke-width:0.7;" x="526.617639" xlink:href="#mc1d62f52b8" y="361.224425"/>
     <use style="fill:#4c72b0;fill-opacity:0.8;stroke:#000000;stroke-opacity:0.8;stroke-width:0.7;" x="538.249789" xlink:href="#mc1d62f52b8" y="378.178957"/>
     <use style="fill:#4c72b0;fill-opacity:0.8;stroke:#000000;stroke-opacity:0.8;stroke-width:0.7;" x="503.353337" xlink:href="#mc1d62f52b8" y="336.570342"/>
     <use style="fill:#4c72b0;fill-opacity:0.8;stroke:#000000;stroke-opacity:0.8;stroke-width:0.7;" x="375.399678" xlink:href="#mc1d62f52b8" y="162.282582"/>
     <use style="fill:#4c72b0;fill-opacity:0.8;stroke:#000000;stroke-opacity:0.8;stroke-width:0.7;" x="363.767528" xlink:href="#mc1d62f52b8" y="223.81769"/>
     <use style="fill:#4c72b0;fill-opacity:0.8;stroke:#000000;stroke-opacity:0.8;stroke-width:0.7;" x="561.514091" xlink:href="#mc1d62f52b8" y="339.885868"/>
     <use style="fill:#4c72b0;fill-opacity:0.8;stroke:#000000;stroke-opacity:0.8;stroke-width:0.7;" x="549.88194" xlink:href="#mc1d62f52b8" y="209.182686"/>
     <use style="fill:#4c72b0;fill-opacity:0.8;stroke:#000000;stroke-opacity:0.8;stroke-width:0.7;" x="561.514091" xlink:href="#mc1d62f52b8" y="253.179713"/>
     <use style="fill:#4c72b0;fill-opacity:0.8;stroke:#000000;stroke-opacity:0.8;stroke-width:0.7;" x="549.88194" xlink:href="#mc1d62f52b8" y="244.693991"/>
     <use style="fill:#4c72b0;fill-opacity:0.8;stroke:#000000;stroke-opacity:0.8;stroke-width:0.7;" x="305.606774" xlink:href="#mc1d62f52b8" y="331.92433"/>
     <use style="fill:#4c72b0;fill-opacity:0.8;stroke:#000000;stroke-opacity:0.8;stroke-width:0.7;" x="340.503226" xlink:href="#mc1d62f52b8" y="313.468206"/>
     <use style="fill:#4c72b0;fill-opacity:0.8;stroke:#000000;stroke-opacity:0.8;stroke-width:0.7;" x="561.514091" xlink:href="#mc1d62f52b8" y="254.019668"/>
     <use style="fill:#4c72b0;fill-opacity:0.8;stroke:#000000;stroke-opacity:0.8;stroke-width:0.7;" x="538.249789" xlink:href="#mc1d62f52b8" y="133.041152"/>
     <use style="fill:#4c72b0;fill-opacity:0.8;stroke:#000000;stroke-opacity:0.8;stroke-width:0.7;" x="561.514091" xlink:href="#mc1d62f52b8" y="175.975057"/>
     <use style="fill:#4c72b0;fill-opacity:0.8;stroke:#000000;stroke-opacity:0.8;stroke-width:0.7;" x="561.514091" xlink:href="#mc1d62f52b8" y="171.123783"/>
     <use style="fill:#4c72b0;fill-opacity:0.8;stroke:#000000;stroke-opacity:0.8;stroke-width:0.7;" x="200.917417" xlink:href="#mc1d62f52b8" y="324.847364"/>
     <use style="fill:#4c72b0;fill-opacity:0.8;stroke:#000000;stroke-opacity:0.8;stroke-width:0.7;" x="445.192583" xlink:href="#mc1d62f52b8" y="270.16633"/>
     <use style="fill:#4c72b0;fill-opacity:0.8;stroke:#000000;stroke-opacity:0.8;stroke-width:0.7;" x="561.514091" xlink:href="#mc1d62f52b8" y="179.815789"/>
     <use style="fill:#4c72b0;fill-opacity:0.8;stroke:#000000;stroke-opacity:0.8;stroke-width:0.7;" x="491.721186" xlink:href="#mc1d62f52b8" y="301.609532"/>
     <use style="fill:#4c72b0;fill-opacity:0.8;stroke:#000000;stroke-opacity:0.8;stroke-width:0.7;" x="468.456885" xlink:href="#mc1d62f52b8" y="356.334477"/>
     <use style="fill:#4c72b0;fill-opacity:0.8;stroke:#000000;stroke-opacity:0.8;stroke-width:0.7;" x="549.88194" xlink:href="#mc1d62f52b8" y="324.115704"/>
     <use style="fill:#4c72b0;fill-opacity:0.8;stroke:#000000;stroke-opacity:0.8;stroke-width:0.7;" x="491.721186" xlink:href="#mc1d62f52b8" y="262.758011"/>
     <use style="fill:#4c72b0;fill-opacity:0.8;stroke:#000000;stroke-opacity:0.8;stroke-width:0.7;" x="421.928282" xlink:href="#mc1d62f52b8" y="310.762789"/>
     <use style="fill:#4c72b0;fill-opacity:0.8;stroke:#000000;stroke-opacity:0.8;stroke-width:0.7;" x="445.192583" xlink:href="#mc1d62f52b8" y="334.449337"/>
     <use style="fill:#4c72b0;fill-opacity:0.8;stroke:#000000;stroke-opacity:0.8;stroke-width:0.7;" x="561.514091" xlink:href="#mc1d62f52b8" y="342.544442"/>
     <use style="fill:#4c72b0;fill-opacity:0.8;stroke:#000000;stroke-opacity:0.8;stroke-width:0.7;" x="503.353337" xlink:href="#mc1d62f52b8" y="384.780033"/>
     <use style="fill:#4c72b0;fill-opacity:0.8;stroke:#000000;stroke-opacity:0.8;stroke-width:0.7;" x="526.617639" xlink:href="#mc1d62f52b8" y="352.871454"/>
     <use style="fill:#4c72b0;fill-opacity:0.8;stroke:#000000;stroke-opacity:0.8;stroke-width:0.7;" x="491.721186" xlink:href="#mc1d62f52b8" y="229.140375"/>
     <use style="fill:#4c72b0;fill-opacity:0.8;stroke:#000000;stroke-opacity:0.8;stroke-width:0.7;" x="410.296131" xlink:href="#mc1d62f52b8" y="275.454861"/>
     <use style="fill:#4c72b0;fill-opacity:0.8;stroke:#000000;stroke-opacity:0.8;stroke-width:0.7;" x="375.399678" xlink:href="#mc1d62f52b8" y="362.149012"/>
     <use style="fill:#4c72b0;fill-opacity:0.8;stroke:#000000;stroke-opacity:0.8;stroke-width:0.7;" x="561.514091" xlink:href="#mc1d62f52b8" y="303.275903"/>
     <use style="fill:#4c72b0;fill-opacity:0.8;stroke:#000000;stroke-opacity:0.8;stroke-width:0.7;" x="561.514091" xlink:href="#mc1d62f52b8" y="392.26753"/>
     <use style="fill:#4c72b0;fill-opacity:0.8;stroke:#000000;stroke-opacity:0.8;stroke-width:0.7;" x="561.514091" xlink:href="#mc1d62f52b8" y="313.178725"/>
     <use style="fill:#4c72b0;fill-opacity:0.8;stroke:#000000;stroke-opacity:0.8;stroke-width:0.7;" x="561.514091" xlink:href="#mc1d62f52b8" y="223.970537"/>
     <use style="fill:#4c72b0;fill-opacity:0.8;stroke:#000000;stroke-opacity:0.8;stroke-width:0.7;" x="538.249789" xlink:href="#mc1d62f52b8" y="313.651906"/>
     <use style="fill:#4c72b0;fill-opacity:0.8;stroke:#000000;stroke-opacity:0.8;stroke-width:0.7;" x="84.595909" xlink:href="#mc1d62f52b8" y="322.794317"/>
     <use style="fill:#4c72b0;fill-opacity:0.8;stroke:#000000;stroke-opacity:0.8;stroke-width:0.7;" x="538.249789" xlink:href="#mc1d62f52b8" y="263.915993"/>
     <use style="fill:#4c72b0;fill-opacity:0.8;stroke:#000000;stroke-opacity:0.8;stroke-width:0.7;" x="491.721186" xlink:href="#mc1d62f52b8" y="283.578295"/>
     <use style="fill:#4c72b0;fill-opacity:0.8;stroke:#000000;stroke-opacity:0.8;stroke-width:0.7;" x="514.985488" xlink:href="#mc1d62f52b8" y="301.846172"/>
     <use style="fill:#4c72b0;fill-opacity:0.8;stroke:#000000;stroke-opacity:0.8;stroke-width:0.7;" x="491.721186" xlink:href="#mc1d62f52b8" y="335.788295"/>
     <use style="fill:#4c72b0;fill-opacity:0.8;stroke:#000000;stroke-opacity:0.8;stroke-width:0.7;" x="410.296131" xlink:href="#mc1d62f52b8" y="285.637236"/>
     <use style="fill:#4c72b0;fill-opacity:0.8;stroke:#000000;stroke-opacity:0.8;stroke-width:0.7;" x="421.928282" xlink:href="#mc1d62f52b8" y="310.736984"/>
     <use style="fill:#4c72b0;fill-opacity:0.8;stroke:#000000;stroke-opacity:0.8;stroke-width:0.7;" x="526.617639" xlink:href="#mc1d62f52b8" y="312.143207"/>
     <use style="fill:#4c72b0;fill-opacity:0.8;stroke:#000000;stroke-opacity:0.8;stroke-width:0.7;" x="491.721186" xlink:href="#mc1d62f52b8" y="296.100754"/>
     <use style="fill:#4c72b0;fill-opacity:0.8;stroke:#000000;stroke-opacity:0.8;stroke-width:0.7;" x="259.078171" xlink:href="#mc1d62f52b8" y="353.518112"/>
     <use style="fill:#4c72b0;fill-opacity:0.8;stroke:#000000;stroke-opacity:0.8;stroke-width:0.7;" x="549.88194" xlink:href="#mc1d62f52b8" y="311.323128"/>
     <use style="fill:#4c72b0;fill-opacity:0.8;stroke:#000000;stroke-opacity:0.8;stroke-width:0.7;" x="526.617639" xlink:href="#mc1d62f52b8" y="247.50083"/>
     <use style="fill:#4c72b0;fill-opacity:0.8;stroke:#000000;stroke-opacity:0.8;stroke-width:0.7;" x="514.985488" xlink:href="#mc1d62f52b8" y="361.302368"/>
     <use style="fill:#4c72b0;fill-opacity:0.8;stroke:#000000;stroke-opacity:0.8;stroke-width:0.7;" x="549.88194" xlink:href="#mc1d62f52b8" y="362.648963"/>
     <use style="fill:#4c72b0;fill-opacity:0.8;stroke:#000000;stroke-opacity:0.8;stroke-width:0.7;" x="538.249789" xlink:href="#mc1d62f52b8" y="329.131229"/>
     <use style="fill:#4c72b0;fill-opacity:0.8;stroke:#000000;stroke-opacity:0.8;stroke-width:0.7;" x="526.617639" xlink:href="#mc1d62f52b8" y="322.073235"/>
     <use style="fill:#4c72b0;fill-opacity:0.8;stroke:#000000;stroke-opacity:0.8;stroke-width:0.7;" x="247.44602" xlink:href="#mc1d62f52b8" y="126.684456"/>
     <use style="fill:#4c72b0;fill-opacity:0.8;stroke:#000000;stroke-opacity:0.8;stroke-width:0.7;" x="445.192583" xlink:href="#mc1d62f52b8" y="173.871486"/>
     <use style="fill:#4c72b0;fill-opacity:0.8;stroke:#000000;stroke-opacity:0.8;stroke-width:0.7;" x="561.514091" xlink:href="#mc1d62f52b8" y="320.886649"/>
     <use style="fill:#4c72b0;fill-opacity:0.8;stroke:#000000;stroke-opacity:0.8;stroke-width:0.7;" x="561.514091" xlink:href="#mc1d62f52b8" y="298.089592"/>
     <use style="fill:#4c72b0;fill-opacity:0.8;stroke:#000000;stroke-opacity:0.8;stroke-width:0.7;" x="468.456885" xlink:href="#mc1d62f52b8" y="418.23"/>
     <use style="fill:#4c72b0;fill-opacity:0.8;stroke:#000000;stroke-opacity:0.8;stroke-width:0.7;" x="526.617639" xlink:href="#mc1d62f52b8" y="296.397168"/>
     <use style="fill:#4c72b0;fill-opacity:0.8;stroke:#000000;stroke-opacity:0.8;stroke-width:0.7;" x="549.88194" xlink:href="#mc1d62f52b8" y="186.991125"/>
     <use style="fill:#4c72b0;fill-opacity:0.8;stroke:#000000;stroke-opacity:0.8;stroke-width:0.7;" x="549.88194" xlink:href="#mc1d62f52b8" y="302.199557"/>
     <use style="fill:#4c72b0;fill-opacity:0.8;stroke:#000000;stroke-opacity:0.8;stroke-width:0.7;" x="212.549568" xlink:href="#mc1d62f52b8" y="304.741527"/>
     <use style="fill:#4c72b0;fill-opacity:0.8;stroke:#000000;stroke-opacity:0.8;stroke-width:0.7;" x="293.974623" xlink:href="#mc1d62f52b8" y="292.300544"/>
     <use style="fill:#4c72b0;fill-opacity:0.8;stroke:#000000;stroke-opacity:0.8;stroke-width:0.7;" x="549.88194" xlink:href="#mc1d62f52b8" y="352.689505"/>
     <use style="fill:#4c72b0;fill-opacity:0.8;stroke:#000000;stroke-opacity:0.8;stroke-width:0.7;" x="538.249789" xlink:href="#mc1d62f52b8" y="314.87822"/>
     <use style="fill:#4c72b0;fill-opacity:0.8;stroke:#000000;stroke-opacity:0.8;stroke-width:0.7;" x="514.985488" xlink:href="#mc1d62f52b8" y="263.85433"/>
     <use style="fill:#4c72b0;fill-opacity:0.8;stroke:#000000;stroke-opacity:0.8;stroke-width:0.7;" x="421.928282" xlink:href="#mc1d62f52b8" y="319.734194"/>
     <use style="fill:#4c72b0;fill-opacity:0.8;stroke:#000000;stroke-opacity:0.8;stroke-width:0.7;" x="549.88194" xlink:href="#mc1d62f52b8" y="325.218506"/>
    </g>
   </g>
   <g id="PolyCollection_1">
    <defs>
     <path d="M 84.595909 -250.489319 
L 84.595909 -150.594218 
L 89.413264 -151.167523 
L 94.23062 -151.740827 
L 99.047975 -152.314132 
L 103.865331 -153.039294 
L 108.682686 -153.857257 
L 113.500041 -154.6761 
L 118.317397 -155.496487 
L 123.134752 -156.322108 
L 127.952107 -157.148397 
L 132.769463 -157.974687 
L 137.586818 -158.692784 
L 142.404174 -159.496121 
L 147.221529 -160.21424 
L 152.038884 -160.977272 
L 156.85624 -161.840791 
L 161.673595 -162.70431 
L 166.49095 -163.56783 
L 171.308306 -164.431349 
L 176.125661 -165.152813 
L 180.943017 -165.770412 
L 185.760372 -166.388011 
L 190.577727 -167.00561 
L 195.395083 -167.623209 
L 200.212438 -168.240807 
L 205.029793 -168.858406 
L 209.847149 -169.550021 
L 214.664504 -170.266286 
L 219.48186 -170.98567 
L 224.299215 -171.705054 
L 229.11657 -172.400073 
L 233.933926 -173.044275 
L 238.751281 -173.689314 
L 243.568636 -174.337659 
L 248.385992 -174.986004 
L 253.203347 -175.534575 
L 258.020702 -176.229449 
L 262.838058 -176.806808 
L 267.655413 -177.282238 
L 272.472769 -178.029731 
L 277.290124 -178.676986 
L 282.107479 -179.401148 
L 286.924835 -180.128865 
L 291.74219 -180.808835 
L 296.559545 -181.379165 
L 301.376901 -182.106187 
L 306.194256 -182.804329 
L 311.011612 -183.482276 
L 315.828967 -184.042855 
L 320.646322 -184.691555 
L 325.463678 -185.340255 
L 330.281033 -185.924252 
L 335.098388 -186.457829 
L 339.915744 -186.987219 
L 344.733099 -187.516609 
L 349.550455 -188.009435 
L 354.36781 -188.331694 
L 359.185165 -188.653952 
L 364.002521 -189.115525 
L 368.819876 -189.666257 
L 373.637231 -190.158803 
L 378.454587 -190.57931 
L 383.271942 -190.890379 
L 388.089298 -191.411268 
L 392.906653 -191.832075 
L 397.724008 -192.244693 
L 402.541364 -192.667702 
L 407.358719 -193.087234 
L 412.176074 -193.357086 
L 416.99343 -193.704116 
L 421.810785 -194.177262 
L 426.62814 -194.553439 
L 431.445496 -194.858548 
L 436.262851 -195.274689 
L 441.080207 -195.736771 
L 445.897562 -196.282777 
L 450.714917 -196.704764 
L 455.532273 -196.77868 
L 460.349628 -196.956606 
L 465.166983 -197.431281 
L 469.984339 -197.742987 
L 474.801694 -198.101184 
L 479.61905 -198.185496 
L 484.436405 -198.31339 
L 489.25376 -198.51224 
L 494.071116 -198.627344 
L 498.888471 -198.796164 
L 503.705826 -198.713479 
L 508.523182 -198.738485 
L 513.340537 -199.050575 
L 518.157893 -199.141804 
L 522.975248 -199.155764 
L 527.792603 -199.102071 
L 532.609959 -199.049688 
L 537.427314 -199.120195 
L 542.244669 -199.265919 
L 547.062025 -199.189221 
L 551.87938 -198.835923 
L 556.696736 -198.784088 
L 561.514091 -198.536844 
L 561.514091 -233.070004 
L 561.514091 -233.070004 
L 556.696736 -232.501529 
L 551.87938 -231.962404 
L 547.062025 -231.530767 
L 542.244669 -231.052214 
L 537.427314 -230.366082 
L 532.609959 -229.914165 
L 527.792603 -229.513082 
L 522.975248 -228.828898 
L 518.157893 -228.46026 
L 513.340537 -228.300748 
L 508.523182 -227.514229 
L 503.705826 -227.145645 
L 498.888471 -226.728783 
L 494.071116 -226.59277 
L 489.25376 -226.181156 
L 484.436405 -225.614342 
L 479.61905 -225.101773 
L 474.801694 -225.281268 
L 469.984339 -224.904503 
L 465.166983 -224.712531 
L 460.349628 -224.795263 
L 455.532273 -224.742599 
L 450.714917 -224.609809 
L 445.897562 -224.731965 
L 441.080207 -224.792259 
L 436.262851 -224.992617 
L 431.445496 -225.153469 
L 426.62814 -225.329835 
L 421.810785 -225.48964 
L 416.99343 -225.896016 
L 412.176074 -225.888467 
L 407.358719 -225.932049 
L 402.541364 -226.342907 
L 397.724008 -226.219596 
L 392.906653 -226.249827 
L 388.089298 -226.520371 
L 383.271942 -226.678131 
L 378.454587 -226.835371 
L 373.637231 -227.213869 
L 368.819876 -227.707159 
L 364.002521 -228.200448 
L 359.185165 -228.553903 
L 354.36781 -228.778758 
L 349.550455 -228.972723 
L 344.733099 -228.976359 
L 339.915744 -229.241848 
L 335.098388 -229.629053 
L 330.281033 -229.963928 
L 325.463678 -230.435694 
L 320.646322 -230.691682 
L 315.828967 -230.810489 
L 311.011612 -230.929296 
L 306.194256 -231.147592 
L 301.376901 -231.467602 
L 296.559545 -231.787613 
L 291.74219 -232.107624 
L 286.924835 -232.427634 
L 282.107479 -232.747645 
L 277.290124 -233.067655 
L 272.472769 -233.542026 
L 267.655413 -234.128539 
L 262.838058 -234.312184 
L 258.020702 -234.582995 
L 253.203347 -235.096451 
L 248.385992 -235.604078 
L 243.568636 -236.111705 
L 238.751281 -236.619332 
L 233.933926 -237.126959 
L 229.11657 -237.634586 
L 224.299215 -238.12454 
L 219.48186 -238.49432 
L 214.664504 -238.8641 
L 209.847149 -239.23388 
L 205.029793 -239.603659 
L 200.212438 -239.973439 
L 195.395083 -240.343219 
L 190.577727 -240.712998 
L 185.760372 -241.082778 
L 180.943017 -241.452558 
L 176.125661 -241.869035 
L 171.308306 -242.324739 
L 166.49095 -242.780444 
L 161.673595 -243.234726 
L 156.85624 -243.688138 
L 152.038884 -244.14155 
L 147.221529 -244.594962 
L 142.404174 -245.048375 
L 137.586818 -245.501787 
L 132.769463 -245.955199 
L 127.952107 -246.408611 
L 123.134752 -246.862023 
L 118.317397 -247.315435 
L 113.500041 -247.768847 
L 108.682686 -248.222259 
L 103.865331 -248.675671 
L 99.047975 -249.129083 
L 94.23062 -249.582495 
L 89.413264 -250.035907 
L 84.595909 -250.489319 
z
" id="mb777484ef5" style="stroke:#ffffff;stroke-opacity:0.15;"/>
    </defs>
    <g clip-path="url(#pd924af39e3)">
     <use style="fill:#4c72b0;fill-opacity:0.15;stroke:#ffffff;stroke-opacity:0.15;" x="0" xlink:href="#mb777484ef5" y="504"/>
    </g>
   </g>
   <g id="line2d_1">
    <path clip-path="url(#pd924af39e3)" d="M 84.595909 315.673579 
L 89.413264 315.408964 
L 94.23062 315.144349 
L 99.047975 314.879733 
L 103.865331 314.615118 
L 108.682686 314.350503 
L 113.500041 314.085888 
L 118.317397 313.821273 
L 123.134752 313.556657 
L 127.952107 313.292042 
L 132.769463 313.027427 
L 137.586818 312.762812 
L 142.404174 312.498197 
L 147.221529 312.233582 
L 152.038884 311.968966 
L 156.85624 311.704351 
L 161.673595 311.439736 
L 166.49095 311.175121 
L 171.308306 310.910506 
L 176.125661 310.64589 
L 180.943017 310.381275 
L 185.760372 310.11666 
L 190.577727 309.852045 
L 195.395083 309.58743 
L 200.212438 309.322815 
L 205.029793 309.058199 
L 209.847149 308.793584 
L 214.664504 308.528969 
L 219.48186 308.264354 
L 224.299215 307.999739 
L 229.11657 307.735124 
L 233.933926 307.470508 
L 238.751281 307.205893 
L 243.568636 306.941278 
L 248.385992 306.676663 
L 253.203347 306.412048 
L 258.020702 306.147432 
L 262.838058 305.882817 
L 267.655413 305.618202 
L 272.472769 305.353587 
L 277.290124 305.088972 
L 282.107479 304.824357 
L 286.924835 304.559741 
L 291.74219 304.295126 
L 296.559545 304.030511 
L 301.376901 303.765896 
L 306.194256 303.501281 
L 311.011612 303.236665 
L 315.828967 302.97205 
L 320.646322 302.707435 
L 325.463678 302.44282 
L 330.281033 302.178205 
L 335.098388 301.91359 
L 339.915744 301.648974 
L 344.733099 301.384359 
L 349.550455 301.119744 
L 354.36781 300.855129 
L 359.185165 300.590514 
L 364.002521 300.325898 
L 368.819876 300.061283 
L 373.637231 299.796668 
L 378.454587 299.532053 
L 383.271942 299.267438 
L 388.089298 299.002823 
L 392.906653 298.738207 
L 397.724008 298.473592 
L 402.541364 298.208977 
L 407.358719 297.944362 
L 412.176074 297.679747 
L 416.99343 297.415131 
L 421.810785 297.150516 
L 426.62814 296.885901 
L 431.445496 296.621286 
L 436.262851 296.356671 
L 441.080207 296.092056 
L 445.897562 295.82744 
L 450.714917 295.562825 
L 455.532273 295.29821 
L 460.349628 295.033595 
L 465.166983 294.76898 
L 469.984339 294.504364 
L 474.801694 294.239749 
L 479.61905 293.975134 
L 484.436405 293.710519 
L 489.25376 293.445904 
L 494.071116 293.181289 
L 498.888471 292.916673 
L 503.705826 292.652058 
L 508.523182 292.387443 
L 513.340537 292.122828 
L 518.157893 291.858213 
L 522.975248 291.593597 
L 527.792603 291.328982 
L 532.609959 291.064367 
L 537.427314 290.799752 
L 542.244669 290.535137 
L 547.062025 290.270522 
L 551.87938 290.005906 
L 556.696736 289.741291 
L 561.514091 289.476676 
" style="fill:none;stroke:#4c72b0;stroke-linecap:round;stroke-width:2.25;"/>
   </g>
   <g id="patch_3">
    <path d="M 60.75 437.22 
L 60.75 19.44 
" style="fill:none;stroke:#262626;stroke-linecap:square;stroke-linejoin:miter;stroke-width:1.25;"/>
   </g>
   <g id="patch_4">
    <path d="M 60.75 437.22 
L 585.36 437.22 
" style="fill:none;stroke:#262626;stroke-linecap:square;stroke-linejoin:miter;stroke-width:1.25;"/>
   </g>
   <g id="text_13">
    <!-- Human ratings ~ Control geographic space -->
    <g style="fill:#262626;" transform="translate(127.919531 13.44)scale(0.18 -0.18)">
     <defs>
      <path d="M 4684 2553 
L 4684 1997 
Q 4356 1750 4076 1644 
Q 3797 1538 3494 1538 
Q 3150 1538 2694 1722 
Q 2659 1734 2644 1741 
Q 2622 1750 2575 1766 
Q 2091 1959 1797 1959 
Q 1522 1959 1253 1839 
Q 984 1719 678 1459 
L 678 2016 
Q 1006 2263 1286 2370 
Q 1566 2478 1869 2478 
Q 2213 2478 2672 2291 
Q 2703 2278 2719 2272 
Q 2744 2263 2788 2247 
Q 3272 2053 3566 2053 
Q 3834 2053 4098 2172 
Q 4363 2291 4684 2553 
z
" id="DejaVuSans-7e" transform="scale(0.015625)"/>
      <path d="M 3513 2113 
L 3513 0 
L 2938 0 
L 2938 2094 
Q 2938 2591 2744 2837 
Q 2550 3084 2163 3084 
Q 1697 3084 1428 2787 
Q 1159 2491 1159 1978 
L 1159 0 
L 581 0 
L 581 4863 
L 1159 4863 
L 1159 2956 
Q 1366 3272 1645 3428 
Q 1925 3584 2291 3584 
Q 2894 3584 3203 3211 
Q 3513 2838 3513 2113 
z
" id="DejaVuSans-68" transform="scale(0.015625)"/>
     </defs>
     <use xlink:href="#DejaVuSans-48"/>
     <use x="75.195312" xlink:href="#DejaVuSans-75"/>
     <use x="138.574219" xlink:href="#DejaVuSans-6d"/>
     <use x="235.986328" xlink:href="#DejaVuSans-61"/>
     <use x="297.265625" xlink:href="#DejaVuSans-6e"/>
     <use x="360.644531" xlink:href="#DejaVuSans-20"/>
     <use x="392.431641" xlink:href="#DejaVuSans-72"/>
     <use x="433.544922" xlink:href="#DejaVuSans-61"/>
     <use x="494.824219" xlink:href="#DejaVuSans-74"/>
     <use x="534.033203" xlink:href="#DejaVuSans-69"/>
     <use x="561.816406" xlink:href="#DejaVuSans-6e"/>
     <use x="625.195312" xlink:href="#DejaVuSans-67"/>
     <use x="688.671875" xlink:href="#DejaVuSans-73"/>
     <use x="740.771484" xlink:href="#DejaVuSans-20"/>
     <use x="772.558594" xlink:href="#DejaVuSans-7e"/>
     <use x="856.347656" xlink:href="#DejaVuSans-20"/>
     <use x="888.134766" xlink:href="#DejaVuSans-43"/>
     <use x="957.958984" xlink:href="#DejaVuSans-6f"/>
     <use x="1019.140625" xlink:href="#DejaVuSans-6e"/>
     <use x="1082.519531" xlink:href="#DejaVuSans-74"/>
     <use x="1121.728516" xlink:href="#DejaVuSans-72"/>
     <use x="1160.591797" xlink:href="#DejaVuSans-6f"/>
     <use x="1221.773438" xlink:href="#DejaVuSans-6c"/>
     <use x="1249.556641" xlink:href="#DejaVuSans-20"/>
     <use x="1281.34375" xlink:href="#DejaVuSans-67"/>
     <use x="1344.820312" xlink:href="#DejaVuSans-65"/>
     <use x="1406.34375" xlink:href="#DejaVuSans-6f"/>
     <use x="1467.525391" xlink:href="#DejaVuSans-67"/>
     <use x="1531.001953" xlink:href="#DejaVuSans-72"/>
     <use x="1572.115234" xlink:href="#DejaVuSans-61"/>
     <use x="1633.394531" xlink:href="#DejaVuSans-70"/>
     <use x="1696.871094" xlink:href="#DejaVuSans-68"/>
     <use x="1760.25" xlink:href="#DejaVuSans-69"/>
     <use x="1788.033203" xlink:href="#DejaVuSans-63"/>
     <use x="1843.013672" xlink:href="#DejaVuSans-20"/>
     <use x="1874.800781" xlink:href="#DejaVuSans-73"/>
     <use x="1926.900391" xlink:href="#DejaVuSans-70"/>
     <use x="1990.376953" xlink:href="#DejaVuSans-61"/>
     <use x="2051.65625" xlink:href="#DejaVuSans-63"/>
     <use x="2106.636719" xlink:href="#DejaVuSans-65"/>
    </g>
   </g>
  </g>
  <g id="text_14">
   <!-- r =  0.092 -->
   <g style="fill:#262626;" transform="translate(247.694625 56.732625)scale(0.216 -0.216)">
    <defs>
     <path d="M 678 2906 
L 4684 2906 
L 4684 2381 
L 678 2381 
L 678 2906 
z
M 678 1631 
L 4684 1631 
L 4684 1100 
L 678 1100 
L 678 1631 
z
" id="DejaVuSans-3d" transform="scale(0.015625)"/>
     <path d="M 703 97 
L 703 672 
Q 941 559 1184 500 
Q 1428 441 1663 441 
Q 2288 441 2617 861 
Q 2947 1281 2994 2138 
Q 2813 1869 2534 1725 
Q 2256 1581 1919 1581 
Q 1219 1581 811 2004 
Q 403 2428 403 3163 
Q 403 3881 828 4315 
Q 1253 4750 1959 4750 
Q 2769 4750 3195 4129 
Q 3622 3509 3622 2328 
Q 3622 1225 3098 567 
Q 2575 -91 1691 -91 
Q 1453 -91 1209 -44 
Q 966 3 703 97 
z
M 1959 2075 
Q 2384 2075 2632 2365 
Q 2881 2656 2881 3163 
Q 2881 3666 2632 3958 
Q 2384 4250 1959 4250 
Q 1534 4250 1286 3958 
Q 1038 3666 1038 3163 
Q 1038 2656 1286 2365 
Q 1534 2075 1959 2075 
z
" id="DejaVuSans-39" transform="scale(0.015625)"/>
    </defs>
    <use xlink:href="#DejaVuSans-72"/>
    <use x="41.113281" xlink:href="#DejaVuSans-20"/>
    <use x="72.900391" xlink:href="#DejaVuSans-3d"/>
    <use x="156.689453" xlink:href="#DejaVuSans-20"/>
    <use x="188.476562" xlink:href="#DejaVuSans-20"/>
    <use x="220.263672" xlink:href="#DejaVuSans-30"/>
    <use x="283.886719" xlink:href="#DejaVuSans-2e"/>
    <use x="315.673828" xlink:href="#DejaVuSans-30"/>
    <use x="379.296875" xlink:href="#DejaVuSans-39"/>
    <use x="442.919922" xlink:href="#DejaVuSans-32"/>
   </g>
  </g>
 </g>
 <defs>
  <clipPath id="pd924af39e3">
   <rect height="417.78" width="524.61" x="60.75" y="19.44"/>
  </clipPath>
 </defs>
</svg>
